<?xml version="1.0"?>
<!-- Created by MetaPost 2.00 on 2025.04.10:2012 -->
<svg version="1.1" xmlns="http://www.w3.org/2000/svg" xmlns:xlink="http://www.w3.org/1999/xlink" width="635.205124" height="680.188507" viewBox="0 0 635.205124 680.188507">
<!-- Original BoundingBox: -320.314545 -289.483627 314.890579 390.704880 -->
  <path d="M110.515854 499.871902L89.200653 500.892685L71.518723 512.173126L67.150146 532.017731L86.994736 559.967972L112.047012 579.803925L110.515854 499.871902Z" style="fill: rgb(100.000000%,100.000000%,100.000000%);stroke: none;"></path>
  <path d="M240.180450 539.388077L229.124924 551.118362L223.510651 572.433563L254.635681 629.078018L282.014999 633.498505L240.180450 539.388077Z" style="fill: rgb(100.000000%,100.000000%,100.000000%);stroke: none;"></path>
  <path d="M419.101852 629.813324L432.821777 612.183304L437.181702 592.736633L424.205734 599.025665L419.101852 629.813324Z" style="fill: rgb(100.000000%,100.000000%,100.000000%);stroke: none;"></path>
  <path d="M356.116470 632.019241L370.796616 651.128525L394.326385 662.919373L409.067093 658.498886L416.662369 644.493484L419.101852 629.813324L424.205734 599.025665L356.116470 632.019241Z" style="fill: rgb(100.000000%,100.000000%,100.000000%);stroke: none;"></path>
  <path d="M456.853287 564.613373L478.177139 580.772797L490.642731 580.772797L504.760590 565.409241L456.853287 564.613373Z" style="fill: rgb(100.000000%,100.000000%,100.000000%);stroke: none;"></path>
  <path d="M510.547867 559.224014L539.908188 547.433182L544.847702 538.990143L529.760971 538.652771L510.547867 559.224014Z" style="fill: rgb(100.000000%,100.000000%,100.000000%);stroke: none;"></path>
  <path d="M443.591843 564.388458L456.853287 564.613373L504.760590 565.409241L510.547867 559.224014L529.760971 538.652771L449.768402 536.888046L443.591843 564.388458Z" style="fill: rgb(100.000000%,100.000000%,100.000000%);stroke: none;"></path>
  <path d="M303.165833 623.178284L339.957047 639.848083L356.116470 632.019241L437.181702 592.736633L443.591843 564.388458L449.768402 536.888046L421.878708 536.265198L303.165833 623.178284Z" style="fill: rgb(100.000000%,100.000000%,100.000000%);stroke: none;"></path>
  <path d="M237.005661 532.242645L240.180450 539.388077L282.014999 633.498505L287.741730 634.458725L303.165833 623.178284L421.878708 536.265198L237.005661 532.242645Z" style="fill: rgb(100.000000%,100.000000%,100.000000%);stroke: none;"></path>
  <path d="M560.548630 512.398056L586.284317 524.647369L601.708420 524.188889L616.388580 515.858307L623.758926 493.747253L617.634277 472.432053L593.879593 455.935257L560.548630 512.398056Z" style="fill: rgb(100.000000%,100.000000%,100.000000%);stroke: none;"></path>
  <path d="M548.757797 444.481796L525.228027 409.221741L507.995926 393.745728L480.097580 406.955276L548.757797 444.481796Z" style="fill: rgb(100.000000%,100.000000%,100.000000%);stroke: none;"></path>
  <path d="M564.917206 453.322754L548.757797 444.481796L480.097580 406.955276L378.564896 455.026932L564.917206 453.322754Z" style="fill: rgb(100.000000%,100.000000%,100.000000%);stroke: none;"></path>
  <path d="M216.425766 531.792816L237.005661 532.242645L544.847702 538.990143L560.548630 512.398056L593.879593 455.935257L589.917587 453.097839L564.917206 453.322754L378.564896 455.026932L216.425766 531.792816Z" style="fill: rgb(100.000000%,100.000000%,100.000000%);stroke: none;"></path>
  <path d="M451.187119 291.581558L459.803162 243.051407L459.067856 240.049622L439.621185 260.741989L451.187119 291.581558Z" style="fill: rgb(100.000000%,100.000000%,100.000000%);stroke: none;"></path>
  <path d="M458.332550 310.690842L451.187119 291.581558L439.621185 260.741989L402.881882 299.747772L415.581039 311.140671L458.332550 310.690842Z" style="fill: rgb(100.000000%,100.000000%,100.000000%);stroke: none;"></path>
  <path d="M492.398804 379.792236L508.558228 351.106674L503.402435 328.320862L481.118362 310.457275L458.332550 310.690842L415.581039 311.140671L492.398804 379.792236Z" style="fill: rgb(100.000000%,100.000000%,100.000000%);stroke: none;"></path>
  <path d="M159.046005 558.947205L216.425766 531.792816L507.995926 393.745728L492.398804 379.792236L402.881882 299.747772L159.046005 558.947205Z" style="fill: rgb(100.000000%,100.000000%,100.000000%);stroke: none;"></path>
  <path d="M449.033096 195.256561L487.753403 181.484726L509.803925 166.570999L521.828323 140.835327L518.878448 115.099640L512.018478 101.094238L491.386688 84.709900L457.597244 80.514343L437.017349 85.670120L426.411652 94.519745L449.033096 195.256561Z" style="fill: rgb(100.000000%,100.000000%,100.000000%);stroke: none;"></path>
  <path d="M277.421494 101.829544L264.211960 98.144363L250.838058 108.464584L256.166855 109.260452L277.421494 101.829544Z" style="fill: rgb(100.000000%,100.000000%,100.000000%);stroke: none;"></path>
  <path d="M348.746109 122.184525L293.580917 96.215271L277.421494 101.829544L256.166855 109.260452L348.746109 122.184525Z" style="fill: rgb(100.000000%,100.000000%,100.000000%);stroke: none;"></path>
  <path d="M203.155670 126.829910L159.789963 129.779785L92.375443 148.145126L62.729660 175.360062L62.383636 176.778778L203.155670 126.829910Z" style="fill: rgb(100.000000%,100.000000%,100.000000%);stroke: none;"></path>
  <path d="M247.265335 111.180893L203.155670 126.829910L62.383636 176.778778L57.565216 198.154526L60.290176 215.101151L80.982529 237.895615L247.265335 111.180893Z" style="fill: rgb(100.000000%,100.000000%,100.000000%);stroke: none;"></path>
  <path d="M128.889832 325.370987L106.830673 321.685822L75.939209 328.545776L60.004700 340.111694L56.829910 359.212341L77.409821 381.496414L83.136551 382.517181L126.675262 345.950882L128.889832 325.370987Z" style="fill: rgb(100.000000%,100.000000%,100.000000%);stroke: none;"></path>
  <path d="M143.630539 256.996246L133.310318 284.211197L128.889832 325.370987L126.675262 345.950882L168.916397 310.457275L143.630539 256.996246Z" style="fill: rgb(100.000000%,100.000000%,100.000000%);stroke: none;"></path>
  <path d="M137.730804 244.522018L143.630539 256.996246L168.916397 310.457275L269.030365 226.494064L137.730804 244.522018Z" style="fill: rgb(100.000000%,100.000000%,100.000000%);stroke: none;"></path>
  <path d="M387.007935 127.565216L348.746109 122.184525L250.838058 108.464584L247.265335 111.180893L80.982529 237.895615L82.574249 239.591141L111.259811 248.155289L137.730804 244.522018L269.030365 226.494064L387.007935 127.565216Z" style="fill: rgb(100.000000%,100.000000%,100.000000%);stroke: none;"></path>
  <path d="M291.426895 418.175171L459.067856 240.049622L449.033096 195.256561L426.411652 94.519745L387.007935 127.565216L83.136551 382.517181L144.365845 393.001770L291.426895 418.175171Z" style="fill: rgb(100.000000%,100.000000%,100.000000%);stroke: none;"></path>
  <path d="M256.729141 455.026932L291.426895 418.175171L144.365845 393.001770L159.046005 401.116089L256.729141 455.026932Z" style="fill: rgb(100.000000%,100.000000%,100.000000%);stroke: none;"></path>
  <path d="M110.290939 487.622589L110.515854 499.871902L112.047012 579.803925L114.201035 581.508102L139.210052 580.037491L159.046005 558.947205L256.729141 455.026932L159.046005 401.116089L114.434601 470.961441L110.290939 487.622589Z" style="fill: rgb(100.000000%,100.000000%,100.000000%);stroke: none;"></path>
  <path d="M112.047012 579.803925L110.515854 499.871902" style="stroke:rgb(100.000000%,100.000000%,100.000000%); stroke-width: 1.000000;stroke-linecap: round;stroke-linejoin: round;stroke-miterlimit: 10.000000;fill: none;"></path>
  <path d="M282.014999 633.498505L240.180450 539.388077" style="stroke:rgb(100.000000%,100.000000%,100.000000%); stroke-width: 1.000000;stroke-linecap: round;stroke-linejoin: round;stroke-miterlimit: 10.000000;fill: none;"></path>
  <path d="M437.181702 592.736633L424.205734 599.025665" style="stroke:rgb(100.000000%,100.000000%,100.000000%); stroke-width: 1.000000;stroke-linecap: round;stroke-linejoin: round;stroke-miterlimit: 10.000000;fill: none;"></path>
  <path d="M424.205734 599.025665L419.101852 629.813324" style="stroke:rgb(100.000000%,100.000000%,100.000000%); stroke-width: 1.000000;stroke-linecap: round;stroke-linejoin: round;stroke-miterlimit: 10.000000;fill: none;"></path>
  <path d="M419.101852 629.813324L424.205734 599.025665" style="stroke:rgb(100.000000%,100.000000%,100.000000%); stroke-width: 1.000000;stroke-linecap: round;stroke-linejoin: round;stroke-miterlimit: 10.000000;fill: none;"></path>
  <path d="M424.205734 599.025665L356.116470 632.019241" style="stroke:rgb(100.000000%,100.000000%,100.000000%); stroke-width: 1.000000;stroke-linecap: round;stroke-linejoin: round;stroke-miterlimit: 10.000000;fill: none;"></path>
  <path d="M504.760590 565.409241L456.853287 564.613373" style="stroke:rgb(100.000000%,100.000000%,100.000000%); stroke-width: 1.000000;stroke-linecap: round;stroke-linejoin: round;stroke-miterlimit: 10.000000;fill: none;"></path>
  <path d="M544.847702 538.990143L529.760971 538.652771" style="stroke:rgb(100.000000%,100.000000%,100.000000%); stroke-width: 1.000000;stroke-linecap: round;stroke-linejoin: round;stroke-miterlimit: 10.000000;fill: none;"></path>
  <path d="M529.760971 538.652771L510.547867 559.224014" style="stroke:rgb(100.000000%,100.000000%,100.000000%); stroke-width: 1.000000;stroke-linecap: round;stroke-linejoin: round;stroke-miterlimit: 10.000000;fill: none;"></path>
  <path d="M456.853287 564.613373L504.760590 565.409241" style="stroke:rgb(100.000000%,100.000000%,100.000000%); stroke-width: 1.000000;stroke-linecap: round;stroke-linejoin: round;stroke-miterlimit: 10.000000;fill: none;"></path>
  <path d="M510.547867 559.224014L529.760971 538.652771" style="stroke:rgb(100.000000%,100.000000%,100.000000%); stroke-width: 1.000000;stroke-linecap: round;stroke-linejoin: round;stroke-miterlimit: 10.000000;fill: none;"></path>
  <path d="M529.760971 538.652771L449.768402 536.888046" style="stroke:rgb(100.000000%,100.000000%,100.000000%); stroke-width: 1.000000;stroke-linecap: round;stroke-linejoin: round;stroke-miterlimit: 10.000000;fill: none;"></path>
  <path d="M449.768402 536.888046L443.591843 564.388458" style="stroke:rgb(100.000000%,100.000000%,100.000000%); stroke-width: 1.000000;stroke-linecap: round;stroke-linejoin: round;stroke-miterlimit: 10.000000;fill: none;"></path>
  <path d="M356.116470 632.019241L437.181702 592.736633" style="stroke:rgb(100.000000%,100.000000%,100.000000%); stroke-width: 1.000000;stroke-linecap: round;stroke-linejoin: round;stroke-miterlimit: 10.000000;fill: none;"></path>
  <path d="M443.591843 564.388458L449.768402 536.888046" style="stroke:rgb(100.000000%,100.000000%,100.000000%); stroke-width: 1.000000;stroke-linecap: round;stroke-linejoin: round;stroke-miterlimit: 10.000000;fill: none;"></path>
  <path d="M449.768402 536.888046L421.878708 536.265198" style="stroke:rgb(100.000000%,100.000000%,100.000000%); stroke-width: 1.000000;stroke-linecap: round;stroke-linejoin: round;stroke-miterlimit: 10.000000;fill: none;"></path>
  <path d="M421.878708 536.265198L303.165833 623.178284" style="stroke:rgb(100.000000%,100.000000%,100.000000%); stroke-width: 1.000000;stroke-linecap: round;stroke-linejoin: round;stroke-miterlimit: 10.000000;fill: none;"></path>
  <path d="M240.180450 539.388077L282.014999 633.498505" style="stroke:rgb(100.000000%,100.000000%,100.000000%); stroke-width: 1.000000;stroke-linecap: round;stroke-linejoin: round;stroke-miterlimit: 10.000000;fill: none;"></path>
  <path d="M303.165833 623.178284L421.878708 536.265198" style="stroke:rgb(100.000000%,100.000000%,100.000000%); stroke-width: 1.000000;stroke-linecap: round;stroke-linejoin: round;stroke-miterlimit: 10.000000;fill: none;"></path>
  <path d="M421.878708 536.265198L237.005661 532.242645" style="stroke:rgb(100.000000%,100.000000%,100.000000%); stroke-width: 1.000000;stroke-linecap: round;stroke-linejoin: round;stroke-miterlimit: 10.000000;fill: none;"></path>
  <path d="M593.879593 455.935257L560.548630 512.398056" style="stroke:rgb(100.000000%,100.000000%,100.000000%); stroke-width: 1.000000;stroke-linecap: round;stroke-linejoin: round;stroke-miterlimit: 10.000000;fill: none;"></path>
  <path d="M507.995926 393.745728L480.097580 406.955276" style="stroke:rgb(100.000000%,100.000000%,100.000000%); stroke-width: 1.000000;stroke-linecap: round;stroke-linejoin: round;stroke-miterlimit: 10.000000;fill: none;"></path>
  <path d="M480.097580 406.955276L548.757797 444.481796" style="stroke:rgb(100.000000%,100.000000%,100.000000%); stroke-width: 1.000000;stroke-linecap: round;stroke-linejoin: round;stroke-miterlimit: 10.000000;fill: none;"></path>
  <path d="M548.757797 444.481796L480.097580 406.955276" style="stroke:rgb(100.000000%,100.000000%,100.000000%); stroke-width: 1.000000;stroke-linecap: round;stroke-linejoin: round;stroke-miterlimit: 10.000000;fill: none;"></path>
  <path d="M480.097580 406.955276L378.564896 455.026932" style="stroke:rgb(100.000000%,100.000000%,100.000000%); stroke-width: 1.000000;stroke-linecap: round;stroke-linejoin: round;stroke-miterlimit: 10.000000;fill: none;"></path>
  <path d="M378.564896 455.026932L564.917206 453.322754" style="stroke:rgb(100.000000%,100.000000%,100.000000%); stroke-width: 1.000000;stroke-linecap: round;stroke-linejoin: round;stroke-miterlimit: 10.000000;fill: none;"></path>
  <path d="M237.005661 532.242645L544.847702 538.990143" style="stroke:rgb(100.000000%,100.000000%,100.000000%); stroke-width: 1.000000;stroke-linecap: round;stroke-linejoin: round;stroke-miterlimit: 10.000000;fill: none;"></path>
  <path d="M560.548630 512.398056L593.879593 455.935257" style="stroke:rgb(100.000000%,100.000000%,100.000000%); stroke-width: 1.000000;stroke-linecap: round;stroke-linejoin: round;stroke-miterlimit: 10.000000;fill: none;"></path>
  <path d="M564.917206 453.322754L378.564896 455.026932" style="stroke:rgb(100.000000%,100.000000%,100.000000%); stroke-width: 1.000000;stroke-linecap: round;stroke-linejoin: round;stroke-miterlimit: 10.000000;fill: none;"></path>
  <path d="M378.564896 455.026932L216.425766 531.792816" style="stroke:rgb(100.000000%,100.000000%,100.000000%); stroke-width: 1.000000;stroke-linecap: round;stroke-linejoin: round;stroke-miterlimit: 10.000000;fill: none;"></path>
  <path d="M459.067856 240.049622L439.621185 260.741989" style="stroke:rgb(100.000000%,100.000000%,100.000000%); stroke-width: 1.000000;stroke-linecap: round;stroke-linejoin: round;stroke-miterlimit: 10.000000;fill: none;"></path>
  <path d="M439.621185 260.741989L451.187119 291.581558" style="stroke:rgb(100.000000%,100.000000%,100.000000%); stroke-width: 1.000000;stroke-linecap: round;stroke-linejoin: round;stroke-miterlimit: 10.000000;fill: none;"></path>
  <path d="M451.187119 291.581558L439.621185 260.741989" style="stroke:rgb(100.000000%,100.000000%,100.000000%); stroke-width: 1.000000;stroke-linecap: round;stroke-linejoin: round;stroke-miterlimit: 10.000000;fill: none;"></path>
  <path d="M439.621185 260.741989L402.881882 299.747772" style="stroke:rgb(100.000000%,100.000000%,100.000000%); stroke-width: 1.000000;stroke-linecap: round;stroke-linejoin: round;stroke-miterlimit: 10.000000;fill: none;"></path>
  <path d="M402.881882 299.747772L415.581039 311.140671" style="stroke:rgb(100.000000%,100.000000%,100.000000%); stroke-width: 1.000000;stroke-linecap: round;stroke-linejoin: round;stroke-miterlimit: 10.000000;fill: none;"></path>
  <path d="M415.581039 311.140671L458.332550 310.690842" style="stroke:rgb(100.000000%,100.000000%,100.000000%); stroke-width: 1.000000;stroke-linecap: round;stroke-linejoin: round;stroke-miterlimit: 10.000000;fill: none;"></path>
  <path d="M458.332550 310.690842L415.581039 311.140671" style="stroke:rgb(100.000000%,100.000000%,100.000000%); stroke-width: 1.000000;stroke-linecap: round;stroke-linejoin: round;stroke-miterlimit: 10.000000;fill: none;"></path>
  <path d="M415.581039 311.140671L492.398804 379.792236" style="stroke:rgb(100.000000%,100.000000%,100.000000%); stroke-width: 1.000000;stroke-linecap: round;stroke-linejoin: round;stroke-miterlimit: 10.000000;fill: none;"></path>
  <path d="M216.425766 531.792816L507.995926 393.745728" style="stroke:rgb(100.000000%,100.000000%,100.000000%); stroke-width: 1.000000;stroke-linecap: round;stroke-linejoin: round;stroke-miterlimit: 10.000000;fill: none;"></path>
  <path d="M492.398804 379.792236L402.881882 299.747772" style="stroke:rgb(100.000000%,100.000000%,100.000000%); stroke-width: 1.000000;stroke-linecap: round;stroke-linejoin: round;stroke-miterlimit: 10.000000;fill: none;"></path>
  <path d="M402.881882 299.747772L159.046005 558.947205" style="stroke:rgb(100.000000%,100.000000%,100.000000%); stroke-width: 1.000000;stroke-linecap: round;stroke-linejoin: round;stroke-miterlimit: 10.000000;fill: none;"></path>
  <path d="M426.411652 94.519745L449.033096 195.256561" style="stroke:rgb(100.000000%,100.000000%,100.000000%); stroke-width: 1.000000;stroke-linecap: round;stroke-linejoin: round;stroke-miterlimit: 10.000000;fill: none;"></path>
  <path d="M250.838058 108.464584L256.166855 109.260452" style="stroke:rgb(100.000000%,100.000000%,100.000000%); stroke-width: 1.000000;stroke-linecap: round;stroke-linejoin: round;stroke-miterlimit: 10.000000;fill: none;"></path>
  <path d="M256.166855 109.260452L277.421494 101.829544" style="stroke:rgb(100.000000%,100.000000%,100.000000%); stroke-width: 1.000000;stroke-linecap: round;stroke-linejoin: round;stroke-miterlimit: 10.000000;fill: none;"></path>
  <path d="M277.421494 101.829544L256.166855 109.260452" style="stroke:rgb(100.000000%,100.000000%,100.000000%); stroke-width: 1.000000;stroke-linecap: round;stroke-linejoin: round;stroke-miterlimit: 10.000000;fill: none;"></path>
  <path d="M256.166855 109.260452L348.746109 122.184525" style="stroke:rgb(100.000000%,100.000000%,100.000000%); stroke-width: 1.000000;stroke-linecap: round;stroke-linejoin: round;stroke-miterlimit: 10.000000;fill: none;"></path>
  <path d="M62.383636 176.778778L203.155670 126.829910" style="stroke:rgb(100.000000%,100.000000%,100.000000%); stroke-width: 1.000000;stroke-linecap: round;stroke-linejoin: round;stroke-miterlimit: 10.000000;fill: none;"></path>
  <path d="M203.155670 126.829910L62.383636 176.778778" style="stroke:rgb(100.000000%,100.000000%,100.000000%); stroke-width: 1.000000;stroke-linecap: round;stroke-linejoin: round;stroke-miterlimit: 10.000000;fill: none;"></path>
  <path d="M80.982529 237.895615L247.265335 111.180893" style="stroke:rgb(100.000000%,100.000000%,100.000000%); stroke-width: 1.000000;stroke-linecap: round;stroke-linejoin: round;stroke-miterlimit: 10.000000;fill: none;"></path>
  <path d="M83.136551 382.517181L126.675262 345.950882" style="stroke:rgb(100.000000%,100.000000%,100.000000%); stroke-width: 1.000000;stroke-linecap: round;stroke-linejoin: round;stroke-miterlimit: 10.000000;fill: none;"></path>
  <path d="M126.675262 345.950882L128.889832 325.370987" style="stroke:rgb(100.000000%,100.000000%,100.000000%); stroke-width: 1.000000;stroke-linecap: round;stroke-linejoin: round;stroke-miterlimit: 10.000000;fill: none;"></path>
  <path d="M128.889832 325.370987L126.675262 345.950882" style="stroke:rgb(100.000000%,100.000000%,100.000000%); stroke-width: 1.000000;stroke-linecap: round;stroke-linejoin: round;stroke-miterlimit: 10.000000;fill: none;"></path>
  <path d="M126.675262 345.950882L168.916397 310.457275" style="stroke:rgb(100.000000%,100.000000%,100.000000%); stroke-width: 1.000000;stroke-linecap: round;stroke-linejoin: round;stroke-miterlimit: 10.000000;fill: none;"></path>
  <path d="M168.916397 310.457275L143.630539 256.996246" style="stroke:rgb(100.000000%,100.000000%,100.000000%); stroke-width: 1.000000;stroke-linecap: round;stroke-linejoin: round;stroke-miterlimit: 10.000000;fill: none;"></path>
  <path d="M143.630539 256.996246L168.916397 310.457275" style="stroke:rgb(100.000000%,100.000000%,100.000000%); stroke-width: 1.000000;stroke-linecap: round;stroke-linejoin: round;stroke-miterlimit: 10.000000;fill: none;"></path>
  <path d="M168.916397 310.457275L269.030365 226.494064" style="stroke:rgb(100.000000%,100.000000%,100.000000%); stroke-width: 1.000000;stroke-linecap: round;stroke-linejoin: round;stroke-miterlimit: 10.000000;fill: none;"></path>
  <path d="M269.030365 226.494064L137.730804 244.522018" style="stroke:rgb(100.000000%,100.000000%,100.000000%); stroke-width: 1.000000;stroke-linecap: round;stroke-linejoin: round;stroke-miterlimit: 10.000000;fill: none;"></path>
  <path d="M348.746109 122.184525L250.838058 108.464584" style="stroke:rgb(100.000000%,100.000000%,100.000000%); stroke-width: 1.000000;stroke-linecap: round;stroke-linejoin: round;stroke-miterlimit: 10.000000;fill: none;"></path>
  <path d="M247.265335 111.180893L80.982529 237.895615" style="stroke:rgb(100.000000%,100.000000%,100.000000%); stroke-width: 1.000000;stroke-linecap: round;stroke-linejoin: round;stroke-miterlimit: 10.000000;fill: none;"></path>
  <path d="M137.730804 244.522018L269.030365 226.494064" style="stroke:rgb(100.000000%,100.000000%,100.000000%); stroke-width: 1.000000;stroke-linecap: round;stroke-linejoin: round;stroke-miterlimit: 10.000000;fill: none;"></path>
  <path d="M269.030365 226.494064L387.007935 127.565216" style="stroke:rgb(100.000000%,100.000000%,100.000000%); stroke-width: 1.000000;stroke-linecap: round;stroke-linejoin: round;stroke-miterlimit: 10.000000;fill: none;"></path>
  <path d="M291.426895 418.175171L459.067856 240.049622" style="stroke:rgb(100.000000%,100.000000%,100.000000%); stroke-width: 1.000000;stroke-linecap: round;stroke-linejoin: round;stroke-miterlimit: 10.000000;fill: none;"></path>
  <path d="M449.033096 195.256561L426.411652 94.519745" style="stroke:rgb(100.000000%,100.000000%,100.000000%); stroke-width: 1.000000;stroke-linecap: round;stroke-linejoin: round;stroke-miterlimit: 10.000000;fill: none;"></path>
  <path d="M387.007935 127.565216L83.136551 382.517181" style="stroke:rgb(100.000000%,100.000000%,100.000000%); stroke-width: 1.000000;stroke-linecap: round;stroke-linejoin: round;stroke-miterlimit: 10.000000;fill: none;"></path>
  <path d="M144.365845 393.001770L291.426895 418.175171" style="stroke:rgb(100.000000%,100.000000%,100.000000%); stroke-width: 1.000000;stroke-linecap: round;stroke-linejoin: round;stroke-miterlimit: 10.000000;fill: none;"></path>
  <path d="M256.729141 455.026932L291.426895 418.175171" style="stroke:rgb(100.000000%,100.000000%,100.000000%); stroke-width: 1.000000;stroke-linecap: round;stroke-linejoin: round;stroke-miterlimit: 10.000000;fill: none;"></path>
  <path d="M291.426895 418.175171L144.365845 393.001770" style="stroke:rgb(100.000000%,100.000000%,100.000000%); stroke-width: 1.000000;stroke-linecap: round;stroke-linejoin: round;stroke-miterlimit: 10.000000;fill: none;"></path>
  <path d="M159.046005 401.116089L256.729141 455.026932" style="stroke:rgb(100.000000%,100.000000%,100.000000%); stroke-width: 1.000000;stroke-linecap: round;stroke-linejoin: round;stroke-miterlimit: 10.000000;fill: none;"></path>
  <path d="M110.515854 499.871902L112.047012 579.803925" style="stroke:rgb(100.000000%,100.000000%,100.000000%); stroke-width: 1.000000;stroke-linecap: round;stroke-linejoin: round;stroke-miterlimit: 10.000000;fill: none;"></path>
  <path d="M159.046005 558.947205L256.729141 455.026932" style="stroke:rgb(100.000000%,100.000000%,100.000000%); stroke-width: 1.000000;stroke-linecap: round;stroke-linejoin: round;stroke-miterlimit: 10.000000;fill: none;"></path>
  <path d="M256.729141 455.026932L159.046005 401.116089" style="stroke:rgb(100.000000%,100.000000%,100.000000%); stroke-width: 1.000000;stroke-linecap: round;stroke-linejoin: round;stroke-miterlimit: 10.000000;fill: none;"></path>
  <path d="M110.515854 499.871902L89.200653 500.892685" style="stroke:rgb(0.000000%,0.000000%,0.000000%); stroke-width: 1.000000;stroke-linecap: round;stroke-linejoin: round;stroke-miterlimit: 10.000000;fill: none;"></path>
  <path d="M89.200653 500.892685L71.518723 512.173126" style="stroke:rgb(0.000000%,0.000000%,0.000000%); stroke-width: 1.000000;stroke-linecap: round;stroke-linejoin: round;stroke-miterlimit: 10.000000;fill: none;"></path>
  <path d="M71.518723 512.173126L67.150146 532.017731" style="stroke:rgb(0.000000%,0.000000%,0.000000%); stroke-width: 1.000000;stroke-linecap: round;stroke-linejoin: round;stroke-miterlimit: 10.000000;fill: none;"></path>
  <path d="M67.150146 532.017731L86.994736 559.967972" style="stroke:rgb(0.000000%,0.000000%,0.000000%); stroke-width: 1.000000;stroke-linecap: round;stroke-linejoin: round;stroke-miterlimit: 10.000000;fill: none;"></path>
  <path d="M86.994736 559.967972L112.047012 579.803925" style="stroke:rgb(0.000000%,0.000000%,0.000000%); stroke-width: 1.000000;stroke-linecap: round;stroke-linejoin: round;stroke-miterlimit: 10.000000;fill: none;"></path>
  <path d="M240.180450 539.388077L229.124924 551.118362" style="stroke:rgb(0.000000%,0.000000%,0.000000%); stroke-width: 1.000000;stroke-linecap: round;stroke-linejoin: round;stroke-miterlimit: 10.000000;fill: none;"></path>
  <path d="M229.124924 551.118362L223.510651 572.433563" style="stroke:rgb(0.000000%,0.000000%,0.000000%); stroke-width: 1.000000;stroke-linecap: round;stroke-linejoin: round;stroke-miterlimit: 10.000000;fill: none;"></path>
  <path d="M223.510651 572.433563L254.635681 629.078018" style="stroke:rgb(0.000000%,0.000000%,0.000000%); stroke-width: 1.000000;stroke-linecap: round;stroke-linejoin: round;stroke-miterlimit: 10.000000;fill: none;"></path>
  <path d="M254.635681 629.078018L282.014999 633.498505" style="stroke:rgb(0.000000%,0.000000%,0.000000%); stroke-width: 1.000000;stroke-linecap: round;stroke-linejoin: round;stroke-miterlimit: 10.000000;fill: none;"></path>
  <path d="M419.101852 629.813324L432.821777 612.183304" style="stroke:rgb(0.000000%,0.000000%,0.000000%); stroke-width: 1.000000;stroke-linecap: round;stroke-linejoin: round;stroke-miterlimit: 10.000000;fill: none;"></path>
  <path d="M432.821777 612.183304L437.181702 592.736633" style="stroke:rgb(0.000000%,0.000000%,0.000000%); stroke-width: 1.000000;stroke-linecap: round;stroke-linejoin: round;stroke-miterlimit: 10.000000;fill: none;"></path>
  <path d="M356.116470 632.019241L370.796616 651.128525" style="stroke:rgb(0.000000%,0.000000%,0.000000%); stroke-width: 1.000000;stroke-linecap: round;stroke-linejoin: round;stroke-miterlimit: 10.000000;fill: none;"></path>
  <path d="M370.796616 651.128525L394.326385 662.919373" style="stroke:rgb(0.000000%,0.000000%,0.000000%); stroke-width: 1.000000;stroke-linecap: round;stroke-linejoin: round;stroke-miterlimit: 10.000000;fill: none;"></path>
  <path d="M394.326385 662.919373L409.067093 658.498886" style="stroke:rgb(0.000000%,0.000000%,0.000000%); stroke-width: 1.000000;stroke-linecap: round;stroke-linejoin: round;stroke-miterlimit: 10.000000;fill: none;"></path>
  <path d="M409.067093 658.498886L416.662369 644.493484" style="stroke:rgb(0.000000%,0.000000%,0.000000%); stroke-width: 1.000000;stroke-linecap: round;stroke-linejoin: round;stroke-miterlimit: 10.000000;fill: none;"></path>
  <path d="M416.662369 644.493484L419.101852 629.813324" style="stroke:rgb(0.000000%,0.000000%,0.000000%); stroke-width: 1.000000;stroke-linecap: round;stroke-linejoin: round;stroke-miterlimit: 10.000000;fill: none;"></path>
  <path d="M456.853287 564.613373L478.177139 580.772797" style="stroke:rgb(0.000000%,0.000000%,0.000000%); stroke-width: 1.000000;stroke-linecap: round;stroke-linejoin: round;stroke-miterlimit: 10.000000;fill: none;"></path>
  <path d="M478.177139 580.772797L490.642731 580.772797" style="stroke:rgb(0.000000%,0.000000%,0.000000%); stroke-width: 1.000000;stroke-linecap: round;stroke-linejoin: round;stroke-miterlimit: 10.000000;fill: none;"></path>
  <path d="M490.642731 580.772797L504.760590 565.409241" style="stroke:rgb(0.000000%,0.000000%,0.000000%); stroke-width: 1.000000;stroke-linecap: round;stroke-linejoin: round;stroke-miterlimit: 10.000000;fill: none;"></path>
  <path d="M510.547867 559.224014L539.908188 547.433182" style="stroke:rgb(0.000000%,0.000000%,0.000000%); stroke-width: 1.000000;stroke-linecap: round;stroke-linejoin: round;stroke-miterlimit: 10.000000;fill: none;"></path>
  <path d="M539.908188 547.433182L544.847702 538.990143" style="stroke:rgb(0.000000%,0.000000%,0.000000%); stroke-width: 1.000000;stroke-linecap: round;stroke-linejoin: round;stroke-miterlimit: 10.000000;fill: none;"></path>
  <path d="M443.591843 564.388458L456.853287 564.613373" style="stroke:rgb(0.000000%,0.000000%,0.000000%); stroke-width: 1.000000;stroke-linecap: round;stroke-linejoin: round;stroke-miterlimit: 10.000000;fill: none;"></path>
  <path d="M504.760590 565.409241L510.547867 559.224014" style="stroke:rgb(0.000000%,0.000000%,0.000000%); stroke-width: 1.000000;stroke-linecap: round;stroke-linejoin: round;stroke-miterlimit: 10.000000;fill: none;"></path>
  <path d="M303.165833 623.178284L339.957047 639.848083" style="stroke:rgb(0.000000%,0.000000%,0.000000%); stroke-width: 1.000000;stroke-linecap: round;stroke-linejoin: round;stroke-miterlimit: 10.000000;fill: none;"></path>
  <path d="M339.957047 639.848083L356.116470 632.019241" style="stroke:rgb(0.000000%,0.000000%,0.000000%); stroke-width: 1.000000;stroke-linecap: round;stroke-linejoin: round;stroke-miterlimit: 10.000000;fill: none;"></path>
  <path d="M437.181702 592.736633L443.591843 564.388458" style="stroke:rgb(0.000000%,0.000000%,0.000000%); stroke-width: 1.000000;stroke-linecap: round;stroke-linejoin: round;stroke-miterlimit: 10.000000;fill: none;"></path>
  <path d="M237.005661 532.242645L240.180450 539.388077" style="stroke:rgb(0.000000%,0.000000%,0.000000%); stroke-width: 1.000000;stroke-linecap: round;stroke-linejoin: round;stroke-miterlimit: 10.000000;fill: none;"></path>
  <path d="M282.014999 633.498505L287.741730 634.458725" style="stroke:rgb(0.000000%,0.000000%,0.000000%); stroke-width: 1.000000;stroke-linecap: round;stroke-linejoin: round;stroke-miterlimit: 10.000000;fill: none;"></path>
  <path d="M287.741730 634.458725L303.165833 623.178284" style="stroke:rgb(0.000000%,0.000000%,0.000000%); stroke-width: 1.000000;stroke-linecap: round;stroke-linejoin: round;stroke-miterlimit: 10.000000;fill: none;"></path>
  <path d="M560.548630 512.398056L586.284317 524.647369" style="stroke:rgb(0.000000%,0.000000%,0.000000%); stroke-width: 1.000000;stroke-linecap: round;stroke-linejoin: round;stroke-miterlimit: 10.000000;fill: none;"></path>
  <path d="M586.284317 524.647369L601.708420 524.188889" style="stroke:rgb(0.000000%,0.000000%,0.000000%); stroke-width: 1.000000;stroke-linecap: round;stroke-linejoin: round;stroke-miterlimit: 10.000000;fill: none;"></path>
  <path d="M601.708420 524.188889L616.388580 515.858307" style="stroke:rgb(0.000000%,0.000000%,0.000000%); stroke-width: 1.000000;stroke-linecap: round;stroke-linejoin: round;stroke-miterlimit: 10.000000;fill: none;"></path>
  <path d="M616.388580 515.858307L623.758926 493.747253" style="stroke:rgb(0.000000%,0.000000%,0.000000%); stroke-width: 1.000000;stroke-linecap: round;stroke-linejoin: round;stroke-miterlimit: 10.000000;fill: none;"></path>
  <path d="M623.758926 493.747253L617.634277 472.432053" style="stroke:rgb(0.000000%,0.000000%,0.000000%); stroke-width: 1.000000;stroke-linecap: round;stroke-linejoin: round;stroke-miterlimit: 10.000000;fill: none;"></path>
  <path d="M617.634277 472.432053L593.879593 455.935257" style="stroke:rgb(0.000000%,0.000000%,0.000000%); stroke-width: 1.000000;stroke-linecap: round;stroke-linejoin: round;stroke-miterlimit: 10.000000;fill: none;"></path>
  <path d="M548.757797 444.481796L525.228027 409.221741" style="stroke:rgb(0.000000%,0.000000%,0.000000%); stroke-width: 1.000000;stroke-linecap: round;stroke-linejoin: round;stroke-miterlimit: 10.000000;fill: none;"></path>
  <path d="M525.228027 409.221741L507.995926 393.745728" style="stroke:rgb(0.000000%,0.000000%,0.000000%); stroke-width: 1.000000;stroke-linecap: round;stroke-linejoin: round;stroke-miterlimit: 10.000000;fill: none;"></path>
  <path d="M564.917206 453.322754L548.757797 444.481796" style="stroke:rgb(0.000000%,0.000000%,0.000000%); stroke-width: 1.000000;stroke-linecap: round;stroke-linejoin: round;stroke-miterlimit: 10.000000;fill: none;"></path>
  <path d="M216.425766 531.792816L237.005661 532.242645" style="stroke:rgb(0.000000%,0.000000%,0.000000%); stroke-width: 1.000000;stroke-linecap: round;stroke-linejoin: round;stroke-miterlimit: 10.000000;fill: none;"></path>
  <path d="M544.847702 538.990143L560.548630 512.398056" style="stroke:rgb(0.000000%,0.000000%,0.000000%); stroke-width: 1.000000;stroke-linecap: round;stroke-linejoin: round;stroke-miterlimit: 10.000000;fill: none;"></path>
  <path d="M593.879593 455.935257L589.917587 453.097839" style="stroke:rgb(0.000000%,0.000000%,0.000000%); stroke-width: 1.000000;stroke-linecap: round;stroke-linejoin: round;stroke-miterlimit: 10.000000;fill: none;"></path>
  <path d="M589.917587 453.097839L564.917206 453.322754" style="stroke:rgb(0.000000%,0.000000%,0.000000%); stroke-width: 1.000000;stroke-linecap: round;stroke-linejoin: round;stroke-miterlimit: 10.000000;fill: none;"></path>
  <path d="M451.187119 291.581558L459.803162 243.051407" style="stroke:rgb(0.000000%,0.000000%,0.000000%); stroke-width: 1.000000;stroke-linecap: round;stroke-linejoin: round;stroke-miterlimit: 10.000000;fill: none;"></path>
  <path d="M459.803162 243.051407L459.067856 240.049622" style="stroke:rgb(0.000000%,0.000000%,0.000000%); stroke-width: 1.000000;stroke-linecap: round;stroke-linejoin: round;stroke-miterlimit: 10.000000;fill: none;"></path>
  <path d="M458.332550 310.690842L451.187119 291.581558" style="stroke:rgb(0.000000%,0.000000%,0.000000%); stroke-width: 1.000000;stroke-linecap: round;stroke-linejoin: round;stroke-miterlimit: 10.000000;fill: none;"></path>
  <path d="M492.398804 379.792236L508.558228 351.106674" style="stroke:rgb(0.000000%,0.000000%,0.000000%); stroke-width: 1.000000;stroke-linecap: round;stroke-linejoin: round;stroke-miterlimit: 10.000000;fill: none;"></path>
  <path d="M508.558228 351.106674L503.402435 328.320862" style="stroke:rgb(0.000000%,0.000000%,0.000000%); stroke-width: 1.000000;stroke-linecap: round;stroke-linejoin: round;stroke-miterlimit: 10.000000;fill: none;"></path>
  <path d="M503.402435 328.320862L481.118362 310.457275" style="stroke:rgb(0.000000%,0.000000%,0.000000%); stroke-width: 1.000000;stroke-linecap: round;stroke-linejoin: round;stroke-miterlimit: 10.000000;fill: none;"></path>
  <path d="M481.118362 310.457275L458.332550 310.690842" style="stroke:rgb(0.000000%,0.000000%,0.000000%); stroke-width: 1.000000;stroke-linecap: round;stroke-linejoin: round;stroke-miterlimit: 10.000000;fill: none;"></path>
  <path d="M159.046005 558.947205L216.425766 531.792816" style="stroke:rgb(0.000000%,0.000000%,0.000000%); stroke-width: 1.000000;stroke-linecap: round;stroke-linejoin: round;stroke-miterlimit: 10.000000;fill: none;"></path>
  <path d="M507.995926 393.745728L492.398804 379.792236" style="stroke:rgb(0.000000%,0.000000%,0.000000%); stroke-width: 1.000000;stroke-linecap: round;stroke-linejoin: round;stroke-miterlimit: 10.000000;fill: none;"></path>
  <path d="M449.033096 195.256561L487.753403 181.484726" style="stroke:rgb(0.000000%,0.000000%,0.000000%); stroke-width: 1.000000;stroke-linecap: round;stroke-linejoin: round;stroke-miterlimit: 10.000000;fill: none;"></path>
  <path d="M487.753403 181.484726L509.803925 166.570999" style="stroke:rgb(0.000000%,0.000000%,0.000000%); stroke-width: 1.000000;stroke-linecap: round;stroke-linejoin: round;stroke-miterlimit: 10.000000;fill: none;"></path>
  <path d="M509.803925 166.570999L521.828323 140.835327" style="stroke:rgb(0.000000%,0.000000%,0.000000%); stroke-width: 1.000000;stroke-linecap: round;stroke-linejoin: round;stroke-miterlimit: 10.000000;fill: none;"></path>
  <path d="M521.828323 140.835327L518.878448 115.099640" style="stroke:rgb(0.000000%,0.000000%,0.000000%); stroke-width: 1.000000;stroke-linecap: round;stroke-linejoin: round;stroke-miterlimit: 10.000000;fill: none;"></path>
  <path d="M518.878448 115.099640L512.018478 101.094238" style="stroke:rgb(0.000000%,0.000000%,0.000000%); stroke-width: 1.000000;stroke-linecap: round;stroke-linejoin: round;stroke-miterlimit: 10.000000;fill: none;"></path>
  <path d="M512.018478 101.094238L491.386688 84.709900" style="stroke:rgb(0.000000%,0.000000%,0.000000%); stroke-width: 1.000000;stroke-linecap: round;stroke-linejoin: round;stroke-miterlimit: 10.000000;fill: none;"></path>
  <path d="M491.386688 84.709900L457.597244 80.514343" style="stroke:rgb(0.000000%,0.000000%,0.000000%); stroke-width: 1.000000;stroke-linecap: round;stroke-linejoin: round;stroke-miterlimit: 10.000000;fill: none;"></path>
  <path d="M457.597244 80.514343L437.017349 85.670120" style="stroke:rgb(0.000000%,0.000000%,0.000000%); stroke-width: 1.000000;stroke-linecap: round;stroke-linejoin: round;stroke-miterlimit: 10.000000;fill: none;"></path>
  <path d="M437.017349 85.670120L426.411652 94.519745" style="stroke:rgb(0.000000%,0.000000%,0.000000%); stroke-width: 1.000000;stroke-linecap: round;stroke-linejoin: round;stroke-miterlimit: 10.000000;fill: none;"></path>
  <path d="M277.421494 101.829544L264.211960 98.144363" style="stroke:rgb(0.000000%,0.000000%,0.000000%); stroke-width: 1.000000;stroke-linecap: round;stroke-linejoin: round;stroke-miterlimit: 10.000000;fill: none;"></path>
  <path d="M264.211960 98.144363L250.838058 108.464584" style="stroke:rgb(0.000000%,0.000000%,0.000000%); stroke-width: 1.000000;stroke-linecap: round;stroke-linejoin: round;stroke-miterlimit: 10.000000;fill: none;"></path>
  <path d="M348.746109 122.184525L293.580917 96.215271" style="stroke:rgb(0.000000%,0.000000%,0.000000%); stroke-width: 1.000000;stroke-linecap: round;stroke-linejoin: round;stroke-miterlimit: 10.000000;fill: none;"></path>
  <path d="M293.580917 96.215271L277.421494 101.829544" style="stroke:rgb(0.000000%,0.000000%,0.000000%); stroke-width: 1.000000;stroke-linecap: round;stroke-linejoin: round;stroke-miterlimit: 10.000000;fill: none;"></path>
  <path d="M203.155670 126.829910L159.789963 129.779785" style="stroke:rgb(0.000000%,0.000000%,0.000000%); stroke-width: 1.000000;stroke-linecap: round;stroke-linejoin: round;stroke-miterlimit: 10.000000;fill: none;"></path>
  <path d="M159.789963 129.779785L92.375443 148.145126" style="stroke:rgb(0.000000%,0.000000%,0.000000%); stroke-width: 1.000000;stroke-linecap: round;stroke-linejoin: round;stroke-miterlimit: 10.000000;fill: none;"></path>
  <path d="M92.375443 148.145126L62.729660 175.360062" style="stroke:rgb(0.000000%,0.000000%,0.000000%); stroke-width: 1.000000;stroke-linecap: round;stroke-linejoin: round;stroke-miterlimit: 10.000000;fill: none;"></path>
  <path d="M62.729660 175.360062L62.383636 176.778778" style="stroke:rgb(0.000000%,0.000000%,0.000000%); stroke-width: 1.000000;stroke-linecap: round;stroke-linejoin: round;stroke-miterlimit: 10.000000;fill: none;"></path>
  <path d="M247.265335 111.180893L203.155670 126.829910" style="stroke:rgb(0.000000%,0.000000%,0.000000%); stroke-width: 1.000000;stroke-linecap: round;stroke-linejoin: round;stroke-miterlimit: 10.000000;fill: none;"></path>
  <path d="M62.383636 176.778778L57.565216 198.154526" style="stroke:rgb(0.000000%,0.000000%,0.000000%); stroke-width: 1.000000;stroke-linecap: round;stroke-linejoin: round;stroke-miterlimit: 10.000000;fill: none;"></path>
  <path d="M57.565216 198.154526L60.290176 215.101151" style="stroke:rgb(0.000000%,0.000000%,0.000000%); stroke-width: 1.000000;stroke-linecap: round;stroke-linejoin: round;stroke-miterlimit: 10.000000;fill: none;"></path>
  <path d="M60.290176 215.101151L80.982529 237.895615" style="stroke:rgb(0.000000%,0.000000%,0.000000%); stroke-width: 1.000000;stroke-linecap: round;stroke-linejoin: round;stroke-miterlimit: 10.000000;fill: none;"></path>
  <path d="M128.889832 325.370987L106.830673 321.685822" style="stroke:rgb(0.000000%,0.000000%,0.000000%); stroke-width: 1.000000;stroke-linecap: round;stroke-linejoin: round;stroke-miterlimit: 10.000000;fill: none;"></path>
  <path d="M106.830673 321.685822L75.939209 328.545776" style="stroke:rgb(0.000000%,0.000000%,0.000000%); stroke-width: 1.000000;stroke-linecap: round;stroke-linejoin: round;stroke-miterlimit: 10.000000;fill: none;"></path>
  <path d="M75.939209 328.545776L60.004700 340.111694" style="stroke:rgb(0.000000%,0.000000%,0.000000%); stroke-width: 1.000000;stroke-linecap: round;stroke-linejoin: round;stroke-miterlimit: 10.000000;fill: none;"></path>
  <path d="M60.004700 340.111694L56.829910 359.212341" style="stroke:rgb(0.000000%,0.000000%,0.000000%); stroke-width: 1.000000;stroke-linecap: round;stroke-linejoin: round;stroke-miterlimit: 10.000000;fill: none;"></path>
  <path d="M56.829910 359.212341L77.409821 381.496414" style="stroke:rgb(0.000000%,0.000000%,0.000000%); stroke-width: 1.000000;stroke-linecap: round;stroke-linejoin: round;stroke-miterlimit: 10.000000;fill: none;"></path>
  <path d="M77.409821 381.496414L83.136551 382.517181" style="stroke:rgb(0.000000%,0.000000%,0.000000%); stroke-width: 1.000000;stroke-linecap: round;stroke-linejoin: round;stroke-miterlimit: 10.000000;fill: none;"></path>
  <path d="M143.630539 256.996246L133.310318 284.211197" style="stroke:rgb(0.000000%,0.000000%,0.000000%); stroke-width: 1.000000;stroke-linecap: round;stroke-linejoin: round;stroke-miterlimit: 10.000000;fill: none;"></path>
  <path d="M133.310318 284.211197L128.889832 325.370987" style="stroke:rgb(0.000000%,0.000000%,0.000000%); stroke-width: 1.000000;stroke-linecap: round;stroke-linejoin: round;stroke-miterlimit: 10.000000;fill: none;"></path>
  <path d="M137.730804 244.522018L143.630539 256.996246" style="stroke:rgb(0.000000%,0.000000%,0.000000%); stroke-width: 1.000000;stroke-linecap: round;stroke-linejoin: round;stroke-miterlimit: 10.000000;fill: none;"></path>
  <path d="M387.007935 127.565216L348.746109 122.184525" style="stroke:rgb(0.000000%,0.000000%,0.000000%); stroke-width: 1.000000;stroke-linecap: round;stroke-linejoin: round;stroke-miterlimit: 10.000000;fill: none;"></path>
  <path d="M250.838058 108.464584L247.265335 111.180893" style="stroke:rgb(0.000000%,0.000000%,0.000000%); stroke-width: 1.000000;stroke-linecap: round;stroke-linejoin: round;stroke-miterlimit: 10.000000;fill: none;"></path>
  <path d="M80.982529 237.895615L82.574249 239.591141" style="stroke:rgb(0.000000%,0.000000%,0.000000%); stroke-width: 1.000000;stroke-linecap: round;stroke-linejoin: round;stroke-miterlimit: 10.000000;fill: none;"></path>
  <path d="M82.574249 239.591141L111.259811 248.155289" style="stroke:rgb(0.000000%,0.000000%,0.000000%); stroke-width: 1.000000;stroke-linecap: round;stroke-linejoin: round;stroke-miterlimit: 10.000000;fill: none;"></path>
  <path d="M111.259811 248.155289L137.730804 244.522018" style="stroke:rgb(0.000000%,0.000000%,0.000000%); stroke-width: 1.000000;stroke-linecap: round;stroke-linejoin: round;stroke-miterlimit: 10.000000;fill: none;"></path>
  <path d="M459.067856 240.049622L449.033096 195.256561" style="stroke:rgb(0.000000%,0.000000%,0.000000%); stroke-width: 1.000000;stroke-linecap: round;stroke-linejoin: round;stroke-miterlimit: 10.000000;fill: none;"></path>
  <path d="M426.411652 94.519745L387.007935 127.565216" style="stroke:rgb(0.000000%,0.000000%,0.000000%); stroke-width: 1.000000;stroke-linecap: round;stroke-linejoin: round;stroke-miterlimit: 10.000000;fill: none;"></path>
  <path d="M83.136551 382.517181L144.365845 393.001770" style="stroke:rgb(0.000000%,0.000000%,0.000000%); stroke-width: 1.000000;stroke-linecap: round;stroke-linejoin: round;stroke-miterlimit: 10.000000;fill: none;"></path>
  <path d="M144.365845 393.001770L159.046005 401.116089" style="stroke:rgb(0.000000%,0.000000%,0.000000%); stroke-width: 1.000000;stroke-linecap: round;stroke-linejoin: round;stroke-miterlimit: 10.000000;fill: none;"></path>
  <path d="M110.290939 487.622589L110.515854 499.871902" style="stroke:rgb(0.000000%,0.000000%,0.000000%); stroke-width: 1.000000;stroke-linecap: round;stroke-linejoin: round;stroke-miterlimit: 10.000000;fill: none;"></path>
  <path d="M112.047012 579.803925L114.201035 581.508102" style="stroke:rgb(0.000000%,0.000000%,0.000000%); stroke-width: 1.000000;stroke-linecap: round;stroke-linejoin: round;stroke-miterlimit: 10.000000;fill: none;"></path>
  <path d="M114.201035 581.508102L139.210052 580.037491" style="stroke:rgb(0.000000%,0.000000%,0.000000%); stroke-width: 1.000000;stroke-linecap: round;stroke-linejoin: round;stroke-miterlimit: 10.000000;fill: none;"></path>
  <path d="M139.210052 580.037491L159.046005 558.947205" style="stroke:rgb(0.000000%,0.000000%,0.000000%); stroke-width: 1.000000;stroke-linecap: round;stroke-linejoin: round;stroke-miterlimit: 10.000000;fill: none;"></path>
  <path d="M159.046005 401.116089L114.434601 470.961441" style="stroke:rgb(0.000000%,0.000000%,0.000000%); stroke-width: 1.000000;stroke-linecap: round;stroke-linejoin: round;stroke-miterlimit: 10.000000;fill: none;"></path>
  <path d="M114.434601 470.961441L110.290939 487.622589" style="stroke:rgb(0.000000%,0.000000%,0.000000%); stroke-width: 1.000000;stroke-linecap: round;stroke-linejoin: round;stroke-miterlimit: 10.000000;fill: none;"></path>
  <path d="M634.390579 448.807114C634.390579 413.308197,620.286591 379.267471,595.186966 354.167862C570.087357 329.068237,536.046631 314.964249,500.547714 314.964249C465.048798 314.964249,431.008072 329.068237,405.908463 354.167862C380.808838 379.267471,366.704849 413.308197,366.704849 448.807114C366.704849 484.306030,380.808838 518.346756,405.908463 543.446365C431.008072 568.545990,465.048798 582.649979,500.547714 582.649979C536.046631 582.649979,570.087357 568.545990,595.186966 543.446365C620.286591 518.346756,634.390579 484.306030,634.390579 448.807114Z" style="stroke:rgb(25.500488%,41.000366%,88.400269%); stroke-width: 1.000000;stroke-linecap: round;stroke-linejoin: round;stroke-miterlimit: 10.000000;fill: none;"></path>
  <path d="M522.018646 133.637985C522.018646 98.139069,507.914658 64.098343,482.815033 38.998734C457.715424 13.899109,423.674698 -0.204880,388.175781 -0.204880C352.676865 -0.204880,318.636139 13.899109,293.536530 38.998734C268.436905 64.098343,254.332916 98.139069,254.332916 133.637985C254.332916 169.136902,268.436905 203.177628,293.536530 228.277237C318.636139 253.376862,352.676865 267.480850,388.175781 267.480850C423.674698 267.480850,457.715424 253.376862,482.815033 228.277237C507.914658 203.177628,522.018646 169.136902,522.018646 133.637985Z" style="stroke:rgb(25.500488%,41.000366%,88.400269%); stroke-width: 1.000000;stroke-linecap: round;stroke-linejoin: round;stroke-miterlimit: 10.000000;fill: none;"></path>
  <path d="M471.749710 545.140762C471.749710 509.641846,457.645721 475.601120,432.546097 450.501511C407.446487 425.401886,373.405762 411.297897,337.906845 411.297897C302.407928 411.297897,268.367203 425.401886,243.267593 450.501511C218.167969 475.601120,204.063980 509.641846,204.063980 545.140762C204.063980 580.639679,218.167969 614.680405,243.267593 639.780014C268.367203 664.879639,302.407928 678.983627,337.906845 678.983627C373.405762 678.983627,407.446487 664.879639,432.546097 639.780014C457.645721 614.680405,471.749710 580.639679,471.749710 545.140762Z" style="stroke:rgb(25.500488%,41.000366%,88.400269%); stroke-width: 1.000000;stroke-linecap: round;stroke-linejoin: round;stroke-miterlimit: 10.000000;fill: none;"></path>
  <path d="M267.871185 449.127197C267.871185 413.628281,253.767197 379.587555,228.667572 354.487946C203.567963 329.388321,169.527237 315.284332,134.028320 315.284332C98.529404 315.284332,64.488678 329.388321,39.389069 354.487946C14.289444 379.587555,0.185455 413.628281,0.185455 449.127197C0.185455 484.626114,14.289444 518.666840,39.389069 543.766449C64.488678 568.866074,98.529404 582.970062,134.028320 582.970062C169.527237 582.970062,203.567963 568.866074,228.667572 543.766449C253.767197 518.666840,267.871185 484.626114,267.871185 449.127197Z" style="stroke:rgb(25.500488%,41.000366%,88.400269%); stroke-width: 1.000000;stroke-linecap: round;stroke-linejoin: round;stroke-miterlimit: 10.000000;fill: none;"></path>
  <path d="M488.358963 330.734390C488.358963 295.235474,474.254974 261.194748,449.155350 236.095139C424.055740 210.995514,390.015015 196.891525,354.516098 196.891525C319.017181 196.891525,284.976456 210.995514,259.876846 236.095139C234.777222 261.194748,220.673233 295.235474,220.673233 330.734390C220.673233 366.233307,234.777222 400.274033,259.876846 425.373642C284.976456 450.473267,319.017181 464.577255,354.516098 464.577255C390.015015 464.577255,424.055740 450.473267,449.155350 425.373642C474.254974 400.274033,488.358963 366.233307,488.358963 330.734390Z" style="stroke:rgb(25.500488%,41.000366%,88.400269%); stroke-width: 1.000000;stroke-linecap: round;stroke-linejoin: round;stroke-miterlimit: 10.000000;fill: none;"></path>
  <path d="M323.391052 218.154831C323.391052 182.655914,309.287064 148.615189,284.187439 123.515579C259.087830 98.415955,225.047104 84.311966,189.548187 84.311966C154.049271 84.311966,120.008545 98.415955,94.908936 123.515579C69.809311 148.615189,55.705322 182.655914,55.705322 218.154831C55.705322 253.653748,69.809311 287.694473,94.908936 312.794083C120.008545 337.893707,154.049271 351.997696,189.548187 351.997696C225.047104 351.997696,259.087830 337.893707,284.187439 312.794083C309.287064 287.694473,323.391052 253.653748,323.391052 218.154831Z" style="stroke:rgb(25.500488%,41.000366%,88.400269%); stroke-width: 1.000000;stroke-linecap: round;stroke-linejoin: round;stroke-miterlimit: 10.000000;fill: none;"></path>
  <path d="M500.547714 448.807114L478.177139 580.772797" style="stroke:rgb(60.000610%,60.000610%,60.000610%); stroke-width: 1.500000;stroke-linecap: round;stroke-dasharray: 3.000000 3.000000 ;stroke-linejoin: round;stroke-miterlimit: 10.000000;fill: none;"></path>
  <path d="M504.547714 448.807114C504.547714 447.746201,504.126205 446.728867,503.376083 445.978745C502.625961 445.228622,501.608627 444.807114,500.547714 444.807114C499.486801 444.807114,498.469467 445.228622,497.719345 445.978745C496.969223 446.728867,496.547714 447.746201,496.547714 448.807114C496.547714 449.868027,496.969223 450.885361,497.719345 451.635483C498.469467 452.385605,499.486801 452.807114,500.547714 452.807114C501.608627 452.807114,502.625961 452.385605,503.376083 451.635483C504.126205 450.885361,504.547714 449.868027,504.547714 448.807114Z" style="stroke:rgb(39.999390%,39.999390%,39.999390%); stroke-width: 0.500000;stroke-linecap: round;stroke-linejoin: round;stroke-miterlimit: 10.000000;fill: none;"></path>
  <path d="M504.547714 448.807114C504.547714 447.746201,504.126205 446.728867,503.376083 445.978745C502.625961 445.228622,501.608627 444.807114,500.547714 444.807114C499.486801 444.807114,498.469467 445.228622,497.719345 445.978745C496.969223 446.728867,496.547714 447.746201,496.547714 448.807114C496.547714 449.868027,496.969223 450.885361,497.719345 451.635483C498.469467 452.385605,499.486801 452.807114,500.547714 452.807114C501.608627 452.807114,502.625961 452.385605,503.376083 451.635483C504.126205 450.885361,504.547714 449.868027,504.547714 448.807114Z" style="fill: rgb(89.999390%,0.000000%,0.000000%);stroke: none;"></path>
  <path d="M482.177139 580.772797C482.177139 579.711884,481.755630 578.694550,481.005508 577.944427C480.255386 577.194305,479.238052 576.772797,478.177139 576.772797C477.116226 576.772797,476.098892 577.194305,475.348770 577.944427C474.598648 578.694550,474.177139 579.711884,474.177139 580.772797C474.177139 581.833710,474.598648 582.851044,475.348770 583.601166C476.098892 584.351288,477.116226 584.772797,478.177139 584.772797C479.238052 584.772797,480.255386 584.351288,481.005508 583.601166C481.755630 582.851044,482.177139 581.833710,482.177139 580.772797Z" style="stroke:rgb(39.999390%,39.999390%,39.999390%); stroke-width: 0.500000;stroke-linecap: round;stroke-linejoin: round;stroke-miterlimit: 10.000000;fill: none;"></path>
  <path d="M482.177139 580.772797C482.177139 579.711884,481.755630 578.694550,481.005508 577.944427C480.255386 577.194305,479.238052 576.772797,478.177139 576.772797C477.116226 576.772797,476.098892 577.194305,475.348770 577.944427C474.598648 578.694550,474.177139 579.711884,474.177139 580.772797C474.177139 581.833710,474.598648 582.851044,475.348770 583.601166C476.098892 584.351288,477.116226 584.772797,478.177139 584.772797C479.238052 584.772797,480.255386 584.351288,481.005508 583.601166C481.755630 582.851044,482.177139 581.833710,482.177139 580.772797Z" style="fill: rgb(100.000000%,100.000000%,0.000000%);stroke: none;"></path>
  <path d="M500.547714 448.807114L616.388580 515.858307" style="stroke:rgb(60.000610%,60.000610%,60.000610%); stroke-width: 1.500000;stroke-linecap: round;stroke-dasharray: 3.000000 3.000000 ;stroke-linejoin: round;stroke-miterlimit: 10.000000;fill: none;"></path>
  <path d="M504.547714 448.807114C504.547714 447.746201,504.126205 446.728867,503.376083 445.978745C502.625961 445.228622,501.608627 444.807114,500.547714 444.807114C499.486801 444.807114,498.469467 445.228622,497.719345 445.978745C496.969223 446.728867,496.547714 447.746201,496.547714 448.807114C496.547714 449.868027,496.969223 450.885361,497.719345 451.635483C498.469467 452.385605,499.486801 452.807114,500.547714 452.807114C501.608627 452.807114,502.625961 452.385605,503.376083 451.635483C504.126205 450.885361,504.547714 449.868027,504.547714 448.807114Z" style="stroke:rgb(39.999390%,39.999390%,39.999390%); stroke-width: 0.500000;stroke-linecap: round;stroke-linejoin: round;stroke-miterlimit: 10.000000;fill: none;"></path>
  <path d="M504.547714 448.807114C504.547714 447.746201,504.126205 446.728867,503.376083 445.978745C502.625961 445.228622,501.608627 444.807114,500.547714 444.807114C499.486801 444.807114,498.469467 445.228622,497.719345 445.978745C496.969223 446.728867,496.547714 447.746201,496.547714 448.807114C496.547714 449.868027,496.969223 450.885361,497.719345 451.635483C498.469467 452.385605,499.486801 452.807114,500.547714 452.807114C501.608627 452.807114,502.625961 452.385605,503.376083 451.635483C504.126205 450.885361,504.547714 449.868027,504.547714 448.807114Z" style="fill: rgb(89.999390%,0.000000%,0.000000%);stroke: none;"></path>
  <path d="M620.388580 515.858307C620.388580 514.797394,619.967072 513.780060,619.216949 513.029938C618.466827 512.279816,617.449493 511.858307,616.388580 511.858307C615.327667 511.858307,614.310333 512.279816,613.560211 513.029938C612.810089 513.780060,612.388580 514.797394,612.388580 515.858307C612.388580 516.919220,612.810089 517.936554,613.560211 518.686676C614.310333 519.436798,615.327667 519.858307,616.388580 519.858307C617.449493 519.858307,618.466827 519.436798,619.216949 518.686676C619.967072 517.936554,620.388580 516.919220,620.388580 515.858307Z" style="stroke:rgb(39.999390%,39.999390%,39.999390%); stroke-width: 0.500000;stroke-linecap: round;stroke-linejoin: round;stroke-miterlimit: 10.000000;fill: none;"></path>
  <path d="M620.388580 515.858307C620.388580 514.797394,619.967072 513.780060,619.216949 513.029938C618.466827 512.279816,617.449493 511.858307,616.388580 511.858307C615.327667 511.858307,614.310333 512.279816,613.560211 513.029938C612.810089 513.780060,612.388580 514.797394,612.388580 515.858307C612.388580 516.919220,612.810089 517.936554,613.560211 518.686676C614.310333 519.436798,615.327667 519.858307,616.388580 519.858307C617.449493 519.858307,618.466827 519.436798,619.216949 518.686676C619.967072 517.936554,620.388580 516.919220,620.388580 515.858307Z" style="fill: rgb(100.000000%,100.000000%,0.000000%);stroke: none;"></path>
  <path d="M388.175781 133.637985L521.828323 140.835327" style="stroke:rgb(60.000610%,60.000610%,60.000610%); stroke-width: 1.500000;stroke-linecap: round;stroke-dasharray: 3.000000 3.000000 ;stroke-linejoin: round;stroke-miterlimit: 10.000000;fill: none;"></path>
  <path d="M392.175781 133.637985C392.175781 132.577072,391.754272 131.559738,391.004150 130.809616C390.254028 130.059494,389.236694 129.637985,388.175781 129.637985C387.114868 129.637985,386.097534 130.059494,385.347412 130.809616C384.597290 131.559738,384.175781 132.577072,384.175781 133.637985C384.175781 134.698898,384.597290 135.716232,385.347412 136.466354C386.097534 137.216476,387.114868 137.637985,388.175781 137.637985C389.236694 137.637985,390.254028 137.216476,391.004150 136.466354C391.754272 135.716232,392.175781 134.698898,392.175781 133.637985Z" style="stroke:rgb(39.999390%,39.999390%,39.999390%); stroke-width: 0.500000;stroke-linecap: round;stroke-linejoin: round;stroke-miterlimit: 10.000000;fill: none;"></path>
  <path d="M392.175781 133.637985C392.175781 132.577072,391.754272 131.559738,391.004150 130.809616C390.254028 130.059494,389.236694 129.637985,388.175781 129.637985C387.114868 129.637985,386.097534 130.059494,385.347412 130.809616C384.597290 131.559738,384.175781 132.577072,384.175781 133.637985C384.175781 134.698898,384.597290 135.716232,385.347412 136.466354C386.097534 137.216476,387.114868 137.637985,388.175781 137.637985C389.236694 137.637985,390.254028 137.216476,391.004150 136.466354C391.754272 135.716232,392.175781 134.698898,392.175781 133.637985Z" style="fill: rgb(89.999390%,0.000000%,0.000000%);stroke: none;"></path>
  <path d="M525.828323 140.835327C525.828323 139.774414,525.406815 138.757080,524.656693 138.006958C523.906570 137.256836,522.889236 136.835327,521.828323 136.835327C520.767410 136.835327,519.750076 137.256836,518.999954 138.006958C518.249832 138.757080,517.828323 139.774414,517.828323 140.835327C517.828323 141.896240,518.249832 142.913574,518.999954 143.663696C519.750076 144.413818,520.767410 144.835327,521.828323 144.835327C522.889236 144.835327,523.906570 144.413818,524.656693 143.663696C525.406815 142.913574,525.828323 141.896240,525.828323 140.835327Z" style="stroke:rgb(39.999390%,39.999390%,39.999390%); stroke-width: 0.500000;stroke-linecap: round;stroke-linejoin: round;stroke-miterlimit: 10.000000;fill: none;"></path>
  <path d="M525.828323 140.835327C525.828323 139.774414,525.406815 138.757080,524.656693 138.006958C523.906570 137.256836,522.889236 136.835327,521.828323 136.835327C520.767410 136.835327,519.750076 137.256836,518.999954 138.006958C518.249832 138.757080,517.828323 139.774414,517.828323 140.835327C517.828323 141.896240,518.249832 142.913574,518.999954 143.663696C519.750076 144.413818,520.767410 144.835327,521.828323 144.835327C522.889236 144.835327,523.906570 144.413818,524.656693 143.663696C525.406815 142.913574,525.828323 141.896240,525.828323 140.835327Z" style="fill: rgb(100.000000%,100.000000%,0.000000%);stroke: none;"></path>
  <path d="M337.906845 545.140762L409.067093 658.498886" style="stroke:rgb(60.000610%,60.000610%,60.000610%); stroke-width: 1.500000;stroke-linecap: round;stroke-dasharray: 3.000000 3.000000 ;stroke-linejoin: round;stroke-miterlimit: 10.000000;fill: none;"></path>
  <path d="M341.906845 545.140762C341.906845 544.079849,341.485336 543.062515,340.735214 542.312393C339.985092 541.562271,338.967758 541.140762,337.906845 541.140762C336.845932 541.140762,335.828598 541.562271,335.078476 542.312393C334.328354 543.062515,333.906845 544.079849,333.906845 545.140762C333.906845 546.201675,334.328354 547.219009,335.078476 547.969131C335.828598 548.719254,336.845932 549.140762,337.906845 549.140762C338.967758 549.140762,339.985092 548.719254,340.735214 547.969131C341.485336 547.219009,341.906845 546.201675,341.906845 545.140762Z" style="stroke:rgb(39.999390%,39.999390%,39.999390%); stroke-width: 0.500000;stroke-linecap: round;stroke-linejoin: round;stroke-miterlimit: 10.000000;fill: none;"></path>
  <path d="M341.906845 545.140762C341.906845 544.079849,341.485336 543.062515,340.735214 542.312393C339.985092 541.562271,338.967758 541.140762,337.906845 541.140762C336.845932 541.140762,335.828598 541.562271,335.078476 542.312393C334.328354 543.062515,333.906845 544.079849,333.906845 545.140762C333.906845 546.201675,334.328354 547.219009,335.078476 547.969131C335.828598 548.719254,336.845932 549.140762,337.906845 549.140762C338.967758 549.140762,339.985092 548.719254,340.735214 547.969131C341.485336 547.219009,341.906845 546.201675,341.906845 545.140762Z" style="fill: rgb(89.999390%,0.000000%,0.000000%);stroke: none;"></path>
  <path d="M413.067093 658.498886C413.067093 657.437973,412.645584 656.420639,411.895462 655.670517C411.145340 654.920395,410.128006 654.498886,409.067093 654.498886C408.006180 654.498886,406.988846 654.920395,406.238724 655.670517C405.488602 656.420639,405.067093 657.437973,405.067093 658.498886C405.067093 659.559799,405.488602 660.577133,406.238724 661.327255C406.988846 662.077377,408.006180 662.498886,409.067093 662.498886C410.128006 662.498886,411.145340 662.077377,411.895462 661.327255C412.645584 660.577133,413.067093 659.559799,413.067093 658.498886Z" style="stroke:rgb(39.999390%,39.999390%,39.999390%); stroke-width: 0.500000;stroke-linecap: round;stroke-linejoin: round;stroke-miterlimit: 10.000000;fill: none;"></path>
  <path d="M413.067093 658.498886C413.067093 657.437973,412.645584 656.420639,411.895462 655.670517C411.145340 654.920395,410.128006 654.498886,409.067093 654.498886C408.006180 654.498886,406.988846 654.920395,406.238724 655.670517C405.488602 656.420639,405.067093 657.437973,405.067093 658.498886C405.067093 659.559799,405.488602 660.577133,406.238724 661.327255C406.988846 662.077377,408.006180 662.498886,409.067093 662.498886C410.128006 662.498886,411.145340 662.077377,411.895462 661.327255C412.645584 660.577133,413.067093 659.559799,413.067093 658.498886Z" style="fill: rgb(100.000000%,100.000000%,0.000000%);stroke: none;"></path>
  <path d="M337.906845 545.140762L266.746597 431.782639" style="stroke:rgb(60.000610%,60.000610%,60.000610%); stroke-width: 1.500000;stroke-linecap: round;stroke-dasharray: 3.000000 3.000000 ;stroke-linejoin: round;stroke-miterlimit: 10.000000;fill: none;"></path>
  <path d="M134.028320 449.127197L266.746597 431.782639" style="stroke:rgb(60.000610%,60.000610%,60.000610%); stroke-width: 1.500000;stroke-linecap: round;stroke-dasharray: 3.000000 3.000000 ;stroke-linejoin: round;stroke-miterlimit: 10.000000;fill: none;"></path>
  <path d="M341.906845 545.140762C341.906845 544.079849,341.485336 543.062515,340.735214 542.312393C339.985092 541.562271,338.967758 541.140762,337.906845 541.140762C336.845932 541.140762,335.828598 541.562271,335.078476 542.312393C334.328354 543.062515,333.906845 544.079849,333.906845 545.140762C333.906845 546.201675,334.328354 547.219009,335.078476 547.969131C335.828598 548.719254,336.845932 549.140762,337.906845 549.140762C338.967758 549.140762,339.985092 548.719254,340.735214 547.969131C341.485336 547.219009,341.906845 546.201675,341.906845 545.140762Z" style="stroke:rgb(39.999390%,39.999390%,39.999390%); stroke-width: 0.500000;stroke-linecap: round;stroke-linejoin: round;stroke-miterlimit: 10.000000;fill: none;"></path>
  <path d="M341.906845 545.140762C341.906845 544.079849,341.485336 543.062515,340.735214 542.312393C339.985092 541.562271,338.967758 541.140762,337.906845 541.140762C336.845932 541.140762,335.828598 541.562271,335.078476 542.312393C334.328354 543.062515,333.906845 544.079849,333.906845 545.140762C333.906845 546.201675,334.328354 547.219009,335.078476 547.969131C335.828598 548.719254,336.845932 549.140762,337.906845 549.140762C338.967758 549.140762,339.985092 548.719254,340.735214 547.969131C341.485336 547.219009,341.906845 546.201675,341.906845 545.140762Z" style="fill: rgb(89.999390%,0.000000%,0.000000%);stroke: none;"></path>
  <path d="M138.028320 449.127197C138.028320 448.066284,137.606812 447.048950,136.856689 446.298828C136.106567 445.548706,135.089233 445.127197,134.028320 445.127197C132.967407 445.127197,131.950073 445.548706,131.199951 446.298828C130.449829 447.048950,130.028320 448.066284,130.028320 449.127197C130.028320 450.188110,130.449829 451.205444,131.199951 451.955566C131.950073 452.705688,132.967407 453.127197,134.028320 453.127197C135.089233 453.127197,136.106567 452.705688,136.856689 451.955566C137.606812 451.205444,138.028320 450.188110,138.028320 449.127197Z" style="stroke:rgb(39.999390%,39.999390%,39.999390%); stroke-width: 0.500000;stroke-linecap: round;stroke-linejoin: round;stroke-miterlimit: 10.000000;fill: none;"></path>
  <path d="M138.028320 449.127197C138.028320 448.066284,137.606812 447.048950,136.856689 446.298828C136.106567 445.548706,135.089233 445.127197,134.028320 445.127197C132.967407 445.127197,131.950073 445.548706,131.199951 446.298828C130.449829 447.048950,130.028320 448.066284,130.028320 449.127197C130.028320 450.188110,130.449829 451.205444,131.199951 451.955566C131.950073 452.705688,132.967407 453.127197,134.028320 453.127197C135.089233 453.127197,136.106567 452.705688,136.856689 451.955566C137.606812 451.205444,138.028320 450.188110,138.028320 449.127197Z" style="fill: rgb(89.999390%,0.000000%,0.000000%);stroke: none;"></path>
  <path d="M270.746597 431.782639C270.746597 430.721725,270.325089 429.704391,269.574966 428.954269C268.824844 428.204147,267.807510 427.782639,266.746597 427.782639C265.685684 427.782639,264.668350 428.204147,263.918228 428.954269C263.168106 429.704391,262.746597 430.721725,262.746597 431.782639C262.746597 432.843552,263.168106 433.860886,263.918228 434.611008C264.668350 435.361130,265.685684 435.782639,266.746597 435.782639C267.807510 435.782639,268.824844 435.361130,269.574966 434.611008C270.325089 433.860886,270.746597 432.843552,270.746597 431.782639Z" style="stroke:rgb(39.999390%,39.999390%,39.999390%); stroke-width: 0.500000;stroke-linecap: round;stroke-linejoin: round;stroke-miterlimit: 10.000000;fill: none;"></path>
  <path d="M270.746597 431.782639C270.746597 430.721725,270.325089 429.704391,269.574966 428.954269C268.824844 428.204147,267.807510 427.782639,266.746597 427.782639C265.685684 427.782639,264.668350 428.204147,263.918228 428.954269C263.168106 429.704391,262.746597 430.721725,262.746597 431.782639C262.746597 432.843552,263.168106 433.860886,263.918228 434.611008C264.668350 435.361130,265.685684 435.782639,266.746597 435.782639C267.807510 435.782639,268.824844 435.361130,269.574966 434.611008C270.325089 433.860886,270.746597 432.843552,270.746597 431.782639Z" style="fill: rgb(9.800720%,9.800720%,44.000244%);stroke: none;"></path>
  <path d="M337.906845 545.140762L266.746597 431.773987" style="stroke:rgb(60.000610%,60.000610%,60.000610%); stroke-width: 1.500000;stroke-linecap: round;stroke-dasharray: 3.000000 3.000000 ;stroke-linejoin: round;stroke-miterlimit: 10.000000;fill: none;"></path>
  <path d="M354.516098 330.734390L266.746597 431.773987" style="stroke:rgb(60.000610%,60.000610%,60.000610%); stroke-width: 1.500000;stroke-linecap: round;stroke-dasharray: 3.000000 3.000000 ;stroke-linejoin: round;stroke-miterlimit: 10.000000;fill: none;"></path>
  <path d="M341.906845 545.140762C341.906845 544.079849,341.485336 543.062515,340.735214 542.312393C339.985092 541.562271,338.967758 541.140762,337.906845 541.140762C336.845932 541.140762,335.828598 541.562271,335.078476 542.312393C334.328354 543.062515,333.906845 544.079849,333.906845 545.140762C333.906845 546.201675,334.328354 547.219009,335.078476 547.969131C335.828598 548.719254,336.845932 549.140762,337.906845 549.140762C338.967758 549.140762,339.985092 548.719254,340.735214 547.969131C341.485336 547.219009,341.906845 546.201675,341.906845 545.140762Z" style="stroke:rgb(39.999390%,39.999390%,39.999390%); stroke-width: 0.500000;stroke-linecap: round;stroke-linejoin: round;stroke-miterlimit: 10.000000;fill: none;"></path>
  <path d="M341.906845 545.140762C341.906845 544.079849,341.485336 543.062515,340.735214 542.312393C339.985092 541.562271,338.967758 541.140762,337.906845 541.140762C336.845932 541.140762,335.828598 541.562271,335.078476 542.312393C334.328354 543.062515,333.906845 544.079849,333.906845 545.140762C333.906845 546.201675,334.328354 547.219009,335.078476 547.969131C335.828598 548.719254,336.845932 549.140762,337.906845 549.140762C338.967758 549.140762,339.985092 548.719254,340.735214 547.969131C341.485336 547.219009,341.906845 546.201675,341.906845 545.140762Z" style="fill: rgb(89.999390%,0.000000%,0.000000%);stroke: none;"></path>
  <path d="M358.516098 330.734390C358.516098 329.673477,358.094589 328.656143,357.344467 327.906021C356.594345 327.155899,355.577011 326.734390,354.516098 326.734390C353.455185 326.734390,352.437851 327.155899,351.687729 327.906021C350.937607 328.656143,350.516098 329.673477,350.516098 330.734390C350.516098 331.795303,350.937607 332.812637,351.687729 333.562759C352.437851 334.312881,353.455185 334.734390,354.516098 334.734390C355.577011 334.734390,356.594345 334.312881,357.344467 333.562759C358.094589 332.812637,358.516098 331.795303,358.516098 330.734390Z" style="stroke:rgb(39.999390%,39.999390%,39.999390%); stroke-width: 0.500000;stroke-linecap: round;stroke-linejoin: round;stroke-miterlimit: 10.000000;fill: none;"></path>
  <path d="M358.516098 330.734390C358.516098 329.673477,358.094589 328.656143,357.344467 327.906021C356.594345 327.155899,355.577011 326.734390,354.516098 326.734390C353.455185 326.734390,352.437851 327.155899,351.687729 327.906021C350.937607 328.656143,350.516098 329.673477,350.516098 330.734390C350.516098 331.795303,350.937607 332.812637,351.687729 333.562759C352.437851 334.312881,353.455185 334.734390,354.516098 334.734390C355.577011 334.734390,356.594345 334.312881,357.344467 333.562759C358.094589 332.812637,358.516098 331.795303,358.516098 330.734390Z" style="fill: rgb(89.999390%,0.000000%,0.000000%);stroke: none;"></path>
  <path d="M270.746597 431.773987C270.746597 430.713074,270.325089 429.695740,269.574966 428.945618C268.824844 428.195496,267.807510 427.773987,266.746597 427.773987C265.685684 427.773987,264.668350 428.195496,263.918228 428.945618C263.168106 429.695740,262.746597 430.713074,262.746597 431.773987C262.746597 432.834900,263.168106 433.852234,263.918228 434.602356C264.668350 435.352478,265.685684 435.773987,266.746597 435.773987C267.807510 435.773987,268.824844 435.352478,269.574966 434.602356C270.325089 433.852234,270.746597 432.834900,270.746597 431.773987Z" style="stroke:rgb(39.999390%,39.999390%,39.999390%); stroke-width: 0.500000;stroke-linecap: round;stroke-linejoin: round;stroke-miterlimit: 10.000000;fill: none;"></path>
  <path d="M270.746597 431.773987C270.746597 430.713074,270.325089 429.695740,269.574966 428.945618C268.824844 428.195496,267.807510 427.773987,266.746597 427.773987C265.685684 427.773987,264.668350 428.195496,263.918228 428.945618C263.168106 429.695740,262.746597 430.713074,262.746597 431.773987C262.746597 432.834900,263.168106 433.852234,263.918228 434.602356C264.668350 435.352478,265.685684 435.773987,266.746597 435.773987C267.807510 435.773987,268.824844 435.352478,269.574966 434.602356C270.325089 433.852234,270.746597 432.834900,270.746597 431.773987Z" style="fill: rgb(9.800720%,9.800720%,44.000244%);stroke: none;"></path>
  <path d="M134.028320 449.127197L75.939209 328.545776" style="stroke:rgb(60.000610%,60.000610%,60.000610%); stroke-width: 1.500000;stroke-linecap: round;stroke-dasharray: 3.000000 3.000000 ;stroke-linejoin: round;stroke-miterlimit: 10.000000;fill: none;"></path>
  <path d="M138.028320 449.127197C138.028320 448.066284,137.606812 447.048950,136.856689 446.298828C136.106567 445.548706,135.089233 445.127197,134.028320 445.127197C132.967407 445.127197,131.950073 445.548706,131.199951 446.298828C130.449829 447.048950,130.028320 448.066284,130.028320 449.127197C130.028320 450.188110,130.449829 451.205444,131.199951 451.955566C131.950073 452.705688,132.967407 453.127197,134.028320 453.127197C135.089233 453.127197,136.106567 452.705688,136.856689 451.955566C137.606812 451.205444,138.028320 450.188110,138.028320 449.127197Z" style="stroke:rgb(39.999390%,39.999390%,39.999390%); stroke-width: 0.500000;stroke-linecap: round;stroke-linejoin: round;stroke-miterlimit: 10.000000;fill: none;"></path>
  <path d="M138.028320 449.127197C138.028320 448.066284,137.606812 447.048950,136.856689 446.298828C136.106567 445.548706,135.089233 445.127197,134.028320 445.127197C132.967407 445.127197,131.950073 445.548706,131.199951 446.298828C130.449829 447.048950,130.028320 448.066284,130.028320 449.127197C130.028320 450.188110,130.449829 451.205444,131.199951 451.955566C131.950073 452.705688,132.967407 453.127197,134.028320 453.127197C135.089233 453.127197,136.106567 452.705688,136.856689 451.955566C137.606812 451.205444,138.028320 450.188110,138.028320 449.127197Z" style="fill: rgb(89.999390%,0.000000%,0.000000%);stroke: none;"></path>
  <path d="M79.939209 328.545776C79.939209 327.484863,79.517700 326.467529,78.767578 325.717407C78.017456 324.967285,77.000122 324.545776,75.939209 324.545776C74.878296 324.545776,73.860962 324.967285,73.110840 325.717407C72.360718 326.467529,71.939209 327.484863,71.939209 328.545776C71.939209 329.606689,72.360718 330.624023,73.110840 331.374146C73.860962 332.124268,74.878296 332.545776,75.939209 332.545776C77.000122 332.545776,78.017456 332.124268,78.767578 331.374146C79.517700 330.624023,79.939209 329.606689,79.939209 328.545776Z" style="stroke:rgb(39.999390%,39.999390%,39.999390%); stroke-width: 0.500000;stroke-linecap: round;stroke-linejoin: round;stroke-miterlimit: 10.000000;fill: none;"></path>
  <path d="M79.939209 328.545776C79.939209 327.484863,79.517700 326.467529,78.767578 325.717407C78.017456 324.967285,77.000122 324.545776,75.939209 324.545776C74.878296 324.545776,73.860962 324.967285,73.110840 325.717407C72.360718 326.467529,71.939209 327.484863,71.939209 328.545776C71.939209 329.606689,72.360718 330.624023,73.110840 331.374146C73.860962 332.124268,74.878296 332.545776,75.939209 332.545776C77.000122 332.545776,78.017456 332.124268,78.767578 331.374146C79.517700 330.624023,79.939209 329.606689,79.939209 328.545776Z" style="fill: rgb(100.000000%,100.000000%,0.000000%);stroke: none;"></path>
  <path d="M134.028320 449.127197L114.201035 581.508102" style="stroke:rgb(60.000610%,60.000610%,60.000610%); stroke-width: 1.500000;stroke-linecap: round;stroke-dasharray: 3.000000 3.000000 ;stroke-linejoin: round;stroke-miterlimit: 10.000000;fill: none;"></path>
  <path d="M138.028320 449.127197C138.028320 448.066284,137.606812 447.048950,136.856689 446.298828C136.106567 445.548706,135.089233 445.127197,134.028320 445.127197C132.967407 445.127197,131.950073 445.548706,131.199951 446.298828C130.449829 447.048950,130.028320 448.066284,130.028320 449.127197C130.028320 450.188110,130.449829 451.205444,131.199951 451.955566C131.950073 452.705688,132.967407 453.127197,134.028320 453.127197C135.089233 453.127197,136.106567 452.705688,136.856689 451.955566C137.606812 451.205444,138.028320 450.188110,138.028320 449.127197Z" style="stroke:rgb(39.999390%,39.999390%,39.999390%); stroke-width: 0.500000;stroke-linecap: round;stroke-linejoin: round;stroke-miterlimit: 10.000000;fill: none;"></path>
  <path d="M138.028320 449.127197C138.028320 448.066284,137.606812 447.048950,136.856689 446.298828C136.106567 445.548706,135.089233 445.127197,134.028320 445.127197C132.967407 445.127197,131.950073 445.548706,131.199951 446.298828C130.449829 447.048950,130.028320 448.066284,130.028320 449.127197C130.028320 450.188110,130.449829 451.205444,131.199951 451.955566C131.950073 452.705688,132.967407 453.127197,134.028320 453.127197C135.089233 453.127197,136.106567 452.705688,136.856689 451.955566C137.606812 451.205444,138.028320 450.188110,138.028320 449.127197Z" style="fill: rgb(89.999390%,0.000000%,0.000000%);stroke: none;"></path>
  <path d="M118.201035 581.508102C118.201035 580.447189,117.779526 579.429855,117.029404 578.679733C116.279282 577.929611,115.261948 577.508102,114.201035 577.508102C113.140121 577.508102,112.122787 577.929611,111.372665 578.679733C110.622543 579.429855,110.201035 580.447189,110.201035 581.508102C110.201035 582.569016,110.622543 583.586349,111.372665 584.336472C112.122787 585.086594,113.140121 585.508102,114.201035 585.508102C115.261948 585.508102,116.279282 585.086594,117.029404 584.336472C117.779526 583.586349,118.201035 582.569016,118.201035 581.508102Z" style="stroke:rgb(39.999390%,39.999390%,39.999390%); stroke-width: 0.500000;stroke-linecap: round;stroke-linejoin: round;stroke-miterlimit: 10.000000;fill: none;"></path>
  <path d="M118.201035 581.508102C118.201035 580.447189,117.779526 579.429855,117.029404 578.679733C116.279282 577.929611,115.261948 577.508102,114.201035 577.508102C113.140121 577.508102,112.122787 577.929611,111.372665 578.679733C110.622543 579.429855,110.201035 580.447189,110.201035 581.508102C110.201035 582.569016,110.622543 583.586349,111.372665 584.336472C112.122787 585.086594,113.140121 585.508102,114.201035 585.508102C115.261948 585.508102,116.279282 585.086594,117.029404 584.336472C117.779526 583.586349,118.201035 582.569016,118.201035 581.508102Z" style="fill: rgb(100.000000%,100.000000%,0.000000%);stroke: none;"></path>
  <path d="M134.028320 449.127197L221.806473 348.087601" style="stroke:rgb(60.000610%,60.000610%,60.000610%); stroke-width: 1.500000;stroke-linecap: round;stroke-dasharray: 3.000000 3.000000 ;stroke-linejoin: round;stroke-miterlimit: 10.000000;fill: none;"></path>
  <path d="M354.516098 330.734390L221.806473 348.087601" style="stroke:rgb(60.000610%,60.000610%,60.000610%); stroke-width: 1.500000;stroke-linecap: round;stroke-dasharray: 3.000000 3.000000 ;stroke-linejoin: round;stroke-miterlimit: 10.000000;fill: none;"></path>
  <path d="M138.028320 449.127197C138.028320 448.066284,137.606812 447.048950,136.856689 446.298828C136.106567 445.548706,135.089233 445.127197,134.028320 445.127197C132.967407 445.127197,131.950073 445.548706,131.199951 446.298828C130.449829 447.048950,130.028320 448.066284,130.028320 449.127197C130.028320 450.188110,130.449829 451.205444,131.199951 451.955566C131.950073 452.705688,132.967407 453.127197,134.028320 453.127197C135.089233 453.127197,136.106567 452.705688,136.856689 451.955566C137.606812 451.205444,138.028320 450.188110,138.028320 449.127197Z" style="stroke:rgb(39.999390%,39.999390%,39.999390%); stroke-width: 0.500000;stroke-linecap: round;stroke-linejoin: round;stroke-miterlimit: 10.000000;fill: none;"></path>
  <path d="M138.028320 449.127197C138.028320 448.066284,137.606812 447.048950,136.856689 446.298828C136.106567 445.548706,135.089233 445.127197,134.028320 445.127197C132.967407 445.127197,131.950073 445.548706,131.199951 446.298828C130.449829 447.048950,130.028320 448.066284,130.028320 449.127197C130.028320 450.188110,130.449829 451.205444,131.199951 451.955566C131.950073 452.705688,132.967407 453.127197,134.028320 453.127197C135.089233 453.127197,136.106567 452.705688,136.856689 451.955566C137.606812 451.205444,138.028320 450.188110,138.028320 449.127197Z" style="fill: rgb(89.999390%,0.000000%,0.000000%);stroke: none;"></path>
  <path d="M358.516098 330.734390C358.516098 329.673477,358.094589 328.656143,357.344467 327.906021C356.594345 327.155899,355.577011 326.734390,354.516098 326.734390C353.455185 326.734390,352.437851 327.155899,351.687729 327.906021C350.937607 328.656143,350.516098 329.673477,350.516098 330.734390C350.516098 331.795303,350.937607 332.812637,351.687729 333.562759C352.437851 334.312881,353.455185 334.734390,354.516098 334.734390C355.577011 334.734390,356.594345 334.312881,357.344467 333.562759C358.094589 332.812637,358.516098 331.795303,358.516098 330.734390Z" style="stroke:rgb(39.999390%,39.999390%,39.999390%); stroke-width: 0.500000;stroke-linecap: round;stroke-linejoin: round;stroke-miterlimit: 10.000000;fill: none;"></path>
  <path d="M358.516098 330.734390C358.516098 329.673477,358.094589 328.656143,357.344467 327.906021C356.594345 327.155899,355.577011 326.734390,354.516098 326.734390C353.455185 326.734390,352.437851 327.155899,351.687729 327.906021C350.937607 328.656143,350.516098 329.673477,350.516098 330.734390C350.516098 331.795303,350.937607 332.812637,351.687729 333.562759C352.437851 334.312881,353.455185 334.734390,354.516098 334.734390C355.577011 334.734390,356.594345 334.312881,357.344467 333.562759C358.094589 332.812637,358.516098 331.795303,358.516098 330.734390Z" style="fill: rgb(89.999390%,0.000000%,0.000000%);stroke: none;"></path>
  <path d="M225.806473 348.087601C225.806473 347.026688,225.384964 346.009354,224.634842 345.259232C223.884720 344.509109,222.867386 344.087601,221.806473 344.087601C220.745560 344.087601,219.728226 344.509109,218.978104 345.259232C218.227982 346.009354,217.806473 347.026688,217.806473 348.087601C217.806473 349.148514,218.227982 350.165848,218.978104 350.915970C219.728226 351.666092,220.745560 352.087601,221.806473 352.087601C222.867386 352.087601,223.884720 351.666092,224.634842 350.915970C225.384964 350.165848,225.806473 349.148514,225.806473 348.087601Z" style="stroke:rgb(39.999390%,39.999390%,39.999390%); stroke-width: 0.500000;stroke-linecap: round;stroke-linejoin: round;stroke-miterlimit: 10.000000;fill: none;"></path>
  <path d="M225.806473 348.087601C225.806473 347.026688,225.384964 346.009354,224.634842 345.259232C223.884720 344.509109,222.867386 344.087601,221.806473 344.087601C220.745560 344.087601,219.728226 344.509109,218.978104 345.259232C218.227982 346.009354,217.806473 347.026688,217.806473 348.087601C217.806473 349.148514,218.227982 350.165848,218.978104 350.915970C219.728226 351.666092,220.745560 352.087601,221.806473 352.087601C222.867386 352.087601,223.884720 351.666092,224.634842 350.915970C225.384964 350.165848,225.806473 349.148514,225.806473 348.087601Z" style="fill: rgb(9.800720%,9.800720%,44.000244%);stroke: none;"></path>
  <path d="M134.028320 449.127197L266.746597 431.773987" style="stroke:rgb(60.000610%,60.000610%,60.000610%); stroke-width: 1.500000;stroke-linecap: round;stroke-dasharray: 3.000000 3.000000 ;stroke-linejoin: round;stroke-miterlimit: 10.000000;fill: none;"></path>
  <path d="M354.516098 330.734390L266.746597 431.773987" style="stroke:rgb(60.000610%,60.000610%,60.000610%); stroke-width: 1.500000;stroke-linecap: round;stroke-dasharray: 3.000000 3.000000 ;stroke-linejoin: round;stroke-miterlimit: 10.000000;fill: none;"></path>
  <path d="M138.028320 449.127197C138.028320 448.066284,137.606812 447.048950,136.856689 446.298828C136.106567 445.548706,135.089233 445.127197,134.028320 445.127197C132.967407 445.127197,131.950073 445.548706,131.199951 446.298828C130.449829 447.048950,130.028320 448.066284,130.028320 449.127197C130.028320 450.188110,130.449829 451.205444,131.199951 451.955566C131.950073 452.705688,132.967407 453.127197,134.028320 453.127197C135.089233 453.127197,136.106567 452.705688,136.856689 451.955566C137.606812 451.205444,138.028320 450.188110,138.028320 449.127197Z" style="stroke:rgb(39.999390%,39.999390%,39.999390%); stroke-width: 0.500000;stroke-linecap: round;stroke-linejoin: round;stroke-miterlimit: 10.000000;fill: none;"></path>
  <path d="M138.028320 449.127197C138.028320 448.066284,137.606812 447.048950,136.856689 446.298828C136.106567 445.548706,135.089233 445.127197,134.028320 445.127197C132.967407 445.127197,131.950073 445.548706,131.199951 446.298828C130.449829 447.048950,130.028320 448.066284,130.028320 449.127197C130.028320 450.188110,130.449829 451.205444,131.199951 451.955566C131.950073 452.705688,132.967407 453.127197,134.028320 453.127197C135.089233 453.127197,136.106567 452.705688,136.856689 451.955566C137.606812 451.205444,138.028320 450.188110,138.028320 449.127197Z" style="fill: rgb(89.999390%,0.000000%,0.000000%);stroke: none;"></path>
  <path d="M358.516098 330.734390C358.516098 329.673477,358.094589 328.656143,357.344467 327.906021C356.594345 327.155899,355.577011 326.734390,354.516098 326.734390C353.455185 326.734390,352.437851 327.155899,351.687729 327.906021C350.937607 328.656143,350.516098 329.673477,350.516098 330.734390C350.516098 331.795303,350.937607 332.812637,351.687729 333.562759C352.437851 334.312881,353.455185 334.734390,354.516098 334.734390C355.577011 334.734390,356.594345 334.312881,357.344467 333.562759C358.094589 332.812637,358.516098 331.795303,358.516098 330.734390Z" style="stroke:rgb(39.999390%,39.999390%,39.999390%); stroke-width: 0.500000;stroke-linecap: round;stroke-linejoin: round;stroke-miterlimit: 10.000000;fill: none;"></path>
  <path d="M358.516098 330.734390C358.516098 329.673477,358.094589 328.656143,357.344467 327.906021C356.594345 327.155899,355.577011 326.734390,354.516098 326.734390C353.455185 326.734390,352.437851 327.155899,351.687729 327.906021C350.937607 328.656143,350.516098 329.673477,350.516098 330.734390C350.516098 331.795303,350.937607 332.812637,351.687729 333.562759C352.437851 334.312881,353.455185 334.734390,354.516098 334.734390C355.577011 334.734390,356.594345 334.312881,357.344467 333.562759C358.094589 332.812637,358.516098 331.795303,358.516098 330.734390Z" style="fill: rgb(89.999390%,0.000000%,0.000000%);stroke: none;"></path>
  <path d="M270.746597 431.773987C270.746597 430.713074,270.325089 429.695740,269.574966 428.945618C268.824844 428.195496,267.807510 427.773987,266.746597 427.773987C265.685684 427.773987,264.668350 428.195496,263.918228 428.945618C263.168106 429.695740,262.746597 430.713074,262.746597 431.773987C262.746597 432.834900,263.168106 433.852234,263.918228 434.602356C264.668350 435.352478,265.685684 435.773987,266.746597 435.773987C267.807510 435.773987,268.824844 435.352478,269.574966 434.602356C270.325089 433.852234,270.746597 432.834900,270.746597 431.773987Z" style="stroke:rgb(39.999390%,39.999390%,39.999390%); stroke-width: 0.500000;stroke-linecap: round;stroke-linejoin: round;stroke-miterlimit: 10.000000;fill: none;"></path>
  <path d="M270.746597 431.773987C270.746597 430.713074,270.325089 429.695740,269.574966 428.945618C268.824844 428.195496,267.807510 427.773987,266.746597 427.773987C265.685684 427.773987,264.668350 428.195496,263.918228 428.945618C263.168106 429.695740,262.746597 430.713074,262.746597 431.773987C262.746597 432.834900,263.168106 433.852234,263.918228 434.602356C264.668350 435.352478,265.685684 435.773987,266.746597 435.773987C267.807510 435.773987,268.824844 435.352478,269.574966 434.602356C270.325089 433.852234,270.746597 432.834900,270.746597 431.773987Z" style="fill: rgb(9.800720%,9.800720%,44.000244%);stroke: none;"></path>
  <path d="M134.028320 449.127197L221.771866 348.061646" style="stroke:rgb(60.000610%,60.000610%,60.000610%); stroke-width: 1.500000;stroke-linecap: round;stroke-dasharray: 3.000000 3.000000 ;stroke-linejoin: round;stroke-miterlimit: 10.000000;fill: none;"></path>
  <path d="M189.548187 218.154831L221.771866 348.061646" style="stroke:rgb(60.000610%,60.000610%,60.000610%); stroke-width: 1.500000;stroke-linecap: round;stroke-dasharray: 3.000000 3.000000 ;stroke-linejoin: round;stroke-miterlimit: 10.000000;fill: none;"></path>
  <path d="M138.028320 449.127197C138.028320 448.066284,137.606812 447.048950,136.856689 446.298828C136.106567 445.548706,135.089233 445.127197,134.028320 445.127197C132.967407 445.127197,131.950073 445.548706,131.199951 446.298828C130.449829 447.048950,130.028320 448.066284,130.028320 449.127197C130.028320 450.188110,130.449829 451.205444,131.199951 451.955566C131.950073 452.705688,132.967407 453.127197,134.028320 453.127197C135.089233 453.127197,136.106567 452.705688,136.856689 451.955566C137.606812 451.205444,138.028320 450.188110,138.028320 449.127197Z" style="stroke:rgb(39.999390%,39.999390%,39.999390%); stroke-width: 0.500000;stroke-linecap: round;stroke-linejoin: round;stroke-miterlimit: 10.000000;fill: none;"></path>
  <path d="M138.028320 449.127197C138.028320 448.066284,137.606812 447.048950,136.856689 446.298828C136.106567 445.548706,135.089233 445.127197,134.028320 445.127197C132.967407 445.127197,131.950073 445.548706,131.199951 446.298828C130.449829 447.048950,130.028320 448.066284,130.028320 449.127197C130.028320 450.188110,130.449829 451.205444,131.199951 451.955566C131.950073 452.705688,132.967407 453.127197,134.028320 453.127197C135.089233 453.127197,136.106567 452.705688,136.856689 451.955566C137.606812 451.205444,138.028320 450.188110,138.028320 449.127197Z" style="fill: rgb(89.999390%,0.000000%,0.000000%);stroke: none;"></path>
  <path d="M193.548187 218.154831C193.548187 217.093918,193.126678 216.076584,192.376556 215.326462C191.626434 214.576340,190.609100 214.154831,189.548187 214.154831C188.487274 214.154831,187.469940 214.576340,186.719818 215.326462C185.969696 216.076584,185.548187 217.093918,185.548187 218.154831C185.548187 219.215744,185.969696 220.233078,186.719818 220.983200C187.469940 221.733322,188.487274 222.154831,189.548187 222.154831C190.609100 222.154831,191.626434 221.733322,192.376556 220.983200C193.126678 220.233078,193.548187 219.215744,193.548187 218.154831Z" style="stroke:rgb(39.999390%,39.999390%,39.999390%); stroke-width: 0.500000;stroke-linecap: round;stroke-linejoin: round;stroke-miterlimit: 10.000000;fill: none;"></path>
  <path d="M193.548187 218.154831C193.548187 217.093918,193.126678 216.076584,192.376556 215.326462C191.626434 214.576340,190.609100 214.154831,189.548187 214.154831C188.487274 214.154831,187.469940 214.576340,186.719818 215.326462C185.969696 216.076584,185.548187 217.093918,185.548187 218.154831C185.548187 219.215744,185.969696 220.233078,186.719818 220.983200C187.469940 221.733322,188.487274 222.154831,189.548187 222.154831C190.609100 222.154831,191.626434 221.733322,192.376556 220.983200C193.126678 220.233078,193.548187 219.215744,193.548187 218.154831Z" style="fill: rgb(89.999390%,0.000000%,0.000000%);stroke: none;"></path>
  <path d="M225.771866 348.061646C225.771866 347.000732,225.350357 345.983398,224.600235 345.233276C223.850113 344.483154,222.832779 344.061646,221.771866 344.061646C220.710953 344.061646,219.693619 344.483154,218.943497 345.233276C218.193375 345.983398,217.771866 347.000732,217.771866 348.061646C217.771866 349.122559,218.193375 350.139893,218.943497 350.890015C219.693619 351.640137,220.710953 352.061646,221.771866 352.061646C222.832779 352.061646,223.850113 351.640137,224.600235 350.890015C225.350357 350.139893,225.771866 349.122559,225.771866 348.061646Z" style="stroke:rgb(39.999390%,39.999390%,39.999390%); stroke-width: 0.500000;stroke-linecap: round;stroke-linejoin: round;stroke-miterlimit: 10.000000;fill: none;"></path>
  <path d="M225.771866 348.061646C225.771866 347.000732,225.350357 345.983398,224.600235 345.233276C223.850113 344.483154,222.832779 344.061646,221.771866 344.061646C220.710953 344.061646,219.693619 344.483154,218.943497 345.233276C218.193375 345.983398,217.771866 347.000732,217.771866 348.061646C217.771866 349.122559,218.193375 350.139893,218.943497 350.890015C219.693619 351.640137,220.710953 352.061646,221.771866 352.061646C222.832779 352.061646,223.850113 351.640137,224.600235 350.890015C225.350357 350.139893,225.771866 349.122559,225.771866 348.061646Z" style="fill: rgb(9.800720%,9.800720%,44.000244%);stroke: none;"></path>
  <path d="M354.516098 330.734390L221.797821 348.052994" style="stroke:rgb(60.000610%,60.000610%,60.000610%); stroke-width: 1.500000;stroke-linecap: round;stroke-dasharray: 3.000000 3.000000 ;stroke-linejoin: round;stroke-miterlimit: 10.000000;fill: none;"></path>
  <path d="M189.548187 218.154831L221.797821 348.052994" style="stroke:rgb(60.000610%,60.000610%,60.000610%); stroke-width: 1.500000;stroke-linecap: round;stroke-dasharray: 3.000000 3.000000 ;stroke-linejoin: round;stroke-miterlimit: 10.000000;fill: none;"></path>
  <path d="M358.516098 330.734390C358.516098 329.673477,358.094589 328.656143,357.344467 327.906021C356.594345 327.155899,355.577011 326.734390,354.516098 326.734390C353.455185 326.734390,352.437851 327.155899,351.687729 327.906021C350.937607 328.656143,350.516098 329.673477,350.516098 330.734390C350.516098 331.795303,350.937607 332.812637,351.687729 333.562759C352.437851 334.312881,353.455185 334.734390,354.516098 334.734390C355.577011 334.734390,356.594345 334.312881,357.344467 333.562759C358.094589 332.812637,358.516098 331.795303,358.516098 330.734390Z" style="stroke:rgb(39.999390%,39.999390%,39.999390%); stroke-width: 0.500000;stroke-linecap: round;stroke-linejoin: round;stroke-miterlimit: 10.000000;fill: none;"></path>
  <path d="M358.516098 330.734390C358.516098 329.673477,358.094589 328.656143,357.344467 327.906021C356.594345 327.155899,355.577011 326.734390,354.516098 326.734390C353.455185 326.734390,352.437851 327.155899,351.687729 327.906021C350.937607 328.656143,350.516098 329.673477,350.516098 330.734390C350.516098 331.795303,350.937607 332.812637,351.687729 333.562759C352.437851 334.312881,353.455185 334.734390,354.516098 334.734390C355.577011 334.734390,356.594345 334.312881,357.344467 333.562759C358.094589 332.812637,358.516098 331.795303,358.516098 330.734390Z" style="fill: rgb(89.999390%,0.000000%,0.000000%);stroke: none;"></path>
  <path d="M193.548187 218.154831C193.548187 217.093918,193.126678 216.076584,192.376556 215.326462C191.626434 214.576340,190.609100 214.154831,189.548187 214.154831C188.487274 214.154831,187.469940 214.576340,186.719818 215.326462C185.969696 216.076584,185.548187 217.093918,185.548187 218.154831C185.548187 219.215744,185.969696 220.233078,186.719818 220.983200C187.469940 221.733322,188.487274 222.154831,189.548187 222.154831C190.609100 222.154831,191.626434 221.733322,192.376556 220.983200C193.126678 220.233078,193.548187 219.215744,193.548187 218.154831Z" style="stroke:rgb(39.999390%,39.999390%,39.999390%); stroke-width: 0.500000;stroke-linecap: round;stroke-linejoin: round;stroke-miterlimit: 10.000000;fill: none;"></path>
  <path d="M193.548187 218.154831C193.548187 217.093918,193.126678 216.076584,192.376556 215.326462C191.626434 214.576340,190.609100 214.154831,189.548187 214.154831C188.487274 214.154831,187.469940 214.576340,186.719818 215.326462C185.969696 216.076584,185.548187 217.093918,185.548187 218.154831C185.548187 219.215744,185.969696 220.233078,186.719818 220.983200C187.469940 221.733322,188.487274 222.154831,189.548187 222.154831C190.609100 222.154831,191.626434 221.733322,192.376556 220.983200C193.126678 220.233078,193.548187 219.215744,193.548187 218.154831Z" style="fill: rgb(89.999390%,0.000000%,0.000000%);stroke: none;"></path>
  <path d="M225.797821 348.052994C225.797821 346.992081,225.376312 345.974747,224.626190 345.224625C223.876068 344.474503,222.858734 344.052994,221.797821 344.052994C220.736908 344.052994,219.719574 344.474503,218.969452 345.224625C218.219330 345.974747,217.797821 346.992081,217.797821 348.052994C217.797821 349.113907,218.219330 350.131241,218.969452 350.881363C219.719574 351.631485,220.736908 352.052994,221.797821 352.052994C222.858734 352.052994,223.876068 351.631485,224.626190 350.881363C225.376312 350.131241,225.797821 349.113907,225.797821 348.052994Z" style="stroke:rgb(39.999390%,39.999390%,39.999390%); stroke-width: 0.500000;stroke-linecap: round;stroke-linejoin: round;stroke-miterlimit: 10.000000;fill: none;"></path>
  <path d="M225.797821 348.052994C225.797821 346.992081,225.376312 345.974747,224.626190 345.224625C223.876068 344.474503,222.858734 344.052994,221.797821 344.052994C220.736908 344.052994,219.719574 344.474503,218.969452 345.224625C218.219330 345.974747,217.797821 346.992081,217.797821 348.052994C217.797821 349.113907,218.219330 350.131241,218.969452 350.881363C219.719574 351.631485,220.736908 352.052994,221.797821 352.052994C222.858734 352.052994,223.876068 351.631485,224.626190 350.881363C225.376312 350.131241,225.797821 349.113907,225.797821 348.052994Z" style="fill: rgb(9.800720%,9.800720%,44.000244%);stroke: none;"></path>
  <path d="M189.548187 218.154831L62.729660 175.360062" style="stroke:rgb(60.000610%,60.000610%,60.000610%); stroke-width: 1.500000;stroke-linecap: round;stroke-dasharray: 3.000000 3.000000 ;stroke-linejoin: round;stroke-miterlimit: 10.000000;fill: none;"></path>
  <path d="M193.548187 218.154831C193.548187 217.093918,193.126678 216.076584,192.376556 215.326462C191.626434 214.576340,190.609100 214.154831,189.548187 214.154831C188.487274 214.154831,187.469940 214.576340,186.719818 215.326462C185.969696 216.076584,185.548187 217.093918,185.548187 218.154831C185.548187 219.215744,185.969696 220.233078,186.719818 220.983200C187.469940 221.733322,188.487274 222.154831,189.548187 222.154831C190.609100 222.154831,191.626434 221.733322,192.376556 220.983200C193.126678 220.233078,193.548187 219.215744,193.548187 218.154831Z" style="stroke:rgb(39.999390%,39.999390%,39.999390%); stroke-width: 0.500000;stroke-linecap: round;stroke-linejoin: round;stroke-miterlimit: 10.000000;fill: none;"></path>
  <path d="M193.548187 218.154831C193.548187 217.093918,193.126678 216.076584,192.376556 215.326462C191.626434 214.576340,190.609100 214.154831,189.548187 214.154831C188.487274 214.154831,187.469940 214.576340,186.719818 215.326462C185.969696 216.076584,185.548187 217.093918,185.548187 218.154831C185.548187 219.215744,185.969696 220.233078,186.719818 220.983200C187.469940 221.733322,188.487274 222.154831,189.548187 222.154831C190.609100 222.154831,191.626434 221.733322,192.376556 220.983200C193.126678 220.233078,193.548187 219.215744,193.548187 218.154831Z" style="fill: rgb(89.999390%,0.000000%,0.000000%);stroke: none;"></path>
  <path d="M66.729660 175.360062C66.729660 174.299149,66.308151 173.281815,65.558029 172.531693C64.807907 171.781570,63.790573 171.360062,62.729660 171.360062C61.668747 171.360062,60.651413 171.781570,59.901291 172.531693C59.151169 173.281815,58.729660 174.299149,58.729660 175.360062C58.729660 176.420975,59.151169 177.438309,59.901291 178.188431C60.651413 178.938553,61.668747 179.360062,62.729660 179.360062C63.790573 179.360062,64.807907 178.938553,65.558029 178.188431C66.308151 177.438309,66.729660 176.420975,66.729660 175.360062Z" style="stroke:rgb(39.999390%,39.999390%,39.999390%); stroke-width: 0.500000;stroke-linecap: round;stroke-linejoin: round;stroke-miterlimit: 10.000000;fill: none;"></path>
  <path d="M66.729660 175.360062C66.729660 174.299149,66.308151 173.281815,65.558029 172.531693C64.807907 171.781570,63.790573 171.360062,62.729660 171.360062C61.668747 171.360062,60.651413 171.781570,59.901291 172.531693C59.151169 173.281815,58.729660 174.299149,58.729660 175.360062C58.729660 176.420975,59.151169 177.438309,59.901291 178.188431C60.651413 178.938553,61.668747 179.360062,62.729660 179.360062C63.790573 179.360062,64.807907 178.938553,65.558029 178.188431C66.308151 177.438309,66.729660 176.420975,66.729660 175.360062Z" style="fill: rgb(100.000000%,100.000000%,0.000000%);stroke: none;"></path>
</svg>
