<?xml version="1.0"?>
<!-- Created by MetaPost 2.00 on 2025.04.10:1953 -->
<svg version="1.1" xmlns="http://www.w3.org/2000/svg" xmlns:xlink="http://www.w3.org/1999/xlink" width="679.868423" height="649.245132" viewBox="0 0 679.868423 649.245132">
<!-- Original BoundingBox: -373.749603 -327.745453 306.118820 321.499680 -->
  <path d="M156.655884 421.909836L156.655884 515.630981L253.430710 515.630981L253.430710 421.909836L156.655884 421.909836Z" style="fill: rgb(100.000000%,100.000000%,100.000000%);stroke: none;"></path>
  <path d="M345.620697 607.812317L345.620697 609.343475L440.916260 609.343475L440.916260 607.812317L345.620697 607.812317Z" style="fill: rgb(100.000000%,100.000000%,100.000000%);stroke: none;"></path>
  <path d="M534.628754 514.099808L536.159912 514.099808L536.159912 421.909836L534.628754 421.909836L534.628754 514.099808Z" style="fill: rgb(100.000000%,100.000000%,100.000000%);stroke: none;"></path>
  <path d="M440.916260 515.630981L534.628754 515.630981L534.628754 514.099808L440.916260 515.630981Z" style="fill: rgb(100.000000%,100.000000%,100.000000%);stroke: none;"></path>
  <path d="M534.628754 514.099808L534.628754 421.909836L440.916260 421.909836L440.916260 515.630981L534.628754 514.099808Z" style="fill: rgb(100.000000%,100.000000%,100.000000%);stroke: none;"></path>
  <path d="M344.089523 421.909836L344.089523 607.812317L345.620697 607.812317L344.089523 421.909836Z" style="fill: rgb(100.000000%,100.000000%,100.000000%);stroke: none;"></path>
  <path d="M345.620697 607.812317L440.916260 607.812317L440.916260 515.630981L345.620697 607.812317Z" style="fill: rgb(100.000000%,100.000000%,100.000000%);stroke: none;"></path>
  <path d="M440.916260 515.630981L440.916260 421.909836L344.089523 421.909836L345.620697 607.812317L440.916260 515.630981Z" style="fill: rgb(100.000000%,100.000000%,100.000000%);stroke: none;"></path>
  <path d="M62.891495 420.326767L62.943390 421.909836L156.655884 421.909836L62.891495 420.326767Z" style="fill: rgb(100.000000%,100.000000%,100.000000%);stroke: none;"></path>
  <path d="M536.159912 421.909836L536.159912 420.326767L534.628754 420.326767L536.159912 421.909836Z" style="fill: rgb(100.000000%,100.000000%,100.000000%);stroke: none;"></path>
  <path d="M62.891495 420.326767L156.655884 421.909836L253.430710 421.909836L62.891495 420.326767Z" style="fill: rgb(100.000000%,100.000000%,100.000000%);stroke: none;"></path>
  <path d="M62.891495 420.326767L253.430710 421.909836L344.089523 421.909836L62.891495 420.326767Z" style="fill: rgb(100.000000%,100.000000%,100.000000%);stroke: none;"></path>
  <path d="M344.089523 421.909836L536.159912 421.909836L534.628754 420.326767L62.891495 420.326767L344.089523 421.909836Z" style="fill: rgb(100.000000%,100.000000%,100.000000%);stroke: none;"></path>
  <path d="M534.628754 420.326767L534.628754 418.795609L440.916260 418.795609L534.628754 420.326767Z" style="fill: rgb(100.000000%,100.000000%,100.000000%);stroke: none;"></path>
  <path d="M440.916260 418.795609L62.891495 418.795609L62.891495 420.326767L534.628754 420.326767L440.916260 418.795609Z" style="fill: rgb(100.000000%,100.000000%,100.000000%);stroke: none;"></path>
  <path d="M628.341248 326.614273L629.872406 326.614273L629.872406 229.839447L628.341248 229.839447L628.341248 326.614273Z" style="fill: rgb(100.000000%,100.000000%,100.000000%);stroke: none;"></path>
  <path d="M534.628754 136.126953L534.628754 134.595795L440.916260 134.595795L440.916260 136.126953L534.628754 136.126953Z" style="fill: rgb(100.000000%,100.000000%,100.000000%);stroke: none;"></path>
  <path d="M536.159912 229.839447L536.159912 136.126953L534.628754 136.126953L536.159912 229.839447Z" style="fill: rgb(100.000000%,100.000000%,100.000000%);stroke: none;"></path>
  <path d="M534.628754 136.126953L440.916260 136.126953L440.916260 229.839447L536.159912 229.839447L534.628754 136.126953Z" style="fill: rgb(100.000000%,100.000000%,100.000000%);stroke: none;"></path>
  <path d="M440.916260 328.145432L628.341248 328.145432L628.341248 326.614273L440.916260 328.145432Z" style="fill: rgb(100.000000%,100.000000%,100.000000%);stroke: none;"></path>
  <path d="M628.341248 326.614273L628.341248 229.839447L536.159912 229.839447L628.341248 326.614273Z" style="fill: rgb(100.000000%,100.000000%,100.000000%);stroke: none;"></path>
  <path d="M536.159912 229.839447L440.916260 229.839447L440.916260 328.145432L628.341248 326.614273L536.159912 229.839447Z" style="fill: rgb(100.000000%,100.000000%,100.000000%);stroke: none;"></path>
  <path d="M439.333191 418.795609L440.916260 418.795609L440.916260 328.145432L439.333191 418.795609Z" style="fill: rgb(100.000000%,100.000000%,100.000000%);stroke: none;"></path>
  <path d="M440.916260 134.595795L439.333191 134.595795L439.333191 229.839447L440.916260 134.595795Z" style="fill: rgb(100.000000%,100.000000%,100.000000%);stroke: none;"></path>
  <path d="M439.333191 229.839447L439.333191 418.795609L440.916260 328.145432L440.916260 134.595795L439.333191 229.839447Z" style="fill: rgb(100.000000%,100.000000%,100.000000%);stroke: none;"></path>
  <path d="M158.187057 136.126953L156.655884 136.126953L156.655884 229.839447L158.187057 229.839447L158.187057 136.126953Z" style="fill: rgb(100.000000%,100.000000%,100.000000%);stroke: none;"></path>
  <path d="M250.377029 134.595795L158.187057 134.595795L158.187057 136.126953L250.377029 134.595795Z" style="fill: rgb(100.000000%,100.000000%,100.000000%);stroke: none;"></path>
  <path d="M158.187057 136.126953L158.187057 229.839447L250.377029 229.839447L250.377029 134.595795L158.187057 136.126953Z" style="fill: rgb(100.000000%,100.000000%,100.000000%);stroke: none;"></path>
  <path d="M251.908203 42.414459L250.377029 42.414459L250.377029 134.595795L251.908203 42.414459Z" style="fill: rgb(100.000000%,100.000000%,100.000000%);stroke: none;"></path>
  <path d="M250.377029 134.595795L250.377029 229.839447L251.908203 229.839447L251.908203 42.414459L250.377029 134.595795Z" style="fill: rgb(100.000000%,100.000000%,100.000000%);stroke: none;"></path>
  <path d="M347.151855 40.883301L251.908203 40.883301L251.908203 42.414459L347.151855 40.883301Z" style="fill: rgb(100.000000%,100.000000%,100.000000%);stroke: none;"></path>
  <path d="M251.908203 42.414459L251.908203 229.839447L347.151855 229.839447L347.151855 40.883301L251.908203 42.414459Z" style="fill: rgb(100.000000%,100.000000%,100.000000%);stroke: none;"></path>
  <path d="M439.333191 231.370605L439.333191 229.839447L347.151855 229.839447L439.333191 231.370605Z" style="fill: rgb(100.000000%,100.000000%,100.000000%);stroke: none;"></path>
  <path d="M156.655884 229.839447L156.655884 231.370605L250.377029 231.370605L156.655884 229.839447Z" style="fill: rgb(100.000000%,100.000000%,100.000000%);stroke: none;"></path>
  <path d="M250.377029 231.370605L439.333191 231.370605L347.151855 229.839447L156.655884 229.839447L250.377029 231.370605Z" style="fill: rgb(100.000000%,100.000000%,100.000000%);stroke: none;"></path>
  <path d="M439.333191 231.370605L250.377029 231.370605L250.377029 325.083099L439.333191 231.370605Z" style="fill: rgb(100.000000%,100.000000%,100.000000%);stroke: none;"></path>
  <path d="M250.377029 325.083099L250.377029 418.795609L439.333191 418.795609L439.333191 231.370605L250.377029 325.083099Z" style="fill: rgb(100.000000%,100.000000%,100.000000%);stroke: none;"></path>
  <path d="M62.943390 325.083099L62.891495 418.795609L250.377029 418.795609L250.377029 325.083099L62.943390 325.083099Z" style="fill: rgb(100.000000%,100.000000%,100.000000%);stroke: none;"></path>
  <path d="M253.430710 421.909836L156.655884 421.909836" style="stroke:rgb(100.000000%,100.000000%,100.000000%); stroke-width: 1.000000;stroke-linecap: round;stroke-linejoin: round;stroke-miterlimit: 10.000000;fill: none;"></path>
  <path d="M440.916260 607.812317L345.620697 607.812317" style="stroke:rgb(100.000000%,100.000000%,100.000000%); stroke-width: 1.000000;stroke-linecap: round;stroke-linejoin: round;stroke-miterlimit: 10.000000;fill: none;"></path>
  <path d="M536.159912 421.909836L534.628754 421.909836" style="stroke:rgb(100.000000%,100.000000%,100.000000%); stroke-width: 1.000000;stroke-linecap: round;stroke-linejoin: round;stroke-miterlimit: 10.000000;fill: none;"></path>
  <path d="M534.628754 421.909836L534.628754 514.099808" style="stroke:rgb(100.000000%,100.000000%,100.000000%); stroke-width: 1.000000;stroke-linecap: round;stroke-linejoin: round;stroke-miterlimit: 10.000000;fill: none;"></path>
  <path d="M534.628754 514.099808L440.916260 515.630981" style="stroke:rgb(100.000000%,100.000000%,100.000000%); stroke-width: 1.000000;stroke-linecap: round;stroke-linejoin: round;stroke-miterlimit: 10.000000;fill: none;"></path>
  <path d="M534.628754 514.099808L534.628754 421.909836" style="stroke:rgb(100.000000%,100.000000%,100.000000%); stroke-width: 1.000000;stroke-linecap: round;stroke-linejoin: round;stroke-miterlimit: 10.000000;fill: none;"></path>
  <path d="M534.628754 421.909836L440.916260 421.909836" style="stroke:rgb(100.000000%,100.000000%,100.000000%); stroke-width: 1.000000;stroke-linecap: round;stroke-linejoin: round;stroke-miterlimit: 10.000000;fill: none;"></path>
  <path d="M440.916260 421.909836L440.916260 515.630981" style="stroke:rgb(100.000000%,100.000000%,100.000000%); stroke-width: 1.000000;stroke-linecap: round;stroke-linejoin: round;stroke-miterlimit: 10.000000;fill: none;"></path>
  <path d="M440.916260 515.630981L534.628754 514.099808" style="stroke:rgb(100.000000%,100.000000%,100.000000%); stroke-width: 1.000000;stroke-linecap: round;stroke-linejoin: round;stroke-miterlimit: 10.000000;fill: none;"></path>
  <path d="M345.620697 607.812317L344.089523 421.909836" style="stroke:rgb(100.000000%,100.000000%,100.000000%); stroke-width: 1.000000;stroke-linecap: round;stroke-linejoin: round;stroke-miterlimit: 10.000000;fill: none;"></path>
  <path d="M345.620697 607.812317L440.916260 607.812317" style="stroke:rgb(100.000000%,100.000000%,100.000000%); stroke-width: 1.000000;stroke-linecap: round;stroke-linejoin: round;stroke-miterlimit: 10.000000;fill: none;"></path>
  <path d="M440.916260 515.630981L345.620697 607.812317" style="stroke:rgb(100.000000%,100.000000%,100.000000%); stroke-width: 1.000000;stroke-linecap: round;stroke-linejoin: round;stroke-miterlimit: 10.000000;fill: none;"></path>
  <path d="M440.916260 515.630981L440.916260 421.909836" style="stroke:rgb(100.000000%,100.000000%,100.000000%); stroke-width: 1.000000;stroke-linecap: round;stroke-linejoin: round;stroke-miterlimit: 10.000000;fill: none;"></path>
  <path d="M440.916260 421.909836L344.089523 421.909836" style="stroke:rgb(100.000000%,100.000000%,100.000000%); stroke-width: 1.000000;stroke-linecap: round;stroke-linejoin: round;stroke-miterlimit: 10.000000;fill: none;"></path>
  <path d="M344.089523 421.909836L345.620697 607.812317" style="stroke:rgb(100.000000%,100.000000%,100.000000%); stroke-width: 1.000000;stroke-linecap: round;stroke-linejoin: round;stroke-miterlimit: 10.000000;fill: none;"></path>
  <path d="M345.620697 607.812317L440.916260 515.630981" style="stroke:rgb(100.000000%,100.000000%,100.000000%); stroke-width: 1.000000;stroke-linecap: round;stroke-linejoin: round;stroke-miterlimit: 10.000000;fill: none;"></path>
  <path d="M156.655884 421.909836L62.891495 420.326767" style="stroke:rgb(100.000000%,100.000000%,100.000000%); stroke-width: 1.000000;stroke-linecap: round;stroke-linejoin: round;stroke-miterlimit: 10.000000;fill: none;"></path>
  <path d="M534.628754 420.326767L536.159912 421.909836" style="stroke:rgb(100.000000%,100.000000%,100.000000%); stroke-width: 1.000000;stroke-linecap: round;stroke-linejoin: round;stroke-miterlimit: 10.000000;fill: none;"></path>
  <path d="M62.891495 420.326767L156.655884 421.909836" style="stroke:rgb(100.000000%,100.000000%,100.000000%); stroke-width: 1.000000;stroke-linecap: round;stroke-linejoin: round;stroke-miterlimit: 10.000000;fill: none;"></path>
  <path d="M156.655884 421.909836L253.430710 421.909836" style="stroke:rgb(100.000000%,100.000000%,100.000000%); stroke-width: 1.000000;stroke-linecap: round;stroke-linejoin: round;stroke-miterlimit: 10.000000;fill: none;"></path>
  <path d="M253.430710 421.909836L62.891495 420.326767" style="stroke:rgb(100.000000%,100.000000%,100.000000%); stroke-width: 1.000000;stroke-linecap: round;stroke-linejoin: round;stroke-miterlimit: 10.000000;fill: none;"></path>
  <path d="M62.891495 420.326767L253.430710 421.909836" style="stroke:rgb(100.000000%,100.000000%,100.000000%); stroke-width: 1.000000;stroke-linecap: round;stroke-linejoin: round;stroke-miterlimit: 10.000000;fill: none;"></path>
  <path d="M344.089523 421.909836L62.891495 420.326767" style="stroke:rgb(100.000000%,100.000000%,100.000000%); stroke-width: 1.000000;stroke-linecap: round;stroke-linejoin: round;stroke-miterlimit: 10.000000;fill: none;"></path>
  <path d="M344.089523 421.909836L536.159912 421.909836" style="stroke:rgb(100.000000%,100.000000%,100.000000%); stroke-width: 1.000000;stroke-linecap: round;stroke-linejoin: round;stroke-miterlimit: 10.000000;fill: none;"></path>
  <path d="M536.159912 421.909836L534.628754 420.326767" style="stroke:rgb(100.000000%,100.000000%,100.000000%); stroke-width: 1.000000;stroke-linecap: round;stroke-linejoin: round;stroke-miterlimit: 10.000000;fill: none;"></path>
  <path d="M534.628754 420.326767L62.891495 420.326767" style="stroke:rgb(100.000000%,100.000000%,100.000000%); stroke-width: 1.000000;stroke-linecap: round;stroke-linejoin: round;stroke-miterlimit: 10.000000;fill: none;"></path>
  <path d="M62.891495 420.326767L344.089523 421.909836" style="stroke:rgb(100.000000%,100.000000%,100.000000%); stroke-width: 1.000000;stroke-linecap: round;stroke-linejoin: round;stroke-miterlimit: 10.000000;fill: none;"></path>
  <path d="M440.916260 418.795609L534.628754 420.326767" style="stroke:rgb(100.000000%,100.000000%,100.000000%); stroke-width: 1.000000;stroke-linecap: round;stroke-linejoin: round;stroke-miterlimit: 10.000000;fill: none;"></path>
  <path d="M440.916260 418.795609L62.891495 418.795609" style="stroke:rgb(100.000000%,100.000000%,100.000000%); stroke-width: 1.000000;stroke-linecap: round;stroke-linejoin: round;stroke-miterlimit: 10.000000;fill: none;"></path>
  <path d="M62.891495 420.326767L534.628754 420.326767" style="stroke:rgb(100.000000%,100.000000%,100.000000%); stroke-width: 1.000000;stroke-linecap: round;stroke-linejoin: round;stroke-miterlimit: 10.000000;fill: none;"></path>
  <path d="M534.628754 420.326767L440.916260 418.795609" style="stroke:rgb(100.000000%,100.000000%,100.000000%); stroke-width: 1.000000;stroke-linecap: round;stroke-linejoin: round;stroke-miterlimit: 10.000000;fill: none;"></path>
  <path d="M628.341248 229.839447L628.341248 326.614273" style="stroke:rgb(100.000000%,100.000000%,100.000000%); stroke-width: 1.000000;stroke-linecap: round;stroke-linejoin: round;stroke-miterlimit: 10.000000;fill: none;"></path>
  <path d="M440.916260 134.595795L440.916260 136.126953" style="stroke:rgb(100.000000%,100.000000%,100.000000%); stroke-width: 1.000000;stroke-linecap: round;stroke-linejoin: round;stroke-miterlimit: 10.000000;fill: none;"></path>
  <path d="M440.916260 136.126953L534.628754 136.126953" style="stroke:rgb(100.000000%,100.000000%,100.000000%); stroke-width: 1.000000;stroke-linecap: round;stroke-linejoin: round;stroke-miterlimit: 10.000000;fill: none;"></path>
  <path d="M534.628754 136.126953L536.159912 229.839447" style="stroke:rgb(100.000000%,100.000000%,100.000000%); stroke-width: 1.000000;stroke-linecap: round;stroke-linejoin: round;stroke-miterlimit: 10.000000;fill: none;"></path>
  <path d="M534.628754 136.126953L440.916260 136.126953" style="stroke:rgb(100.000000%,100.000000%,100.000000%); stroke-width: 1.000000;stroke-linecap: round;stroke-linejoin: round;stroke-miterlimit: 10.000000;fill: none;"></path>
  <path d="M440.916260 136.126953L440.916260 229.839447" style="stroke:rgb(100.000000%,100.000000%,100.000000%); stroke-width: 1.000000;stroke-linecap: round;stroke-linejoin: round;stroke-miterlimit: 10.000000;fill: none;"></path>
  <path d="M440.916260 229.839447L536.159912 229.839447" style="stroke:rgb(100.000000%,100.000000%,100.000000%); stroke-width: 1.000000;stroke-linecap: round;stroke-linejoin: round;stroke-miterlimit: 10.000000;fill: none;"></path>
  <path d="M536.159912 229.839447L534.628754 136.126953" style="stroke:rgb(100.000000%,100.000000%,100.000000%); stroke-width: 1.000000;stroke-linecap: round;stroke-linejoin: round;stroke-miterlimit: 10.000000;fill: none;"></path>
  <path d="M628.341248 326.614273L440.916260 328.145432" style="stroke:rgb(100.000000%,100.000000%,100.000000%); stroke-width: 1.000000;stroke-linecap: round;stroke-linejoin: round;stroke-miterlimit: 10.000000;fill: none;"></path>
  <path d="M628.341248 326.614273L628.341248 229.839447" style="stroke:rgb(100.000000%,100.000000%,100.000000%); stroke-width: 1.000000;stroke-linecap: round;stroke-linejoin: round;stroke-miterlimit: 10.000000;fill: none;"></path>
  <path d="M536.159912 229.839447L628.341248 326.614273" style="stroke:rgb(100.000000%,100.000000%,100.000000%); stroke-width: 1.000000;stroke-linecap: round;stroke-linejoin: round;stroke-miterlimit: 10.000000;fill: none;"></path>
  <path d="M536.159912 229.839447L440.916260 229.839447" style="stroke:rgb(100.000000%,100.000000%,100.000000%); stroke-width: 1.000000;stroke-linecap: round;stroke-linejoin: round;stroke-miterlimit: 10.000000;fill: none;"></path>
  <path d="M440.916260 229.839447L440.916260 328.145432" style="stroke:rgb(100.000000%,100.000000%,100.000000%); stroke-width: 1.000000;stroke-linecap: round;stroke-linejoin: round;stroke-miterlimit: 10.000000;fill: none;"></path>
  <path d="M440.916260 328.145432L628.341248 326.614273" style="stroke:rgb(100.000000%,100.000000%,100.000000%); stroke-width: 1.000000;stroke-linecap: round;stroke-linejoin: round;stroke-miterlimit: 10.000000;fill: none;"></path>
  <path d="M628.341248 326.614273L536.159912 229.839447" style="stroke:rgb(100.000000%,100.000000%,100.000000%); stroke-width: 1.000000;stroke-linecap: round;stroke-linejoin: round;stroke-miterlimit: 10.000000;fill: none;"></path>
  <path d="M439.333191 418.795609L440.916260 418.795609" style="stroke:rgb(100.000000%,100.000000%,100.000000%); stroke-width: 1.000000;stroke-linecap: round;stroke-linejoin: round;stroke-miterlimit: 10.000000;fill: none;"></path>
  <path d="M440.916260 328.145432L439.333191 418.795609" style="stroke:rgb(100.000000%,100.000000%,100.000000%); stroke-width: 1.000000;stroke-linecap: round;stroke-linejoin: round;stroke-miterlimit: 10.000000;fill: none;"></path>
  <path d="M439.333191 229.839447L440.916260 134.595795" style="stroke:rgb(100.000000%,100.000000%,100.000000%); stroke-width: 1.000000;stroke-linecap: round;stroke-linejoin: round;stroke-miterlimit: 10.000000;fill: none;"></path>
  <path d="M439.333191 229.839447L439.333191 418.795609" style="stroke:rgb(100.000000%,100.000000%,100.000000%); stroke-width: 1.000000;stroke-linecap: round;stroke-linejoin: round;stroke-miterlimit: 10.000000;fill: none;"></path>
  <path d="M439.333191 418.795609L440.916260 328.145432" style="stroke:rgb(100.000000%,100.000000%,100.000000%); stroke-width: 1.000000;stroke-linecap: round;stroke-linejoin: round;stroke-miterlimit: 10.000000;fill: none;"></path>
  <path d="M440.916260 328.145432L440.916260 134.595795" style="stroke:rgb(100.000000%,100.000000%,100.000000%); stroke-width: 1.000000;stroke-linecap: round;stroke-linejoin: round;stroke-miterlimit: 10.000000;fill: none;"></path>
  <path d="M440.916260 134.595795L439.333191 229.839447" style="stroke:rgb(100.000000%,100.000000%,100.000000%); stroke-width: 1.000000;stroke-linecap: round;stroke-linejoin: round;stroke-miterlimit: 10.000000;fill: none;"></path>
  <path d="M156.655884 229.839447L158.187057 229.839447" style="stroke:rgb(100.000000%,100.000000%,100.000000%); stroke-width: 1.000000;stroke-linecap: round;stroke-linejoin: round;stroke-miterlimit: 10.000000;fill: none;"></path>
  <path d="M158.187057 229.839447L158.187057 136.126953" style="stroke:rgb(100.000000%,100.000000%,100.000000%); stroke-width: 1.000000;stroke-linecap: round;stroke-linejoin: round;stroke-miterlimit: 10.000000;fill: none;"></path>
  <path d="M158.187057 136.126953L250.377029 134.595795" style="stroke:rgb(100.000000%,100.000000%,100.000000%); stroke-width: 1.000000;stroke-linecap: round;stroke-linejoin: round;stroke-miterlimit: 10.000000;fill: none;"></path>
  <path d="M158.187057 136.126953L158.187057 229.839447" style="stroke:rgb(100.000000%,100.000000%,100.000000%); stroke-width: 1.000000;stroke-linecap: round;stroke-linejoin: round;stroke-miterlimit: 10.000000;fill: none;"></path>
  <path d="M158.187057 229.839447L250.377029 229.839447" style="stroke:rgb(100.000000%,100.000000%,100.000000%); stroke-width: 1.000000;stroke-linecap: round;stroke-linejoin: round;stroke-miterlimit: 10.000000;fill: none;"></path>
  <path d="M250.377029 229.839447L250.377029 134.595795" style="stroke:rgb(100.000000%,100.000000%,100.000000%); stroke-width: 1.000000;stroke-linecap: round;stroke-linejoin: round;stroke-miterlimit: 10.000000;fill: none;"></path>
  <path d="M250.377029 134.595795L158.187057 136.126953" style="stroke:rgb(100.000000%,100.000000%,100.000000%); stroke-width: 1.000000;stroke-linecap: round;stroke-linejoin: round;stroke-miterlimit: 10.000000;fill: none;"></path>
  <path d="M250.377029 134.595795L251.908203 42.414459" style="stroke:rgb(100.000000%,100.000000%,100.000000%); stroke-width: 1.000000;stroke-linecap: round;stroke-linejoin: round;stroke-miterlimit: 10.000000;fill: none;"></path>
  <path d="M250.377029 134.595795L250.377029 229.839447" style="stroke:rgb(100.000000%,100.000000%,100.000000%); stroke-width: 1.000000;stroke-linecap: round;stroke-linejoin: round;stroke-miterlimit: 10.000000;fill: none;"></path>
  <path d="M250.377029 229.839447L251.908203 229.839447" style="stroke:rgb(100.000000%,100.000000%,100.000000%); stroke-width: 1.000000;stroke-linecap: round;stroke-linejoin: round;stroke-miterlimit: 10.000000;fill: none;"></path>
  <path d="M251.908203 229.839447L251.908203 42.414459" style="stroke:rgb(100.000000%,100.000000%,100.000000%); stroke-width: 1.000000;stroke-linecap: round;stroke-linejoin: round;stroke-miterlimit: 10.000000;fill: none;"></path>
  <path d="M251.908203 42.414459L250.377029 134.595795" style="stroke:rgb(100.000000%,100.000000%,100.000000%); stroke-width: 1.000000;stroke-linecap: round;stroke-linejoin: round;stroke-miterlimit: 10.000000;fill: none;"></path>
  <path d="M251.908203 42.414459L347.151855 40.883301" style="stroke:rgb(100.000000%,100.000000%,100.000000%); stroke-width: 1.000000;stroke-linecap: round;stroke-linejoin: round;stroke-miterlimit: 10.000000;fill: none;"></path>
  <path d="M251.908203 42.414459L251.908203 229.839447" style="stroke:rgb(100.000000%,100.000000%,100.000000%); stroke-width: 1.000000;stroke-linecap: round;stroke-linejoin: round;stroke-miterlimit: 10.000000;fill: none;"></path>
  <path d="M251.908203 229.839447L347.151855 229.839447" style="stroke:rgb(100.000000%,100.000000%,100.000000%); stroke-width: 1.000000;stroke-linecap: round;stroke-linejoin: round;stroke-miterlimit: 10.000000;fill: none;"></path>
  <path d="M347.151855 40.883301L251.908203 42.414459" style="stroke:rgb(100.000000%,100.000000%,100.000000%); stroke-width: 1.000000;stroke-linecap: round;stroke-linejoin: round;stroke-miterlimit: 10.000000;fill: none;"></path>
  <path d="M439.333191 231.370605L439.333191 229.839447" style="stroke:rgb(100.000000%,100.000000%,100.000000%); stroke-width: 1.000000;stroke-linecap: round;stroke-linejoin: round;stroke-miterlimit: 10.000000;fill: none;"></path>
  <path d="M347.151855 229.839447L439.333191 231.370605" style="stroke:rgb(100.000000%,100.000000%,100.000000%); stroke-width: 1.000000;stroke-linecap: round;stroke-linejoin: round;stroke-miterlimit: 10.000000;fill: none;"></path>
  <path d="M250.377029 231.370605L156.655884 229.839447" style="stroke:rgb(100.000000%,100.000000%,100.000000%); stroke-width: 1.000000;stroke-linecap: round;stroke-linejoin: round;stroke-miterlimit: 10.000000;fill: none;"></path>
  <path d="M250.377029 231.370605L439.333191 231.370605" style="stroke:rgb(100.000000%,100.000000%,100.000000%); stroke-width: 1.000000;stroke-linecap: round;stroke-linejoin: round;stroke-miterlimit: 10.000000;fill: none;"></path>
  <path d="M439.333191 231.370605L347.151855 229.839447" style="stroke:rgb(100.000000%,100.000000%,100.000000%); stroke-width: 1.000000;stroke-linecap: round;stroke-linejoin: round;stroke-miterlimit: 10.000000;fill: none;"></path>
  <path d="M347.151855 229.839447L156.655884 229.839447" style="stroke:rgb(100.000000%,100.000000%,100.000000%); stroke-width: 1.000000;stroke-linecap: round;stroke-linejoin: round;stroke-miterlimit: 10.000000;fill: none;"></path>
  <path d="M156.655884 229.839447L250.377029 231.370605" style="stroke:rgb(100.000000%,100.000000%,100.000000%); stroke-width: 1.000000;stroke-linecap: round;stroke-linejoin: round;stroke-miterlimit: 10.000000;fill: none;"></path>
  <path d="M439.333191 231.370605L250.377029 231.370605" style="stroke:rgb(100.000000%,100.000000%,100.000000%); stroke-width: 1.000000;stroke-linecap: round;stroke-linejoin: round;stroke-miterlimit: 10.000000;fill: none;"></path>
  <path d="M250.377029 325.083099L439.333191 231.370605" style="stroke:rgb(100.000000%,100.000000%,100.000000%); stroke-width: 1.000000;stroke-linecap: round;stroke-linejoin: round;stroke-miterlimit: 10.000000;fill: none;"></path>
  <path d="M250.377029 325.083099L250.377029 418.795609" style="stroke:rgb(100.000000%,100.000000%,100.000000%); stroke-width: 1.000000;stroke-linecap: round;stroke-linejoin: round;stroke-miterlimit: 10.000000;fill: none;"></path>
  <path d="M250.377029 418.795609L439.333191 418.795609" style="stroke:rgb(100.000000%,100.000000%,100.000000%); stroke-width: 1.000000;stroke-linecap: round;stroke-linejoin: round;stroke-miterlimit: 10.000000;fill: none;"></path>
  <path d="M439.333191 418.795609L439.333191 231.370605" style="stroke:rgb(100.000000%,100.000000%,100.000000%); stroke-width: 1.000000;stroke-linecap: round;stroke-linejoin: round;stroke-miterlimit: 10.000000;fill: none;"></path>
  <path d="M439.333191 231.370605L250.377029 325.083099" style="stroke:rgb(100.000000%,100.000000%,100.000000%); stroke-width: 1.000000;stroke-linecap: round;stroke-linejoin: round;stroke-miterlimit: 10.000000;fill: none;"></path>
  <path d="M62.891495 418.795609L250.377029 418.795609" style="stroke:rgb(100.000000%,100.000000%,100.000000%); stroke-width: 1.000000;stroke-linecap: round;stroke-linejoin: round;stroke-miterlimit: 10.000000;fill: none;"></path>
  <path d="M250.377029 418.795609L250.377029 325.083099" style="stroke:rgb(100.000000%,100.000000%,100.000000%); stroke-width: 1.000000;stroke-linecap: round;stroke-linejoin: round;stroke-miterlimit: 10.000000;fill: none;"></path>
  <path d="M156.655884 421.909836L156.655884 515.630981" style="stroke:rgb(0.000000%,0.000000%,0.000000%); stroke-width: 1.000000;stroke-linecap: round;stroke-linejoin: round;stroke-miterlimit: 10.000000;fill: none;"></path>
  <path d="M156.655884 515.630981L253.430710 515.630981" style="stroke:rgb(0.000000%,0.000000%,0.000000%); stroke-width: 1.000000;stroke-linecap: round;stroke-linejoin: round;stroke-miterlimit: 10.000000;fill: none;"></path>
  <path d="M253.430710 515.630981L253.430710 421.909836" style="stroke:rgb(0.000000%,0.000000%,0.000000%); stroke-width: 1.000000;stroke-linecap: round;stroke-linejoin: round;stroke-miterlimit: 10.000000;fill: none;"></path>
  <path d="M345.620697 607.812317L345.620697 609.343475" style="stroke:rgb(0.000000%,0.000000%,0.000000%); stroke-width: 1.000000;stroke-linecap: round;stroke-linejoin: round;stroke-miterlimit: 10.000000;fill: none;"></path>
  <path d="M345.620697 609.343475L440.916260 609.343475" style="stroke:rgb(0.000000%,0.000000%,0.000000%); stroke-width: 1.000000;stroke-linecap: round;stroke-linejoin: round;stroke-miterlimit: 10.000000;fill: none;"></path>
  <path d="M440.916260 609.343475L440.916260 607.812317" style="stroke:rgb(0.000000%,0.000000%,0.000000%); stroke-width: 1.000000;stroke-linecap: round;stroke-linejoin: round;stroke-miterlimit: 10.000000;fill: none;"></path>
  <path d="M534.628754 514.099808L536.159912 514.099808" style="stroke:rgb(0.000000%,0.000000%,0.000000%); stroke-width: 1.000000;stroke-linecap: round;stroke-linejoin: round;stroke-miterlimit: 10.000000;fill: none;"></path>
  <path d="M536.159912 514.099808L536.159912 421.909836" style="stroke:rgb(0.000000%,0.000000%,0.000000%); stroke-width: 1.000000;stroke-linecap: round;stroke-linejoin: round;stroke-miterlimit: 10.000000;fill: none;"></path>
  <path d="M440.916260 515.630981L534.628754 515.630981" style="stroke:rgb(0.000000%,0.000000%,0.000000%); stroke-width: 1.000000;stroke-linecap: round;stroke-linejoin: round;stroke-miterlimit: 10.000000;fill: none;"></path>
  <path d="M534.628754 515.630981L534.628754 514.099808" style="stroke:rgb(0.000000%,0.000000%,0.000000%); stroke-width: 1.000000;stroke-linecap: round;stroke-linejoin: round;stroke-miterlimit: 10.000000;fill: none;"></path>
  <path d="M344.089523 421.909836L344.089523 607.812317" style="stroke:rgb(0.000000%,0.000000%,0.000000%); stroke-width: 1.000000;stroke-linecap: round;stroke-linejoin: round;stroke-miterlimit: 10.000000;fill: none;"></path>
  <path d="M344.089523 607.812317L345.620697 607.812317" style="stroke:rgb(0.000000%,0.000000%,0.000000%); stroke-width: 1.000000;stroke-linecap: round;stroke-linejoin: round;stroke-miterlimit: 10.000000;fill: none;"></path>
  <path d="M440.916260 607.812317L440.916260 515.630981" style="stroke:rgb(0.000000%,0.000000%,0.000000%); stroke-width: 1.000000;stroke-linecap: round;stroke-linejoin: round;stroke-miterlimit: 10.000000;fill: none;"></path>
  <path d="M62.891495 420.326767L62.943390 421.909836" style="stroke:rgb(0.000000%,0.000000%,0.000000%); stroke-width: 1.000000;stroke-linecap: round;stroke-linejoin: round;stroke-miterlimit: 10.000000;fill: none;"></path>
  <path d="M62.943390 421.909836L156.655884 421.909836" style="stroke:rgb(0.000000%,0.000000%,0.000000%); stroke-width: 1.000000;stroke-linecap: round;stroke-linejoin: round;stroke-miterlimit: 10.000000;fill: none;"></path>
  <path d="M536.159912 421.909836L536.159912 420.326767" style="stroke:rgb(0.000000%,0.000000%,0.000000%); stroke-width: 1.000000;stroke-linecap: round;stroke-linejoin: round;stroke-miterlimit: 10.000000;fill: none;"></path>
  <path d="M536.159912 420.326767L534.628754 420.326767" style="stroke:rgb(0.000000%,0.000000%,0.000000%); stroke-width: 1.000000;stroke-linecap: round;stroke-linejoin: round;stroke-miterlimit: 10.000000;fill: none;"></path>
  <path d="M253.430710 421.909836L344.089523 421.909836" style="stroke:rgb(0.000000%,0.000000%,0.000000%); stroke-width: 1.000000;stroke-linecap: round;stroke-linejoin: round;stroke-miterlimit: 10.000000;fill: none;"></path>
  <path d="M534.628754 420.326767L534.628754 418.795609" style="stroke:rgb(0.000000%,0.000000%,0.000000%); stroke-width: 1.000000;stroke-linecap: round;stroke-linejoin: round;stroke-miterlimit: 10.000000;fill: none;"></path>
  <path d="M534.628754 418.795609L440.916260 418.795609" style="stroke:rgb(0.000000%,0.000000%,0.000000%); stroke-width: 1.000000;stroke-linecap: round;stroke-linejoin: round;stroke-miterlimit: 10.000000;fill: none;"></path>
  <path d="M62.891495 418.795609L62.891495 420.326767" style="stroke:rgb(0.000000%,0.000000%,0.000000%); stroke-width: 1.000000;stroke-linecap: round;stroke-linejoin: round;stroke-miterlimit: 10.000000;fill: none;"></path>
  <path d="M628.341248 326.614273L629.872406 326.614273" style="stroke:rgb(0.000000%,0.000000%,0.000000%); stroke-width: 1.000000;stroke-linecap: round;stroke-linejoin: round;stroke-miterlimit: 10.000000;fill: none;"></path>
  <path d="M629.872406 326.614273L629.872406 229.839447" style="stroke:rgb(0.000000%,0.000000%,0.000000%); stroke-width: 1.000000;stroke-linecap: round;stroke-linejoin: round;stroke-miterlimit: 10.000000;fill: none;"></path>
  <path d="M629.872406 229.839447L628.341248 229.839447" style="stroke:rgb(0.000000%,0.000000%,0.000000%); stroke-width: 1.000000;stroke-linecap: round;stroke-linejoin: round;stroke-miterlimit: 10.000000;fill: none;"></path>
  <path d="M534.628754 136.126953L534.628754 134.595795" style="stroke:rgb(0.000000%,0.000000%,0.000000%); stroke-width: 1.000000;stroke-linecap: round;stroke-linejoin: round;stroke-miterlimit: 10.000000;fill: none;"></path>
  <path d="M534.628754 134.595795L440.916260 134.595795" style="stroke:rgb(0.000000%,0.000000%,0.000000%); stroke-width: 1.000000;stroke-linecap: round;stroke-linejoin: round;stroke-miterlimit: 10.000000;fill: none;"></path>
  <path d="M536.159912 229.839447L536.159912 136.126953" style="stroke:rgb(0.000000%,0.000000%,0.000000%); stroke-width: 1.000000;stroke-linecap: round;stroke-linejoin: round;stroke-miterlimit: 10.000000;fill: none;"></path>
  <path d="M536.159912 136.126953L534.628754 136.126953" style="stroke:rgb(0.000000%,0.000000%,0.000000%); stroke-width: 1.000000;stroke-linecap: round;stroke-linejoin: round;stroke-miterlimit: 10.000000;fill: none;"></path>
  <path d="M440.916260 328.145432L628.341248 328.145432" style="stroke:rgb(0.000000%,0.000000%,0.000000%); stroke-width: 1.000000;stroke-linecap: round;stroke-linejoin: round;stroke-miterlimit: 10.000000;fill: none;"></path>
  <path d="M628.341248 328.145432L628.341248 326.614273" style="stroke:rgb(0.000000%,0.000000%,0.000000%); stroke-width: 1.000000;stroke-linecap: round;stroke-linejoin: round;stroke-miterlimit: 10.000000;fill: none;"></path>
  <path d="M628.341248 229.839447L536.159912 229.839447" style="stroke:rgb(0.000000%,0.000000%,0.000000%); stroke-width: 1.000000;stroke-linecap: round;stroke-linejoin: round;stroke-miterlimit: 10.000000;fill: none;"></path>
  <path d="M440.916260 418.795609L440.916260 328.145432" style="stroke:rgb(0.000000%,0.000000%,0.000000%); stroke-width: 1.000000;stroke-linecap: round;stroke-linejoin: round;stroke-miterlimit: 10.000000;fill: none;"></path>
  <path d="M440.916260 134.595795L439.333191 134.595795" style="stroke:rgb(0.000000%,0.000000%,0.000000%); stroke-width: 1.000000;stroke-linecap: round;stroke-linejoin: round;stroke-miterlimit: 10.000000;fill: none;"></path>
  <path d="M439.333191 134.595795L439.333191 229.839447" style="stroke:rgb(0.000000%,0.000000%,0.000000%); stroke-width: 1.000000;stroke-linecap: round;stroke-linejoin: round;stroke-miterlimit: 10.000000;fill: none;"></path>
  <path d="M158.187057 136.126953L156.655884 136.126953" style="stroke:rgb(0.000000%,0.000000%,0.000000%); stroke-width: 1.000000;stroke-linecap: round;stroke-linejoin: round;stroke-miterlimit: 10.000000;fill: none;"></path>
  <path d="M156.655884 136.126953L156.655884 229.839447" style="stroke:rgb(0.000000%,0.000000%,0.000000%); stroke-width: 1.000000;stroke-linecap: round;stroke-linejoin: round;stroke-miterlimit: 10.000000;fill: none;"></path>
  <path d="M250.377029 134.595795L158.187057 134.595795" style="stroke:rgb(0.000000%,0.000000%,0.000000%); stroke-width: 1.000000;stroke-linecap: round;stroke-linejoin: round;stroke-miterlimit: 10.000000;fill: none;"></path>
  <path d="M158.187057 134.595795L158.187057 136.126953" style="stroke:rgb(0.000000%,0.000000%,0.000000%); stroke-width: 1.000000;stroke-linecap: round;stroke-linejoin: round;stroke-miterlimit: 10.000000;fill: none;"></path>
  <path d="M251.908203 42.414459L250.377029 42.414459" style="stroke:rgb(0.000000%,0.000000%,0.000000%); stroke-width: 1.000000;stroke-linecap: round;stroke-linejoin: round;stroke-miterlimit: 10.000000;fill: none;"></path>
  <path d="M250.377029 42.414459L250.377029 134.595795" style="stroke:rgb(0.000000%,0.000000%,0.000000%); stroke-width: 1.000000;stroke-linecap: round;stroke-linejoin: round;stroke-miterlimit: 10.000000;fill: none;"></path>
  <path d="M347.151855 40.883301L251.908203 40.883301" style="stroke:rgb(0.000000%,0.000000%,0.000000%); stroke-width: 1.000000;stroke-linecap: round;stroke-linejoin: round;stroke-miterlimit: 10.000000;fill: none;"></path>
  <path d="M251.908203 40.883301L251.908203 42.414459" style="stroke:rgb(0.000000%,0.000000%,0.000000%); stroke-width: 1.000000;stroke-linecap: round;stroke-linejoin: round;stroke-miterlimit: 10.000000;fill: none;"></path>
  <path d="M347.151855 229.839447L347.151855 40.883301" style="stroke:rgb(0.000000%,0.000000%,0.000000%); stroke-width: 1.000000;stroke-linecap: round;stroke-linejoin: round;stroke-miterlimit: 10.000000;fill: none;"></path>
  <path d="M439.333191 229.839447L347.151855 229.839447" style="stroke:rgb(0.000000%,0.000000%,0.000000%); stroke-width: 1.000000;stroke-linecap: round;stroke-linejoin: round;stroke-miterlimit: 10.000000;fill: none;"></path>
  <path d="M156.655884 229.839447L156.655884 231.370605" style="stroke:rgb(0.000000%,0.000000%,0.000000%); stroke-width: 1.000000;stroke-linecap: round;stroke-linejoin: round;stroke-miterlimit: 10.000000;fill: none;"></path>
  <path d="M156.655884 231.370605L250.377029 231.370605" style="stroke:rgb(0.000000%,0.000000%,0.000000%); stroke-width: 1.000000;stroke-linecap: round;stroke-linejoin: round;stroke-miterlimit: 10.000000;fill: none;"></path>
  <path d="M250.377029 231.370605L250.377029 325.083099" style="stroke:rgb(0.000000%,0.000000%,0.000000%); stroke-width: 1.000000;stroke-linecap: round;stroke-linejoin: round;stroke-miterlimit: 10.000000;fill: none;"></path>
  <path d="M62.943390 325.083099L62.891495 418.795609" style="stroke:rgb(0.000000%,0.000000%,0.000000%); stroke-width: 1.000000;stroke-linecap: round;stroke-linejoin: round;stroke-miterlimit: 10.000000;fill: none;"></path>
  <path d="M250.377029 325.083099L62.943390 325.083099" style="stroke:rgb(0.000000%,0.000000%,0.000000%); stroke-width: 1.000000;stroke-linecap: round;stroke-linejoin: round;stroke-miterlimit: 10.000000;fill: none;"></path>
  <path d="M268.110870 240.574905C268.110870 204.986511,253.971329 170.859985,228.808441 145.697098C203.645554 120.534210,169.519028 106.394669,133.930634 106.394669C98.342239 106.394669,64.215714 120.534210,39.052826 145.697098C13.889938 170.859985,-0.249603 204.986511,-0.249603 240.574905C-0.249603 276.163300,13.889938 310.289825,39.052826 335.452713C64.215714 360.615601,98.342239 374.755142,133.930634 374.755142C169.519028 374.755142,203.645554 360.615601,228.808441 335.452713C253.971329 310.289825,268.110870 276.163300,268.110870 240.574905Z" style="stroke:rgb(25.500488%,41.000366%,88.400269%); stroke-width: 1.000000;stroke-linecap: round;stroke-linejoin: round;stroke-miterlimit: 10.000000;fill: none;"></path>
  <path d="M678.618820 231.491714C678.618820 195.903320,664.479279 161.776794,639.316391 136.613907C614.153503 111.451019,580.026978 97.311478,544.438583 97.311478C508.850189 97.311478,474.723663 111.451019,449.560776 136.613907C424.397888 161.776794,410.258347 195.903320,410.258347 231.491714C410.258347 267.080109,424.397888 301.206635,449.560776 326.369522C474.723663 351.532410,508.850189 365.671951,544.438583 365.671951C580.026978 365.671951,614.153503 351.532410,639.316391 326.369522C664.479279 301.206635,678.618820 267.080109,678.618820 231.491714Z" style="stroke:rgb(25.500488%,41.000366%,88.400269%); stroke-width: 1.000000;stroke-linecap: round;stroke-linejoin: round;stroke-miterlimit: 10.000000;fill: none;"></path>
  <path d="M467.335342 134.180557C467.335342 98.592163,453.195801 64.465637,428.032913 39.302750C402.870026 14.139862,368.743500 0.000320,333.155106 0.000320C297.566711 0.000320,263.440186 14.139862,238.277298 39.302750C213.114410 64.465637,198.974869 98.592163,198.974869 134.180557C198.974869 169.768951,213.114410 203.895477,238.277298 229.058365C263.440186 254.221252,297.566711 268.360794,333.155106 268.360794C368.743500 268.360794,402.870026 254.221252,428.032913 229.058365C453.195801 203.895477,467.335342 169.768951,467.335342 134.180557Z" style="stroke:rgb(25.500488%,41.000366%,88.400269%); stroke-width: 1.000000;stroke-linecap: round;stroke-linejoin: round;stroke-miterlimit: 10.000000;fill: none;"></path>
  <path d="M292.367294 431.096832C292.367294 395.508438,278.227753 361.381912,253.064865 336.219025C227.901978 311.056137,193.775452 296.916595,158.187057 296.916595C122.598663 296.916595,88.472137 311.056137,63.309250 336.219025C38.146362 361.381912,24.006821 395.508438,24.006821 431.096832C24.006821 466.685226,38.146362 500.811752,63.309250 525.974640C88.472137 551.137527,122.598663 565.277069,158.187057 565.277069C193.775452 565.277069,227.901978 551.137527,253.064865 525.974640C278.227753 500.811752,292.367294 466.685226,292.367294 431.096832Z" style="stroke:rgb(25.500488%,41.000366%,88.400269%); stroke-width: 1.000000;stroke-linecap: round;stroke-linejoin: round;stroke-miterlimit: 10.000000;fill: none;"></path>
  <path d="M574.300629 514.065216C574.300629 478.476822,560.161087 444.350296,534.998199 419.187408C509.835312 394.024521,475.708786 379.884979,440.120392 379.884979C404.531998 379.884979,370.405472 394.024521,345.242584 419.187408C320.079697 444.350296,305.940155 478.476822,305.940155 514.065216C305.940155 549.653610,320.079697 583.780136,345.242584 608.943024C370.405472 634.105911,404.531998 648.245453,440.120392 648.245453C475.708786 648.245453,509.835312 634.105911,534.998199 608.943024C560.161087 583.780136,574.300629 549.653610,574.300629 514.065216Z" style="stroke:rgb(25.500488%,41.000366%,88.400269%); stroke-width: 1.000000;stroke-linecap: round;stroke-linejoin: round;stroke-miterlimit: 10.000000;fill: none;"></path>
  <path d="M478.252457 314.096786C478.252457 278.508392,464.112915 244.381866,438.950027 219.218979C413.787140 194.056091,379.660614 179.916550,344.072220 179.916550C308.483826 179.916550,274.357300 194.056091,249.194412 219.218979C224.031525 244.381866,209.891983 278.508392,209.891983 314.096786C209.891983 349.685181,224.031525 383.811707,249.194412 408.974594C274.357300 434.137482,308.483826 448.277023,344.072220 448.277023C379.660614 448.277023,413.787140 434.137482,438.950027 408.974594C464.112915 383.811707,478.252457 349.685181,478.252457 314.096786Z" style="stroke:rgb(25.500488%,41.000366%,88.400269%); stroke-width: 1.000000;stroke-linecap: round;stroke-linejoin: round;stroke-miterlimit: 10.000000;fill: none;"></path>
  <path d="M440.120392 514.065216L345.620697 609.343475" style="stroke:rgb(60.000610%,60.000610%,60.000610%); stroke-width: 1.500000;stroke-linecap: round;stroke-dasharray: 3.000000 3.000000 ;stroke-linejoin: round;stroke-miterlimit: 10.000000;fill: none;"></path>
  <path d="M444.120392 514.065216C444.120392 513.004303,443.698883 511.986969,442.948761 511.236847C442.198639 510.486725,441.181305 510.065216,440.120392 510.065216C439.059479 510.065216,438.042145 510.486725,437.292023 511.236847C436.541901 511.986969,436.120392 513.004303,436.120392 514.065216C436.120392 515.126129,436.541901 516.143463,437.292023 516.893585C438.042145 517.643707,439.059479 518.065216,440.120392 518.065216C441.181305 518.065216,442.198639 517.643707,442.948761 516.893585C443.698883 516.143463,444.120392 515.126129,444.120392 514.065216Z" style="stroke:rgb(39.999390%,39.999390%,39.999390%); stroke-width: 0.500000;stroke-linecap: round;stroke-linejoin: round;stroke-miterlimit: 10.000000;fill: none;"></path>
  <path d="M444.120392 514.065216C444.120392 513.004303,443.698883 511.986969,442.948761 511.236847C442.198639 510.486725,441.181305 510.065216,440.120392 510.065216C439.059479 510.065216,438.042145 510.486725,437.292023 511.236847C436.541901 511.986969,436.120392 513.004303,436.120392 514.065216C436.120392 515.126129,436.541901 516.143463,437.292023 516.893585C438.042145 517.643707,439.059479 518.065216,440.120392 518.065216C441.181305 518.065216,442.198639 517.643707,442.948761 516.893585C443.698883 516.143463,444.120392 515.126129,444.120392 514.065216Z" style="fill: rgb(89.999390%,0.000000%,0.000000%);stroke: none;"></path>
  <path d="M349.620697 609.343475C349.620697 608.282562,349.199188 607.265228,348.449066 606.515106C347.698944 605.764984,346.681610 605.343475,345.620697 605.343475C344.559784 605.343475,343.542450 605.764984,342.792328 606.515106C342.042206 607.265228,341.620697 608.282562,341.620697 609.343475C341.620697 610.404388,342.042206 611.421722,342.792328 612.171844C343.542450 612.921967,344.559784 613.343475,345.620697 613.343475C346.681610 613.343475,347.698944 612.921967,348.449066 612.171844C349.199188 611.421722,349.620697 610.404388,349.620697 609.343475Z" style="stroke:rgb(39.999390%,39.999390%,39.999390%); stroke-width: 0.500000;stroke-linecap: round;stroke-linejoin: round;stroke-miterlimit: 10.000000;fill: none;"></path>
  <path d="M349.620697 609.343475C349.620697 608.282562,349.199188 607.265228,348.449066 606.515106C347.698944 605.764984,346.681610 605.343475,345.620697 605.343475C344.559784 605.343475,343.542450 605.764984,342.792328 606.515106C342.042206 607.265228,341.620697 608.282562,341.620697 609.343475C341.620697 610.404388,342.042206 611.421722,342.792328 612.171844C343.542450 612.921967,344.559784 613.343475,345.620697 613.343475C346.681610 613.343475,347.698944 612.921967,348.449066 612.171844C349.199188 611.421722,349.620697 610.404388,349.620697 609.343475Z" style="fill: rgb(100.000000%,100.000000%,0.000000%);stroke: none;"></path>
  <path d="M440.120392 514.065216L344.089523 607.812317" style="stroke:rgb(60.000610%,60.000610%,60.000610%); stroke-width: 1.500000;stroke-linecap: round;stroke-dasharray: 3.000000 3.000000 ;stroke-linejoin: round;stroke-miterlimit: 10.000000;fill: none;"></path>
  <path d="M444.120392 514.065216C444.120392 513.004303,443.698883 511.986969,442.948761 511.236847C442.198639 510.486725,441.181305 510.065216,440.120392 510.065216C439.059479 510.065216,438.042145 510.486725,437.292023 511.236847C436.541901 511.986969,436.120392 513.004303,436.120392 514.065216C436.120392 515.126129,436.541901 516.143463,437.292023 516.893585C438.042145 517.643707,439.059479 518.065216,440.120392 518.065216C441.181305 518.065216,442.198639 517.643707,442.948761 516.893585C443.698883 516.143463,444.120392 515.126129,444.120392 514.065216Z" style="stroke:rgb(39.999390%,39.999390%,39.999390%); stroke-width: 0.500000;stroke-linecap: round;stroke-linejoin: round;stroke-miterlimit: 10.000000;fill: none;"></path>
  <path d="M444.120392 514.065216C444.120392 513.004303,443.698883 511.986969,442.948761 511.236847C442.198639 510.486725,441.181305 510.065216,440.120392 510.065216C439.059479 510.065216,438.042145 510.486725,437.292023 511.236847C436.541901 511.986969,436.120392 513.004303,436.120392 514.065216C436.120392 515.126129,436.541901 516.143463,437.292023 516.893585C438.042145 517.643707,439.059479 518.065216,440.120392 518.065216C441.181305 518.065216,442.198639 517.643707,442.948761 516.893585C443.698883 516.143463,444.120392 515.126129,444.120392 514.065216Z" style="fill: rgb(89.999390%,0.000000%,0.000000%);stroke: none;"></path>
  <path d="M348.089523 607.812317C348.089523 606.751404,347.668015 605.734070,346.917892 604.983948C346.167770 604.233826,345.150436 603.812317,344.089523 603.812317C343.028610 603.812317,342.011276 604.233826,341.261154 604.983948C340.511032 605.734070,340.089523 606.751404,340.089523 607.812317C340.089523 608.873230,340.511032 609.890564,341.261154 610.640686C342.011276 611.390808,343.028610 611.812317,344.089523 611.812317C345.150436 611.812317,346.167770 611.390808,346.917892 610.640686C347.668015 609.890564,348.089523 608.873230,348.089523 607.812317Z" style="stroke:rgb(39.999390%,39.999390%,39.999390%); stroke-width: 0.500000;stroke-linecap: round;stroke-linejoin: round;stroke-miterlimit: 10.000000;fill: none;"></path>
  <path d="M348.089523 607.812317C348.089523 606.751404,347.668015 605.734070,346.917892 604.983948C346.167770 604.233826,345.150436 603.812317,344.089523 603.812317C343.028610 603.812317,342.011276 604.233826,341.261154 604.983948C340.511032 605.734070,340.089523 606.751404,340.089523 607.812317C340.089523 608.873230,340.511032 609.890564,341.261154 610.640686C342.011276 611.390808,343.028610 611.812317,344.089523 611.812317C345.150436 611.812317,346.167770 611.390808,346.917892 610.640686C347.668015 609.890564,348.089523 608.873230,348.089523 607.812317Z" style="fill: rgb(100.000000%,100.000000%,0.000000%);stroke: none;"></path>
  <path d="M440.120392 514.065216L536.159912 420.326767" style="stroke:rgb(60.000610%,60.000610%,60.000610%); stroke-width: 1.500000;stroke-linecap: round;stroke-dasharray: 3.000000 3.000000 ;stroke-linejoin: round;stroke-miterlimit: 10.000000;fill: none;"></path>
  <path d="M444.120392 514.065216C444.120392 513.004303,443.698883 511.986969,442.948761 511.236847C442.198639 510.486725,441.181305 510.065216,440.120392 510.065216C439.059479 510.065216,438.042145 510.486725,437.292023 511.236847C436.541901 511.986969,436.120392 513.004303,436.120392 514.065216C436.120392 515.126129,436.541901 516.143463,437.292023 516.893585C438.042145 517.643707,439.059479 518.065216,440.120392 518.065216C441.181305 518.065216,442.198639 517.643707,442.948761 516.893585C443.698883 516.143463,444.120392 515.126129,444.120392 514.065216Z" style="stroke:rgb(39.999390%,39.999390%,39.999390%); stroke-width: 0.500000;stroke-linecap: round;stroke-linejoin: round;stroke-miterlimit: 10.000000;fill: none;"></path>
  <path d="M444.120392 514.065216C444.120392 513.004303,443.698883 511.986969,442.948761 511.236847C442.198639 510.486725,441.181305 510.065216,440.120392 510.065216C439.059479 510.065216,438.042145 510.486725,437.292023 511.236847C436.541901 511.986969,436.120392 513.004303,436.120392 514.065216C436.120392 515.126129,436.541901 516.143463,437.292023 516.893585C438.042145 517.643707,439.059479 518.065216,440.120392 518.065216C441.181305 518.065216,442.198639 517.643707,442.948761 516.893585C443.698883 516.143463,444.120392 515.126129,444.120392 514.065216Z" style="fill: rgb(89.999390%,0.000000%,0.000000%);stroke: none;"></path>
  <path d="M540.159912 420.326767C540.159912 419.265854,539.738403 418.248520,538.988281 417.498398C538.238159 416.748276,537.220825 416.326767,536.159912 416.326767C535.098999 416.326767,534.081665 416.748276,533.331543 417.498398C532.581421 418.248520,532.159912 419.265854,532.159912 420.326767C532.159912 421.387680,532.581421 422.405014,533.331543 423.155136C534.081665 423.905258,535.098999 424.326767,536.159912 424.326767C537.220825 424.326767,538.238159 423.905258,538.988281 423.155136C539.738403 422.405014,540.159912 421.387680,540.159912 420.326767Z" style="stroke:rgb(39.999390%,39.999390%,39.999390%); stroke-width: 0.500000;stroke-linecap: round;stroke-linejoin: round;stroke-miterlimit: 10.000000;fill: none;"></path>
  <path d="M540.159912 420.326767C540.159912 419.265854,539.738403 418.248520,538.988281 417.498398C538.238159 416.748276,537.220825 416.326767,536.159912 416.326767C535.098999 416.326767,534.081665 416.748276,533.331543 417.498398C532.581421 418.248520,532.159912 419.265854,532.159912 420.326767C532.159912 421.387680,532.581421 422.405014,533.331543 423.155136C534.081665 423.905258,535.098999 424.326767,536.159912 424.326767C537.220825 424.326767,538.238159 423.905258,538.988281 423.155136C539.738403 422.405014,540.159912 421.387680,540.159912 420.326767Z" style="fill: rgb(100.000000%,100.000000%,0.000000%);stroke: none;"></path>
  <path d="M440.120392 514.065216L534.628754 418.795609" style="stroke:rgb(60.000610%,60.000610%,60.000610%); stroke-width: 1.500000;stroke-linecap: round;stroke-dasharray: 3.000000 3.000000 ;stroke-linejoin: round;stroke-miterlimit: 10.000000;fill: none;"></path>
  <path d="M444.120392 514.065216C444.120392 513.004303,443.698883 511.986969,442.948761 511.236847C442.198639 510.486725,441.181305 510.065216,440.120392 510.065216C439.059479 510.065216,438.042145 510.486725,437.292023 511.236847C436.541901 511.986969,436.120392 513.004303,436.120392 514.065216C436.120392 515.126129,436.541901 516.143463,437.292023 516.893585C438.042145 517.643707,439.059479 518.065216,440.120392 518.065216C441.181305 518.065216,442.198639 517.643707,442.948761 516.893585C443.698883 516.143463,444.120392 515.126129,444.120392 514.065216Z" style="stroke:rgb(39.999390%,39.999390%,39.999390%); stroke-width: 0.500000;stroke-linecap: round;stroke-linejoin: round;stroke-miterlimit: 10.000000;fill: none;"></path>
  <path d="M444.120392 514.065216C444.120392 513.004303,443.698883 511.986969,442.948761 511.236847C442.198639 510.486725,441.181305 510.065216,440.120392 510.065216C439.059479 510.065216,438.042145 510.486725,437.292023 511.236847C436.541901 511.986969,436.120392 513.004303,436.120392 514.065216C436.120392 515.126129,436.541901 516.143463,437.292023 516.893585C438.042145 517.643707,439.059479 518.065216,440.120392 518.065216C441.181305 518.065216,442.198639 517.643707,442.948761 516.893585C443.698883 516.143463,444.120392 515.126129,444.120392 514.065216Z" style="fill: rgb(89.999390%,0.000000%,0.000000%);stroke: none;"></path>
  <path d="M538.628754 418.795609C538.628754 417.734695,538.207245 416.717361,537.457123 415.967239C536.707001 415.217117,535.689667 414.795609,534.628754 414.795609C533.567841 414.795609,532.550507 415.217117,531.800385 415.967239C531.050262 416.717361,530.628754 417.734695,530.628754 418.795609C530.628754 419.856522,531.050262 420.873856,531.800385 421.623978C532.550507 422.374100,533.567841 422.795609,534.628754 422.795609C535.689667 422.795609,536.707001 422.374100,537.457123 421.623978C538.207245 420.873856,538.628754 419.856522,538.628754 418.795609Z" style="stroke:rgb(39.999390%,39.999390%,39.999390%); stroke-width: 0.500000;stroke-linecap: round;stroke-linejoin: round;stroke-miterlimit: 10.000000;fill: none;"></path>
  <path d="M538.628754 418.795609C538.628754 417.734695,538.207245 416.717361,537.457123 415.967239C536.707001 415.217117,535.689667 414.795609,534.628754 414.795609C533.567841 414.795609,532.550507 415.217117,531.800385 415.967239C531.050262 416.717361,530.628754 417.734695,530.628754 418.795609C530.628754 419.856522,531.050262 420.873856,531.800385 421.623978C532.550507 422.374100,533.567841 422.795609,534.628754 422.795609C535.689667 422.795609,536.707001 422.374100,537.457123 421.623978C538.207245 420.873856,538.628754 419.856522,538.628754 418.795609Z" style="fill: rgb(100.000000%,100.000000%,0.000000%);stroke: none;"></path>
</svg>
