<?xml version="1.0"?>
<!-- Created by MetaPost 2.00 on 2025.04.10:1953 -->
<svg version="1.1" xmlns="http://www.w3.org/2000/svg" xmlns:xlink="http://www.w3.org/1999/xlink" width="584.538269" height="585.654205" viewBox="0 0 584.538269 585.654205">
<!-- Original BoundingBox: -318.610367 -296.914536 265.927902 288.739670 -->
  <path d="M101.655884 388.909836L101.655884 482.630981L198.430710 482.630981L198.430710 388.909836L101.655884 388.909836Z" style="fill: rgb(100.000000%,100.000000%,100.000000%);stroke: none;"></path>
  <path d="M290.620697 574.812317L290.620697 576.343475L385.916260 576.343475L385.916260 574.812317L290.620697 574.812317Z" style="fill: rgb(100.000000%,100.000000%,100.000000%);stroke: none;"></path>
  <path d="M479.628754 481.099808L481.159912 481.099808L481.159912 388.909836L479.628754 388.909836L479.628754 481.099808Z" style="fill: rgb(100.000000%,100.000000%,100.000000%);stroke: none;"></path>
  <path d="M385.916260 482.630981L479.628754 482.630981L479.628754 481.099808L385.916260 482.630981Z" style="fill: rgb(100.000000%,100.000000%,100.000000%);stroke: none;"></path>
  <path d="M479.628754 481.099808L479.628754 388.909836L385.916260 388.909836L385.916260 482.630981L479.628754 481.099808Z" style="fill: rgb(100.000000%,100.000000%,100.000000%);stroke: none;"></path>
  <path d="M289.089523 388.909836L289.089523 574.812317L290.620697 574.812317L289.089523 388.909836Z" style="fill: rgb(100.000000%,100.000000%,100.000000%);stroke: none;"></path>
  <path d="M290.620697 574.812317L385.916260 574.812317L385.916260 482.630981L290.620697 574.812317Z" style="fill: rgb(100.000000%,100.000000%,100.000000%);stroke: none;"></path>
  <path d="M385.916260 482.630981L385.916260 388.909836L289.089523 388.909836L290.620697 574.812317L385.916260 482.630981Z" style="fill: rgb(100.000000%,100.000000%,100.000000%);stroke: none;"></path>
  <path d="M7.891495 387.326767L7.943390 388.909836L101.655884 388.909836L7.891495 387.326767Z" style="fill: rgb(100.000000%,100.000000%,100.000000%);stroke: none;"></path>
  <path d="M481.159912 388.909836L481.159912 387.326767L479.628754 387.326767L481.159912 388.909836Z" style="fill: rgb(100.000000%,100.000000%,100.000000%);stroke: none;"></path>
  <path d="M7.891495 387.326767L101.655884 388.909836L198.430710 388.909836L7.891495 387.326767Z" style="fill: rgb(100.000000%,100.000000%,100.000000%);stroke: none;"></path>
  <path d="M7.891495 387.326767L198.430710 388.909836L289.089523 388.909836L7.891495 387.326767Z" style="fill: rgb(100.000000%,100.000000%,100.000000%);stroke: none;"></path>
  <path d="M289.089523 388.909836L481.159912 388.909836L479.628754 387.326767L7.891495 387.326767L289.089523 388.909836Z" style="fill: rgb(100.000000%,100.000000%,100.000000%);stroke: none;"></path>
  <path d="M479.628754 387.326767L479.628754 385.795609L385.916260 385.795609L479.628754 387.326767Z" style="fill: rgb(100.000000%,100.000000%,100.000000%);stroke: none;"></path>
  <path d="M385.916260 385.795609L7.891495 385.795609L7.891495 387.326767L479.628754 387.326767L385.916260 385.795609Z" style="fill: rgb(100.000000%,100.000000%,100.000000%);stroke: none;"></path>
  <path d="M573.341248 293.614273L574.872406 293.614273L574.872406 196.839447L573.341248 196.839447L573.341248 293.614273Z" style="fill: rgb(100.000000%,100.000000%,100.000000%);stroke: none;"></path>
  <path d="M479.628754 103.126953L479.628754 101.595795L385.916260 101.595795L385.916260 103.126953L479.628754 103.126953Z" style="fill: rgb(100.000000%,100.000000%,100.000000%);stroke: none;"></path>
  <path d="M481.159912 196.839447L481.159912 103.126953L479.628754 103.126953L481.159912 196.839447Z" style="fill: rgb(100.000000%,100.000000%,100.000000%);stroke: none;"></path>
  <path d="M479.628754 103.126953L385.916260 103.126953L385.916260 196.839447L481.159912 196.839447L479.628754 103.126953Z" style="fill: rgb(100.000000%,100.000000%,100.000000%);stroke: none;"></path>
  <path d="M385.916260 295.145432L573.341248 295.145432L573.341248 293.614273L385.916260 295.145432Z" style="fill: rgb(100.000000%,100.000000%,100.000000%);stroke: none;"></path>
  <path d="M573.341248 293.614273L573.341248 196.839447L481.159912 196.839447L573.341248 293.614273Z" style="fill: rgb(100.000000%,100.000000%,100.000000%);stroke: none;"></path>
  <path d="M481.159912 196.839447L385.916260 196.839447L385.916260 295.145432L573.341248 293.614273L481.159912 196.839447Z" style="fill: rgb(100.000000%,100.000000%,100.000000%);stroke: none;"></path>
  <path d="M384.333191 385.795609L385.916260 385.795609L385.916260 295.145432L384.333191 385.795609Z" style="fill: rgb(100.000000%,100.000000%,100.000000%);stroke: none;"></path>
  <path d="M385.916260 101.595795L384.333191 101.595795L384.333191 196.839447L385.916260 101.595795Z" style="fill: rgb(100.000000%,100.000000%,100.000000%);stroke: none;"></path>
  <path d="M384.333191 196.839447L384.333191 385.795609L385.916260 295.145432L385.916260 101.595795L384.333191 196.839447Z" style="fill: rgb(100.000000%,100.000000%,100.000000%);stroke: none;"></path>
  <path d="M103.187057 103.126953L101.655884 103.126953L101.655884 196.839447L103.187057 196.839447L103.187057 103.126953Z" style="fill: rgb(100.000000%,100.000000%,100.000000%);stroke: none;"></path>
  <path d="M195.377029 101.595795L103.187057 101.595795L103.187057 103.126953L195.377029 101.595795Z" style="fill: rgb(100.000000%,100.000000%,100.000000%);stroke: none;"></path>
  <path d="M103.187057 103.126953L103.187057 196.839447L195.377029 196.839447L195.377029 101.595795L103.187057 103.126953Z" style="fill: rgb(100.000000%,100.000000%,100.000000%);stroke: none;"></path>
  <path d="M196.908203 9.414459L195.377029 9.414459L195.377029 101.595795L196.908203 9.414459Z" style="fill: rgb(100.000000%,100.000000%,100.000000%);stroke: none;"></path>
  <path d="M195.377029 101.595795L195.377029 196.839447L196.908203 196.839447L196.908203 9.414459L195.377029 101.595795Z" style="fill: rgb(100.000000%,100.000000%,100.000000%);stroke: none;"></path>
  <path d="M292.151855 7.883301L196.908203 7.883301L196.908203 9.414459L292.151855 7.883301Z" style="fill: rgb(100.000000%,100.000000%,100.000000%);stroke: none;"></path>
  <path d="M196.908203 9.414459L196.908203 196.839447L292.151855 196.839447L292.151855 7.883301L196.908203 9.414459Z" style="fill: rgb(100.000000%,100.000000%,100.000000%);stroke: none;"></path>
  <path d="M384.333191 198.370605L384.333191 196.839447L292.151855 196.839447L384.333191 198.370605Z" style="fill: rgb(100.000000%,100.000000%,100.000000%);stroke: none;"></path>
  <path d="M101.655884 196.839447L101.655884 198.370605L195.377029 198.370605L101.655884 196.839447Z" style="fill: rgb(100.000000%,100.000000%,100.000000%);stroke: none;"></path>
  <path d="M195.377029 198.370605L384.333191 198.370605L292.151855 196.839447L101.655884 196.839447L195.377029 198.370605Z" style="fill: rgb(100.000000%,100.000000%,100.000000%);stroke: none;"></path>
  <path d="M384.333191 198.370605L195.377029 198.370605L195.377029 292.083099L384.333191 198.370605Z" style="fill: rgb(100.000000%,100.000000%,100.000000%);stroke: none;"></path>
  <path d="M195.377029 292.083099L195.377029 385.795609L384.333191 385.795609L384.333191 198.370605L195.377029 292.083099Z" style="fill: rgb(100.000000%,100.000000%,100.000000%);stroke: none;"></path>
  <path d="M7.943390 292.083099L7.891495 385.795609L195.377029 385.795609L195.377029 292.083099L7.943390 292.083099Z" style="fill: rgb(100.000000%,100.000000%,100.000000%);stroke: none;"></path>
  <path d="M198.430710 388.909836L101.655884 388.909836" style="stroke:rgb(100.000000%,100.000000%,100.000000%); stroke-width: 1.000000;stroke-linecap: round;stroke-linejoin: round;stroke-miterlimit: 10.000000;fill: none;"></path>
  <path d="M385.916260 574.812317L290.620697 574.812317" style="stroke:rgb(100.000000%,100.000000%,100.000000%); stroke-width: 1.000000;stroke-linecap: round;stroke-linejoin: round;stroke-miterlimit: 10.000000;fill: none;"></path>
  <path d="M481.159912 388.909836L479.628754 388.909836" style="stroke:rgb(100.000000%,100.000000%,100.000000%); stroke-width: 1.000000;stroke-linecap: round;stroke-linejoin: round;stroke-miterlimit: 10.000000;fill: none;"></path>
  <path d="M479.628754 388.909836L479.628754 481.099808" style="stroke:rgb(100.000000%,100.000000%,100.000000%); stroke-width: 1.000000;stroke-linecap: round;stroke-linejoin: round;stroke-miterlimit: 10.000000;fill: none;"></path>
  <path d="M479.628754 481.099808L385.916260 482.630981" style="stroke:rgb(100.000000%,100.000000%,100.000000%); stroke-width: 1.000000;stroke-linecap: round;stroke-linejoin: round;stroke-miterlimit: 10.000000;fill: none;"></path>
  <path d="M479.628754 481.099808L479.628754 388.909836" style="stroke:rgb(100.000000%,100.000000%,100.000000%); stroke-width: 1.000000;stroke-linecap: round;stroke-linejoin: round;stroke-miterlimit: 10.000000;fill: none;"></path>
  <path d="M479.628754 388.909836L385.916260 388.909836" style="stroke:rgb(100.000000%,100.000000%,100.000000%); stroke-width: 1.000000;stroke-linecap: round;stroke-linejoin: round;stroke-miterlimit: 10.000000;fill: none;"></path>
  <path d="M385.916260 388.909836L385.916260 482.630981" style="stroke:rgb(100.000000%,100.000000%,100.000000%); stroke-width: 1.000000;stroke-linecap: round;stroke-linejoin: round;stroke-miterlimit: 10.000000;fill: none;"></path>
  <path d="M385.916260 482.630981L479.628754 481.099808" style="stroke:rgb(100.000000%,100.000000%,100.000000%); stroke-width: 1.000000;stroke-linecap: round;stroke-linejoin: round;stroke-miterlimit: 10.000000;fill: none;"></path>
  <path d="M290.620697 574.812317L289.089523 388.909836" style="stroke:rgb(100.000000%,100.000000%,100.000000%); stroke-width: 1.000000;stroke-linecap: round;stroke-linejoin: round;stroke-miterlimit: 10.000000;fill: none;"></path>
  <path d="M290.620697 574.812317L385.916260 574.812317" style="stroke:rgb(100.000000%,100.000000%,100.000000%); stroke-width: 1.000000;stroke-linecap: round;stroke-linejoin: round;stroke-miterlimit: 10.000000;fill: none;"></path>
  <path d="M385.916260 482.630981L290.620697 574.812317" style="stroke:rgb(100.000000%,100.000000%,100.000000%); stroke-width: 1.000000;stroke-linecap: round;stroke-linejoin: round;stroke-miterlimit: 10.000000;fill: none;"></path>
  <path d="M385.916260 482.630981L385.916260 388.909836" style="stroke:rgb(100.000000%,100.000000%,100.000000%); stroke-width: 1.000000;stroke-linecap: round;stroke-linejoin: round;stroke-miterlimit: 10.000000;fill: none;"></path>
  <path d="M385.916260 388.909836L289.089523 388.909836" style="stroke:rgb(100.000000%,100.000000%,100.000000%); stroke-width: 1.000000;stroke-linecap: round;stroke-linejoin: round;stroke-miterlimit: 10.000000;fill: none;"></path>
  <path d="M289.089523 388.909836L290.620697 574.812317" style="stroke:rgb(100.000000%,100.000000%,100.000000%); stroke-width: 1.000000;stroke-linecap: round;stroke-linejoin: round;stroke-miterlimit: 10.000000;fill: none;"></path>
  <path d="M290.620697 574.812317L385.916260 482.630981" style="stroke:rgb(100.000000%,100.000000%,100.000000%); stroke-width: 1.000000;stroke-linecap: round;stroke-linejoin: round;stroke-miterlimit: 10.000000;fill: none;"></path>
  <path d="M101.655884 388.909836L7.891495 387.326767" style="stroke:rgb(100.000000%,100.000000%,100.000000%); stroke-width: 1.000000;stroke-linecap: round;stroke-linejoin: round;stroke-miterlimit: 10.000000;fill: none;"></path>
  <path d="M479.628754 387.326767L481.159912 388.909836" style="stroke:rgb(100.000000%,100.000000%,100.000000%); stroke-width: 1.000000;stroke-linecap: round;stroke-linejoin: round;stroke-miterlimit: 10.000000;fill: none;"></path>
  <path d="M7.891495 387.326767L101.655884 388.909836" style="stroke:rgb(100.000000%,100.000000%,100.000000%); stroke-width: 1.000000;stroke-linecap: round;stroke-linejoin: round;stroke-miterlimit: 10.000000;fill: none;"></path>
  <path d="M101.655884 388.909836L198.430710 388.909836" style="stroke:rgb(100.000000%,100.000000%,100.000000%); stroke-width: 1.000000;stroke-linecap: round;stroke-linejoin: round;stroke-miterlimit: 10.000000;fill: none;"></path>
  <path d="M198.430710 388.909836L7.891495 387.326767" style="stroke:rgb(100.000000%,100.000000%,100.000000%); stroke-width: 1.000000;stroke-linecap: round;stroke-linejoin: round;stroke-miterlimit: 10.000000;fill: none;"></path>
  <path d="M7.891495 387.326767L198.430710 388.909836" style="stroke:rgb(100.000000%,100.000000%,100.000000%); stroke-width: 1.000000;stroke-linecap: round;stroke-linejoin: round;stroke-miterlimit: 10.000000;fill: none;"></path>
  <path d="M289.089523 388.909836L7.891495 387.326767" style="stroke:rgb(100.000000%,100.000000%,100.000000%); stroke-width: 1.000000;stroke-linecap: round;stroke-linejoin: round;stroke-miterlimit: 10.000000;fill: none;"></path>
  <path d="M289.089523 388.909836L481.159912 388.909836" style="stroke:rgb(100.000000%,100.000000%,100.000000%); stroke-width: 1.000000;stroke-linecap: round;stroke-linejoin: round;stroke-miterlimit: 10.000000;fill: none;"></path>
  <path d="M481.159912 388.909836L479.628754 387.326767" style="stroke:rgb(100.000000%,100.000000%,100.000000%); stroke-width: 1.000000;stroke-linecap: round;stroke-linejoin: round;stroke-miterlimit: 10.000000;fill: none;"></path>
  <path d="M479.628754 387.326767L7.891495 387.326767" style="stroke:rgb(100.000000%,100.000000%,100.000000%); stroke-width: 1.000000;stroke-linecap: round;stroke-linejoin: round;stroke-miterlimit: 10.000000;fill: none;"></path>
  <path d="M7.891495 387.326767L289.089523 388.909836" style="stroke:rgb(100.000000%,100.000000%,100.000000%); stroke-width: 1.000000;stroke-linecap: round;stroke-linejoin: round;stroke-miterlimit: 10.000000;fill: none;"></path>
  <path d="M385.916260 385.795609L479.628754 387.326767" style="stroke:rgb(100.000000%,100.000000%,100.000000%); stroke-width: 1.000000;stroke-linecap: round;stroke-linejoin: round;stroke-miterlimit: 10.000000;fill: none;"></path>
  <path d="M385.916260 385.795609L7.891495 385.795609" style="stroke:rgb(100.000000%,100.000000%,100.000000%); stroke-width: 1.000000;stroke-linecap: round;stroke-linejoin: round;stroke-miterlimit: 10.000000;fill: none;"></path>
  <path d="M7.891495 387.326767L479.628754 387.326767" style="stroke:rgb(100.000000%,100.000000%,100.000000%); stroke-width: 1.000000;stroke-linecap: round;stroke-linejoin: round;stroke-miterlimit: 10.000000;fill: none;"></path>
  <path d="M479.628754 387.326767L385.916260 385.795609" style="stroke:rgb(100.000000%,100.000000%,100.000000%); stroke-width: 1.000000;stroke-linecap: round;stroke-linejoin: round;stroke-miterlimit: 10.000000;fill: none;"></path>
  <path d="M573.341248 196.839447L573.341248 293.614273" style="stroke:rgb(100.000000%,100.000000%,100.000000%); stroke-width: 1.000000;stroke-linecap: round;stroke-linejoin: round;stroke-miterlimit: 10.000000;fill: none;"></path>
  <path d="M385.916260 101.595795L385.916260 103.126953" style="stroke:rgb(100.000000%,100.000000%,100.000000%); stroke-width: 1.000000;stroke-linecap: round;stroke-linejoin: round;stroke-miterlimit: 10.000000;fill: none;"></path>
  <path d="M385.916260 103.126953L479.628754 103.126953" style="stroke:rgb(100.000000%,100.000000%,100.000000%); stroke-width: 1.000000;stroke-linecap: round;stroke-linejoin: round;stroke-miterlimit: 10.000000;fill: none;"></path>
  <path d="M479.628754 103.126953L481.159912 196.839447" style="stroke:rgb(100.000000%,100.000000%,100.000000%); stroke-width: 1.000000;stroke-linecap: round;stroke-linejoin: round;stroke-miterlimit: 10.000000;fill: none;"></path>
  <path d="M479.628754 103.126953L385.916260 103.126953" style="stroke:rgb(100.000000%,100.000000%,100.000000%); stroke-width: 1.000000;stroke-linecap: round;stroke-linejoin: round;stroke-miterlimit: 10.000000;fill: none;"></path>
  <path d="M385.916260 103.126953L385.916260 196.839447" style="stroke:rgb(100.000000%,100.000000%,100.000000%); stroke-width: 1.000000;stroke-linecap: round;stroke-linejoin: round;stroke-miterlimit: 10.000000;fill: none;"></path>
  <path d="M385.916260 196.839447L481.159912 196.839447" style="stroke:rgb(100.000000%,100.000000%,100.000000%); stroke-width: 1.000000;stroke-linecap: round;stroke-linejoin: round;stroke-miterlimit: 10.000000;fill: none;"></path>
  <path d="M481.159912 196.839447L479.628754 103.126953" style="stroke:rgb(100.000000%,100.000000%,100.000000%); stroke-width: 1.000000;stroke-linecap: round;stroke-linejoin: round;stroke-miterlimit: 10.000000;fill: none;"></path>
  <path d="M573.341248 293.614273L385.916260 295.145432" style="stroke:rgb(100.000000%,100.000000%,100.000000%); stroke-width: 1.000000;stroke-linecap: round;stroke-linejoin: round;stroke-miterlimit: 10.000000;fill: none;"></path>
  <path d="M573.341248 293.614273L573.341248 196.839447" style="stroke:rgb(100.000000%,100.000000%,100.000000%); stroke-width: 1.000000;stroke-linecap: round;stroke-linejoin: round;stroke-miterlimit: 10.000000;fill: none;"></path>
  <path d="M481.159912 196.839447L573.341248 293.614273" style="stroke:rgb(100.000000%,100.000000%,100.000000%); stroke-width: 1.000000;stroke-linecap: round;stroke-linejoin: round;stroke-miterlimit: 10.000000;fill: none;"></path>
  <path d="M481.159912 196.839447L385.916260 196.839447" style="stroke:rgb(100.000000%,100.000000%,100.000000%); stroke-width: 1.000000;stroke-linecap: round;stroke-linejoin: round;stroke-miterlimit: 10.000000;fill: none;"></path>
  <path d="M385.916260 196.839447L385.916260 295.145432" style="stroke:rgb(100.000000%,100.000000%,100.000000%); stroke-width: 1.000000;stroke-linecap: round;stroke-linejoin: round;stroke-miterlimit: 10.000000;fill: none;"></path>
  <path d="M385.916260 295.145432L573.341248 293.614273" style="stroke:rgb(100.000000%,100.000000%,100.000000%); stroke-width: 1.000000;stroke-linecap: round;stroke-linejoin: round;stroke-miterlimit: 10.000000;fill: none;"></path>
  <path d="M573.341248 293.614273L481.159912 196.839447" style="stroke:rgb(100.000000%,100.000000%,100.000000%); stroke-width: 1.000000;stroke-linecap: round;stroke-linejoin: round;stroke-miterlimit: 10.000000;fill: none;"></path>
  <path d="M384.333191 385.795609L385.916260 385.795609" style="stroke:rgb(100.000000%,100.000000%,100.000000%); stroke-width: 1.000000;stroke-linecap: round;stroke-linejoin: round;stroke-miterlimit: 10.000000;fill: none;"></path>
  <path d="M385.916260 295.145432L384.333191 385.795609" style="stroke:rgb(100.000000%,100.000000%,100.000000%); stroke-width: 1.000000;stroke-linecap: round;stroke-linejoin: round;stroke-miterlimit: 10.000000;fill: none;"></path>
  <path d="M384.333191 196.839447L385.916260 101.595795" style="stroke:rgb(100.000000%,100.000000%,100.000000%); stroke-width: 1.000000;stroke-linecap: round;stroke-linejoin: round;stroke-miterlimit: 10.000000;fill: none;"></path>
  <path d="M384.333191 196.839447L384.333191 385.795609" style="stroke:rgb(100.000000%,100.000000%,100.000000%); stroke-width: 1.000000;stroke-linecap: round;stroke-linejoin: round;stroke-miterlimit: 10.000000;fill: none;"></path>
  <path d="M384.333191 385.795609L385.916260 295.145432" style="stroke:rgb(100.000000%,100.000000%,100.000000%); stroke-width: 1.000000;stroke-linecap: round;stroke-linejoin: round;stroke-miterlimit: 10.000000;fill: none;"></path>
  <path d="M385.916260 295.145432L385.916260 101.595795" style="stroke:rgb(100.000000%,100.000000%,100.000000%); stroke-width: 1.000000;stroke-linecap: round;stroke-linejoin: round;stroke-miterlimit: 10.000000;fill: none;"></path>
  <path d="M385.916260 101.595795L384.333191 196.839447" style="stroke:rgb(100.000000%,100.000000%,100.000000%); stroke-width: 1.000000;stroke-linecap: round;stroke-linejoin: round;stroke-miterlimit: 10.000000;fill: none;"></path>
  <path d="M101.655884 196.839447L103.187057 196.839447" style="stroke:rgb(100.000000%,100.000000%,100.000000%); stroke-width: 1.000000;stroke-linecap: round;stroke-linejoin: round;stroke-miterlimit: 10.000000;fill: none;"></path>
  <path d="M103.187057 196.839447L103.187057 103.126953" style="stroke:rgb(100.000000%,100.000000%,100.000000%); stroke-width: 1.000000;stroke-linecap: round;stroke-linejoin: round;stroke-miterlimit: 10.000000;fill: none;"></path>
  <path d="M103.187057 103.126953L195.377029 101.595795" style="stroke:rgb(100.000000%,100.000000%,100.000000%); stroke-width: 1.000000;stroke-linecap: round;stroke-linejoin: round;stroke-miterlimit: 10.000000;fill: none;"></path>
  <path d="M103.187057 103.126953L103.187057 196.839447" style="stroke:rgb(100.000000%,100.000000%,100.000000%); stroke-width: 1.000000;stroke-linecap: round;stroke-linejoin: round;stroke-miterlimit: 10.000000;fill: none;"></path>
  <path d="M103.187057 196.839447L195.377029 196.839447" style="stroke:rgb(100.000000%,100.000000%,100.000000%); stroke-width: 1.000000;stroke-linecap: round;stroke-linejoin: round;stroke-miterlimit: 10.000000;fill: none;"></path>
  <path d="M195.377029 196.839447L195.377029 101.595795" style="stroke:rgb(100.000000%,100.000000%,100.000000%); stroke-width: 1.000000;stroke-linecap: round;stroke-linejoin: round;stroke-miterlimit: 10.000000;fill: none;"></path>
  <path d="M195.377029 101.595795L103.187057 103.126953" style="stroke:rgb(100.000000%,100.000000%,100.000000%); stroke-width: 1.000000;stroke-linecap: round;stroke-linejoin: round;stroke-miterlimit: 10.000000;fill: none;"></path>
  <path d="M195.377029 101.595795L196.908203 9.414459" style="stroke:rgb(100.000000%,100.000000%,100.000000%); stroke-width: 1.000000;stroke-linecap: round;stroke-linejoin: round;stroke-miterlimit: 10.000000;fill: none;"></path>
  <path d="M195.377029 101.595795L195.377029 196.839447" style="stroke:rgb(100.000000%,100.000000%,100.000000%); stroke-width: 1.000000;stroke-linecap: round;stroke-linejoin: round;stroke-miterlimit: 10.000000;fill: none;"></path>
  <path d="M195.377029 196.839447L196.908203 196.839447" style="stroke:rgb(100.000000%,100.000000%,100.000000%); stroke-width: 1.000000;stroke-linecap: round;stroke-linejoin: round;stroke-miterlimit: 10.000000;fill: none;"></path>
  <path d="M196.908203 196.839447L196.908203 9.414459" style="stroke:rgb(100.000000%,100.000000%,100.000000%); stroke-width: 1.000000;stroke-linecap: round;stroke-linejoin: round;stroke-miterlimit: 10.000000;fill: none;"></path>
  <path d="M196.908203 9.414459L195.377029 101.595795" style="stroke:rgb(100.000000%,100.000000%,100.000000%); stroke-width: 1.000000;stroke-linecap: round;stroke-linejoin: round;stroke-miterlimit: 10.000000;fill: none;"></path>
  <path d="M196.908203 9.414459L292.151855 7.883301" style="stroke:rgb(100.000000%,100.000000%,100.000000%); stroke-width: 1.000000;stroke-linecap: round;stroke-linejoin: round;stroke-miterlimit: 10.000000;fill: none;"></path>
  <path d="M196.908203 9.414459L196.908203 196.839447" style="stroke:rgb(100.000000%,100.000000%,100.000000%); stroke-width: 1.000000;stroke-linecap: round;stroke-linejoin: round;stroke-miterlimit: 10.000000;fill: none;"></path>
  <path d="M196.908203 196.839447L292.151855 196.839447" style="stroke:rgb(100.000000%,100.000000%,100.000000%); stroke-width: 1.000000;stroke-linecap: round;stroke-linejoin: round;stroke-miterlimit: 10.000000;fill: none;"></path>
  <path d="M292.151855 7.883301L196.908203 9.414459" style="stroke:rgb(100.000000%,100.000000%,100.000000%); stroke-width: 1.000000;stroke-linecap: round;stroke-linejoin: round;stroke-miterlimit: 10.000000;fill: none;"></path>
  <path d="M384.333191 198.370605L384.333191 196.839447" style="stroke:rgb(100.000000%,100.000000%,100.000000%); stroke-width: 1.000000;stroke-linecap: round;stroke-linejoin: round;stroke-miterlimit: 10.000000;fill: none;"></path>
  <path d="M292.151855 196.839447L384.333191 198.370605" style="stroke:rgb(100.000000%,100.000000%,100.000000%); stroke-width: 1.000000;stroke-linecap: round;stroke-linejoin: round;stroke-miterlimit: 10.000000;fill: none;"></path>
  <path d="M195.377029 198.370605L101.655884 196.839447" style="stroke:rgb(100.000000%,100.000000%,100.000000%); stroke-width: 1.000000;stroke-linecap: round;stroke-linejoin: round;stroke-miterlimit: 10.000000;fill: none;"></path>
  <path d="M195.377029 198.370605L384.333191 198.370605" style="stroke:rgb(100.000000%,100.000000%,100.000000%); stroke-width: 1.000000;stroke-linecap: round;stroke-linejoin: round;stroke-miterlimit: 10.000000;fill: none;"></path>
  <path d="M384.333191 198.370605L292.151855 196.839447" style="stroke:rgb(100.000000%,100.000000%,100.000000%); stroke-width: 1.000000;stroke-linecap: round;stroke-linejoin: round;stroke-miterlimit: 10.000000;fill: none;"></path>
  <path d="M292.151855 196.839447L101.655884 196.839447" style="stroke:rgb(100.000000%,100.000000%,100.000000%); stroke-width: 1.000000;stroke-linecap: round;stroke-linejoin: round;stroke-miterlimit: 10.000000;fill: none;"></path>
  <path d="M101.655884 196.839447L195.377029 198.370605" style="stroke:rgb(100.000000%,100.000000%,100.000000%); stroke-width: 1.000000;stroke-linecap: round;stroke-linejoin: round;stroke-miterlimit: 10.000000;fill: none;"></path>
  <path d="M384.333191 198.370605L195.377029 198.370605" style="stroke:rgb(100.000000%,100.000000%,100.000000%); stroke-width: 1.000000;stroke-linecap: round;stroke-linejoin: round;stroke-miterlimit: 10.000000;fill: none;"></path>
  <path d="M195.377029 292.083099L384.333191 198.370605" style="stroke:rgb(100.000000%,100.000000%,100.000000%); stroke-width: 1.000000;stroke-linecap: round;stroke-linejoin: round;stroke-miterlimit: 10.000000;fill: none;"></path>
  <path d="M195.377029 292.083099L195.377029 385.795609" style="stroke:rgb(100.000000%,100.000000%,100.000000%); stroke-width: 1.000000;stroke-linecap: round;stroke-linejoin: round;stroke-miterlimit: 10.000000;fill: none;"></path>
  <path d="M195.377029 385.795609L384.333191 385.795609" style="stroke:rgb(100.000000%,100.000000%,100.000000%); stroke-width: 1.000000;stroke-linecap: round;stroke-linejoin: round;stroke-miterlimit: 10.000000;fill: none;"></path>
  <path d="M384.333191 385.795609L384.333191 198.370605" style="stroke:rgb(100.000000%,100.000000%,100.000000%); stroke-width: 1.000000;stroke-linecap: round;stroke-linejoin: round;stroke-miterlimit: 10.000000;fill: none;"></path>
  <path d="M384.333191 198.370605L195.377029 292.083099" style="stroke:rgb(100.000000%,100.000000%,100.000000%); stroke-width: 1.000000;stroke-linecap: round;stroke-linejoin: round;stroke-miterlimit: 10.000000;fill: none;"></path>
  <path d="M7.891495 385.795609L195.377029 385.795609" style="stroke:rgb(100.000000%,100.000000%,100.000000%); stroke-width: 1.000000;stroke-linecap: round;stroke-linejoin: round;stroke-miterlimit: 10.000000;fill: none;"></path>
  <path d="M195.377029 385.795609L195.377029 292.083099" style="stroke:rgb(100.000000%,100.000000%,100.000000%); stroke-width: 1.000000;stroke-linecap: round;stroke-linejoin: round;stroke-miterlimit: 10.000000;fill: none;"></path>
  <path d="M101.655884 388.909836L101.655884 482.630981" style="stroke:rgb(0.000000%,0.000000%,0.000000%); stroke-width: 1.000000;stroke-linecap: round;stroke-linejoin: round;stroke-miterlimit: 10.000000;fill: none;"></path>
  <path d="M101.655884 482.630981L198.430710 482.630981" style="stroke:rgb(0.000000%,0.000000%,0.000000%); stroke-width: 1.000000;stroke-linecap: round;stroke-linejoin: round;stroke-miterlimit: 10.000000;fill: none;"></path>
  <path d="M198.430710 482.630981L198.430710 388.909836" style="stroke:rgb(0.000000%,0.000000%,0.000000%); stroke-width: 1.000000;stroke-linecap: round;stroke-linejoin: round;stroke-miterlimit: 10.000000;fill: none;"></path>
  <path d="M290.620697 574.812317L290.620697 576.343475" style="stroke:rgb(0.000000%,0.000000%,0.000000%); stroke-width: 1.000000;stroke-linecap: round;stroke-linejoin: round;stroke-miterlimit: 10.000000;fill: none;"></path>
  <path d="M290.620697 576.343475L385.916260 576.343475" style="stroke:rgb(0.000000%,0.000000%,0.000000%); stroke-width: 1.000000;stroke-linecap: round;stroke-linejoin: round;stroke-miterlimit: 10.000000;fill: none;"></path>
  <path d="M385.916260 576.343475L385.916260 574.812317" style="stroke:rgb(0.000000%,0.000000%,0.000000%); stroke-width: 1.000000;stroke-linecap: round;stroke-linejoin: round;stroke-miterlimit: 10.000000;fill: none;"></path>
  <path d="M479.628754 481.099808L481.159912 481.099808" style="stroke:rgb(0.000000%,0.000000%,0.000000%); stroke-width: 1.000000;stroke-linecap: round;stroke-linejoin: round;stroke-miterlimit: 10.000000;fill: none;"></path>
  <path d="M481.159912 481.099808L481.159912 388.909836" style="stroke:rgb(0.000000%,0.000000%,0.000000%); stroke-width: 1.000000;stroke-linecap: round;stroke-linejoin: round;stroke-miterlimit: 10.000000;fill: none;"></path>
  <path d="M385.916260 482.630981L479.628754 482.630981" style="stroke:rgb(0.000000%,0.000000%,0.000000%); stroke-width: 1.000000;stroke-linecap: round;stroke-linejoin: round;stroke-miterlimit: 10.000000;fill: none;"></path>
  <path d="M479.628754 482.630981L479.628754 481.099808" style="stroke:rgb(0.000000%,0.000000%,0.000000%); stroke-width: 1.000000;stroke-linecap: round;stroke-linejoin: round;stroke-miterlimit: 10.000000;fill: none;"></path>
  <path d="M289.089523 388.909836L289.089523 574.812317" style="stroke:rgb(0.000000%,0.000000%,0.000000%); stroke-width: 1.000000;stroke-linecap: round;stroke-linejoin: round;stroke-miterlimit: 10.000000;fill: none;"></path>
  <path d="M289.089523 574.812317L290.620697 574.812317" style="stroke:rgb(0.000000%,0.000000%,0.000000%); stroke-width: 1.000000;stroke-linecap: round;stroke-linejoin: round;stroke-miterlimit: 10.000000;fill: none;"></path>
  <path d="M385.916260 574.812317L385.916260 482.630981" style="stroke:rgb(0.000000%,0.000000%,0.000000%); stroke-width: 1.000000;stroke-linecap: round;stroke-linejoin: round;stroke-miterlimit: 10.000000;fill: none;"></path>
  <path d="M7.891495 387.326767L7.943390 388.909836" style="stroke:rgb(0.000000%,0.000000%,0.000000%); stroke-width: 1.000000;stroke-linecap: round;stroke-linejoin: round;stroke-miterlimit: 10.000000;fill: none;"></path>
  <path d="M7.943390 388.909836L101.655884 388.909836" style="stroke:rgb(0.000000%,0.000000%,0.000000%); stroke-width: 1.000000;stroke-linecap: round;stroke-linejoin: round;stroke-miterlimit: 10.000000;fill: none;"></path>
  <path d="M481.159912 388.909836L481.159912 387.326767" style="stroke:rgb(0.000000%,0.000000%,0.000000%); stroke-width: 1.000000;stroke-linecap: round;stroke-linejoin: round;stroke-miterlimit: 10.000000;fill: none;"></path>
  <path d="M481.159912 387.326767L479.628754 387.326767" style="stroke:rgb(0.000000%,0.000000%,0.000000%); stroke-width: 1.000000;stroke-linecap: round;stroke-linejoin: round;stroke-miterlimit: 10.000000;fill: none;"></path>
  <path d="M198.430710 388.909836L289.089523 388.909836" style="stroke:rgb(0.000000%,0.000000%,0.000000%); stroke-width: 1.000000;stroke-linecap: round;stroke-linejoin: round;stroke-miterlimit: 10.000000;fill: none;"></path>
  <path d="M479.628754 387.326767L479.628754 385.795609" style="stroke:rgb(0.000000%,0.000000%,0.000000%); stroke-width: 1.000000;stroke-linecap: round;stroke-linejoin: round;stroke-miterlimit: 10.000000;fill: none;"></path>
  <path d="M479.628754 385.795609L385.916260 385.795609" style="stroke:rgb(0.000000%,0.000000%,0.000000%); stroke-width: 1.000000;stroke-linecap: round;stroke-linejoin: round;stroke-miterlimit: 10.000000;fill: none;"></path>
  <path d="M7.891495 385.795609L7.891495 387.326767" style="stroke:rgb(0.000000%,0.000000%,0.000000%); stroke-width: 1.000000;stroke-linecap: round;stroke-linejoin: round;stroke-miterlimit: 10.000000;fill: none;"></path>
  <path d="M573.341248 293.614273L574.872406 293.614273" style="stroke:rgb(0.000000%,0.000000%,0.000000%); stroke-width: 1.000000;stroke-linecap: round;stroke-linejoin: round;stroke-miterlimit: 10.000000;fill: none;"></path>
  <path d="M574.872406 293.614273L574.872406 196.839447" style="stroke:rgb(0.000000%,0.000000%,0.000000%); stroke-width: 1.000000;stroke-linecap: round;stroke-linejoin: round;stroke-miterlimit: 10.000000;fill: none;"></path>
  <path d="M574.872406 196.839447L573.341248 196.839447" style="stroke:rgb(0.000000%,0.000000%,0.000000%); stroke-width: 1.000000;stroke-linecap: round;stroke-linejoin: round;stroke-miterlimit: 10.000000;fill: none;"></path>
  <path d="M479.628754 103.126953L479.628754 101.595795" style="stroke:rgb(0.000000%,0.000000%,0.000000%); stroke-width: 1.000000;stroke-linecap: round;stroke-linejoin: round;stroke-miterlimit: 10.000000;fill: none;"></path>
  <path d="M479.628754 101.595795L385.916260 101.595795" style="stroke:rgb(0.000000%,0.000000%,0.000000%); stroke-width: 1.000000;stroke-linecap: round;stroke-linejoin: round;stroke-miterlimit: 10.000000;fill: none;"></path>
  <path d="M481.159912 196.839447L481.159912 103.126953" style="stroke:rgb(0.000000%,0.000000%,0.000000%); stroke-width: 1.000000;stroke-linecap: round;stroke-linejoin: round;stroke-miterlimit: 10.000000;fill: none;"></path>
  <path d="M481.159912 103.126953L479.628754 103.126953" style="stroke:rgb(0.000000%,0.000000%,0.000000%); stroke-width: 1.000000;stroke-linecap: round;stroke-linejoin: round;stroke-miterlimit: 10.000000;fill: none;"></path>
  <path d="M385.916260 295.145432L573.341248 295.145432" style="stroke:rgb(0.000000%,0.000000%,0.000000%); stroke-width: 1.000000;stroke-linecap: round;stroke-linejoin: round;stroke-miterlimit: 10.000000;fill: none;"></path>
  <path d="M573.341248 295.145432L573.341248 293.614273" style="stroke:rgb(0.000000%,0.000000%,0.000000%); stroke-width: 1.000000;stroke-linecap: round;stroke-linejoin: round;stroke-miterlimit: 10.000000;fill: none;"></path>
  <path d="M573.341248 196.839447L481.159912 196.839447" style="stroke:rgb(0.000000%,0.000000%,0.000000%); stroke-width: 1.000000;stroke-linecap: round;stroke-linejoin: round;stroke-miterlimit: 10.000000;fill: none;"></path>
  <path d="M385.916260 385.795609L385.916260 295.145432" style="stroke:rgb(0.000000%,0.000000%,0.000000%); stroke-width: 1.000000;stroke-linecap: round;stroke-linejoin: round;stroke-miterlimit: 10.000000;fill: none;"></path>
  <path d="M385.916260 101.595795L384.333191 101.595795" style="stroke:rgb(0.000000%,0.000000%,0.000000%); stroke-width: 1.000000;stroke-linecap: round;stroke-linejoin: round;stroke-miterlimit: 10.000000;fill: none;"></path>
  <path d="M384.333191 101.595795L384.333191 196.839447" style="stroke:rgb(0.000000%,0.000000%,0.000000%); stroke-width: 1.000000;stroke-linecap: round;stroke-linejoin: round;stroke-miterlimit: 10.000000;fill: none;"></path>
  <path d="M103.187057 103.126953L101.655884 103.126953" style="stroke:rgb(0.000000%,0.000000%,0.000000%); stroke-width: 1.000000;stroke-linecap: round;stroke-linejoin: round;stroke-miterlimit: 10.000000;fill: none;"></path>
  <path d="M101.655884 103.126953L101.655884 196.839447" style="stroke:rgb(0.000000%,0.000000%,0.000000%); stroke-width: 1.000000;stroke-linecap: round;stroke-linejoin: round;stroke-miterlimit: 10.000000;fill: none;"></path>
  <path d="M195.377029 101.595795L103.187057 101.595795" style="stroke:rgb(0.000000%,0.000000%,0.000000%); stroke-width: 1.000000;stroke-linecap: round;stroke-linejoin: round;stroke-miterlimit: 10.000000;fill: none;"></path>
  <path d="M103.187057 101.595795L103.187057 103.126953" style="stroke:rgb(0.000000%,0.000000%,0.000000%); stroke-width: 1.000000;stroke-linecap: round;stroke-linejoin: round;stroke-miterlimit: 10.000000;fill: none;"></path>
  <path d="M196.908203 9.414459L195.377029 9.414459" style="stroke:rgb(0.000000%,0.000000%,0.000000%); stroke-width: 1.000000;stroke-linecap: round;stroke-linejoin: round;stroke-miterlimit: 10.000000;fill: none;"></path>
  <path d="M195.377029 9.414459L195.377029 101.595795" style="stroke:rgb(0.000000%,0.000000%,0.000000%); stroke-width: 1.000000;stroke-linecap: round;stroke-linejoin: round;stroke-miterlimit: 10.000000;fill: none;"></path>
  <path d="M292.151855 7.883301L196.908203 7.883301" style="stroke:rgb(0.000000%,0.000000%,0.000000%); stroke-width: 1.000000;stroke-linecap: round;stroke-linejoin: round;stroke-miterlimit: 10.000000;fill: none;"></path>
  <path d="M196.908203 7.883301L196.908203 9.414459" style="stroke:rgb(0.000000%,0.000000%,0.000000%); stroke-width: 1.000000;stroke-linecap: round;stroke-linejoin: round;stroke-miterlimit: 10.000000;fill: none;"></path>
  <path d="M292.151855 196.839447L292.151855 7.883301" style="stroke:rgb(0.000000%,0.000000%,0.000000%); stroke-width: 1.000000;stroke-linecap: round;stroke-linejoin: round;stroke-miterlimit: 10.000000;fill: none;"></path>
  <path d="M384.333191 196.839447L292.151855 196.839447" style="stroke:rgb(0.000000%,0.000000%,0.000000%); stroke-width: 1.000000;stroke-linecap: round;stroke-linejoin: round;stroke-miterlimit: 10.000000;fill: none;"></path>
  <path d="M101.655884 196.839447L101.655884 198.370605" style="stroke:rgb(0.000000%,0.000000%,0.000000%); stroke-width: 1.000000;stroke-linecap: round;stroke-linejoin: round;stroke-miterlimit: 10.000000;fill: none;"></path>
  <path d="M101.655884 198.370605L195.377029 198.370605" style="stroke:rgb(0.000000%,0.000000%,0.000000%); stroke-width: 1.000000;stroke-linecap: round;stroke-linejoin: round;stroke-miterlimit: 10.000000;fill: none;"></path>
  <path d="M195.377029 198.370605L195.377029 292.083099" style="stroke:rgb(0.000000%,0.000000%,0.000000%); stroke-width: 1.000000;stroke-linecap: round;stroke-linejoin: round;stroke-miterlimit: 10.000000;fill: none;"></path>
  <path d="M7.943390 292.083099L7.891495 385.795609" style="stroke:rgb(0.000000%,0.000000%,0.000000%); stroke-width: 1.000000;stroke-linecap: round;stroke-linejoin: round;stroke-miterlimit: 10.000000;fill: none;"></path>
  <path d="M195.377029 292.083099L7.943390 292.083099" style="stroke:rgb(0.000000%,0.000000%,0.000000%); stroke-width: 1.000000;stroke-linecap: round;stroke-linejoin: round;stroke-miterlimit: 10.000000;fill: none;"></path>
  <path d="M299.721176 340.639206C299.721176 300.877304,283.923477 262.748703,255.809692 234.634918C227.695908 206.521133,189.567307 190.723434,149.805405 190.723434C110.043503 190.723434,71.914902 206.521133,43.801117 234.634918C15.687332 262.748703,-0.110367 300.877304,-0.110367 340.639206C-0.110367 380.401108,15.687332 418.529709,43.801117 446.643494C71.914902 474.757278,110.043503 490.554977,149.805405 490.554977C189.567307 490.554977,227.695908 474.757278,255.809692 446.643494C283.923477 418.529709,299.721176 380.401108,299.721176 340.639206Z" style="stroke:rgb(25.500488%,41.000366%,88.400269%); stroke-width: 1.000000;stroke-linecap: round;stroke-linejoin: round;stroke-miterlimit: 10.000000;fill: none;"></path>
  <path d="M583.427902 243.622162C583.427902 203.860260,567.630203 165.731659,539.516418 137.617874C511.402634 109.504089,473.274033 93.706390,433.512131 93.706390C393.750229 93.706390,355.621628 109.504089,327.507843 137.617874C299.394058 165.731659,283.596359 203.860260,283.596359 243.622162C283.596359 283.384064,299.394058 321.512665,327.507843 349.626450C355.621628 377.740234,393.750229 393.537933,433.512131 393.537933C473.274033 393.537933,511.402634 377.740234,539.516418 349.626450C567.630203 321.512665,583.427902 283.384064,583.427902 243.622162Z" style="stroke:rgb(25.500488%,41.000366%,88.400269%); stroke-width: 1.000000;stroke-linecap: round;stroke-linejoin: round;stroke-miterlimit: 10.000000;fill: none;"></path>
  <path d="M393.373123 149.676102C393.373123 109.914200,377.575424 71.785599,349.461639 43.671814C321.347855 15.558029,283.219254 -0.239670,243.457352 -0.239670C203.695450 -0.239670,165.566849 15.558029,137.453064 43.671814C109.339279 71.785599,93.541580 109.914200,93.541580 149.676102C93.541580 189.438004,109.339279 227.566605,137.453064 255.680389C165.566849 283.794174,203.695450 299.591873,243.457352 299.591873C283.219254 299.591873,321.347855 283.794174,349.461639 255.680389C377.575424 227.566605,393.373123 189.438004,393.373123 149.676102Z" style="stroke:rgb(25.500488%,41.000366%,88.400269%); stroke-width: 1.000000;stroke-linecap: round;stroke-linejoin: round;stroke-miterlimit: 10.000000;fill: none;"></path>
  <path d="M488.850342 434.498764C488.850342 394.736862,473.052643 356.608261,444.938858 328.494476C416.825073 300.380692,378.696472 284.582993,338.934570 284.582993C299.172668 284.582993,261.044067 300.380692,232.930283 328.494476C204.816498 356.608261,189.018799 394.736862,189.018799 434.498764C189.018799 474.260666,204.816498 512.389267,232.930283 540.503052C261.044067 568.616837,299.172668 584.414536,338.934570 584.414536C378.696472 584.414536,416.825073 568.616837,444.938858 540.503052C473.052643 512.389267,488.850342 474.260666,488.850342 434.498764Z" style="stroke:rgb(25.500488%,41.000366%,88.400269%); stroke-width: 1.000000;stroke-linecap: round;stroke-linejoin: round;stroke-miterlimit: 10.000000;fill: none;"></path>
  <path d="M149.805405 340.639206L101.655884 482.630981" style="stroke:rgb(60.000610%,60.000610%,60.000610%); stroke-width: 1.500000;stroke-linecap: round;stroke-dasharray: 3.000000 3.000000 ;stroke-linejoin: round;stroke-miterlimit: 10.000000;fill: none;"></path>
  <path d="M153.805405 340.639206C153.805405 339.578293,153.383896 338.560959,152.633774 337.810837C151.883652 337.060715,150.866318 336.639206,149.805405 336.639206C148.744492 336.639206,147.727158 337.060715,146.977036 337.810837C146.226913 338.560959,145.805405 339.578293,145.805405 340.639206C145.805405 341.700119,146.226913 342.717453,146.977036 343.467575C147.727158 344.217697,148.744492 344.639206,149.805405 344.639206C150.866318 344.639206,151.883652 344.217697,152.633774 343.467575C153.383896 342.717453,153.805405 341.700119,153.805405 340.639206Z" style="stroke:rgb(39.999390%,39.999390%,39.999390%); stroke-width: 0.500000;stroke-linecap: round;stroke-linejoin: round;stroke-miterlimit: 10.000000;fill: none;"></path>
  <path d="M153.805405 340.639206C153.805405 339.578293,153.383896 338.560959,152.633774 337.810837C151.883652 337.060715,150.866318 336.639206,149.805405 336.639206C148.744492 336.639206,147.727158 337.060715,146.977036 337.810837C146.226913 338.560959,145.805405 339.578293,145.805405 340.639206C145.805405 341.700119,146.226913 342.717453,146.977036 343.467575C147.727158 344.217697,148.744492 344.639206,149.805405 344.639206C150.866318 344.639206,151.883652 344.217697,152.633774 343.467575C153.383896 342.717453,153.805405 341.700119,153.805405 340.639206Z" style="fill: rgb(89.999390%,0.000000%,0.000000%);stroke: none;"></path>
  <path d="M105.655884 482.630981C105.655884 481.570068,105.234375 480.552734,104.484253 479.802612C103.734131 479.052490,102.716797 478.630981,101.655884 478.630981C100.594971 478.630981,99.577637 479.052490,98.827515 479.802612C98.077393 480.552734,97.655884 481.570068,97.655884 482.630981C97.655884 483.691895,98.077393 484.709229,98.827515 485.459351C99.577637 486.209473,100.594971 486.630981,101.655884 486.630981C102.716797 486.630981,103.734131 486.209473,104.484253 485.459351C105.234375 484.709229,105.655884 483.691895,105.655884 482.630981Z" style="stroke:rgb(39.999390%,39.999390%,39.999390%); stroke-width: 0.500000;stroke-linecap: round;stroke-linejoin: round;stroke-miterlimit: 10.000000;fill: none;"></path>
  <path d="M105.655884 482.630981C105.655884 481.570068,105.234375 480.552734,104.484253 479.802612C103.734131 479.052490,102.716797 478.630981,101.655884 478.630981C100.594971 478.630981,99.577637 479.052490,98.827515 479.802612C98.077393 480.552734,97.655884 481.570068,97.655884 482.630981C97.655884 483.691895,98.077393 484.709229,98.827515 485.459351C99.577637 486.209473,100.594971 486.630981,101.655884 486.630981C102.716797 486.630981,103.734131 486.209473,104.484253 485.459351C105.234375 484.709229,105.655884 483.691895,105.655884 482.630981Z" style="fill: rgb(100.000000%,100.000000%,0.000000%);stroke: none;"></path>
  <path d="M149.805405 340.639206L7.943390 292.083099" style="stroke:rgb(60.000610%,60.000610%,60.000610%); stroke-width: 1.500000;stroke-linecap: round;stroke-dasharray: 3.000000 3.000000 ;stroke-linejoin: round;stroke-miterlimit: 10.000000;fill: none;"></path>
  <path d="M153.805405 340.639206C153.805405 339.578293,153.383896 338.560959,152.633774 337.810837C151.883652 337.060715,150.866318 336.639206,149.805405 336.639206C148.744492 336.639206,147.727158 337.060715,146.977036 337.810837C146.226913 338.560959,145.805405 339.578293,145.805405 340.639206C145.805405 341.700119,146.226913 342.717453,146.977036 343.467575C147.727158 344.217697,148.744492 344.639206,149.805405 344.639206C150.866318 344.639206,151.883652 344.217697,152.633774 343.467575C153.383896 342.717453,153.805405 341.700119,153.805405 340.639206Z" style="stroke:rgb(39.999390%,39.999390%,39.999390%); stroke-width: 0.500000;stroke-linecap: round;stroke-linejoin: round;stroke-miterlimit: 10.000000;fill: none;"></path>
  <path d="M153.805405 340.639206C153.805405 339.578293,153.383896 338.560959,152.633774 337.810837C151.883652 337.060715,150.866318 336.639206,149.805405 336.639206C148.744492 336.639206,147.727158 337.060715,146.977036 337.810837C146.226913 338.560959,145.805405 339.578293,145.805405 340.639206C145.805405 341.700119,146.226913 342.717453,146.977036 343.467575C147.727158 344.217697,148.744492 344.639206,149.805405 344.639206C150.866318 344.639206,151.883652 344.217697,152.633774 343.467575C153.383896 342.717453,153.805405 341.700119,153.805405 340.639206Z" style="fill: rgb(89.999390%,0.000000%,0.000000%);stroke: none;"></path>
  <path d="M11.943390 292.083099C11.943390 291.022186,11.521881 290.004852,10.771759 289.254730C10.021637 288.504608,9.004303 288.083099,7.943390 288.083099C6.882477 288.083099,5.865143 288.504608,5.115021 289.254730C4.364899 290.004852,3.943390 291.022186,3.943390 292.083099C3.943390 293.144012,4.364899 294.161346,5.115021 294.911469C5.865143 295.661591,6.882477 296.083099,7.943390 296.083099C9.004303 296.083099,10.021637 295.661591,10.771759 294.911469C11.521881 294.161346,11.943390 293.144012,11.943390 292.083099Z" style="stroke:rgb(39.999390%,39.999390%,39.999390%); stroke-width: 0.500000;stroke-linecap: round;stroke-linejoin: round;stroke-miterlimit: 10.000000;fill: none;"></path>
  <path d="M11.943390 292.083099C11.943390 291.022186,11.521881 290.004852,10.771759 289.254730C10.021637 288.504608,9.004303 288.083099,7.943390 288.083099C6.882477 288.083099,5.865143 288.504608,5.115021 289.254730C4.364899 290.004852,3.943390 291.022186,3.943390 292.083099C3.943390 293.144012,4.364899 294.161346,5.115021 294.911469C5.865143 295.661591,6.882477 296.083099,7.943390 296.083099C9.004303 296.083099,10.021637 295.661591,10.771759 294.911469C11.521881 294.161346,11.943390 293.144012,11.943390 292.083099Z" style="fill: rgb(100.000000%,100.000000%,0.000000%);stroke: none;"></path>
  <path d="M149.805405 340.639206L291.503052 291.685181" style="stroke:rgb(60.000610%,60.000610%,60.000610%); stroke-width: 1.500000;stroke-linecap: round;stroke-dasharray: 3.000000 3.000000 ;stroke-linejoin: round;stroke-miterlimit: 10.000000;fill: none;"></path>
  <path d="M243.457352 149.676102L291.503052 291.685181" style="stroke:rgb(60.000610%,60.000610%,60.000610%); stroke-width: 1.500000;stroke-linecap: round;stroke-dasharray: 3.000000 3.000000 ;stroke-linejoin: round;stroke-miterlimit: 10.000000;fill: none;"></path>
  <path d="M153.805405 340.639206C153.805405 339.578293,153.383896 338.560959,152.633774 337.810837C151.883652 337.060715,150.866318 336.639206,149.805405 336.639206C148.744492 336.639206,147.727158 337.060715,146.977036 337.810837C146.226913 338.560959,145.805405 339.578293,145.805405 340.639206C145.805405 341.700119,146.226913 342.717453,146.977036 343.467575C147.727158 344.217697,148.744492 344.639206,149.805405 344.639206C150.866318 344.639206,151.883652 344.217697,152.633774 343.467575C153.383896 342.717453,153.805405 341.700119,153.805405 340.639206Z" style="stroke:rgb(39.999390%,39.999390%,39.999390%); stroke-width: 0.500000;stroke-linecap: round;stroke-linejoin: round;stroke-miterlimit: 10.000000;fill: none;"></path>
  <path d="M153.805405 340.639206C153.805405 339.578293,153.383896 338.560959,152.633774 337.810837C151.883652 337.060715,150.866318 336.639206,149.805405 336.639206C148.744492 336.639206,147.727158 337.060715,146.977036 337.810837C146.226913 338.560959,145.805405 339.578293,145.805405 340.639206C145.805405 341.700119,146.226913 342.717453,146.977036 343.467575C147.727158 344.217697,148.744492 344.639206,149.805405 344.639206C150.866318 344.639206,151.883652 344.217697,152.633774 343.467575C153.383896 342.717453,153.805405 341.700119,153.805405 340.639206Z" style="fill: rgb(89.999390%,0.000000%,0.000000%);stroke: none;"></path>
  <path d="M247.457352 149.676102C247.457352 148.615189,247.035843 147.597855,246.285721 146.847733C245.535599 146.097610,244.518265 145.676102,243.457352 145.676102C242.396439 145.676102,241.379105 146.097610,240.628983 146.847733C239.878860 147.597855,239.457352 148.615189,239.457352 149.676102C239.457352 150.737015,239.878860 151.754349,240.628983 152.504471C241.379105 153.254593,242.396439 153.676102,243.457352 153.676102C244.518265 153.676102,245.535599 153.254593,246.285721 152.504471C247.035843 151.754349,247.457352 150.737015,247.457352 149.676102Z" style="stroke:rgb(39.999390%,39.999390%,39.999390%); stroke-width: 0.500000;stroke-linecap: round;stroke-linejoin: round;stroke-miterlimit: 10.000000;fill: none;"></path>
  <path d="M247.457352 149.676102C247.457352 148.615189,247.035843 147.597855,246.285721 146.847733C245.535599 146.097610,244.518265 145.676102,243.457352 145.676102C242.396439 145.676102,241.379105 146.097610,240.628983 146.847733C239.878860 147.597855,239.457352 148.615189,239.457352 149.676102C239.457352 150.737015,239.878860 151.754349,240.628983 152.504471C241.379105 153.254593,242.396439 153.676102,243.457352 153.676102C244.518265 153.676102,245.535599 153.254593,246.285721 152.504471C247.035843 151.754349,247.457352 150.737015,247.457352 149.676102Z" style="fill: rgb(89.999390%,0.000000%,0.000000%);stroke: none;"></path>
  <path d="M295.503052 291.685181C295.503052 290.624268,295.081543 289.606934,294.331421 288.856812C293.581299 288.106689,292.563965 287.685181,291.503052 287.685181C290.442139 287.685181,289.424805 288.106689,288.674683 288.856812C287.924561 289.606934,287.503052 290.624268,287.503052 291.685181C287.503052 292.746094,287.924561 293.763428,288.674683 294.513550C289.424805 295.263672,290.442139 295.685181,291.503052 295.685181C292.563965 295.685181,293.581299 295.263672,294.331421 294.513550C295.081543 293.763428,295.503052 292.746094,295.503052 291.685181Z" style="stroke:rgb(39.999390%,39.999390%,39.999390%); stroke-width: 0.500000;stroke-linecap: round;stroke-linejoin: round;stroke-miterlimit: 10.000000;fill: none;"></path>
  <path d="M295.503052 291.685181C295.503052 290.624268,295.081543 289.606934,294.331421 288.856812C293.581299 288.106689,292.563965 287.685181,291.503052 287.685181C290.442139 287.685181,289.424805 288.106689,288.674683 288.856812C287.924561 289.606934,287.503052 290.624268,287.503052 291.685181C287.503052 292.746094,287.924561 293.763428,288.674683 294.513550C289.424805 295.263672,290.442139 295.685181,291.503052 295.685181C292.563965 295.685181,293.581299 295.263672,294.331421 294.513550C295.081543 293.763428,295.503052 292.746094,295.503052 291.685181Z" style="fill: rgb(9.800720%,9.800720%,44.000244%);stroke: none;"></path>
  <path d="M149.805405 340.639206L291.684723 292.221512" style="stroke:rgb(60.000610%,60.000610%,60.000610%); stroke-width: 1.500000;stroke-linecap: round;stroke-dasharray: 3.000000 3.000000 ;stroke-linejoin: round;stroke-miterlimit: 10.000000;fill: none;"></path>
  <path d="M338.934570 434.498764L291.684723 292.221512" style="stroke:rgb(60.000610%,60.000610%,60.000610%); stroke-width: 1.500000;stroke-linecap: round;stroke-dasharray: 3.000000 3.000000 ;stroke-linejoin: round;stroke-miterlimit: 10.000000;fill: none;"></path>
  <path d="M153.805405 340.639206C153.805405 339.578293,153.383896 338.560959,152.633774 337.810837C151.883652 337.060715,150.866318 336.639206,149.805405 336.639206C148.744492 336.639206,147.727158 337.060715,146.977036 337.810837C146.226913 338.560959,145.805405 339.578293,145.805405 340.639206C145.805405 341.700119,146.226913 342.717453,146.977036 343.467575C147.727158 344.217697,148.744492 344.639206,149.805405 344.639206C150.866318 344.639206,151.883652 344.217697,152.633774 343.467575C153.383896 342.717453,153.805405 341.700119,153.805405 340.639206Z" style="stroke:rgb(39.999390%,39.999390%,39.999390%); stroke-width: 0.500000;stroke-linecap: round;stroke-linejoin: round;stroke-miterlimit: 10.000000;fill: none;"></path>
  <path d="M153.805405 340.639206C153.805405 339.578293,153.383896 338.560959,152.633774 337.810837C151.883652 337.060715,150.866318 336.639206,149.805405 336.639206C148.744492 336.639206,147.727158 337.060715,146.977036 337.810837C146.226913 338.560959,145.805405 339.578293,145.805405 340.639206C145.805405 341.700119,146.226913 342.717453,146.977036 343.467575C147.727158 344.217697,148.744492 344.639206,149.805405 344.639206C150.866318 344.639206,151.883652 344.217697,152.633774 343.467575C153.383896 342.717453,153.805405 341.700119,153.805405 340.639206Z" style="fill: rgb(89.999390%,0.000000%,0.000000%);stroke: none;"></path>
  <path d="M342.934570 434.498764C342.934570 433.437851,342.513062 432.420517,341.762939 431.670395C341.012817 430.920273,339.995483 430.498764,338.934570 430.498764C337.873657 430.498764,336.856323 430.920273,336.106201 431.670395C335.356079 432.420517,334.934570 433.437851,334.934570 434.498764C334.934570 435.559677,335.356079 436.577011,336.106201 437.327133C336.856323 438.077255,337.873657 438.498764,338.934570 438.498764C339.995483 438.498764,341.012817 438.077255,341.762939 437.327133C342.513062 436.577011,342.934570 435.559677,342.934570 434.498764Z" style="stroke:rgb(39.999390%,39.999390%,39.999390%); stroke-width: 0.500000;stroke-linecap: round;stroke-linejoin: round;stroke-miterlimit: 10.000000;fill: none;"></path>
  <path d="M342.934570 434.498764C342.934570 433.437851,342.513062 432.420517,341.762939 431.670395C341.012817 430.920273,339.995483 430.498764,338.934570 430.498764C337.873657 430.498764,336.856323 430.920273,336.106201 431.670395C335.356079 432.420517,334.934570 433.437851,334.934570 434.498764C334.934570 435.559677,335.356079 436.577011,336.106201 437.327133C336.856323 438.077255,337.873657 438.498764,338.934570 438.498764C339.995483 438.498764,341.012817 438.077255,341.762939 437.327133C342.513062 436.577011,342.934570 435.559677,342.934570 434.498764Z" style="fill: rgb(89.999390%,0.000000%,0.000000%);stroke: none;"></path>
  <path d="M295.684723 292.221512C295.684723 291.160599,295.263214 290.143265,294.513092 289.393143C293.762970 288.643021,292.745636 288.221512,291.684723 288.221512C290.623810 288.221512,289.606476 288.643021,288.856354 289.393143C288.106232 290.143265,287.684723 291.160599,287.684723 292.221512C287.684723 293.282425,288.106232 294.299759,288.856354 295.049881C289.606476 295.800003,290.623810 296.221512,291.684723 296.221512C292.745636 296.221512,293.762970 295.800003,294.513092 295.049881C295.263214 294.299759,295.684723 293.282425,295.684723 292.221512Z" style="stroke:rgb(39.999390%,39.999390%,39.999390%); stroke-width: 0.500000;stroke-linecap: round;stroke-linejoin: round;stroke-miterlimit: 10.000000;fill: none;"></path>
  <path d="M295.684723 292.221512C295.684723 291.160599,295.263214 290.143265,294.513092 289.393143C293.762970 288.643021,292.745636 288.221512,291.684723 288.221512C290.623810 288.221512,289.606476 288.643021,288.856354 289.393143C288.106232 290.143265,287.684723 291.160599,287.684723 292.221512C287.684723 293.282425,288.106232 294.299759,288.856354 295.049881C289.606476 295.800003,290.623810 296.221512,291.684723 296.221512C292.745636 296.221512,293.762970 295.800003,294.513092 295.049881C295.263214 294.299759,295.684723 293.282425,295.684723 292.221512Z" style="fill: rgb(9.800720%,9.800720%,44.000244%);stroke: none;"></path>
  <path d="M433.512131 243.622162L574.872406 293.614273" style="stroke:rgb(60.000610%,60.000610%,60.000610%); stroke-width: 1.500000;stroke-linecap: round;stroke-dasharray: 3.000000 3.000000 ;stroke-linejoin: round;stroke-miterlimit: 10.000000;fill: none;"></path>
  <path d="M437.512131 243.622162C437.512131 242.561249,437.090622 241.543915,436.340500 240.793793C435.590378 240.043671,434.573044 239.622162,433.512131 239.622162C432.451218 239.622162,431.433884 240.043671,430.683762 240.793793C429.933640 241.543915,429.512131 242.561249,429.512131 243.622162C429.512131 244.683075,429.933640 245.700409,430.683762 246.450531C431.433884 247.200653,432.451218 247.622162,433.512131 247.622162C434.573044 247.622162,435.590378 247.200653,436.340500 246.450531C437.090622 245.700409,437.512131 244.683075,437.512131 243.622162Z" style="stroke:rgb(39.999390%,39.999390%,39.999390%); stroke-width: 0.500000;stroke-linecap: round;stroke-linejoin: round;stroke-miterlimit: 10.000000;fill: none;"></path>
  <path d="M437.512131 243.622162C437.512131 242.561249,437.090622 241.543915,436.340500 240.793793C435.590378 240.043671,434.573044 239.622162,433.512131 239.622162C432.451218 239.622162,431.433884 240.043671,430.683762 240.793793C429.933640 241.543915,429.512131 242.561249,429.512131 243.622162C429.512131 244.683075,429.933640 245.700409,430.683762 246.450531C431.433884 247.200653,432.451218 247.622162,433.512131 247.622162C434.573044 247.622162,435.590378 247.200653,436.340500 246.450531C437.090622 245.700409,437.512131 244.683075,437.512131 243.622162Z" style="fill: rgb(89.999390%,0.000000%,0.000000%);stroke: none;"></path>
  <path d="M578.872406 293.614273C578.872406 292.553360,578.450897 291.536026,577.700775 290.785904C576.950653 290.035782,575.933319 289.614273,574.872406 289.614273C573.811493 289.614273,572.794159 290.035782,572.044037 290.785904C571.293915 291.536026,570.872406 292.553360,570.872406 293.614273C570.872406 294.675186,571.293915 295.692520,572.044037 296.442642C572.794159 297.192764,573.811493 297.614273,574.872406 297.614273C575.933319 297.614273,576.950653 297.192764,577.700775 296.442642C578.450897 295.692520,578.872406 294.675186,578.872406 293.614273Z" style="stroke:rgb(39.999390%,39.999390%,39.999390%); stroke-width: 0.500000;stroke-linecap: round;stroke-linejoin: round;stroke-miterlimit: 10.000000;fill: none;"></path>
  <path d="M578.872406 293.614273C578.872406 292.553360,578.450897 291.536026,577.700775 290.785904C576.950653 290.035782,575.933319 289.614273,574.872406 289.614273C573.811493 289.614273,572.794159 290.035782,572.044037 290.785904C571.293915 291.536026,570.872406 292.553360,570.872406 293.614273C570.872406 294.675186,571.293915 295.692520,572.044037 296.442642C572.794159 297.192764,573.811493 297.614273,574.872406 297.614273C575.933319 297.614273,576.950653 297.192764,577.700775 296.442642C578.450897 295.692520,578.872406 294.675186,578.872406 293.614273Z" style="fill: rgb(100.000000%,100.000000%,0.000000%);stroke: none;"></path>
  <path d="M433.512131 243.622162L385.916260 385.795609" style="stroke:rgb(60.000610%,60.000610%,60.000610%); stroke-width: 1.500000;stroke-linecap: round;stroke-dasharray: 3.000000 3.000000 ;stroke-linejoin: round;stroke-miterlimit: 10.000000;fill: none;"></path>
  <path d="M437.512131 243.622162C437.512131 242.561249,437.090622 241.543915,436.340500 240.793793C435.590378 240.043671,434.573044 239.622162,433.512131 239.622162C432.451218 239.622162,431.433884 240.043671,430.683762 240.793793C429.933640 241.543915,429.512131 242.561249,429.512131 243.622162C429.512131 244.683075,429.933640 245.700409,430.683762 246.450531C431.433884 247.200653,432.451218 247.622162,433.512131 247.622162C434.573044 247.622162,435.590378 247.200653,436.340500 246.450531C437.090622 245.700409,437.512131 244.683075,437.512131 243.622162Z" style="stroke:rgb(39.999390%,39.999390%,39.999390%); stroke-width: 0.500000;stroke-linecap: round;stroke-linejoin: round;stroke-miterlimit: 10.000000;fill: none;"></path>
  <path d="M437.512131 243.622162C437.512131 242.561249,437.090622 241.543915,436.340500 240.793793C435.590378 240.043671,434.573044 239.622162,433.512131 239.622162C432.451218 239.622162,431.433884 240.043671,430.683762 240.793793C429.933640 241.543915,429.512131 242.561249,429.512131 243.622162C429.512131 244.683075,429.933640 245.700409,430.683762 246.450531C431.433884 247.200653,432.451218 247.622162,433.512131 247.622162C434.573044 247.622162,435.590378 247.200653,436.340500 246.450531C437.090622 245.700409,437.512131 244.683075,437.512131 243.622162Z" style="fill: rgb(89.999390%,0.000000%,0.000000%);stroke: none;"></path>
  <path d="M389.916260 385.795609C389.916260 384.734695,389.494751 383.717361,388.744629 382.967239C387.994507 382.217117,386.977173 381.795609,385.916260 381.795609C384.855347 381.795609,383.838013 382.217117,383.087891 382.967239C382.337769 383.717361,381.916260 384.734695,381.916260 385.795609C381.916260 386.856522,382.337769 387.873856,383.087891 388.623978C383.838013 389.374100,384.855347 389.795609,385.916260 389.795609C386.977173 389.795609,387.994507 389.374100,388.744629 388.623978C389.494751 387.873856,389.916260 386.856522,389.916260 385.795609Z" style="stroke:rgb(39.999390%,39.999390%,39.999390%); stroke-width: 0.500000;stroke-linecap: round;stroke-linejoin: round;stroke-miterlimit: 10.000000;fill: none;"></path>
  <path d="M389.916260 385.795609C389.916260 384.734695,389.494751 383.717361,388.744629 382.967239C387.994507 382.217117,386.977173 381.795609,385.916260 381.795609C384.855347 381.795609,383.838013 382.217117,383.087891 382.967239C382.337769 383.717361,381.916260 384.734695,381.916260 385.795609C381.916260 386.856522,382.337769 387.873856,383.087891 388.623978C383.838013 389.374100,384.855347 389.795609,385.916260 389.795609C386.977173 389.795609,387.994507 389.374100,388.744629 388.623978C389.494751 387.873856,389.916260 386.856522,389.916260 385.795609Z" style="fill: rgb(100.000000%,100.000000%,0.000000%);stroke: none;"></path>
  <path d="M433.512131 243.622162L291.503052 291.685181" style="stroke:rgb(60.000610%,60.000610%,60.000610%); stroke-width: 1.500000;stroke-linecap: round;stroke-dasharray: 3.000000 3.000000 ;stroke-linejoin: round;stroke-miterlimit: 10.000000;fill: none;"></path>
  <path d="M243.457352 149.676102L291.503052 291.685181" style="stroke:rgb(60.000610%,60.000610%,60.000610%); stroke-width: 1.500000;stroke-linecap: round;stroke-dasharray: 3.000000 3.000000 ;stroke-linejoin: round;stroke-miterlimit: 10.000000;fill: none;"></path>
  <path d="M437.512131 243.622162C437.512131 242.561249,437.090622 241.543915,436.340500 240.793793C435.590378 240.043671,434.573044 239.622162,433.512131 239.622162C432.451218 239.622162,431.433884 240.043671,430.683762 240.793793C429.933640 241.543915,429.512131 242.561249,429.512131 243.622162C429.512131 244.683075,429.933640 245.700409,430.683762 246.450531C431.433884 247.200653,432.451218 247.622162,433.512131 247.622162C434.573044 247.622162,435.590378 247.200653,436.340500 246.450531C437.090622 245.700409,437.512131 244.683075,437.512131 243.622162Z" style="stroke:rgb(39.999390%,39.999390%,39.999390%); stroke-width: 0.500000;stroke-linecap: round;stroke-linejoin: round;stroke-miterlimit: 10.000000;fill: none;"></path>
  <path d="M437.512131 243.622162C437.512131 242.561249,437.090622 241.543915,436.340500 240.793793C435.590378 240.043671,434.573044 239.622162,433.512131 239.622162C432.451218 239.622162,431.433884 240.043671,430.683762 240.793793C429.933640 241.543915,429.512131 242.561249,429.512131 243.622162C429.512131 244.683075,429.933640 245.700409,430.683762 246.450531C431.433884 247.200653,432.451218 247.622162,433.512131 247.622162C434.573044 247.622162,435.590378 247.200653,436.340500 246.450531C437.090622 245.700409,437.512131 244.683075,437.512131 243.622162Z" style="fill: rgb(89.999390%,0.000000%,0.000000%);stroke: none;"></path>
  <path d="M247.457352 149.676102C247.457352 148.615189,247.035843 147.597855,246.285721 146.847733C245.535599 146.097610,244.518265 145.676102,243.457352 145.676102C242.396439 145.676102,241.379105 146.097610,240.628983 146.847733C239.878860 147.597855,239.457352 148.615189,239.457352 149.676102C239.457352 150.737015,239.878860 151.754349,240.628983 152.504471C241.379105 153.254593,242.396439 153.676102,243.457352 153.676102C244.518265 153.676102,245.535599 153.254593,246.285721 152.504471C247.035843 151.754349,247.457352 150.737015,247.457352 149.676102Z" style="stroke:rgb(39.999390%,39.999390%,39.999390%); stroke-width: 0.500000;stroke-linecap: round;stroke-linejoin: round;stroke-miterlimit: 10.000000;fill: none;"></path>
  <path d="M247.457352 149.676102C247.457352 148.615189,247.035843 147.597855,246.285721 146.847733C245.535599 146.097610,244.518265 145.676102,243.457352 145.676102C242.396439 145.676102,241.379105 146.097610,240.628983 146.847733C239.878860 147.597855,239.457352 148.615189,239.457352 149.676102C239.457352 150.737015,239.878860 151.754349,240.628983 152.504471C241.379105 153.254593,242.396439 153.676102,243.457352 153.676102C244.518265 153.676102,245.535599 153.254593,246.285721 152.504471C247.035843 151.754349,247.457352 150.737015,247.457352 149.676102Z" style="fill: rgb(89.999390%,0.000000%,0.000000%);stroke: none;"></path>
  <path d="M295.503052 291.685181C295.503052 290.624268,295.081543 289.606934,294.331421 288.856812C293.581299 288.106689,292.563965 287.685181,291.503052 287.685181C290.442139 287.685181,289.424805 288.106689,288.674683 288.856812C287.924561 289.606934,287.503052 290.624268,287.503052 291.685181C287.503052 292.746094,287.924561 293.763428,288.674683 294.513550C289.424805 295.263672,290.442139 295.685181,291.503052 295.685181C292.563965 295.685181,293.581299 295.263672,294.331421 294.513550C295.081543 293.763428,295.503052 292.746094,295.503052 291.685181Z" style="stroke:rgb(39.999390%,39.999390%,39.999390%); stroke-width: 0.500000;stroke-linecap: round;stroke-linejoin: round;stroke-miterlimit: 10.000000;fill: none;"></path>
  <path d="M295.503052 291.685181C295.503052 290.624268,295.081543 289.606934,294.331421 288.856812C293.581299 288.106689,292.563965 287.685181,291.503052 287.685181C290.442139 287.685181,289.424805 288.106689,288.674683 288.856812C287.924561 289.606934,287.503052 290.624268,287.503052 291.685181C287.503052 292.746094,287.924561 293.763428,288.674683 294.513550C289.424805 295.263672,290.442139 295.685181,291.503052 295.685181C292.563965 295.685181,293.581299 295.263672,294.331421 294.513550C295.081543 293.763428,295.503052 292.746094,295.503052 291.685181Z" style="fill: rgb(9.800720%,9.800720%,44.000244%);stroke: none;"></path>
  <path d="M433.512131 243.622162L291.684723 292.221512" style="stroke:rgb(60.000610%,60.000610%,60.000610%); stroke-width: 1.500000;stroke-linecap: round;stroke-dasharray: 3.000000 3.000000 ;stroke-linejoin: round;stroke-miterlimit: 10.000000;fill: none;"></path>
  <path d="M338.934570 434.498764L291.684723 292.221512" style="stroke:rgb(60.000610%,60.000610%,60.000610%); stroke-width: 1.500000;stroke-linecap: round;stroke-dasharray: 3.000000 3.000000 ;stroke-linejoin: round;stroke-miterlimit: 10.000000;fill: none;"></path>
  <path d="M437.512131 243.622162C437.512131 242.561249,437.090622 241.543915,436.340500 240.793793C435.590378 240.043671,434.573044 239.622162,433.512131 239.622162C432.451218 239.622162,431.433884 240.043671,430.683762 240.793793C429.933640 241.543915,429.512131 242.561249,429.512131 243.622162C429.512131 244.683075,429.933640 245.700409,430.683762 246.450531C431.433884 247.200653,432.451218 247.622162,433.512131 247.622162C434.573044 247.622162,435.590378 247.200653,436.340500 246.450531C437.090622 245.700409,437.512131 244.683075,437.512131 243.622162Z" style="stroke:rgb(39.999390%,39.999390%,39.999390%); stroke-width: 0.500000;stroke-linecap: round;stroke-linejoin: round;stroke-miterlimit: 10.000000;fill: none;"></path>
  <path d="M437.512131 243.622162C437.512131 242.561249,437.090622 241.543915,436.340500 240.793793C435.590378 240.043671,434.573044 239.622162,433.512131 239.622162C432.451218 239.622162,431.433884 240.043671,430.683762 240.793793C429.933640 241.543915,429.512131 242.561249,429.512131 243.622162C429.512131 244.683075,429.933640 245.700409,430.683762 246.450531C431.433884 247.200653,432.451218 247.622162,433.512131 247.622162C434.573044 247.622162,435.590378 247.200653,436.340500 246.450531C437.090622 245.700409,437.512131 244.683075,437.512131 243.622162Z" style="fill: rgb(89.999390%,0.000000%,0.000000%);stroke: none;"></path>
  <path d="M342.934570 434.498764C342.934570 433.437851,342.513062 432.420517,341.762939 431.670395C341.012817 430.920273,339.995483 430.498764,338.934570 430.498764C337.873657 430.498764,336.856323 430.920273,336.106201 431.670395C335.356079 432.420517,334.934570 433.437851,334.934570 434.498764C334.934570 435.559677,335.356079 436.577011,336.106201 437.327133C336.856323 438.077255,337.873657 438.498764,338.934570 438.498764C339.995483 438.498764,341.012817 438.077255,341.762939 437.327133C342.513062 436.577011,342.934570 435.559677,342.934570 434.498764Z" style="stroke:rgb(39.999390%,39.999390%,39.999390%); stroke-width: 0.500000;stroke-linecap: round;stroke-linejoin: round;stroke-miterlimit: 10.000000;fill: none;"></path>
  <path d="M342.934570 434.498764C342.934570 433.437851,342.513062 432.420517,341.762939 431.670395C341.012817 430.920273,339.995483 430.498764,338.934570 430.498764C337.873657 430.498764,336.856323 430.920273,336.106201 431.670395C335.356079 432.420517,334.934570 433.437851,334.934570 434.498764C334.934570 435.559677,335.356079 436.577011,336.106201 437.327133C336.856323 438.077255,337.873657 438.498764,338.934570 438.498764C339.995483 438.498764,341.012817 438.077255,341.762939 437.327133C342.513062 436.577011,342.934570 435.559677,342.934570 434.498764Z" style="fill: rgb(89.999390%,0.000000%,0.000000%);stroke: none;"></path>
  <path d="M295.684723 292.221512C295.684723 291.160599,295.263214 290.143265,294.513092 289.393143C293.762970 288.643021,292.745636 288.221512,291.684723 288.221512C290.623810 288.221512,289.606476 288.643021,288.856354 289.393143C288.106232 290.143265,287.684723 291.160599,287.684723 292.221512C287.684723 293.282425,288.106232 294.299759,288.856354 295.049881C289.606476 295.800003,290.623810 296.221512,291.684723 296.221512C292.745636 296.221512,293.762970 295.800003,294.513092 295.049881C295.263214 294.299759,295.684723 293.282425,295.684723 292.221512Z" style="stroke:rgb(39.999390%,39.999390%,39.999390%); stroke-width: 0.500000;stroke-linecap: round;stroke-linejoin: round;stroke-miterlimit: 10.000000;fill: none;"></path>
  <path d="M295.684723 292.221512C295.684723 291.160599,295.263214 290.143265,294.513092 289.393143C293.762970 288.643021,292.745636 288.221512,291.684723 288.221512C290.623810 288.221512,289.606476 288.643021,288.856354 289.393143C288.106232 290.143265,287.684723 291.160599,287.684723 292.221512C287.684723 293.282425,288.106232 294.299759,288.856354 295.049881C289.606476 295.800003,290.623810 296.221512,291.684723 296.221512C292.745636 296.221512,293.762970 295.800003,294.513092 295.049881C295.263214 294.299759,295.684723 293.282425,295.684723 292.221512Z" style="fill: rgb(9.800720%,9.800720%,44.000244%);stroke: none;"></path>
  <path d="M243.457352 149.676102L292.151855 7.883301" style="stroke:rgb(60.000610%,60.000610%,60.000610%); stroke-width: 1.500000;stroke-linecap: round;stroke-dasharray: 3.000000 3.000000 ;stroke-linejoin: round;stroke-miterlimit: 10.000000;fill: none;"></path>
  <path d="M247.457352 149.676102C247.457352 148.615189,247.035843 147.597855,246.285721 146.847733C245.535599 146.097610,244.518265 145.676102,243.457352 145.676102C242.396439 145.676102,241.379105 146.097610,240.628983 146.847733C239.878860 147.597855,239.457352 148.615189,239.457352 149.676102C239.457352 150.737015,239.878860 151.754349,240.628983 152.504471C241.379105 153.254593,242.396439 153.676102,243.457352 153.676102C244.518265 153.676102,245.535599 153.254593,246.285721 152.504471C247.035843 151.754349,247.457352 150.737015,247.457352 149.676102Z" style="stroke:rgb(39.999390%,39.999390%,39.999390%); stroke-width: 0.500000;stroke-linecap: round;stroke-linejoin: round;stroke-miterlimit: 10.000000;fill: none;"></path>
  <path d="M247.457352 149.676102C247.457352 148.615189,247.035843 147.597855,246.285721 146.847733C245.535599 146.097610,244.518265 145.676102,243.457352 145.676102C242.396439 145.676102,241.379105 146.097610,240.628983 146.847733C239.878860 147.597855,239.457352 148.615189,239.457352 149.676102C239.457352 150.737015,239.878860 151.754349,240.628983 152.504471C241.379105 153.254593,242.396439 153.676102,243.457352 153.676102C244.518265 153.676102,245.535599 153.254593,246.285721 152.504471C247.035843 151.754349,247.457352 150.737015,247.457352 149.676102Z" style="fill: rgb(89.999390%,0.000000%,0.000000%);stroke: none;"></path>
  <path d="M296.151855 7.883301C296.151855 6.822388,295.730347 5.805054,294.980225 5.054932C294.230103 4.304810,293.212769 3.883301,292.151855 3.883301C291.090942 3.883301,290.073608 4.304810,289.323486 5.054932C288.573364 5.805054,288.151855 6.822388,288.151855 7.883301C288.151855 8.944214,288.573364 9.961548,289.323486 10.711670C290.073608 11.461792,291.090942 11.883301,292.151855 11.883301C293.212769 11.883301,294.230103 11.461792,294.980225 10.711670C295.730347 9.961548,296.151855 8.944214,296.151855 7.883301Z" style="stroke:rgb(39.999390%,39.999390%,39.999390%); stroke-width: 0.500000;stroke-linecap: round;stroke-linejoin: round;stroke-miterlimit: 10.000000;fill: none;"></path>
  <path d="M296.151855 7.883301C296.151855 6.822388,295.730347 5.805054,294.980225 5.054932C294.230103 4.304810,293.212769 3.883301,292.151855 3.883301C291.090942 3.883301,290.073608 4.304810,289.323486 5.054932C288.573364 5.805054,288.151855 6.822388,288.151855 7.883301C288.151855 8.944214,288.573364 9.961548,289.323486 10.711670C290.073608 11.461792,291.090942 11.883301,292.151855 11.883301C293.212769 11.883301,294.230103 11.461792,294.980225 10.711670C295.730347 9.961548,296.151855 8.944214,296.151855 7.883301Z" style="fill: rgb(100.000000%,100.000000%,0.000000%);stroke: none;"></path>
  <path d="M243.457352 149.676102L101.655884 198.370605" style="stroke:rgb(60.000610%,60.000610%,60.000610%); stroke-width: 1.500000;stroke-linecap: round;stroke-dasharray: 3.000000 3.000000 ;stroke-linejoin: round;stroke-miterlimit: 10.000000;fill: none;"></path>
  <path d="M247.457352 149.676102C247.457352 148.615189,247.035843 147.597855,246.285721 146.847733C245.535599 146.097610,244.518265 145.676102,243.457352 145.676102C242.396439 145.676102,241.379105 146.097610,240.628983 146.847733C239.878860 147.597855,239.457352 148.615189,239.457352 149.676102C239.457352 150.737015,239.878860 151.754349,240.628983 152.504471C241.379105 153.254593,242.396439 153.676102,243.457352 153.676102C244.518265 153.676102,245.535599 153.254593,246.285721 152.504471C247.035843 151.754349,247.457352 150.737015,247.457352 149.676102Z" style="stroke:rgb(39.999390%,39.999390%,39.999390%); stroke-width: 0.500000;stroke-linecap: round;stroke-linejoin: round;stroke-miterlimit: 10.000000;fill: none;"></path>
  <path d="M247.457352 149.676102C247.457352 148.615189,247.035843 147.597855,246.285721 146.847733C245.535599 146.097610,244.518265 145.676102,243.457352 145.676102C242.396439 145.676102,241.379105 146.097610,240.628983 146.847733C239.878860 147.597855,239.457352 148.615189,239.457352 149.676102C239.457352 150.737015,239.878860 151.754349,240.628983 152.504471C241.379105 153.254593,242.396439 153.676102,243.457352 153.676102C244.518265 153.676102,245.535599 153.254593,246.285721 152.504471C247.035843 151.754349,247.457352 150.737015,247.457352 149.676102Z" style="fill: rgb(89.999390%,0.000000%,0.000000%);stroke: none;"></path>
  <path d="M105.655884 198.370605C105.655884 197.309692,105.234375 196.292358,104.484253 195.542236C103.734131 194.792114,102.716797 194.370605,101.655884 194.370605C100.594971 194.370605,99.577637 194.792114,98.827515 195.542236C98.077393 196.292358,97.655884 197.309692,97.655884 198.370605C97.655884 199.431519,98.077393 200.448853,98.827515 201.198975C99.577637 201.949097,100.594971 202.370605,101.655884 202.370605C102.716797 202.370605,103.734131 201.949097,104.484253 201.198975C105.234375 200.448853,105.655884 199.431519,105.655884 198.370605Z" style="stroke:rgb(39.999390%,39.999390%,39.999390%); stroke-width: 0.500000;stroke-linecap: round;stroke-linejoin: round;stroke-miterlimit: 10.000000;fill: none;"></path>
  <path d="M105.655884 198.370605C105.655884 197.309692,105.234375 196.292358,104.484253 195.542236C103.734131 194.792114,102.716797 194.370605,101.655884 194.370605C100.594971 194.370605,99.577637 194.792114,98.827515 195.542236C98.077393 196.292358,97.655884 197.309692,97.655884 198.370605C97.655884 199.431519,98.077393 200.448853,98.827515 201.198975C99.577637 201.949097,100.594971 202.370605,101.655884 202.370605C102.716797 202.370605,103.734131 201.949097,104.484253 201.198975C105.234375 200.448853,105.655884 199.431519,105.655884 198.370605Z" style="fill: rgb(100.000000%,100.000000%,0.000000%);stroke: none;"></path>
</svg>
