<?xml version="1.0"?>
<!-- Created by MetaPost 2.00 on 2025.04.10:1953 -->
<svg version="1.1" xmlns="http://www.w3.org/2000/svg" xmlns:xlink="http://www.w3.org/1999/xlink" width="600.005615" height="600.005615" viewBox="0 0 600.005615 600.005615">
<!-- Original BoundingBox: -326.629517 -304.129166 273.376099 295.876450 -->
  <path d="M109.655884 395.909836L109.655884 489.630981L206.430710 489.630981L206.430710 395.909836L109.655884 395.909836Z" style="fill: rgb(100.000000%,100.000000%,100.000000%);stroke: none;"></path>
  <path d="M298.620697 581.812317L298.620697 583.343475L393.916260 583.343475L393.916260 581.812317L298.620697 581.812317Z" style="fill: rgb(100.000000%,100.000000%,100.000000%);stroke: none;"></path>
  <path d="M487.628754 488.099808L489.159912 488.099808L489.159912 395.909836L487.628754 395.909836L487.628754 488.099808Z" style="fill: rgb(100.000000%,100.000000%,100.000000%);stroke: none;"></path>
  <path d="M393.916260 489.630981L487.628754 489.630981L487.628754 488.099808L393.916260 489.630981Z" style="fill: rgb(100.000000%,100.000000%,100.000000%);stroke: none;"></path>
  <path d="M487.628754 488.099808L487.628754 395.909836L393.916260 395.909836L393.916260 489.630981L487.628754 488.099808Z" style="fill: rgb(100.000000%,100.000000%,100.000000%);stroke: none;"></path>
  <path d="M297.089523 395.909836L297.089523 581.812317L298.620697 581.812317L297.089523 395.909836Z" style="fill: rgb(100.000000%,100.000000%,100.000000%);stroke: none;"></path>
  <path d="M298.620697 581.812317L393.916260 581.812317L393.916260 489.630981L298.620697 581.812317Z" style="fill: rgb(100.000000%,100.000000%,100.000000%);stroke: none;"></path>
  <path d="M393.916260 489.630981L393.916260 395.909836L297.089523 395.909836L298.620697 581.812317L393.916260 489.630981Z" style="fill: rgb(100.000000%,100.000000%,100.000000%);stroke: none;"></path>
  <path d="M15.891495 394.326767L15.943390 395.909836L109.655884 395.909836L15.891495 394.326767Z" style="fill: rgb(100.000000%,100.000000%,100.000000%);stroke: none;"></path>
  <path d="M489.159912 395.909836L489.159912 394.326767L487.628754 394.326767L489.159912 395.909836Z" style="fill: rgb(100.000000%,100.000000%,100.000000%);stroke: none;"></path>
  <path d="M15.891495 394.326767L109.655884 395.909836L206.430710 395.909836L15.891495 394.326767Z" style="fill: rgb(100.000000%,100.000000%,100.000000%);stroke: none;"></path>
  <path d="M15.891495 394.326767L206.430710 395.909836L297.089523 395.909836L15.891495 394.326767Z" style="fill: rgb(100.000000%,100.000000%,100.000000%);stroke: none;"></path>
  <path d="M297.089523 395.909836L489.159912 395.909836L487.628754 394.326767L15.891495 394.326767L297.089523 395.909836Z" style="fill: rgb(100.000000%,100.000000%,100.000000%);stroke: none;"></path>
  <path d="M487.628754 394.326767L487.628754 392.795609L393.916260 392.795609L487.628754 394.326767Z" style="fill: rgb(100.000000%,100.000000%,100.000000%);stroke: none;"></path>
  <path d="M393.916260 392.795609L15.891495 392.795609L15.891495 394.326767L487.628754 394.326767L393.916260 392.795609Z" style="fill: rgb(100.000000%,100.000000%,100.000000%);stroke: none;"></path>
  <path d="M581.341248 300.614273L582.872406 300.614273L582.872406 203.839447L581.341248 203.839447L581.341248 300.614273Z" style="fill: rgb(100.000000%,100.000000%,100.000000%);stroke: none;"></path>
  <path d="M487.628754 110.126953L487.628754 108.595795L393.916260 108.595795L393.916260 110.126953L487.628754 110.126953Z" style="fill: rgb(100.000000%,100.000000%,100.000000%);stroke: none;"></path>
  <path d="M489.159912 203.839447L489.159912 110.126953L487.628754 110.126953L489.159912 203.839447Z" style="fill: rgb(100.000000%,100.000000%,100.000000%);stroke: none;"></path>
  <path d="M487.628754 110.126953L393.916260 110.126953L393.916260 203.839447L489.159912 203.839447L487.628754 110.126953Z" style="fill: rgb(100.000000%,100.000000%,100.000000%);stroke: none;"></path>
  <path d="M393.916260 302.145432L581.341248 302.145432L581.341248 300.614273L393.916260 302.145432Z" style="fill: rgb(100.000000%,100.000000%,100.000000%);stroke: none;"></path>
  <path d="M581.341248 300.614273L581.341248 203.839447L489.159912 203.839447L581.341248 300.614273Z" style="fill: rgb(100.000000%,100.000000%,100.000000%);stroke: none;"></path>
  <path d="M489.159912 203.839447L393.916260 203.839447L393.916260 302.145432L581.341248 300.614273L489.159912 203.839447Z" style="fill: rgb(100.000000%,100.000000%,100.000000%);stroke: none;"></path>
  <path d="M392.333191 392.795609L393.916260 392.795609L393.916260 302.145432L392.333191 392.795609Z" style="fill: rgb(100.000000%,100.000000%,100.000000%);stroke: none;"></path>
  <path d="M393.916260 108.595795L392.333191 108.595795L392.333191 203.839447L393.916260 108.595795Z" style="fill: rgb(100.000000%,100.000000%,100.000000%);stroke: none;"></path>
  <path d="M392.333191 203.839447L392.333191 392.795609L393.916260 302.145432L393.916260 108.595795L392.333191 203.839447Z" style="fill: rgb(100.000000%,100.000000%,100.000000%);stroke: none;"></path>
  <path d="M111.187057 110.126953L109.655884 110.126953L109.655884 203.839447L111.187057 203.839447L111.187057 110.126953Z" style="fill: rgb(100.000000%,100.000000%,100.000000%);stroke: none;"></path>
  <path d="M203.377029 108.595795L111.187057 108.595795L111.187057 110.126953L203.377029 108.595795Z" style="fill: rgb(100.000000%,100.000000%,100.000000%);stroke: none;"></path>
  <path d="M111.187057 110.126953L111.187057 203.839447L203.377029 203.839447L203.377029 108.595795L111.187057 110.126953Z" style="fill: rgb(100.000000%,100.000000%,100.000000%);stroke: none;"></path>
  <path d="M204.908203 16.414459L203.377029 16.414459L203.377029 108.595795L204.908203 16.414459Z" style="fill: rgb(100.000000%,100.000000%,100.000000%);stroke: none;"></path>
  <path d="M203.377029 108.595795L203.377029 203.839447L204.908203 203.839447L204.908203 16.414459L203.377029 108.595795Z" style="fill: rgb(100.000000%,100.000000%,100.000000%);stroke: none;"></path>
  <path d="M300.151855 14.883301L204.908203 14.883301L204.908203 16.414459L300.151855 14.883301Z" style="fill: rgb(100.000000%,100.000000%,100.000000%);stroke: none;"></path>
  <path d="M204.908203 16.414459L204.908203 203.839447L300.151855 203.839447L300.151855 14.883301L204.908203 16.414459Z" style="fill: rgb(100.000000%,100.000000%,100.000000%);stroke: none;"></path>
  <path d="M392.333191 205.370605L392.333191 203.839447L300.151855 203.839447L392.333191 205.370605Z" style="fill: rgb(100.000000%,100.000000%,100.000000%);stroke: none;"></path>
  <path d="M109.655884 203.839447L109.655884 205.370605L203.377029 205.370605L109.655884 203.839447Z" style="fill: rgb(100.000000%,100.000000%,100.000000%);stroke: none;"></path>
  <path d="M203.377029 205.370605L392.333191 205.370605L300.151855 203.839447L109.655884 203.839447L203.377029 205.370605Z" style="fill: rgb(100.000000%,100.000000%,100.000000%);stroke: none;"></path>
  <path d="M392.333191 205.370605L203.377029 205.370605L203.377029 299.083099L392.333191 205.370605Z" style="fill: rgb(100.000000%,100.000000%,100.000000%);stroke: none;"></path>
  <path d="M203.377029 299.083099L203.377029 392.795609L392.333191 392.795609L392.333191 205.370605L203.377029 299.083099Z" style="fill: rgb(100.000000%,100.000000%,100.000000%);stroke: none;"></path>
  <path d="M15.943390 299.083099L15.891495 392.795609L203.377029 392.795609L203.377029 299.083099L15.943390 299.083099Z" style="fill: rgb(100.000000%,100.000000%,100.000000%);stroke: none;"></path>
  <path d="M206.430710 395.909836L109.655884 395.909836" style="stroke:rgb(100.000000%,100.000000%,100.000000%); stroke-width: 1.000000;stroke-linecap: round;stroke-linejoin: round;stroke-miterlimit: 10.000000;fill: none;"></path>
  <path d="M393.916260 581.812317L298.620697 581.812317" style="stroke:rgb(100.000000%,100.000000%,100.000000%); stroke-width: 1.000000;stroke-linecap: round;stroke-linejoin: round;stroke-miterlimit: 10.000000;fill: none;"></path>
  <path d="M489.159912 395.909836L487.628754 395.909836" style="stroke:rgb(100.000000%,100.000000%,100.000000%); stroke-width: 1.000000;stroke-linecap: round;stroke-linejoin: round;stroke-miterlimit: 10.000000;fill: none;"></path>
  <path d="M487.628754 395.909836L487.628754 488.099808" style="stroke:rgb(100.000000%,100.000000%,100.000000%); stroke-width: 1.000000;stroke-linecap: round;stroke-linejoin: round;stroke-miterlimit: 10.000000;fill: none;"></path>
  <path d="M487.628754 488.099808L393.916260 489.630981" style="stroke:rgb(100.000000%,100.000000%,100.000000%); stroke-width: 1.000000;stroke-linecap: round;stroke-linejoin: round;stroke-miterlimit: 10.000000;fill: none;"></path>
  <path d="M487.628754 488.099808L487.628754 395.909836" style="stroke:rgb(100.000000%,100.000000%,100.000000%); stroke-width: 1.000000;stroke-linecap: round;stroke-linejoin: round;stroke-miterlimit: 10.000000;fill: none;"></path>
  <path d="M487.628754 395.909836L393.916260 395.909836" style="stroke:rgb(100.000000%,100.000000%,100.000000%); stroke-width: 1.000000;stroke-linecap: round;stroke-linejoin: round;stroke-miterlimit: 10.000000;fill: none;"></path>
  <path d="M393.916260 395.909836L393.916260 489.630981" style="stroke:rgb(100.000000%,100.000000%,100.000000%); stroke-width: 1.000000;stroke-linecap: round;stroke-linejoin: round;stroke-miterlimit: 10.000000;fill: none;"></path>
  <path d="M393.916260 489.630981L487.628754 488.099808" style="stroke:rgb(100.000000%,100.000000%,100.000000%); stroke-width: 1.000000;stroke-linecap: round;stroke-linejoin: round;stroke-miterlimit: 10.000000;fill: none;"></path>
  <path d="M298.620697 581.812317L297.089523 395.909836" style="stroke:rgb(100.000000%,100.000000%,100.000000%); stroke-width: 1.000000;stroke-linecap: round;stroke-linejoin: round;stroke-miterlimit: 10.000000;fill: none;"></path>
  <path d="M298.620697 581.812317L393.916260 581.812317" style="stroke:rgb(100.000000%,100.000000%,100.000000%); stroke-width: 1.000000;stroke-linecap: round;stroke-linejoin: round;stroke-miterlimit: 10.000000;fill: none;"></path>
  <path d="M393.916260 489.630981L298.620697 581.812317" style="stroke:rgb(100.000000%,100.000000%,100.000000%); stroke-width: 1.000000;stroke-linecap: round;stroke-linejoin: round;stroke-miterlimit: 10.000000;fill: none;"></path>
  <path d="M393.916260 489.630981L393.916260 395.909836" style="stroke:rgb(100.000000%,100.000000%,100.000000%); stroke-width: 1.000000;stroke-linecap: round;stroke-linejoin: round;stroke-miterlimit: 10.000000;fill: none;"></path>
  <path d="M393.916260 395.909836L297.089523 395.909836" style="stroke:rgb(100.000000%,100.000000%,100.000000%); stroke-width: 1.000000;stroke-linecap: round;stroke-linejoin: round;stroke-miterlimit: 10.000000;fill: none;"></path>
  <path d="M297.089523 395.909836L298.620697 581.812317" style="stroke:rgb(100.000000%,100.000000%,100.000000%); stroke-width: 1.000000;stroke-linecap: round;stroke-linejoin: round;stroke-miterlimit: 10.000000;fill: none;"></path>
  <path d="M298.620697 581.812317L393.916260 489.630981" style="stroke:rgb(100.000000%,100.000000%,100.000000%); stroke-width: 1.000000;stroke-linecap: round;stroke-linejoin: round;stroke-miterlimit: 10.000000;fill: none;"></path>
  <path d="M109.655884 395.909836L15.891495 394.326767" style="stroke:rgb(100.000000%,100.000000%,100.000000%); stroke-width: 1.000000;stroke-linecap: round;stroke-linejoin: round;stroke-miterlimit: 10.000000;fill: none;"></path>
  <path d="M487.628754 394.326767L489.159912 395.909836" style="stroke:rgb(100.000000%,100.000000%,100.000000%); stroke-width: 1.000000;stroke-linecap: round;stroke-linejoin: round;stroke-miterlimit: 10.000000;fill: none;"></path>
  <path d="M15.891495 394.326767L109.655884 395.909836" style="stroke:rgb(100.000000%,100.000000%,100.000000%); stroke-width: 1.000000;stroke-linecap: round;stroke-linejoin: round;stroke-miterlimit: 10.000000;fill: none;"></path>
  <path d="M109.655884 395.909836L206.430710 395.909836" style="stroke:rgb(100.000000%,100.000000%,100.000000%); stroke-width: 1.000000;stroke-linecap: round;stroke-linejoin: round;stroke-miterlimit: 10.000000;fill: none;"></path>
  <path d="M206.430710 395.909836L15.891495 394.326767" style="stroke:rgb(100.000000%,100.000000%,100.000000%); stroke-width: 1.000000;stroke-linecap: round;stroke-linejoin: round;stroke-miterlimit: 10.000000;fill: none;"></path>
  <path d="M15.891495 394.326767L206.430710 395.909836" style="stroke:rgb(100.000000%,100.000000%,100.000000%); stroke-width: 1.000000;stroke-linecap: round;stroke-linejoin: round;stroke-miterlimit: 10.000000;fill: none;"></path>
  <path d="M297.089523 395.909836L15.891495 394.326767" style="stroke:rgb(100.000000%,100.000000%,100.000000%); stroke-width: 1.000000;stroke-linecap: round;stroke-linejoin: round;stroke-miterlimit: 10.000000;fill: none;"></path>
  <path d="M297.089523 395.909836L489.159912 395.909836" style="stroke:rgb(100.000000%,100.000000%,100.000000%); stroke-width: 1.000000;stroke-linecap: round;stroke-linejoin: round;stroke-miterlimit: 10.000000;fill: none;"></path>
  <path d="M489.159912 395.909836L487.628754 394.326767" style="stroke:rgb(100.000000%,100.000000%,100.000000%); stroke-width: 1.000000;stroke-linecap: round;stroke-linejoin: round;stroke-miterlimit: 10.000000;fill: none;"></path>
  <path d="M487.628754 394.326767L15.891495 394.326767" style="stroke:rgb(100.000000%,100.000000%,100.000000%); stroke-width: 1.000000;stroke-linecap: round;stroke-linejoin: round;stroke-miterlimit: 10.000000;fill: none;"></path>
  <path d="M15.891495 394.326767L297.089523 395.909836" style="stroke:rgb(100.000000%,100.000000%,100.000000%); stroke-width: 1.000000;stroke-linecap: round;stroke-linejoin: round;stroke-miterlimit: 10.000000;fill: none;"></path>
  <path d="M393.916260 392.795609L487.628754 394.326767" style="stroke:rgb(100.000000%,100.000000%,100.000000%); stroke-width: 1.000000;stroke-linecap: round;stroke-linejoin: round;stroke-miterlimit: 10.000000;fill: none;"></path>
  <path d="M393.916260 392.795609L15.891495 392.795609" style="stroke:rgb(100.000000%,100.000000%,100.000000%); stroke-width: 1.000000;stroke-linecap: round;stroke-linejoin: round;stroke-miterlimit: 10.000000;fill: none;"></path>
  <path d="M15.891495 394.326767L487.628754 394.326767" style="stroke:rgb(100.000000%,100.000000%,100.000000%); stroke-width: 1.000000;stroke-linecap: round;stroke-linejoin: round;stroke-miterlimit: 10.000000;fill: none;"></path>
  <path d="M487.628754 394.326767L393.916260 392.795609" style="stroke:rgb(100.000000%,100.000000%,100.000000%); stroke-width: 1.000000;stroke-linecap: round;stroke-linejoin: round;stroke-miterlimit: 10.000000;fill: none;"></path>
  <path d="M581.341248 203.839447L581.341248 300.614273" style="stroke:rgb(100.000000%,100.000000%,100.000000%); stroke-width: 1.000000;stroke-linecap: round;stroke-linejoin: round;stroke-miterlimit: 10.000000;fill: none;"></path>
  <path d="M393.916260 108.595795L393.916260 110.126953" style="stroke:rgb(100.000000%,100.000000%,100.000000%); stroke-width: 1.000000;stroke-linecap: round;stroke-linejoin: round;stroke-miterlimit: 10.000000;fill: none;"></path>
  <path d="M393.916260 110.126953L487.628754 110.126953" style="stroke:rgb(100.000000%,100.000000%,100.000000%); stroke-width: 1.000000;stroke-linecap: round;stroke-linejoin: round;stroke-miterlimit: 10.000000;fill: none;"></path>
  <path d="M487.628754 110.126953L489.159912 203.839447" style="stroke:rgb(100.000000%,100.000000%,100.000000%); stroke-width: 1.000000;stroke-linecap: round;stroke-linejoin: round;stroke-miterlimit: 10.000000;fill: none;"></path>
  <path d="M487.628754 110.126953L393.916260 110.126953" style="stroke:rgb(100.000000%,100.000000%,100.000000%); stroke-width: 1.000000;stroke-linecap: round;stroke-linejoin: round;stroke-miterlimit: 10.000000;fill: none;"></path>
  <path d="M393.916260 110.126953L393.916260 203.839447" style="stroke:rgb(100.000000%,100.000000%,100.000000%); stroke-width: 1.000000;stroke-linecap: round;stroke-linejoin: round;stroke-miterlimit: 10.000000;fill: none;"></path>
  <path d="M393.916260 203.839447L489.159912 203.839447" style="stroke:rgb(100.000000%,100.000000%,100.000000%); stroke-width: 1.000000;stroke-linecap: round;stroke-linejoin: round;stroke-miterlimit: 10.000000;fill: none;"></path>
  <path d="M489.159912 203.839447L487.628754 110.126953" style="stroke:rgb(100.000000%,100.000000%,100.000000%); stroke-width: 1.000000;stroke-linecap: round;stroke-linejoin: round;stroke-miterlimit: 10.000000;fill: none;"></path>
  <path d="M581.341248 300.614273L393.916260 302.145432" style="stroke:rgb(100.000000%,100.000000%,100.000000%); stroke-width: 1.000000;stroke-linecap: round;stroke-linejoin: round;stroke-miterlimit: 10.000000;fill: none;"></path>
  <path d="M581.341248 300.614273L581.341248 203.839447" style="stroke:rgb(100.000000%,100.000000%,100.000000%); stroke-width: 1.000000;stroke-linecap: round;stroke-linejoin: round;stroke-miterlimit: 10.000000;fill: none;"></path>
  <path d="M489.159912 203.839447L581.341248 300.614273" style="stroke:rgb(100.000000%,100.000000%,100.000000%); stroke-width: 1.000000;stroke-linecap: round;stroke-linejoin: round;stroke-miterlimit: 10.000000;fill: none;"></path>
  <path d="M489.159912 203.839447L393.916260 203.839447" style="stroke:rgb(100.000000%,100.000000%,100.000000%); stroke-width: 1.000000;stroke-linecap: round;stroke-linejoin: round;stroke-miterlimit: 10.000000;fill: none;"></path>
  <path d="M393.916260 203.839447L393.916260 302.145432" style="stroke:rgb(100.000000%,100.000000%,100.000000%); stroke-width: 1.000000;stroke-linecap: round;stroke-linejoin: round;stroke-miterlimit: 10.000000;fill: none;"></path>
  <path d="M393.916260 302.145432L581.341248 300.614273" style="stroke:rgb(100.000000%,100.000000%,100.000000%); stroke-width: 1.000000;stroke-linecap: round;stroke-linejoin: round;stroke-miterlimit: 10.000000;fill: none;"></path>
  <path d="M581.341248 300.614273L489.159912 203.839447" style="stroke:rgb(100.000000%,100.000000%,100.000000%); stroke-width: 1.000000;stroke-linecap: round;stroke-linejoin: round;stroke-miterlimit: 10.000000;fill: none;"></path>
  <path d="M392.333191 392.795609L393.916260 392.795609" style="stroke:rgb(100.000000%,100.000000%,100.000000%); stroke-width: 1.000000;stroke-linecap: round;stroke-linejoin: round;stroke-miterlimit: 10.000000;fill: none;"></path>
  <path d="M393.916260 302.145432L392.333191 392.795609" style="stroke:rgb(100.000000%,100.000000%,100.000000%); stroke-width: 1.000000;stroke-linecap: round;stroke-linejoin: round;stroke-miterlimit: 10.000000;fill: none;"></path>
  <path d="M392.333191 203.839447L393.916260 108.595795" style="stroke:rgb(100.000000%,100.000000%,100.000000%); stroke-width: 1.000000;stroke-linecap: round;stroke-linejoin: round;stroke-miterlimit: 10.000000;fill: none;"></path>
  <path d="M392.333191 203.839447L392.333191 392.795609" style="stroke:rgb(100.000000%,100.000000%,100.000000%); stroke-width: 1.000000;stroke-linecap: round;stroke-linejoin: round;stroke-miterlimit: 10.000000;fill: none;"></path>
  <path d="M392.333191 392.795609L393.916260 302.145432" style="stroke:rgb(100.000000%,100.000000%,100.000000%); stroke-width: 1.000000;stroke-linecap: round;stroke-linejoin: round;stroke-miterlimit: 10.000000;fill: none;"></path>
  <path d="M393.916260 302.145432L393.916260 108.595795" style="stroke:rgb(100.000000%,100.000000%,100.000000%); stroke-width: 1.000000;stroke-linecap: round;stroke-linejoin: round;stroke-miterlimit: 10.000000;fill: none;"></path>
  <path d="M393.916260 108.595795L392.333191 203.839447" style="stroke:rgb(100.000000%,100.000000%,100.000000%); stroke-width: 1.000000;stroke-linecap: round;stroke-linejoin: round;stroke-miterlimit: 10.000000;fill: none;"></path>
  <path d="M109.655884 203.839447L111.187057 203.839447" style="stroke:rgb(100.000000%,100.000000%,100.000000%); stroke-width: 1.000000;stroke-linecap: round;stroke-linejoin: round;stroke-miterlimit: 10.000000;fill: none;"></path>
  <path d="M111.187057 203.839447L111.187057 110.126953" style="stroke:rgb(100.000000%,100.000000%,100.000000%); stroke-width: 1.000000;stroke-linecap: round;stroke-linejoin: round;stroke-miterlimit: 10.000000;fill: none;"></path>
  <path d="M111.187057 110.126953L203.377029 108.595795" style="stroke:rgb(100.000000%,100.000000%,100.000000%); stroke-width: 1.000000;stroke-linecap: round;stroke-linejoin: round;stroke-miterlimit: 10.000000;fill: none;"></path>
  <path d="M111.187057 110.126953L111.187057 203.839447" style="stroke:rgb(100.000000%,100.000000%,100.000000%); stroke-width: 1.000000;stroke-linecap: round;stroke-linejoin: round;stroke-miterlimit: 10.000000;fill: none;"></path>
  <path d="M111.187057 203.839447L203.377029 203.839447" style="stroke:rgb(100.000000%,100.000000%,100.000000%); stroke-width: 1.000000;stroke-linecap: round;stroke-linejoin: round;stroke-miterlimit: 10.000000;fill: none;"></path>
  <path d="M203.377029 203.839447L203.377029 108.595795" style="stroke:rgb(100.000000%,100.000000%,100.000000%); stroke-width: 1.000000;stroke-linecap: round;stroke-linejoin: round;stroke-miterlimit: 10.000000;fill: none;"></path>
  <path d="M203.377029 108.595795L111.187057 110.126953" style="stroke:rgb(100.000000%,100.000000%,100.000000%); stroke-width: 1.000000;stroke-linecap: round;stroke-linejoin: round;stroke-miterlimit: 10.000000;fill: none;"></path>
  <path d="M203.377029 108.595795L204.908203 16.414459" style="stroke:rgb(100.000000%,100.000000%,100.000000%); stroke-width: 1.000000;stroke-linecap: round;stroke-linejoin: round;stroke-miterlimit: 10.000000;fill: none;"></path>
  <path d="M203.377029 108.595795L203.377029 203.839447" style="stroke:rgb(100.000000%,100.000000%,100.000000%); stroke-width: 1.000000;stroke-linecap: round;stroke-linejoin: round;stroke-miterlimit: 10.000000;fill: none;"></path>
  <path d="M203.377029 203.839447L204.908203 203.839447" style="stroke:rgb(100.000000%,100.000000%,100.000000%); stroke-width: 1.000000;stroke-linecap: round;stroke-linejoin: round;stroke-miterlimit: 10.000000;fill: none;"></path>
  <path d="M204.908203 203.839447L204.908203 16.414459" style="stroke:rgb(100.000000%,100.000000%,100.000000%); stroke-width: 1.000000;stroke-linecap: round;stroke-linejoin: round;stroke-miterlimit: 10.000000;fill: none;"></path>
  <path d="M204.908203 16.414459L203.377029 108.595795" style="stroke:rgb(100.000000%,100.000000%,100.000000%); stroke-width: 1.000000;stroke-linecap: round;stroke-linejoin: round;stroke-miterlimit: 10.000000;fill: none;"></path>
  <path d="M204.908203 16.414459L300.151855 14.883301" style="stroke:rgb(100.000000%,100.000000%,100.000000%); stroke-width: 1.000000;stroke-linecap: round;stroke-linejoin: round;stroke-miterlimit: 10.000000;fill: none;"></path>
  <path d="M204.908203 16.414459L204.908203 203.839447" style="stroke:rgb(100.000000%,100.000000%,100.000000%); stroke-width: 1.000000;stroke-linecap: round;stroke-linejoin: round;stroke-miterlimit: 10.000000;fill: none;"></path>
  <path d="M204.908203 203.839447L300.151855 203.839447" style="stroke:rgb(100.000000%,100.000000%,100.000000%); stroke-width: 1.000000;stroke-linecap: round;stroke-linejoin: round;stroke-miterlimit: 10.000000;fill: none;"></path>
  <path d="M300.151855 14.883301L204.908203 16.414459" style="stroke:rgb(100.000000%,100.000000%,100.000000%); stroke-width: 1.000000;stroke-linecap: round;stroke-linejoin: round;stroke-miterlimit: 10.000000;fill: none;"></path>
  <path d="M392.333191 205.370605L392.333191 203.839447" style="stroke:rgb(100.000000%,100.000000%,100.000000%); stroke-width: 1.000000;stroke-linecap: round;stroke-linejoin: round;stroke-miterlimit: 10.000000;fill: none;"></path>
  <path d="M300.151855 203.839447L392.333191 205.370605" style="stroke:rgb(100.000000%,100.000000%,100.000000%); stroke-width: 1.000000;stroke-linecap: round;stroke-linejoin: round;stroke-miterlimit: 10.000000;fill: none;"></path>
  <path d="M203.377029 205.370605L109.655884 203.839447" style="stroke:rgb(100.000000%,100.000000%,100.000000%); stroke-width: 1.000000;stroke-linecap: round;stroke-linejoin: round;stroke-miterlimit: 10.000000;fill: none;"></path>
  <path d="M203.377029 205.370605L392.333191 205.370605" style="stroke:rgb(100.000000%,100.000000%,100.000000%); stroke-width: 1.000000;stroke-linecap: round;stroke-linejoin: round;stroke-miterlimit: 10.000000;fill: none;"></path>
  <path d="M392.333191 205.370605L300.151855 203.839447" style="stroke:rgb(100.000000%,100.000000%,100.000000%); stroke-width: 1.000000;stroke-linecap: round;stroke-linejoin: round;stroke-miterlimit: 10.000000;fill: none;"></path>
  <path d="M300.151855 203.839447L109.655884 203.839447" style="stroke:rgb(100.000000%,100.000000%,100.000000%); stroke-width: 1.000000;stroke-linecap: round;stroke-linejoin: round;stroke-miterlimit: 10.000000;fill: none;"></path>
  <path d="M109.655884 203.839447L203.377029 205.370605" style="stroke:rgb(100.000000%,100.000000%,100.000000%); stroke-width: 1.000000;stroke-linecap: round;stroke-linejoin: round;stroke-miterlimit: 10.000000;fill: none;"></path>
  <path d="M392.333191 205.370605L203.377029 205.370605" style="stroke:rgb(100.000000%,100.000000%,100.000000%); stroke-width: 1.000000;stroke-linecap: round;stroke-linejoin: round;stroke-miterlimit: 10.000000;fill: none;"></path>
  <path d="M203.377029 299.083099L392.333191 205.370605" style="stroke:rgb(100.000000%,100.000000%,100.000000%); stroke-width: 1.000000;stroke-linecap: round;stroke-linejoin: round;stroke-miterlimit: 10.000000;fill: none;"></path>
  <path d="M203.377029 299.083099L203.377029 392.795609" style="stroke:rgb(100.000000%,100.000000%,100.000000%); stroke-width: 1.000000;stroke-linecap: round;stroke-linejoin: round;stroke-miterlimit: 10.000000;fill: none;"></path>
  <path d="M203.377029 392.795609L392.333191 392.795609" style="stroke:rgb(100.000000%,100.000000%,100.000000%); stroke-width: 1.000000;stroke-linecap: round;stroke-linejoin: round;stroke-miterlimit: 10.000000;fill: none;"></path>
  <path d="M392.333191 392.795609L392.333191 205.370605" style="stroke:rgb(100.000000%,100.000000%,100.000000%); stroke-width: 1.000000;stroke-linecap: round;stroke-linejoin: round;stroke-miterlimit: 10.000000;fill: none;"></path>
  <path d="M392.333191 205.370605L203.377029 299.083099" style="stroke:rgb(100.000000%,100.000000%,100.000000%); stroke-width: 1.000000;stroke-linecap: round;stroke-linejoin: round;stroke-miterlimit: 10.000000;fill: none;"></path>
  <path d="M15.891495 392.795609L203.377029 392.795609" style="stroke:rgb(100.000000%,100.000000%,100.000000%); stroke-width: 1.000000;stroke-linecap: round;stroke-linejoin: round;stroke-miterlimit: 10.000000;fill: none;"></path>
  <path d="M203.377029 392.795609L203.377029 299.083099" style="stroke:rgb(100.000000%,100.000000%,100.000000%); stroke-width: 1.000000;stroke-linecap: round;stroke-linejoin: round;stroke-miterlimit: 10.000000;fill: none;"></path>
  <path d="M109.655884 395.909836L109.655884 489.630981" style="stroke:rgb(0.000000%,0.000000%,0.000000%); stroke-width: 1.000000;stroke-linecap: round;stroke-linejoin: round;stroke-miterlimit: 10.000000;fill: none;"></path>
  <path d="M109.655884 489.630981L206.430710 489.630981" style="stroke:rgb(0.000000%,0.000000%,0.000000%); stroke-width: 1.000000;stroke-linecap: round;stroke-linejoin: round;stroke-miterlimit: 10.000000;fill: none;"></path>
  <path d="M206.430710 489.630981L206.430710 395.909836" style="stroke:rgb(0.000000%,0.000000%,0.000000%); stroke-width: 1.000000;stroke-linecap: round;stroke-linejoin: round;stroke-miterlimit: 10.000000;fill: none;"></path>
  <path d="M298.620697 581.812317L298.620697 583.343475" style="stroke:rgb(0.000000%,0.000000%,0.000000%); stroke-width: 1.000000;stroke-linecap: round;stroke-linejoin: round;stroke-miterlimit: 10.000000;fill: none;"></path>
  <path d="M298.620697 583.343475L393.916260 583.343475" style="stroke:rgb(0.000000%,0.000000%,0.000000%); stroke-width: 1.000000;stroke-linecap: round;stroke-linejoin: round;stroke-miterlimit: 10.000000;fill: none;"></path>
  <path d="M393.916260 583.343475L393.916260 581.812317" style="stroke:rgb(0.000000%,0.000000%,0.000000%); stroke-width: 1.000000;stroke-linecap: round;stroke-linejoin: round;stroke-miterlimit: 10.000000;fill: none;"></path>
  <path d="M487.628754 488.099808L489.159912 488.099808" style="stroke:rgb(0.000000%,0.000000%,0.000000%); stroke-width: 1.000000;stroke-linecap: round;stroke-linejoin: round;stroke-miterlimit: 10.000000;fill: none;"></path>
  <path d="M489.159912 488.099808L489.159912 395.909836" style="stroke:rgb(0.000000%,0.000000%,0.000000%); stroke-width: 1.000000;stroke-linecap: round;stroke-linejoin: round;stroke-miterlimit: 10.000000;fill: none;"></path>
  <path d="M393.916260 489.630981L487.628754 489.630981" style="stroke:rgb(0.000000%,0.000000%,0.000000%); stroke-width: 1.000000;stroke-linecap: round;stroke-linejoin: round;stroke-miterlimit: 10.000000;fill: none;"></path>
  <path d="M487.628754 489.630981L487.628754 488.099808" style="stroke:rgb(0.000000%,0.000000%,0.000000%); stroke-width: 1.000000;stroke-linecap: round;stroke-linejoin: round;stroke-miterlimit: 10.000000;fill: none;"></path>
  <path d="M297.089523 395.909836L297.089523 581.812317" style="stroke:rgb(0.000000%,0.000000%,0.000000%); stroke-width: 1.000000;stroke-linecap: round;stroke-linejoin: round;stroke-miterlimit: 10.000000;fill: none;"></path>
  <path d="M297.089523 581.812317L298.620697 581.812317" style="stroke:rgb(0.000000%,0.000000%,0.000000%); stroke-width: 1.000000;stroke-linecap: round;stroke-linejoin: round;stroke-miterlimit: 10.000000;fill: none;"></path>
  <path d="M393.916260 581.812317L393.916260 489.630981" style="stroke:rgb(0.000000%,0.000000%,0.000000%); stroke-width: 1.000000;stroke-linecap: round;stroke-linejoin: round;stroke-miterlimit: 10.000000;fill: none;"></path>
  <path d="M15.891495 394.326767L15.943390 395.909836" style="stroke:rgb(0.000000%,0.000000%,0.000000%); stroke-width: 1.000000;stroke-linecap: round;stroke-linejoin: round;stroke-miterlimit: 10.000000;fill: none;"></path>
  <path d="M15.943390 395.909836L109.655884 395.909836" style="stroke:rgb(0.000000%,0.000000%,0.000000%); stroke-width: 1.000000;stroke-linecap: round;stroke-linejoin: round;stroke-miterlimit: 10.000000;fill: none;"></path>
  <path d="M489.159912 395.909836L489.159912 394.326767" style="stroke:rgb(0.000000%,0.000000%,0.000000%); stroke-width: 1.000000;stroke-linecap: round;stroke-linejoin: round;stroke-miterlimit: 10.000000;fill: none;"></path>
  <path d="M489.159912 394.326767L487.628754 394.326767" style="stroke:rgb(0.000000%,0.000000%,0.000000%); stroke-width: 1.000000;stroke-linecap: round;stroke-linejoin: round;stroke-miterlimit: 10.000000;fill: none;"></path>
  <path d="M206.430710 395.909836L297.089523 395.909836" style="stroke:rgb(0.000000%,0.000000%,0.000000%); stroke-width: 1.000000;stroke-linecap: round;stroke-linejoin: round;stroke-miterlimit: 10.000000;fill: none;"></path>
  <path d="M487.628754 394.326767L487.628754 392.795609" style="stroke:rgb(0.000000%,0.000000%,0.000000%); stroke-width: 1.000000;stroke-linecap: round;stroke-linejoin: round;stroke-miterlimit: 10.000000;fill: none;"></path>
  <path d="M487.628754 392.795609L393.916260 392.795609" style="stroke:rgb(0.000000%,0.000000%,0.000000%); stroke-width: 1.000000;stroke-linecap: round;stroke-linejoin: round;stroke-miterlimit: 10.000000;fill: none;"></path>
  <path d="M15.891495 392.795609L15.891495 394.326767" style="stroke:rgb(0.000000%,0.000000%,0.000000%); stroke-width: 1.000000;stroke-linecap: round;stroke-linejoin: round;stroke-miterlimit: 10.000000;fill: none;"></path>
  <path d="M581.341248 300.614273L582.872406 300.614273" style="stroke:rgb(0.000000%,0.000000%,0.000000%); stroke-width: 1.000000;stroke-linecap: round;stroke-linejoin: round;stroke-miterlimit: 10.000000;fill: none;"></path>
  <path d="M582.872406 300.614273L582.872406 203.839447" style="stroke:rgb(0.000000%,0.000000%,0.000000%); stroke-width: 1.000000;stroke-linecap: round;stroke-linejoin: round;stroke-miterlimit: 10.000000;fill: none;"></path>
  <path d="M582.872406 203.839447L581.341248 203.839447" style="stroke:rgb(0.000000%,0.000000%,0.000000%); stroke-width: 1.000000;stroke-linecap: round;stroke-linejoin: round;stroke-miterlimit: 10.000000;fill: none;"></path>
  <path d="M487.628754 110.126953L487.628754 108.595795" style="stroke:rgb(0.000000%,0.000000%,0.000000%); stroke-width: 1.000000;stroke-linecap: round;stroke-linejoin: round;stroke-miterlimit: 10.000000;fill: none;"></path>
  <path d="M487.628754 108.595795L393.916260 108.595795" style="stroke:rgb(0.000000%,0.000000%,0.000000%); stroke-width: 1.000000;stroke-linecap: round;stroke-linejoin: round;stroke-miterlimit: 10.000000;fill: none;"></path>
  <path d="M489.159912 203.839447L489.159912 110.126953" style="stroke:rgb(0.000000%,0.000000%,0.000000%); stroke-width: 1.000000;stroke-linecap: round;stroke-linejoin: round;stroke-miterlimit: 10.000000;fill: none;"></path>
  <path d="M489.159912 110.126953L487.628754 110.126953" style="stroke:rgb(0.000000%,0.000000%,0.000000%); stroke-width: 1.000000;stroke-linecap: round;stroke-linejoin: round;stroke-miterlimit: 10.000000;fill: none;"></path>
  <path d="M393.916260 302.145432L581.341248 302.145432" style="stroke:rgb(0.000000%,0.000000%,0.000000%); stroke-width: 1.000000;stroke-linecap: round;stroke-linejoin: round;stroke-miterlimit: 10.000000;fill: none;"></path>
  <path d="M581.341248 302.145432L581.341248 300.614273" style="stroke:rgb(0.000000%,0.000000%,0.000000%); stroke-width: 1.000000;stroke-linecap: round;stroke-linejoin: round;stroke-miterlimit: 10.000000;fill: none;"></path>
  <path d="M581.341248 203.839447L489.159912 203.839447" style="stroke:rgb(0.000000%,0.000000%,0.000000%); stroke-width: 1.000000;stroke-linecap: round;stroke-linejoin: round;stroke-miterlimit: 10.000000;fill: none;"></path>
  <path d="M393.916260 392.795609L393.916260 302.145432" style="stroke:rgb(0.000000%,0.000000%,0.000000%); stroke-width: 1.000000;stroke-linecap: round;stroke-linejoin: round;stroke-miterlimit: 10.000000;fill: none;"></path>
  <path d="M393.916260 108.595795L392.333191 108.595795" style="stroke:rgb(0.000000%,0.000000%,0.000000%); stroke-width: 1.000000;stroke-linecap: round;stroke-linejoin: round;stroke-miterlimit: 10.000000;fill: none;"></path>
  <path d="M392.333191 108.595795L392.333191 203.839447" style="stroke:rgb(0.000000%,0.000000%,0.000000%); stroke-width: 1.000000;stroke-linecap: round;stroke-linejoin: round;stroke-miterlimit: 10.000000;fill: none;"></path>
  <path d="M111.187057 110.126953L109.655884 110.126953" style="stroke:rgb(0.000000%,0.000000%,0.000000%); stroke-width: 1.000000;stroke-linecap: round;stroke-linejoin: round;stroke-miterlimit: 10.000000;fill: none;"></path>
  <path d="M109.655884 110.126953L109.655884 203.839447" style="stroke:rgb(0.000000%,0.000000%,0.000000%); stroke-width: 1.000000;stroke-linecap: round;stroke-linejoin: round;stroke-miterlimit: 10.000000;fill: none;"></path>
  <path d="M203.377029 108.595795L111.187057 108.595795" style="stroke:rgb(0.000000%,0.000000%,0.000000%); stroke-width: 1.000000;stroke-linecap: round;stroke-linejoin: round;stroke-miterlimit: 10.000000;fill: none;"></path>
  <path d="M111.187057 108.595795L111.187057 110.126953" style="stroke:rgb(0.000000%,0.000000%,0.000000%); stroke-width: 1.000000;stroke-linecap: round;stroke-linejoin: round;stroke-miterlimit: 10.000000;fill: none;"></path>
  <path d="M204.908203 16.414459L203.377029 16.414459" style="stroke:rgb(0.000000%,0.000000%,0.000000%); stroke-width: 1.000000;stroke-linecap: round;stroke-linejoin: round;stroke-miterlimit: 10.000000;fill: none;"></path>
  <path d="M203.377029 16.414459L203.377029 108.595795" style="stroke:rgb(0.000000%,0.000000%,0.000000%); stroke-width: 1.000000;stroke-linecap: round;stroke-linejoin: round;stroke-miterlimit: 10.000000;fill: none;"></path>
  <path d="M300.151855 14.883301L204.908203 14.883301" style="stroke:rgb(0.000000%,0.000000%,0.000000%); stroke-width: 1.000000;stroke-linecap: round;stroke-linejoin: round;stroke-miterlimit: 10.000000;fill: none;"></path>
  <path d="M204.908203 14.883301L204.908203 16.414459" style="stroke:rgb(0.000000%,0.000000%,0.000000%); stroke-width: 1.000000;stroke-linecap: round;stroke-linejoin: round;stroke-miterlimit: 10.000000;fill: none;"></path>
  <path d="M300.151855 203.839447L300.151855 14.883301" style="stroke:rgb(0.000000%,0.000000%,0.000000%); stroke-width: 1.000000;stroke-linecap: round;stroke-linejoin: round;stroke-miterlimit: 10.000000;fill: none;"></path>
  <path d="M392.333191 203.839447L300.151855 203.839447" style="stroke:rgb(0.000000%,0.000000%,0.000000%); stroke-width: 1.000000;stroke-linecap: round;stroke-linejoin: round;stroke-miterlimit: 10.000000;fill: none;"></path>
  <path d="M109.655884 203.839447L109.655884 205.370605" style="stroke:rgb(0.000000%,0.000000%,0.000000%); stroke-width: 1.000000;stroke-linecap: round;stroke-linejoin: round;stroke-miterlimit: 10.000000;fill: none;"></path>
  <path d="M109.655884 205.370605L203.377029 205.370605" style="stroke:rgb(0.000000%,0.000000%,0.000000%); stroke-width: 1.000000;stroke-linecap: round;stroke-linejoin: round;stroke-miterlimit: 10.000000;fill: none;"></path>
  <path d="M203.377029 205.370605L203.377029 299.083099" style="stroke:rgb(0.000000%,0.000000%,0.000000%); stroke-width: 1.000000;stroke-linecap: round;stroke-linejoin: round;stroke-miterlimit: 10.000000;fill: none;"></path>
  <path d="M15.943390 299.083099L15.891495 392.795609" style="stroke:rgb(0.000000%,0.000000%,0.000000%); stroke-width: 1.000000;stroke-linecap: round;stroke-linejoin: round;stroke-miterlimit: 10.000000;fill: none;"></path>
  <path d="M203.377029 299.083099L15.943390 299.083099" style="stroke:rgb(0.000000%,0.000000%,0.000000%); stroke-width: 1.000000;stroke-linecap: round;stroke-linejoin: round;stroke-miterlimit: 10.000000;fill: none;"></path>
  <path d="M598.876099 299.126358C598.876099 219.689743,567.315338 143.516144,511.149414 87.350235C454.983505 31.184311,378.809906 -0.376450,299.373291 -0.376450C219.936676 -0.376450,143.763077 31.184311,87.597168 87.350235C31.431244 143.516144,-0.129517 219.689743,-0.129517 299.126358C-0.129517 378.562973,31.431244 454.736572,87.597168 510.902481C143.763077 567.068405,219.936676 598.629166,299.373291 598.629166C378.809906 598.629166,454.983505 567.068405,511.149414 510.902481C567.315338 454.736572,598.876099 378.562973,598.876099 299.126358Z" style="stroke:rgb(25.500488%,41.000366%,88.400269%); stroke-width: 1.000000;stroke-linecap: round;stroke-linejoin: round;stroke-miterlimit: 10.000000;fill: none;"></path>
  <path d="M299.373291 299.126358L393.916260 583.343475" style="stroke:rgb(60.000610%,60.000610%,60.000610%); stroke-width: 1.500000;stroke-linecap: round;stroke-dasharray: 3.000000 3.000000 ;stroke-linejoin: round;stroke-miterlimit: 10.000000;fill: none;"></path>
  <path d="M303.373291 299.126358C303.373291 298.065445,302.951782 297.048111,302.201660 296.297989C301.451538 295.547867,300.434204 295.126358,299.373291 295.126358C298.312378 295.126358,297.295044 295.547867,296.544922 296.297989C295.794800 297.048111,295.373291 298.065445,295.373291 299.126358C295.373291 300.187271,295.794800 301.204605,296.544922 301.954727C297.295044 302.704849,298.312378 303.126358,299.373291 303.126358C300.434204 303.126358,301.451538 302.704849,302.201660 301.954727C302.951782 301.204605,303.373291 300.187271,303.373291 299.126358Z" style="stroke:rgb(39.999390%,39.999390%,39.999390%); stroke-width: 0.500000;stroke-linecap: round;stroke-linejoin: round;stroke-miterlimit: 10.000000;fill: none;"></path>
  <path d="M303.373291 299.126358C303.373291 298.065445,302.951782 297.048111,302.201660 296.297989C301.451538 295.547867,300.434204 295.126358,299.373291 295.126358C298.312378 295.126358,297.295044 295.547867,296.544922 296.297989C295.794800 297.048111,295.373291 298.065445,295.373291 299.126358C295.373291 300.187271,295.794800 301.204605,296.544922 301.954727C297.295044 302.704849,298.312378 303.126358,299.373291 303.126358C300.434204 303.126358,301.451538 302.704849,302.201660 301.954727C302.951782 301.204605,303.373291 300.187271,303.373291 299.126358Z" style="fill: rgb(89.999390%,0.000000%,0.000000%);stroke: none;"></path>
  <path d="M397.916260 583.343475C397.916260 582.282562,397.494751 581.265228,396.744629 580.515106C395.994507 579.764984,394.977173 579.343475,393.916260 579.343475C392.855347 579.343475,391.838013 579.764984,391.087891 580.515106C390.337769 581.265228,389.916260 582.282562,389.916260 583.343475C389.916260 584.404388,390.337769 585.421722,391.087891 586.171844C391.838013 586.921967,392.855347 587.343475,393.916260 587.343475C394.977173 587.343475,395.994507 586.921967,396.744629 586.171844C397.494751 585.421722,397.916260 584.404388,397.916260 583.343475Z" style="stroke:rgb(39.999390%,39.999390%,39.999390%); stroke-width: 0.500000;stroke-linecap: round;stroke-linejoin: round;stroke-miterlimit: 10.000000;fill: none;"></path>
  <path d="M397.916260 583.343475C397.916260 582.282562,397.494751 581.265228,396.744629 580.515106C395.994507 579.764984,394.977173 579.343475,393.916260 579.343475C392.855347 579.343475,391.838013 579.764984,391.087891 580.515106C390.337769 581.265228,389.916260 582.282562,389.916260 583.343475C389.916260 584.404388,390.337769 585.421722,391.087891 586.171844C391.838013 586.921967,392.855347 587.343475,393.916260 587.343475C394.977173 587.343475,395.994507 586.921967,396.744629 586.171844C397.494751 585.421722,397.916260 584.404388,397.916260 583.343475Z" style="fill: rgb(100.000000%,100.000000%,0.000000%);stroke: none;"></path>
  <path d="M299.373291 299.126358L15.943390 395.909836" style="stroke:rgb(60.000610%,60.000610%,60.000610%); stroke-width: 1.500000;stroke-linecap: round;stroke-dasharray: 3.000000 3.000000 ;stroke-linejoin: round;stroke-miterlimit: 10.000000;fill: none;"></path>
  <path d="M303.373291 299.126358C303.373291 298.065445,302.951782 297.048111,302.201660 296.297989C301.451538 295.547867,300.434204 295.126358,299.373291 295.126358C298.312378 295.126358,297.295044 295.547867,296.544922 296.297989C295.794800 297.048111,295.373291 298.065445,295.373291 299.126358C295.373291 300.187271,295.794800 301.204605,296.544922 301.954727C297.295044 302.704849,298.312378 303.126358,299.373291 303.126358C300.434204 303.126358,301.451538 302.704849,302.201660 301.954727C302.951782 301.204605,303.373291 300.187271,303.373291 299.126358Z" style="stroke:rgb(39.999390%,39.999390%,39.999390%); stroke-width: 0.500000;stroke-linecap: round;stroke-linejoin: round;stroke-miterlimit: 10.000000;fill: none;"></path>
  <path d="M303.373291 299.126358C303.373291 298.065445,302.951782 297.048111,302.201660 296.297989C301.451538 295.547867,300.434204 295.126358,299.373291 295.126358C298.312378 295.126358,297.295044 295.547867,296.544922 296.297989C295.794800 297.048111,295.373291 298.065445,295.373291 299.126358C295.373291 300.187271,295.794800 301.204605,296.544922 301.954727C297.295044 302.704849,298.312378 303.126358,299.373291 303.126358C300.434204 303.126358,301.451538 302.704849,302.201660 301.954727C302.951782 301.204605,303.373291 300.187271,303.373291 299.126358Z" style="fill: rgb(89.999390%,0.000000%,0.000000%);stroke: none;"></path>
  <path d="M19.943390 395.909836C19.943390 394.848923,19.521881 393.831589,18.771759 393.081467C18.021637 392.331345,17.004303 391.909836,15.943390 391.909836C14.882477 391.909836,13.865143 392.331345,13.115021 393.081467C12.364899 393.831589,11.943390 394.848923,11.943390 395.909836C11.943390 396.970749,12.364899 397.988083,13.115021 398.738205C13.865143 399.488327,14.882477 399.909836,15.943390 399.909836C17.004303 399.909836,18.021637 399.488327,18.771759 398.738205C19.521881 397.988083,19.943390 396.970749,19.943390 395.909836Z" style="stroke:rgb(39.999390%,39.999390%,39.999390%); stroke-width: 0.500000;stroke-linecap: round;stroke-linejoin: round;stroke-miterlimit: 10.000000;fill: none;"></path>
  <path d="M19.943390 395.909836C19.943390 394.848923,19.521881 393.831589,18.771759 393.081467C18.021637 392.331345,17.004303 391.909836,15.943390 391.909836C14.882477 391.909836,13.865143 392.331345,13.115021 393.081467C12.364899 393.831589,11.943390 394.848923,11.943390 395.909836C11.943390 396.970749,12.364899 397.988083,13.115021 398.738205C13.865143 399.488327,14.882477 399.909836,15.943390 399.909836C17.004303 399.909836,18.021637 399.488327,18.771759 398.738205C19.521881 397.988083,19.943390 396.970749,19.943390 395.909836Z" style="fill: rgb(100.000000%,100.000000%,0.000000%);stroke: none;"></path>
  <path d="M299.373291 299.126358L204.908203 14.883301" style="stroke:rgb(60.000610%,60.000610%,60.000610%); stroke-width: 1.500000;stroke-linecap: round;stroke-dasharray: 3.000000 3.000000 ;stroke-linejoin: round;stroke-miterlimit: 10.000000;fill: none;"></path>
  <path d="M303.373291 299.126358C303.373291 298.065445,302.951782 297.048111,302.201660 296.297989C301.451538 295.547867,300.434204 295.126358,299.373291 295.126358C298.312378 295.126358,297.295044 295.547867,296.544922 296.297989C295.794800 297.048111,295.373291 298.065445,295.373291 299.126358C295.373291 300.187271,295.794800 301.204605,296.544922 301.954727C297.295044 302.704849,298.312378 303.126358,299.373291 303.126358C300.434204 303.126358,301.451538 302.704849,302.201660 301.954727C302.951782 301.204605,303.373291 300.187271,303.373291 299.126358Z" style="stroke:rgb(39.999390%,39.999390%,39.999390%); stroke-width: 0.500000;stroke-linecap: round;stroke-linejoin: round;stroke-miterlimit: 10.000000;fill: none;"></path>
  <path d="M303.373291 299.126358C303.373291 298.065445,302.951782 297.048111,302.201660 296.297989C301.451538 295.547867,300.434204 295.126358,299.373291 295.126358C298.312378 295.126358,297.295044 295.547867,296.544922 296.297989C295.794800 297.048111,295.373291 298.065445,295.373291 299.126358C295.373291 300.187271,295.794800 301.204605,296.544922 301.954727C297.295044 302.704849,298.312378 303.126358,299.373291 303.126358C300.434204 303.126358,301.451538 302.704849,302.201660 301.954727C302.951782 301.204605,303.373291 300.187271,303.373291 299.126358Z" style="fill: rgb(89.999390%,0.000000%,0.000000%);stroke: none;"></path>
  <path d="M208.908203 14.883301C208.908203 13.822388,208.486694 12.805054,207.736572 12.054932C206.986450 11.304810,205.969116 10.883301,204.908203 10.883301C203.847290 10.883301,202.829956 11.304810,202.079834 12.054932C201.329712 12.805054,200.908203 13.822388,200.908203 14.883301C200.908203 15.944214,201.329712 16.961548,202.079834 17.711670C202.829956 18.461792,203.847290 18.883301,204.908203 18.883301C205.969116 18.883301,206.986450 18.461792,207.736572 17.711670C208.486694 16.961548,208.908203 15.944214,208.908203 14.883301Z" style="stroke:rgb(39.999390%,39.999390%,39.999390%); stroke-width: 0.500000;stroke-linecap: round;stroke-linejoin: round;stroke-miterlimit: 10.000000;fill: none;"></path>
  <path d="M208.908203 14.883301C208.908203 13.822388,208.486694 12.805054,207.736572 12.054932C206.986450 11.304810,205.969116 10.883301,204.908203 10.883301C203.847290 10.883301,202.829956 11.304810,202.079834 12.054932C201.329712 12.805054,200.908203 13.822388,200.908203 14.883301C200.908203 15.944214,201.329712 16.961548,202.079834 17.711670C202.829956 18.461792,203.847290 18.883301,204.908203 18.883301C205.969116 18.883301,206.986450 18.461792,207.736572 17.711670C208.486694 16.961548,208.908203 15.944214,208.908203 14.883301Z" style="fill: rgb(100.000000%,100.000000%,0.000000%);stroke: none;"></path>
</svg>
