<?xml version="1.0"?>
<!-- Created by MetaPost 2.00 on 2025.04.10:1953 -->
<svg version="1.1" xmlns="http://www.w3.org/2000/svg" xmlns:xlink="http://www.w3.org/1999/xlink" width="604.772125" height="699.280487" viewBox="0 0 604.772125 699.280487">
<!-- Original BoundingBox: -328.973831 -354.121277 275.798294 345.159210 -->
  <path d="M111.655884 445.909836L111.655884 539.630981L208.430710 539.630981L208.430710 445.909836L111.655884 445.909836Z" style="fill: rgb(100.000000%,100.000000%,100.000000%);stroke: none;"></path>
  <path d="M300.620697 631.812317L300.620697 633.343475L395.916260 633.343475L395.916260 631.812317L300.620697 631.812317Z" style="fill: rgb(100.000000%,100.000000%,100.000000%);stroke: none;"></path>
  <path d="M489.628754 538.099808L491.159912 538.099808L491.159912 445.909836L489.628754 445.909836L489.628754 538.099808Z" style="fill: rgb(100.000000%,100.000000%,100.000000%);stroke: none;"></path>
  <path d="M395.916260 539.630981L489.628754 539.630981L489.628754 538.099808L395.916260 539.630981Z" style="fill: rgb(100.000000%,100.000000%,100.000000%);stroke: none;"></path>
  <path d="M489.628754 538.099808L489.628754 445.909836L395.916260 445.909836L395.916260 539.630981L489.628754 538.099808Z" style="fill: rgb(100.000000%,100.000000%,100.000000%);stroke: none;"></path>
  <path d="M299.089523 445.909836L299.089523 631.812317L300.620697 631.812317L299.089523 445.909836Z" style="fill: rgb(100.000000%,100.000000%,100.000000%);stroke: none;"></path>
  <path d="M300.620697 631.812317L395.916260 631.812317L395.916260 539.630981L300.620697 631.812317Z" style="fill: rgb(100.000000%,100.000000%,100.000000%);stroke: none;"></path>
  <path d="M395.916260 539.630981L395.916260 445.909836L299.089523 445.909836L300.620697 631.812317L395.916260 539.630981Z" style="fill: rgb(100.000000%,100.000000%,100.000000%);stroke: none;"></path>
  <path d="M17.891495 444.326767L17.943390 445.909836L111.655884 445.909836L17.891495 444.326767Z" style="fill: rgb(100.000000%,100.000000%,100.000000%);stroke: none;"></path>
  <path d="M491.159912 445.909836L491.159912 444.326767L489.628754 444.326767L491.159912 445.909836Z" style="fill: rgb(100.000000%,100.000000%,100.000000%);stroke: none;"></path>
  <path d="M17.891495 444.326767L111.655884 445.909836L208.430710 445.909836L17.891495 444.326767Z" style="fill: rgb(100.000000%,100.000000%,100.000000%);stroke: none;"></path>
  <path d="M17.891495 444.326767L208.430710 445.909836L299.089523 445.909836L17.891495 444.326767Z" style="fill: rgb(100.000000%,100.000000%,100.000000%);stroke: none;"></path>
  <path d="M299.089523 445.909836L491.159912 445.909836L489.628754 444.326767L17.891495 444.326767L299.089523 445.909836Z" style="fill: rgb(100.000000%,100.000000%,100.000000%);stroke: none;"></path>
  <path d="M489.628754 444.326767L489.628754 442.795609L395.916260 442.795609L489.628754 444.326767Z" style="fill: rgb(100.000000%,100.000000%,100.000000%);stroke: none;"></path>
  <path d="M395.916260 442.795609L17.891495 442.795609L17.891495 444.326767L489.628754 444.326767L395.916260 442.795609Z" style="fill: rgb(100.000000%,100.000000%,100.000000%);stroke: none;"></path>
  <path d="M583.341248 350.614273L584.872406 350.614273L584.872406 253.839447L583.341248 253.839447L583.341248 350.614273Z" style="fill: rgb(100.000000%,100.000000%,100.000000%);stroke: none;"></path>
  <path d="M489.628754 160.126953L489.628754 158.595795L395.916260 158.595795L395.916260 160.126953L489.628754 160.126953Z" style="fill: rgb(100.000000%,100.000000%,100.000000%);stroke: none;"></path>
  <path d="M491.159912 253.839447L491.159912 160.126953L489.628754 160.126953L491.159912 253.839447Z" style="fill: rgb(100.000000%,100.000000%,100.000000%);stroke: none;"></path>
  <path d="M489.628754 160.126953L395.916260 160.126953L395.916260 253.839447L491.159912 253.839447L489.628754 160.126953Z" style="fill: rgb(100.000000%,100.000000%,100.000000%);stroke: none;"></path>
  <path d="M395.916260 352.145432L583.341248 352.145432L583.341248 350.614273L395.916260 352.145432Z" style="fill: rgb(100.000000%,100.000000%,100.000000%);stroke: none;"></path>
  <path d="M583.341248 350.614273L583.341248 253.839447L491.159912 253.839447L583.341248 350.614273Z" style="fill: rgb(100.000000%,100.000000%,100.000000%);stroke: none;"></path>
  <path d="M491.159912 253.839447L395.916260 253.839447L395.916260 352.145432L583.341248 350.614273L491.159912 253.839447Z" style="fill: rgb(100.000000%,100.000000%,100.000000%);stroke: none;"></path>
  <path d="M394.333191 442.795609L395.916260 442.795609L395.916260 352.145432L394.333191 442.795609Z" style="fill: rgb(100.000000%,100.000000%,100.000000%);stroke: none;"></path>
  <path d="M395.916260 158.595795L394.333191 158.595795L394.333191 253.839447L395.916260 158.595795Z" style="fill: rgb(100.000000%,100.000000%,100.000000%);stroke: none;"></path>
  <path d="M394.333191 253.839447L394.333191 442.795609L395.916260 352.145432L395.916260 158.595795L394.333191 253.839447Z" style="fill: rgb(100.000000%,100.000000%,100.000000%);stroke: none;"></path>
  <path d="M113.187057 160.126953L111.655884 160.126953L111.655884 253.839447L113.187057 253.839447L113.187057 160.126953Z" style="fill: rgb(100.000000%,100.000000%,100.000000%);stroke: none;"></path>
  <path d="M205.377029 158.595795L113.187057 158.595795L113.187057 160.126953L205.377029 158.595795Z" style="fill: rgb(100.000000%,100.000000%,100.000000%);stroke: none;"></path>
  <path d="M113.187057 160.126953L113.187057 253.839447L205.377029 253.839447L205.377029 158.595795L113.187057 160.126953Z" style="fill: rgb(100.000000%,100.000000%,100.000000%);stroke: none;"></path>
  <path d="M206.908203 66.414459L205.377029 66.414459L205.377029 158.595795L206.908203 66.414459Z" style="fill: rgb(100.000000%,100.000000%,100.000000%);stroke: none;"></path>
  <path d="M205.377029 158.595795L205.377029 253.839447L206.908203 253.839447L206.908203 66.414459L205.377029 158.595795Z" style="fill: rgb(100.000000%,100.000000%,100.000000%);stroke: none;"></path>
  <path d="M302.151855 64.883301L206.908203 64.883301L206.908203 66.414459L302.151855 64.883301Z" style="fill: rgb(100.000000%,100.000000%,100.000000%);stroke: none;"></path>
  <path d="M206.908203 66.414459L206.908203 253.839447L302.151855 253.839447L302.151855 64.883301L206.908203 66.414459Z" style="fill: rgb(100.000000%,100.000000%,100.000000%);stroke: none;"></path>
  <path d="M394.333191 255.370605L394.333191 253.839447L302.151855 253.839447L394.333191 255.370605Z" style="fill: rgb(100.000000%,100.000000%,100.000000%);stroke: none;"></path>
  <path d="M111.655884 253.839447L111.655884 255.370605L205.377029 255.370605L111.655884 253.839447Z" style="fill: rgb(100.000000%,100.000000%,100.000000%);stroke: none;"></path>
  <path d="M205.377029 255.370605L394.333191 255.370605L302.151855 253.839447L111.655884 253.839447L205.377029 255.370605Z" style="fill: rgb(100.000000%,100.000000%,100.000000%);stroke: none;"></path>
  <path d="M394.333191 255.370605L205.377029 255.370605L205.377029 349.083099L394.333191 255.370605Z" style="fill: rgb(100.000000%,100.000000%,100.000000%);stroke: none;"></path>
  <path d="M205.377029 349.083099L205.377029 442.795609L394.333191 442.795609L394.333191 255.370605L205.377029 349.083099Z" style="fill: rgb(100.000000%,100.000000%,100.000000%);stroke: none;"></path>
  <path d="M17.943390 349.083099L17.891495 442.795609L205.377029 442.795609L205.377029 349.083099L17.943390 349.083099Z" style="fill: rgb(100.000000%,100.000000%,100.000000%);stroke: none;"></path>
  <path d="M208.430710 445.909836L111.655884 445.909836" style="stroke:rgb(100.000000%,100.000000%,100.000000%); stroke-width: 1.000000;stroke-linecap: round;stroke-linejoin: round;stroke-miterlimit: 10.000000;fill: none;"></path>
  <path d="M395.916260 631.812317L300.620697 631.812317" style="stroke:rgb(100.000000%,100.000000%,100.000000%); stroke-width: 1.000000;stroke-linecap: round;stroke-linejoin: round;stroke-miterlimit: 10.000000;fill: none;"></path>
  <path d="M491.159912 445.909836L489.628754 445.909836" style="stroke:rgb(100.000000%,100.000000%,100.000000%); stroke-width: 1.000000;stroke-linecap: round;stroke-linejoin: round;stroke-miterlimit: 10.000000;fill: none;"></path>
  <path d="M489.628754 445.909836L489.628754 538.099808" style="stroke:rgb(100.000000%,100.000000%,100.000000%); stroke-width: 1.000000;stroke-linecap: round;stroke-linejoin: round;stroke-miterlimit: 10.000000;fill: none;"></path>
  <path d="M489.628754 538.099808L395.916260 539.630981" style="stroke:rgb(100.000000%,100.000000%,100.000000%); stroke-width: 1.000000;stroke-linecap: round;stroke-linejoin: round;stroke-miterlimit: 10.000000;fill: none;"></path>
  <path d="M489.628754 538.099808L489.628754 445.909836" style="stroke:rgb(100.000000%,100.000000%,100.000000%); stroke-width: 1.000000;stroke-linecap: round;stroke-linejoin: round;stroke-miterlimit: 10.000000;fill: none;"></path>
  <path d="M489.628754 445.909836L395.916260 445.909836" style="stroke:rgb(100.000000%,100.000000%,100.000000%); stroke-width: 1.000000;stroke-linecap: round;stroke-linejoin: round;stroke-miterlimit: 10.000000;fill: none;"></path>
  <path d="M395.916260 445.909836L395.916260 539.630981" style="stroke:rgb(100.000000%,100.000000%,100.000000%); stroke-width: 1.000000;stroke-linecap: round;stroke-linejoin: round;stroke-miterlimit: 10.000000;fill: none;"></path>
  <path d="M395.916260 539.630981L489.628754 538.099808" style="stroke:rgb(100.000000%,100.000000%,100.000000%); stroke-width: 1.000000;stroke-linecap: round;stroke-linejoin: round;stroke-miterlimit: 10.000000;fill: none;"></path>
  <path d="M300.620697 631.812317L299.089523 445.909836" style="stroke:rgb(100.000000%,100.000000%,100.000000%); stroke-width: 1.000000;stroke-linecap: round;stroke-linejoin: round;stroke-miterlimit: 10.000000;fill: none;"></path>
  <path d="M300.620697 631.812317L395.916260 631.812317" style="stroke:rgb(100.000000%,100.000000%,100.000000%); stroke-width: 1.000000;stroke-linecap: round;stroke-linejoin: round;stroke-miterlimit: 10.000000;fill: none;"></path>
  <path d="M395.916260 539.630981L300.620697 631.812317" style="stroke:rgb(100.000000%,100.000000%,100.000000%); stroke-width: 1.000000;stroke-linecap: round;stroke-linejoin: round;stroke-miterlimit: 10.000000;fill: none;"></path>
  <path d="M395.916260 539.630981L395.916260 445.909836" style="stroke:rgb(100.000000%,100.000000%,100.000000%); stroke-width: 1.000000;stroke-linecap: round;stroke-linejoin: round;stroke-miterlimit: 10.000000;fill: none;"></path>
  <path d="M395.916260 445.909836L299.089523 445.909836" style="stroke:rgb(100.000000%,100.000000%,100.000000%); stroke-width: 1.000000;stroke-linecap: round;stroke-linejoin: round;stroke-miterlimit: 10.000000;fill: none;"></path>
  <path d="M299.089523 445.909836L300.620697 631.812317" style="stroke:rgb(100.000000%,100.000000%,100.000000%); stroke-width: 1.000000;stroke-linecap: round;stroke-linejoin: round;stroke-miterlimit: 10.000000;fill: none;"></path>
  <path d="M300.620697 631.812317L395.916260 539.630981" style="stroke:rgb(100.000000%,100.000000%,100.000000%); stroke-width: 1.000000;stroke-linecap: round;stroke-linejoin: round;stroke-miterlimit: 10.000000;fill: none;"></path>
  <path d="M111.655884 445.909836L17.891495 444.326767" style="stroke:rgb(100.000000%,100.000000%,100.000000%); stroke-width: 1.000000;stroke-linecap: round;stroke-linejoin: round;stroke-miterlimit: 10.000000;fill: none;"></path>
  <path d="M489.628754 444.326767L491.159912 445.909836" style="stroke:rgb(100.000000%,100.000000%,100.000000%); stroke-width: 1.000000;stroke-linecap: round;stroke-linejoin: round;stroke-miterlimit: 10.000000;fill: none;"></path>
  <path d="M17.891495 444.326767L111.655884 445.909836" style="stroke:rgb(100.000000%,100.000000%,100.000000%); stroke-width: 1.000000;stroke-linecap: round;stroke-linejoin: round;stroke-miterlimit: 10.000000;fill: none;"></path>
  <path d="M111.655884 445.909836L208.430710 445.909836" style="stroke:rgb(100.000000%,100.000000%,100.000000%); stroke-width: 1.000000;stroke-linecap: round;stroke-linejoin: round;stroke-miterlimit: 10.000000;fill: none;"></path>
  <path d="M208.430710 445.909836L17.891495 444.326767" style="stroke:rgb(100.000000%,100.000000%,100.000000%); stroke-width: 1.000000;stroke-linecap: round;stroke-linejoin: round;stroke-miterlimit: 10.000000;fill: none;"></path>
  <path d="M17.891495 444.326767L208.430710 445.909836" style="stroke:rgb(100.000000%,100.000000%,100.000000%); stroke-width: 1.000000;stroke-linecap: round;stroke-linejoin: round;stroke-miterlimit: 10.000000;fill: none;"></path>
  <path d="M299.089523 445.909836L17.891495 444.326767" style="stroke:rgb(100.000000%,100.000000%,100.000000%); stroke-width: 1.000000;stroke-linecap: round;stroke-linejoin: round;stroke-miterlimit: 10.000000;fill: none;"></path>
  <path d="M299.089523 445.909836L491.159912 445.909836" style="stroke:rgb(100.000000%,100.000000%,100.000000%); stroke-width: 1.000000;stroke-linecap: round;stroke-linejoin: round;stroke-miterlimit: 10.000000;fill: none;"></path>
  <path d="M491.159912 445.909836L489.628754 444.326767" style="stroke:rgb(100.000000%,100.000000%,100.000000%); stroke-width: 1.000000;stroke-linecap: round;stroke-linejoin: round;stroke-miterlimit: 10.000000;fill: none;"></path>
  <path d="M489.628754 444.326767L17.891495 444.326767" style="stroke:rgb(100.000000%,100.000000%,100.000000%); stroke-width: 1.000000;stroke-linecap: round;stroke-linejoin: round;stroke-miterlimit: 10.000000;fill: none;"></path>
  <path d="M17.891495 444.326767L299.089523 445.909836" style="stroke:rgb(100.000000%,100.000000%,100.000000%); stroke-width: 1.000000;stroke-linecap: round;stroke-linejoin: round;stroke-miterlimit: 10.000000;fill: none;"></path>
  <path d="M395.916260 442.795609L489.628754 444.326767" style="stroke:rgb(100.000000%,100.000000%,100.000000%); stroke-width: 1.000000;stroke-linecap: round;stroke-linejoin: round;stroke-miterlimit: 10.000000;fill: none;"></path>
  <path d="M395.916260 442.795609L17.891495 442.795609" style="stroke:rgb(100.000000%,100.000000%,100.000000%); stroke-width: 1.000000;stroke-linecap: round;stroke-linejoin: round;stroke-miterlimit: 10.000000;fill: none;"></path>
  <path d="M17.891495 444.326767L489.628754 444.326767" style="stroke:rgb(100.000000%,100.000000%,100.000000%); stroke-width: 1.000000;stroke-linecap: round;stroke-linejoin: round;stroke-miterlimit: 10.000000;fill: none;"></path>
  <path d="M489.628754 444.326767L395.916260 442.795609" style="stroke:rgb(100.000000%,100.000000%,100.000000%); stroke-width: 1.000000;stroke-linecap: round;stroke-linejoin: round;stroke-miterlimit: 10.000000;fill: none;"></path>
  <path d="M583.341248 253.839447L583.341248 350.614273" style="stroke:rgb(100.000000%,100.000000%,100.000000%); stroke-width: 1.000000;stroke-linecap: round;stroke-linejoin: round;stroke-miterlimit: 10.000000;fill: none;"></path>
  <path d="M395.916260 158.595795L395.916260 160.126953" style="stroke:rgb(100.000000%,100.000000%,100.000000%); stroke-width: 1.000000;stroke-linecap: round;stroke-linejoin: round;stroke-miterlimit: 10.000000;fill: none;"></path>
  <path d="M395.916260 160.126953L489.628754 160.126953" style="stroke:rgb(100.000000%,100.000000%,100.000000%); stroke-width: 1.000000;stroke-linecap: round;stroke-linejoin: round;stroke-miterlimit: 10.000000;fill: none;"></path>
  <path d="M489.628754 160.126953L491.159912 253.839447" style="stroke:rgb(100.000000%,100.000000%,100.000000%); stroke-width: 1.000000;stroke-linecap: round;stroke-linejoin: round;stroke-miterlimit: 10.000000;fill: none;"></path>
  <path d="M489.628754 160.126953L395.916260 160.126953" style="stroke:rgb(100.000000%,100.000000%,100.000000%); stroke-width: 1.000000;stroke-linecap: round;stroke-linejoin: round;stroke-miterlimit: 10.000000;fill: none;"></path>
  <path d="M395.916260 160.126953L395.916260 253.839447" style="stroke:rgb(100.000000%,100.000000%,100.000000%); stroke-width: 1.000000;stroke-linecap: round;stroke-linejoin: round;stroke-miterlimit: 10.000000;fill: none;"></path>
  <path d="M395.916260 253.839447L491.159912 253.839447" style="stroke:rgb(100.000000%,100.000000%,100.000000%); stroke-width: 1.000000;stroke-linecap: round;stroke-linejoin: round;stroke-miterlimit: 10.000000;fill: none;"></path>
  <path d="M491.159912 253.839447L489.628754 160.126953" style="stroke:rgb(100.000000%,100.000000%,100.000000%); stroke-width: 1.000000;stroke-linecap: round;stroke-linejoin: round;stroke-miterlimit: 10.000000;fill: none;"></path>
  <path d="M583.341248 350.614273L395.916260 352.145432" style="stroke:rgb(100.000000%,100.000000%,100.000000%); stroke-width: 1.000000;stroke-linecap: round;stroke-linejoin: round;stroke-miterlimit: 10.000000;fill: none;"></path>
  <path d="M583.341248 350.614273L583.341248 253.839447" style="stroke:rgb(100.000000%,100.000000%,100.000000%); stroke-width: 1.000000;stroke-linecap: round;stroke-linejoin: round;stroke-miterlimit: 10.000000;fill: none;"></path>
  <path d="M491.159912 253.839447L583.341248 350.614273" style="stroke:rgb(100.000000%,100.000000%,100.000000%); stroke-width: 1.000000;stroke-linecap: round;stroke-linejoin: round;stroke-miterlimit: 10.000000;fill: none;"></path>
  <path d="M491.159912 253.839447L395.916260 253.839447" style="stroke:rgb(100.000000%,100.000000%,100.000000%); stroke-width: 1.000000;stroke-linecap: round;stroke-linejoin: round;stroke-miterlimit: 10.000000;fill: none;"></path>
  <path d="M395.916260 253.839447L395.916260 352.145432" style="stroke:rgb(100.000000%,100.000000%,100.000000%); stroke-width: 1.000000;stroke-linecap: round;stroke-linejoin: round;stroke-miterlimit: 10.000000;fill: none;"></path>
  <path d="M395.916260 352.145432L583.341248 350.614273" style="stroke:rgb(100.000000%,100.000000%,100.000000%); stroke-width: 1.000000;stroke-linecap: round;stroke-linejoin: round;stroke-miterlimit: 10.000000;fill: none;"></path>
  <path d="M583.341248 350.614273L491.159912 253.839447" style="stroke:rgb(100.000000%,100.000000%,100.000000%); stroke-width: 1.000000;stroke-linecap: round;stroke-linejoin: round;stroke-miterlimit: 10.000000;fill: none;"></path>
  <path d="M394.333191 442.795609L395.916260 442.795609" style="stroke:rgb(100.000000%,100.000000%,100.000000%); stroke-width: 1.000000;stroke-linecap: round;stroke-linejoin: round;stroke-miterlimit: 10.000000;fill: none;"></path>
  <path d="M395.916260 352.145432L394.333191 442.795609" style="stroke:rgb(100.000000%,100.000000%,100.000000%); stroke-width: 1.000000;stroke-linecap: round;stroke-linejoin: round;stroke-miterlimit: 10.000000;fill: none;"></path>
  <path d="M394.333191 253.839447L395.916260 158.595795" style="stroke:rgb(100.000000%,100.000000%,100.000000%); stroke-width: 1.000000;stroke-linecap: round;stroke-linejoin: round;stroke-miterlimit: 10.000000;fill: none;"></path>
  <path d="M394.333191 253.839447L394.333191 442.795609" style="stroke:rgb(100.000000%,100.000000%,100.000000%); stroke-width: 1.000000;stroke-linecap: round;stroke-linejoin: round;stroke-miterlimit: 10.000000;fill: none;"></path>
  <path d="M394.333191 442.795609L395.916260 352.145432" style="stroke:rgb(100.000000%,100.000000%,100.000000%); stroke-width: 1.000000;stroke-linecap: round;stroke-linejoin: round;stroke-miterlimit: 10.000000;fill: none;"></path>
  <path d="M395.916260 352.145432L395.916260 158.595795" style="stroke:rgb(100.000000%,100.000000%,100.000000%); stroke-width: 1.000000;stroke-linecap: round;stroke-linejoin: round;stroke-miterlimit: 10.000000;fill: none;"></path>
  <path d="M395.916260 158.595795L394.333191 253.839447" style="stroke:rgb(100.000000%,100.000000%,100.000000%); stroke-width: 1.000000;stroke-linecap: round;stroke-linejoin: round;stroke-miterlimit: 10.000000;fill: none;"></path>
  <path d="M111.655884 253.839447L113.187057 253.839447" style="stroke:rgb(100.000000%,100.000000%,100.000000%); stroke-width: 1.000000;stroke-linecap: round;stroke-linejoin: round;stroke-miterlimit: 10.000000;fill: none;"></path>
  <path d="M113.187057 253.839447L113.187057 160.126953" style="stroke:rgb(100.000000%,100.000000%,100.000000%); stroke-width: 1.000000;stroke-linecap: round;stroke-linejoin: round;stroke-miterlimit: 10.000000;fill: none;"></path>
  <path d="M113.187057 160.126953L205.377029 158.595795" style="stroke:rgb(100.000000%,100.000000%,100.000000%); stroke-width: 1.000000;stroke-linecap: round;stroke-linejoin: round;stroke-miterlimit: 10.000000;fill: none;"></path>
  <path d="M113.187057 160.126953L113.187057 253.839447" style="stroke:rgb(100.000000%,100.000000%,100.000000%); stroke-width: 1.000000;stroke-linecap: round;stroke-linejoin: round;stroke-miterlimit: 10.000000;fill: none;"></path>
  <path d="M113.187057 253.839447L205.377029 253.839447" style="stroke:rgb(100.000000%,100.000000%,100.000000%); stroke-width: 1.000000;stroke-linecap: round;stroke-linejoin: round;stroke-miterlimit: 10.000000;fill: none;"></path>
  <path d="M205.377029 253.839447L205.377029 158.595795" style="stroke:rgb(100.000000%,100.000000%,100.000000%); stroke-width: 1.000000;stroke-linecap: round;stroke-linejoin: round;stroke-miterlimit: 10.000000;fill: none;"></path>
  <path d="M205.377029 158.595795L113.187057 160.126953" style="stroke:rgb(100.000000%,100.000000%,100.000000%); stroke-width: 1.000000;stroke-linecap: round;stroke-linejoin: round;stroke-miterlimit: 10.000000;fill: none;"></path>
  <path d="M205.377029 158.595795L206.908203 66.414459" style="stroke:rgb(100.000000%,100.000000%,100.000000%); stroke-width: 1.000000;stroke-linecap: round;stroke-linejoin: round;stroke-miterlimit: 10.000000;fill: none;"></path>
  <path d="M205.377029 158.595795L205.377029 253.839447" style="stroke:rgb(100.000000%,100.000000%,100.000000%); stroke-width: 1.000000;stroke-linecap: round;stroke-linejoin: round;stroke-miterlimit: 10.000000;fill: none;"></path>
  <path d="M205.377029 253.839447L206.908203 253.839447" style="stroke:rgb(100.000000%,100.000000%,100.000000%); stroke-width: 1.000000;stroke-linecap: round;stroke-linejoin: round;stroke-miterlimit: 10.000000;fill: none;"></path>
  <path d="M206.908203 253.839447L206.908203 66.414459" style="stroke:rgb(100.000000%,100.000000%,100.000000%); stroke-width: 1.000000;stroke-linecap: round;stroke-linejoin: round;stroke-miterlimit: 10.000000;fill: none;"></path>
  <path d="M206.908203 66.414459L205.377029 158.595795" style="stroke:rgb(100.000000%,100.000000%,100.000000%); stroke-width: 1.000000;stroke-linecap: round;stroke-linejoin: round;stroke-miterlimit: 10.000000;fill: none;"></path>
  <path d="M206.908203 66.414459L302.151855 64.883301" style="stroke:rgb(100.000000%,100.000000%,100.000000%); stroke-width: 1.000000;stroke-linecap: round;stroke-linejoin: round;stroke-miterlimit: 10.000000;fill: none;"></path>
  <path d="M206.908203 66.414459L206.908203 253.839447" style="stroke:rgb(100.000000%,100.000000%,100.000000%); stroke-width: 1.000000;stroke-linecap: round;stroke-linejoin: round;stroke-miterlimit: 10.000000;fill: none;"></path>
  <path d="M206.908203 253.839447L302.151855 253.839447" style="stroke:rgb(100.000000%,100.000000%,100.000000%); stroke-width: 1.000000;stroke-linecap: round;stroke-linejoin: round;stroke-miterlimit: 10.000000;fill: none;"></path>
  <path d="M302.151855 64.883301L206.908203 66.414459" style="stroke:rgb(100.000000%,100.000000%,100.000000%); stroke-width: 1.000000;stroke-linecap: round;stroke-linejoin: round;stroke-miterlimit: 10.000000;fill: none;"></path>
  <path d="M394.333191 255.370605L394.333191 253.839447" style="stroke:rgb(100.000000%,100.000000%,100.000000%); stroke-width: 1.000000;stroke-linecap: round;stroke-linejoin: round;stroke-miterlimit: 10.000000;fill: none;"></path>
  <path d="M302.151855 253.839447L394.333191 255.370605" style="stroke:rgb(100.000000%,100.000000%,100.000000%); stroke-width: 1.000000;stroke-linecap: round;stroke-linejoin: round;stroke-miterlimit: 10.000000;fill: none;"></path>
  <path d="M205.377029 255.370605L111.655884 253.839447" style="stroke:rgb(100.000000%,100.000000%,100.000000%); stroke-width: 1.000000;stroke-linecap: round;stroke-linejoin: round;stroke-miterlimit: 10.000000;fill: none;"></path>
  <path d="M205.377029 255.370605L394.333191 255.370605" style="stroke:rgb(100.000000%,100.000000%,100.000000%); stroke-width: 1.000000;stroke-linecap: round;stroke-linejoin: round;stroke-miterlimit: 10.000000;fill: none;"></path>
  <path d="M394.333191 255.370605L302.151855 253.839447" style="stroke:rgb(100.000000%,100.000000%,100.000000%); stroke-width: 1.000000;stroke-linecap: round;stroke-linejoin: round;stroke-miterlimit: 10.000000;fill: none;"></path>
  <path d="M302.151855 253.839447L111.655884 253.839447" style="stroke:rgb(100.000000%,100.000000%,100.000000%); stroke-width: 1.000000;stroke-linecap: round;stroke-linejoin: round;stroke-miterlimit: 10.000000;fill: none;"></path>
  <path d="M111.655884 253.839447L205.377029 255.370605" style="stroke:rgb(100.000000%,100.000000%,100.000000%); stroke-width: 1.000000;stroke-linecap: round;stroke-linejoin: round;stroke-miterlimit: 10.000000;fill: none;"></path>
  <path d="M394.333191 255.370605L205.377029 255.370605" style="stroke:rgb(100.000000%,100.000000%,100.000000%); stroke-width: 1.000000;stroke-linecap: round;stroke-linejoin: round;stroke-miterlimit: 10.000000;fill: none;"></path>
  <path d="M205.377029 349.083099L394.333191 255.370605" style="stroke:rgb(100.000000%,100.000000%,100.000000%); stroke-width: 1.000000;stroke-linecap: round;stroke-linejoin: round;stroke-miterlimit: 10.000000;fill: none;"></path>
  <path d="M205.377029 349.083099L205.377029 442.795609" style="stroke:rgb(100.000000%,100.000000%,100.000000%); stroke-width: 1.000000;stroke-linecap: round;stroke-linejoin: round;stroke-miterlimit: 10.000000;fill: none;"></path>
  <path d="M205.377029 442.795609L394.333191 442.795609" style="stroke:rgb(100.000000%,100.000000%,100.000000%); stroke-width: 1.000000;stroke-linecap: round;stroke-linejoin: round;stroke-miterlimit: 10.000000;fill: none;"></path>
  <path d="M394.333191 442.795609L394.333191 255.370605" style="stroke:rgb(100.000000%,100.000000%,100.000000%); stroke-width: 1.000000;stroke-linecap: round;stroke-linejoin: round;stroke-miterlimit: 10.000000;fill: none;"></path>
  <path d="M394.333191 255.370605L205.377029 349.083099" style="stroke:rgb(100.000000%,100.000000%,100.000000%); stroke-width: 1.000000;stroke-linecap: round;stroke-linejoin: round;stroke-miterlimit: 10.000000;fill: none;"></path>
  <path d="M17.891495 442.795609L205.377029 442.795609" style="stroke:rgb(100.000000%,100.000000%,100.000000%); stroke-width: 1.000000;stroke-linecap: round;stroke-linejoin: round;stroke-miterlimit: 10.000000;fill: none;"></path>
  <path d="M205.377029 442.795609L205.377029 349.083099" style="stroke:rgb(100.000000%,100.000000%,100.000000%); stroke-width: 1.000000;stroke-linecap: round;stroke-linejoin: round;stroke-miterlimit: 10.000000;fill: none;"></path>
  <path d="M111.655884 445.909836L111.655884 539.630981" style="stroke:rgb(0.000000%,0.000000%,0.000000%); stroke-width: 1.000000;stroke-linecap: round;stroke-linejoin: round;stroke-miterlimit: 10.000000;fill: none;"></path>
  <path d="M111.655884 539.630981L208.430710 539.630981" style="stroke:rgb(0.000000%,0.000000%,0.000000%); stroke-width: 1.000000;stroke-linecap: round;stroke-linejoin: round;stroke-miterlimit: 10.000000;fill: none;"></path>
  <path d="M208.430710 539.630981L208.430710 445.909836" style="stroke:rgb(0.000000%,0.000000%,0.000000%); stroke-width: 1.000000;stroke-linecap: round;stroke-linejoin: round;stroke-miterlimit: 10.000000;fill: none;"></path>
  <path d="M300.620697 631.812317L300.620697 633.343475" style="stroke:rgb(0.000000%,0.000000%,0.000000%); stroke-width: 1.000000;stroke-linecap: round;stroke-linejoin: round;stroke-miterlimit: 10.000000;fill: none;"></path>
  <path d="M300.620697 633.343475L395.916260 633.343475" style="stroke:rgb(0.000000%,0.000000%,0.000000%); stroke-width: 1.000000;stroke-linecap: round;stroke-linejoin: round;stroke-miterlimit: 10.000000;fill: none;"></path>
  <path d="M395.916260 633.343475L395.916260 631.812317" style="stroke:rgb(0.000000%,0.000000%,0.000000%); stroke-width: 1.000000;stroke-linecap: round;stroke-linejoin: round;stroke-miterlimit: 10.000000;fill: none;"></path>
  <path d="M489.628754 538.099808L491.159912 538.099808" style="stroke:rgb(0.000000%,0.000000%,0.000000%); stroke-width: 1.000000;stroke-linecap: round;stroke-linejoin: round;stroke-miterlimit: 10.000000;fill: none;"></path>
  <path d="M491.159912 538.099808L491.159912 445.909836" style="stroke:rgb(0.000000%,0.000000%,0.000000%); stroke-width: 1.000000;stroke-linecap: round;stroke-linejoin: round;stroke-miterlimit: 10.000000;fill: none;"></path>
  <path d="M395.916260 539.630981L489.628754 539.630981" style="stroke:rgb(0.000000%,0.000000%,0.000000%); stroke-width: 1.000000;stroke-linecap: round;stroke-linejoin: round;stroke-miterlimit: 10.000000;fill: none;"></path>
  <path d="M489.628754 539.630981L489.628754 538.099808" style="stroke:rgb(0.000000%,0.000000%,0.000000%); stroke-width: 1.000000;stroke-linecap: round;stroke-linejoin: round;stroke-miterlimit: 10.000000;fill: none;"></path>
  <path d="M299.089523 445.909836L299.089523 631.812317" style="stroke:rgb(0.000000%,0.000000%,0.000000%); stroke-width: 1.000000;stroke-linecap: round;stroke-linejoin: round;stroke-miterlimit: 10.000000;fill: none;"></path>
  <path d="M299.089523 631.812317L300.620697 631.812317" style="stroke:rgb(0.000000%,0.000000%,0.000000%); stroke-width: 1.000000;stroke-linecap: round;stroke-linejoin: round;stroke-miterlimit: 10.000000;fill: none;"></path>
  <path d="M395.916260 631.812317L395.916260 539.630981" style="stroke:rgb(0.000000%,0.000000%,0.000000%); stroke-width: 1.000000;stroke-linecap: round;stroke-linejoin: round;stroke-miterlimit: 10.000000;fill: none;"></path>
  <path d="M17.891495 444.326767L17.943390 445.909836" style="stroke:rgb(0.000000%,0.000000%,0.000000%); stroke-width: 1.000000;stroke-linecap: round;stroke-linejoin: round;stroke-miterlimit: 10.000000;fill: none;"></path>
  <path d="M17.943390 445.909836L111.655884 445.909836" style="stroke:rgb(0.000000%,0.000000%,0.000000%); stroke-width: 1.000000;stroke-linecap: round;stroke-linejoin: round;stroke-miterlimit: 10.000000;fill: none;"></path>
  <path d="M491.159912 445.909836L491.159912 444.326767" style="stroke:rgb(0.000000%,0.000000%,0.000000%); stroke-width: 1.000000;stroke-linecap: round;stroke-linejoin: round;stroke-miterlimit: 10.000000;fill: none;"></path>
  <path d="M491.159912 444.326767L489.628754 444.326767" style="stroke:rgb(0.000000%,0.000000%,0.000000%); stroke-width: 1.000000;stroke-linecap: round;stroke-linejoin: round;stroke-miterlimit: 10.000000;fill: none;"></path>
  <path d="M208.430710 445.909836L299.089523 445.909836" style="stroke:rgb(0.000000%,0.000000%,0.000000%); stroke-width: 1.000000;stroke-linecap: round;stroke-linejoin: round;stroke-miterlimit: 10.000000;fill: none;"></path>
  <path d="M489.628754 444.326767L489.628754 442.795609" style="stroke:rgb(0.000000%,0.000000%,0.000000%); stroke-width: 1.000000;stroke-linecap: round;stroke-linejoin: round;stroke-miterlimit: 10.000000;fill: none;"></path>
  <path d="M489.628754 442.795609L395.916260 442.795609" style="stroke:rgb(0.000000%,0.000000%,0.000000%); stroke-width: 1.000000;stroke-linecap: round;stroke-linejoin: round;stroke-miterlimit: 10.000000;fill: none;"></path>
  <path d="M17.891495 442.795609L17.891495 444.326767" style="stroke:rgb(0.000000%,0.000000%,0.000000%); stroke-width: 1.000000;stroke-linecap: round;stroke-linejoin: round;stroke-miterlimit: 10.000000;fill: none;"></path>
  <path d="M583.341248 350.614273L584.872406 350.614273" style="stroke:rgb(0.000000%,0.000000%,0.000000%); stroke-width: 1.000000;stroke-linecap: round;stroke-linejoin: round;stroke-miterlimit: 10.000000;fill: none;"></path>
  <path d="M584.872406 350.614273L584.872406 253.839447" style="stroke:rgb(0.000000%,0.000000%,0.000000%); stroke-width: 1.000000;stroke-linecap: round;stroke-linejoin: round;stroke-miterlimit: 10.000000;fill: none;"></path>
  <path d="M584.872406 253.839447L583.341248 253.839447" style="stroke:rgb(0.000000%,0.000000%,0.000000%); stroke-width: 1.000000;stroke-linecap: round;stroke-linejoin: round;stroke-miterlimit: 10.000000;fill: none;"></path>
  <path d="M489.628754 160.126953L489.628754 158.595795" style="stroke:rgb(0.000000%,0.000000%,0.000000%); stroke-width: 1.000000;stroke-linecap: round;stroke-linejoin: round;stroke-miterlimit: 10.000000;fill: none;"></path>
  <path d="M489.628754 158.595795L395.916260 158.595795" style="stroke:rgb(0.000000%,0.000000%,0.000000%); stroke-width: 1.000000;stroke-linecap: round;stroke-linejoin: round;stroke-miterlimit: 10.000000;fill: none;"></path>
  <path d="M491.159912 253.839447L491.159912 160.126953" style="stroke:rgb(0.000000%,0.000000%,0.000000%); stroke-width: 1.000000;stroke-linecap: round;stroke-linejoin: round;stroke-miterlimit: 10.000000;fill: none;"></path>
  <path d="M491.159912 160.126953L489.628754 160.126953" style="stroke:rgb(0.000000%,0.000000%,0.000000%); stroke-width: 1.000000;stroke-linecap: round;stroke-linejoin: round;stroke-miterlimit: 10.000000;fill: none;"></path>
  <path d="M395.916260 352.145432L583.341248 352.145432" style="stroke:rgb(0.000000%,0.000000%,0.000000%); stroke-width: 1.000000;stroke-linecap: round;stroke-linejoin: round;stroke-miterlimit: 10.000000;fill: none;"></path>
  <path d="M583.341248 352.145432L583.341248 350.614273" style="stroke:rgb(0.000000%,0.000000%,0.000000%); stroke-width: 1.000000;stroke-linecap: round;stroke-linejoin: round;stroke-miterlimit: 10.000000;fill: none;"></path>
  <path d="M583.341248 253.839447L491.159912 253.839447" style="stroke:rgb(0.000000%,0.000000%,0.000000%); stroke-width: 1.000000;stroke-linecap: round;stroke-linejoin: round;stroke-miterlimit: 10.000000;fill: none;"></path>
  <path d="M395.916260 442.795609L395.916260 352.145432" style="stroke:rgb(0.000000%,0.000000%,0.000000%); stroke-width: 1.000000;stroke-linecap: round;stroke-linejoin: round;stroke-miterlimit: 10.000000;fill: none;"></path>
  <path d="M395.916260 158.595795L394.333191 158.595795" style="stroke:rgb(0.000000%,0.000000%,0.000000%); stroke-width: 1.000000;stroke-linecap: round;stroke-linejoin: round;stroke-miterlimit: 10.000000;fill: none;"></path>
  <path d="M394.333191 158.595795L394.333191 253.839447" style="stroke:rgb(0.000000%,0.000000%,0.000000%); stroke-width: 1.000000;stroke-linecap: round;stroke-linejoin: round;stroke-miterlimit: 10.000000;fill: none;"></path>
  <path d="M113.187057 160.126953L111.655884 160.126953" style="stroke:rgb(0.000000%,0.000000%,0.000000%); stroke-width: 1.000000;stroke-linecap: round;stroke-linejoin: round;stroke-miterlimit: 10.000000;fill: none;"></path>
  <path d="M111.655884 160.126953L111.655884 253.839447" style="stroke:rgb(0.000000%,0.000000%,0.000000%); stroke-width: 1.000000;stroke-linecap: round;stroke-linejoin: round;stroke-miterlimit: 10.000000;fill: none;"></path>
  <path d="M205.377029 158.595795L113.187057 158.595795" style="stroke:rgb(0.000000%,0.000000%,0.000000%); stroke-width: 1.000000;stroke-linecap: round;stroke-linejoin: round;stroke-miterlimit: 10.000000;fill: none;"></path>
  <path d="M113.187057 158.595795L113.187057 160.126953" style="stroke:rgb(0.000000%,0.000000%,0.000000%); stroke-width: 1.000000;stroke-linecap: round;stroke-linejoin: round;stroke-miterlimit: 10.000000;fill: none;"></path>
  <path d="M206.908203 66.414459L205.377029 66.414459" style="stroke:rgb(0.000000%,0.000000%,0.000000%); stroke-width: 1.000000;stroke-linecap: round;stroke-linejoin: round;stroke-miterlimit: 10.000000;fill: none;"></path>
  <path d="M205.377029 66.414459L205.377029 158.595795" style="stroke:rgb(0.000000%,0.000000%,0.000000%); stroke-width: 1.000000;stroke-linecap: round;stroke-linejoin: round;stroke-miterlimit: 10.000000;fill: none;"></path>
  <path d="M302.151855 64.883301L206.908203 64.883301" style="stroke:rgb(0.000000%,0.000000%,0.000000%); stroke-width: 1.000000;stroke-linecap: round;stroke-linejoin: round;stroke-miterlimit: 10.000000;fill: none;"></path>
  <path d="M206.908203 64.883301L206.908203 66.414459" style="stroke:rgb(0.000000%,0.000000%,0.000000%); stroke-width: 1.000000;stroke-linecap: round;stroke-linejoin: round;stroke-miterlimit: 10.000000;fill: none;"></path>
  <path d="M302.151855 253.839447L302.151855 64.883301" style="stroke:rgb(0.000000%,0.000000%,0.000000%); stroke-width: 1.000000;stroke-linecap: round;stroke-linejoin: round;stroke-miterlimit: 10.000000;fill: none;"></path>
  <path d="M394.333191 253.839447L302.151855 253.839447" style="stroke:rgb(0.000000%,0.000000%,0.000000%); stroke-width: 1.000000;stroke-linecap: round;stroke-linejoin: round;stroke-miterlimit: 10.000000;fill: none;"></path>
  <path d="M111.655884 253.839447L111.655884 255.370605" style="stroke:rgb(0.000000%,0.000000%,0.000000%); stroke-width: 1.000000;stroke-linecap: round;stroke-linejoin: round;stroke-miterlimit: 10.000000;fill: none;"></path>
  <path d="M111.655884 255.370605L205.377029 255.370605" style="stroke:rgb(0.000000%,0.000000%,0.000000%); stroke-width: 1.000000;stroke-linecap: round;stroke-linejoin: round;stroke-miterlimit: 10.000000;fill: none;"></path>
  <path d="M205.377029 255.370605L205.377029 349.083099" style="stroke:rgb(0.000000%,0.000000%,0.000000%); stroke-width: 1.000000;stroke-linecap: round;stroke-linejoin: round;stroke-miterlimit: 10.000000;fill: none;"></path>
  <path d="M17.943390 349.083099L17.891495 442.795609" style="stroke:rgb(0.000000%,0.000000%,0.000000%); stroke-width: 1.000000;stroke-linecap: round;stroke-linejoin: round;stroke-miterlimit: 10.000000;fill: none;"></path>
  <path d="M205.377029 349.083099L17.943390 349.083099" style="stroke:rgb(0.000000%,0.000000%,0.000000%); stroke-width: 1.000000;stroke-linecap: round;stroke-linejoin: round;stroke-miterlimit: 10.000000;fill: none;"></path>
  <path d="M603.298294 255.370605C603.298294 187.729492,576.423965 122.866867,528.598099 75.040985C480.772217 27.215118,415.909592 0.340790,348.268478 0.340790C280.627365 0.340790,215.764740 27.215118,167.938858 75.040985C120.112991 122.866867,93.238663 187.729492,93.238663 255.370605C93.238663 323.011719,120.112991 387.874344,167.938858 435.700226C215.764740 483.526093,280.627365 510.400421,348.268478 510.400421C415.909592 510.400421,480.772217 483.526093,528.598099 435.700226C576.423965 387.874344,603.298294 323.011719,603.298294 255.370605Z" style="stroke:rgb(25.500488%,41.000366%,88.400269%); stroke-width: 1.000000;stroke-linecap: round;stroke-linejoin: round;stroke-miterlimit: 10.000000;fill: none;"></path>
  <path d="M509.585800 443.591461C509.585800 375.950348,482.711472 311.087723,434.885605 263.261841C387.059723 215.435974,322.197098 188.561646,254.555984 188.561646C186.914871 188.561646,122.052246 215.435974,74.226364 263.261841C26.400497 311.087723,-0.473831 375.950348,-0.473831 443.591461C-0.473831 511.232574,26.400497 576.095200,74.226364 623.921082C122.052246 671.746948,186.914871 698.621277,254.555984 698.621277C322.197098 698.621277,387.059723 671.746948,434.885605 623.921082C482.711472 576.095200,509.585800 511.232574,509.585800 443.591461Z" style="stroke:rgb(25.500488%,41.000366%,88.400269%); stroke-width: 1.000000;stroke-linecap: round;stroke-linejoin: round;stroke-miterlimit: 10.000000;fill: none;"></path>
  <path d="M348.268478 255.370605L584.872406 350.614273" style="stroke:rgb(60.000610%,60.000610%,60.000610%); stroke-width: 1.500000;stroke-linecap: round;stroke-dasharray: 3.000000 3.000000 ;stroke-linejoin: round;stroke-miterlimit: 10.000000;fill: none;"></path>
  <path d="M352.268478 255.370605C352.268478 254.309692,351.846970 253.292358,351.096848 252.542236C350.346725 251.792114,349.329391 251.370605,348.268478 251.370605C347.207565 251.370605,346.190231 251.792114,345.440109 252.542236C344.689987 253.292358,344.268478 254.309692,344.268478 255.370605C344.268478 256.431519,344.689987 257.448853,345.440109 258.198975C346.190231 258.949097,347.207565 259.370605,348.268478 259.370605C349.329391 259.370605,350.346725 258.949097,351.096848 258.198975C351.846970 257.448853,352.268478 256.431519,352.268478 255.370605Z" style="stroke:rgb(39.999390%,39.999390%,39.999390%); stroke-width: 0.500000;stroke-linecap: round;stroke-linejoin: round;stroke-miterlimit: 10.000000;fill: none;"></path>
  <path d="M352.268478 255.370605C352.268478 254.309692,351.846970 253.292358,351.096848 252.542236C350.346725 251.792114,349.329391 251.370605,348.268478 251.370605C347.207565 251.370605,346.190231 251.792114,345.440109 252.542236C344.689987 253.292358,344.268478 254.309692,344.268478 255.370605C344.268478 256.431519,344.689987 257.448853,345.440109 258.198975C346.190231 258.949097,347.207565 259.370605,348.268478 259.370605C349.329391 259.370605,350.346725 258.949097,351.096848 258.198975C351.846970 257.448853,352.268478 256.431519,352.268478 255.370605Z" style="fill: rgb(89.999390%,0.000000%,0.000000%);stroke: none;"></path>
  <path d="M588.872406 350.614273C588.872406 349.553360,588.450897 348.536026,587.700775 347.785904C586.950653 347.035782,585.933319 346.614273,584.872406 346.614273C583.811493 346.614273,582.794159 347.035782,582.044037 347.785904C581.293915 348.536026,580.872406 349.553360,580.872406 350.614273C580.872406 351.675186,581.293915 352.692520,582.044037 353.442642C582.794159 354.192764,583.811493 354.614273,584.872406 354.614273C585.933319 354.614273,586.950653 354.192764,587.700775 353.442642C588.450897 352.692520,588.872406 351.675186,588.872406 350.614273Z" style="stroke:rgb(39.999390%,39.999390%,39.999390%); stroke-width: 0.500000;stroke-linecap: round;stroke-linejoin: round;stroke-miterlimit: 10.000000;fill: none;"></path>
  <path d="M588.872406 350.614273C588.872406 349.553360,588.450897 348.536026,587.700775 347.785904C586.950653 347.035782,585.933319 346.614273,584.872406 346.614273C583.811493 346.614273,582.794159 347.035782,582.044037 347.785904C581.293915 348.536026,580.872406 349.553360,580.872406 350.614273C580.872406 351.675186,581.293915 352.692520,582.044037 353.442642C582.794159 354.192764,583.811493 354.614273,584.872406 354.614273C585.933319 354.614273,586.950653 354.192764,587.700775 353.442642C588.450897 352.692520,588.872406 351.675186,588.872406 350.614273Z" style="fill: rgb(100.000000%,100.000000%,0.000000%);stroke: none;"></path>
  <path d="M348.268478 255.370605L111.655884 160.126953" style="stroke:rgb(60.000610%,60.000610%,60.000610%); stroke-width: 1.500000;stroke-linecap: round;stroke-dasharray: 3.000000 3.000000 ;stroke-linejoin: round;stroke-miterlimit: 10.000000;fill: none;"></path>
  <path d="M352.268478 255.370605C352.268478 254.309692,351.846970 253.292358,351.096848 252.542236C350.346725 251.792114,349.329391 251.370605,348.268478 251.370605C347.207565 251.370605,346.190231 251.792114,345.440109 252.542236C344.689987 253.292358,344.268478 254.309692,344.268478 255.370605C344.268478 256.431519,344.689987 257.448853,345.440109 258.198975C346.190231 258.949097,347.207565 259.370605,348.268478 259.370605C349.329391 259.370605,350.346725 258.949097,351.096848 258.198975C351.846970 257.448853,352.268478 256.431519,352.268478 255.370605Z" style="stroke:rgb(39.999390%,39.999390%,39.999390%); stroke-width: 0.500000;stroke-linecap: round;stroke-linejoin: round;stroke-miterlimit: 10.000000;fill: none;"></path>
  <path d="M352.268478 255.370605C352.268478 254.309692,351.846970 253.292358,351.096848 252.542236C350.346725 251.792114,349.329391 251.370605,348.268478 251.370605C347.207565 251.370605,346.190231 251.792114,345.440109 252.542236C344.689987 253.292358,344.268478 254.309692,344.268478 255.370605C344.268478 256.431519,344.689987 257.448853,345.440109 258.198975C346.190231 258.949097,347.207565 259.370605,348.268478 259.370605C349.329391 259.370605,350.346725 258.949097,351.096848 258.198975C351.846970 257.448853,352.268478 256.431519,352.268478 255.370605Z" style="fill: rgb(89.999390%,0.000000%,0.000000%);stroke: none;"></path>
  <path d="M115.655884 160.126953C115.655884 159.066040,115.234375 158.048706,114.484253 157.298584C113.734131 156.548462,112.716797 156.126953,111.655884 156.126953C110.594971 156.126953,109.577637 156.548462,108.827515 157.298584C108.077393 158.048706,107.655884 159.066040,107.655884 160.126953C107.655884 161.187866,108.077393 162.205200,108.827515 162.955322C109.577637 163.705444,110.594971 164.126953,111.655884 164.126953C112.716797 164.126953,113.734131 163.705444,114.484253 162.955322C115.234375 162.205200,115.655884 161.187866,115.655884 160.126953Z" style="stroke:rgb(39.999390%,39.999390%,39.999390%); stroke-width: 0.500000;stroke-linecap: round;stroke-linejoin: round;stroke-miterlimit: 10.000000;fill: none;"></path>
  <path d="M115.655884 160.126953C115.655884 159.066040,115.234375 158.048706,114.484253 157.298584C113.734131 156.548462,112.716797 156.126953,111.655884 156.126953C110.594971 156.126953,109.577637 156.548462,108.827515 157.298584C108.077393 158.048706,107.655884 159.066040,107.655884 160.126953C107.655884 161.187866,108.077393 162.205200,108.827515 162.955322C109.577637 163.705444,110.594971 164.126953,111.655884 164.126953C112.716797 164.126953,113.734131 163.705444,114.484253 162.955322C115.234375 162.205200,115.655884 161.187866,115.655884 160.126953Z" style="fill: rgb(100.000000%,100.000000%,0.000000%);stroke: none;"></path>
</svg>
