<?xml version="1.0"?>
<!-- Created by MetaPost 2.00 on 2025.04.10:1954 -->
<svg version="1.1" xmlns="http://www.w3.org/2000/svg" xmlns:xlink="http://www.w3.org/1999/xlink" width="644.573792" height="676.745560" viewBox="0 0 644.573792 676.745560">
<!-- Original BoundingBox: -355.168015 -363.040115 289.405777 313.705444 -->
  <path d="M138.655884 413.909836L138.655884 507.630981L235.430710 507.630981L235.430710 413.909836L138.655884 413.909836Z" style="fill: rgb(100.000000%,100.000000%,100.000000%);stroke: none;"></path>
  <path d="M327.620697 599.812317L327.620697 601.343475L422.916260 601.343475L422.916260 599.812317L327.620697 599.812317Z" style="fill: rgb(100.000000%,100.000000%,100.000000%);stroke: none;"></path>
  <path d="M516.628754 506.099808L518.159912 506.099808L518.159912 413.909836L516.628754 413.909836L516.628754 506.099808Z" style="fill: rgb(100.000000%,100.000000%,100.000000%);stroke: none;"></path>
  <path d="M422.916260 507.630981L516.628754 507.630981L516.628754 506.099808L422.916260 507.630981Z" style="fill: rgb(100.000000%,100.000000%,100.000000%);stroke: none;"></path>
  <path d="M516.628754 506.099808L516.628754 413.909836L422.916260 413.909836L422.916260 507.630981L516.628754 506.099808Z" style="fill: rgb(100.000000%,100.000000%,100.000000%);stroke: none;"></path>
  <path d="M326.089523 413.909836L326.089523 599.812317L327.620697 599.812317L326.089523 413.909836Z" style="fill: rgb(100.000000%,100.000000%,100.000000%);stroke: none;"></path>
  <path d="M327.620697 599.812317L422.916260 599.812317L422.916260 507.630981L327.620697 599.812317Z" style="fill: rgb(100.000000%,100.000000%,100.000000%);stroke: none;"></path>
  <path d="M422.916260 507.630981L422.916260 413.909836L326.089523 413.909836L327.620697 599.812317L422.916260 507.630981Z" style="fill: rgb(100.000000%,100.000000%,100.000000%);stroke: none;"></path>
  <path d="M44.891495 412.326767L44.943390 413.909836L138.655884 413.909836L44.891495 412.326767Z" style="fill: rgb(100.000000%,100.000000%,100.000000%);stroke: none;"></path>
  <path d="M518.159912 413.909836L518.159912 412.326767L516.628754 412.326767L518.159912 413.909836Z" style="fill: rgb(100.000000%,100.000000%,100.000000%);stroke: none;"></path>
  <path d="M44.891495 412.326767L138.655884 413.909836L235.430710 413.909836L44.891495 412.326767Z" style="fill: rgb(100.000000%,100.000000%,100.000000%);stroke: none;"></path>
  <path d="M44.891495 412.326767L235.430710 413.909836L326.089523 413.909836L44.891495 412.326767Z" style="fill: rgb(100.000000%,100.000000%,100.000000%);stroke: none;"></path>
  <path d="M326.089523 413.909836L518.159912 413.909836L516.628754 412.326767L44.891495 412.326767L326.089523 413.909836Z" style="fill: rgb(100.000000%,100.000000%,100.000000%);stroke: none;"></path>
  <path d="M516.628754 412.326767L516.628754 410.795609L422.916260 410.795609L516.628754 412.326767Z" style="fill: rgb(100.000000%,100.000000%,100.000000%);stroke: none;"></path>
  <path d="M422.916260 410.795609L44.891495 410.795609L44.891495 412.326767L516.628754 412.326767L422.916260 410.795609Z" style="fill: rgb(100.000000%,100.000000%,100.000000%);stroke: none;"></path>
  <path d="M610.341248 318.614273L611.872406 318.614273L611.872406 221.839447L610.341248 221.839447L610.341248 318.614273Z" style="fill: rgb(100.000000%,100.000000%,100.000000%);stroke: none;"></path>
  <path d="M516.628754 128.126953L516.628754 126.595795L422.916260 126.595795L422.916260 128.126953L516.628754 128.126953Z" style="fill: rgb(100.000000%,100.000000%,100.000000%);stroke: none;"></path>
  <path d="M518.159912 221.839447L518.159912 128.126953L516.628754 128.126953L518.159912 221.839447Z" style="fill: rgb(100.000000%,100.000000%,100.000000%);stroke: none;"></path>
  <path d="M516.628754 128.126953L422.916260 128.126953L422.916260 221.839447L518.159912 221.839447L516.628754 128.126953Z" style="fill: rgb(100.000000%,100.000000%,100.000000%);stroke: none;"></path>
  <path d="M422.916260 320.145432L610.341248 320.145432L610.341248 318.614273L422.916260 320.145432Z" style="fill: rgb(100.000000%,100.000000%,100.000000%);stroke: none;"></path>
  <path d="M610.341248 318.614273L610.341248 221.839447L518.159912 221.839447L610.341248 318.614273Z" style="fill: rgb(100.000000%,100.000000%,100.000000%);stroke: none;"></path>
  <path d="M518.159912 221.839447L422.916260 221.839447L422.916260 320.145432L610.341248 318.614273L518.159912 221.839447Z" style="fill: rgb(100.000000%,100.000000%,100.000000%);stroke: none;"></path>
  <path d="M421.333191 410.795609L422.916260 410.795609L422.916260 320.145432L421.333191 410.795609Z" style="fill: rgb(100.000000%,100.000000%,100.000000%);stroke: none;"></path>
  <path d="M422.916260 126.595795L421.333191 126.595795L421.333191 221.839447L422.916260 126.595795Z" style="fill: rgb(100.000000%,100.000000%,100.000000%);stroke: none;"></path>
  <path d="M421.333191 221.839447L421.333191 410.795609L422.916260 320.145432L422.916260 126.595795L421.333191 221.839447Z" style="fill: rgb(100.000000%,100.000000%,100.000000%);stroke: none;"></path>
  <path d="M140.187057 128.126953L138.655884 128.126953L138.655884 221.839447L140.187057 221.839447L140.187057 128.126953Z" style="fill: rgb(100.000000%,100.000000%,100.000000%);stroke: none;"></path>
  <path d="M232.377029 126.595795L140.187057 126.595795L140.187057 128.126953L232.377029 126.595795Z" style="fill: rgb(100.000000%,100.000000%,100.000000%);stroke: none;"></path>
  <path d="M140.187057 128.126953L140.187057 221.839447L232.377029 221.839447L232.377029 126.595795L140.187057 128.126953Z" style="fill: rgb(100.000000%,100.000000%,100.000000%);stroke: none;"></path>
  <path d="M233.908203 34.414459L232.377029 34.414459L232.377029 126.595795L233.908203 34.414459Z" style="fill: rgb(100.000000%,100.000000%,100.000000%);stroke: none;"></path>
  <path d="M232.377029 126.595795L232.377029 221.839447L233.908203 221.839447L233.908203 34.414459L232.377029 126.595795Z" style="fill: rgb(100.000000%,100.000000%,100.000000%);stroke: none;"></path>
  <path d="M329.151855 32.883301L233.908203 32.883301L233.908203 34.414459L329.151855 32.883301Z" style="fill: rgb(100.000000%,100.000000%,100.000000%);stroke: none;"></path>
  <path d="M233.908203 34.414459L233.908203 221.839447L329.151855 221.839447L329.151855 32.883301L233.908203 34.414459Z" style="fill: rgb(100.000000%,100.000000%,100.000000%);stroke: none;"></path>
  <path d="M421.333191 223.370605L421.333191 221.839447L329.151855 221.839447L421.333191 223.370605Z" style="fill: rgb(100.000000%,100.000000%,100.000000%);stroke: none;"></path>
  <path d="M138.655884 221.839447L138.655884 223.370605L232.377029 223.370605L138.655884 221.839447Z" style="fill: rgb(100.000000%,100.000000%,100.000000%);stroke: none;"></path>
  <path d="M232.377029 223.370605L421.333191 223.370605L329.151855 221.839447L138.655884 221.839447L232.377029 223.370605Z" style="fill: rgb(100.000000%,100.000000%,100.000000%);stroke: none;"></path>
  <path d="M421.333191 223.370605L232.377029 223.370605L232.377029 317.083099L421.333191 223.370605Z" style="fill: rgb(100.000000%,100.000000%,100.000000%);stroke: none;"></path>
  <path d="M232.377029 317.083099L232.377029 410.795609L421.333191 410.795609L421.333191 223.370605L232.377029 317.083099Z" style="fill: rgb(100.000000%,100.000000%,100.000000%);stroke: none;"></path>
  <path d="M44.943390 317.083099L44.891495 410.795609L232.377029 410.795609L232.377029 317.083099L44.943390 317.083099Z" style="fill: rgb(100.000000%,100.000000%,100.000000%);stroke: none;"></path>
  <path d="M235.430710 413.909836L138.655884 413.909836" style="stroke:rgb(100.000000%,100.000000%,100.000000%); stroke-width: 1.000000;stroke-linecap: round;stroke-linejoin: round;stroke-miterlimit: 10.000000;fill: none;"></path>
  <path d="M422.916260 599.812317L327.620697 599.812317" style="stroke:rgb(100.000000%,100.000000%,100.000000%); stroke-width: 1.000000;stroke-linecap: round;stroke-linejoin: round;stroke-miterlimit: 10.000000;fill: none;"></path>
  <path d="M518.159912 413.909836L516.628754 413.909836" style="stroke:rgb(100.000000%,100.000000%,100.000000%); stroke-width: 1.000000;stroke-linecap: round;stroke-linejoin: round;stroke-miterlimit: 10.000000;fill: none;"></path>
  <path d="M516.628754 413.909836L516.628754 506.099808" style="stroke:rgb(100.000000%,100.000000%,100.000000%); stroke-width: 1.000000;stroke-linecap: round;stroke-linejoin: round;stroke-miterlimit: 10.000000;fill: none;"></path>
  <path d="M516.628754 506.099808L422.916260 507.630981" style="stroke:rgb(100.000000%,100.000000%,100.000000%); stroke-width: 1.000000;stroke-linecap: round;stroke-linejoin: round;stroke-miterlimit: 10.000000;fill: none;"></path>
  <path d="M516.628754 506.099808L516.628754 413.909836" style="stroke:rgb(100.000000%,100.000000%,100.000000%); stroke-width: 1.000000;stroke-linecap: round;stroke-linejoin: round;stroke-miterlimit: 10.000000;fill: none;"></path>
  <path d="M516.628754 413.909836L422.916260 413.909836" style="stroke:rgb(100.000000%,100.000000%,100.000000%); stroke-width: 1.000000;stroke-linecap: round;stroke-linejoin: round;stroke-miterlimit: 10.000000;fill: none;"></path>
  <path d="M422.916260 413.909836L422.916260 507.630981" style="stroke:rgb(100.000000%,100.000000%,100.000000%); stroke-width: 1.000000;stroke-linecap: round;stroke-linejoin: round;stroke-miterlimit: 10.000000;fill: none;"></path>
  <path d="M422.916260 507.630981L516.628754 506.099808" style="stroke:rgb(100.000000%,100.000000%,100.000000%); stroke-width: 1.000000;stroke-linecap: round;stroke-linejoin: round;stroke-miterlimit: 10.000000;fill: none;"></path>
  <path d="M327.620697 599.812317L326.089523 413.909836" style="stroke:rgb(100.000000%,100.000000%,100.000000%); stroke-width: 1.000000;stroke-linecap: round;stroke-linejoin: round;stroke-miterlimit: 10.000000;fill: none;"></path>
  <path d="M327.620697 599.812317L422.916260 599.812317" style="stroke:rgb(100.000000%,100.000000%,100.000000%); stroke-width: 1.000000;stroke-linecap: round;stroke-linejoin: round;stroke-miterlimit: 10.000000;fill: none;"></path>
  <path d="M422.916260 507.630981L327.620697 599.812317" style="stroke:rgb(100.000000%,100.000000%,100.000000%); stroke-width: 1.000000;stroke-linecap: round;stroke-linejoin: round;stroke-miterlimit: 10.000000;fill: none;"></path>
  <path d="M422.916260 507.630981L422.916260 413.909836" style="stroke:rgb(100.000000%,100.000000%,100.000000%); stroke-width: 1.000000;stroke-linecap: round;stroke-linejoin: round;stroke-miterlimit: 10.000000;fill: none;"></path>
  <path d="M422.916260 413.909836L326.089523 413.909836" style="stroke:rgb(100.000000%,100.000000%,100.000000%); stroke-width: 1.000000;stroke-linecap: round;stroke-linejoin: round;stroke-miterlimit: 10.000000;fill: none;"></path>
  <path d="M326.089523 413.909836L327.620697 599.812317" style="stroke:rgb(100.000000%,100.000000%,100.000000%); stroke-width: 1.000000;stroke-linecap: round;stroke-linejoin: round;stroke-miterlimit: 10.000000;fill: none;"></path>
  <path d="M327.620697 599.812317L422.916260 507.630981" style="stroke:rgb(100.000000%,100.000000%,100.000000%); stroke-width: 1.000000;stroke-linecap: round;stroke-linejoin: round;stroke-miterlimit: 10.000000;fill: none;"></path>
  <path d="M138.655884 413.909836L44.891495 412.326767" style="stroke:rgb(100.000000%,100.000000%,100.000000%); stroke-width: 1.000000;stroke-linecap: round;stroke-linejoin: round;stroke-miterlimit: 10.000000;fill: none;"></path>
  <path d="M516.628754 412.326767L518.159912 413.909836" style="stroke:rgb(100.000000%,100.000000%,100.000000%); stroke-width: 1.000000;stroke-linecap: round;stroke-linejoin: round;stroke-miterlimit: 10.000000;fill: none;"></path>
  <path d="M44.891495 412.326767L138.655884 413.909836" style="stroke:rgb(100.000000%,100.000000%,100.000000%); stroke-width: 1.000000;stroke-linecap: round;stroke-linejoin: round;stroke-miterlimit: 10.000000;fill: none;"></path>
  <path d="M138.655884 413.909836L235.430710 413.909836" style="stroke:rgb(100.000000%,100.000000%,100.000000%); stroke-width: 1.000000;stroke-linecap: round;stroke-linejoin: round;stroke-miterlimit: 10.000000;fill: none;"></path>
  <path d="M235.430710 413.909836L44.891495 412.326767" style="stroke:rgb(100.000000%,100.000000%,100.000000%); stroke-width: 1.000000;stroke-linecap: round;stroke-linejoin: round;stroke-miterlimit: 10.000000;fill: none;"></path>
  <path d="M44.891495 412.326767L235.430710 413.909836" style="stroke:rgb(100.000000%,100.000000%,100.000000%); stroke-width: 1.000000;stroke-linecap: round;stroke-linejoin: round;stroke-miterlimit: 10.000000;fill: none;"></path>
  <path d="M326.089523 413.909836L44.891495 412.326767" style="stroke:rgb(100.000000%,100.000000%,100.000000%); stroke-width: 1.000000;stroke-linecap: round;stroke-linejoin: round;stroke-miterlimit: 10.000000;fill: none;"></path>
  <path d="M326.089523 413.909836L518.159912 413.909836" style="stroke:rgb(100.000000%,100.000000%,100.000000%); stroke-width: 1.000000;stroke-linecap: round;stroke-linejoin: round;stroke-miterlimit: 10.000000;fill: none;"></path>
  <path d="M518.159912 413.909836L516.628754 412.326767" style="stroke:rgb(100.000000%,100.000000%,100.000000%); stroke-width: 1.000000;stroke-linecap: round;stroke-linejoin: round;stroke-miterlimit: 10.000000;fill: none;"></path>
  <path d="M516.628754 412.326767L44.891495 412.326767" style="stroke:rgb(100.000000%,100.000000%,100.000000%); stroke-width: 1.000000;stroke-linecap: round;stroke-linejoin: round;stroke-miterlimit: 10.000000;fill: none;"></path>
  <path d="M44.891495 412.326767L326.089523 413.909836" style="stroke:rgb(100.000000%,100.000000%,100.000000%); stroke-width: 1.000000;stroke-linecap: round;stroke-linejoin: round;stroke-miterlimit: 10.000000;fill: none;"></path>
  <path d="M422.916260 410.795609L516.628754 412.326767" style="stroke:rgb(100.000000%,100.000000%,100.000000%); stroke-width: 1.000000;stroke-linecap: round;stroke-linejoin: round;stroke-miterlimit: 10.000000;fill: none;"></path>
  <path d="M422.916260 410.795609L44.891495 410.795609" style="stroke:rgb(100.000000%,100.000000%,100.000000%); stroke-width: 1.000000;stroke-linecap: round;stroke-linejoin: round;stroke-miterlimit: 10.000000;fill: none;"></path>
  <path d="M44.891495 412.326767L516.628754 412.326767" style="stroke:rgb(100.000000%,100.000000%,100.000000%); stroke-width: 1.000000;stroke-linecap: round;stroke-linejoin: round;stroke-miterlimit: 10.000000;fill: none;"></path>
  <path d="M516.628754 412.326767L422.916260 410.795609" style="stroke:rgb(100.000000%,100.000000%,100.000000%); stroke-width: 1.000000;stroke-linecap: round;stroke-linejoin: round;stroke-miterlimit: 10.000000;fill: none;"></path>
  <path d="M610.341248 221.839447L610.341248 318.614273" style="stroke:rgb(100.000000%,100.000000%,100.000000%); stroke-width: 1.000000;stroke-linecap: round;stroke-linejoin: round;stroke-miterlimit: 10.000000;fill: none;"></path>
  <path d="M422.916260 126.595795L422.916260 128.126953" style="stroke:rgb(100.000000%,100.000000%,100.000000%); stroke-width: 1.000000;stroke-linecap: round;stroke-linejoin: round;stroke-miterlimit: 10.000000;fill: none;"></path>
  <path d="M422.916260 128.126953L516.628754 128.126953" style="stroke:rgb(100.000000%,100.000000%,100.000000%); stroke-width: 1.000000;stroke-linecap: round;stroke-linejoin: round;stroke-miterlimit: 10.000000;fill: none;"></path>
  <path d="M516.628754 128.126953L518.159912 221.839447" style="stroke:rgb(100.000000%,100.000000%,100.000000%); stroke-width: 1.000000;stroke-linecap: round;stroke-linejoin: round;stroke-miterlimit: 10.000000;fill: none;"></path>
  <path d="M516.628754 128.126953L422.916260 128.126953" style="stroke:rgb(100.000000%,100.000000%,100.000000%); stroke-width: 1.000000;stroke-linecap: round;stroke-linejoin: round;stroke-miterlimit: 10.000000;fill: none;"></path>
  <path d="M422.916260 128.126953L422.916260 221.839447" style="stroke:rgb(100.000000%,100.000000%,100.000000%); stroke-width: 1.000000;stroke-linecap: round;stroke-linejoin: round;stroke-miterlimit: 10.000000;fill: none;"></path>
  <path d="M422.916260 221.839447L518.159912 221.839447" style="stroke:rgb(100.000000%,100.000000%,100.000000%); stroke-width: 1.000000;stroke-linecap: round;stroke-linejoin: round;stroke-miterlimit: 10.000000;fill: none;"></path>
  <path d="M518.159912 221.839447L516.628754 128.126953" style="stroke:rgb(100.000000%,100.000000%,100.000000%); stroke-width: 1.000000;stroke-linecap: round;stroke-linejoin: round;stroke-miterlimit: 10.000000;fill: none;"></path>
  <path d="M610.341248 318.614273L422.916260 320.145432" style="stroke:rgb(100.000000%,100.000000%,100.000000%); stroke-width: 1.000000;stroke-linecap: round;stroke-linejoin: round;stroke-miterlimit: 10.000000;fill: none;"></path>
  <path d="M610.341248 318.614273L610.341248 221.839447" style="stroke:rgb(100.000000%,100.000000%,100.000000%); stroke-width: 1.000000;stroke-linecap: round;stroke-linejoin: round;stroke-miterlimit: 10.000000;fill: none;"></path>
  <path d="M518.159912 221.839447L610.341248 318.614273" style="stroke:rgb(100.000000%,100.000000%,100.000000%); stroke-width: 1.000000;stroke-linecap: round;stroke-linejoin: round;stroke-miterlimit: 10.000000;fill: none;"></path>
  <path d="M518.159912 221.839447L422.916260 221.839447" style="stroke:rgb(100.000000%,100.000000%,100.000000%); stroke-width: 1.000000;stroke-linecap: round;stroke-linejoin: round;stroke-miterlimit: 10.000000;fill: none;"></path>
  <path d="M422.916260 221.839447L422.916260 320.145432" style="stroke:rgb(100.000000%,100.000000%,100.000000%); stroke-width: 1.000000;stroke-linecap: round;stroke-linejoin: round;stroke-miterlimit: 10.000000;fill: none;"></path>
  <path d="M422.916260 320.145432L610.341248 318.614273" style="stroke:rgb(100.000000%,100.000000%,100.000000%); stroke-width: 1.000000;stroke-linecap: round;stroke-linejoin: round;stroke-miterlimit: 10.000000;fill: none;"></path>
  <path d="M610.341248 318.614273L518.159912 221.839447" style="stroke:rgb(100.000000%,100.000000%,100.000000%); stroke-width: 1.000000;stroke-linecap: round;stroke-linejoin: round;stroke-miterlimit: 10.000000;fill: none;"></path>
  <path d="M421.333191 410.795609L422.916260 410.795609" style="stroke:rgb(100.000000%,100.000000%,100.000000%); stroke-width: 1.000000;stroke-linecap: round;stroke-linejoin: round;stroke-miterlimit: 10.000000;fill: none;"></path>
  <path d="M422.916260 320.145432L421.333191 410.795609" style="stroke:rgb(100.000000%,100.000000%,100.000000%); stroke-width: 1.000000;stroke-linecap: round;stroke-linejoin: round;stroke-miterlimit: 10.000000;fill: none;"></path>
  <path d="M421.333191 221.839447L422.916260 126.595795" style="stroke:rgb(100.000000%,100.000000%,100.000000%); stroke-width: 1.000000;stroke-linecap: round;stroke-linejoin: round;stroke-miterlimit: 10.000000;fill: none;"></path>
  <path d="M421.333191 221.839447L421.333191 410.795609" style="stroke:rgb(100.000000%,100.000000%,100.000000%); stroke-width: 1.000000;stroke-linecap: round;stroke-linejoin: round;stroke-miterlimit: 10.000000;fill: none;"></path>
  <path d="M421.333191 410.795609L422.916260 320.145432" style="stroke:rgb(100.000000%,100.000000%,100.000000%); stroke-width: 1.000000;stroke-linecap: round;stroke-linejoin: round;stroke-miterlimit: 10.000000;fill: none;"></path>
  <path d="M422.916260 320.145432L422.916260 126.595795" style="stroke:rgb(100.000000%,100.000000%,100.000000%); stroke-width: 1.000000;stroke-linecap: round;stroke-linejoin: round;stroke-miterlimit: 10.000000;fill: none;"></path>
  <path d="M422.916260 126.595795L421.333191 221.839447" style="stroke:rgb(100.000000%,100.000000%,100.000000%); stroke-width: 1.000000;stroke-linecap: round;stroke-linejoin: round;stroke-miterlimit: 10.000000;fill: none;"></path>
  <path d="M138.655884 221.839447L140.187057 221.839447" style="stroke:rgb(100.000000%,100.000000%,100.000000%); stroke-width: 1.000000;stroke-linecap: round;stroke-linejoin: round;stroke-miterlimit: 10.000000;fill: none;"></path>
  <path d="M140.187057 221.839447L140.187057 128.126953" style="stroke:rgb(100.000000%,100.000000%,100.000000%); stroke-width: 1.000000;stroke-linecap: round;stroke-linejoin: round;stroke-miterlimit: 10.000000;fill: none;"></path>
  <path d="M140.187057 128.126953L232.377029 126.595795" style="stroke:rgb(100.000000%,100.000000%,100.000000%); stroke-width: 1.000000;stroke-linecap: round;stroke-linejoin: round;stroke-miterlimit: 10.000000;fill: none;"></path>
  <path d="M140.187057 128.126953L140.187057 221.839447" style="stroke:rgb(100.000000%,100.000000%,100.000000%); stroke-width: 1.000000;stroke-linecap: round;stroke-linejoin: round;stroke-miterlimit: 10.000000;fill: none;"></path>
  <path d="M140.187057 221.839447L232.377029 221.839447" style="stroke:rgb(100.000000%,100.000000%,100.000000%); stroke-width: 1.000000;stroke-linecap: round;stroke-linejoin: round;stroke-miterlimit: 10.000000;fill: none;"></path>
  <path d="M232.377029 221.839447L232.377029 126.595795" style="stroke:rgb(100.000000%,100.000000%,100.000000%); stroke-width: 1.000000;stroke-linecap: round;stroke-linejoin: round;stroke-miterlimit: 10.000000;fill: none;"></path>
  <path d="M232.377029 126.595795L140.187057 128.126953" style="stroke:rgb(100.000000%,100.000000%,100.000000%); stroke-width: 1.000000;stroke-linecap: round;stroke-linejoin: round;stroke-miterlimit: 10.000000;fill: none;"></path>
  <path d="M232.377029 126.595795L233.908203 34.414459" style="stroke:rgb(100.000000%,100.000000%,100.000000%); stroke-width: 1.000000;stroke-linecap: round;stroke-linejoin: round;stroke-miterlimit: 10.000000;fill: none;"></path>
  <path d="M232.377029 126.595795L232.377029 221.839447" style="stroke:rgb(100.000000%,100.000000%,100.000000%); stroke-width: 1.000000;stroke-linecap: round;stroke-linejoin: round;stroke-miterlimit: 10.000000;fill: none;"></path>
  <path d="M232.377029 221.839447L233.908203 221.839447" style="stroke:rgb(100.000000%,100.000000%,100.000000%); stroke-width: 1.000000;stroke-linecap: round;stroke-linejoin: round;stroke-miterlimit: 10.000000;fill: none;"></path>
  <path d="M233.908203 221.839447L233.908203 34.414459" style="stroke:rgb(100.000000%,100.000000%,100.000000%); stroke-width: 1.000000;stroke-linecap: round;stroke-linejoin: round;stroke-miterlimit: 10.000000;fill: none;"></path>
  <path d="M233.908203 34.414459L232.377029 126.595795" style="stroke:rgb(100.000000%,100.000000%,100.000000%); stroke-width: 1.000000;stroke-linecap: round;stroke-linejoin: round;stroke-miterlimit: 10.000000;fill: none;"></path>
  <path d="M233.908203 34.414459L329.151855 32.883301" style="stroke:rgb(100.000000%,100.000000%,100.000000%); stroke-width: 1.000000;stroke-linecap: round;stroke-linejoin: round;stroke-miterlimit: 10.000000;fill: none;"></path>
  <path d="M233.908203 34.414459L233.908203 221.839447" style="stroke:rgb(100.000000%,100.000000%,100.000000%); stroke-width: 1.000000;stroke-linecap: round;stroke-linejoin: round;stroke-miterlimit: 10.000000;fill: none;"></path>
  <path d="M233.908203 221.839447L329.151855 221.839447" style="stroke:rgb(100.000000%,100.000000%,100.000000%); stroke-width: 1.000000;stroke-linecap: round;stroke-linejoin: round;stroke-miterlimit: 10.000000;fill: none;"></path>
  <path d="M329.151855 32.883301L233.908203 34.414459" style="stroke:rgb(100.000000%,100.000000%,100.000000%); stroke-width: 1.000000;stroke-linecap: round;stroke-linejoin: round;stroke-miterlimit: 10.000000;fill: none;"></path>
  <path d="M421.333191 223.370605L421.333191 221.839447" style="stroke:rgb(100.000000%,100.000000%,100.000000%); stroke-width: 1.000000;stroke-linecap: round;stroke-linejoin: round;stroke-miterlimit: 10.000000;fill: none;"></path>
  <path d="M329.151855 221.839447L421.333191 223.370605" style="stroke:rgb(100.000000%,100.000000%,100.000000%); stroke-width: 1.000000;stroke-linecap: round;stroke-linejoin: round;stroke-miterlimit: 10.000000;fill: none;"></path>
  <path d="M232.377029 223.370605L138.655884 221.839447" style="stroke:rgb(100.000000%,100.000000%,100.000000%); stroke-width: 1.000000;stroke-linecap: round;stroke-linejoin: round;stroke-miterlimit: 10.000000;fill: none;"></path>
  <path d="M232.377029 223.370605L421.333191 223.370605" style="stroke:rgb(100.000000%,100.000000%,100.000000%); stroke-width: 1.000000;stroke-linecap: round;stroke-linejoin: round;stroke-miterlimit: 10.000000;fill: none;"></path>
  <path d="M421.333191 223.370605L329.151855 221.839447" style="stroke:rgb(100.000000%,100.000000%,100.000000%); stroke-width: 1.000000;stroke-linecap: round;stroke-linejoin: round;stroke-miterlimit: 10.000000;fill: none;"></path>
  <path d="M329.151855 221.839447L138.655884 221.839447" style="stroke:rgb(100.000000%,100.000000%,100.000000%); stroke-width: 1.000000;stroke-linecap: round;stroke-linejoin: round;stroke-miterlimit: 10.000000;fill: none;"></path>
  <path d="M138.655884 221.839447L232.377029 223.370605" style="stroke:rgb(100.000000%,100.000000%,100.000000%); stroke-width: 1.000000;stroke-linecap: round;stroke-linejoin: round;stroke-miterlimit: 10.000000;fill: none;"></path>
  <path d="M421.333191 223.370605L232.377029 223.370605" style="stroke:rgb(100.000000%,100.000000%,100.000000%); stroke-width: 1.000000;stroke-linecap: round;stroke-linejoin: round;stroke-miterlimit: 10.000000;fill: none;"></path>
  <path d="M232.377029 317.083099L421.333191 223.370605" style="stroke:rgb(100.000000%,100.000000%,100.000000%); stroke-width: 1.000000;stroke-linecap: round;stroke-linejoin: round;stroke-miterlimit: 10.000000;fill: none;"></path>
  <path d="M232.377029 317.083099L232.377029 410.795609" style="stroke:rgb(100.000000%,100.000000%,100.000000%); stroke-width: 1.000000;stroke-linecap: round;stroke-linejoin: round;stroke-miterlimit: 10.000000;fill: none;"></path>
  <path d="M232.377029 410.795609L421.333191 410.795609" style="stroke:rgb(100.000000%,100.000000%,100.000000%); stroke-width: 1.000000;stroke-linecap: round;stroke-linejoin: round;stroke-miterlimit: 10.000000;fill: none;"></path>
  <path d="M421.333191 410.795609L421.333191 223.370605" style="stroke:rgb(100.000000%,100.000000%,100.000000%); stroke-width: 1.000000;stroke-linecap: round;stroke-linejoin: round;stroke-miterlimit: 10.000000;fill: none;"></path>
  <path d="M421.333191 223.370605L232.377029 317.083099" style="stroke:rgb(100.000000%,100.000000%,100.000000%); stroke-width: 1.000000;stroke-linecap: round;stroke-linejoin: round;stroke-miterlimit: 10.000000;fill: none;"></path>
  <path d="M44.891495 410.795609L232.377029 410.795609" style="stroke:rgb(100.000000%,100.000000%,100.000000%); stroke-width: 1.000000;stroke-linecap: round;stroke-linejoin: round;stroke-miterlimit: 10.000000;fill: none;"></path>
  <path d="M232.377029 410.795609L232.377029 317.083099" style="stroke:rgb(100.000000%,100.000000%,100.000000%); stroke-width: 1.000000;stroke-linecap: round;stroke-linejoin: round;stroke-miterlimit: 10.000000;fill: none;"></path>
  <path d="M138.655884 413.909836L138.655884 507.630981" style="stroke:rgb(0.000000%,0.000000%,0.000000%); stroke-width: 1.000000;stroke-linecap: round;stroke-linejoin: round;stroke-miterlimit: 10.000000;fill: none;"></path>
  <path d="M138.655884 507.630981L235.430710 507.630981" style="stroke:rgb(0.000000%,0.000000%,0.000000%); stroke-width: 1.000000;stroke-linecap: round;stroke-linejoin: round;stroke-miterlimit: 10.000000;fill: none;"></path>
  <path d="M235.430710 507.630981L235.430710 413.909836" style="stroke:rgb(0.000000%,0.000000%,0.000000%); stroke-width: 1.000000;stroke-linecap: round;stroke-linejoin: round;stroke-miterlimit: 10.000000;fill: none;"></path>
  <path d="M327.620697 599.812317L327.620697 601.343475" style="stroke:rgb(0.000000%,0.000000%,0.000000%); stroke-width: 1.000000;stroke-linecap: round;stroke-linejoin: round;stroke-miterlimit: 10.000000;fill: none;"></path>
  <path d="M327.620697 601.343475L422.916260 601.343475" style="stroke:rgb(0.000000%,0.000000%,0.000000%); stroke-width: 1.000000;stroke-linecap: round;stroke-linejoin: round;stroke-miterlimit: 10.000000;fill: none;"></path>
  <path d="M422.916260 601.343475L422.916260 599.812317" style="stroke:rgb(0.000000%,0.000000%,0.000000%); stroke-width: 1.000000;stroke-linecap: round;stroke-linejoin: round;stroke-miterlimit: 10.000000;fill: none;"></path>
  <path d="M516.628754 506.099808L518.159912 506.099808" style="stroke:rgb(0.000000%,0.000000%,0.000000%); stroke-width: 1.000000;stroke-linecap: round;stroke-linejoin: round;stroke-miterlimit: 10.000000;fill: none;"></path>
  <path d="M518.159912 506.099808L518.159912 413.909836" style="stroke:rgb(0.000000%,0.000000%,0.000000%); stroke-width: 1.000000;stroke-linecap: round;stroke-linejoin: round;stroke-miterlimit: 10.000000;fill: none;"></path>
  <path d="M422.916260 507.630981L516.628754 507.630981" style="stroke:rgb(0.000000%,0.000000%,0.000000%); stroke-width: 1.000000;stroke-linecap: round;stroke-linejoin: round;stroke-miterlimit: 10.000000;fill: none;"></path>
  <path d="M516.628754 507.630981L516.628754 506.099808" style="stroke:rgb(0.000000%,0.000000%,0.000000%); stroke-width: 1.000000;stroke-linecap: round;stroke-linejoin: round;stroke-miterlimit: 10.000000;fill: none;"></path>
  <path d="M326.089523 413.909836L326.089523 599.812317" style="stroke:rgb(0.000000%,0.000000%,0.000000%); stroke-width: 1.000000;stroke-linecap: round;stroke-linejoin: round;stroke-miterlimit: 10.000000;fill: none;"></path>
  <path d="M326.089523 599.812317L327.620697 599.812317" style="stroke:rgb(0.000000%,0.000000%,0.000000%); stroke-width: 1.000000;stroke-linecap: round;stroke-linejoin: round;stroke-miterlimit: 10.000000;fill: none;"></path>
  <path d="M422.916260 599.812317L422.916260 507.630981" style="stroke:rgb(0.000000%,0.000000%,0.000000%); stroke-width: 1.000000;stroke-linecap: round;stroke-linejoin: round;stroke-miterlimit: 10.000000;fill: none;"></path>
  <path d="M44.891495 412.326767L44.943390 413.909836" style="stroke:rgb(0.000000%,0.000000%,0.000000%); stroke-width: 1.000000;stroke-linecap: round;stroke-linejoin: round;stroke-miterlimit: 10.000000;fill: none;"></path>
  <path d="M44.943390 413.909836L138.655884 413.909836" style="stroke:rgb(0.000000%,0.000000%,0.000000%); stroke-width: 1.000000;stroke-linecap: round;stroke-linejoin: round;stroke-miterlimit: 10.000000;fill: none;"></path>
  <path d="M518.159912 413.909836L518.159912 412.326767" style="stroke:rgb(0.000000%,0.000000%,0.000000%); stroke-width: 1.000000;stroke-linecap: round;stroke-linejoin: round;stroke-miterlimit: 10.000000;fill: none;"></path>
  <path d="M518.159912 412.326767L516.628754 412.326767" style="stroke:rgb(0.000000%,0.000000%,0.000000%); stroke-width: 1.000000;stroke-linecap: round;stroke-linejoin: round;stroke-miterlimit: 10.000000;fill: none;"></path>
  <path d="M235.430710 413.909836L326.089523 413.909836" style="stroke:rgb(0.000000%,0.000000%,0.000000%); stroke-width: 1.000000;stroke-linecap: round;stroke-linejoin: round;stroke-miterlimit: 10.000000;fill: none;"></path>
  <path d="M516.628754 412.326767L516.628754 410.795609" style="stroke:rgb(0.000000%,0.000000%,0.000000%); stroke-width: 1.000000;stroke-linecap: round;stroke-linejoin: round;stroke-miterlimit: 10.000000;fill: none;"></path>
  <path d="M516.628754 410.795609L422.916260 410.795609" style="stroke:rgb(0.000000%,0.000000%,0.000000%); stroke-width: 1.000000;stroke-linecap: round;stroke-linejoin: round;stroke-miterlimit: 10.000000;fill: none;"></path>
  <path d="M44.891495 410.795609L44.891495 412.326767" style="stroke:rgb(0.000000%,0.000000%,0.000000%); stroke-width: 1.000000;stroke-linecap: round;stroke-linejoin: round;stroke-miterlimit: 10.000000;fill: none;"></path>
  <path d="M610.341248 318.614273L611.872406 318.614273" style="stroke:rgb(0.000000%,0.000000%,0.000000%); stroke-width: 1.000000;stroke-linecap: round;stroke-linejoin: round;stroke-miterlimit: 10.000000;fill: none;"></path>
  <path d="M611.872406 318.614273L611.872406 221.839447" style="stroke:rgb(0.000000%,0.000000%,0.000000%); stroke-width: 1.000000;stroke-linecap: round;stroke-linejoin: round;stroke-miterlimit: 10.000000;fill: none;"></path>
  <path d="M611.872406 221.839447L610.341248 221.839447" style="stroke:rgb(0.000000%,0.000000%,0.000000%); stroke-width: 1.000000;stroke-linecap: round;stroke-linejoin: round;stroke-miterlimit: 10.000000;fill: none;"></path>
  <path d="M516.628754 128.126953L516.628754 126.595795" style="stroke:rgb(0.000000%,0.000000%,0.000000%); stroke-width: 1.000000;stroke-linecap: round;stroke-linejoin: round;stroke-miterlimit: 10.000000;fill: none;"></path>
  <path d="M516.628754 126.595795L422.916260 126.595795" style="stroke:rgb(0.000000%,0.000000%,0.000000%); stroke-width: 1.000000;stroke-linecap: round;stroke-linejoin: round;stroke-miterlimit: 10.000000;fill: none;"></path>
  <path d="M518.159912 221.839447L518.159912 128.126953" style="stroke:rgb(0.000000%,0.000000%,0.000000%); stroke-width: 1.000000;stroke-linecap: round;stroke-linejoin: round;stroke-miterlimit: 10.000000;fill: none;"></path>
  <path d="M518.159912 128.126953L516.628754 128.126953" style="stroke:rgb(0.000000%,0.000000%,0.000000%); stroke-width: 1.000000;stroke-linecap: round;stroke-linejoin: round;stroke-miterlimit: 10.000000;fill: none;"></path>
  <path d="M422.916260 320.145432L610.341248 320.145432" style="stroke:rgb(0.000000%,0.000000%,0.000000%); stroke-width: 1.000000;stroke-linecap: round;stroke-linejoin: round;stroke-miterlimit: 10.000000;fill: none;"></path>
  <path d="M610.341248 320.145432L610.341248 318.614273" style="stroke:rgb(0.000000%,0.000000%,0.000000%); stroke-width: 1.000000;stroke-linecap: round;stroke-linejoin: round;stroke-miterlimit: 10.000000;fill: none;"></path>
  <path d="M610.341248 221.839447L518.159912 221.839447" style="stroke:rgb(0.000000%,0.000000%,0.000000%); stroke-width: 1.000000;stroke-linecap: round;stroke-linejoin: round;stroke-miterlimit: 10.000000;fill: none;"></path>
  <path d="M422.916260 410.795609L422.916260 320.145432" style="stroke:rgb(0.000000%,0.000000%,0.000000%); stroke-width: 1.000000;stroke-linecap: round;stroke-linejoin: round;stroke-miterlimit: 10.000000;fill: none;"></path>
  <path d="M422.916260 126.595795L421.333191 126.595795" style="stroke:rgb(0.000000%,0.000000%,0.000000%); stroke-width: 1.000000;stroke-linecap: round;stroke-linejoin: round;stroke-miterlimit: 10.000000;fill: none;"></path>
  <path d="M421.333191 126.595795L421.333191 221.839447" style="stroke:rgb(0.000000%,0.000000%,0.000000%); stroke-width: 1.000000;stroke-linecap: round;stroke-linejoin: round;stroke-miterlimit: 10.000000;fill: none;"></path>
  <path d="M140.187057 128.126953L138.655884 128.126953" style="stroke:rgb(0.000000%,0.000000%,0.000000%); stroke-width: 1.000000;stroke-linecap: round;stroke-linejoin: round;stroke-miterlimit: 10.000000;fill: none;"></path>
  <path d="M138.655884 128.126953L138.655884 221.839447" style="stroke:rgb(0.000000%,0.000000%,0.000000%); stroke-width: 1.000000;stroke-linecap: round;stroke-linejoin: round;stroke-miterlimit: 10.000000;fill: none;"></path>
  <path d="M232.377029 126.595795L140.187057 126.595795" style="stroke:rgb(0.000000%,0.000000%,0.000000%); stroke-width: 1.000000;stroke-linecap: round;stroke-linejoin: round;stroke-miterlimit: 10.000000;fill: none;"></path>
  <path d="M140.187057 126.595795L140.187057 128.126953" style="stroke:rgb(0.000000%,0.000000%,0.000000%); stroke-width: 1.000000;stroke-linecap: round;stroke-linejoin: round;stroke-miterlimit: 10.000000;fill: none;"></path>
  <path d="M233.908203 34.414459L232.377029 34.414459" style="stroke:rgb(0.000000%,0.000000%,0.000000%); stroke-width: 1.000000;stroke-linecap: round;stroke-linejoin: round;stroke-miterlimit: 10.000000;fill: none;"></path>
  <path d="M232.377029 34.414459L232.377029 126.595795" style="stroke:rgb(0.000000%,0.000000%,0.000000%); stroke-width: 1.000000;stroke-linecap: round;stroke-linejoin: round;stroke-miterlimit: 10.000000;fill: none;"></path>
  <path d="M329.151855 32.883301L233.908203 32.883301" style="stroke:rgb(0.000000%,0.000000%,0.000000%); stroke-width: 1.000000;stroke-linecap: round;stroke-linejoin: round;stroke-miterlimit: 10.000000;fill: none;"></path>
  <path d="M233.908203 32.883301L233.908203 34.414459" style="stroke:rgb(0.000000%,0.000000%,0.000000%); stroke-width: 1.000000;stroke-linecap: round;stroke-linejoin: round;stroke-miterlimit: 10.000000;fill: none;"></path>
  <path d="M329.151855 221.839447L329.151855 32.883301" style="stroke:rgb(0.000000%,0.000000%,0.000000%); stroke-width: 1.000000;stroke-linecap: round;stroke-linejoin: round;stroke-miterlimit: 10.000000;fill: none;"></path>
  <path d="M421.333191 221.839447L329.151855 221.839447" style="stroke:rgb(0.000000%,0.000000%,0.000000%); stroke-width: 1.000000;stroke-linecap: round;stroke-linejoin: round;stroke-miterlimit: 10.000000;fill: none;"></path>
  <path d="M138.655884 221.839447L138.655884 223.370605" style="stroke:rgb(0.000000%,0.000000%,0.000000%); stroke-width: 1.000000;stroke-linecap: round;stroke-linejoin: round;stroke-miterlimit: 10.000000;fill: none;"></path>
  <path d="M138.655884 223.370605L232.377029 223.370605" style="stroke:rgb(0.000000%,0.000000%,0.000000%); stroke-width: 1.000000;stroke-linecap: round;stroke-linejoin: round;stroke-miterlimit: 10.000000;fill: none;"></path>
  <path d="M232.377029 223.370605L232.377029 317.083099" style="stroke:rgb(0.000000%,0.000000%,0.000000%); stroke-width: 1.000000;stroke-linecap: round;stroke-linejoin: round;stroke-miterlimit: 10.000000;fill: none;"></path>
  <path d="M44.943390 317.083099L44.891495 410.795609" style="stroke:rgb(0.000000%,0.000000%,0.000000%); stroke-width: 1.000000;stroke-linecap: round;stroke-linejoin: round;stroke-miterlimit: 10.000000;fill: none;"></path>
  <path d="M232.377029 317.083099L44.943390 317.083099" style="stroke:rgb(0.000000%,0.000000%,0.000000%); stroke-width: 1.000000;stroke-linecap: round;stroke-linejoin: round;stroke-miterlimit: 10.000000;fill: none;"></path>
  <path d="M556.101669 420.968765C556.101669 388.601700,543.241989 357.564178,520.356750 334.678955C497.471527 311.793716,466.434006 298.934036,434.066940 298.934036C401.699875 298.934036,370.662354 311.793716,347.777130 334.678955C324.891891 357.564178,312.032211 388.601700,312.032211 420.968765C312.032211 453.335831,324.891891 484.373352,347.777130 507.258575C370.662354 530.143814,401.699875 543.003494,434.066940 543.003494C466.434006 543.003494,497.471527 530.143814,520.356750 507.258575C543.241989 484.373352,556.101669 453.335831,556.101669 420.968765Z" style="stroke:rgb(25.500488%,41.000366%,88.400269%); stroke-width: 1.000000;stroke-linecap: round;stroke-linejoin: round;stroke-miterlimit: 10.000000;fill: none;"></path>
  <path d="M432.665543 553.505386C432.665543 521.138321,419.805862 490.100800,396.920624 467.215576C374.035400 444.330338,342.997879 431.470657,310.630814 431.470657C278.263748 431.470657,247.226227 444.330338,224.341003 467.215576C201.455765 490.100800,188.596085 521.138321,188.596085 553.505386C188.596085 585.872452,201.455765 616.909973,224.341003 639.795197C247.226227 662.680435,278.263748 675.540115,310.630814 675.540115C342.997879 675.540115,374.035400 662.680435,396.920624 639.795197C419.805862 616.909973,432.665543 585.872452,432.665543 553.505386Z" style="stroke:rgb(25.500488%,41.000366%,88.400269%); stroke-width: 1.000000;stroke-linecap: round;stroke-linejoin: round;stroke-miterlimit: 10.000000;fill: none;"></path>
  <path d="M441.774673 319.920517C441.774673 287.553452,428.914993 256.515930,406.029755 233.630707C383.144531 210.745468,352.107010 197.885788,319.739944 197.885788C287.372879 197.885788,256.335358 210.745468,233.450134 233.630707C210.564896 256.515930,197.705215 287.553452,197.705215 319.920517C197.705215 352.287582,210.564896 383.325104,233.450134 406.210327C256.335358 429.095566,287.372879 441.955246,319.739944 441.955246C352.107010 441.955246,383.144531 429.095566,406.029755 406.210327C428.914993 383.325104,441.774673 352.287582,441.774673 319.920517Z" style="stroke:rgb(25.500488%,41.000366%,88.400269%); stroke-width: 1.000000;stroke-linecap: round;stroke-linejoin: round;stroke-miterlimit: 10.000000;fill: none;"></path>
  <path d="M643.905777 239.002335C643.905777 206.635269,631.046097 175.597748,608.160858 152.712524C585.275635 129.827286,554.238113 116.967606,521.871048 116.967606C489.503983 116.967606,458.466461 129.827286,435.581238 152.712524C412.695999 175.597748,399.836319 206.635269,399.836319 239.002335C399.836319 271.369400,412.695999 302.406921,435.581238 325.292145C458.466461 348.177383,489.503983 361.037064,521.871048 361.037064C554.238113 361.037064,585.275635 348.177383,608.160858 325.292145C631.046097 302.406921,643.905777 271.369400,643.905777 239.002335Z" style="stroke:rgb(25.500488%,41.000366%,88.400269%); stroke-width: 1.000000;stroke-linecap: round;stroke-linejoin: round;stroke-miterlimit: 10.000000;fill: none;"></path>
  <path d="M244.401443 411.461700C244.401443 379.094635,231.541763 348.057114,208.656525 325.171890C185.771301 302.286652,154.733780 289.426971,122.366714 289.426971C89.999649 289.426971,58.962128 302.286652,36.076904 325.171890C13.191666 348.057114,0.331985 379.094635,0.331985 411.461700C0.331985 443.828766,13.191666 474.866287,36.076904 497.751511C58.962128 520.636749,89.999649 533.496429,122.366714 533.496429C154.733780 533.496429,185.771301 520.636749,208.656525 497.751511C231.541763 474.866287,244.401443 443.828766,244.401443 411.461700Z" style="stroke:rgb(25.500488%,41.000366%,88.400269%); stroke-width: 1.000000;stroke-linecap: round;stroke-linejoin: round;stroke-miterlimit: 10.000000;fill: none;"></path>
  <path d="M485.088486 121.829285C485.088486 89.462219,472.228806 58.424698,449.343567 35.539474C426.458344 12.654236,395.420822 -0.205444,363.053757 -0.205444C330.686691 -0.205444,299.649170 12.654236,276.763947 35.539474C253.878708 58.424698,241.019028 89.462219,241.019028 121.829285C241.019028 154.196350,253.878708 185.233871,276.763947 208.119095C299.649170 231.004333,330.686691 243.864014,363.053757 243.864014C395.420822 243.864014,426.458344 231.004333,449.343567 208.119095C472.228806 185.233871,485.088486 154.196350,485.088486 121.829285Z" style="stroke:rgb(25.500488%,41.000366%,88.400269%); stroke-width: 1.000000;stroke-linecap: round;stroke-linejoin: round;stroke-miterlimit: 10.000000;fill: none;"></path>
  <path d="M332.949493 128.126953C332.949493 95.759888,320.089813 64.722366,297.204575 41.837143C274.319351 18.951904,243.281830 6.092224,210.914764 6.092224C178.547699 6.092224,147.510178 18.951904,124.624954 41.837143C101.739716 64.722366,88.880035 95.759888,88.880035 128.126953C88.880035 160.494019,101.739716 191.531540,124.624954 214.416763C147.510178 237.302002,178.547699 250.161682,210.914764 250.161682C243.281830 250.161682,274.319351 237.302002,297.204575 214.416763C320.089813 191.531540,332.949493 160.494019,332.949493 128.126953Z" style="stroke:rgb(25.500488%,41.000366%,88.400269%); stroke-width: 1.000000;stroke-linecap: round;stroke-linejoin: round;stroke-miterlimit: 10.000000;fill: none;"></path>
  <path d="M310.630814 553.505386L422.916260 601.343475" style="stroke:rgb(60.000610%,60.000610%,60.000610%); stroke-width: 1.500000;stroke-linecap: round;stroke-dasharray: 3.000000 3.000000 ;stroke-linejoin: round;stroke-miterlimit: 10.000000;fill: none;"></path>
  <path d="M314.630814 553.505386C314.630814 552.444473,314.209305 551.427139,313.459183 550.677017C312.709061 549.926895,311.691727 549.505386,310.630814 549.505386C309.569901 549.505386,308.552567 549.926895,307.802444 550.677017C307.052322 551.427139,306.630814 552.444473,306.630814 553.505386C306.630814 554.566299,307.052322 555.583633,307.802444 556.333755C308.552567 557.083878,309.569901 557.505386,310.630814 557.505386C311.691727 557.505386,312.709061 557.083878,313.459183 556.333755C314.209305 555.583633,314.630814 554.566299,314.630814 553.505386Z" style="stroke:rgb(39.999390%,39.999390%,39.999390%); stroke-width: 0.500000;stroke-linecap: round;stroke-linejoin: round;stroke-miterlimit: 10.000000;fill: none;"></path>
  <path d="M314.630814 553.505386C314.630814 552.444473,314.209305 551.427139,313.459183 550.677017C312.709061 549.926895,311.691727 549.505386,310.630814 549.505386C309.569901 549.505386,308.552567 549.926895,307.802444 550.677017C307.052322 551.427139,306.630814 552.444473,306.630814 553.505386C306.630814 554.566299,307.052322 555.583633,307.802444 556.333755C308.552567 557.083878,309.569901 557.505386,310.630814 557.505386C311.691727 557.505386,312.709061 557.083878,313.459183 556.333755C314.209305 555.583633,314.630814 554.566299,314.630814 553.505386Z" style="fill: rgb(89.999390%,0.000000%,0.000000%);stroke: none;"></path>
  <path d="M426.916260 601.343475C426.916260 600.282562,426.494751 599.265228,425.744629 598.515106C424.994507 597.764984,423.977173 597.343475,422.916260 597.343475C421.855347 597.343475,420.838013 597.764984,420.087891 598.515106C419.337769 599.265228,418.916260 600.282562,418.916260 601.343475C418.916260 602.404388,419.337769 603.421722,420.087891 604.171844C420.838013 604.921967,421.855347 605.343475,422.916260 605.343475C423.977173 605.343475,424.994507 604.921967,425.744629 604.171844C426.494751 603.421722,426.916260 602.404388,426.916260 601.343475Z" style="stroke:rgb(39.999390%,39.999390%,39.999390%); stroke-width: 0.500000;stroke-linecap: round;stroke-linejoin: round;stroke-miterlimit: 10.000000;fill: none;"></path>
  <path d="M426.916260 601.343475C426.916260 600.282562,426.494751 599.265228,425.744629 598.515106C424.994507 597.764984,423.977173 597.343475,422.916260 597.343475C421.855347 597.343475,420.838013 597.764984,420.087891 598.515106C419.337769 599.265228,418.916260 600.282562,418.916260 601.343475C418.916260 602.404388,419.337769 603.421722,420.087891 604.171844C420.838013 604.921967,421.855347 605.343475,422.916260 605.343475C423.977173 605.343475,424.994507 604.921967,425.744629 604.171844C426.494751 603.421722,426.916260 602.404388,426.916260 601.343475Z" style="fill: rgb(100.000000%,100.000000%,0.000000%);stroke: none;"></path>
  <path d="M310.630814 553.505386L235.430710 457.388000" style="stroke:rgb(60.000610%,60.000610%,60.000610%); stroke-width: 1.500000;stroke-linecap: round;stroke-dasharray: 3.000000 3.000000 ;stroke-linejoin: round;stroke-miterlimit: 10.000000;fill: none;"></path>
  <path d="M122.366714 411.461700L235.430710 457.388000" style="stroke:rgb(60.000610%,60.000610%,60.000610%); stroke-width: 1.500000;stroke-linecap: round;stroke-dasharray: 3.000000 3.000000 ;stroke-linejoin: round;stroke-miterlimit: 10.000000;fill: none;"></path>
  <path d="M314.630814 553.505386C314.630814 552.444473,314.209305 551.427139,313.459183 550.677017C312.709061 549.926895,311.691727 549.505386,310.630814 549.505386C309.569901 549.505386,308.552567 549.926895,307.802444 550.677017C307.052322 551.427139,306.630814 552.444473,306.630814 553.505386C306.630814 554.566299,307.052322 555.583633,307.802444 556.333755C308.552567 557.083878,309.569901 557.505386,310.630814 557.505386C311.691727 557.505386,312.709061 557.083878,313.459183 556.333755C314.209305 555.583633,314.630814 554.566299,314.630814 553.505386Z" style="stroke:rgb(39.999390%,39.999390%,39.999390%); stroke-width: 0.500000;stroke-linecap: round;stroke-linejoin: round;stroke-miterlimit: 10.000000;fill: none;"></path>
  <path d="M314.630814 553.505386C314.630814 552.444473,314.209305 551.427139,313.459183 550.677017C312.709061 549.926895,311.691727 549.505386,310.630814 549.505386C309.569901 549.505386,308.552567 549.926895,307.802444 550.677017C307.052322 551.427139,306.630814 552.444473,306.630814 553.505386C306.630814 554.566299,307.052322 555.583633,307.802444 556.333755C308.552567 557.083878,309.569901 557.505386,310.630814 557.505386C311.691727 557.505386,312.709061 557.083878,313.459183 556.333755C314.209305 555.583633,314.630814 554.566299,314.630814 553.505386Z" style="fill: rgb(89.999390%,0.000000%,0.000000%);stroke: none;"></path>
  <path d="M126.366714 411.461700C126.366714 410.400787,125.945206 409.383453,125.195084 408.633331C124.444962 407.883209,123.427628 407.461700,122.366714 407.461700C121.305801 407.461700,120.288467 407.883209,119.538345 408.633331C118.788223 409.383453,118.366714 410.400787,118.366714 411.461700C118.366714 412.522614,118.788223 413.539948,119.538345 414.290070C120.288467 415.040192,121.305801 415.461700,122.366714 415.461700C123.427628 415.461700,124.444962 415.040192,125.195084 414.290070C125.945206 413.539948,126.366714 412.522614,126.366714 411.461700Z" style="stroke:rgb(39.999390%,39.999390%,39.999390%); stroke-width: 0.500000;stroke-linecap: round;stroke-linejoin: round;stroke-miterlimit: 10.000000;fill: none;"></path>
  <path d="M126.366714 411.461700C126.366714 410.400787,125.945206 409.383453,125.195084 408.633331C124.444962 407.883209,123.427628 407.461700,122.366714 407.461700C121.305801 407.461700,120.288467 407.883209,119.538345 408.633331C118.788223 409.383453,118.366714 410.400787,118.366714 411.461700C118.366714 412.522614,118.788223 413.539948,119.538345 414.290070C120.288467 415.040192,121.305801 415.461700,122.366714 415.461700C123.427628 415.461700,124.444962 415.040192,125.195084 414.290070C125.945206 413.539948,126.366714 412.522614,126.366714 411.461700Z" style="fill: rgb(89.999390%,0.000000%,0.000000%);stroke: none;"></path>
  <path d="M239.430710 457.388000C239.430710 456.327087,239.009201 455.309753,238.259079 454.559631C237.508957 453.809509,236.491623 453.388000,235.430710 453.388000C234.369797 453.388000,233.352463 453.809509,232.602341 454.559631C231.852219 455.309753,231.430710 456.327087,231.430710 457.388000C231.430710 458.448914,231.852219 459.466248,232.602341 460.216370C233.352463 460.966492,234.369797 461.388000,235.430710 461.388000C236.491623 461.388000,237.508957 460.966492,238.259079 460.216370C239.009201 459.466248,239.430710 458.448914,239.430710 457.388000Z" style="stroke:rgb(39.999390%,39.999390%,39.999390%); stroke-width: 0.500000;stroke-linecap: round;stroke-linejoin: round;stroke-miterlimit: 10.000000;fill: none;"></path>
  <path d="M239.430710 457.388000C239.430710 456.327087,239.009201 455.309753,238.259079 454.559631C237.508957 453.809509,236.491623 453.388000,235.430710 453.388000C234.369797 453.388000,233.352463 453.809509,232.602341 454.559631C231.852219 455.309753,231.430710 456.327087,231.430710 457.388000C231.430710 458.448914,231.852219 459.466248,232.602341 460.216370C233.352463 460.966492,234.369797 461.388000,235.430710 461.388000C236.491623 461.388000,237.508957 460.966492,238.259079 460.216370C239.009201 459.466248,239.430710 458.448914,239.430710 457.388000Z" style="fill: rgb(0.000000%,50.000000%,0.000000%);stroke: none;"></path>
  <path d="M122.366714 411.461700L44.943390 317.083099" style="stroke:rgb(60.000610%,60.000610%,60.000610%); stroke-width: 1.500000;stroke-linecap: round;stroke-dasharray: 3.000000 3.000000 ;stroke-linejoin: round;stroke-miterlimit: 10.000000;fill: none;"></path>
  <path d="M126.366714 411.461700C126.366714 410.400787,125.945206 409.383453,125.195084 408.633331C124.444962 407.883209,123.427628 407.461700,122.366714 407.461700C121.305801 407.461700,120.288467 407.883209,119.538345 408.633331C118.788223 409.383453,118.366714 410.400787,118.366714 411.461700C118.366714 412.522614,118.788223 413.539948,119.538345 414.290070C120.288467 415.040192,121.305801 415.461700,122.366714 415.461700C123.427628 415.461700,124.444962 415.040192,125.195084 414.290070C125.945206 413.539948,126.366714 412.522614,126.366714 411.461700Z" style="stroke:rgb(39.999390%,39.999390%,39.999390%); stroke-width: 0.500000;stroke-linecap: round;stroke-linejoin: round;stroke-miterlimit: 10.000000;fill: none;"></path>
  <path d="M126.366714 411.461700C126.366714 410.400787,125.945206 409.383453,125.195084 408.633331C124.444962 407.883209,123.427628 407.461700,122.366714 407.461700C121.305801 407.461700,120.288467 407.883209,119.538345 408.633331C118.788223 409.383453,118.366714 410.400787,118.366714 411.461700C118.366714 412.522614,118.788223 413.539948,119.538345 414.290070C120.288467 415.040192,121.305801 415.461700,122.366714 415.461700C123.427628 415.461700,124.444962 415.040192,125.195084 414.290070C125.945206 413.539948,126.366714 412.522614,126.366714 411.461700Z" style="fill: rgb(89.999390%,0.000000%,0.000000%);stroke: none;"></path>
  <path d="M48.943390 317.083099C48.943390 316.022186,48.521881 315.004852,47.771759 314.254730C47.021637 313.504608,46.004303 313.083099,44.943390 313.083099C43.882477 313.083099,42.865143 313.504608,42.115021 314.254730C41.364899 315.004852,40.943390 316.022186,40.943390 317.083099C40.943390 318.144012,41.364899 319.161346,42.115021 319.911469C42.865143 320.661591,43.882477 321.083099,44.943390 321.083099C46.004303 321.083099,47.021637 320.661591,47.771759 319.911469C48.521881 319.161346,48.943390 318.144012,48.943390 317.083099Z" style="stroke:rgb(39.999390%,39.999390%,39.999390%); stroke-width: 0.500000;stroke-linecap: round;stroke-linejoin: round;stroke-miterlimit: 10.000000;fill: none;"></path>
  <path d="M48.943390 317.083099C48.943390 316.022186,48.521881 315.004852,47.771759 314.254730C47.021637 313.504608,46.004303 313.083099,44.943390 313.083099C43.882477 313.083099,42.865143 313.504608,42.115021 314.254730C41.364899 315.004852,40.943390 316.022186,40.943390 317.083099C40.943390 318.144012,41.364899 319.161346,42.115021 319.911469C42.865143 320.661591,43.882477 321.083099,44.943390 321.083099C46.004303 321.083099,47.021637 320.661591,47.771759 319.911469C48.521881 319.161346,48.943390 318.144012,48.943390 317.083099Z" style="fill: rgb(100.000000%,100.000000%,0.000000%);stroke: none;"></path>
</svg>
