<?xml version="1.0"?>
<!-- Created by MetaPost 2.00 on 2025.04.10:1954 -->
<svg version="1.1" xmlns="http://www.w3.org/2000/svg" xmlns:xlink="http://www.w3.org/1999/xlink" width="592.540100" height="593.284058" viewBox="0 0 592.540100 593.284058">
<!-- Original BoundingBox: -322.667511 -300.963028 269.872589 292.321030 -->
  <path d="M105.655884 392.909836L105.655884 486.630981L202.430710 486.630981L202.430710 392.909836L105.655884 392.909836Z" style="fill: rgb(100.000000%,100.000000%,100.000000%);stroke: none;"></path>
  <path d="M294.620697 578.812317L294.620697 580.343475L389.916260 580.343475L389.916260 578.812317L294.620697 578.812317Z" style="fill: rgb(100.000000%,100.000000%,100.000000%);stroke: none;"></path>
  <path d="M483.628754 485.099808L485.159912 485.099808L485.159912 392.909836L483.628754 392.909836L483.628754 485.099808Z" style="fill: rgb(100.000000%,100.000000%,100.000000%);stroke: none;"></path>
  <path d="M389.916260 486.630981L483.628754 486.630981L483.628754 485.099808L389.916260 486.630981Z" style="fill: rgb(100.000000%,100.000000%,100.000000%);stroke: none;"></path>
  <path d="M483.628754 485.099808L483.628754 392.909836L389.916260 392.909836L389.916260 486.630981L483.628754 485.099808Z" style="fill: rgb(100.000000%,100.000000%,100.000000%);stroke: none;"></path>
  <path d="M293.089523 392.909836L293.089523 578.812317L294.620697 578.812317L293.089523 392.909836Z" style="fill: rgb(100.000000%,100.000000%,100.000000%);stroke: none;"></path>
  <path d="M294.620697 578.812317L389.916260 578.812317L389.916260 486.630981L294.620697 578.812317Z" style="fill: rgb(100.000000%,100.000000%,100.000000%);stroke: none;"></path>
  <path d="M389.916260 486.630981L389.916260 392.909836L293.089523 392.909836L294.620697 578.812317L389.916260 486.630981Z" style="fill: rgb(100.000000%,100.000000%,100.000000%);stroke: none;"></path>
  <path d="M11.891495 391.326767L11.943390 392.909836L105.655884 392.909836L11.891495 391.326767Z" style="fill: rgb(100.000000%,100.000000%,100.000000%);stroke: none;"></path>
  <path d="M485.159912 392.909836L485.159912 391.326767L483.628754 391.326767L485.159912 392.909836Z" style="fill: rgb(100.000000%,100.000000%,100.000000%);stroke: none;"></path>
  <path d="M11.891495 391.326767L105.655884 392.909836L202.430710 392.909836L11.891495 391.326767Z" style="fill: rgb(100.000000%,100.000000%,100.000000%);stroke: none;"></path>
  <path d="M11.891495 391.326767L202.430710 392.909836L293.089523 392.909836L11.891495 391.326767Z" style="fill: rgb(100.000000%,100.000000%,100.000000%);stroke: none;"></path>
  <path d="M293.089523 392.909836L485.159912 392.909836L483.628754 391.326767L11.891495 391.326767L293.089523 392.909836Z" style="fill: rgb(100.000000%,100.000000%,100.000000%);stroke: none;"></path>
  <path d="M483.628754 391.326767L483.628754 389.795609L389.916260 389.795609L483.628754 391.326767Z" style="fill: rgb(100.000000%,100.000000%,100.000000%);stroke: none;"></path>
  <path d="M389.916260 389.795609L11.891495 389.795609L11.891495 391.326767L483.628754 391.326767L389.916260 389.795609Z" style="fill: rgb(100.000000%,100.000000%,100.000000%);stroke: none;"></path>
  <path d="M577.341248 297.614273L578.872406 297.614273L578.872406 200.839447L577.341248 200.839447L577.341248 297.614273Z" style="fill: rgb(100.000000%,100.000000%,100.000000%);stroke: none;"></path>
  <path d="M483.628754 107.126953L483.628754 105.595795L389.916260 105.595795L389.916260 107.126953L483.628754 107.126953Z" style="fill: rgb(100.000000%,100.000000%,100.000000%);stroke: none;"></path>
  <path d="M485.159912 200.839447L485.159912 107.126953L483.628754 107.126953L485.159912 200.839447Z" style="fill: rgb(100.000000%,100.000000%,100.000000%);stroke: none;"></path>
  <path d="M483.628754 107.126953L389.916260 107.126953L389.916260 200.839447L485.159912 200.839447L483.628754 107.126953Z" style="fill: rgb(100.000000%,100.000000%,100.000000%);stroke: none;"></path>
  <path d="M389.916260 299.145432L577.341248 299.145432L577.341248 297.614273L389.916260 299.145432Z" style="fill: rgb(100.000000%,100.000000%,100.000000%);stroke: none;"></path>
  <path d="M577.341248 297.614273L577.341248 200.839447L485.159912 200.839447L577.341248 297.614273Z" style="fill: rgb(100.000000%,100.000000%,100.000000%);stroke: none;"></path>
  <path d="M485.159912 200.839447L389.916260 200.839447L389.916260 299.145432L577.341248 297.614273L485.159912 200.839447Z" style="fill: rgb(100.000000%,100.000000%,100.000000%);stroke: none;"></path>
  <path d="M388.333191 389.795609L389.916260 389.795609L389.916260 299.145432L388.333191 389.795609Z" style="fill: rgb(100.000000%,100.000000%,100.000000%);stroke: none;"></path>
  <path d="M389.916260 105.595795L388.333191 105.595795L388.333191 200.839447L389.916260 105.595795Z" style="fill: rgb(100.000000%,100.000000%,100.000000%);stroke: none;"></path>
  <path d="M388.333191 200.839447L388.333191 389.795609L389.916260 299.145432L389.916260 105.595795L388.333191 200.839447Z" style="fill: rgb(100.000000%,100.000000%,100.000000%);stroke: none;"></path>
  <path d="M107.187057 107.126953L105.655884 107.126953L105.655884 200.839447L107.187057 200.839447L107.187057 107.126953Z" style="fill: rgb(100.000000%,100.000000%,100.000000%);stroke: none;"></path>
  <path d="M199.377029 105.595795L107.187057 105.595795L107.187057 107.126953L199.377029 105.595795Z" style="fill: rgb(100.000000%,100.000000%,100.000000%);stroke: none;"></path>
  <path d="M107.187057 107.126953L107.187057 200.839447L199.377029 200.839447L199.377029 105.595795L107.187057 107.126953Z" style="fill: rgb(100.000000%,100.000000%,100.000000%);stroke: none;"></path>
  <path d="M200.908203 13.414459L199.377029 13.414459L199.377029 105.595795L200.908203 13.414459Z" style="fill: rgb(100.000000%,100.000000%,100.000000%);stroke: none;"></path>
  <path d="M199.377029 105.595795L199.377029 200.839447L200.908203 200.839447L200.908203 13.414459L199.377029 105.595795Z" style="fill: rgb(100.000000%,100.000000%,100.000000%);stroke: none;"></path>
  <path d="M296.151855 11.883301L200.908203 11.883301L200.908203 13.414459L296.151855 11.883301Z" style="fill: rgb(100.000000%,100.000000%,100.000000%);stroke: none;"></path>
  <path d="M200.908203 13.414459L200.908203 200.839447L296.151855 200.839447L296.151855 11.883301L200.908203 13.414459Z" style="fill: rgb(100.000000%,100.000000%,100.000000%);stroke: none;"></path>
  <path d="M388.333191 202.370605L388.333191 200.839447L296.151855 200.839447L388.333191 202.370605Z" style="fill: rgb(100.000000%,100.000000%,100.000000%);stroke: none;"></path>
  <path d="M105.655884 200.839447L105.655884 202.370605L199.377029 202.370605L105.655884 200.839447Z" style="fill: rgb(100.000000%,100.000000%,100.000000%);stroke: none;"></path>
  <path d="M199.377029 202.370605L388.333191 202.370605L296.151855 200.839447L105.655884 200.839447L199.377029 202.370605Z" style="fill: rgb(100.000000%,100.000000%,100.000000%);stroke: none;"></path>
  <path d="M388.333191 202.370605L199.377029 202.370605L199.377029 296.083099L388.333191 202.370605Z" style="fill: rgb(100.000000%,100.000000%,100.000000%);stroke: none;"></path>
  <path d="M199.377029 296.083099L199.377029 389.795609L388.333191 389.795609L388.333191 202.370605L199.377029 296.083099Z" style="fill: rgb(100.000000%,100.000000%,100.000000%);stroke: none;"></path>
  <path d="M11.943390 296.083099L11.891495 389.795609L199.377029 389.795609L199.377029 296.083099L11.943390 296.083099Z" style="fill: rgb(100.000000%,100.000000%,100.000000%);stroke: none;"></path>
  <path d="M202.430710 392.909836L105.655884 392.909836" style="stroke:rgb(100.000000%,100.000000%,100.000000%); stroke-width: 1.000000;stroke-linecap: round;stroke-linejoin: round;stroke-miterlimit: 10.000000;fill: none;"></path>
  <path d="M389.916260 578.812317L294.620697 578.812317" style="stroke:rgb(100.000000%,100.000000%,100.000000%); stroke-width: 1.000000;stroke-linecap: round;stroke-linejoin: round;stroke-miterlimit: 10.000000;fill: none;"></path>
  <path d="M485.159912 392.909836L483.628754 392.909836" style="stroke:rgb(100.000000%,100.000000%,100.000000%); stroke-width: 1.000000;stroke-linecap: round;stroke-linejoin: round;stroke-miterlimit: 10.000000;fill: none;"></path>
  <path d="M483.628754 392.909836L483.628754 485.099808" style="stroke:rgb(100.000000%,100.000000%,100.000000%); stroke-width: 1.000000;stroke-linecap: round;stroke-linejoin: round;stroke-miterlimit: 10.000000;fill: none;"></path>
  <path d="M483.628754 485.099808L389.916260 486.630981" style="stroke:rgb(100.000000%,100.000000%,100.000000%); stroke-width: 1.000000;stroke-linecap: round;stroke-linejoin: round;stroke-miterlimit: 10.000000;fill: none;"></path>
  <path d="M483.628754 485.099808L483.628754 392.909836" style="stroke:rgb(100.000000%,100.000000%,100.000000%); stroke-width: 1.000000;stroke-linecap: round;stroke-linejoin: round;stroke-miterlimit: 10.000000;fill: none;"></path>
  <path d="M483.628754 392.909836L389.916260 392.909836" style="stroke:rgb(100.000000%,100.000000%,100.000000%); stroke-width: 1.000000;stroke-linecap: round;stroke-linejoin: round;stroke-miterlimit: 10.000000;fill: none;"></path>
  <path d="M389.916260 392.909836L389.916260 486.630981" style="stroke:rgb(100.000000%,100.000000%,100.000000%); stroke-width: 1.000000;stroke-linecap: round;stroke-linejoin: round;stroke-miterlimit: 10.000000;fill: none;"></path>
  <path d="M389.916260 486.630981L483.628754 485.099808" style="stroke:rgb(100.000000%,100.000000%,100.000000%); stroke-width: 1.000000;stroke-linecap: round;stroke-linejoin: round;stroke-miterlimit: 10.000000;fill: none;"></path>
  <path d="M294.620697 578.812317L293.089523 392.909836" style="stroke:rgb(100.000000%,100.000000%,100.000000%); stroke-width: 1.000000;stroke-linecap: round;stroke-linejoin: round;stroke-miterlimit: 10.000000;fill: none;"></path>
  <path d="M294.620697 578.812317L389.916260 578.812317" style="stroke:rgb(100.000000%,100.000000%,100.000000%); stroke-width: 1.000000;stroke-linecap: round;stroke-linejoin: round;stroke-miterlimit: 10.000000;fill: none;"></path>
  <path d="M389.916260 486.630981L294.620697 578.812317" style="stroke:rgb(100.000000%,100.000000%,100.000000%); stroke-width: 1.000000;stroke-linecap: round;stroke-linejoin: round;stroke-miterlimit: 10.000000;fill: none;"></path>
  <path d="M389.916260 486.630981L389.916260 392.909836" style="stroke:rgb(100.000000%,100.000000%,100.000000%); stroke-width: 1.000000;stroke-linecap: round;stroke-linejoin: round;stroke-miterlimit: 10.000000;fill: none;"></path>
  <path d="M389.916260 392.909836L293.089523 392.909836" style="stroke:rgb(100.000000%,100.000000%,100.000000%); stroke-width: 1.000000;stroke-linecap: round;stroke-linejoin: round;stroke-miterlimit: 10.000000;fill: none;"></path>
  <path d="M293.089523 392.909836L294.620697 578.812317" style="stroke:rgb(100.000000%,100.000000%,100.000000%); stroke-width: 1.000000;stroke-linecap: round;stroke-linejoin: round;stroke-miterlimit: 10.000000;fill: none;"></path>
  <path d="M294.620697 578.812317L389.916260 486.630981" style="stroke:rgb(100.000000%,100.000000%,100.000000%); stroke-width: 1.000000;stroke-linecap: round;stroke-linejoin: round;stroke-miterlimit: 10.000000;fill: none;"></path>
  <path d="M105.655884 392.909836L11.891495 391.326767" style="stroke:rgb(100.000000%,100.000000%,100.000000%); stroke-width: 1.000000;stroke-linecap: round;stroke-linejoin: round;stroke-miterlimit: 10.000000;fill: none;"></path>
  <path d="M483.628754 391.326767L485.159912 392.909836" style="stroke:rgb(100.000000%,100.000000%,100.000000%); stroke-width: 1.000000;stroke-linecap: round;stroke-linejoin: round;stroke-miterlimit: 10.000000;fill: none;"></path>
  <path d="M11.891495 391.326767L105.655884 392.909836" style="stroke:rgb(100.000000%,100.000000%,100.000000%); stroke-width: 1.000000;stroke-linecap: round;stroke-linejoin: round;stroke-miterlimit: 10.000000;fill: none;"></path>
  <path d="M105.655884 392.909836L202.430710 392.909836" style="stroke:rgb(100.000000%,100.000000%,100.000000%); stroke-width: 1.000000;stroke-linecap: round;stroke-linejoin: round;stroke-miterlimit: 10.000000;fill: none;"></path>
  <path d="M202.430710 392.909836L11.891495 391.326767" style="stroke:rgb(100.000000%,100.000000%,100.000000%); stroke-width: 1.000000;stroke-linecap: round;stroke-linejoin: round;stroke-miterlimit: 10.000000;fill: none;"></path>
  <path d="M11.891495 391.326767L202.430710 392.909836" style="stroke:rgb(100.000000%,100.000000%,100.000000%); stroke-width: 1.000000;stroke-linecap: round;stroke-linejoin: round;stroke-miterlimit: 10.000000;fill: none;"></path>
  <path d="M293.089523 392.909836L11.891495 391.326767" style="stroke:rgb(100.000000%,100.000000%,100.000000%); stroke-width: 1.000000;stroke-linecap: round;stroke-linejoin: round;stroke-miterlimit: 10.000000;fill: none;"></path>
  <path d="M293.089523 392.909836L485.159912 392.909836" style="stroke:rgb(100.000000%,100.000000%,100.000000%); stroke-width: 1.000000;stroke-linecap: round;stroke-linejoin: round;stroke-miterlimit: 10.000000;fill: none;"></path>
  <path d="M485.159912 392.909836L483.628754 391.326767" style="stroke:rgb(100.000000%,100.000000%,100.000000%); stroke-width: 1.000000;stroke-linecap: round;stroke-linejoin: round;stroke-miterlimit: 10.000000;fill: none;"></path>
  <path d="M483.628754 391.326767L11.891495 391.326767" style="stroke:rgb(100.000000%,100.000000%,100.000000%); stroke-width: 1.000000;stroke-linecap: round;stroke-linejoin: round;stroke-miterlimit: 10.000000;fill: none;"></path>
  <path d="M11.891495 391.326767L293.089523 392.909836" style="stroke:rgb(100.000000%,100.000000%,100.000000%); stroke-width: 1.000000;stroke-linecap: round;stroke-linejoin: round;stroke-miterlimit: 10.000000;fill: none;"></path>
  <path d="M389.916260 389.795609L483.628754 391.326767" style="stroke:rgb(100.000000%,100.000000%,100.000000%); stroke-width: 1.000000;stroke-linecap: round;stroke-linejoin: round;stroke-miterlimit: 10.000000;fill: none;"></path>
  <path d="M389.916260 389.795609L11.891495 389.795609" style="stroke:rgb(100.000000%,100.000000%,100.000000%); stroke-width: 1.000000;stroke-linecap: round;stroke-linejoin: round;stroke-miterlimit: 10.000000;fill: none;"></path>
  <path d="M11.891495 391.326767L483.628754 391.326767" style="stroke:rgb(100.000000%,100.000000%,100.000000%); stroke-width: 1.000000;stroke-linecap: round;stroke-linejoin: round;stroke-miterlimit: 10.000000;fill: none;"></path>
  <path d="M483.628754 391.326767L389.916260 389.795609" style="stroke:rgb(100.000000%,100.000000%,100.000000%); stroke-width: 1.000000;stroke-linecap: round;stroke-linejoin: round;stroke-miterlimit: 10.000000;fill: none;"></path>
  <path d="M577.341248 200.839447L577.341248 297.614273" style="stroke:rgb(100.000000%,100.000000%,100.000000%); stroke-width: 1.000000;stroke-linecap: round;stroke-linejoin: round;stroke-miterlimit: 10.000000;fill: none;"></path>
  <path d="M389.916260 105.595795L389.916260 107.126953" style="stroke:rgb(100.000000%,100.000000%,100.000000%); stroke-width: 1.000000;stroke-linecap: round;stroke-linejoin: round;stroke-miterlimit: 10.000000;fill: none;"></path>
  <path d="M389.916260 107.126953L483.628754 107.126953" style="stroke:rgb(100.000000%,100.000000%,100.000000%); stroke-width: 1.000000;stroke-linecap: round;stroke-linejoin: round;stroke-miterlimit: 10.000000;fill: none;"></path>
  <path d="M483.628754 107.126953L485.159912 200.839447" style="stroke:rgb(100.000000%,100.000000%,100.000000%); stroke-width: 1.000000;stroke-linecap: round;stroke-linejoin: round;stroke-miterlimit: 10.000000;fill: none;"></path>
  <path d="M483.628754 107.126953L389.916260 107.126953" style="stroke:rgb(100.000000%,100.000000%,100.000000%); stroke-width: 1.000000;stroke-linecap: round;stroke-linejoin: round;stroke-miterlimit: 10.000000;fill: none;"></path>
  <path d="M389.916260 107.126953L389.916260 200.839447" style="stroke:rgb(100.000000%,100.000000%,100.000000%); stroke-width: 1.000000;stroke-linecap: round;stroke-linejoin: round;stroke-miterlimit: 10.000000;fill: none;"></path>
  <path d="M389.916260 200.839447L485.159912 200.839447" style="stroke:rgb(100.000000%,100.000000%,100.000000%); stroke-width: 1.000000;stroke-linecap: round;stroke-linejoin: round;stroke-miterlimit: 10.000000;fill: none;"></path>
  <path d="M485.159912 200.839447L483.628754 107.126953" style="stroke:rgb(100.000000%,100.000000%,100.000000%); stroke-width: 1.000000;stroke-linecap: round;stroke-linejoin: round;stroke-miterlimit: 10.000000;fill: none;"></path>
  <path d="M577.341248 297.614273L389.916260 299.145432" style="stroke:rgb(100.000000%,100.000000%,100.000000%); stroke-width: 1.000000;stroke-linecap: round;stroke-linejoin: round;stroke-miterlimit: 10.000000;fill: none;"></path>
  <path d="M577.341248 297.614273L577.341248 200.839447" style="stroke:rgb(100.000000%,100.000000%,100.000000%); stroke-width: 1.000000;stroke-linecap: round;stroke-linejoin: round;stroke-miterlimit: 10.000000;fill: none;"></path>
  <path d="M485.159912 200.839447L577.341248 297.614273" style="stroke:rgb(100.000000%,100.000000%,100.000000%); stroke-width: 1.000000;stroke-linecap: round;stroke-linejoin: round;stroke-miterlimit: 10.000000;fill: none;"></path>
  <path d="M485.159912 200.839447L389.916260 200.839447" style="stroke:rgb(100.000000%,100.000000%,100.000000%); stroke-width: 1.000000;stroke-linecap: round;stroke-linejoin: round;stroke-miterlimit: 10.000000;fill: none;"></path>
  <path d="M389.916260 200.839447L389.916260 299.145432" style="stroke:rgb(100.000000%,100.000000%,100.000000%); stroke-width: 1.000000;stroke-linecap: round;stroke-linejoin: round;stroke-miterlimit: 10.000000;fill: none;"></path>
  <path d="M389.916260 299.145432L577.341248 297.614273" style="stroke:rgb(100.000000%,100.000000%,100.000000%); stroke-width: 1.000000;stroke-linecap: round;stroke-linejoin: round;stroke-miterlimit: 10.000000;fill: none;"></path>
  <path d="M577.341248 297.614273L485.159912 200.839447" style="stroke:rgb(100.000000%,100.000000%,100.000000%); stroke-width: 1.000000;stroke-linecap: round;stroke-linejoin: round;stroke-miterlimit: 10.000000;fill: none;"></path>
  <path d="M388.333191 389.795609L389.916260 389.795609" style="stroke:rgb(100.000000%,100.000000%,100.000000%); stroke-width: 1.000000;stroke-linecap: round;stroke-linejoin: round;stroke-miterlimit: 10.000000;fill: none;"></path>
  <path d="M389.916260 299.145432L388.333191 389.795609" style="stroke:rgb(100.000000%,100.000000%,100.000000%); stroke-width: 1.000000;stroke-linecap: round;stroke-linejoin: round;stroke-miterlimit: 10.000000;fill: none;"></path>
  <path d="M388.333191 200.839447L389.916260 105.595795" style="stroke:rgb(100.000000%,100.000000%,100.000000%); stroke-width: 1.000000;stroke-linecap: round;stroke-linejoin: round;stroke-miterlimit: 10.000000;fill: none;"></path>
  <path d="M388.333191 200.839447L388.333191 389.795609" style="stroke:rgb(100.000000%,100.000000%,100.000000%); stroke-width: 1.000000;stroke-linecap: round;stroke-linejoin: round;stroke-miterlimit: 10.000000;fill: none;"></path>
  <path d="M388.333191 389.795609L389.916260 299.145432" style="stroke:rgb(100.000000%,100.000000%,100.000000%); stroke-width: 1.000000;stroke-linecap: round;stroke-linejoin: round;stroke-miterlimit: 10.000000;fill: none;"></path>
  <path d="M389.916260 299.145432L389.916260 105.595795" style="stroke:rgb(100.000000%,100.000000%,100.000000%); stroke-width: 1.000000;stroke-linecap: round;stroke-linejoin: round;stroke-miterlimit: 10.000000;fill: none;"></path>
  <path d="M389.916260 105.595795L388.333191 200.839447" style="stroke:rgb(100.000000%,100.000000%,100.000000%); stroke-width: 1.000000;stroke-linecap: round;stroke-linejoin: round;stroke-miterlimit: 10.000000;fill: none;"></path>
  <path d="M105.655884 200.839447L107.187057 200.839447" style="stroke:rgb(100.000000%,100.000000%,100.000000%); stroke-width: 1.000000;stroke-linecap: round;stroke-linejoin: round;stroke-miterlimit: 10.000000;fill: none;"></path>
  <path d="M107.187057 200.839447L107.187057 107.126953" style="stroke:rgb(100.000000%,100.000000%,100.000000%); stroke-width: 1.000000;stroke-linecap: round;stroke-linejoin: round;stroke-miterlimit: 10.000000;fill: none;"></path>
  <path d="M107.187057 107.126953L199.377029 105.595795" style="stroke:rgb(100.000000%,100.000000%,100.000000%); stroke-width: 1.000000;stroke-linecap: round;stroke-linejoin: round;stroke-miterlimit: 10.000000;fill: none;"></path>
  <path d="M107.187057 107.126953L107.187057 200.839447" style="stroke:rgb(100.000000%,100.000000%,100.000000%); stroke-width: 1.000000;stroke-linecap: round;stroke-linejoin: round;stroke-miterlimit: 10.000000;fill: none;"></path>
  <path d="M107.187057 200.839447L199.377029 200.839447" style="stroke:rgb(100.000000%,100.000000%,100.000000%); stroke-width: 1.000000;stroke-linecap: round;stroke-linejoin: round;stroke-miterlimit: 10.000000;fill: none;"></path>
  <path d="M199.377029 200.839447L199.377029 105.595795" style="stroke:rgb(100.000000%,100.000000%,100.000000%); stroke-width: 1.000000;stroke-linecap: round;stroke-linejoin: round;stroke-miterlimit: 10.000000;fill: none;"></path>
  <path d="M199.377029 105.595795L107.187057 107.126953" style="stroke:rgb(100.000000%,100.000000%,100.000000%); stroke-width: 1.000000;stroke-linecap: round;stroke-linejoin: round;stroke-miterlimit: 10.000000;fill: none;"></path>
  <path d="M199.377029 105.595795L200.908203 13.414459" style="stroke:rgb(100.000000%,100.000000%,100.000000%); stroke-width: 1.000000;stroke-linecap: round;stroke-linejoin: round;stroke-miterlimit: 10.000000;fill: none;"></path>
  <path d="M199.377029 105.595795L199.377029 200.839447" style="stroke:rgb(100.000000%,100.000000%,100.000000%); stroke-width: 1.000000;stroke-linecap: round;stroke-linejoin: round;stroke-miterlimit: 10.000000;fill: none;"></path>
  <path d="M199.377029 200.839447L200.908203 200.839447" style="stroke:rgb(100.000000%,100.000000%,100.000000%); stroke-width: 1.000000;stroke-linecap: round;stroke-linejoin: round;stroke-miterlimit: 10.000000;fill: none;"></path>
  <path d="M200.908203 200.839447L200.908203 13.414459" style="stroke:rgb(100.000000%,100.000000%,100.000000%); stroke-width: 1.000000;stroke-linecap: round;stroke-linejoin: round;stroke-miterlimit: 10.000000;fill: none;"></path>
  <path d="M200.908203 13.414459L199.377029 105.595795" style="stroke:rgb(100.000000%,100.000000%,100.000000%); stroke-width: 1.000000;stroke-linecap: round;stroke-linejoin: round;stroke-miterlimit: 10.000000;fill: none;"></path>
  <path d="M200.908203 13.414459L296.151855 11.883301" style="stroke:rgb(100.000000%,100.000000%,100.000000%); stroke-width: 1.000000;stroke-linecap: round;stroke-linejoin: round;stroke-miterlimit: 10.000000;fill: none;"></path>
  <path d="M200.908203 13.414459L200.908203 200.839447" style="stroke:rgb(100.000000%,100.000000%,100.000000%); stroke-width: 1.000000;stroke-linecap: round;stroke-linejoin: round;stroke-miterlimit: 10.000000;fill: none;"></path>
  <path d="M200.908203 200.839447L296.151855 200.839447" style="stroke:rgb(100.000000%,100.000000%,100.000000%); stroke-width: 1.000000;stroke-linecap: round;stroke-linejoin: round;stroke-miterlimit: 10.000000;fill: none;"></path>
  <path d="M296.151855 11.883301L200.908203 13.414459" style="stroke:rgb(100.000000%,100.000000%,100.000000%); stroke-width: 1.000000;stroke-linecap: round;stroke-linejoin: round;stroke-miterlimit: 10.000000;fill: none;"></path>
  <path d="M388.333191 202.370605L388.333191 200.839447" style="stroke:rgb(100.000000%,100.000000%,100.000000%); stroke-width: 1.000000;stroke-linecap: round;stroke-linejoin: round;stroke-miterlimit: 10.000000;fill: none;"></path>
  <path d="M296.151855 200.839447L388.333191 202.370605" style="stroke:rgb(100.000000%,100.000000%,100.000000%); stroke-width: 1.000000;stroke-linecap: round;stroke-linejoin: round;stroke-miterlimit: 10.000000;fill: none;"></path>
  <path d="M199.377029 202.370605L105.655884 200.839447" style="stroke:rgb(100.000000%,100.000000%,100.000000%); stroke-width: 1.000000;stroke-linecap: round;stroke-linejoin: round;stroke-miterlimit: 10.000000;fill: none;"></path>
  <path d="M199.377029 202.370605L388.333191 202.370605" style="stroke:rgb(100.000000%,100.000000%,100.000000%); stroke-width: 1.000000;stroke-linecap: round;stroke-linejoin: round;stroke-miterlimit: 10.000000;fill: none;"></path>
  <path d="M388.333191 202.370605L296.151855 200.839447" style="stroke:rgb(100.000000%,100.000000%,100.000000%); stroke-width: 1.000000;stroke-linecap: round;stroke-linejoin: round;stroke-miterlimit: 10.000000;fill: none;"></path>
  <path d="M296.151855 200.839447L105.655884 200.839447" style="stroke:rgb(100.000000%,100.000000%,100.000000%); stroke-width: 1.000000;stroke-linecap: round;stroke-linejoin: round;stroke-miterlimit: 10.000000;fill: none;"></path>
  <path d="M105.655884 200.839447L199.377029 202.370605" style="stroke:rgb(100.000000%,100.000000%,100.000000%); stroke-width: 1.000000;stroke-linecap: round;stroke-linejoin: round;stroke-miterlimit: 10.000000;fill: none;"></path>
  <path d="M388.333191 202.370605L199.377029 202.370605" style="stroke:rgb(100.000000%,100.000000%,100.000000%); stroke-width: 1.000000;stroke-linecap: round;stroke-linejoin: round;stroke-miterlimit: 10.000000;fill: none;"></path>
  <path d="M199.377029 296.083099L388.333191 202.370605" style="stroke:rgb(100.000000%,100.000000%,100.000000%); stroke-width: 1.000000;stroke-linecap: round;stroke-linejoin: round;stroke-miterlimit: 10.000000;fill: none;"></path>
  <path d="M199.377029 296.083099L199.377029 389.795609" style="stroke:rgb(100.000000%,100.000000%,100.000000%); stroke-width: 1.000000;stroke-linecap: round;stroke-linejoin: round;stroke-miterlimit: 10.000000;fill: none;"></path>
  <path d="M199.377029 389.795609L388.333191 389.795609" style="stroke:rgb(100.000000%,100.000000%,100.000000%); stroke-width: 1.000000;stroke-linecap: round;stroke-linejoin: round;stroke-miterlimit: 10.000000;fill: none;"></path>
  <path d="M388.333191 389.795609L388.333191 202.370605" style="stroke:rgb(100.000000%,100.000000%,100.000000%); stroke-width: 1.000000;stroke-linecap: round;stroke-linejoin: round;stroke-miterlimit: 10.000000;fill: none;"></path>
  <path d="M388.333191 202.370605L199.377029 296.083099" style="stroke:rgb(100.000000%,100.000000%,100.000000%); stroke-width: 1.000000;stroke-linecap: round;stroke-linejoin: round;stroke-miterlimit: 10.000000;fill: none;"></path>
  <path d="M11.891495 389.795609L199.377029 389.795609" style="stroke:rgb(100.000000%,100.000000%,100.000000%); stroke-width: 1.000000;stroke-linecap: round;stroke-linejoin: round;stroke-miterlimit: 10.000000;fill: none;"></path>
  <path d="M199.377029 389.795609L199.377029 296.083099" style="stroke:rgb(100.000000%,100.000000%,100.000000%); stroke-width: 1.000000;stroke-linecap: round;stroke-linejoin: round;stroke-miterlimit: 10.000000;fill: none;"></path>
  <path d="M105.655884 392.909836L105.655884 486.630981" style="stroke:rgb(0.000000%,0.000000%,0.000000%); stroke-width: 1.000000;stroke-linecap: round;stroke-linejoin: round;stroke-miterlimit: 10.000000;fill: none;"></path>
  <path d="M105.655884 486.630981L202.430710 486.630981" style="stroke:rgb(0.000000%,0.000000%,0.000000%); stroke-width: 1.000000;stroke-linecap: round;stroke-linejoin: round;stroke-miterlimit: 10.000000;fill: none;"></path>
  <path d="M202.430710 486.630981L202.430710 392.909836" style="stroke:rgb(0.000000%,0.000000%,0.000000%); stroke-width: 1.000000;stroke-linecap: round;stroke-linejoin: round;stroke-miterlimit: 10.000000;fill: none;"></path>
  <path d="M294.620697 578.812317L294.620697 580.343475" style="stroke:rgb(0.000000%,0.000000%,0.000000%); stroke-width: 1.000000;stroke-linecap: round;stroke-linejoin: round;stroke-miterlimit: 10.000000;fill: none;"></path>
  <path d="M294.620697 580.343475L389.916260 580.343475" style="stroke:rgb(0.000000%,0.000000%,0.000000%); stroke-width: 1.000000;stroke-linecap: round;stroke-linejoin: round;stroke-miterlimit: 10.000000;fill: none;"></path>
  <path d="M389.916260 580.343475L389.916260 578.812317" style="stroke:rgb(0.000000%,0.000000%,0.000000%); stroke-width: 1.000000;stroke-linecap: round;stroke-linejoin: round;stroke-miterlimit: 10.000000;fill: none;"></path>
  <path d="M483.628754 485.099808L485.159912 485.099808" style="stroke:rgb(0.000000%,0.000000%,0.000000%); stroke-width: 1.000000;stroke-linecap: round;stroke-linejoin: round;stroke-miterlimit: 10.000000;fill: none;"></path>
  <path d="M485.159912 485.099808L485.159912 392.909836" style="stroke:rgb(0.000000%,0.000000%,0.000000%); stroke-width: 1.000000;stroke-linecap: round;stroke-linejoin: round;stroke-miterlimit: 10.000000;fill: none;"></path>
  <path d="M389.916260 486.630981L483.628754 486.630981" style="stroke:rgb(0.000000%,0.000000%,0.000000%); stroke-width: 1.000000;stroke-linecap: round;stroke-linejoin: round;stroke-miterlimit: 10.000000;fill: none;"></path>
  <path d="M483.628754 486.630981L483.628754 485.099808" style="stroke:rgb(0.000000%,0.000000%,0.000000%); stroke-width: 1.000000;stroke-linecap: round;stroke-linejoin: round;stroke-miterlimit: 10.000000;fill: none;"></path>
  <path d="M293.089523 392.909836L293.089523 578.812317" style="stroke:rgb(0.000000%,0.000000%,0.000000%); stroke-width: 1.000000;stroke-linecap: round;stroke-linejoin: round;stroke-miterlimit: 10.000000;fill: none;"></path>
  <path d="M293.089523 578.812317L294.620697 578.812317" style="stroke:rgb(0.000000%,0.000000%,0.000000%); stroke-width: 1.000000;stroke-linecap: round;stroke-linejoin: round;stroke-miterlimit: 10.000000;fill: none;"></path>
  <path d="M389.916260 578.812317L389.916260 486.630981" style="stroke:rgb(0.000000%,0.000000%,0.000000%); stroke-width: 1.000000;stroke-linecap: round;stroke-linejoin: round;stroke-miterlimit: 10.000000;fill: none;"></path>
  <path d="M11.891495 391.326767L11.943390 392.909836" style="stroke:rgb(0.000000%,0.000000%,0.000000%); stroke-width: 1.000000;stroke-linecap: round;stroke-linejoin: round;stroke-miterlimit: 10.000000;fill: none;"></path>
  <path d="M11.943390 392.909836L105.655884 392.909836" style="stroke:rgb(0.000000%,0.000000%,0.000000%); stroke-width: 1.000000;stroke-linecap: round;stroke-linejoin: round;stroke-miterlimit: 10.000000;fill: none;"></path>
  <path d="M485.159912 392.909836L485.159912 391.326767" style="stroke:rgb(0.000000%,0.000000%,0.000000%); stroke-width: 1.000000;stroke-linecap: round;stroke-linejoin: round;stroke-miterlimit: 10.000000;fill: none;"></path>
  <path d="M485.159912 391.326767L483.628754 391.326767" style="stroke:rgb(0.000000%,0.000000%,0.000000%); stroke-width: 1.000000;stroke-linecap: round;stroke-linejoin: round;stroke-miterlimit: 10.000000;fill: none;"></path>
  <path d="M202.430710 392.909836L293.089523 392.909836" style="stroke:rgb(0.000000%,0.000000%,0.000000%); stroke-width: 1.000000;stroke-linecap: round;stroke-linejoin: round;stroke-miterlimit: 10.000000;fill: none;"></path>
  <path d="M483.628754 391.326767L483.628754 389.795609" style="stroke:rgb(0.000000%,0.000000%,0.000000%); stroke-width: 1.000000;stroke-linecap: round;stroke-linejoin: round;stroke-miterlimit: 10.000000;fill: none;"></path>
  <path d="M483.628754 389.795609L389.916260 389.795609" style="stroke:rgb(0.000000%,0.000000%,0.000000%); stroke-width: 1.000000;stroke-linecap: round;stroke-linejoin: round;stroke-miterlimit: 10.000000;fill: none;"></path>
  <path d="M11.891495 389.795609L11.891495 391.326767" style="stroke:rgb(0.000000%,0.000000%,0.000000%); stroke-width: 1.000000;stroke-linecap: round;stroke-linejoin: round;stroke-miterlimit: 10.000000;fill: none;"></path>
  <path d="M577.341248 297.614273L578.872406 297.614273" style="stroke:rgb(0.000000%,0.000000%,0.000000%); stroke-width: 1.000000;stroke-linecap: round;stroke-linejoin: round;stroke-miterlimit: 10.000000;fill: none;"></path>
  <path d="M578.872406 297.614273L578.872406 200.839447" style="stroke:rgb(0.000000%,0.000000%,0.000000%); stroke-width: 1.000000;stroke-linecap: round;stroke-linejoin: round;stroke-miterlimit: 10.000000;fill: none;"></path>
  <path d="M578.872406 200.839447L577.341248 200.839447" style="stroke:rgb(0.000000%,0.000000%,0.000000%); stroke-width: 1.000000;stroke-linecap: round;stroke-linejoin: round;stroke-miterlimit: 10.000000;fill: none;"></path>
  <path d="M483.628754 107.126953L483.628754 105.595795" style="stroke:rgb(0.000000%,0.000000%,0.000000%); stroke-width: 1.000000;stroke-linecap: round;stroke-linejoin: round;stroke-miterlimit: 10.000000;fill: none;"></path>
  <path d="M483.628754 105.595795L389.916260 105.595795" style="stroke:rgb(0.000000%,0.000000%,0.000000%); stroke-width: 1.000000;stroke-linecap: round;stroke-linejoin: round;stroke-miterlimit: 10.000000;fill: none;"></path>
  <path d="M485.159912 200.839447L485.159912 107.126953" style="stroke:rgb(0.000000%,0.000000%,0.000000%); stroke-width: 1.000000;stroke-linecap: round;stroke-linejoin: round;stroke-miterlimit: 10.000000;fill: none;"></path>
  <path d="M485.159912 107.126953L483.628754 107.126953" style="stroke:rgb(0.000000%,0.000000%,0.000000%); stroke-width: 1.000000;stroke-linecap: round;stroke-linejoin: round;stroke-miterlimit: 10.000000;fill: none;"></path>
  <path d="M389.916260 299.145432L577.341248 299.145432" style="stroke:rgb(0.000000%,0.000000%,0.000000%); stroke-width: 1.000000;stroke-linecap: round;stroke-linejoin: round;stroke-miterlimit: 10.000000;fill: none;"></path>
  <path d="M577.341248 299.145432L577.341248 297.614273" style="stroke:rgb(0.000000%,0.000000%,0.000000%); stroke-width: 1.000000;stroke-linecap: round;stroke-linejoin: round;stroke-miterlimit: 10.000000;fill: none;"></path>
  <path d="M577.341248 200.839447L485.159912 200.839447" style="stroke:rgb(0.000000%,0.000000%,0.000000%); stroke-width: 1.000000;stroke-linecap: round;stroke-linejoin: round;stroke-miterlimit: 10.000000;fill: none;"></path>
  <path d="M389.916260 389.795609L389.916260 299.145432" style="stroke:rgb(0.000000%,0.000000%,0.000000%); stroke-width: 1.000000;stroke-linecap: round;stroke-linejoin: round;stroke-miterlimit: 10.000000;fill: none;"></path>
  <path d="M389.916260 105.595795L388.333191 105.595795" style="stroke:rgb(0.000000%,0.000000%,0.000000%); stroke-width: 1.000000;stroke-linecap: round;stroke-linejoin: round;stroke-miterlimit: 10.000000;fill: none;"></path>
  <path d="M388.333191 105.595795L388.333191 200.839447" style="stroke:rgb(0.000000%,0.000000%,0.000000%); stroke-width: 1.000000;stroke-linecap: round;stroke-linejoin: round;stroke-miterlimit: 10.000000;fill: none;"></path>
  <path d="M107.187057 107.126953L105.655884 107.126953" style="stroke:rgb(0.000000%,0.000000%,0.000000%); stroke-width: 1.000000;stroke-linecap: round;stroke-linejoin: round;stroke-miterlimit: 10.000000;fill: none;"></path>
  <path d="M105.655884 107.126953L105.655884 200.839447" style="stroke:rgb(0.000000%,0.000000%,0.000000%); stroke-width: 1.000000;stroke-linecap: round;stroke-linejoin: round;stroke-miterlimit: 10.000000;fill: none;"></path>
  <path d="M199.377029 105.595795L107.187057 105.595795" style="stroke:rgb(0.000000%,0.000000%,0.000000%); stroke-width: 1.000000;stroke-linecap: round;stroke-linejoin: round;stroke-miterlimit: 10.000000;fill: none;"></path>
  <path d="M107.187057 105.595795L107.187057 107.126953" style="stroke:rgb(0.000000%,0.000000%,0.000000%); stroke-width: 1.000000;stroke-linecap: round;stroke-linejoin: round;stroke-miterlimit: 10.000000;fill: none;"></path>
  <path d="M200.908203 13.414459L199.377029 13.414459" style="stroke:rgb(0.000000%,0.000000%,0.000000%); stroke-width: 1.000000;stroke-linecap: round;stroke-linejoin: round;stroke-miterlimit: 10.000000;fill: none;"></path>
  <path d="M199.377029 13.414459L199.377029 105.595795" style="stroke:rgb(0.000000%,0.000000%,0.000000%); stroke-width: 1.000000;stroke-linecap: round;stroke-linejoin: round;stroke-miterlimit: 10.000000;fill: none;"></path>
  <path d="M296.151855 11.883301L200.908203 11.883301" style="stroke:rgb(0.000000%,0.000000%,0.000000%); stroke-width: 1.000000;stroke-linecap: round;stroke-linejoin: round;stroke-miterlimit: 10.000000;fill: none;"></path>
  <path d="M200.908203 11.883301L200.908203 13.414459" style="stroke:rgb(0.000000%,0.000000%,0.000000%); stroke-width: 1.000000;stroke-linecap: round;stroke-linejoin: round;stroke-miterlimit: 10.000000;fill: none;"></path>
  <path d="M296.151855 200.839447L296.151855 11.883301" style="stroke:rgb(0.000000%,0.000000%,0.000000%); stroke-width: 1.000000;stroke-linecap: round;stroke-linejoin: round;stroke-miterlimit: 10.000000;fill: none;"></path>
  <path d="M388.333191 200.839447L296.151855 200.839447" style="stroke:rgb(0.000000%,0.000000%,0.000000%); stroke-width: 1.000000;stroke-linecap: round;stroke-linejoin: round;stroke-miterlimit: 10.000000;fill: none;"></path>
  <path d="M105.655884 200.839447L105.655884 202.370605" style="stroke:rgb(0.000000%,0.000000%,0.000000%); stroke-width: 1.000000;stroke-linecap: round;stroke-linejoin: round;stroke-miterlimit: 10.000000;fill: none;"></path>
  <path d="M105.655884 202.370605L199.377029 202.370605" style="stroke:rgb(0.000000%,0.000000%,0.000000%); stroke-width: 1.000000;stroke-linecap: round;stroke-linejoin: round;stroke-miterlimit: 10.000000;fill: none;"></path>
  <path d="M199.377029 202.370605L199.377029 296.083099" style="stroke:rgb(0.000000%,0.000000%,0.000000%); stroke-width: 1.000000;stroke-linecap: round;stroke-linejoin: round;stroke-miterlimit: 10.000000;fill: none;"></path>
  <path d="M11.943390 296.083099L11.891495 389.795609" style="stroke:rgb(0.000000%,0.000000%,0.000000%); stroke-width: 1.000000;stroke-linecap: round;stroke-linejoin: round;stroke-miterlimit: 10.000000;fill: none;"></path>
  <path d="M199.377029 296.083099L11.943390 296.083099" style="stroke:rgb(0.000000%,0.000000%,0.000000%); stroke-width: 1.000000;stroke-linecap: round;stroke-linejoin: round;stroke-miterlimit: 10.000000;fill: none;"></path>
  <path d="M205.216217 344.474838C205.216217 317.238052,194.394836 291.120071,175.136978 271.862213C155.879120 252.604355,129.761139 241.782974,102.524353 241.782974C75.287567 241.782974,49.169586 252.604355,29.911728 271.862213C10.653870 291.120071,-0.167511 317.238052,-0.167511 344.474838C-0.167511 371.711624,10.653870 397.829605,29.911728 417.087463C49.169586 436.345322,75.287567 447.166702,102.524353 447.166702C129.761139 447.166702,155.879120 436.345322,175.136978 417.087463C194.394836 397.829605,205.216217 371.711624,205.216217 344.474838Z" style="stroke:rgb(25.500488%,41.000366%,88.400269%); stroke-width: 1.000000;stroke-linecap: round;stroke-linejoin: round;stroke-miterlimit: 10.000000;fill: none;"></path>
  <path d="M282.492477 420.695724C282.492477 393.458939,271.671097 367.340958,252.413239 348.083099C233.155380 328.825241,207.037399 318.003860,179.800613 318.003860C152.563828 318.003860,126.445847 328.825241,107.187988 348.083099C87.930130 367.340958,77.108749 393.458939,77.108749 420.695724C77.108749 447.932510,87.930130 474.050491,107.187988 493.308350C126.445847 512.566208,152.563828 523.387589,179.800613 523.387589C207.037399 523.387589,233.155380 512.566208,252.413239 493.308350C271.671097 474.050491,282.492477 447.932510,282.492477 420.695724Z" style="stroke:rgb(25.500488%,41.000366%,88.400269%); stroke-width: 1.000000;stroke-linecap: round;stroke-linejoin: round;stroke-miterlimit: 10.000000;fill: none;"></path>
  <path d="M591.372589 249.992447C591.372589 222.755661,580.551208 196.637680,561.293350 177.379822C542.035492 158.121964,515.917511 147.300583,488.680725 147.300583C461.443939 147.300583,435.325958 158.121964,416.068100 177.379822C396.810242 196.637680,385.988861 222.755661,385.988861 249.992447C385.988861 277.229233,396.810242 303.347214,416.068100 322.605072C435.325958 341.862930,461.443939 352.684311,488.680725 352.684311C515.917511 352.684311,542.035492 341.862930,561.293350 322.605072C580.551208 303.347214,591.372589 277.229233,591.372589 249.992447Z" style="stroke:rgb(25.500488%,41.000366%,88.400269%); stroke-width: 1.000000;stroke-linecap: round;stroke-linejoin: round;stroke-miterlimit: 10.000000;fill: none;"></path>
  <path d="M525.670898 413.550293C525.670898 386.313507,514.849518 360.195526,495.591660 340.937668C476.333801 321.679810,450.215820 310.858429,422.979034 310.858429C395.742249 310.858429,369.624268 321.679810,350.366409 340.937668C331.108551 360.195526,320.287170 386.313507,320.287170 413.550293C320.287170 440.787079,331.108551 466.905060,350.366409 486.162918C369.624268 505.420776,395.742249 516.242157,422.979034 516.242157C450.215820 516.242157,476.333801 505.420776,495.591660 486.162918C514.849518 466.905060,525.670898 440.787079,525.670898 413.550293Z" style="stroke:rgb(25.500488%,41.000366%,88.400269%); stroke-width: 1.000000;stroke-linecap: round;stroke-linejoin: round;stroke-miterlimit: 10.000000;fill: none;"></path>
  <path d="M444.190430 489.771164C444.190430 462.534378,433.369049 436.416397,414.111191 417.158539C394.853333 397.900681,368.735352 387.079300,341.498566 387.079300C314.261780 387.079300,288.143799 397.900681,268.885941 417.158539C249.628082 436.416397,238.806702 462.534378,238.806702 489.771164C238.806702 517.007950,249.628082 543.125931,268.885941 562.383789C288.143799 581.641647,314.261780 592.463028,341.498566 592.463028C368.735352 592.463028,394.853333 581.641647,414.111191 562.383789C433.369049 543.125931,444.190430 517.007950,444.190430 489.771164Z" style="stroke:rgb(25.500488%,41.000366%,88.400269%); stroke-width: 1.000000;stroke-linecap: round;stroke-linejoin: round;stroke-miterlimit: 10.000000;fill: none;"></path>
  <path d="M351.221893 102.870834C351.221893 75.634048,340.400513 49.516068,321.142654 30.258209C301.884796 11.000351,275.766815 0.178970,248.530029 0.178970C221.293243 0.178970,195.175262 11.000351,175.917404 30.258209C156.659546 49.516068,145.838165 75.634048,145.838165 102.870834C145.838165 130.107620,156.659546 156.225601,175.917404 175.483459C195.175262 194.741318,221.293243 205.562698,248.530029 205.562698C275.766815 205.562698,301.884796 194.741318,321.142654 175.483459C340.400513 156.225601,351.221893 130.107620,351.221893 102.870834Z" style="stroke:rgb(25.500488%,41.000366%,88.400269%); stroke-width: 1.000000;stroke-linecap: round;stroke-linejoin: round;stroke-miterlimit: 10.000000;fill: none;"></path>
  <path d="M398.514999 296.550247C398.514999 269.313461,387.693619 243.195480,368.435760 223.937622C349.177902 204.679764,323.059921 193.858383,295.823135 193.858383C268.586349 193.858383,242.468369 204.679764,223.210510 223.937622C203.952652 243.195480,193.131271 269.313461,193.131271 296.550247C193.131271 323.787033,203.952652 349.905014,223.210510 369.162872C242.468369 388.420731,268.586349 399.242111,295.823135 399.242111C323.059921 399.242111,349.177902 388.420731,368.435760 369.162872C387.693619 349.905014,398.514999 323.787033,398.514999 296.550247Z" style="stroke:rgb(25.500488%,41.000366%,88.400269%); stroke-width: 1.000000;stroke-linecap: round;stroke-linejoin: round;stroke-miterlimit: 10.000000;fill: none;"></path>
  <path d="M277.535660 175.562241C277.535660 148.325455,266.714279 122.207474,247.456421 102.949615C228.198563 83.691757,202.080582 72.870377,174.843796 72.870377C147.607010 72.870377,121.489029 83.691757,102.231171 102.949615C82.973312 122.207474,72.151932 148.325455,72.151932 175.562241C72.151932 202.799026,82.973312 228.917007,102.231171 248.174866C121.489029 267.432724,147.607010 278.254105,174.843796 278.254105C202.080582 278.254105,228.198563 267.432724,247.456421 248.174866C266.714279 228.917007,277.535660 202.799026,277.535660 175.562241Z" style="stroke:rgb(25.500488%,41.000366%,88.400269%); stroke-width: 1.000000;stroke-linecap: round;stroke-linejoin: round;stroke-miterlimit: 10.000000;fill: none;"></path>
  <path d="M520.575668 168.486023C520.575668 141.249237,509.754288 115.131256,490.496429 95.873398C471.238571 76.615540,445.120590 65.794159,417.883804 65.794159C390.647018 65.794159,364.529037 76.615540,345.271179 95.873398C326.013321 115.131256,315.191940 141.249237,315.191940 168.486023C315.191940 195.722809,326.013321 221.840790,345.271179 241.098648C364.529037 260.356506,390.647018 271.177887,417.883804 271.177887C445.120590 271.177887,471.238571 260.356506,490.496429 241.098648C509.754288 221.840790,520.575668 195.722809,520.575668 168.486023Z" style="stroke:rgb(25.500488%,41.000366%,88.400269%); stroke-width: 1.000000;stroke-linecap: round;stroke-linejoin: round;stroke-miterlimit: 10.000000;fill: none;"></path>
  <path d="M102.524353 344.474838L11.943390 392.909836" style="stroke:rgb(60.000610%,60.000610%,60.000610%); stroke-width: 1.500000;stroke-linecap: round;stroke-dasharray: 3.000000 3.000000 ;stroke-linejoin: round;stroke-miterlimit: 10.000000;fill: none;"></path>
  <path d="M106.524353 344.474838C106.524353 343.413925,106.102844 342.396591,105.352722 341.646469C104.602600 340.896347,103.585266 340.474838,102.524353 340.474838C101.463440 340.474838,100.446106 340.896347,99.695984 341.646469C98.945862 342.396591,98.524353 343.413925,98.524353 344.474838C98.524353 345.535751,98.945862 346.553085,99.695984 347.303207C100.446106 348.053329,101.463440 348.474838,102.524353 348.474838C103.585266 348.474838,104.602600 348.053329,105.352722 347.303207C106.102844 346.553085,106.524353 345.535751,106.524353 344.474838Z" style="stroke:rgb(39.999390%,39.999390%,39.999390%); stroke-width: 0.500000;stroke-linecap: round;stroke-linejoin: round;stroke-miterlimit: 10.000000;fill: none;"></path>
  <path d="M106.524353 344.474838C106.524353 343.413925,106.102844 342.396591,105.352722 341.646469C104.602600 340.896347,103.585266 340.474838,102.524353 340.474838C101.463440 340.474838,100.446106 340.896347,99.695984 341.646469C98.945862 342.396591,98.524353 343.413925,98.524353 344.474838C98.524353 345.535751,98.945862 346.553085,99.695984 347.303207C100.446106 348.053329,101.463440 348.474838,102.524353 348.474838C103.585266 348.474838,104.602600 348.053329,105.352722 347.303207C106.102844 346.553085,106.524353 345.535751,106.524353 344.474838Z" style="fill: rgb(89.999390%,0.000000%,0.000000%);stroke: none;"></path>
  <path d="M15.943390 392.909836C15.943390 391.848923,15.521881 390.831589,14.771759 390.081467C14.021637 389.331345,13.004303 388.909836,11.943390 388.909836C10.882477 388.909836,9.865143 389.331345,9.115021 390.081467C8.364899 390.831589,7.943390 391.848923,7.943390 392.909836C7.943390 393.970749,8.364899 394.988083,9.115021 395.738205C9.865143 396.488327,10.882477 396.909836,11.943390 396.909836C13.004303 396.909836,14.021637 396.488327,14.771759 395.738205C15.521881 394.988083,15.943390 393.970749,15.943390 392.909836Z" style="stroke:rgb(39.999390%,39.999390%,39.999390%); stroke-width: 0.500000;stroke-linecap: round;stroke-linejoin: round;stroke-miterlimit: 10.000000;fill: none;"></path>
  <path d="M15.943390 392.909836C15.943390 391.848923,15.521881 390.831589,14.771759 390.081467C14.021637 389.331345,13.004303 388.909836,11.943390 388.909836C10.882477 388.909836,9.865143 389.331345,9.115021 390.081467C8.364899 390.831589,7.943390 391.848923,7.943390 392.909836C7.943390 393.970749,8.364899 394.988083,9.115021 395.738205C9.865143 396.488327,10.882477 396.909836,11.943390 396.909836C13.004303 396.909836,14.021637 396.488327,14.771759 395.738205C15.521881 394.988083,15.943390 393.970749,15.943390 392.909836Z" style="fill: rgb(100.000000%,100.000000%,0.000000%);stroke: none;"></path>
  <path d="M102.524353 344.474838L11.943390 296.083099" style="stroke:rgb(60.000610%,60.000610%,60.000610%); stroke-width: 1.500000;stroke-linecap: round;stroke-dasharray: 3.000000 3.000000 ;stroke-linejoin: round;stroke-miterlimit: 10.000000;fill: none;"></path>
  <path d="M106.524353 344.474838C106.524353 343.413925,106.102844 342.396591,105.352722 341.646469C104.602600 340.896347,103.585266 340.474838,102.524353 340.474838C101.463440 340.474838,100.446106 340.896347,99.695984 341.646469C98.945862 342.396591,98.524353 343.413925,98.524353 344.474838C98.524353 345.535751,98.945862 346.553085,99.695984 347.303207C100.446106 348.053329,101.463440 348.474838,102.524353 348.474838C103.585266 348.474838,104.602600 348.053329,105.352722 347.303207C106.102844 346.553085,106.524353 345.535751,106.524353 344.474838Z" style="stroke:rgb(39.999390%,39.999390%,39.999390%); stroke-width: 0.500000;stroke-linecap: round;stroke-linejoin: round;stroke-miterlimit: 10.000000;fill: none;"></path>
  <path d="M106.524353 344.474838C106.524353 343.413925,106.102844 342.396591,105.352722 341.646469C104.602600 340.896347,103.585266 340.474838,102.524353 340.474838C101.463440 340.474838,100.446106 340.896347,99.695984 341.646469C98.945862 342.396591,98.524353 343.413925,98.524353 344.474838C98.524353 345.535751,98.945862 346.553085,99.695984 347.303207C100.446106 348.053329,101.463440 348.474838,102.524353 348.474838C103.585266 348.474838,104.602600 348.053329,105.352722 347.303207C106.102844 346.553085,106.524353 345.535751,106.524353 344.474838Z" style="fill: rgb(89.999390%,0.000000%,0.000000%);stroke: none;"></path>
  <path d="M15.943390 296.083099C15.943390 295.022186,15.521881 294.004852,14.771759 293.254730C14.021637 292.504608,13.004303 292.083099,11.943390 292.083099C10.882477 292.083099,9.865143 292.504608,9.115021 293.254730C8.364899 294.004852,7.943390 295.022186,7.943390 296.083099C7.943390 297.144012,8.364899 298.161346,9.115021 298.911469C9.865143 299.661591,10.882477 300.083099,11.943390 300.083099C13.004303 300.083099,14.021637 299.661591,14.771759 298.911469C15.521881 298.161346,15.943390 297.144012,15.943390 296.083099Z" style="stroke:rgb(39.999390%,39.999390%,39.999390%); stroke-width: 0.500000;stroke-linecap: round;stroke-linejoin: round;stroke-miterlimit: 10.000000;fill: none;"></path>
  <path d="M15.943390 296.083099C15.943390 295.022186,15.521881 294.004852,14.771759 293.254730C14.021637 292.504608,13.004303 292.083099,11.943390 292.083099C10.882477 292.083099,9.865143 292.504608,9.115021 293.254730C8.364899 294.004852,7.943390 295.022186,7.943390 296.083099C7.943390 297.144012,8.364899 298.161346,9.115021 298.911469C9.865143 299.661591,10.882477 300.083099,11.943390 300.083099C13.004303 300.083099,14.021637 299.661591,14.771759 298.911469C15.521881 298.161346,15.943390 297.144012,15.943390 296.083099Z" style="fill: rgb(100.000000%,100.000000%,0.000000%);stroke: none;"></path>
  <path d="M488.680725 249.992447L578.872406 200.839447" style="stroke:rgb(60.000610%,60.000610%,60.000610%); stroke-width: 1.500000;stroke-linecap: round;stroke-dasharray: 3.000000 3.000000 ;stroke-linejoin: round;stroke-miterlimit: 10.000000;fill: none;"></path>
  <path d="M492.680725 249.992447C492.680725 248.931534,492.259216 247.914200,491.509094 247.164078C490.758972 246.413956,489.741638 245.992447,488.680725 245.992447C487.619812 245.992447,486.602478 246.413956,485.852356 247.164078C485.102234 247.914200,484.680725 248.931534,484.680725 249.992447C484.680725 251.053360,485.102234 252.070694,485.852356 252.820816C486.602478 253.570938,487.619812 253.992447,488.680725 253.992447C489.741638 253.992447,490.758972 253.570938,491.509094 252.820816C492.259216 252.070694,492.680725 251.053360,492.680725 249.992447Z" style="stroke:rgb(39.999390%,39.999390%,39.999390%); stroke-width: 0.500000;stroke-linecap: round;stroke-linejoin: round;stroke-miterlimit: 10.000000;fill: none;"></path>
  <path d="M492.680725 249.992447C492.680725 248.931534,492.259216 247.914200,491.509094 247.164078C490.758972 246.413956,489.741638 245.992447,488.680725 245.992447C487.619812 245.992447,486.602478 246.413956,485.852356 247.164078C485.102234 247.914200,484.680725 248.931534,484.680725 249.992447C484.680725 251.053360,485.102234 252.070694,485.852356 252.820816C486.602478 253.570938,487.619812 253.992447,488.680725 253.992447C489.741638 253.992447,490.758972 253.570938,491.509094 252.820816C492.259216 252.070694,492.680725 251.053360,492.680725 249.992447Z" style="fill: rgb(89.999390%,0.000000%,0.000000%);stroke: none;"></path>
  <path d="M582.872406 200.839447C582.872406 199.778534,582.450897 198.761200,581.700775 198.011078C580.950653 197.260956,579.933319 196.839447,578.872406 196.839447C577.811493 196.839447,576.794159 197.260956,576.044037 198.011078C575.293915 198.761200,574.872406 199.778534,574.872406 200.839447C574.872406 201.900360,575.293915 202.917694,576.044037 203.667816C576.794159 204.417938,577.811493 204.839447,578.872406 204.839447C579.933319 204.839447,580.950653 204.417938,581.700775 203.667816C582.450897 202.917694,582.872406 201.900360,582.872406 200.839447Z" style="stroke:rgb(39.999390%,39.999390%,39.999390%); stroke-width: 0.500000;stroke-linecap: round;stroke-linejoin: round;stroke-miterlimit: 10.000000;fill: none;"></path>
  <path d="M582.872406 200.839447C582.872406 199.778534,582.450897 198.761200,581.700775 198.011078C580.950653 197.260956,579.933319 196.839447,578.872406 196.839447C577.811493 196.839447,576.794159 197.260956,576.044037 198.011078C575.293915 198.761200,574.872406 199.778534,574.872406 200.839447C574.872406 201.900360,575.293915 202.917694,576.044037 203.667816C576.794159 204.417938,577.811493 204.839447,578.872406 204.839447C579.933319 204.839447,580.950653 204.417938,581.700775 203.667816C582.450897 202.917694,582.872406 201.900360,582.872406 200.839447Z" style="fill: rgb(100.000000%,100.000000%,0.000000%);stroke: none;"></path>
  <path d="M341.498566 489.771164L389.916260 580.343475" style="stroke:rgb(60.000610%,60.000610%,60.000610%); stroke-width: 1.500000;stroke-linecap: round;stroke-dasharray: 3.000000 3.000000 ;stroke-linejoin: round;stroke-miterlimit: 10.000000;fill: none;"></path>
  <path d="M345.498566 489.771164C345.498566 488.710251,345.077057 487.692917,344.326935 486.942795C343.576813 486.192673,342.559479 485.771164,341.498566 485.771164C340.437653 485.771164,339.420319 486.192673,338.670197 486.942795C337.920074 487.692917,337.498566 488.710251,337.498566 489.771164C337.498566 490.832077,337.920074 491.849411,338.670197 492.599533C339.420319 493.349655,340.437653 493.771164,341.498566 493.771164C342.559479 493.771164,343.576813 493.349655,344.326935 492.599533C345.077057 491.849411,345.498566 490.832077,345.498566 489.771164Z" style="stroke:rgb(39.999390%,39.999390%,39.999390%); stroke-width: 0.500000;stroke-linecap: round;stroke-linejoin: round;stroke-miterlimit: 10.000000;fill: none;"></path>
  <path d="M345.498566 489.771164C345.498566 488.710251,345.077057 487.692917,344.326935 486.942795C343.576813 486.192673,342.559479 485.771164,341.498566 485.771164C340.437653 485.771164,339.420319 486.192673,338.670197 486.942795C337.920074 487.692917,337.498566 488.710251,337.498566 489.771164C337.498566 490.832077,337.920074 491.849411,338.670197 492.599533C339.420319 493.349655,340.437653 493.771164,341.498566 493.771164C342.559479 493.771164,343.576813 493.349655,344.326935 492.599533C345.077057 491.849411,345.498566 490.832077,345.498566 489.771164Z" style="fill: rgb(89.999390%,0.000000%,0.000000%);stroke: none;"></path>
  <path d="M393.916260 580.343475C393.916260 579.282562,393.494751 578.265228,392.744629 577.515106C391.994507 576.764984,390.977173 576.343475,389.916260 576.343475C388.855347 576.343475,387.838013 576.764984,387.087891 577.515106C386.337769 578.265228,385.916260 579.282562,385.916260 580.343475C385.916260 581.404388,386.337769 582.421722,387.087891 583.171844C387.838013 583.921967,388.855347 584.343475,389.916260 584.343475C390.977173 584.343475,391.994507 583.921967,392.744629 583.171844C393.494751 582.421722,393.916260 581.404388,393.916260 580.343475Z" style="stroke:rgb(39.999390%,39.999390%,39.999390%); stroke-width: 0.500000;stroke-linecap: round;stroke-linejoin: round;stroke-miterlimit: 10.000000;fill: none;"></path>
  <path d="M393.916260 580.343475C393.916260 579.282562,393.494751 578.265228,392.744629 577.515106C391.994507 576.764984,390.977173 576.343475,389.916260 576.343475C388.855347 576.343475,387.838013 576.764984,387.087891 577.515106C386.337769 578.265228,385.916260 579.282562,385.916260 580.343475C385.916260 581.404388,386.337769 582.421722,387.087891 583.171844C387.838013 583.921967,388.855347 584.343475,389.916260 584.343475C390.977173 584.343475,391.994507 583.921967,392.744629 583.171844C393.494751 582.421722,393.916260 581.404388,393.916260 580.343475Z" style="fill: rgb(100.000000%,100.000000%,0.000000%);stroke: none;"></path>
  <path d="M341.498566 489.771164L293.089523 399.207504" style="stroke:rgb(60.000610%,60.000610%,60.000610%); stroke-width: 1.500000;stroke-linecap: round;stroke-dasharray: 3.000000 3.000000 ;stroke-linejoin: round;stroke-miterlimit: 10.000000;fill: none;"></path>
  <path d="M295.823135 296.550247L293.089523 399.207504" style="stroke:rgb(60.000610%,60.000610%,60.000610%); stroke-width: 1.500000;stroke-linecap: round;stroke-dasharray: 3.000000 3.000000 ;stroke-linejoin: round;stroke-miterlimit: 10.000000;fill: none;"></path>
  <path d="M345.498566 489.771164C345.498566 488.710251,345.077057 487.692917,344.326935 486.942795C343.576813 486.192673,342.559479 485.771164,341.498566 485.771164C340.437653 485.771164,339.420319 486.192673,338.670197 486.942795C337.920074 487.692917,337.498566 488.710251,337.498566 489.771164C337.498566 490.832077,337.920074 491.849411,338.670197 492.599533C339.420319 493.349655,340.437653 493.771164,341.498566 493.771164C342.559479 493.771164,343.576813 493.349655,344.326935 492.599533C345.077057 491.849411,345.498566 490.832077,345.498566 489.771164Z" style="stroke:rgb(39.999390%,39.999390%,39.999390%); stroke-width: 0.500000;stroke-linecap: round;stroke-linejoin: round;stroke-miterlimit: 10.000000;fill: none;"></path>
  <path d="M345.498566 489.771164C345.498566 488.710251,345.077057 487.692917,344.326935 486.942795C343.576813 486.192673,342.559479 485.771164,341.498566 485.771164C340.437653 485.771164,339.420319 486.192673,338.670197 486.942795C337.920074 487.692917,337.498566 488.710251,337.498566 489.771164C337.498566 490.832077,337.920074 491.849411,338.670197 492.599533C339.420319 493.349655,340.437653 493.771164,341.498566 493.771164C342.559479 493.771164,343.576813 493.349655,344.326935 492.599533C345.077057 491.849411,345.498566 490.832077,345.498566 489.771164Z" style="fill: rgb(89.999390%,0.000000%,0.000000%);stroke: none;"></path>
  <path d="M299.823135 296.550247C299.823135 295.489334,299.401627 294.472000,298.651505 293.721878C297.901382 292.971756,296.884048 292.550247,295.823135 292.550247C294.762222 292.550247,293.744888 292.971756,292.994766 293.721878C292.244644 294.472000,291.823135 295.489334,291.823135 296.550247C291.823135 297.611160,292.244644 298.628494,292.994766 299.378616C293.744888 300.128738,294.762222 300.550247,295.823135 300.550247C296.884048 300.550247,297.901382 300.128738,298.651505 299.378616C299.401627 298.628494,299.823135 297.611160,299.823135 296.550247Z" style="stroke:rgb(39.999390%,39.999390%,39.999390%); stroke-width: 0.500000;stroke-linecap: round;stroke-linejoin: round;stroke-miterlimit: 10.000000;fill: none;"></path>
  <path d="M299.823135 296.550247C299.823135 295.489334,299.401627 294.472000,298.651505 293.721878C297.901382 292.971756,296.884048 292.550247,295.823135 292.550247C294.762222 292.550247,293.744888 292.971756,292.994766 293.721878C292.244644 294.472000,291.823135 295.489334,291.823135 296.550247C291.823135 297.611160,292.244644 298.628494,292.994766 299.378616C293.744888 300.128738,294.762222 300.550247,295.823135 300.550247C296.884048 300.550247,297.901382 300.128738,298.651505 299.378616C299.401627 298.628494,299.823135 297.611160,299.823135 296.550247Z" style="fill: rgb(89.999390%,0.000000%,0.000000%);stroke: none;"></path>
  <path d="M297.089523 399.207504C297.089523 398.146591,296.668015 397.129257,295.917892 396.379135C295.167770 395.629013,294.150436 395.207504,293.089523 395.207504C292.028610 395.207504,291.011276 395.629013,290.261154 396.379135C289.511032 397.129257,289.089523 398.146591,289.089523 399.207504C289.089523 400.268417,289.511032 401.285751,290.261154 402.035873C291.011276 402.785995,292.028610 403.207504,293.089523 403.207504C294.150436 403.207504,295.167770 402.785995,295.917892 402.035873C296.668015 401.285751,297.089523 400.268417,297.089523 399.207504Z" style="stroke:rgb(39.999390%,39.999390%,39.999390%); stroke-width: 0.500000;stroke-linecap: round;stroke-linejoin: round;stroke-miterlimit: 10.000000;fill: none;"></path>
  <path d="M297.089523 399.207504C297.089523 398.146591,296.668015 397.129257,295.917892 396.379135C295.167770 395.629013,294.150436 395.207504,293.089523 395.207504C292.028610 395.207504,291.011276 395.629013,290.261154 396.379135C289.511032 397.129257,289.089523 398.146591,289.089523 399.207504C289.089523 400.268417,289.511032 401.285751,290.261154 402.035873C291.011276 402.785995,292.028610 403.207504,293.089523 403.207504C294.150436 403.207504,295.167770 402.785995,295.917892 402.035873C296.668015 401.285751,297.089523 400.268417,297.089523 399.207504Z" style="fill: rgb(0.000000%,50.000000%,0.000000%);stroke: none;"></path>
  <path d="M248.530029 102.870834L296.151855 11.883301" style="stroke:rgb(60.000610%,60.000610%,60.000610%); stroke-width: 1.500000;stroke-linecap: round;stroke-dasharray: 3.000000 3.000000 ;stroke-linejoin: round;stroke-miterlimit: 10.000000;fill: none;"></path>
  <path d="M252.530029 102.870834C252.530029 101.809921,252.108521 100.792587,251.358398 100.042465C250.608276 99.292343,249.590942 98.870834,248.530029 98.870834C247.469116 98.870834,246.451782 99.292343,245.701660 100.042465C244.951538 100.792587,244.530029 101.809921,244.530029 102.870834C244.530029 103.931747,244.951538 104.949081,245.701660 105.699203C246.451782 106.449326,247.469116 106.870834,248.530029 106.870834C249.590942 106.870834,250.608276 106.449326,251.358398 105.699203C252.108521 104.949081,252.530029 103.931747,252.530029 102.870834Z" style="stroke:rgb(39.999390%,39.999390%,39.999390%); stroke-width: 0.500000;stroke-linecap: round;stroke-linejoin: round;stroke-miterlimit: 10.000000;fill: none;"></path>
  <path d="M252.530029 102.870834C252.530029 101.809921,252.108521 100.792587,251.358398 100.042465C250.608276 99.292343,249.590942 98.870834,248.530029 98.870834C247.469116 98.870834,246.451782 99.292343,245.701660 100.042465C244.951538 100.792587,244.530029 101.809921,244.530029 102.870834C244.530029 103.931747,244.951538 104.949081,245.701660 105.699203C246.451782 106.449326,247.469116 106.870834,248.530029 106.870834C249.590942 106.870834,250.608276 106.449326,251.358398 105.699203C252.108521 104.949081,252.530029 103.931747,252.530029 102.870834Z" style="fill: rgb(89.999390%,0.000000%,0.000000%);stroke: none;"></path>
  <path d="M300.151855 11.883301C300.151855 10.822388,299.730347 9.805054,298.980225 9.054932C298.230103 8.304810,297.212769 7.883301,296.151855 7.883301C295.090942 7.883301,294.073608 8.304810,293.323486 9.054932C292.573364 9.805054,292.151855 10.822388,292.151855 11.883301C292.151855 12.944214,292.573364 13.961548,293.323486 14.711670C294.073608 15.461792,295.090942 15.883301,296.151855 15.883301C297.212769 15.883301,298.230103 15.461792,298.980225 14.711670C299.730347 13.961548,300.151855 12.944214,300.151855 11.883301Z" style="stroke:rgb(39.999390%,39.999390%,39.999390%); stroke-width: 0.500000;stroke-linecap: round;stroke-linejoin: round;stroke-miterlimit: 10.000000;fill: none;"></path>
  <path d="M300.151855 11.883301C300.151855 10.822388,299.730347 9.805054,298.980225 9.054932C298.230103 8.304810,297.212769 7.883301,296.151855 7.883301C295.090942 7.883301,294.073608 8.304810,293.323486 9.054932C292.573364 9.805054,292.151855 10.822388,292.151855 11.883301C292.151855 12.944214,292.573364 13.961548,293.323486 14.711670C294.073608 15.461792,295.090942 15.883301,296.151855 15.883301C297.212769 15.883301,298.230103 15.461792,298.980225 14.711670C299.730347 13.961548,300.151855 12.944214,300.151855 11.883301Z" style="fill: rgb(100.000000%,100.000000%,0.000000%);stroke: none;"></path>
  <path d="M248.530029 102.870834L200.908203 11.883301" style="stroke:rgb(60.000610%,60.000610%,60.000610%); stroke-width: 1.500000;stroke-linecap: round;stroke-dasharray: 3.000000 3.000000 ;stroke-linejoin: round;stroke-miterlimit: 10.000000;fill: none;"></path>
  <path d="M252.530029 102.870834C252.530029 101.809921,252.108521 100.792587,251.358398 100.042465C250.608276 99.292343,249.590942 98.870834,248.530029 98.870834C247.469116 98.870834,246.451782 99.292343,245.701660 100.042465C244.951538 100.792587,244.530029 101.809921,244.530029 102.870834C244.530029 103.931747,244.951538 104.949081,245.701660 105.699203C246.451782 106.449326,247.469116 106.870834,248.530029 106.870834C249.590942 106.870834,250.608276 106.449326,251.358398 105.699203C252.108521 104.949081,252.530029 103.931747,252.530029 102.870834Z" style="stroke:rgb(39.999390%,39.999390%,39.999390%); stroke-width: 0.500000;stroke-linecap: round;stroke-linejoin: round;stroke-miterlimit: 10.000000;fill: none;"></path>
  <path d="M252.530029 102.870834C252.530029 101.809921,252.108521 100.792587,251.358398 100.042465C250.608276 99.292343,249.590942 98.870834,248.530029 98.870834C247.469116 98.870834,246.451782 99.292343,245.701660 100.042465C244.951538 100.792587,244.530029 101.809921,244.530029 102.870834C244.530029 103.931747,244.951538 104.949081,245.701660 105.699203C246.451782 106.449326,247.469116 106.870834,248.530029 106.870834C249.590942 106.870834,250.608276 106.449326,251.358398 105.699203C252.108521 104.949081,252.530029 103.931747,252.530029 102.870834Z" style="fill: rgb(89.999390%,0.000000%,0.000000%);stroke: none;"></path>
  <path d="M204.908203 11.883301C204.908203 10.822388,204.486694 9.805054,203.736572 9.054932C202.986450 8.304810,201.969116 7.883301,200.908203 7.883301C199.847290 7.883301,198.829956 8.304810,198.079834 9.054932C197.329712 9.805054,196.908203 10.822388,196.908203 11.883301C196.908203 12.944214,197.329712 13.961548,198.079834 14.711670C198.829956 15.461792,199.847290 15.883301,200.908203 15.883301C201.969116 15.883301,202.986450 15.461792,203.736572 14.711670C204.486694 13.961548,204.908203 12.944214,204.908203 11.883301Z" style="stroke:rgb(39.999390%,39.999390%,39.999390%); stroke-width: 0.500000;stroke-linecap: round;stroke-linejoin: round;stroke-miterlimit: 10.000000;fill: none;"></path>
  <path d="M204.908203 11.883301C204.908203 10.822388,204.486694 9.805054,203.736572 9.054932C202.986450 8.304810,201.969116 7.883301,200.908203 7.883301C199.847290 7.883301,198.829956 8.304810,198.079834 9.054932C197.329712 9.805054,196.908203 10.822388,196.908203 11.883301C196.908203 12.944214,197.329712 13.961548,198.079834 14.711670C198.829956 15.461792,199.847290 15.883301,200.908203 15.883301C201.969116 15.883301,202.986450 15.461792,203.736572 14.711670C204.486694 13.961548,204.908203 12.944214,204.908203 11.883301Z" style="fill: rgb(100.000000%,100.000000%,0.000000%);stroke: none;"></path>
  <path d="M248.530029 102.870834L296.143204 193.858368" style="stroke:rgb(60.000610%,60.000610%,60.000610%); stroke-width: 1.500000;stroke-linecap: round;stroke-dasharray: 3.000000 3.000000 ;stroke-linejoin: round;stroke-miterlimit: 10.000000;fill: none;"></path>
  <path d="M295.823135 296.550247L296.143204 193.858368" style="stroke:rgb(60.000610%,60.000610%,60.000610%); stroke-width: 1.500000;stroke-linecap: round;stroke-dasharray: 3.000000 3.000000 ;stroke-linejoin: round;stroke-miterlimit: 10.000000;fill: none;"></path>
  <path d="M252.530029 102.870834C252.530029 101.809921,252.108521 100.792587,251.358398 100.042465C250.608276 99.292343,249.590942 98.870834,248.530029 98.870834C247.469116 98.870834,246.451782 99.292343,245.701660 100.042465C244.951538 100.792587,244.530029 101.809921,244.530029 102.870834C244.530029 103.931747,244.951538 104.949081,245.701660 105.699203C246.451782 106.449326,247.469116 106.870834,248.530029 106.870834C249.590942 106.870834,250.608276 106.449326,251.358398 105.699203C252.108521 104.949081,252.530029 103.931747,252.530029 102.870834Z" style="stroke:rgb(39.999390%,39.999390%,39.999390%); stroke-width: 0.500000;stroke-linecap: round;stroke-linejoin: round;stroke-miterlimit: 10.000000;fill: none;"></path>
  <path d="M252.530029 102.870834C252.530029 101.809921,252.108521 100.792587,251.358398 100.042465C250.608276 99.292343,249.590942 98.870834,248.530029 98.870834C247.469116 98.870834,246.451782 99.292343,245.701660 100.042465C244.951538 100.792587,244.530029 101.809921,244.530029 102.870834C244.530029 103.931747,244.951538 104.949081,245.701660 105.699203C246.451782 106.449326,247.469116 106.870834,248.530029 106.870834C249.590942 106.870834,250.608276 106.449326,251.358398 105.699203C252.108521 104.949081,252.530029 103.931747,252.530029 102.870834Z" style="fill: rgb(89.999390%,0.000000%,0.000000%);stroke: none;"></path>
  <path d="M299.823135 296.550247C299.823135 295.489334,299.401627 294.472000,298.651505 293.721878C297.901382 292.971756,296.884048 292.550247,295.823135 292.550247C294.762222 292.550247,293.744888 292.971756,292.994766 293.721878C292.244644 294.472000,291.823135 295.489334,291.823135 296.550247C291.823135 297.611160,292.244644 298.628494,292.994766 299.378616C293.744888 300.128738,294.762222 300.550247,295.823135 300.550247C296.884048 300.550247,297.901382 300.128738,298.651505 299.378616C299.401627 298.628494,299.823135 297.611160,299.823135 296.550247Z" style="stroke:rgb(39.999390%,39.999390%,39.999390%); stroke-width: 0.500000;stroke-linecap: round;stroke-linejoin: round;stroke-miterlimit: 10.000000;fill: none;"></path>
  <path d="M299.823135 296.550247C299.823135 295.489334,299.401627 294.472000,298.651505 293.721878C297.901382 292.971756,296.884048 292.550247,295.823135 292.550247C294.762222 292.550247,293.744888 292.971756,292.994766 293.721878C292.244644 294.472000,291.823135 295.489334,291.823135 296.550247C291.823135 297.611160,292.244644 298.628494,292.994766 299.378616C293.744888 300.128738,294.762222 300.550247,295.823135 300.550247C296.884048 300.550247,297.901382 300.128738,298.651505 299.378616C299.401627 298.628494,299.823135 297.611160,299.823135 296.550247Z" style="fill: rgb(89.999390%,0.000000%,0.000000%);stroke: none;"></path>
  <path d="M300.143204 193.858368C300.143204 192.797455,299.721695 191.780121,298.971573 191.029999C298.221451 190.279877,297.204117 189.858368,296.143204 189.858368C295.082291 189.858368,294.064957 190.279877,293.314835 191.029999C292.564713 191.780121,292.143204 192.797455,292.143204 193.858368C292.143204 194.919281,292.564713 195.936615,293.314835 196.686737C294.064957 197.436859,295.082291 197.858368,296.143204 197.858368C297.204117 197.858368,298.221451 197.436859,298.971573 196.686737C299.721695 195.936615,300.143204 194.919281,300.143204 193.858368Z" style="stroke:rgb(39.999390%,39.999390%,39.999390%); stroke-width: 0.500000;stroke-linecap: round;stroke-linejoin: round;stroke-miterlimit: 10.000000;fill: none;"></path>
  <path d="M300.143204 193.858368C300.143204 192.797455,299.721695 191.780121,298.971573 191.029999C298.221451 190.279877,297.204117 189.858368,296.143204 189.858368C295.082291 189.858368,294.064957 190.279877,293.314835 191.029999C292.564713 191.780121,292.143204 192.797455,292.143204 193.858368C292.143204 194.919281,292.564713 195.936615,293.314835 196.686737C294.064957 197.436859,295.082291 197.858368,296.143204 197.858368C297.204117 197.858368,298.221451 197.436859,298.971573 196.686737C299.721695 195.936615,300.143204 194.919281,300.143204 193.858368Z" style="fill: rgb(0.000000%,50.000000%,0.000000%);stroke: none;"></path>
</svg>
