<?xml version="1.0"?>
<!-- Created by MetaPost 2.00 on 2025.04.10:1708 -->
<svg version="1.1" xmlns="http://www.w3.org/2000/svg" xmlns:xlink="http://www.w3.org/1999/xlink" width="740.267273" height="719.324051" viewBox="0 0 740.267273 719.324051">
<!-- Original BoundingBox: -392.582077 -337.719650 347.685196 381.604401 -->
  <path d="M374.196960 663.893570L409.803040 663.893570L445.123642 659.421173L479.587830 650.571564L512.702530 637.474472L543.879471 620.354843L572.677475 599.437576L598.646729 575.060043L621.320084 547.620178L640.429367 517.576462L655.568008 485.370102L666.562988 451.468201L673.249939 416.545517L675.464508 381.000000L673.249939 345.454483L666.562988 310.531799L655.568008 276.629898L640.429367 244.423538L621.320084 214.379822L598.646729 186.939957L572.677475 162.562424L543.879471 141.645157L512.702530 124.525528L479.587830 111.428436L445.123642 102.578827L409.803040 98.106430L374.196960 98.106430L338.876358 102.578827L304.412170 111.428436L271.297470 124.525528L240.120529 141.645157L211.322525 162.562424L185.353271 186.939957L162.679916 214.379822L143.570633 244.423538L128.431992 276.629898L117.437012 310.531799L110.750061 345.454483L108.535492 381.000000L110.750061 416.545517L117.437012 451.468201L128.431992 485.370102L143.570633 517.576462L162.679916 547.620178L185.353271 575.060043L211.322525 599.437576L240.120529 620.354843L271.297470 637.474472L304.412170 650.571564L338.876358 659.421173L374.196960 663.893570Z" style="fill: rgb(100.000000%,100.000000%,100.000000%);stroke: none;"></path>
  <path d="M374.196960 663.893570L409.803040 663.893570" style="stroke:rgb(0.000000%,0.000000%,0.000000%); stroke-width: 1.000000;stroke-linecap: round;stroke-linejoin: round;stroke-miterlimit: 10.000000;fill: none;"></path>
  <path d="M409.803040 663.893570L445.123642 659.421173" style="stroke:rgb(0.000000%,0.000000%,0.000000%); stroke-width: 1.000000;stroke-linecap: round;stroke-linejoin: round;stroke-miterlimit: 10.000000;fill: none;"></path>
  <path d="M445.123642 659.421173L479.587830 650.571564" style="stroke:rgb(0.000000%,0.000000%,0.000000%); stroke-width: 1.000000;stroke-linecap: round;stroke-linejoin: round;stroke-miterlimit: 10.000000;fill: none;"></path>
  <path d="M479.587830 650.571564L512.702530 637.474472" style="stroke:rgb(0.000000%,0.000000%,0.000000%); stroke-width: 1.000000;stroke-linecap: round;stroke-linejoin: round;stroke-miterlimit: 10.000000;fill: none;"></path>
  <path d="M512.702530 637.474472L543.879471 620.354843" style="stroke:rgb(0.000000%,0.000000%,0.000000%); stroke-width: 1.000000;stroke-linecap: round;stroke-linejoin: round;stroke-miterlimit: 10.000000;fill: none;"></path>
  <path d="M543.879471 620.354843L572.677475 599.437576" style="stroke:rgb(0.000000%,0.000000%,0.000000%); stroke-width: 1.000000;stroke-linecap: round;stroke-linejoin: round;stroke-miterlimit: 10.000000;fill: none;"></path>
  <path d="M572.677475 599.437576L598.646729 575.060043" style="stroke:rgb(0.000000%,0.000000%,0.000000%); stroke-width: 1.000000;stroke-linecap: round;stroke-linejoin: round;stroke-miterlimit: 10.000000;fill: none;"></path>
  <path d="M598.646729 575.060043L621.320084 547.620178" style="stroke:rgb(0.000000%,0.000000%,0.000000%); stroke-width: 1.000000;stroke-linecap: round;stroke-linejoin: round;stroke-miterlimit: 10.000000;fill: none;"></path>
  <path d="M621.320084 547.620178L640.429367 517.576462" style="stroke:rgb(0.000000%,0.000000%,0.000000%); stroke-width: 1.000000;stroke-linecap: round;stroke-linejoin: round;stroke-miterlimit: 10.000000;fill: none;"></path>
  <path d="M640.429367 517.576462L655.568008 485.370102" style="stroke:rgb(0.000000%,0.000000%,0.000000%); stroke-width: 1.000000;stroke-linecap: round;stroke-linejoin: round;stroke-miterlimit: 10.000000;fill: none;"></path>
  <path d="M655.568008 485.370102L666.562988 451.468201" style="stroke:rgb(0.000000%,0.000000%,0.000000%); stroke-width: 1.000000;stroke-linecap: round;stroke-linejoin: round;stroke-miterlimit: 10.000000;fill: none;"></path>
  <path d="M666.562988 451.468201L673.249939 416.545517" style="stroke:rgb(0.000000%,0.000000%,0.000000%); stroke-width: 1.000000;stroke-linecap: round;stroke-linejoin: round;stroke-miterlimit: 10.000000;fill: none;"></path>
  <path d="M673.249939 416.545517L675.464508 381.000000" style="stroke:rgb(0.000000%,0.000000%,0.000000%); stroke-width: 1.000000;stroke-linecap: round;stroke-linejoin: round;stroke-miterlimit: 10.000000;fill: none;"></path>
  <path d="M675.464508 381.000000L673.249939 345.454483" style="stroke:rgb(0.000000%,0.000000%,0.000000%); stroke-width: 1.000000;stroke-linecap: round;stroke-linejoin: round;stroke-miterlimit: 10.000000;fill: none;"></path>
  <path d="M673.249939 345.454483L666.562988 310.531799" style="stroke:rgb(0.000000%,0.000000%,0.000000%); stroke-width: 1.000000;stroke-linecap: round;stroke-linejoin: round;stroke-miterlimit: 10.000000;fill: none;"></path>
  <path d="M666.562988 310.531799L655.568008 276.629898" style="stroke:rgb(0.000000%,0.000000%,0.000000%); stroke-width: 1.000000;stroke-linecap: round;stroke-linejoin: round;stroke-miterlimit: 10.000000;fill: none;"></path>
  <path d="M655.568008 276.629898L640.429367 244.423538" style="stroke:rgb(0.000000%,0.000000%,0.000000%); stroke-width: 1.000000;stroke-linecap: round;stroke-linejoin: round;stroke-miterlimit: 10.000000;fill: none;"></path>
  <path d="M640.429367 244.423538L621.320084 214.379822" style="stroke:rgb(0.000000%,0.000000%,0.000000%); stroke-width: 1.000000;stroke-linecap: round;stroke-linejoin: round;stroke-miterlimit: 10.000000;fill: none;"></path>
  <path d="M621.320084 214.379822L598.646729 186.939957" style="stroke:rgb(0.000000%,0.000000%,0.000000%); stroke-width: 1.000000;stroke-linecap: round;stroke-linejoin: round;stroke-miterlimit: 10.000000;fill: none;"></path>
  <path d="M598.646729 186.939957L572.677475 162.562424" style="stroke:rgb(0.000000%,0.000000%,0.000000%); stroke-width: 1.000000;stroke-linecap: round;stroke-linejoin: round;stroke-miterlimit: 10.000000;fill: none;"></path>
  <path d="M572.677475 162.562424L543.879471 141.645157" style="stroke:rgb(0.000000%,0.000000%,0.000000%); stroke-width: 1.000000;stroke-linecap: round;stroke-linejoin: round;stroke-miterlimit: 10.000000;fill: none;"></path>
  <path d="M543.879471 141.645157L512.702530 124.525528" style="stroke:rgb(0.000000%,0.000000%,0.000000%); stroke-width: 1.000000;stroke-linecap: round;stroke-linejoin: round;stroke-miterlimit: 10.000000;fill: none;"></path>
  <path d="M512.702530 124.525528L479.587830 111.428436" style="stroke:rgb(0.000000%,0.000000%,0.000000%); stroke-width: 1.000000;stroke-linecap: round;stroke-linejoin: round;stroke-miterlimit: 10.000000;fill: none;"></path>
  <path d="M479.587830 111.428436L445.123642 102.578827" style="stroke:rgb(0.000000%,0.000000%,0.000000%); stroke-width: 1.000000;stroke-linecap: round;stroke-linejoin: round;stroke-miterlimit: 10.000000;fill: none;"></path>
  <path d="M445.123642 102.578827L409.803040 98.106430" style="stroke:rgb(0.000000%,0.000000%,0.000000%); stroke-width: 1.000000;stroke-linecap: round;stroke-linejoin: round;stroke-miterlimit: 10.000000;fill: none;"></path>
  <path d="M409.803040 98.106430L374.196960 98.106430" style="stroke:rgb(0.000000%,0.000000%,0.000000%); stroke-width: 1.000000;stroke-linecap: round;stroke-linejoin: round;stroke-miterlimit: 10.000000;fill: none;"></path>
  <path d="M374.196960 98.106430L338.876358 102.578827" style="stroke:rgb(0.000000%,0.000000%,0.000000%); stroke-width: 1.000000;stroke-linecap: round;stroke-linejoin: round;stroke-miterlimit: 10.000000;fill: none;"></path>
  <path d="M338.876358 102.578827L304.412170 111.428436" style="stroke:rgb(0.000000%,0.000000%,0.000000%); stroke-width: 1.000000;stroke-linecap: round;stroke-linejoin: round;stroke-miterlimit: 10.000000;fill: none;"></path>
  <path d="M304.412170 111.428436L271.297470 124.525528" style="stroke:rgb(0.000000%,0.000000%,0.000000%); stroke-width: 1.000000;stroke-linecap: round;stroke-linejoin: round;stroke-miterlimit: 10.000000;fill: none;"></path>
  <path d="M271.297470 124.525528L240.120529 141.645157" style="stroke:rgb(0.000000%,0.000000%,0.000000%); stroke-width: 1.000000;stroke-linecap: round;stroke-linejoin: round;stroke-miterlimit: 10.000000;fill: none;"></path>
  <path d="M240.120529 141.645157L211.322525 162.562424" style="stroke:rgb(0.000000%,0.000000%,0.000000%); stroke-width: 1.000000;stroke-linecap: round;stroke-linejoin: round;stroke-miterlimit: 10.000000;fill: none;"></path>
  <path d="M211.322525 162.562424L185.353271 186.939957" style="stroke:rgb(0.000000%,0.000000%,0.000000%); stroke-width: 1.000000;stroke-linecap: round;stroke-linejoin: round;stroke-miterlimit: 10.000000;fill: none;"></path>
  <path d="M185.353271 186.939957L162.679916 214.379822" style="stroke:rgb(0.000000%,0.000000%,0.000000%); stroke-width: 1.000000;stroke-linecap: round;stroke-linejoin: round;stroke-miterlimit: 10.000000;fill: none;"></path>
  <path d="M162.679916 214.379822L143.570633 244.423538" style="stroke:rgb(0.000000%,0.000000%,0.000000%); stroke-width: 1.000000;stroke-linecap: round;stroke-linejoin: round;stroke-miterlimit: 10.000000;fill: none;"></path>
  <path d="M143.570633 244.423538L128.431992 276.629898" style="stroke:rgb(0.000000%,0.000000%,0.000000%); stroke-width: 1.000000;stroke-linecap: round;stroke-linejoin: round;stroke-miterlimit: 10.000000;fill: none;"></path>
  <path d="M128.431992 276.629898L117.437012 310.531799" style="stroke:rgb(0.000000%,0.000000%,0.000000%); stroke-width: 1.000000;stroke-linecap: round;stroke-linejoin: round;stroke-miterlimit: 10.000000;fill: none;"></path>
  <path d="M117.437012 310.531799L110.750061 345.454483" style="stroke:rgb(0.000000%,0.000000%,0.000000%); stroke-width: 1.000000;stroke-linecap: round;stroke-linejoin: round;stroke-miterlimit: 10.000000;fill: none;"></path>
  <path d="M110.750061 345.454483L108.535492 381.000000" style="stroke:rgb(0.000000%,0.000000%,0.000000%); stroke-width: 1.000000;stroke-linecap: round;stroke-linejoin: round;stroke-miterlimit: 10.000000;fill: none;"></path>
  <path d="M108.535492 381.000000L110.750061 416.545517" style="stroke:rgb(0.000000%,0.000000%,0.000000%); stroke-width: 1.000000;stroke-linecap: round;stroke-linejoin: round;stroke-miterlimit: 10.000000;fill: none;"></path>
  <path d="M110.750061 416.545517L117.437012 451.468201" style="stroke:rgb(0.000000%,0.000000%,0.000000%); stroke-width: 1.000000;stroke-linecap: round;stroke-linejoin: round;stroke-miterlimit: 10.000000;fill: none;"></path>
  <path d="M117.437012 451.468201L128.431992 485.370102" style="stroke:rgb(0.000000%,0.000000%,0.000000%); stroke-width: 1.000000;stroke-linecap: round;stroke-linejoin: round;stroke-miterlimit: 10.000000;fill: none;"></path>
  <path d="M128.431992 485.370102L143.570633 517.576462" style="stroke:rgb(0.000000%,0.000000%,0.000000%); stroke-width: 1.000000;stroke-linecap: round;stroke-linejoin: round;stroke-miterlimit: 10.000000;fill: none;"></path>
  <path d="M143.570633 517.576462L162.679916 547.620178" style="stroke:rgb(0.000000%,0.000000%,0.000000%); stroke-width: 1.000000;stroke-linecap: round;stroke-linejoin: round;stroke-miterlimit: 10.000000;fill: none;"></path>
  <path d="M162.679916 547.620178L185.353271 575.060043" style="stroke:rgb(0.000000%,0.000000%,0.000000%); stroke-width: 1.000000;stroke-linecap: round;stroke-linejoin: round;stroke-miterlimit: 10.000000;fill: none;"></path>
  <path d="M185.353271 575.060043L211.322525 599.437576" style="stroke:rgb(0.000000%,0.000000%,0.000000%); stroke-width: 1.000000;stroke-linecap: round;stroke-linejoin: round;stroke-miterlimit: 10.000000;fill: none;"></path>
  <path d="M211.322525 599.437576L240.120529 620.354843" style="stroke:rgb(0.000000%,0.000000%,0.000000%); stroke-width: 1.000000;stroke-linecap: round;stroke-linejoin: round;stroke-miterlimit: 10.000000;fill: none;"></path>
  <path d="M240.120529 620.354843L271.297470 637.474472" style="stroke:rgb(0.000000%,0.000000%,0.000000%); stroke-width: 1.000000;stroke-linecap: round;stroke-linejoin: round;stroke-miterlimit: 10.000000;fill: none;"></path>
  <path d="M271.297470 637.474472L304.412170 650.571564" style="stroke:rgb(0.000000%,0.000000%,0.000000%); stroke-width: 1.000000;stroke-linecap: round;stroke-linejoin: round;stroke-miterlimit: 10.000000;fill: none;"></path>
  <path d="M304.412170 650.571564L338.876358 659.421173" style="stroke:rgb(0.000000%,0.000000%,0.000000%); stroke-width: 1.000000;stroke-linecap: round;stroke-linejoin: round;stroke-miterlimit: 10.000000;fill: none;"></path>
  <path d="M338.876358 659.421173L374.196960 663.893570" style="stroke:rgb(0.000000%,0.000000%,0.000000%); stroke-width: 1.000000;stroke-linecap: round;stroke-linejoin: round;stroke-miterlimit: 10.000000;fill: none;"></path>
  <path d="M314.628586 398.837646C314.628586 357.102570,298.046921 317.081833,268.537994 287.572906C239.029068 258.063980,199.008331 241.482315,157.273254 241.482315C115.538177 241.482315,75.517441 258.063980,46.008514 287.572906C16.499588 317.081833,-0.082077 357.102570,-0.082077 398.837646C-0.082077 440.572723,16.499588 480.593460,46.008514 510.102386C75.517441 539.611313,115.538177 556.192978,157.273254 556.192978C199.008331 556.192978,239.029068 539.611313,268.537994 510.102386C298.046921 480.593460,314.628586 440.572723,314.628586 398.837646Z" style="stroke:rgb(25.500488%,41.000366%,88.400269%); stroke-width: 1.000000;stroke-linecap: round;stroke-linejoin: round;stroke-miterlimit: 10.000000;fill: none;"></path>
  <path d="M458.099625 265.513824C458.099625 223.778748,441.517960 183.758011,412.009033 154.249084C382.500107 124.740158,342.479370 108.158493,300.744293 108.158493C259.009216 108.158493,218.988480 124.740158,189.479553 154.249084C159.970627 183.758011,143.388962 223.778748,143.388962 265.513824C143.388962 307.248901,159.970627 347.269638,189.479553 376.778564C218.988480 406.287491,259.009216 422.869156,300.744293 422.869156C342.479370 422.869156,382.500107 406.287491,412.009033 376.778564C441.517960 347.269638,458.099625 307.248901,458.099625 265.513824Z" style="stroke:rgb(25.500488%,41.000366%,88.400269%); stroke-width: 1.000000;stroke-linecap: round;stroke-linejoin: round;stroke-miterlimit: 10.000000;fill: none;"></path>
  <path d="M484.016968 560.864319C484.016968 519.129242,467.435303 479.108505,437.926376 449.599579C408.417450 420.090652,368.396713 403.508987,326.661636 403.508987C284.926559 403.508987,244.905823 420.090652,215.396896 449.599579C185.887970 479.108505,169.306305 519.129242,169.306305 560.864319C169.306305 602.599396,185.887970 642.620132,215.396896 672.129059C244.905823 701.637985,284.926559 718.219650,326.661636 718.219650C368.396713 718.219650,408.417450 701.637985,437.926376 672.129059C467.435303 642.620132,484.016968 602.599396,484.016968 560.864319Z" style="stroke:rgb(25.500488%,41.000366%,88.400269%); stroke-width: 1.000000;stroke-linecap: round;stroke-linejoin: round;stroke-miterlimit: 10.000000;fill: none;"></path>
  <path d="M647.393158 505.759674C647.393158 464.024597,630.811493 424.003860,601.302567 394.494934C571.793640 364.986008,531.772903 348.404343,490.037827 348.404343C448.302750 348.404343,408.282013 364.986008,378.773087 394.494934C349.264160 424.003860,332.682495 464.024597,332.682495 505.759674C332.682495 547.494751,349.264160 587.515488,378.773087 617.024414C408.282013 646.533340,448.302750 663.115005,490.037827 663.115005C531.772903 663.115005,571.793640 646.533340,601.302567 617.024414C630.811493 587.515488,647.393158 547.494751,647.393158 505.759674Z" style="stroke:rgb(25.500488%,41.000366%,88.400269%); stroke-width: 1.000000;stroke-linecap: round;stroke-linejoin: round;stroke-miterlimit: 10.000000;fill: none;"></path>
  <path d="M621.813171 157.250931C621.813171 115.515854,605.231506 75.495117,575.722580 45.986191C546.213654 16.477264,506.192917 -0.104401,464.457840 -0.104401C422.722763 -0.104401,382.702026 16.477264,353.193100 45.986191C323.684174 75.495117,307.102509 115.515854,307.102509 157.250931C307.102509 198.986008,323.684174 239.006744,353.193100 268.515671C382.702026 298.024597,422.722763 314.606262,464.457840 314.606262C506.192917 314.606262,546.213654 298.024597,575.722580 268.515671C605.231506 239.006744,621.813171 198.986008,621.813171 157.250931Z" style="stroke:rgb(25.500488%,41.000366%,88.400269%); stroke-width: 1.000000;stroke-linecap: round;stroke-linejoin: round;stroke-miterlimit: 10.000000;fill: none;"></path>
  <path d="M739.185196 359.728058C739.185196 317.992981,722.603531 277.972244,693.094604 248.463318C663.585678 218.954391,623.564941 202.372726,581.829865 202.372726C540.094788 202.372726,500.074051 218.954391,470.565125 248.463318C441.056198 277.972244,424.474533 317.992981,424.474533 359.728058C424.474533 401.463135,441.056198 441.483871,470.565125 470.992798C500.074051 500.501724,540.094788 517.083389,581.829865 517.083389C623.564941 517.083389,663.585678 500.501724,693.094604 470.992798C722.603531 441.483871,739.185196 401.463135,739.185196 359.728058Z" style="stroke:rgb(25.500488%,41.000366%,88.400269%); stroke-width: 1.000000;stroke-linecap: round;stroke-linejoin: round;stroke-miterlimit: 10.000000;fill: none;"></path>
  <path d="M300.744293 265.513824L366.264313 408.569626" style="stroke:rgb(60.000610%,60.000610%,60.000610%); stroke-width: 1.500000;stroke-linecap: round;stroke-dasharray: 3.000000 3.000000 ;stroke-linejoin: round;stroke-miterlimit: 10.000000;fill: none;"></path>
  <path d="M326.661636 560.864319L366.264313 408.569626" style="stroke:rgb(60.000610%,60.000610%,60.000610%); stroke-width: 1.500000;stroke-linecap: round;stroke-dasharray: 3.000000 3.000000 ;stroke-linejoin: round;stroke-miterlimit: 10.000000;fill: none;"></path>
  <path d="M304.744293 265.513824C304.744293 264.452911,304.322784 263.435577,303.572662 262.685455C302.822540 261.935333,301.805206 261.513824,300.744293 261.513824C299.683380 261.513824,298.666046 261.935333,297.915924 262.685455C297.165802 263.435577,296.744293 264.452911,296.744293 265.513824C296.744293 266.574738,297.165802 267.592072,297.915924 268.342194C298.666046 269.092316,299.683380 269.513824,300.744293 269.513824C301.805206 269.513824,302.822540 269.092316,303.572662 268.342194C304.322784 267.592072,304.744293 266.574738,304.744293 265.513824Z" style="stroke:rgb(39.999390%,39.999390%,39.999390%); stroke-width: 0.500000;stroke-linecap: round;stroke-linejoin: round;stroke-miterlimit: 10.000000;fill: none;"></path>
  <path d="M304.744293 265.513824C304.744293 264.452911,304.322784 263.435577,303.572662 262.685455C302.822540 261.935333,301.805206 261.513824,300.744293 261.513824C299.683380 261.513824,298.666046 261.935333,297.915924 262.685455C297.165802 263.435577,296.744293 264.452911,296.744293 265.513824C296.744293 266.574738,297.165802 267.592072,297.915924 268.342194C298.666046 269.092316,299.683380 269.513824,300.744293 269.513824C301.805206 269.513824,302.822540 269.092316,303.572662 268.342194C304.322784 267.592072,304.744293 266.574738,304.744293 265.513824Z" style="fill: rgb(89.999390%,0.000000%,0.000000%);stroke: none;"></path>
  <path d="M330.661636 560.864319C330.661636 559.803406,330.240128 558.786072,329.490005 558.035950C328.739883 557.285828,327.722549 556.864319,326.661636 556.864319C325.600723 556.864319,324.583389 557.285828,323.833267 558.035950C323.083145 558.786072,322.661636 559.803406,322.661636 560.864319C322.661636 561.925232,323.083145 562.942566,323.833267 563.692688C324.583389 564.442810,325.600723 564.864319,326.661636 564.864319C327.722549 564.864319,328.739883 564.442810,329.490005 563.692688C330.240128 562.942566,330.661636 561.925232,330.661636 560.864319Z" style="stroke:rgb(39.999390%,39.999390%,39.999390%); stroke-width: 0.500000;stroke-linecap: round;stroke-linejoin: round;stroke-miterlimit: 10.000000;fill: none;"></path>
  <path d="M330.661636 560.864319C330.661636 559.803406,330.240128 558.786072,329.490005 558.035950C328.739883 557.285828,327.722549 556.864319,326.661636 556.864319C325.600723 556.864319,324.583389 557.285828,323.833267 558.035950C323.083145 558.786072,322.661636 559.803406,322.661636 560.864319C322.661636 561.925232,323.083145 562.942566,323.833267 563.692688C324.583389 564.442810,325.600723 564.864319,326.661636 564.864319C327.722549 564.864319,328.739883 564.442810,329.490005 563.692688C330.240128 562.942566,330.661636 561.925232,330.661636 560.864319Z" style="fill: rgb(89.999390%,0.000000%,0.000000%);stroke: none;"></path>
  <path d="M370.264313 408.569626C370.264313 407.508713,369.842804 406.491379,369.092682 405.741257C368.342560 404.991135,367.325226 404.569626,366.264313 404.569626C365.203400 404.569626,364.186066 404.991135,363.435944 405.741257C362.685822 406.491379,362.264313 407.508713,362.264313 408.569626C362.264313 409.630539,362.685822 410.647873,363.435944 411.397995C364.186066 412.148117,365.203400 412.569626,366.264313 412.569626C367.325226 412.569626,368.342560 412.148117,369.092682 411.397995C369.842804 410.647873,370.264313 409.630539,370.264313 408.569626Z" style="stroke:rgb(39.999390%,39.999390%,39.999390%); stroke-width: 0.500000;stroke-linecap: round;stroke-linejoin: round;stroke-miterlimit: 10.000000;fill: none;"></path>
  <path d="M370.264313 408.569626C370.264313 407.508713,369.842804 406.491379,369.092682 405.741257C368.342560 404.991135,367.325226 404.569626,366.264313 404.569626C365.203400 404.569626,364.186066 404.991135,363.435944 405.741257C362.685822 406.491379,362.264313 407.508713,362.264313 408.569626C362.264313 409.630539,362.685822 410.647873,363.435944 411.397995C364.186066 412.148117,365.203400 412.569626,366.264313 412.569626C367.325226 412.569626,368.342560 412.148117,369.092682 411.397995C369.842804 410.647873,370.264313 409.630539,370.264313 408.569626Z" style="fill: rgb(9.800720%,9.800720%,44.000244%);stroke: none;"></path>
  <path d="M300.744293 265.513824L424.483185 362.712524" style="stroke:rgb(60.000610%,60.000610%,60.000610%); stroke-width: 1.500000;stroke-linecap: round;stroke-dasharray: 3.000000 3.000000 ;stroke-linejoin: round;stroke-miterlimit: 10.000000;fill: none;"></path>
  <path d="M490.037827 505.759674L424.483185 362.712524" style="stroke:rgb(60.000610%,60.000610%,60.000610%); stroke-width: 1.500000;stroke-linecap: round;stroke-dasharray: 3.000000 3.000000 ;stroke-linejoin: round;stroke-miterlimit: 10.000000;fill: none;"></path>
  <path d="M304.744293 265.513824C304.744293 264.452911,304.322784 263.435577,303.572662 262.685455C302.822540 261.935333,301.805206 261.513824,300.744293 261.513824C299.683380 261.513824,298.666046 261.935333,297.915924 262.685455C297.165802 263.435577,296.744293 264.452911,296.744293 265.513824C296.744293 266.574738,297.165802 267.592072,297.915924 268.342194C298.666046 269.092316,299.683380 269.513824,300.744293 269.513824C301.805206 269.513824,302.822540 269.092316,303.572662 268.342194C304.322784 267.592072,304.744293 266.574738,304.744293 265.513824Z" style="stroke:rgb(39.999390%,39.999390%,39.999390%); stroke-width: 0.500000;stroke-linecap: round;stroke-linejoin: round;stroke-miterlimit: 10.000000;fill: none;"></path>
  <path d="M304.744293 265.513824C304.744293 264.452911,304.322784 263.435577,303.572662 262.685455C302.822540 261.935333,301.805206 261.513824,300.744293 261.513824C299.683380 261.513824,298.666046 261.935333,297.915924 262.685455C297.165802 263.435577,296.744293 264.452911,296.744293 265.513824C296.744293 266.574738,297.165802 267.592072,297.915924 268.342194C298.666046 269.092316,299.683380 269.513824,300.744293 269.513824C301.805206 269.513824,302.822540 269.092316,303.572662 268.342194C304.322784 267.592072,304.744293 266.574738,304.744293 265.513824Z" style="fill: rgb(89.999390%,0.000000%,0.000000%);stroke: none;"></path>
  <path d="M494.037827 505.759674C494.037827 504.698761,493.616318 503.681427,492.866196 502.931305C492.116074 502.181183,491.098740 501.759674,490.037827 501.759674C488.976913 501.759674,487.959579 502.181183,487.209457 502.931305C486.459335 503.681427,486.037827 504.698761,486.037827 505.759674C486.037827 506.820587,486.459335 507.837921,487.209457 508.588043C487.959579 509.338165,488.976913 509.759674,490.037827 509.759674C491.098740 509.759674,492.116074 509.338165,492.866196 508.588043C493.616318 507.837921,494.037827 506.820587,494.037827 505.759674Z" style="stroke:rgb(39.999390%,39.999390%,39.999390%); stroke-width: 0.500000;stroke-linecap: round;stroke-linejoin: round;stroke-miterlimit: 10.000000;fill: none;"></path>
  <path d="M494.037827 505.759674C494.037827 504.698761,493.616318 503.681427,492.866196 502.931305C492.116074 502.181183,491.098740 501.759674,490.037827 501.759674C488.976913 501.759674,487.959579 502.181183,487.209457 502.931305C486.459335 503.681427,486.037827 504.698761,486.037827 505.759674C486.037827 506.820587,486.459335 507.837921,487.209457 508.588043C487.959579 509.338165,488.976913 509.759674,490.037827 509.759674C491.098740 509.759674,492.116074 509.338165,492.866196 508.588043C493.616318 507.837921,494.037827 506.820587,494.037827 505.759674Z" style="fill: rgb(89.999390%,0.000000%,0.000000%);stroke: none;"></path>
  <path d="M428.483185 362.712524C428.483185 361.651611,428.061676 360.634277,427.311554 359.884155C426.561432 359.134033,425.544098 358.712524,424.483185 358.712524C423.422272 358.712524,422.404938 359.134033,421.654816 359.884155C420.904694 360.634277,420.483185 361.651611,420.483185 362.712524C420.483185 363.773438,420.904694 364.790771,421.654816 365.540894C422.404938 366.291016,423.422272 366.712524,424.483185 366.712524C425.544098 366.712524,426.561432 366.291016,427.311554 365.540894C428.061676 364.790771,428.483185 363.773438,428.483185 362.712524Z" style="stroke:rgb(39.999390%,39.999390%,39.999390%); stroke-width: 0.500000;stroke-linecap: round;stroke-linejoin: round;stroke-miterlimit: 10.000000;fill: none;"></path>
  <path d="M428.483185 362.712524C428.483185 361.651611,428.061676 360.634277,427.311554 359.884155C426.561432 359.134033,425.544098 358.712524,424.483185 358.712524C423.422272 358.712524,422.404938 359.134033,421.654816 359.884155C420.904694 360.634277,420.483185 361.651611,420.483185 362.712524C420.483185 363.773438,420.904694 364.790771,421.654816 365.540894C422.404938 366.291016,423.422272 366.712524,424.483185 366.712524C425.544098 366.712524,426.561432 366.291016,427.311554 365.540894C428.061676 364.790771,428.483185 363.773438,428.483185 362.712524Z" style="fill: rgb(9.800720%,9.800720%,44.000244%);stroke: none;"></path>
  <path d="M300.744293 265.513824L366.298920 408.560974" style="stroke:rgb(60.000610%,60.000610%,60.000610%); stroke-width: 1.500000;stroke-linecap: round;stroke-dasharray: 3.000000 3.000000 ;stroke-linejoin: round;stroke-miterlimit: 10.000000;fill: none;"></path>
  <path d="M490.037827 505.759674L366.298920 408.560974" style="stroke:rgb(60.000610%,60.000610%,60.000610%); stroke-width: 1.500000;stroke-linecap: round;stroke-dasharray: 3.000000 3.000000 ;stroke-linejoin: round;stroke-miterlimit: 10.000000;fill: none;"></path>
  <path d="M304.744293 265.513824C304.744293 264.452911,304.322784 263.435577,303.572662 262.685455C302.822540 261.935333,301.805206 261.513824,300.744293 261.513824C299.683380 261.513824,298.666046 261.935333,297.915924 262.685455C297.165802 263.435577,296.744293 264.452911,296.744293 265.513824C296.744293 266.574738,297.165802 267.592072,297.915924 268.342194C298.666046 269.092316,299.683380 269.513824,300.744293 269.513824C301.805206 269.513824,302.822540 269.092316,303.572662 268.342194C304.322784 267.592072,304.744293 266.574738,304.744293 265.513824Z" style="stroke:rgb(39.999390%,39.999390%,39.999390%); stroke-width: 0.500000;stroke-linecap: round;stroke-linejoin: round;stroke-miterlimit: 10.000000;fill: none;"></path>
  <path d="M304.744293 265.513824C304.744293 264.452911,304.322784 263.435577,303.572662 262.685455C302.822540 261.935333,301.805206 261.513824,300.744293 261.513824C299.683380 261.513824,298.666046 261.935333,297.915924 262.685455C297.165802 263.435577,296.744293 264.452911,296.744293 265.513824C296.744293 266.574738,297.165802 267.592072,297.915924 268.342194C298.666046 269.092316,299.683380 269.513824,300.744293 269.513824C301.805206 269.513824,302.822540 269.092316,303.572662 268.342194C304.322784 267.592072,304.744293 266.574738,304.744293 265.513824Z" style="fill: rgb(89.999390%,0.000000%,0.000000%);stroke: none;"></path>
  <path d="M494.037827 505.759674C494.037827 504.698761,493.616318 503.681427,492.866196 502.931305C492.116074 502.181183,491.098740 501.759674,490.037827 501.759674C488.976913 501.759674,487.959579 502.181183,487.209457 502.931305C486.459335 503.681427,486.037827 504.698761,486.037827 505.759674C486.037827 506.820587,486.459335 507.837921,487.209457 508.588043C487.959579 509.338165,488.976913 509.759674,490.037827 509.759674C491.098740 509.759674,492.116074 509.338165,492.866196 508.588043C493.616318 507.837921,494.037827 506.820587,494.037827 505.759674Z" style="stroke:rgb(39.999390%,39.999390%,39.999390%); stroke-width: 0.500000;stroke-linecap: round;stroke-linejoin: round;stroke-miterlimit: 10.000000;fill: none;"></path>
  <path d="M494.037827 505.759674C494.037827 504.698761,493.616318 503.681427,492.866196 502.931305C492.116074 502.181183,491.098740 501.759674,490.037827 501.759674C488.976913 501.759674,487.959579 502.181183,487.209457 502.931305C486.459335 503.681427,486.037827 504.698761,486.037827 505.759674C486.037827 506.820587,486.459335 507.837921,487.209457 508.588043C487.959579 509.338165,488.976913 509.759674,490.037827 509.759674C491.098740 509.759674,492.116074 509.338165,492.866196 508.588043C493.616318 507.837921,494.037827 506.820587,494.037827 505.759674Z" style="fill: rgb(89.999390%,0.000000%,0.000000%);stroke: none;"></path>
  <path d="M370.298920 408.560974C370.298920 407.500061,369.877411 406.482727,369.127289 405.732605C368.377167 404.982483,367.359833 404.560974,366.298920 404.560974C365.238007 404.560974,364.220673 404.982483,363.470551 405.732605C362.720428 406.482727,362.298920 407.500061,362.298920 408.560974C362.298920 409.621887,362.720428 410.639221,363.470551 411.389343C364.220673 412.139465,365.238007 412.560974,366.298920 412.560974C367.359833 412.560974,368.377167 412.139465,369.127289 411.389343C369.877411 410.639221,370.298920 409.621887,370.298920 408.560974Z" style="stroke:rgb(39.999390%,39.999390%,39.999390%); stroke-width: 0.500000;stroke-linecap: round;stroke-linejoin: round;stroke-miterlimit: 10.000000;fill: none;"></path>
  <path d="M370.298920 408.560974C370.298920 407.500061,369.877411 406.482727,369.127289 405.732605C368.377167 404.982483,367.359833 404.560974,366.298920 404.560974C365.238007 404.560974,364.220673 404.982483,363.470551 405.732605C362.720428 406.482727,362.298920 407.500061,362.298920 408.560974C362.298920 409.621887,362.720428 410.639221,363.470551 411.389343C364.220673 412.139465,365.238007 412.560974,366.298920 412.560974C367.359833 412.560974,368.377167 412.139465,369.127289 411.389343C369.877411 410.639221,370.298920 409.621887,370.298920 408.560974Z" style="fill: rgb(9.800720%,9.800720%,44.000244%);stroke: none;"></path>
  <path d="M300.744293 265.513824L424.500488 362.686569" style="stroke:rgb(60.000610%,60.000610%,60.000610%); stroke-width: 1.500000;stroke-linecap: round;stroke-dasharray: 3.000000 3.000000 ;stroke-linejoin: round;stroke-miterlimit: 10.000000;fill: none;"></path>
  <path d="M581.829865 359.728058L424.500488 362.686569" style="stroke:rgb(60.000610%,60.000610%,60.000610%); stroke-width: 1.500000;stroke-linecap: round;stroke-dasharray: 3.000000 3.000000 ;stroke-linejoin: round;stroke-miterlimit: 10.000000;fill: none;"></path>
  <path d="M304.744293 265.513824C304.744293 264.452911,304.322784 263.435577,303.572662 262.685455C302.822540 261.935333,301.805206 261.513824,300.744293 261.513824C299.683380 261.513824,298.666046 261.935333,297.915924 262.685455C297.165802 263.435577,296.744293 264.452911,296.744293 265.513824C296.744293 266.574738,297.165802 267.592072,297.915924 268.342194C298.666046 269.092316,299.683380 269.513824,300.744293 269.513824C301.805206 269.513824,302.822540 269.092316,303.572662 268.342194C304.322784 267.592072,304.744293 266.574738,304.744293 265.513824Z" style="stroke:rgb(39.999390%,39.999390%,39.999390%); stroke-width: 0.500000;stroke-linecap: round;stroke-linejoin: round;stroke-miterlimit: 10.000000;fill: none;"></path>
  <path d="M304.744293 265.513824C304.744293 264.452911,304.322784 263.435577,303.572662 262.685455C302.822540 261.935333,301.805206 261.513824,300.744293 261.513824C299.683380 261.513824,298.666046 261.935333,297.915924 262.685455C297.165802 263.435577,296.744293 264.452911,296.744293 265.513824C296.744293 266.574738,297.165802 267.592072,297.915924 268.342194C298.666046 269.092316,299.683380 269.513824,300.744293 269.513824C301.805206 269.513824,302.822540 269.092316,303.572662 268.342194C304.322784 267.592072,304.744293 266.574738,304.744293 265.513824Z" style="fill: rgb(89.999390%,0.000000%,0.000000%);stroke: none;"></path>
  <path d="M585.829865 359.728058C585.829865 358.667145,585.408356 357.649811,584.658234 356.899689C583.908112 356.149567,582.890778 355.728058,581.829865 355.728058C580.768951 355.728058,579.751617 356.149567,579.001495 356.899689C578.251373 357.649811,577.829865 358.667145,577.829865 359.728058C577.829865 360.788971,578.251373 361.806305,579.001495 362.556427C579.751617 363.306549,580.768951 363.728058,581.829865 363.728058C582.890778 363.728058,583.908112 363.306549,584.658234 362.556427C585.408356 361.806305,585.829865 360.788971,585.829865 359.728058Z" style="stroke:rgb(39.999390%,39.999390%,39.999390%); stroke-width: 0.500000;stroke-linecap: round;stroke-linejoin: round;stroke-miterlimit: 10.000000;fill: none;"></path>
  <path d="M585.829865 359.728058C585.829865 358.667145,585.408356 357.649811,584.658234 356.899689C583.908112 356.149567,582.890778 355.728058,581.829865 355.728058C580.768951 355.728058,579.751617 356.149567,579.001495 356.899689C578.251373 357.649811,577.829865 358.667145,577.829865 359.728058C577.829865 360.788971,578.251373 361.806305,579.001495 362.556427C579.751617 363.306549,580.768951 363.728058,581.829865 363.728058C582.890778 363.728058,583.908112 363.306549,584.658234 362.556427C585.408356 361.806305,585.829865 360.788971,585.829865 359.728058Z" style="fill: rgb(89.999390%,0.000000%,0.000000%);stroke: none;"></path>
  <path d="M428.500488 362.686569C428.500488 361.625656,428.078979 360.608322,427.328857 359.858200C426.578735 359.108078,425.561401 358.686569,424.500488 358.686569C423.439575 358.686569,422.422241 359.108078,421.672119 359.858200C420.921997 360.608322,420.500488 361.625656,420.500488 362.686569C420.500488 363.747482,420.921997 364.764816,421.672119 365.514938C422.422241 366.265060,423.439575 366.686569,424.500488 366.686569C425.561401 366.686569,426.578735 366.265060,427.328857 365.514938C428.078979 364.764816,428.500488 363.747482,428.500488 362.686569Z" style="stroke:rgb(39.999390%,39.999390%,39.999390%); stroke-width: 0.500000;stroke-linecap: round;stroke-linejoin: round;stroke-miterlimit: 10.000000;fill: none;"></path>
  <path d="M428.500488 362.686569C428.500488 361.625656,428.078979 360.608322,427.328857 359.858200C426.578735 359.108078,425.561401 358.686569,424.500488 358.686569C423.439575 358.686569,422.422241 359.108078,421.672119 359.858200C420.921997 360.608322,420.500488 361.625656,420.500488 362.686569C420.500488 363.747482,420.921997 364.764816,421.672119 365.514938C422.422241 366.265060,423.439575 366.686569,424.500488 366.686569C425.561401 366.686569,426.578735 366.265060,427.328857 365.514938C428.078979 364.764816,428.500488 363.747482,428.500488 362.686569Z" style="fill: rgb(9.800720%,9.800720%,44.000244%);stroke: none;"></path>
  <path d="M326.661636 560.864319L366.281616 408.578278" style="stroke:rgb(60.000610%,60.000610%,60.000610%); stroke-width: 1.500000;stroke-linecap: round;stroke-dasharray: 3.000000 3.000000 ;stroke-linejoin: round;stroke-miterlimit: 10.000000;fill: none;"></path>
  <path d="M490.037827 505.759674L366.281616 408.578278" style="stroke:rgb(60.000610%,60.000610%,60.000610%); stroke-width: 1.500000;stroke-linecap: round;stroke-dasharray: 3.000000 3.000000 ;stroke-linejoin: round;stroke-miterlimit: 10.000000;fill: none;"></path>
  <path d="M330.661636 560.864319C330.661636 559.803406,330.240128 558.786072,329.490005 558.035950C328.739883 557.285828,327.722549 556.864319,326.661636 556.864319C325.600723 556.864319,324.583389 557.285828,323.833267 558.035950C323.083145 558.786072,322.661636 559.803406,322.661636 560.864319C322.661636 561.925232,323.083145 562.942566,323.833267 563.692688C324.583389 564.442810,325.600723 564.864319,326.661636 564.864319C327.722549 564.864319,328.739883 564.442810,329.490005 563.692688C330.240128 562.942566,330.661636 561.925232,330.661636 560.864319Z" style="stroke:rgb(39.999390%,39.999390%,39.999390%); stroke-width: 0.500000;stroke-linecap: round;stroke-linejoin: round;stroke-miterlimit: 10.000000;fill: none;"></path>
  <path d="M330.661636 560.864319C330.661636 559.803406,330.240128 558.786072,329.490005 558.035950C328.739883 557.285828,327.722549 556.864319,326.661636 556.864319C325.600723 556.864319,324.583389 557.285828,323.833267 558.035950C323.083145 558.786072,322.661636 559.803406,322.661636 560.864319C322.661636 561.925232,323.083145 562.942566,323.833267 563.692688C324.583389 564.442810,325.600723 564.864319,326.661636 564.864319C327.722549 564.864319,328.739883 564.442810,329.490005 563.692688C330.240128 562.942566,330.661636 561.925232,330.661636 560.864319Z" style="fill: rgb(89.999390%,0.000000%,0.000000%);stroke: none;"></path>
  <path d="M494.037827 505.759674C494.037827 504.698761,493.616318 503.681427,492.866196 502.931305C492.116074 502.181183,491.098740 501.759674,490.037827 501.759674C488.976913 501.759674,487.959579 502.181183,487.209457 502.931305C486.459335 503.681427,486.037827 504.698761,486.037827 505.759674C486.037827 506.820587,486.459335 507.837921,487.209457 508.588043C487.959579 509.338165,488.976913 509.759674,490.037827 509.759674C491.098740 509.759674,492.116074 509.338165,492.866196 508.588043C493.616318 507.837921,494.037827 506.820587,494.037827 505.759674Z" style="stroke:rgb(39.999390%,39.999390%,39.999390%); stroke-width: 0.500000;stroke-linecap: round;stroke-linejoin: round;stroke-miterlimit: 10.000000;fill: none;"></path>
  <path d="M494.037827 505.759674C494.037827 504.698761,493.616318 503.681427,492.866196 502.931305C492.116074 502.181183,491.098740 501.759674,490.037827 501.759674C488.976913 501.759674,487.959579 502.181183,487.209457 502.931305C486.459335 503.681427,486.037827 504.698761,486.037827 505.759674C486.037827 506.820587,486.459335 507.837921,487.209457 508.588043C487.959579 509.338165,488.976913 509.759674,490.037827 509.759674C491.098740 509.759674,492.116074 509.338165,492.866196 508.588043C493.616318 507.837921,494.037827 506.820587,494.037827 505.759674Z" style="fill: rgb(89.999390%,0.000000%,0.000000%);stroke: none;"></path>
  <path d="M370.281616 408.578278C370.281616 407.517365,369.860107 406.500031,369.109985 405.749908C368.359863 404.999786,367.342529 404.578278,366.281616 404.578278C365.220703 404.578278,364.203369 404.999786,363.453247 405.749908C362.703125 406.500031,362.281616 407.517365,362.281616 408.578278C362.281616 409.639191,362.703125 410.656525,363.453247 411.406647C364.203369 412.156769,365.220703 412.578278,366.281616 412.578278C367.342529 412.578278,368.359863 412.156769,369.109985 411.406647C369.860107 410.656525,370.281616 409.639191,370.281616 408.578278Z" style="stroke:rgb(39.999390%,39.999390%,39.999390%); stroke-width: 0.500000;stroke-linecap: round;stroke-linejoin: round;stroke-miterlimit: 10.000000;fill: none;"></path>
  <path d="M370.281616 408.578278C370.281616 407.517365,369.860107 406.500031,369.109985 405.749908C368.359863 404.999786,367.342529 404.578278,366.281616 404.578278C365.220703 404.578278,364.203369 404.999786,363.453247 405.749908C362.703125 406.500031,362.281616 407.517365,362.281616 408.578278C362.281616 409.639191,362.703125 410.656525,363.453247 411.406647C364.203369 412.156769,365.220703 412.578278,366.281616 412.578278C367.342529 412.578278,368.359863 412.156769,369.109985 411.406647C369.860107 410.656525,370.281616 409.639191,370.281616 408.578278Z" style="fill: rgb(9.800720%,9.800720%,44.000244%);stroke: none;"></path>
  <path d="M490.037827 505.759674L424.500488 362.703873" style="stroke:rgb(60.000610%,60.000610%,60.000610%); stroke-width: 1.500000;stroke-linecap: round;stroke-dasharray: 3.000000 3.000000 ;stroke-linejoin: round;stroke-miterlimit: 10.000000;fill: none;"></path>
  <path d="M581.829865 359.728058L424.500488 362.703873" style="stroke:rgb(60.000610%,60.000610%,60.000610%); stroke-width: 1.500000;stroke-linecap: round;stroke-dasharray: 3.000000 3.000000 ;stroke-linejoin: round;stroke-miterlimit: 10.000000;fill: none;"></path>
  <path d="M494.037827 505.759674C494.037827 504.698761,493.616318 503.681427,492.866196 502.931305C492.116074 502.181183,491.098740 501.759674,490.037827 501.759674C488.976913 501.759674,487.959579 502.181183,487.209457 502.931305C486.459335 503.681427,486.037827 504.698761,486.037827 505.759674C486.037827 506.820587,486.459335 507.837921,487.209457 508.588043C487.959579 509.338165,488.976913 509.759674,490.037827 509.759674C491.098740 509.759674,492.116074 509.338165,492.866196 508.588043C493.616318 507.837921,494.037827 506.820587,494.037827 505.759674Z" style="stroke:rgb(39.999390%,39.999390%,39.999390%); stroke-width: 0.500000;stroke-linecap: round;stroke-linejoin: round;stroke-miterlimit: 10.000000;fill: none;"></path>
  <path d="M494.037827 505.759674C494.037827 504.698761,493.616318 503.681427,492.866196 502.931305C492.116074 502.181183,491.098740 501.759674,490.037827 501.759674C488.976913 501.759674,487.959579 502.181183,487.209457 502.931305C486.459335 503.681427,486.037827 504.698761,486.037827 505.759674C486.037827 506.820587,486.459335 507.837921,487.209457 508.588043C487.959579 509.338165,488.976913 509.759674,490.037827 509.759674C491.098740 509.759674,492.116074 509.338165,492.866196 508.588043C493.616318 507.837921,494.037827 506.820587,494.037827 505.759674Z" style="fill: rgb(89.999390%,0.000000%,0.000000%);stroke: none;"></path>
  <path d="M585.829865 359.728058C585.829865 358.667145,585.408356 357.649811,584.658234 356.899689C583.908112 356.149567,582.890778 355.728058,581.829865 355.728058C580.768951 355.728058,579.751617 356.149567,579.001495 356.899689C578.251373 357.649811,577.829865 358.667145,577.829865 359.728058C577.829865 360.788971,578.251373 361.806305,579.001495 362.556427C579.751617 363.306549,580.768951 363.728058,581.829865 363.728058C582.890778 363.728058,583.908112 363.306549,584.658234 362.556427C585.408356 361.806305,585.829865 360.788971,585.829865 359.728058Z" style="stroke:rgb(39.999390%,39.999390%,39.999390%); stroke-width: 0.500000;stroke-linecap: round;stroke-linejoin: round;stroke-miterlimit: 10.000000;fill: none;"></path>
  <path d="M585.829865 359.728058C585.829865 358.667145,585.408356 357.649811,584.658234 356.899689C583.908112 356.149567,582.890778 355.728058,581.829865 355.728058C580.768951 355.728058,579.751617 356.149567,579.001495 356.899689C578.251373 357.649811,577.829865 358.667145,577.829865 359.728058C577.829865 360.788971,578.251373 361.806305,579.001495 362.556427C579.751617 363.306549,580.768951 363.728058,581.829865 363.728058C582.890778 363.728058,583.908112 363.306549,584.658234 362.556427C585.408356 361.806305,585.829865 360.788971,585.829865 359.728058Z" style="fill: rgb(89.999390%,0.000000%,0.000000%);stroke: none;"></path>
  <path d="M428.500488 362.703873C428.500488 361.642960,428.078979 360.625626,427.328857 359.875504C426.578735 359.125381,425.561401 358.703873,424.500488 358.703873C423.439575 358.703873,422.422241 359.125381,421.672119 359.875504C420.921997 360.625626,420.500488 361.642960,420.500488 362.703873C420.500488 363.764786,420.921997 364.782120,421.672119 365.532242C422.422241 366.282364,423.439575 366.703873,424.500488 366.703873C425.561401 366.703873,426.578735 366.282364,427.328857 365.532242C428.078979 364.782120,428.500488 363.764786,428.500488 362.703873Z" style="stroke:rgb(39.999390%,39.999390%,39.999390%); stroke-width: 0.500000;stroke-linecap: round;stroke-linejoin: round;stroke-miterlimit: 10.000000;fill: none;"></path>
  <path d="M428.500488 362.703873C428.500488 361.642960,428.078979 360.625626,427.328857 359.875504C426.578735 359.125381,425.561401 358.703873,424.500488 358.703873C423.439575 358.703873,422.422241 359.125381,421.672119 359.875504C420.921997 360.625626,420.500488 361.642960,420.500488 362.703873C420.500488 363.764786,420.921997 364.782120,421.672119 365.532242C422.422241 366.282364,423.439575 366.703873,424.500488 366.703873C425.561401 366.703873,426.578735 366.282364,427.328857 365.532242C428.078979 364.782120,428.500488 363.764786,428.500488 362.703873Z" style="fill: rgb(9.800720%,9.800720%,44.000244%);stroke: none;"></path>
</svg>
