<?xml version="1.0"?>
<!-- Created by MetaPost 2.00 on 2025.04.10:1708 -->
<svg version="1.1" xmlns="http://www.w3.org/2000/svg" xmlns:xlink="http://www.w3.org/1999/xlink" width="584.313354" height="571.475800" viewBox="0 0 584.313354 571.475800">
<!-- Original BoundingBox: -292.156677 -285.737900 292.156677 285.737900 -->
  <path d="M274.196960 567.893570L309.803040 567.893570L345.123642 563.421173L379.587830 554.571564L412.702530 541.474472L443.879471 524.354843L472.677475 503.437576L498.646729 479.060043L521.320084 451.620178L540.429367 421.576462L555.568008 389.370102L566.562988 355.468201L573.249939 320.545517L575.464508 285.000000L573.249939 249.454483L566.562988 214.531799L555.568008 180.629898L540.429367 148.423538L521.320084 118.379822L498.646729 90.939957L472.677475 66.562424L443.879471 45.645157L412.702530 28.525528L379.587830 15.428436L345.123642 6.578827L309.803040 2.106430L274.196960 2.106430L238.876358 6.578827L204.412170 15.428436L171.297470 28.525528L140.120529 45.645157L111.322525 66.562424L85.353271 90.939957L62.679916 118.379822L43.570633 148.423538L28.431992 180.629898L17.437012 214.531799L10.750061 249.454483L8.535492 285.000000L10.750061 320.545517L17.437012 355.468201L28.431992 389.370102L43.570633 421.576462L62.679916 451.620178L85.353271 479.060043L111.322525 503.437576L140.120529 524.354843L171.297470 541.474472L204.412170 554.571564L238.876358 563.421173L274.196960 567.893570Z" style="fill: rgb(100.000000%,100.000000%,100.000000%);stroke: none;"></path>
  <path d="M274.196960 567.893570L309.803040 567.893570" style="stroke:rgb(0.000000%,0.000000%,0.000000%); stroke-width: 1.000000;stroke-linecap: round;stroke-linejoin: round;stroke-miterlimit: 10.000000;fill: none;"></path>
  <path d="M309.803040 567.893570L345.123642 563.421173" style="stroke:rgb(0.000000%,0.000000%,0.000000%); stroke-width: 1.000000;stroke-linecap: round;stroke-linejoin: round;stroke-miterlimit: 10.000000;fill: none;"></path>
  <path d="M345.123642 563.421173L379.587830 554.571564" style="stroke:rgb(0.000000%,0.000000%,0.000000%); stroke-width: 1.000000;stroke-linecap: round;stroke-linejoin: round;stroke-miterlimit: 10.000000;fill: none;"></path>
  <path d="M379.587830 554.571564L412.702530 541.474472" style="stroke:rgb(0.000000%,0.000000%,0.000000%); stroke-width: 1.000000;stroke-linecap: round;stroke-linejoin: round;stroke-miterlimit: 10.000000;fill: none;"></path>
  <path d="M412.702530 541.474472L443.879471 524.354843" style="stroke:rgb(0.000000%,0.000000%,0.000000%); stroke-width: 1.000000;stroke-linecap: round;stroke-linejoin: round;stroke-miterlimit: 10.000000;fill: none;"></path>
  <path d="M443.879471 524.354843L472.677475 503.437576" style="stroke:rgb(0.000000%,0.000000%,0.000000%); stroke-width: 1.000000;stroke-linecap: round;stroke-linejoin: round;stroke-miterlimit: 10.000000;fill: none;"></path>
  <path d="M472.677475 503.437576L498.646729 479.060043" style="stroke:rgb(0.000000%,0.000000%,0.000000%); stroke-width: 1.000000;stroke-linecap: round;stroke-linejoin: round;stroke-miterlimit: 10.000000;fill: none;"></path>
  <path d="M498.646729 479.060043L521.320084 451.620178" style="stroke:rgb(0.000000%,0.000000%,0.000000%); stroke-width: 1.000000;stroke-linecap: round;stroke-linejoin: round;stroke-miterlimit: 10.000000;fill: none;"></path>
  <path d="M521.320084 451.620178L540.429367 421.576462" style="stroke:rgb(0.000000%,0.000000%,0.000000%); stroke-width: 1.000000;stroke-linecap: round;stroke-linejoin: round;stroke-miterlimit: 10.000000;fill: none;"></path>
  <path d="M540.429367 421.576462L555.568008 389.370102" style="stroke:rgb(0.000000%,0.000000%,0.000000%); stroke-width: 1.000000;stroke-linecap: round;stroke-linejoin: round;stroke-miterlimit: 10.000000;fill: none;"></path>
  <path d="M555.568008 389.370102L566.562988 355.468201" style="stroke:rgb(0.000000%,0.000000%,0.000000%); stroke-width: 1.000000;stroke-linecap: round;stroke-linejoin: round;stroke-miterlimit: 10.000000;fill: none;"></path>
  <path d="M566.562988 355.468201L573.249939 320.545517" style="stroke:rgb(0.000000%,0.000000%,0.000000%); stroke-width: 1.000000;stroke-linecap: round;stroke-linejoin: round;stroke-miterlimit: 10.000000;fill: none;"></path>
  <path d="M573.249939 320.545517L575.464508 285.000000" style="stroke:rgb(0.000000%,0.000000%,0.000000%); stroke-width: 1.000000;stroke-linecap: round;stroke-linejoin: round;stroke-miterlimit: 10.000000;fill: none;"></path>
  <path d="M575.464508 285.000000L573.249939 249.454483" style="stroke:rgb(0.000000%,0.000000%,0.000000%); stroke-width: 1.000000;stroke-linecap: round;stroke-linejoin: round;stroke-miterlimit: 10.000000;fill: none;"></path>
  <path d="M573.249939 249.454483L566.562988 214.531799" style="stroke:rgb(0.000000%,0.000000%,0.000000%); stroke-width: 1.000000;stroke-linecap: round;stroke-linejoin: round;stroke-miterlimit: 10.000000;fill: none;"></path>
  <path d="M566.562988 214.531799L555.568008 180.629898" style="stroke:rgb(0.000000%,0.000000%,0.000000%); stroke-width: 1.000000;stroke-linecap: round;stroke-linejoin: round;stroke-miterlimit: 10.000000;fill: none;"></path>
  <path d="M555.568008 180.629898L540.429367 148.423538" style="stroke:rgb(0.000000%,0.000000%,0.000000%); stroke-width: 1.000000;stroke-linecap: round;stroke-linejoin: round;stroke-miterlimit: 10.000000;fill: none;"></path>
  <path d="M540.429367 148.423538L521.320084 118.379822" style="stroke:rgb(0.000000%,0.000000%,0.000000%); stroke-width: 1.000000;stroke-linecap: round;stroke-linejoin: round;stroke-miterlimit: 10.000000;fill: none;"></path>
  <path d="M521.320084 118.379822L498.646729 90.939957" style="stroke:rgb(0.000000%,0.000000%,0.000000%); stroke-width: 1.000000;stroke-linecap: round;stroke-linejoin: round;stroke-miterlimit: 10.000000;fill: none;"></path>
  <path d="M498.646729 90.939957L472.677475 66.562424" style="stroke:rgb(0.000000%,0.000000%,0.000000%); stroke-width: 1.000000;stroke-linecap: round;stroke-linejoin: round;stroke-miterlimit: 10.000000;fill: none;"></path>
  <path d="M472.677475 66.562424L443.879471 45.645157" style="stroke:rgb(0.000000%,0.000000%,0.000000%); stroke-width: 1.000000;stroke-linecap: round;stroke-linejoin: round;stroke-miterlimit: 10.000000;fill: none;"></path>
  <path d="M443.879471 45.645157L412.702530 28.525528" style="stroke:rgb(0.000000%,0.000000%,0.000000%); stroke-width: 1.000000;stroke-linecap: round;stroke-linejoin: round;stroke-miterlimit: 10.000000;fill: none;"></path>
  <path d="M412.702530 28.525528L379.587830 15.428436" style="stroke:rgb(0.000000%,0.000000%,0.000000%); stroke-width: 1.000000;stroke-linecap: round;stroke-linejoin: round;stroke-miterlimit: 10.000000;fill: none;"></path>
  <path d="M379.587830 15.428436L345.123642 6.578827" style="stroke:rgb(0.000000%,0.000000%,0.000000%); stroke-width: 1.000000;stroke-linecap: round;stroke-linejoin: round;stroke-miterlimit: 10.000000;fill: none;"></path>
  <path d="M345.123642 6.578827L309.803040 2.106430" style="stroke:rgb(0.000000%,0.000000%,0.000000%); stroke-width: 1.000000;stroke-linecap: round;stroke-linejoin: round;stroke-miterlimit: 10.000000;fill: none;"></path>
  <path d="M309.803040 2.106430L274.196960 2.106430" style="stroke:rgb(0.000000%,0.000000%,0.000000%); stroke-width: 1.000000;stroke-linecap: round;stroke-linejoin: round;stroke-miterlimit: 10.000000;fill: none;"></path>
  <path d="M274.196960 2.106430L238.876358 6.578827" style="stroke:rgb(0.000000%,0.000000%,0.000000%); stroke-width: 1.000000;stroke-linecap: round;stroke-linejoin: round;stroke-miterlimit: 10.000000;fill: none;"></path>
  <path d="M238.876358 6.578827L204.412170 15.428436" style="stroke:rgb(0.000000%,0.000000%,0.000000%); stroke-width: 1.000000;stroke-linecap: round;stroke-linejoin: round;stroke-miterlimit: 10.000000;fill: none;"></path>
  <path d="M204.412170 15.428436L171.297470 28.525528" style="stroke:rgb(0.000000%,0.000000%,0.000000%); stroke-width: 1.000000;stroke-linecap: round;stroke-linejoin: round;stroke-miterlimit: 10.000000;fill: none;"></path>
  <path d="M171.297470 28.525528L140.120529 45.645157" style="stroke:rgb(0.000000%,0.000000%,0.000000%); stroke-width: 1.000000;stroke-linecap: round;stroke-linejoin: round;stroke-miterlimit: 10.000000;fill: none;"></path>
  <path d="M140.120529 45.645157L111.322525 66.562424" style="stroke:rgb(0.000000%,0.000000%,0.000000%); stroke-width: 1.000000;stroke-linecap: round;stroke-linejoin: round;stroke-miterlimit: 10.000000;fill: none;"></path>
  <path d="M111.322525 66.562424L85.353271 90.939957" style="stroke:rgb(0.000000%,0.000000%,0.000000%); stroke-width: 1.000000;stroke-linecap: round;stroke-linejoin: round;stroke-miterlimit: 10.000000;fill: none;"></path>
  <path d="M85.353271 90.939957L62.679916 118.379822" style="stroke:rgb(0.000000%,0.000000%,0.000000%); stroke-width: 1.000000;stroke-linecap: round;stroke-linejoin: round;stroke-miterlimit: 10.000000;fill: none;"></path>
  <path d="M62.679916 118.379822L43.570633 148.423538" style="stroke:rgb(0.000000%,0.000000%,0.000000%); stroke-width: 1.000000;stroke-linecap: round;stroke-linejoin: round;stroke-miterlimit: 10.000000;fill: none;"></path>
  <path d="M43.570633 148.423538L28.431992 180.629898" style="stroke:rgb(0.000000%,0.000000%,0.000000%); stroke-width: 1.000000;stroke-linecap: round;stroke-linejoin: round;stroke-miterlimit: 10.000000;fill: none;"></path>
  <path d="M28.431992 180.629898L17.437012 214.531799" style="stroke:rgb(0.000000%,0.000000%,0.000000%); stroke-width: 1.000000;stroke-linecap: round;stroke-linejoin: round;stroke-miterlimit: 10.000000;fill: none;"></path>
  <path d="M17.437012 214.531799L10.750061 249.454483" style="stroke:rgb(0.000000%,0.000000%,0.000000%); stroke-width: 1.000000;stroke-linecap: round;stroke-linejoin: round;stroke-miterlimit: 10.000000;fill: none;"></path>
  <path d="M10.750061 249.454483L8.535492 285.000000" style="stroke:rgb(0.000000%,0.000000%,0.000000%); stroke-width: 1.000000;stroke-linecap: round;stroke-linejoin: round;stroke-miterlimit: 10.000000;fill: none;"></path>
  <path d="M8.535492 285.000000L10.750061 320.545517" style="stroke:rgb(0.000000%,0.000000%,0.000000%); stroke-width: 1.000000;stroke-linecap: round;stroke-linejoin: round;stroke-miterlimit: 10.000000;fill: none;"></path>
  <path d="M10.750061 320.545517L17.437012 355.468201" style="stroke:rgb(0.000000%,0.000000%,0.000000%); stroke-width: 1.000000;stroke-linecap: round;stroke-linejoin: round;stroke-miterlimit: 10.000000;fill: none;"></path>
  <path d="M17.437012 355.468201L28.431992 389.370102" style="stroke:rgb(0.000000%,0.000000%,0.000000%); stroke-width: 1.000000;stroke-linecap: round;stroke-linejoin: round;stroke-miterlimit: 10.000000;fill: none;"></path>
  <path d="M28.431992 389.370102L43.570633 421.576462" style="stroke:rgb(0.000000%,0.000000%,0.000000%); stroke-width: 1.000000;stroke-linecap: round;stroke-linejoin: round;stroke-miterlimit: 10.000000;fill: none;"></path>
  <path d="M43.570633 421.576462L62.679916 451.620178" style="stroke:rgb(0.000000%,0.000000%,0.000000%); stroke-width: 1.000000;stroke-linecap: round;stroke-linejoin: round;stroke-miterlimit: 10.000000;fill: none;"></path>
  <path d="M62.679916 451.620178L85.353271 479.060043" style="stroke:rgb(0.000000%,0.000000%,0.000000%); stroke-width: 1.000000;stroke-linecap: round;stroke-linejoin: round;stroke-miterlimit: 10.000000;fill: none;"></path>
  <path d="M85.353271 479.060043L111.322525 503.437576" style="stroke:rgb(0.000000%,0.000000%,0.000000%); stroke-width: 1.000000;stroke-linecap: round;stroke-linejoin: round;stroke-miterlimit: 10.000000;fill: none;"></path>
  <path d="M111.322525 503.437576L140.120529 524.354843" style="stroke:rgb(0.000000%,0.000000%,0.000000%); stroke-width: 1.000000;stroke-linecap: round;stroke-linejoin: round;stroke-miterlimit: 10.000000;fill: none;"></path>
  <path d="M140.120529 524.354843L171.297470 541.474472" style="stroke:rgb(0.000000%,0.000000%,0.000000%); stroke-width: 1.000000;stroke-linecap: round;stroke-linejoin: round;stroke-miterlimit: 10.000000;fill: none;"></path>
  <path d="M171.297470 541.474472L204.412170 554.571564" style="stroke:rgb(0.000000%,0.000000%,0.000000%); stroke-width: 1.000000;stroke-linecap: round;stroke-linejoin: round;stroke-miterlimit: 10.000000;fill: none;"></path>
  <path d="M204.412170 554.571564L238.876358 563.421173" style="stroke:rgb(0.000000%,0.000000%,0.000000%); stroke-width: 1.000000;stroke-linecap: round;stroke-linejoin: round;stroke-miterlimit: 10.000000;fill: none;"></path>
  <path d="M238.876358 563.421173L274.196960 567.893570" style="stroke:rgb(0.000000%,0.000000%,0.000000%); stroke-width: 1.000000;stroke-linecap: round;stroke-linejoin: round;stroke-miterlimit: 10.000000;fill: none;"></path>
  <path d="M583.656677 287.214569C583.656677 212.148773,553.832474 140.166473,500.756958 87.090958C447.681442 34.015442,375.699142 4.191238,300.633347 4.191238C225.567551 4.191238,153.585251 34.015442,100.509735 87.090958C47.434219 140.166473,17.610016 212.148773,17.610016 287.214569C17.610016 362.280365,47.434219 434.262665,100.509735 487.338181C153.585251 540.413696,225.567551 570.237900,300.633347 570.237900C375.699142 570.237900,447.681442 540.413696,500.756958 487.338181C553.832474 434.262665,583.656677 362.280365,583.656677 287.214569Z" style="stroke:rgb(25.500488%,41.000366%,88.400269%); stroke-width: 1.000000;stroke-linecap: round;stroke-linejoin: round;stroke-miterlimit: 10.000000;fill: none;"></path>
  <path d="M566.389984 282.785431C566.389984 207.719635,536.565781 135.737335,483.490265 82.661819C430.414749 29.586304,358.432449 -0.237900,283.366653 -0.237900C208.300858 -0.237900,136.318558 29.586304,83.243042 82.661819C30.167526 135.737335,0.343323 207.719635,0.343323 282.785431C0.343323 357.851227,30.167526 429.833527,83.243042 482.909042C136.318558 535.984558,208.300858 565.808762,283.366653 565.808762C358.432449 565.808762,430.414749 535.984558,483.490265 482.909042C536.565781 429.833527,566.389984 357.851227,566.389984 282.785431Z" style="stroke:rgb(25.500488%,41.000366%,88.400269%); stroke-width: 1.000000;stroke-linecap: round;stroke-linejoin: round;stroke-miterlimit: 10.000000;fill: none;"></path>
  <path d="M300.633347 287.214569L379.587830 15.428436" style="stroke:rgb(60.000610%,60.000610%,60.000610%); stroke-width: 1.500000;stroke-linecap: round;stroke-dasharray: 3.000000 3.000000 ;stroke-linejoin: round;stroke-miterlimit: 10.000000;fill: none;"></path>
  <path d="M304.633347 287.214569C304.633347 286.153656,304.211838 285.136322,303.461716 284.386200C302.711594 283.636078,301.694260 283.214569,300.633347 283.214569C299.572433 283.214569,298.555099 283.636078,297.804977 284.386200C297.054855 285.136322,296.633347 286.153656,296.633347 287.214569C296.633347 288.275482,297.054855 289.292816,297.804977 290.042938C298.555099 290.793060,299.572433 291.214569,300.633347 291.214569C301.694260 291.214569,302.711594 290.793060,303.461716 290.042938C304.211838 289.292816,304.633347 288.275482,304.633347 287.214569Z" style="stroke:rgb(39.999390%,39.999390%,39.999390%); stroke-width: 0.500000;stroke-linecap: round;stroke-linejoin: round;stroke-miterlimit: 10.000000;fill: none;"></path>
  <path d="M304.633347 287.214569C304.633347 286.153656,304.211838 285.136322,303.461716 284.386200C302.711594 283.636078,301.694260 283.214569,300.633347 283.214569C299.572433 283.214569,298.555099 283.636078,297.804977 284.386200C297.054855 285.136322,296.633347 286.153656,296.633347 287.214569C296.633347 288.275482,297.054855 289.292816,297.804977 290.042938C298.555099 290.793060,299.572433 291.214569,300.633347 291.214569C301.694260 291.214569,302.711594 290.793060,303.461716 290.042938C304.211838 289.292816,304.633347 288.275482,304.633347 287.214569Z" style="fill: rgb(89.999390%,0.000000%,0.000000%);stroke: none;"></path>
  <path d="M383.587830 15.428436C383.587830 14.367523,383.166321 13.350189,382.416199 12.600067C381.666077 11.849945,380.648743 11.428436,379.587830 11.428436C378.526917 11.428436,377.509583 11.849945,376.759460 12.600067C376.009338 13.350189,375.587830 14.367523,375.587830 15.428436C375.587830 16.489349,376.009338 17.506683,376.759460 18.256805C377.509583 19.006927,378.526917 19.428436,379.587830 19.428436C380.648743 19.428436,381.666077 19.006927,382.416199 18.256805C383.166321 17.506683,383.587830 16.489349,383.587830 15.428436Z" style="stroke:rgb(39.999390%,39.999390%,39.999390%); stroke-width: 0.500000;stroke-linecap: round;stroke-linejoin: round;stroke-miterlimit: 10.000000;fill: none;"></path>
  <path d="M383.587830 15.428436C383.587830 14.367523,383.166321 13.350189,382.416199 12.600067C381.666077 11.849945,380.648743 11.428436,379.587830 11.428436C378.526917 11.428436,377.509583 11.849945,376.759460 12.600067C376.009338 13.350189,375.587830 14.367523,375.587830 15.428436C375.587830 16.489349,376.009338 17.506683,376.759460 18.256805C377.509583 19.006927,378.526917 19.428436,379.587830 19.428436C380.648743 19.428436,381.666077 19.006927,382.416199 18.256805C383.166321 17.506683,383.587830 16.489349,383.587830 15.428436Z" style="fill: rgb(100.000000%,100.000000%,0.000000%);stroke: none;"></path>
  <path d="M300.633347 287.214569L238.876358 563.421173" style="stroke:rgb(60.000610%,60.000610%,60.000610%); stroke-width: 1.500000;stroke-linecap: round;stroke-dasharray: 3.000000 3.000000 ;stroke-linejoin: round;stroke-miterlimit: 10.000000;fill: none;"></path>
  <path d="M304.633347 287.214569C304.633347 286.153656,304.211838 285.136322,303.461716 284.386200C302.711594 283.636078,301.694260 283.214569,300.633347 283.214569C299.572433 283.214569,298.555099 283.636078,297.804977 284.386200C297.054855 285.136322,296.633347 286.153656,296.633347 287.214569C296.633347 288.275482,297.054855 289.292816,297.804977 290.042938C298.555099 290.793060,299.572433 291.214569,300.633347 291.214569C301.694260 291.214569,302.711594 290.793060,303.461716 290.042938C304.211838 289.292816,304.633347 288.275482,304.633347 287.214569Z" style="stroke:rgb(39.999390%,39.999390%,39.999390%); stroke-width: 0.500000;stroke-linecap: round;stroke-linejoin: round;stroke-miterlimit: 10.000000;fill: none;"></path>
  <path d="M304.633347 287.214569C304.633347 286.153656,304.211838 285.136322,303.461716 284.386200C302.711594 283.636078,301.694260 283.214569,300.633347 283.214569C299.572433 283.214569,298.555099 283.636078,297.804977 284.386200C297.054855 285.136322,296.633347 286.153656,296.633347 287.214569C296.633347 288.275482,297.054855 289.292816,297.804977 290.042938C298.555099 290.793060,299.572433 291.214569,300.633347 291.214569C301.694260 291.214569,302.711594 290.793060,303.461716 290.042938C304.211838 289.292816,304.633347 288.275482,304.633347 287.214569Z" style="fill: rgb(89.999390%,0.000000%,0.000000%);stroke: none;"></path>
  <path d="M242.876358 563.421173C242.876358 562.360260,242.454849 561.342926,241.704727 560.592804C240.954605 559.842682,239.937271 559.421173,238.876358 559.421173C237.815445 559.421173,236.798111 559.842682,236.047989 560.592804C235.297867 561.342926,234.876358 562.360260,234.876358 563.421173C234.876358 564.482086,235.297867 565.499420,236.047989 566.249542C236.798111 566.999664,237.815445 567.421173,238.876358 567.421173C239.937271 567.421173,240.954605 566.999664,241.704727 566.249542C242.454849 565.499420,242.876358 564.482086,242.876358 563.421173Z" style="stroke:rgb(39.999390%,39.999390%,39.999390%); stroke-width: 0.500000;stroke-linecap: round;stroke-linejoin: round;stroke-miterlimit: 10.000000;fill: none;"></path>
  <path d="M242.876358 563.421173C242.876358 562.360260,242.454849 561.342926,241.704727 560.592804C240.954605 559.842682,239.937271 559.421173,238.876358 559.421173C237.815445 559.421173,236.798111 559.842682,236.047989 560.592804C235.297867 561.342926,234.876358 562.360260,234.876358 563.421173C234.876358 564.482086,235.297867 565.499420,236.047989 566.249542C236.798111 566.999664,237.815445 567.421173,238.876358 567.421173C239.937271 567.421173,240.954605 566.999664,241.704727 566.249542C242.454849 565.499420,242.876358 564.482086,242.876358 563.421173Z" style="fill: rgb(100.000000%,100.000000%,0.000000%);stroke: none;"></path>
  <path d="M283.366653 282.785431L345.123642 6.578827" style="stroke:rgb(60.000610%,60.000610%,60.000610%); stroke-width: 1.500000;stroke-linecap: round;stroke-dasharray: 3.000000 3.000000 ;stroke-linejoin: round;stroke-miterlimit: 10.000000;fill: none;"></path>
  <path d="M287.366653 282.785431C287.366653 281.724518,286.945145 280.707184,286.195023 279.957062C285.444901 279.206940,284.427567 278.785431,283.366653 278.785431C282.305740 278.785431,281.288406 279.206940,280.538284 279.957062C279.788162 280.707184,279.366653 281.724518,279.366653 282.785431C279.366653 283.846344,279.788162 284.863678,280.538284 285.613800C281.288406 286.363922,282.305740 286.785431,283.366653 286.785431C284.427567 286.785431,285.444901 286.363922,286.195023 285.613800C286.945145 284.863678,287.366653 283.846344,287.366653 282.785431Z" style="stroke:rgb(39.999390%,39.999390%,39.999390%); stroke-width: 0.500000;stroke-linecap: round;stroke-linejoin: round;stroke-miterlimit: 10.000000;fill: none;"></path>
  <path d="M287.366653 282.785431C287.366653 281.724518,286.945145 280.707184,286.195023 279.957062C285.444901 279.206940,284.427567 278.785431,283.366653 278.785431C282.305740 278.785431,281.288406 279.206940,280.538284 279.957062C279.788162 280.707184,279.366653 281.724518,279.366653 282.785431C279.366653 283.846344,279.788162 284.863678,280.538284 285.613800C281.288406 286.363922,282.305740 286.785431,283.366653 286.785431C284.427567 286.785431,285.444901 286.363922,286.195023 285.613800C286.945145 284.863678,287.366653 283.846344,287.366653 282.785431Z" style="fill: rgb(89.999390%,0.000000%,0.000000%);stroke: none;"></path>
  <path d="M349.123642 6.578827C349.123642 5.517914,348.702133 4.500580,347.952011 3.750458C347.201889 3.000336,346.184555 2.578827,345.123642 2.578827C344.062729 2.578827,343.045395 3.000336,342.295273 3.750458C341.545151 4.500580,341.123642 5.517914,341.123642 6.578827C341.123642 7.639740,341.545151 8.657074,342.295273 9.407196C343.045395 10.157318,344.062729 10.578827,345.123642 10.578827C346.184555 10.578827,347.201889 10.157318,347.952011 9.407196C348.702133 8.657074,349.123642 7.639740,349.123642 6.578827Z" style="stroke:rgb(39.999390%,39.999390%,39.999390%); stroke-width: 0.500000;stroke-linecap: round;stroke-linejoin: round;stroke-miterlimit: 10.000000;fill: none;"></path>
  <path d="M349.123642 6.578827C349.123642 5.517914,348.702133 4.500580,347.952011 3.750458C347.201889 3.000336,346.184555 2.578827,345.123642 2.578827C344.062729 2.578827,343.045395 3.000336,342.295273 3.750458C341.545151 4.500580,341.123642 5.517914,341.123642 6.578827C341.123642 7.639740,341.545151 8.657074,342.295273 9.407196C343.045395 10.157318,344.062729 10.578827,345.123642 10.578827C346.184555 10.578827,347.201889 10.157318,347.952011 9.407196C348.702133 8.657074,349.123642 7.639740,349.123642 6.578827Z" style="fill: rgb(100.000000%,100.000000%,0.000000%);stroke: none;"></path>
  <path d="M283.366653 282.785431L204.412170 554.571564" style="stroke:rgb(60.000610%,60.000610%,60.000610%); stroke-width: 1.500000;stroke-linecap: round;stroke-dasharray: 3.000000 3.000000 ;stroke-linejoin: round;stroke-miterlimit: 10.000000;fill: none;"></path>
  <path d="M287.366653 282.785431C287.366653 281.724518,286.945145 280.707184,286.195023 279.957062C285.444901 279.206940,284.427567 278.785431,283.366653 278.785431C282.305740 278.785431,281.288406 279.206940,280.538284 279.957062C279.788162 280.707184,279.366653 281.724518,279.366653 282.785431C279.366653 283.846344,279.788162 284.863678,280.538284 285.613800C281.288406 286.363922,282.305740 286.785431,283.366653 286.785431C284.427567 286.785431,285.444901 286.363922,286.195023 285.613800C286.945145 284.863678,287.366653 283.846344,287.366653 282.785431Z" style="stroke:rgb(39.999390%,39.999390%,39.999390%); stroke-width: 0.500000;stroke-linecap: round;stroke-linejoin: round;stroke-miterlimit: 10.000000;fill: none;"></path>
  <path d="M287.366653 282.785431C287.366653 281.724518,286.945145 280.707184,286.195023 279.957062C285.444901 279.206940,284.427567 278.785431,283.366653 278.785431C282.305740 278.785431,281.288406 279.206940,280.538284 279.957062C279.788162 280.707184,279.366653 281.724518,279.366653 282.785431C279.366653 283.846344,279.788162 284.863678,280.538284 285.613800C281.288406 286.363922,282.305740 286.785431,283.366653 286.785431C284.427567 286.785431,285.444901 286.363922,286.195023 285.613800C286.945145 284.863678,287.366653 283.846344,287.366653 282.785431Z" style="fill: rgb(89.999390%,0.000000%,0.000000%);stroke: none;"></path>
  <path d="M208.412170 554.571564C208.412170 553.510651,207.990662 552.493317,207.240540 551.743195C206.490417 550.993073,205.473083 550.571564,204.412170 550.571564C203.351257 550.571564,202.333923 550.993073,201.583801 551.743195C200.833679 552.493317,200.412170 553.510651,200.412170 554.571564C200.412170 555.632477,200.833679 556.649811,201.583801 557.399933C202.333923 558.150055,203.351257 558.571564,204.412170 558.571564C205.473083 558.571564,206.490417 558.150055,207.240540 557.399933C207.990662 556.649811,208.412170 555.632477,208.412170 554.571564Z" style="stroke:rgb(39.999390%,39.999390%,39.999390%); stroke-width: 0.500000;stroke-linecap: round;stroke-linejoin: round;stroke-miterlimit: 10.000000;fill: none;"></path>
  <path d="M208.412170 554.571564C208.412170 553.510651,207.990662 552.493317,207.240540 551.743195C206.490417 550.993073,205.473083 550.571564,204.412170 550.571564C203.351257 550.571564,202.333923 550.993073,201.583801 551.743195C200.833679 552.493317,200.412170 553.510651,200.412170 554.571564C200.412170 555.632477,200.833679 556.649811,201.583801 557.399933C202.333923 558.150055,203.351257 558.571564,204.412170 558.571564C205.473083 558.571564,206.490417 558.150055,207.240540 557.399933C207.990662 556.649811,208.412170 555.632477,208.412170 554.571564Z" style="fill: rgb(100.000000%,100.000000%,0.000000%);stroke: none;"></path>
</svg>
