<?xml version="1.0"?>
<!-- Created by MetaPost 2.00 on 2025.04.10:1708 -->
<svg version="1.1" xmlns="http://www.w3.org/2000/svg" xmlns:xlink="http://www.w3.org/1999/xlink" width="751.911041" height="751.893738" viewBox="0 0 751.911041 751.893738">
<!-- Original BoundingBox: -375.955521 -375.946869 375.955521 375.946869 -->
  <path d="M357.196960 657.893570L392.803040 657.893570L428.123642 653.421173L462.587830 644.571564L495.702530 631.474472L526.879471 614.354843L555.677475 593.437576L581.646729 569.060043L604.320084 541.620178L623.429367 511.576462L638.568008 479.370102L649.562988 445.468201L656.249939 410.545517L658.464508 375.000000L656.249939 339.454483L649.562988 304.531799L638.568008 270.629898L623.429367 238.423538L604.320084 208.379822L581.646729 180.939957L555.677475 156.562424L526.879471 135.645157L495.702530 118.525528L462.587830 105.428436L428.123642 96.578827L392.803040 92.106430L357.196960 92.106430L321.876358 96.578827L287.412170 105.428436L254.297470 118.525528L223.120529 135.645157L194.322525 156.562424L168.353271 180.939957L145.679916 208.379822L126.570633 238.423538L111.431992 270.629898L100.437012 304.531799L93.750061 339.454483L91.535492 375.000000L93.750061 410.545517L100.437012 445.468201L111.431992 479.370102L126.570633 511.576462L145.679916 541.620178L168.353271 569.060043L194.322525 593.437576L223.120529 614.354843L254.297470 631.474472L287.412170 644.571564L321.876358 653.421173L357.196960 657.893570Z" style="fill: rgb(100.000000%,100.000000%,100.000000%);stroke: none;"></path>
  <path d="M357.196960 657.893570L392.803040 657.893570" style="stroke:rgb(0.000000%,0.000000%,0.000000%); stroke-width: 1.000000;stroke-linecap: round;stroke-linejoin: round;stroke-miterlimit: 10.000000;fill: none;"></path>
  <path d="M392.803040 657.893570L428.123642 653.421173" style="stroke:rgb(0.000000%,0.000000%,0.000000%); stroke-width: 1.000000;stroke-linecap: round;stroke-linejoin: round;stroke-miterlimit: 10.000000;fill: none;"></path>
  <path d="M428.123642 653.421173L462.587830 644.571564" style="stroke:rgb(0.000000%,0.000000%,0.000000%); stroke-width: 1.000000;stroke-linecap: round;stroke-linejoin: round;stroke-miterlimit: 10.000000;fill: none;"></path>
  <path d="M462.587830 644.571564L495.702530 631.474472" style="stroke:rgb(0.000000%,0.000000%,0.000000%); stroke-width: 1.000000;stroke-linecap: round;stroke-linejoin: round;stroke-miterlimit: 10.000000;fill: none;"></path>
  <path d="M495.702530 631.474472L526.879471 614.354843" style="stroke:rgb(0.000000%,0.000000%,0.000000%); stroke-width: 1.000000;stroke-linecap: round;stroke-linejoin: round;stroke-miterlimit: 10.000000;fill: none;"></path>
  <path d="M526.879471 614.354843L555.677475 593.437576" style="stroke:rgb(0.000000%,0.000000%,0.000000%); stroke-width: 1.000000;stroke-linecap: round;stroke-linejoin: round;stroke-miterlimit: 10.000000;fill: none;"></path>
  <path d="M555.677475 593.437576L581.646729 569.060043" style="stroke:rgb(0.000000%,0.000000%,0.000000%); stroke-width: 1.000000;stroke-linecap: round;stroke-linejoin: round;stroke-miterlimit: 10.000000;fill: none;"></path>
  <path d="M581.646729 569.060043L604.320084 541.620178" style="stroke:rgb(0.000000%,0.000000%,0.000000%); stroke-width: 1.000000;stroke-linecap: round;stroke-linejoin: round;stroke-miterlimit: 10.000000;fill: none;"></path>
  <path d="M604.320084 541.620178L623.429367 511.576462" style="stroke:rgb(0.000000%,0.000000%,0.000000%); stroke-width: 1.000000;stroke-linecap: round;stroke-linejoin: round;stroke-miterlimit: 10.000000;fill: none;"></path>
  <path d="M623.429367 511.576462L638.568008 479.370102" style="stroke:rgb(0.000000%,0.000000%,0.000000%); stroke-width: 1.000000;stroke-linecap: round;stroke-linejoin: round;stroke-miterlimit: 10.000000;fill: none;"></path>
  <path d="M638.568008 479.370102L649.562988 445.468201" style="stroke:rgb(0.000000%,0.000000%,0.000000%); stroke-width: 1.000000;stroke-linecap: round;stroke-linejoin: round;stroke-miterlimit: 10.000000;fill: none;"></path>
  <path d="M649.562988 445.468201L656.249939 410.545517" style="stroke:rgb(0.000000%,0.000000%,0.000000%); stroke-width: 1.000000;stroke-linecap: round;stroke-linejoin: round;stroke-miterlimit: 10.000000;fill: none;"></path>
  <path d="M656.249939 410.545517L658.464508 375.000000" style="stroke:rgb(0.000000%,0.000000%,0.000000%); stroke-width: 1.000000;stroke-linecap: round;stroke-linejoin: round;stroke-miterlimit: 10.000000;fill: none;"></path>
  <path d="M658.464508 375.000000L656.249939 339.454483" style="stroke:rgb(0.000000%,0.000000%,0.000000%); stroke-width: 1.000000;stroke-linecap: round;stroke-linejoin: round;stroke-miterlimit: 10.000000;fill: none;"></path>
  <path d="M656.249939 339.454483L649.562988 304.531799" style="stroke:rgb(0.000000%,0.000000%,0.000000%); stroke-width: 1.000000;stroke-linecap: round;stroke-linejoin: round;stroke-miterlimit: 10.000000;fill: none;"></path>
  <path d="M649.562988 304.531799L638.568008 270.629898" style="stroke:rgb(0.000000%,0.000000%,0.000000%); stroke-width: 1.000000;stroke-linecap: round;stroke-linejoin: round;stroke-miterlimit: 10.000000;fill: none;"></path>
  <path d="M638.568008 270.629898L623.429367 238.423538" style="stroke:rgb(0.000000%,0.000000%,0.000000%); stroke-width: 1.000000;stroke-linecap: round;stroke-linejoin: round;stroke-miterlimit: 10.000000;fill: none;"></path>
  <path d="M623.429367 238.423538L604.320084 208.379822" style="stroke:rgb(0.000000%,0.000000%,0.000000%); stroke-width: 1.000000;stroke-linecap: round;stroke-linejoin: round;stroke-miterlimit: 10.000000;fill: none;"></path>
  <path d="M604.320084 208.379822L581.646729 180.939957" style="stroke:rgb(0.000000%,0.000000%,0.000000%); stroke-width: 1.000000;stroke-linecap: round;stroke-linejoin: round;stroke-miterlimit: 10.000000;fill: none;"></path>
  <path d="M581.646729 180.939957L555.677475 156.562424" style="stroke:rgb(0.000000%,0.000000%,0.000000%); stroke-width: 1.000000;stroke-linecap: round;stroke-linejoin: round;stroke-miterlimit: 10.000000;fill: none;"></path>
  <path d="M555.677475 156.562424L526.879471 135.645157" style="stroke:rgb(0.000000%,0.000000%,0.000000%); stroke-width: 1.000000;stroke-linecap: round;stroke-linejoin: round;stroke-miterlimit: 10.000000;fill: none;"></path>
  <path d="M526.879471 135.645157L495.702530 118.525528" style="stroke:rgb(0.000000%,0.000000%,0.000000%); stroke-width: 1.000000;stroke-linecap: round;stroke-linejoin: round;stroke-miterlimit: 10.000000;fill: none;"></path>
  <path d="M495.702530 118.525528L462.587830 105.428436" style="stroke:rgb(0.000000%,0.000000%,0.000000%); stroke-width: 1.000000;stroke-linecap: round;stroke-linejoin: round;stroke-miterlimit: 10.000000;fill: none;"></path>
  <path d="M462.587830 105.428436L428.123642 96.578827" style="stroke:rgb(0.000000%,0.000000%,0.000000%); stroke-width: 1.000000;stroke-linecap: round;stroke-linejoin: round;stroke-miterlimit: 10.000000;fill: none;"></path>
  <path d="M428.123642 96.578827L392.803040 92.106430" style="stroke:rgb(0.000000%,0.000000%,0.000000%); stroke-width: 1.000000;stroke-linecap: round;stroke-linejoin: round;stroke-miterlimit: 10.000000;fill: none;"></path>
  <path d="M392.803040 92.106430L357.196960 92.106430" style="stroke:rgb(0.000000%,0.000000%,0.000000%); stroke-width: 1.000000;stroke-linecap: round;stroke-linejoin: round;stroke-miterlimit: 10.000000;fill: none;"></path>
  <path d="M357.196960 92.106430L321.876358 96.578827" style="stroke:rgb(0.000000%,0.000000%,0.000000%); stroke-width: 1.000000;stroke-linecap: round;stroke-linejoin: round;stroke-miterlimit: 10.000000;fill: none;"></path>
  <path d="M321.876358 96.578827L287.412170 105.428436" style="stroke:rgb(0.000000%,0.000000%,0.000000%); stroke-width: 1.000000;stroke-linecap: round;stroke-linejoin: round;stroke-miterlimit: 10.000000;fill: none;"></path>
  <path d="M287.412170 105.428436L254.297470 118.525528" style="stroke:rgb(0.000000%,0.000000%,0.000000%); stroke-width: 1.000000;stroke-linecap: round;stroke-linejoin: round;stroke-miterlimit: 10.000000;fill: none;"></path>
  <path d="M254.297470 118.525528L223.120529 135.645157" style="stroke:rgb(0.000000%,0.000000%,0.000000%); stroke-width: 1.000000;stroke-linecap: round;stroke-linejoin: round;stroke-miterlimit: 10.000000;fill: none;"></path>
  <path d="M223.120529 135.645157L194.322525 156.562424" style="stroke:rgb(0.000000%,0.000000%,0.000000%); stroke-width: 1.000000;stroke-linecap: round;stroke-linejoin: round;stroke-miterlimit: 10.000000;fill: none;"></path>
  <path d="M194.322525 156.562424L168.353271 180.939957" style="stroke:rgb(0.000000%,0.000000%,0.000000%); stroke-width: 1.000000;stroke-linecap: round;stroke-linejoin: round;stroke-miterlimit: 10.000000;fill: none;"></path>
  <path d="M168.353271 180.939957L145.679916 208.379822" style="stroke:rgb(0.000000%,0.000000%,0.000000%); stroke-width: 1.000000;stroke-linecap: round;stroke-linejoin: round;stroke-miterlimit: 10.000000;fill: none;"></path>
  <path d="M145.679916 208.379822L126.570633 238.423538" style="stroke:rgb(0.000000%,0.000000%,0.000000%); stroke-width: 1.000000;stroke-linecap: round;stroke-linejoin: round;stroke-miterlimit: 10.000000;fill: none;"></path>
  <path d="M126.570633 238.423538L111.431992 270.629898" style="stroke:rgb(0.000000%,0.000000%,0.000000%); stroke-width: 1.000000;stroke-linecap: round;stroke-linejoin: round;stroke-miterlimit: 10.000000;fill: none;"></path>
  <path d="M111.431992 270.629898L100.437012 304.531799" style="stroke:rgb(0.000000%,0.000000%,0.000000%); stroke-width: 1.000000;stroke-linecap: round;stroke-linejoin: round;stroke-miterlimit: 10.000000;fill: none;"></path>
  <path d="M100.437012 304.531799L93.750061 339.454483" style="stroke:rgb(0.000000%,0.000000%,0.000000%); stroke-width: 1.000000;stroke-linecap: round;stroke-linejoin: round;stroke-miterlimit: 10.000000;fill: none;"></path>
  <path d="M93.750061 339.454483L91.535492 375.000000" style="stroke:rgb(0.000000%,0.000000%,0.000000%); stroke-width: 1.000000;stroke-linecap: round;stroke-linejoin: round;stroke-miterlimit: 10.000000;fill: none;"></path>
  <path d="M91.535492 375.000000L93.750061 410.545517" style="stroke:rgb(0.000000%,0.000000%,0.000000%); stroke-width: 1.000000;stroke-linecap: round;stroke-linejoin: round;stroke-miterlimit: 10.000000;fill: none;"></path>
  <path d="M93.750061 410.545517L100.437012 445.468201" style="stroke:rgb(0.000000%,0.000000%,0.000000%); stroke-width: 1.000000;stroke-linecap: round;stroke-linejoin: round;stroke-miterlimit: 10.000000;fill: none;"></path>
  <path d="M100.437012 445.468201L111.431992 479.370102" style="stroke:rgb(0.000000%,0.000000%,0.000000%); stroke-width: 1.000000;stroke-linecap: round;stroke-linejoin: round;stroke-miterlimit: 10.000000;fill: none;"></path>
  <path d="M111.431992 479.370102L126.570633 511.576462" style="stroke:rgb(0.000000%,0.000000%,0.000000%); stroke-width: 1.000000;stroke-linecap: round;stroke-linejoin: round;stroke-miterlimit: 10.000000;fill: none;"></path>
  <path d="M126.570633 511.576462L145.679916 541.620178" style="stroke:rgb(0.000000%,0.000000%,0.000000%); stroke-width: 1.000000;stroke-linecap: round;stroke-linejoin: round;stroke-miterlimit: 10.000000;fill: none;"></path>
  <path d="M145.679916 541.620178L168.353271 569.060043" style="stroke:rgb(0.000000%,0.000000%,0.000000%); stroke-width: 1.000000;stroke-linecap: round;stroke-linejoin: round;stroke-miterlimit: 10.000000;fill: none;"></path>
  <path d="M168.353271 569.060043L194.322525 593.437576" style="stroke:rgb(0.000000%,0.000000%,0.000000%); stroke-width: 1.000000;stroke-linecap: round;stroke-linejoin: round;stroke-miterlimit: 10.000000;fill: none;"></path>
  <path d="M194.322525 593.437576L223.120529 614.354843" style="stroke:rgb(0.000000%,0.000000%,0.000000%); stroke-width: 1.000000;stroke-linecap: round;stroke-linejoin: round;stroke-miterlimit: 10.000000;fill: none;"></path>
  <path d="M223.120529 614.354843L254.297470 631.474472" style="stroke:rgb(0.000000%,0.000000%,0.000000%); stroke-width: 1.000000;stroke-linecap: round;stroke-linejoin: round;stroke-miterlimit: 10.000000;fill: none;"></path>
  <path d="M254.297470 631.474472L287.412170 644.571564" style="stroke:rgb(0.000000%,0.000000%,0.000000%); stroke-width: 1.000000;stroke-linecap: round;stroke-linejoin: round;stroke-miterlimit: 10.000000;fill: none;"></path>
  <path d="M287.412170 644.571564L321.876358 653.421173" style="stroke:rgb(0.000000%,0.000000%,0.000000%); stroke-width: 1.000000;stroke-linecap: round;stroke-linejoin: round;stroke-miterlimit: 10.000000;fill: none;"></path>
  <path d="M321.876358 653.421173L357.196960 657.893570" style="stroke:rgb(0.000000%,0.000000%,0.000000%); stroke-width: 1.000000;stroke-linecap: round;stroke-linejoin: round;stroke-miterlimit: 10.000000;fill: none;"></path>
  <path d="M671.587540 550.331375C671.587540 497.255081,650.499924 446.359009,612.972168 408.831253C575.444412 371.303497,524.548340 350.215881,471.472046 350.215881C418.395752 350.215881,367.499680 371.303497,329.971924 408.831253C292.444168 446.359009,271.356552 497.255081,271.356552 550.331375C271.356552 603.407669,292.444168 654.303741,329.971924 691.831497C367.499680 729.359253,418.395752 750.446869,471.472046 750.446869C524.548340 750.446869,575.444412 729.359253,612.972168 691.831497C650.499924 654.303741,671.587540 603.407669,671.587540 550.331375Z" style="stroke:rgb(25.500488%,41.000366%,88.400269%); stroke-width: 1.000000;stroke-linecap: round;stroke-linejoin: round;stroke-miterlimit: 10.000000;fill: none;"></path>
  <path d="M399.775467 471.454758C399.775467 418.378464,378.687851 367.482391,341.160095 329.954636C303.632339 292.426880,252.736267 271.339264,199.659973 271.339264C146.583679 271.339264,95.687607 292.426880,58.159851 329.954636C20.632095 367.482391,-0.455521 418.378464,-0.455521 471.454758C-0.455521 524.531052,20.632095 575.427124,58.159851 612.954880C95.687607 650.482635,146.583679 671.570251,199.659973 671.570251C252.736267 671.570251,303.632339 650.482635,341.160095 612.954880C378.687851 575.427124,399.775467 524.531052,399.775467 471.454758Z" style="stroke:rgb(25.500488%,41.000366%,88.400269%); stroke-width: 1.000000;stroke-linecap: round;stroke-linejoin: round;stroke-miterlimit: 10.000000;fill: none;"></path>
  <path d="M750.455521 278.545242C750.455521 225.468948,729.367905 174.572876,691.840149 137.045120C654.312393 99.517365,603.416321 78.429749,550.340027 78.429749C497.263733 78.429749,446.367661 99.517365,408.839905 137.045120C371.312149 174.572876,350.224533 225.468948,350.224533 278.545242C350.224533 331.621536,371.312149 382.517609,408.839905 420.045364C446.367661 457.573120,497.263733 478.660736,550.340027 478.660736C603.416321 478.660736,654.312393 457.573120,691.840149 420.045364C729.367905 382.517609,750.455521 331.621536,750.455521 278.545242Z" style="stroke:rgb(25.500488%,41.000366%,88.400269%); stroke-width: 1.000000;stroke-linecap: round;stroke-linejoin: round;stroke-miterlimit: 10.000000;fill: none;"></path>
  <path d="M478.643448 199.668625C478.643448 146.592331,457.555832 95.696259,420.028076 58.168503C382.500320 20.640747,331.604248 -0.446869,278.527954 -0.446869C225.451660 -0.446869,174.555588 20.640747,137.027832 58.168503C99.500076 95.696259,78.412460 146.592331,78.412460 199.668625C78.412460 252.744919,99.500076 303.640991,137.027832 341.168747C174.555588 378.696503,225.451660 399.784119,278.527954 399.784119C331.604248 399.784119,382.500320 378.696503,420.028076 341.168747C457.555832 303.640991,478.643448 252.744919,478.643448 199.668625Z" style="stroke:rgb(25.500488%,41.000366%,88.400269%); stroke-width: 1.000000;stroke-linecap: round;stroke-linejoin: round;stroke-miterlimit: 10.000000;fill: none;"></path>
  <path d="M471.472046 550.331375L375.000000 375.000000" style="stroke:rgb(60.000610%,60.000610%,60.000610%); stroke-width: 1.500000;stroke-linecap: round;stroke-dasharray: 3.000000 3.000000 ;stroke-linejoin: round;stroke-miterlimit: 10.000000;fill: none;"></path>
  <path d="M199.659973 471.454758L375.000000 375.000000" style="stroke:rgb(60.000610%,60.000610%,60.000610%); stroke-width: 1.500000;stroke-linecap: round;stroke-dasharray: 3.000000 3.000000 ;stroke-linejoin: round;stroke-miterlimit: 10.000000;fill: none;"></path>
  <path d="M475.472046 550.331375C475.472046 549.270462,475.050537 548.253128,474.300415 547.503006C473.550293 546.752884,472.532959 546.331375,471.472046 546.331375C470.411133 546.331375,469.393799 546.752884,468.643677 547.503006C467.893555 548.253128,467.472046 549.270462,467.472046 550.331375C467.472046 551.392288,467.893555 552.409622,468.643677 553.159744C469.393799 553.909866,470.411133 554.331375,471.472046 554.331375C472.532959 554.331375,473.550293 553.909866,474.300415 553.159744C475.050537 552.409622,475.472046 551.392288,475.472046 550.331375Z" style="stroke:rgb(39.999390%,39.999390%,39.999390%); stroke-width: 0.500000;stroke-linecap: round;stroke-linejoin: round;stroke-miterlimit: 10.000000;fill: none;"></path>
  <path d="M475.472046 550.331375C475.472046 549.270462,475.050537 548.253128,474.300415 547.503006C473.550293 546.752884,472.532959 546.331375,471.472046 546.331375C470.411133 546.331375,469.393799 546.752884,468.643677 547.503006C467.893555 548.253128,467.472046 549.270462,467.472046 550.331375C467.472046 551.392288,467.893555 552.409622,468.643677 553.159744C469.393799 553.909866,470.411133 554.331375,471.472046 554.331375C472.532959 554.331375,473.550293 553.909866,474.300415 553.159744C475.050537 552.409622,475.472046 551.392288,475.472046 550.331375Z" style="fill: rgb(89.999390%,0.000000%,0.000000%);stroke: none;"></path>
  <path d="M203.659973 471.454758C203.659973 470.393845,203.238464 469.376511,202.488342 468.626389C201.738220 467.876266,200.720886 467.454758,199.659973 467.454758C198.599060 467.454758,197.581726 467.876266,196.831604 468.626389C196.081482 469.376511,195.659973 470.393845,195.659973 471.454758C195.659973 472.515671,196.081482 473.533005,196.831604 474.283127C197.581726 475.033249,198.599060 475.454758,199.659973 475.454758C200.720886 475.454758,201.738220 475.033249,202.488342 474.283127C203.238464 473.533005,203.659973 472.515671,203.659973 471.454758Z" style="stroke:rgb(39.999390%,39.999390%,39.999390%); stroke-width: 0.500000;stroke-linecap: round;stroke-linejoin: round;stroke-miterlimit: 10.000000;fill: none;"></path>
  <path d="M203.659973 471.454758C203.659973 470.393845,203.238464 469.376511,202.488342 468.626389C201.738220 467.876266,200.720886 467.454758,199.659973 467.454758C198.599060 467.454758,197.581726 467.876266,196.831604 468.626389C196.081482 469.376511,195.659973 470.393845,195.659973 471.454758C195.659973 472.515671,196.081482 473.533005,196.831604 474.283127C197.581726 475.033249,198.599060 475.454758,199.659973 475.454758C200.720886 475.454758,201.738220 475.033249,202.488342 474.283127C203.238464 473.533005,203.659973 472.515671,203.659973 471.454758Z" style="fill: rgb(89.999390%,0.000000%,0.000000%);stroke: none;"></path>
  <path d="M379.000000 375.000000C379.000000 373.939087,378.578491 372.921753,377.828369 372.171631C377.078247 371.421509,376.060913 371.000000,375.000000 371.000000C373.939087 371.000000,372.921753 371.421509,372.171631 372.171631C371.421509 372.921753,371.000000 373.939087,371.000000 375.000000C371.000000 376.060913,371.421509 377.078247,372.171631 377.828369C372.921753 378.578491,373.939087 379.000000,375.000000 379.000000C376.060913 379.000000,377.078247 378.578491,377.828369 377.828369C378.578491 377.078247,379.000000 376.060913,379.000000 375.000000Z" style="stroke:rgb(39.999390%,39.999390%,39.999390%); stroke-width: 0.500000;stroke-linecap: round;stroke-linejoin: round;stroke-miterlimit: 10.000000;fill: none;"></path>
  <path d="M379.000000 375.000000C379.000000 373.939087,378.578491 372.921753,377.828369 372.171631C377.078247 371.421509,376.060913 371.000000,375.000000 371.000000C373.939087 371.000000,372.921753 371.421509,372.171631 372.171631C371.421509 372.921753,371.000000 373.939087,371.000000 375.000000C371.000000 376.060913,371.421509 377.078247,372.171631 377.828369C372.921753 378.578491,373.939087 379.000000,375.000000 379.000000C376.060913 379.000000,377.078247 378.578491,377.828369 377.828369C378.578491 377.078247,379.000000 376.060913,379.000000 375.000000Z" style="fill: rgb(9.800720%,9.800720%,44.000244%);stroke: none;"></path>
  <path d="M471.472046 550.331375L375.000000 375.000000" style="stroke:rgb(60.000610%,60.000610%,60.000610%); stroke-width: 1.500000;stroke-linecap: round;stroke-dasharray: 3.000000 3.000000 ;stroke-linejoin: round;stroke-miterlimit: 10.000000;fill: none;"></path>
  <path d="M550.340027 278.545242L375.000000 375.000000" style="stroke:rgb(60.000610%,60.000610%,60.000610%); stroke-width: 1.500000;stroke-linecap: round;stroke-dasharray: 3.000000 3.000000 ;stroke-linejoin: round;stroke-miterlimit: 10.000000;fill: none;"></path>
  <path d="M475.472046 550.331375C475.472046 549.270462,475.050537 548.253128,474.300415 547.503006C473.550293 546.752884,472.532959 546.331375,471.472046 546.331375C470.411133 546.331375,469.393799 546.752884,468.643677 547.503006C467.893555 548.253128,467.472046 549.270462,467.472046 550.331375C467.472046 551.392288,467.893555 552.409622,468.643677 553.159744C469.393799 553.909866,470.411133 554.331375,471.472046 554.331375C472.532959 554.331375,473.550293 553.909866,474.300415 553.159744C475.050537 552.409622,475.472046 551.392288,475.472046 550.331375Z" style="stroke:rgb(39.999390%,39.999390%,39.999390%); stroke-width: 0.500000;stroke-linecap: round;stroke-linejoin: round;stroke-miterlimit: 10.000000;fill: none;"></path>
  <path d="M475.472046 550.331375C475.472046 549.270462,475.050537 548.253128,474.300415 547.503006C473.550293 546.752884,472.532959 546.331375,471.472046 546.331375C470.411133 546.331375,469.393799 546.752884,468.643677 547.503006C467.893555 548.253128,467.472046 549.270462,467.472046 550.331375C467.472046 551.392288,467.893555 552.409622,468.643677 553.159744C469.393799 553.909866,470.411133 554.331375,471.472046 554.331375C472.532959 554.331375,473.550293 553.909866,474.300415 553.159744C475.050537 552.409622,475.472046 551.392288,475.472046 550.331375Z" style="fill: rgb(89.999390%,0.000000%,0.000000%);stroke: none;"></path>
  <path d="M554.340027 278.545242C554.340027 277.484329,553.918518 276.466995,553.168396 275.716873C552.418274 274.966751,551.400940 274.545242,550.340027 274.545242C549.279114 274.545242,548.261780 274.966751,547.511658 275.716873C546.761536 276.466995,546.340027 277.484329,546.340027 278.545242C546.340027 279.606155,546.761536 280.623489,547.511658 281.373611C548.261780 282.123734,549.279114 282.545242,550.340027 282.545242C551.400940 282.545242,552.418274 282.123734,553.168396 281.373611C553.918518 280.623489,554.340027 279.606155,554.340027 278.545242Z" style="stroke:rgb(39.999390%,39.999390%,39.999390%); stroke-width: 0.500000;stroke-linecap: round;stroke-linejoin: round;stroke-miterlimit: 10.000000;fill: none;"></path>
  <path d="M554.340027 278.545242C554.340027 277.484329,553.918518 276.466995,553.168396 275.716873C552.418274 274.966751,551.400940 274.545242,550.340027 274.545242C549.279114 274.545242,548.261780 274.966751,547.511658 275.716873C546.761536 276.466995,546.340027 277.484329,546.340027 278.545242C546.340027 279.606155,546.761536 280.623489,547.511658 281.373611C548.261780 282.123734,549.279114 282.545242,550.340027 282.545242C551.400940 282.545242,552.418274 282.123734,553.168396 281.373611C553.918518 280.623489,554.340027 279.606155,554.340027 278.545242Z" style="fill: rgb(89.999390%,0.000000%,0.000000%);stroke: none;"></path>
  <path d="M379.000000 375.000000C379.000000 373.939087,378.578491 372.921753,377.828369 372.171631C377.078247 371.421509,376.060913 371.000000,375.000000 371.000000C373.939087 371.000000,372.921753 371.421509,372.171631 372.171631C371.421509 372.921753,371.000000 373.939087,371.000000 375.000000C371.000000 376.060913,371.421509 377.078247,372.171631 377.828369C372.921753 378.578491,373.939087 379.000000,375.000000 379.000000C376.060913 379.000000,377.078247 378.578491,377.828369 377.828369C378.578491 377.078247,379.000000 376.060913,379.000000 375.000000Z" style="stroke:rgb(39.999390%,39.999390%,39.999390%); stroke-width: 0.500000;stroke-linecap: round;stroke-linejoin: round;stroke-miterlimit: 10.000000;fill: none;"></path>
  <path d="M379.000000 375.000000C379.000000 373.939087,378.578491 372.921753,377.828369 372.171631C377.078247 371.421509,376.060913 371.000000,375.000000 371.000000C373.939087 371.000000,372.921753 371.421509,372.171631 372.171631C371.421509 372.921753,371.000000 373.939087,371.000000 375.000000C371.000000 376.060913,371.421509 377.078247,372.171631 377.828369C372.921753 378.578491,373.939087 379.000000,375.000000 379.000000C376.060913 379.000000,377.078247 378.578491,377.828369 377.828369C378.578491 377.078247,379.000000 376.060913,379.000000 375.000000Z" style="fill: rgb(9.800720%,9.800720%,44.000244%);stroke: none;"></path>
  <path d="M199.659973 471.454758L375.000000 375.000000" style="stroke:rgb(60.000610%,60.000610%,60.000610%); stroke-width: 1.500000;stroke-linecap: round;stroke-dasharray: 3.000000 3.000000 ;stroke-linejoin: round;stroke-miterlimit: 10.000000;fill: none;"></path>
  <path d="M278.527954 199.668625L375.000000 375.000000" style="stroke:rgb(60.000610%,60.000610%,60.000610%); stroke-width: 1.500000;stroke-linecap: round;stroke-dasharray: 3.000000 3.000000 ;stroke-linejoin: round;stroke-miterlimit: 10.000000;fill: none;"></path>
  <path d="M203.659973 471.454758C203.659973 470.393845,203.238464 469.376511,202.488342 468.626389C201.738220 467.876266,200.720886 467.454758,199.659973 467.454758C198.599060 467.454758,197.581726 467.876266,196.831604 468.626389C196.081482 469.376511,195.659973 470.393845,195.659973 471.454758C195.659973 472.515671,196.081482 473.533005,196.831604 474.283127C197.581726 475.033249,198.599060 475.454758,199.659973 475.454758C200.720886 475.454758,201.738220 475.033249,202.488342 474.283127C203.238464 473.533005,203.659973 472.515671,203.659973 471.454758Z" style="stroke:rgb(39.999390%,39.999390%,39.999390%); stroke-width: 0.500000;stroke-linecap: round;stroke-linejoin: round;stroke-miterlimit: 10.000000;fill: none;"></path>
  <path d="M203.659973 471.454758C203.659973 470.393845,203.238464 469.376511,202.488342 468.626389C201.738220 467.876266,200.720886 467.454758,199.659973 467.454758C198.599060 467.454758,197.581726 467.876266,196.831604 468.626389C196.081482 469.376511,195.659973 470.393845,195.659973 471.454758C195.659973 472.515671,196.081482 473.533005,196.831604 474.283127C197.581726 475.033249,198.599060 475.454758,199.659973 475.454758C200.720886 475.454758,201.738220 475.033249,202.488342 474.283127C203.238464 473.533005,203.659973 472.515671,203.659973 471.454758Z" style="fill: rgb(89.999390%,0.000000%,0.000000%);stroke: none;"></path>
  <path d="M282.527954 199.668625C282.527954 198.607712,282.106445 197.590378,281.356323 196.840256C280.606201 196.090134,279.588867 195.668625,278.527954 195.668625C277.467041 195.668625,276.449707 196.090134,275.699585 196.840256C274.949463 197.590378,274.527954 198.607712,274.527954 199.668625C274.527954 200.729538,274.949463 201.746872,275.699585 202.496994C276.449707 203.247116,277.467041 203.668625,278.527954 203.668625C279.588867 203.668625,280.606201 203.247116,281.356323 202.496994C282.106445 201.746872,282.527954 200.729538,282.527954 199.668625Z" style="stroke:rgb(39.999390%,39.999390%,39.999390%); stroke-width: 0.500000;stroke-linecap: round;stroke-linejoin: round;stroke-miterlimit: 10.000000;fill: none;"></path>
  <path d="M282.527954 199.668625C282.527954 198.607712,282.106445 197.590378,281.356323 196.840256C280.606201 196.090134,279.588867 195.668625,278.527954 195.668625C277.467041 195.668625,276.449707 196.090134,275.699585 196.840256C274.949463 197.590378,274.527954 198.607712,274.527954 199.668625C274.527954 200.729538,274.949463 201.746872,275.699585 202.496994C276.449707 203.247116,277.467041 203.668625,278.527954 203.668625C279.588867 203.668625,280.606201 203.247116,281.356323 202.496994C282.106445 201.746872,282.527954 200.729538,282.527954 199.668625Z" style="fill: rgb(89.999390%,0.000000%,0.000000%);stroke: none;"></path>
  <path d="M379.000000 375.000000C379.000000 373.939087,378.578491 372.921753,377.828369 372.171631C377.078247 371.421509,376.060913 371.000000,375.000000 371.000000C373.939087 371.000000,372.921753 371.421509,372.171631 372.171631C371.421509 372.921753,371.000000 373.939087,371.000000 375.000000C371.000000 376.060913,371.421509 377.078247,372.171631 377.828369C372.921753 378.578491,373.939087 379.000000,375.000000 379.000000C376.060913 379.000000,377.078247 378.578491,377.828369 377.828369C378.578491 377.078247,379.000000 376.060913,379.000000 375.000000Z" style="stroke:rgb(39.999390%,39.999390%,39.999390%); stroke-width: 0.500000;stroke-linecap: round;stroke-linejoin: round;stroke-miterlimit: 10.000000;fill: none;"></path>
  <path d="M379.000000 375.000000C379.000000 373.939087,378.578491 372.921753,377.828369 372.171631C377.078247 371.421509,376.060913 371.000000,375.000000 371.000000C373.939087 371.000000,372.921753 371.421509,372.171631 372.171631C371.421509 372.921753,371.000000 373.939087,371.000000 375.000000C371.000000 376.060913,371.421509 377.078247,372.171631 377.828369C372.921753 378.578491,373.939087 379.000000,375.000000 379.000000C376.060913 379.000000,377.078247 378.578491,377.828369 377.828369C378.578491 377.078247,379.000000 376.060913,379.000000 375.000000Z" style="fill: rgb(9.800720%,9.800720%,44.000244%);stroke: none;"></path>
  <path d="M550.340027 278.545242L375.000000 375.000000" style="stroke:rgb(60.000610%,60.000610%,60.000610%); stroke-width: 1.500000;stroke-linecap: round;stroke-dasharray: 3.000000 3.000000 ;stroke-linejoin: round;stroke-miterlimit: 10.000000;fill: none;"></path>
  <path d="M278.527954 199.668625L375.000000 375.000000" style="stroke:rgb(60.000610%,60.000610%,60.000610%); stroke-width: 1.500000;stroke-linecap: round;stroke-dasharray: 3.000000 3.000000 ;stroke-linejoin: round;stroke-miterlimit: 10.000000;fill: none;"></path>
  <path d="M554.340027 278.545242C554.340027 277.484329,553.918518 276.466995,553.168396 275.716873C552.418274 274.966751,551.400940 274.545242,550.340027 274.545242C549.279114 274.545242,548.261780 274.966751,547.511658 275.716873C546.761536 276.466995,546.340027 277.484329,546.340027 278.545242C546.340027 279.606155,546.761536 280.623489,547.511658 281.373611C548.261780 282.123734,549.279114 282.545242,550.340027 282.545242C551.400940 282.545242,552.418274 282.123734,553.168396 281.373611C553.918518 280.623489,554.340027 279.606155,554.340027 278.545242Z" style="stroke:rgb(39.999390%,39.999390%,39.999390%); stroke-width: 0.500000;stroke-linecap: round;stroke-linejoin: round;stroke-miterlimit: 10.000000;fill: none;"></path>
  <path d="M554.340027 278.545242C554.340027 277.484329,553.918518 276.466995,553.168396 275.716873C552.418274 274.966751,551.400940 274.545242,550.340027 274.545242C549.279114 274.545242,548.261780 274.966751,547.511658 275.716873C546.761536 276.466995,546.340027 277.484329,546.340027 278.545242C546.340027 279.606155,546.761536 280.623489,547.511658 281.373611C548.261780 282.123734,549.279114 282.545242,550.340027 282.545242C551.400940 282.545242,552.418274 282.123734,553.168396 281.373611C553.918518 280.623489,554.340027 279.606155,554.340027 278.545242Z" style="fill: rgb(89.999390%,0.000000%,0.000000%);stroke: none;"></path>
  <path d="M282.527954 199.668625C282.527954 198.607712,282.106445 197.590378,281.356323 196.840256C280.606201 196.090134,279.588867 195.668625,278.527954 195.668625C277.467041 195.668625,276.449707 196.090134,275.699585 196.840256C274.949463 197.590378,274.527954 198.607712,274.527954 199.668625C274.527954 200.729538,274.949463 201.746872,275.699585 202.496994C276.449707 203.247116,277.467041 203.668625,278.527954 203.668625C279.588867 203.668625,280.606201 203.247116,281.356323 202.496994C282.106445 201.746872,282.527954 200.729538,282.527954 199.668625Z" style="stroke:rgb(39.999390%,39.999390%,39.999390%); stroke-width: 0.500000;stroke-linecap: round;stroke-linejoin: round;stroke-miterlimit: 10.000000;fill: none;"></path>
  <path d="M282.527954 199.668625C282.527954 198.607712,282.106445 197.590378,281.356323 196.840256C280.606201 196.090134,279.588867 195.668625,278.527954 195.668625C277.467041 195.668625,276.449707 196.090134,275.699585 196.840256C274.949463 197.590378,274.527954 198.607712,274.527954 199.668625C274.527954 200.729538,274.949463 201.746872,275.699585 202.496994C276.449707 203.247116,277.467041 203.668625,278.527954 203.668625C279.588867 203.668625,280.606201 203.247116,281.356323 202.496994C282.106445 201.746872,282.527954 200.729538,282.527954 199.668625Z" style="fill: rgb(89.999390%,0.000000%,0.000000%);stroke: none;"></path>
  <path d="M379.000000 375.000000C379.000000 373.939087,378.578491 372.921753,377.828369 372.171631C377.078247 371.421509,376.060913 371.000000,375.000000 371.000000C373.939087 371.000000,372.921753 371.421509,372.171631 372.171631C371.421509 372.921753,371.000000 373.939087,371.000000 375.000000C371.000000 376.060913,371.421509 377.078247,372.171631 377.828369C372.921753 378.578491,373.939087 379.000000,375.000000 379.000000C376.060913 379.000000,377.078247 378.578491,377.828369 377.828369C378.578491 377.078247,379.000000 376.060913,379.000000 375.000000Z" style="stroke:rgb(39.999390%,39.999390%,39.999390%); stroke-width: 0.500000;stroke-linecap: round;stroke-linejoin: round;stroke-miterlimit: 10.000000;fill: none;"></path>
  <path d="M379.000000 375.000000C379.000000 373.939087,378.578491 372.921753,377.828369 372.171631C377.078247 371.421509,376.060913 371.000000,375.000000 371.000000C373.939087 371.000000,372.921753 371.421509,372.171631 372.171631C371.421509 372.921753,371.000000 373.939087,371.000000 375.000000C371.000000 376.060913,371.421509 377.078247,372.171631 377.828369C372.921753 378.578491,373.939087 379.000000,375.000000 379.000000C376.060913 379.000000,377.078247 378.578491,377.828369 377.828369C378.578491 377.078247,379.000000 376.060913,379.000000 375.000000Z" style="fill: rgb(9.800720%,9.800720%,44.000244%);stroke: none;"></path>
</svg>
