<?xml version="1.0"?>
<!-- Created by MetaPost 2.00 on 2025.04.10:1708 -->
<svg version="1.1" xmlns="http://www.w3.org/2000/svg" xmlns:xlink="http://www.w3.org/1999/xlink" width="741.443756" height="672.558624" viewBox="0 0 741.443756 672.558624">
<!-- Original BoundingBox: -344.380646 -345.868561 397.063110 326.690063 -->
  <path d="M326.196960 608.893570L361.803040 608.893570L397.123642 604.421173L431.587830 595.571564L464.702530 582.474472L495.879471 565.354843L524.677475 544.437576L550.646729 520.060043L573.320084 492.620178L592.429367 462.576462L607.568008 430.370102L618.562988 396.468201L625.249939 361.545517L627.464508 326.000000L625.249939 290.454483L618.562988 255.531799L607.568008 221.629898L592.429367 189.423538L573.320084 159.379822L550.646729 131.939957L524.677475 107.562424L495.879471 86.645157L464.702530 69.525528L431.587830 56.428436L397.123642 47.578827L361.803040 43.106430L326.196960 43.106430L290.876358 47.578827L256.412170 56.428436L223.297470 69.525528L192.120529 86.645157L163.322525 107.562424L137.353271 131.939957L114.679916 159.379822L95.570633 189.423538L80.431992 221.629898L69.437012 255.531799L62.750061 290.454483L60.535492 326.000000L62.750061 361.545517L69.437012 396.468201L80.431992 430.370102L95.570633 462.576462L114.679916 492.620178L137.353271 520.060043L163.322525 544.437576L192.120529 565.354843L223.297470 582.474472L256.412170 595.571564L290.876358 604.421173L326.196960 608.893570Z" style="fill: rgb(100.000000%,100.000000%,100.000000%);stroke: none;"></path>
  <path d="M326.196960 608.893570L361.803040 608.893570" style="stroke:rgb(0.000000%,0.000000%,0.000000%); stroke-width: 1.000000;stroke-linecap: round;stroke-linejoin: round;stroke-miterlimit: 10.000000;fill: none;"></path>
  <path d="M361.803040 608.893570L397.123642 604.421173" style="stroke:rgb(0.000000%,0.000000%,0.000000%); stroke-width: 1.000000;stroke-linecap: round;stroke-linejoin: round;stroke-miterlimit: 10.000000;fill: none;"></path>
  <path d="M397.123642 604.421173L431.587830 595.571564" style="stroke:rgb(0.000000%,0.000000%,0.000000%); stroke-width: 1.000000;stroke-linecap: round;stroke-linejoin: round;stroke-miterlimit: 10.000000;fill: none;"></path>
  <path d="M431.587830 595.571564L464.702530 582.474472" style="stroke:rgb(0.000000%,0.000000%,0.000000%); stroke-width: 1.000000;stroke-linecap: round;stroke-linejoin: round;stroke-miterlimit: 10.000000;fill: none;"></path>
  <path d="M464.702530 582.474472L495.879471 565.354843" style="stroke:rgb(0.000000%,0.000000%,0.000000%); stroke-width: 1.000000;stroke-linecap: round;stroke-linejoin: round;stroke-miterlimit: 10.000000;fill: none;"></path>
  <path d="M495.879471 565.354843L524.677475 544.437576" style="stroke:rgb(0.000000%,0.000000%,0.000000%); stroke-width: 1.000000;stroke-linecap: round;stroke-linejoin: round;stroke-miterlimit: 10.000000;fill: none;"></path>
  <path d="M524.677475 544.437576L550.646729 520.060043" style="stroke:rgb(0.000000%,0.000000%,0.000000%); stroke-width: 1.000000;stroke-linecap: round;stroke-linejoin: round;stroke-miterlimit: 10.000000;fill: none;"></path>
  <path d="M550.646729 520.060043L573.320084 492.620178" style="stroke:rgb(0.000000%,0.000000%,0.000000%); stroke-width: 1.000000;stroke-linecap: round;stroke-linejoin: round;stroke-miterlimit: 10.000000;fill: none;"></path>
  <path d="M573.320084 492.620178L592.429367 462.576462" style="stroke:rgb(0.000000%,0.000000%,0.000000%); stroke-width: 1.000000;stroke-linecap: round;stroke-linejoin: round;stroke-miterlimit: 10.000000;fill: none;"></path>
  <path d="M592.429367 462.576462L607.568008 430.370102" style="stroke:rgb(0.000000%,0.000000%,0.000000%); stroke-width: 1.000000;stroke-linecap: round;stroke-linejoin: round;stroke-miterlimit: 10.000000;fill: none;"></path>
  <path d="M607.568008 430.370102L618.562988 396.468201" style="stroke:rgb(0.000000%,0.000000%,0.000000%); stroke-width: 1.000000;stroke-linecap: round;stroke-linejoin: round;stroke-miterlimit: 10.000000;fill: none;"></path>
  <path d="M618.562988 396.468201L625.249939 361.545517" style="stroke:rgb(0.000000%,0.000000%,0.000000%); stroke-width: 1.000000;stroke-linecap: round;stroke-linejoin: round;stroke-miterlimit: 10.000000;fill: none;"></path>
  <path d="M625.249939 361.545517L627.464508 326.000000" style="stroke:rgb(0.000000%,0.000000%,0.000000%); stroke-width: 1.000000;stroke-linecap: round;stroke-linejoin: round;stroke-miterlimit: 10.000000;fill: none;"></path>
  <path d="M627.464508 326.000000L625.249939 290.454483" style="stroke:rgb(0.000000%,0.000000%,0.000000%); stroke-width: 1.000000;stroke-linecap: round;stroke-linejoin: round;stroke-miterlimit: 10.000000;fill: none;"></path>
  <path d="M625.249939 290.454483L618.562988 255.531799" style="stroke:rgb(0.000000%,0.000000%,0.000000%); stroke-width: 1.000000;stroke-linecap: round;stroke-linejoin: round;stroke-miterlimit: 10.000000;fill: none;"></path>
  <path d="M618.562988 255.531799L607.568008 221.629898" style="stroke:rgb(0.000000%,0.000000%,0.000000%); stroke-width: 1.000000;stroke-linecap: round;stroke-linejoin: round;stroke-miterlimit: 10.000000;fill: none;"></path>
  <path d="M607.568008 221.629898L592.429367 189.423538" style="stroke:rgb(0.000000%,0.000000%,0.000000%); stroke-width: 1.000000;stroke-linecap: round;stroke-linejoin: round;stroke-miterlimit: 10.000000;fill: none;"></path>
  <path d="M592.429367 189.423538L573.320084 159.379822" style="stroke:rgb(0.000000%,0.000000%,0.000000%); stroke-width: 1.000000;stroke-linecap: round;stroke-linejoin: round;stroke-miterlimit: 10.000000;fill: none;"></path>
  <path d="M573.320084 159.379822L550.646729 131.939957" style="stroke:rgb(0.000000%,0.000000%,0.000000%); stroke-width: 1.000000;stroke-linecap: round;stroke-linejoin: round;stroke-miterlimit: 10.000000;fill: none;"></path>
  <path d="M550.646729 131.939957L524.677475 107.562424" style="stroke:rgb(0.000000%,0.000000%,0.000000%); stroke-width: 1.000000;stroke-linecap: round;stroke-linejoin: round;stroke-miterlimit: 10.000000;fill: none;"></path>
  <path d="M524.677475 107.562424L495.879471 86.645157" style="stroke:rgb(0.000000%,0.000000%,0.000000%); stroke-width: 1.000000;stroke-linecap: round;stroke-linejoin: round;stroke-miterlimit: 10.000000;fill: none;"></path>
  <path d="M495.879471 86.645157L464.702530 69.525528" style="stroke:rgb(0.000000%,0.000000%,0.000000%); stroke-width: 1.000000;stroke-linecap: round;stroke-linejoin: round;stroke-miterlimit: 10.000000;fill: none;"></path>
  <path d="M464.702530 69.525528L431.587830 56.428436" style="stroke:rgb(0.000000%,0.000000%,0.000000%); stroke-width: 1.000000;stroke-linecap: round;stroke-linejoin: round;stroke-miterlimit: 10.000000;fill: none;"></path>
  <path d="M431.587830 56.428436L397.123642 47.578827" style="stroke:rgb(0.000000%,0.000000%,0.000000%); stroke-width: 1.000000;stroke-linecap: round;stroke-linejoin: round;stroke-miterlimit: 10.000000;fill: none;"></path>
  <path d="M397.123642 47.578827L361.803040 43.106430" style="stroke:rgb(0.000000%,0.000000%,0.000000%); stroke-width: 1.000000;stroke-linecap: round;stroke-linejoin: round;stroke-miterlimit: 10.000000;fill: none;"></path>
  <path d="M361.803040 43.106430L326.196960 43.106430" style="stroke:rgb(0.000000%,0.000000%,0.000000%); stroke-width: 1.000000;stroke-linecap: round;stroke-linejoin: round;stroke-miterlimit: 10.000000;fill: none;"></path>
  <path d="M326.196960 43.106430L290.876358 47.578827" style="stroke:rgb(0.000000%,0.000000%,0.000000%); stroke-width: 1.000000;stroke-linecap: round;stroke-linejoin: round;stroke-miterlimit: 10.000000;fill: none;"></path>
  <path d="M290.876358 47.578827L256.412170 56.428436" style="stroke:rgb(0.000000%,0.000000%,0.000000%); stroke-width: 1.000000;stroke-linecap: round;stroke-linejoin: round;stroke-miterlimit: 10.000000;fill: none;"></path>
  <path d="M256.412170 56.428436L223.297470 69.525528" style="stroke:rgb(0.000000%,0.000000%,0.000000%); stroke-width: 1.000000;stroke-linecap: round;stroke-linejoin: round;stroke-miterlimit: 10.000000;fill: none;"></path>
  <path d="M223.297470 69.525528L192.120529 86.645157" style="stroke:rgb(0.000000%,0.000000%,0.000000%); stroke-width: 1.000000;stroke-linecap: round;stroke-linejoin: round;stroke-miterlimit: 10.000000;fill: none;"></path>
  <path d="M192.120529 86.645157L163.322525 107.562424" style="stroke:rgb(0.000000%,0.000000%,0.000000%); stroke-width: 1.000000;stroke-linecap: round;stroke-linejoin: round;stroke-miterlimit: 10.000000;fill: none;"></path>
  <path d="M163.322525 107.562424L137.353271 131.939957" style="stroke:rgb(0.000000%,0.000000%,0.000000%); stroke-width: 1.000000;stroke-linecap: round;stroke-linejoin: round;stroke-miterlimit: 10.000000;fill: none;"></path>
  <path d="M137.353271 131.939957L114.679916 159.379822" style="stroke:rgb(0.000000%,0.000000%,0.000000%); stroke-width: 1.000000;stroke-linecap: round;stroke-linejoin: round;stroke-miterlimit: 10.000000;fill: none;"></path>
  <path d="M114.679916 159.379822L95.570633 189.423538" style="stroke:rgb(0.000000%,0.000000%,0.000000%); stroke-width: 1.000000;stroke-linecap: round;stroke-linejoin: round;stroke-miterlimit: 10.000000;fill: none;"></path>
  <path d="M95.570633 189.423538L80.431992 221.629898" style="stroke:rgb(0.000000%,0.000000%,0.000000%); stroke-width: 1.000000;stroke-linecap: round;stroke-linejoin: round;stroke-miterlimit: 10.000000;fill: none;"></path>
  <path d="M80.431992 221.629898L69.437012 255.531799" style="stroke:rgb(0.000000%,0.000000%,0.000000%); stroke-width: 1.000000;stroke-linecap: round;stroke-linejoin: round;stroke-miterlimit: 10.000000;fill: none;"></path>
  <path d="M69.437012 255.531799L62.750061 290.454483" style="stroke:rgb(0.000000%,0.000000%,0.000000%); stroke-width: 1.000000;stroke-linecap: round;stroke-linejoin: round;stroke-miterlimit: 10.000000;fill: none;"></path>
  <path d="M62.750061 290.454483L60.535492 326.000000" style="stroke:rgb(0.000000%,0.000000%,0.000000%); stroke-width: 1.000000;stroke-linecap: round;stroke-linejoin: round;stroke-miterlimit: 10.000000;fill: none;"></path>
  <path d="M60.535492 326.000000L62.750061 361.545517" style="stroke:rgb(0.000000%,0.000000%,0.000000%); stroke-width: 1.000000;stroke-linecap: round;stroke-linejoin: round;stroke-miterlimit: 10.000000;fill: none;"></path>
  <path d="M62.750061 361.545517L69.437012 396.468201" style="stroke:rgb(0.000000%,0.000000%,0.000000%); stroke-width: 1.000000;stroke-linecap: round;stroke-linejoin: round;stroke-miterlimit: 10.000000;fill: none;"></path>
  <path d="M69.437012 396.468201L80.431992 430.370102" style="stroke:rgb(0.000000%,0.000000%,0.000000%); stroke-width: 1.000000;stroke-linecap: round;stroke-linejoin: round;stroke-miterlimit: 10.000000;fill: none;"></path>
  <path d="M80.431992 430.370102L95.570633 462.576462" style="stroke:rgb(0.000000%,0.000000%,0.000000%); stroke-width: 1.000000;stroke-linecap: round;stroke-linejoin: round;stroke-miterlimit: 10.000000;fill: none;"></path>
  <path d="M95.570633 462.576462L114.679916 492.620178" style="stroke:rgb(0.000000%,0.000000%,0.000000%); stroke-width: 1.000000;stroke-linecap: round;stroke-linejoin: round;stroke-miterlimit: 10.000000;fill: none;"></path>
  <path d="M114.679916 492.620178L137.353271 520.060043" style="stroke:rgb(0.000000%,0.000000%,0.000000%); stroke-width: 1.000000;stroke-linecap: round;stroke-linejoin: round;stroke-miterlimit: 10.000000;fill: none;"></path>
  <path d="M137.353271 520.060043L163.322525 544.437576" style="stroke:rgb(0.000000%,0.000000%,0.000000%); stroke-width: 1.000000;stroke-linecap: round;stroke-linejoin: round;stroke-miterlimit: 10.000000;fill: none;"></path>
  <path d="M163.322525 544.437576L192.120529 565.354843" style="stroke:rgb(0.000000%,0.000000%,0.000000%); stroke-width: 1.000000;stroke-linecap: round;stroke-linejoin: round;stroke-miterlimit: 10.000000;fill: none;"></path>
  <path d="M192.120529 565.354843L223.297470 582.474472" style="stroke:rgb(0.000000%,0.000000%,0.000000%); stroke-width: 1.000000;stroke-linecap: round;stroke-linejoin: round;stroke-miterlimit: 10.000000;fill: none;"></path>
  <path d="M223.297470 582.474472L256.412170 595.571564" style="stroke:rgb(0.000000%,0.000000%,0.000000%); stroke-width: 1.000000;stroke-linecap: round;stroke-linejoin: round;stroke-miterlimit: 10.000000;fill: none;"></path>
  <path d="M256.412170 595.571564L290.876358 604.421173" style="stroke:rgb(0.000000%,0.000000%,0.000000%); stroke-width: 1.000000;stroke-linecap: round;stroke-linejoin: round;stroke-miterlimit: 10.000000;fill: none;"></path>
  <path d="M290.876358 604.421173L326.196960 608.893570" style="stroke:rgb(0.000000%,0.000000%,0.000000%); stroke-width: 1.000000;stroke-linecap: round;stroke-linejoin: round;stroke-miterlimit: 10.000000;fill: none;"></path>
  <path d="M740.563110 337.600525C740.563110 291.864014,722.391647 248.006226,690.053497 215.668076C657.715347 183.329926,613.857559 165.158463,568.121048 165.158463C522.384537 165.158463,478.526749 183.329926,446.188599 215.668076C413.850449 248.006226,395.678986 291.864014,395.678986 337.600525C395.678986 383.337036,413.850449 427.194824,446.188599 459.532974C478.526749 491.871124,522.384537 510.042587,568.121048 510.042587C613.857559 510.042587,657.715347 491.871124,690.053497 459.532974C722.391647 427.194824,740.563110 383.337036,740.563110 337.600525Z" style="stroke:rgb(25.500488%,41.000366%,88.400269%); stroke-width: 1.000000;stroke-linecap: round;stroke-linejoin: round;stroke-miterlimit: 10.000000;fill: none;"></path>
  <path d="M366.820419 422.748871C366.820419 377.012360,348.648956 333.154572,316.310806 300.816422C283.972656 268.478271,240.114868 250.306808,194.378357 250.306808C148.641846 250.306808,104.784058 268.478271,72.445908 300.816422C40.107758 333.154572,21.936295 377.012360,21.936295 422.748871C21.936295 468.485382,40.107758 512.343170,72.445908 544.681320C104.784058 577.019470,148.641846 595.190933,194.378357 595.190933C240.114868 595.190933,283.972656 577.019470,316.310806 544.681320C348.648956 512.343170,366.820419 468.485382,366.820419 422.748871Z" style="stroke:rgb(25.500488%,41.000366%,88.400269%); stroke-width: 1.000000;stroke-linecap: round;stroke-linejoin: round;stroke-miterlimit: 10.000000;fill: none;"></path>
  <path d="M577.256134 172.251999C577.256134 126.515488,559.084671 82.657700,526.746521 50.319550C494.408371 17.981400,450.550583 -0.190063,404.814072 -0.190063C359.077560 -0.190063,315.219772 17.981400,282.881622 50.319550C250.543472 82.657700,232.372009 126.515488,232.372009 172.251999C232.372009 217.988510,250.543472 261.846298,282.881622 294.184448C315.219772 326.522598,359.077560 344.694061,404.814072 344.694061C450.550583 344.694061,494.408371 326.522598,526.746521 294.184448C559.084671 261.846298,577.256134 217.988510,577.256134 172.251999Z" style="stroke:rgb(25.500488%,41.000366%,88.400269%); stroke-width: 1.000000;stroke-linecap: round;stroke-linejoin: round;stroke-miterlimit: 10.000000;fill: none;"></path>
  <path d="M345.003479 181.205414C345.003479 135.468903,326.832016 91.611115,294.493866 59.272964C262.155716 26.934814,218.297928 8.763351,172.561417 8.763351C126.824905 8.763351,82.967117 26.934814,50.628967 59.272964C18.290817 91.611115,0.119354 135.468903,0.119354 181.205414C0.119354 226.941925,18.290817 270.799713,50.628967 303.137863C82.967117 335.476013,126.824905 353.647476,172.561417 353.647476C218.297928 353.647476,262.155716 335.476013,294.493866 303.137863C326.832016 270.799713,345.003479 226.941925,345.003479 181.205414Z" style="stroke:rgb(25.500488%,41.000366%,88.400269%); stroke-width: 1.000000;stroke-linecap: round;stroke-linejoin: round;stroke-miterlimit: 10.000000;fill: none;"></path>
  <path d="M559.435791 498.926498C559.435791 453.189987,541.264328 409.332199,508.926178 376.994049C476.588028 344.655899,432.730240 326.484436,386.993729 326.484436C341.257217 326.484436,297.399429 344.655899,265.061279 376.994049C232.723129 409.332199,214.551666 453.189987,214.551666 498.926498C214.551666 544.663010,232.723129 588.520798,265.061279 620.858948C297.399429 653.197098,341.257217 671.368561,386.993729 671.368561C432.730240 671.368561,476.588028 653.197098,508.926178 620.858948C541.264328 588.520798,559.435791 544.663010,559.435791 498.926498Z" style="stroke:rgb(25.500488%,41.000366%,88.400269%); stroke-width: 1.000000;stroke-linecap: round;stroke-linejoin: round;stroke-miterlimit: 10.000000;fill: none;"></path>
  <path d="M194.378357 422.748871L341.378860 332.600449" style="stroke:rgb(60.000610%,60.000610%,60.000610%); stroke-width: 1.500000;stroke-linecap: round;stroke-dasharray: 3.000000 3.000000 ;stroke-linejoin: round;stroke-miterlimit: 10.000000;fill: none;"></path>
  <path d="M404.814072 172.251999L341.378860 332.600449" style="stroke:rgb(60.000610%,60.000610%,60.000610%); stroke-width: 1.500000;stroke-linecap: round;stroke-dasharray: 3.000000 3.000000 ;stroke-linejoin: round;stroke-miterlimit: 10.000000;fill: none;"></path>
  <path d="M198.378357 422.748871C198.378357 421.687958,197.956848 420.670624,197.206726 419.920502C196.456604 419.170380,195.439270 418.748871,194.378357 418.748871C193.317444 418.748871,192.300110 419.170380,191.549988 419.920502C190.799866 420.670624,190.378357 421.687958,190.378357 422.748871C190.378357 423.809784,190.799866 424.827118,191.549988 425.577240C192.300110 426.327362,193.317444 426.748871,194.378357 426.748871C195.439270 426.748871,196.456604 426.327362,197.206726 425.577240C197.956848 424.827118,198.378357 423.809784,198.378357 422.748871Z" style="stroke:rgb(39.999390%,39.999390%,39.999390%); stroke-width: 0.500000;stroke-linecap: round;stroke-linejoin: round;stroke-miterlimit: 10.000000;fill: none;"></path>
  <path d="M198.378357 422.748871C198.378357 421.687958,197.956848 420.670624,197.206726 419.920502C196.456604 419.170380,195.439270 418.748871,194.378357 418.748871C193.317444 418.748871,192.300110 419.170380,191.549988 419.920502C190.799866 420.670624,190.378357 421.687958,190.378357 422.748871C190.378357 423.809784,190.799866 424.827118,191.549988 425.577240C192.300110 426.327362,193.317444 426.748871,194.378357 426.748871C195.439270 426.748871,196.456604 426.327362,197.206726 425.577240C197.956848 424.827118,198.378357 423.809784,198.378357 422.748871Z" style="fill: rgb(89.999390%,0.000000%,0.000000%);stroke: none;"></path>
  <path d="M408.814072 172.251999C408.814072 171.191086,408.392563 170.173752,407.642441 169.423630C406.892319 168.673508,405.874985 168.251999,404.814072 168.251999C403.753159 168.251999,402.735825 168.673508,401.985703 169.423630C401.235580 170.173752,400.814072 171.191086,400.814072 172.251999C400.814072 173.312912,401.235580 174.330246,401.985703 175.080368C402.735825 175.830490,403.753159 176.251999,404.814072 176.251999C405.874985 176.251999,406.892319 175.830490,407.642441 175.080368C408.392563 174.330246,408.814072 173.312912,408.814072 172.251999Z" style="stroke:rgb(39.999390%,39.999390%,39.999390%); stroke-width: 0.500000;stroke-linecap: round;stroke-linejoin: round;stroke-miterlimit: 10.000000;fill: none;"></path>
  <path d="M408.814072 172.251999C408.814072 171.191086,408.392563 170.173752,407.642441 169.423630C406.892319 168.673508,405.874985 168.251999,404.814072 168.251999C403.753159 168.251999,402.735825 168.673508,401.985703 169.423630C401.235580 170.173752,400.814072 171.191086,400.814072 172.251999C400.814072 173.312912,401.235580 174.330246,401.985703 175.080368C402.735825 175.830490,403.753159 176.251999,404.814072 176.251999C405.874985 176.251999,406.892319 175.830490,407.642441 175.080368C408.392563 174.330246,408.814072 173.312912,408.814072 172.251999Z" style="fill: rgb(89.999390%,0.000000%,0.000000%);stroke: none;"></path>
  <path d="M345.378860 332.600449C345.378860 331.539536,344.957352 330.522202,344.207230 329.772079C343.457108 329.021957,342.439774 328.600449,341.378860 328.600449C340.317947 328.600449,339.300613 329.021957,338.550491 329.772079C337.800369 330.522202,337.378860 331.539536,337.378860 332.600449C337.378860 333.661362,337.800369 334.678696,338.550491 335.428818C339.300613 336.178940,340.317947 336.600449,341.378860 336.600449C342.439774 336.600449,343.457108 336.178940,344.207230 335.428818C344.957352 334.678696,345.378860 333.661362,345.378860 332.600449Z" style="stroke:rgb(39.999390%,39.999390%,39.999390%); stroke-width: 0.500000;stroke-linecap: round;stroke-linejoin: round;stroke-miterlimit: 10.000000;fill: none;"></path>
  <path d="M345.378860 332.600449C345.378860 331.539536,344.957352 330.522202,344.207230 329.772079C343.457108 329.021957,342.439774 328.600449,341.378860 328.600449C340.317947 328.600449,339.300613 329.021957,338.550491 329.772079C337.800369 330.522202,337.378860 331.539536,337.378860 332.600449C337.378860 333.661362,337.800369 334.678696,338.550491 335.428818C339.300613 336.178940,340.317947 336.600449,341.378860 336.600449C342.439774 336.600449,343.457108 336.178940,344.207230 335.428818C344.957352 334.678696,345.378860 333.661362,345.378860 332.600449Z" style="fill: rgb(9.800720%,9.800720%,44.000244%);stroke: none;"></path>
  <path d="M194.378357 422.748871L341.387497 332.617752" style="stroke:rgb(60.000610%,60.000610%,60.000610%); stroke-width: 1.500000;stroke-linecap: round;stroke-dasharray: 3.000000 3.000000 ;stroke-linejoin: round;stroke-miterlimit: 10.000000;fill: none;"></path>
  <path d="M386.993729 498.926498L341.387497 332.617752" style="stroke:rgb(60.000610%,60.000610%,60.000610%); stroke-width: 1.500000;stroke-linecap: round;stroke-dasharray: 3.000000 3.000000 ;stroke-linejoin: round;stroke-miterlimit: 10.000000;fill: none;"></path>
  <path d="M198.378357 422.748871C198.378357 421.687958,197.956848 420.670624,197.206726 419.920502C196.456604 419.170380,195.439270 418.748871,194.378357 418.748871C193.317444 418.748871,192.300110 419.170380,191.549988 419.920502C190.799866 420.670624,190.378357 421.687958,190.378357 422.748871C190.378357 423.809784,190.799866 424.827118,191.549988 425.577240C192.300110 426.327362,193.317444 426.748871,194.378357 426.748871C195.439270 426.748871,196.456604 426.327362,197.206726 425.577240C197.956848 424.827118,198.378357 423.809784,198.378357 422.748871Z" style="stroke:rgb(39.999390%,39.999390%,39.999390%); stroke-width: 0.500000;stroke-linecap: round;stroke-linejoin: round;stroke-miterlimit: 10.000000;fill: none;"></path>
  <path d="M198.378357 422.748871C198.378357 421.687958,197.956848 420.670624,197.206726 419.920502C196.456604 419.170380,195.439270 418.748871,194.378357 418.748871C193.317444 418.748871,192.300110 419.170380,191.549988 419.920502C190.799866 420.670624,190.378357 421.687958,190.378357 422.748871C190.378357 423.809784,190.799866 424.827118,191.549988 425.577240C192.300110 426.327362,193.317444 426.748871,194.378357 426.748871C195.439270 426.748871,196.456604 426.327362,197.206726 425.577240C197.956848 424.827118,198.378357 423.809784,198.378357 422.748871Z" style="fill: rgb(89.999390%,0.000000%,0.000000%);stroke: none;"></path>
  <path d="M390.993729 498.926498C390.993729 497.865585,390.572220 496.848251,389.822098 496.098129C389.071976 495.348007,388.054642 494.926498,386.993729 494.926498C385.932816 494.926498,384.915482 495.348007,384.165359 496.098129C383.415237 496.848251,382.993729 497.865585,382.993729 498.926498C382.993729 499.987411,383.415237 501.004745,384.165359 501.754868C384.915482 502.504990,385.932816 502.926498,386.993729 502.926498C388.054642 502.926498,389.071976 502.504990,389.822098 501.754868C390.572220 501.004745,390.993729 499.987411,390.993729 498.926498Z" style="stroke:rgb(39.999390%,39.999390%,39.999390%); stroke-width: 0.500000;stroke-linecap: round;stroke-linejoin: round;stroke-miterlimit: 10.000000;fill: none;"></path>
  <path d="M390.993729 498.926498C390.993729 497.865585,390.572220 496.848251,389.822098 496.098129C389.071976 495.348007,388.054642 494.926498,386.993729 494.926498C385.932816 494.926498,384.915482 495.348007,384.165359 496.098129C383.415237 496.848251,382.993729 497.865585,382.993729 498.926498C382.993729 499.987411,383.415237 501.004745,384.165359 501.754868C384.915482 502.504990,385.932816 502.926498,386.993729 502.926498C388.054642 502.926498,389.071976 502.504990,389.822098 501.754868C390.572220 501.004745,390.993729 499.987411,390.993729 498.926498Z" style="fill: rgb(89.999390%,0.000000%,0.000000%);stroke: none;"></path>
  <path d="M345.387497 332.617752C345.387497 331.556839,344.965988 330.539505,344.215866 329.789383C343.465744 329.039261,342.448410 328.617752,341.387497 328.617752C340.326584 328.617752,339.309250 329.039261,338.559128 329.789383C337.809006 330.539505,337.387497 331.556839,337.387497 332.617752C337.387497 333.678665,337.809006 334.695999,338.559128 335.446121C339.309250 336.196243,340.326584 336.617752,341.387497 336.617752C342.448410 336.617752,343.465744 336.196243,344.215866 335.446121C344.965988 334.695999,345.387497 333.678665,345.387497 332.617752Z" style="stroke:rgb(39.999390%,39.999390%,39.999390%); stroke-width: 0.500000;stroke-linecap: round;stroke-linejoin: round;stroke-miterlimit: 10.000000;fill: none;"></path>
  <path d="M345.387497 332.617752C345.387497 331.556839,344.965988 330.539505,344.215866 329.789383C343.465744 329.039261,342.448410 328.617752,341.387497 328.617752C340.326584 328.617752,339.309250 329.039261,338.559128 329.789383C337.809006 330.539505,337.387497 331.556839,337.387497 332.617752C337.387497 333.678665,337.809006 334.695999,338.559128 335.446121C339.309250 336.196243,340.326584 336.617752,341.387497 336.617752C342.448410 336.617752,343.465744 336.196243,344.215866 335.446121C344.965988 334.695999,345.387497 333.678665,345.387497 332.617752Z" style="fill: rgb(9.800720%,9.800720%,44.000244%);stroke: none;"></path>
  <path d="M404.814072 172.251999L341.404800 332.617752" style="stroke:rgb(60.000610%,60.000610%,60.000610%); stroke-width: 1.500000;stroke-linecap: round;stroke-dasharray: 3.000000 3.000000 ;stroke-linejoin: round;stroke-miterlimit: 10.000000;fill: none;"></path>
  <path d="M386.993729 498.926498L341.404800 332.617752" style="stroke:rgb(60.000610%,60.000610%,60.000610%); stroke-width: 1.500000;stroke-linecap: round;stroke-dasharray: 3.000000 3.000000 ;stroke-linejoin: round;stroke-miterlimit: 10.000000;fill: none;"></path>
  <path d="M408.814072 172.251999C408.814072 171.191086,408.392563 170.173752,407.642441 169.423630C406.892319 168.673508,405.874985 168.251999,404.814072 168.251999C403.753159 168.251999,402.735825 168.673508,401.985703 169.423630C401.235580 170.173752,400.814072 171.191086,400.814072 172.251999C400.814072 173.312912,401.235580 174.330246,401.985703 175.080368C402.735825 175.830490,403.753159 176.251999,404.814072 176.251999C405.874985 176.251999,406.892319 175.830490,407.642441 175.080368C408.392563 174.330246,408.814072 173.312912,408.814072 172.251999Z" style="stroke:rgb(39.999390%,39.999390%,39.999390%); stroke-width: 0.500000;stroke-linecap: round;stroke-linejoin: round;stroke-miterlimit: 10.000000;fill: none;"></path>
  <path d="M408.814072 172.251999C408.814072 171.191086,408.392563 170.173752,407.642441 169.423630C406.892319 168.673508,405.874985 168.251999,404.814072 168.251999C403.753159 168.251999,402.735825 168.673508,401.985703 169.423630C401.235580 170.173752,400.814072 171.191086,400.814072 172.251999C400.814072 173.312912,401.235580 174.330246,401.985703 175.080368C402.735825 175.830490,403.753159 176.251999,404.814072 176.251999C405.874985 176.251999,406.892319 175.830490,407.642441 175.080368C408.392563 174.330246,408.814072 173.312912,408.814072 172.251999Z" style="fill: rgb(89.999390%,0.000000%,0.000000%);stroke: none;"></path>
  <path d="M390.993729 498.926498C390.993729 497.865585,390.572220 496.848251,389.822098 496.098129C389.071976 495.348007,388.054642 494.926498,386.993729 494.926498C385.932816 494.926498,384.915482 495.348007,384.165359 496.098129C383.415237 496.848251,382.993729 497.865585,382.993729 498.926498C382.993729 499.987411,383.415237 501.004745,384.165359 501.754868C384.915482 502.504990,385.932816 502.926498,386.993729 502.926498C388.054642 502.926498,389.071976 502.504990,389.822098 501.754868C390.572220 501.004745,390.993729 499.987411,390.993729 498.926498Z" style="stroke:rgb(39.999390%,39.999390%,39.999390%); stroke-width: 0.500000;stroke-linecap: round;stroke-linejoin: round;stroke-miterlimit: 10.000000;fill: none;"></path>
  <path d="M390.993729 498.926498C390.993729 497.865585,390.572220 496.848251,389.822098 496.098129C389.071976 495.348007,388.054642 494.926498,386.993729 494.926498C385.932816 494.926498,384.915482 495.348007,384.165359 496.098129C383.415237 496.848251,382.993729 497.865585,382.993729 498.926498C382.993729 499.987411,383.415237 501.004745,384.165359 501.754868C384.915482 502.504990,385.932816 502.926498,386.993729 502.926498C388.054642 502.926498,389.071976 502.504990,389.822098 501.754868C390.572220 501.004745,390.993729 499.987411,390.993729 498.926498Z" style="fill: rgb(89.999390%,0.000000%,0.000000%);stroke: none;"></path>
  <path d="M345.404800 332.617752C345.404800 331.556839,344.983292 330.539505,344.233170 329.789383C343.483047 329.039261,342.465714 328.617752,341.404800 328.617752C340.343887 328.617752,339.326553 329.039261,338.576431 329.789383C337.826309 330.539505,337.404800 331.556839,337.404800 332.617752C337.404800 333.678665,337.826309 334.695999,338.576431 335.446121C339.326553 336.196243,340.343887 336.617752,341.404800 336.617752C342.465714 336.617752,343.483047 336.196243,344.233170 335.446121C344.983292 334.695999,345.404800 333.678665,345.404800 332.617752Z" style="stroke:rgb(39.999390%,39.999390%,39.999390%); stroke-width: 0.500000;stroke-linecap: round;stroke-linejoin: round;stroke-miterlimit: 10.000000;fill: none;"></path>
  <path d="M345.404800 332.617752C345.404800 331.556839,344.983292 330.539505,344.233170 329.789383C343.483047 329.039261,342.465714 328.617752,341.404800 328.617752C340.343887 328.617752,339.326553 329.039261,338.576431 329.789383C337.826309 330.539505,337.404800 331.556839,337.404800 332.617752C337.404800 333.678665,337.826309 334.695999,338.576431 335.446121C339.326553 336.196243,340.343887 336.617752,341.404800 336.617752C342.465714 336.617752,343.483047 336.196243,344.233170 335.446121C344.983292 334.695999,345.404800 333.678665,345.404800 332.617752Z" style="fill: rgb(9.800720%,9.800720%,44.000244%);stroke: none;"></path>
</svg>
