<?xml version="1.0"?>
<!-- Created by MetaPost 2.00 on 2025.04.10:1708 -->
<svg version="1.1" xmlns="http://www.w3.org/2000/svg" xmlns:xlink="http://www.w3.org/1999/xlink" width="728.701370" height="727.386475" viewBox="0 0 728.701370 727.386475">
<!-- Original BoundingBox: -346.776886 -344.493118 381.924484 382.893356 -->
  <path d="M328.196960 664.893570L363.803040 664.893570L399.123642 660.421173L433.587830 651.571564L466.702530 638.474472L497.879471 621.354843L526.677475 600.437576L552.646729 576.060043L575.320084 548.620178L594.429367 518.576462L609.568008 486.370102L620.562988 452.468201L627.249939 417.545517L629.464508 382.000000L627.249939 346.454483L620.562988 311.531799L609.568008 277.629898L594.429367 245.423538L575.320084 215.379822L552.646729 187.939957L526.677475 163.562424L497.879471 142.645157L466.702530 125.525528L433.587830 112.428436L399.123642 103.578827L363.803040 99.106430L328.196960 99.106430L292.876358 103.578827L258.412170 112.428436L225.297470 125.525528L194.120529 142.645157L165.322525 163.562424L139.353271 187.939957L116.679916 215.379822L97.570633 245.423538L82.431992 277.629898L71.437012 311.531799L64.750061 346.454483L62.535492 382.000000L64.750061 417.545517L71.437012 452.468201L82.431992 486.370102L97.570633 518.576462L116.679916 548.620178L139.353271 576.060043L165.322525 600.437576L194.120529 621.354843L225.297470 638.474472L258.412170 651.571564L292.876358 660.421173L328.196960 664.893570Z" style="fill: rgb(100.000000%,100.000000%,100.000000%);stroke: none;"></path>
  <path d="M328.196960 664.893570L363.803040 664.893570" style="stroke:rgb(0.000000%,0.000000%,0.000000%); stroke-width: 1.000000;stroke-linecap: round;stroke-linejoin: round;stroke-miterlimit: 10.000000;fill: none;"></path>
  <path d="M363.803040 664.893570L399.123642 660.421173" style="stroke:rgb(0.000000%,0.000000%,0.000000%); stroke-width: 1.000000;stroke-linecap: round;stroke-linejoin: round;stroke-miterlimit: 10.000000;fill: none;"></path>
  <path d="M399.123642 660.421173L433.587830 651.571564" style="stroke:rgb(0.000000%,0.000000%,0.000000%); stroke-width: 1.000000;stroke-linecap: round;stroke-linejoin: round;stroke-miterlimit: 10.000000;fill: none;"></path>
  <path d="M433.587830 651.571564L466.702530 638.474472" style="stroke:rgb(0.000000%,0.000000%,0.000000%); stroke-width: 1.000000;stroke-linecap: round;stroke-linejoin: round;stroke-miterlimit: 10.000000;fill: none;"></path>
  <path d="M466.702530 638.474472L497.879471 621.354843" style="stroke:rgb(0.000000%,0.000000%,0.000000%); stroke-width: 1.000000;stroke-linecap: round;stroke-linejoin: round;stroke-miterlimit: 10.000000;fill: none;"></path>
  <path d="M497.879471 621.354843L526.677475 600.437576" style="stroke:rgb(0.000000%,0.000000%,0.000000%); stroke-width: 1.000000;stroke-linecap: round;stroke-linejoin: round;stroke-miterlimit: 10.000000;fill: none;"></path>
  <path d="M526.677475 600.437576L552.646729 576.060043" style="stroke:rgb(0.000000%,0.000000%,0.000000%); stroke-width: 1.000000;stroke-linecap: round;stroke-linejoin: round;stroke-miterlimit: 10.000000;fill: none;"></path>
  <path d="M552.646729 576.060043L575.320084 548.620178" style="stroke:rgb(0.000000%,0.000000%,0.000000%); stroke-width: 1.000000;stroke-linecap: round;stroke-linejoin: round;stroke-miterlimit: 10.000000;fill: none;"></path>
  <path d="M575.320084 548.620178L594.429367 518.576462" style="stroke:rgb(0.000000%,0.000000%,0.000000%); stroke-width: 1.000000;stroke-linecap: round;stroke-linejoin: round;stroke-miterlimit: 10.000000;fill: none;"></path>
  <path d="M594.429367 518.576462L609.568008 486.370102" style="stroke:rgb(0.000000%,0.000000%,0.000000%); stroke-width: 1.000000;stroke-linecap: round;stroke-linejoin: round;stroke-miterlimit: 10.000000;fill: none;"></path>
  <path d="M609.568008 486.370102L620.562988 452.468201" style="stroke:rgb(0.000000%,0.000000%,0.000000%); stroke-width: 1.000000;stroke-linecap: round;stroke-linejoin: round;stroke-miterlimit: 10.000000;fill: none;"></path>
  <path d="M620.562988 452.468201L627.249939 417.545517" style="stroke:rgb(0.000000%,0.000000%,0.000000%); stroke-width: 1.000000;stroke-linecap: round;stroke-linejoin: round;stroke-miterlimit: 10.000000;fill: none;"></path>
  <path d="M627.249939 417.545517L629.464508 382.000000" style="stroke:rgb(0.000000%,0.000000%,0.000000%); stroke-width: 1.000000;stroke-linecap: round;stroke-linejoin: round;stroke-miterlimit: 10.000000;fill: none;"></path>
  <path d="M629.464508 382.000000L627.249939 346.454483" style="stroke:rgb(0.000000%,0.000000%,0.000000%); stroke-width: 1.000000;stroke-linecap: round;stroke-linejoin: round;stroke-miterlimit: 10.000000;fill: none;"></path>
  <path d="M627.249939 346.454483L620.562988 311.531799" style="stroke:rgb(0.000000%,0.000000%,0.000000%); stroke-width: 1.000000;stroke-linecap: round;stroke-linejoin: round;stroke-miterlimit: 10.000000;fill: none;"></path>
  <path d="M620.562988 311.531799L609.568008 277.629898" style="stroke:rgb(0.000000%,0.000000%,0.000000%); stroke-width: 1.000000;stroke-linecap: round;stroke-linejoin: round;stroke-miterlimit: 10.000000;fill: none;"></path>
  <path d="M609.568008 277.629898L594.429367 245.423538" style="stroke:rgb(0.000000%,0.000000%,0.000000%); stroke-width: 1.000000;stroke-linecap: round;stroke-linejoin: round;stroke-miterlimit: 10.000000;fill: none;"></path>
  <path d="M594.429367 245.423538L575.320084 215.379822" style="stroke:rgb(0.000000%,0.000000%,0.000000%); stroke-width: 1.000000;stroke-linecap: round;stroke-linejoin: round;stroke-miterlimit: 10.000000;fill: none;"></path>
  <path d="M575.320084 215.379822L552.646729 187.939957" style="stroke:rgb(0.000000%,0.000000%,0.000000%); stroke-width: 1.000000;stroke-linecap: round;stroke-linejoin: round;stroke-miterlimit: 10.000000;fill: none;"></path>
  <path d="M552.646729 187.939957L526.677475 163.562424" style="stroke:rgb(0.000000%,0.000000%,0.000000%); stroke-width: 1.000000;stroke-linecap: round;stroke-linejoin: round;stroke-miterlimit: 10.000000;fill: none;"></path>
  <path d="M526.677475 163.562424L497.879471 142.645157" style="stroke:rgb(0.000000%,0.000000%,0.000000%); stroke-width: 1.000000;stroke-linecap: round;stroke-linejoin: round;stroke-miterlimit: 10.000000;fill: none;"></path>
  <path d="M497.879471 142.645157L466.702530 125.525528" style="stroke:rgb(0.000000%,0.000000%,0.000000%); stroke-width: 1.000000;stroke-linecap: round;stroke-linejoin: round;stroke-miterlimit: 10.000000;fill: none;"></path>
  <path d="M466.702530 125.525528L433.587830 112.428436" style="stroke:rgb(0.000000%,0.000000%,0.000000%); stroke-width: 1.000000;stroke-linecap: round;stroke-linejoin: round;stroke-miterlimit: 10.000000;fill: none;"></path>
  <path d="M433.587830 112.428436L399.123642 103.578827" style="stroke:rgb(0.000000%,0.000000%,0.000000%); stroke-width: 1.000000;stroke-linecap: round;stroke-linejoin: round;stroke-miterlimit: 10.000000;fill: none;"></path>
  <path d="M399.123642 103.578827L363.803040 99.106430" style="stroke:rgb(0.000000%,0.000000%,0.000000%); stroke-width: 1.000000;stroke-linecap: round;stroke-linejoin: round;stroke-miterlimit: 10.000000;fill: none;"></path>
  <path d="M363.803040 99.106430L328.196960 99.106430" style="stroke:rgb(0.000000%,0.000000%,0.000000%); stroke-width: 1.000000;stroke-linecap: round;stroke-linejoin: round;stroke-miterlimit: 10.000000;fill: none;"></path>
  <path d="M328.196960 99.106430L292.876358 103.578827" style="stroke:rgb(0.000000%,0.000000%,0.000000%); stroke-width: 1.000000;stroke-linecap: round;stroke-linejoin: round;stroke-miterlimit: 10.000000;fill: none;"></path>
  <path d="M292.876358 103.578827L258.412170 112.428436" style="stroke:rgb(0.000000%,0.000000%,0.000000%); stroke-width: 1.000000;stroke-linecap: round;stroke-linejoin: round;stroke-miterlimit: 10.000000;fill: none;"></path>
  <path d="M258.412170 112.428436L225.297470 125.525528" style="stroke:rgb(0.000000%,0.000000%,0.000000%); stroke-width: 1.000000;stroke-linecap: round;stroke-linejoin: round;stroke-miterlimit: 10.000000;fill: none;"></path>
  <path d="M225.297470 125.525528L194.120529 142.645157" style="stroke:rgb(0.000000%,0.000000%,0.000000%); stroke-width: 1.000000;stroke-linecap: round;stroke-linejoin: round;stroke-miterlimit: 10.000000;fill: none;"></path>
  <path d="M194.120529 142.645157L165.322525 163.562424" style="stroke:rgb(0.000000%,0.000000%,0.000000%); stroke-width: 1.000000;stroke-linecap: round;stroke-linejoin: round;stroke-miterlimit: 10.000000;fill: none;"></path>
  <path d="M165.322525 163.562424L139.353271 187.939957" style="stroke:rgb(0.000000%,0.000000%,0.000000%); stroke-width: 1.000000;stroke-linecap: round;stroke-linejoin: round;stroke-miterlimit: 10.000000;fill: none;"></path>
  <path d="M139.353271 187.939957L116.679916 215.379822" style="stroke:rgb(0.000000%,0.000000%,0.000000%); stroke-width: 1.000000;stroke-linecap: round;stroke-linejoin: round;stroke-miterlimit: 10.000000;fill: none;"></path>
  <path d="M116.679916 215.379822L97.570633 245.423538" style="stroke:rgb(0.000000%,0.000000%,0.000000%); stroke-width: 1.000000;stroke-linecap: round;stroke-linejoin: round;stroke-miterlimit: 10.000000;fill: none;"></path>
  <path d="M97.570633 245.423538L82.431992 277.629898" style="stroke:rgb(0.000000%,0.000000%,0.000000%); stroke-width: 1.000000;stroke-linecap: round;stroke-linejoin: round;stroke-miterlimit: 10.000000;fill: none;"></path>
  <path d="M82.431992 277.629898L71.437012 311.531799" style="stroke:rgb(0.000000%,0.000000%,0.000000%); stroke-width: 1.000000;stroke-linecap: round;stroke-linejoin: round;stroke-miterlimit: 10.000000;fill: none;"></path>
  <path d="M71.437012 311.531799L64.750061 346.454483" style="stroke:rgb(0.000000%,0.000000%,0.000000%); stroke-width: 1.000000;stroke-linecap: round;stroke-linejoin: round;stroke-miterlimit: 10.000000;fill: none;"></path>
  <path d="M64.750061 346.454483L62.535492 382.000000" style="stroke:rgb(0.000000%,0.000000%,0.000000%); stroke-width: 1.000000;stroke-linecap: round;stroke-linejoin: round;stroke-miterlimit: 10.000000;fill: none;"></path>
  <path d="M62.535492 382.000000L64.750061 417.545517" style="stroke:rgb(0.000000%,0.000000%,0.000000%); stroke-width: 1.000000;stroke-linecap: round;stroke-linejoin: round;stroke-miterlimit: 10.000000;fill: none;"></path>
  <path d="M64.750061 417.545517L71.437012 452.468201" style="stroke:rgb(0.000000%,0.000000%,0.000000%); stroke-width: 1.000000;stroke-linecap: round;stroke-linejoin: round;stroke-miterlimit: 10.000000;fill: none;"></path>
  <path d="M71.437012 452.468201L82.431992 486.370102" style="stroke:rgb(0.000000%,0.000000%,0.000000%); stroke-width: 1.000000;stroke-linecap: round;stroke-linejoin: round;stroke-miterlimit: 10.000000;fill: none;"></path>
  <path d="M82.431992 486.370102L97.570633 518.576462" style="stroke:rgb(0.000000%,0.000000%,0.000000%); stroke-width: 1.000000;stroke-linecap: round;stroke-linejoin: round;stroke-miterlimit: 10.000000;fill: none;"></path>
  <path d="M97.570633 518.576462L116.679916 548.620178" style="stroke:rgb(0.000000%,0.000000%,0.000000%); stroke-width: 1.000000;stroke-linecap: round;stroke-linejoin: round;stroke-miterlimit: 10.000000;fill: none;"></path>
  <path d="M116.679916 548.620178L139.353271 576.060043" style="stroke:rgb(0.000000%,0.000000%,0.000000%); stroke-width: 1.000000;stroke-linecap: round;stroke-linejoin: round;stroke-miterlimit: 10.000000;fill: none;"></path>
  <path d="M139.353271 576.060043L165.322525 600.437576" style="stroke:rgb(0.000000%,0.000000%,0.000000%); stroke-width: 1.000000;stroke-linecap: round;stroke-linejoin: round;stroke-miterlimit: 10.000000;fill: none;"></path>
  <path d="M165.322525 600.437576L194.120529 621.354843" style="stroke:rgb(0.000000%,0.000000%,0.000000%); stroke-width: 1.000000;stroke-linecap: round;stroke-linejoin: round;stroke-miterlimit: 10.000000;fill: none;"></path>
  <path d="M194.120529 621.354843L225.297470 638.474472" style="stroke:rgb(0.000000%,0.000000%,0.000000%); stroke-width: 1.000000;stroke-linecap: round;stroke-linejoin: round;stroke-miterlimit: 10.000000;fill: none;"></path>
  <path d="M225.297470 638.474472L258.412170 651.571564" style="stroke:rgb(0.000000%,0.000000%,0.000000%); stroke-width: 1.000000;stroke-linecap: round;stroke-linejoin: round;stroke-miterlimit: 10.000000;fill: none;"></path>
  <path d="M258.412170 651.571564L292.876358 660.421173" style="stroke:rgb(0.000000%,0.000000%,0.000000%); stroke-width: 1.000000;stroke-linecap: round;stroke-linejoin: round;stroke-miterlimit: 10.000000;fill: none;"></path>
  <path d="M292.876358 660.421173L328.196960 664.893570" style="stroke:rgb(0.000000%,0.000000%,0.000000%); stroke-width: 1.000000;stroke-linecap: round;stroke-linejoin: round;stroke-miterlimit: 10.000000;fill: none;"></path>
  <path d="M727.424484 419.872543C727.424484 354.858505,701.593918 292.515045,655.625534 246.546661C609.657150 200.578278,547.313690 174.747711,482.299652 174.747711C417.285614 174.747711,354.942154 200.578278,308.973770 246.546661C263.005386 292.515045,237.174820 354.858505,237.174820 419.872543C237.174820 484.886581,263.005386 547.230042,308.973770 593.198425C354.942154 639.166809,417.285614 664.997375,482.299652 664.997375C547.313690 664.997375,609.657150 639.166809,655.625534 593.198425C701.593918 547.230042,727.424484 484.886581,727.424484 419.872543Z" style="stroke:rgb(25.500488%,41.000366%,88.400269%); stroke-width: 1.000000;stroke-linecap: round;stroke-linejoin: round;stroke-miterlimit: 10.000000;fill: none;"></path>
  <path d="M555.873428 244.731476C555.873428 179.717438,530.042862 117.373978,484.074478 71.405594C438.106094 25.437210,375.762634 -0.393356,310.748596 -0.393356C245.734558 -0.393356,183.391098 25.437210,137.422714 71.405594C91.454330 117.373978,65.623764 179.717438,65.623764 244.731476C65.623764 309.745514,91.454330 372.088974,137.422714 418.057358C183.391098 464.025742,245.734558 489.856308,310.748596 489.856308C375.762634 489.856308,438.106094 464.025742,484.074478 418.057358C530.042862 372.088974,555.873428 309.745514,555.873428 244.731476Z" style="stroke:rgb(25.500488%,41.000366%,88.400269%); stroke-width: 1.000000;stroke-linecap: round;stroke-linejoin: round;stroke-miterlimit: 10.000000;fill: none;"></path>
  <path d="M489.972778 480.868286C489.972778 415.854248,464.142212 353.510788,418.173828 307.542404C372.205444 261.574020,309.861984 235.743454,244.847946 235.743454C179.833908 235.743454,117.490448 261.574020,71.522064 307.542404C25.553680 353.510788,-0.276886 415.854248,-0.276886 480.868286C-0.276886 545.882324,25.553680 608.225784,71.522064 654.194168C117.490448 700.162552,179.833908 725.993118,244.847946 725.993118C309.861984 725.993118,372.205444 700.162552,418.173828 654.194168C464.142212 608.225784,489.972778 545.882324,489.972778 480.868286Z" style="stroke:rgb(25.500488%,41.000366%,88.400269%); stroke-width: 1.000000;stroke-linecap: round;stroke-linejoin: round;stroke-miterlimit: 10.000000;fill: none;"></path>
</svg>
