<?xml version="1.0"?>
<!-- Created by MetaPost 2.00 on 2025.04.10:1556 -->
<svg version="1.1" xmlns="http://www.w3.org/2000/svg" xmlns:xlink="http://www.w3.org/1999/xlink" width="802.707672" height="802.707672" viewBox="0 0 802.707672 802.707672">
<!-- Original BoundingBox: -401.353836 -401.353836 401.353836 401.353836 -->
  <path d="M117.535492 684.464508L684.464508 684.464508L684.464508 117.535492L117.535492 117.535492L117.535492 684.464508Z" style="fill: rgb(100.000000%,100.000000%,100.000000%);stroke: none;"></path>
  <path d="M117.535492 684.464508L684.464508 684.464508" style="stroke:rgb(0.000000%,0.000000%,0.000000%); stroke-width: 1.000000;stroke-linecap: round;stroke-linejoin: round;stroke-miterlimit: 10.000000;fill: none;"></path>
  <path d="M684.464508 684.464508L684.464508 117.535492" style="stroke:rgb(0.000000%,0.000000%,0.000000%); stroke-width: 1.000000;stroke-linecap: round;stroke-linejoin: round;stroke-miterlimit: 10.000000;fill: none;"></path>
  <path d="M684.464508 117.535492L117.535492 117.535492" style="stroke:rgb(0.000000%,0.000000%,0.000000%); stroke-width: 1.000000;stroke-linecap: round;stroke-linejoin: round;stroke-miterlimit: 10.000000;fill: none;"></path>
  <path d="M117.535492 117.535492L117.535492 684.464508" style="stroke:rgb(0.000000%,0.000000%,0.000000%); stroke-width: 1.000000;stroke-linecap: round;stroke-linejoin: round;stroke-miterlimit: 10.000000;fill: none;"></path>
  <path d="M801.853836 401.000000C801.853836 294.682236,759.612976 192.731674,684.440659 117.559341C609.268326 42.387024,507.317764 0.146164,401.000000 0.146164C294.682236 0.146164,192.731674 42.387024,117.559341 117.559341C42.387024 192.731674,0.146164 294.682236,0.146164 401.000000C0.146164 507.317764,42.387024 609.268326,117.559341 684.440659C192.731674 759.612976,294.682236 801.853836,401.000000 801.853836C507.317764 801.853836,609.268326 759.612976,684.440659 684.440659C759.612976 609.268326,801.853836 507.317764,801.853836 401.000000Z" style="stroke:rgb(25.500488%,41.000366%,88.400269%); stroke-width: 1.000000;stroke-linecap: round;stroke-linejoin: round;stroke-miterlimit: 10.000000;fill: none;"></path>
  <path d="M401.000000 401.000000L117.535492 684.464508" style="stroke:rgb(60.000610%,60.000610%,60.000610%); stroke-width: 1.500000;stroke-linecap: round;stroke-dasharray: 3.000000 3.000000 ;stroke-linejoin: round;stroke-miterlimit: 10.000000;fill: none;"></path>
  <path d="M405.000000 401.000000C405.000000 399.939087,404.578491 398.921753,403.828369 398.171631C403.078247 397.421509,402.060913 397.000000,401.000000 397.000000C399.939087 397.000000,398.921753 397.421509,398.171631 398.171631C397.421509 398.921753,397.000000 399.939087,397.000000 401.000000C397.000000 402.060913,397.421509 403.078247,398.171631 403.828369C398.921753 404.578491,399.939087 405.000000,401.000000 405.000000C402.060913 405.000000,403.078247 404.578491,403.828369 403.828369C404.578491 403.078247,405.000000 402.060913,405.000000 401.000000Z" style="stroke:rgb(39.999390%,39.999390%,39.999390%); stroke-width: 0.500000;stroke-linecap: round;stroke-linejoin: round;stroke-miterlimit: 10.000000;fill: none;"></path>
  <path d="M405.000000 401.000000C405.000000 399.939087,404.578491 398.921753,403.828369 398.171631C403.078247 397.421509,402.060913 397.000000,401.000000 397.000000C399.939087 397.000000,398.921753 397.421509,398.171631 398.171631C397.421509 398.921753,397.000000 399.939087,397.000000 401.000000C397.000000 402.060913,397.421509 403.078247,398.171631 403.828369C398.921753 404.578491,399.939087 405.000000,401.000000 405.000000C402.060913 405.000000,403.078247 404.578491,403.828369 403.828369C404.578491 403.078247,405.000000 402.060913,405.000000 401.000000Z" style="fill: rgb(89.999390%,0.000000%,0.000000%);stroke: none;"></path>
  <path d="M121.535492 684.464508C121.535492 683.403595,121.113983 682.386261,120.363861 681.636139C119.613739 680.886017,118.596405 680.464508,117.535492 680.464508C116.474579 680.464508,115.457245 680.886017,114.707123 681.636139C113.957001 682.386261,113.535492 683.403595,113.535492 684.464508C113.535492 685.525421,113.957001 686.542755,114.707123 687.292877C115.457245 688.042999,116.474579 688.464508,117.535492 688.464508C118.596405 688.464508,119.613739 688.042999,120.363861 687.292877C121.113983 686.542755,121.535492 685.525421,121.535492 684.464508Z" style="stroke:rgb(39.999390%,39.999390%,39.999390%); stroke-width: 0.500000;stroke-linecap: round;stroke-linejoin: round;stroke-miterlimit: 10.000000;fill: none;"></path>
  <path d="M121.535492 684.464508C121.535492 683.403595,121.113983 682.386261,120.363861 681.636139C119.613739 680.886017,118.596405 680.464508,117.535492 680.464508C116.474579 680.464508,115.457245 680.886017,114.707123 681.636139C113.957001 682.386261,113.535492 683.403595,113.535492 684.464508C113.535492 685.525421,113.957001 686.542755,114.707123 687.292877C115.457245 688.042999,116.474579 688.464508,117.535492 688.464508C118.596405 688.464508,119.613739 688.042999,120.363861 687.292877C121.113983 686.542755,121.535492 685.525421,121.535492 684.464508Z" style="fill: rgb(100.000000%,100.000000%,0.000000%);stroke: none;"></path>
  <path d="M401.000000 401.000000L684.464508 684.464508" style="stroke:rgb(60.000610%,60.000610%,60.000610%); stroke-width: 1.500000;stroke-linecap: round;stroke-dasharray: 3.000000 3.000000 ;stroke-linejoin: round;stroke-miterlimit: 10.000000;fill: none;"></path>
  <path d="M405.000000 401.000000C405.000000 399.939087,404.578491 398.921753,403.828369 398.171631C403.078247 397.421509,402.060913 397.000000,401.000000 397.000000C399.939087 397.000000,398.921753 397.421509,398.171631 398.171631C397.421509 398.921753,397.000000 399.939087,397.000000 401.000000C397.000000 402.060913,397.421509 403.078247,398.171631 403.828369C398.921753 404.578491,399.939087 405.000000,401.000000 405.000000C402.060913 405.000000,403.078247 404.578491,403.828369 403.828369C404.578491 403.078247,405.000000 402.060913,405.000000 401.000000Z" style="stroke:rgb(39.999390%,39.999390%,39.999390%); stroke-width: 0.500000;stroke-linecap: round;stroke-linejoin: round;stroke-miterlimit: 10.000000;fill: none;"></path>
  <path d="M405.000000 401.000000C405.000000 399.939087,404.578491 398.921753,403.828369 398.171631C403.078247 397.421509,402.060913 397.000000,401.000000 397.000000C399.939087 397.000000,398.921753 397.421509,398.171631 398.171631C397.421509 398.921753,397.000000 399.939087,397.000000 401.000000C397.000000 402.060913,397.421509 403.078247,398.171631 403.828369C398.921753 404.578491,399.939087 405.000000,401.000000 405.000000C402.060913 405.000000,403.078247 404.578491,403.828369 403.828369C404.578491 403.078247,405.000000 402.060913,405.000000 401.000000Z" style="fill: rgb(89.999390%,0.000000%,0.000000%);stroke: none;"></path>
  <path d="M688.464508 684.464508C688.464508 683.403595,688.042999 682.386261,687.292877 681.636139C686.542755 680.886017,685.525421 680.464508,684.464508 680.464508C683.403595 680.464508,682.386261 680.886017,681.636139 681.636139C680.886017 682.386261,680.464508 683.403595,680.464508 684.464508C680.464508 685.525421,680.886017 686.542755,681.636139 687.292877C682.386261 688.042999,683.403595 688.464508,684.464508 688.464508C685.525421 688.464508,686.542755 688.042999,687.292877 687.292877C688.042999 686.542755,688.464508 685.525421,688.464508 684.464508Z" style="stroke:rgb(39.999390%,39.999390%,39.999390%); stroke-width: 0.500000;stroke-linecap: round;stroke-linejoin: round;stroke-miterlimit: 10.000000;fill: none;"></path>
  <path d="M688.464508 684.464508C688.464508 683.403595,688.042999 682.386261,687.292877 681.636139C686.542755 680.886017,685.525421 680.464508,684.464508 680.464508C683.403595 680.464508,682.386261 680.886017,681.636139 681.636139C680.886017 682.386261,680.464508 683.403595,680.464508 684.464508C680.464508 685.525421,680.886017 686.542755,681.636139 687.292877C682.386261 688.042999,683.403595 688.464508,684.464508 688.464508C685.525421 688.464508,686.542755 688.042999,687.292877 687.292877C688.042999 686.542755,688.464508 685.525421,688.464508 684.464508Z" style="fill: rgb(100.000000%,100.000000%,0.000000%);stroke: none;"></path>
  <path d="M401.000000 401.000000L684.464508 117.535492" style="stroke:rgb(60.000610%,60.000610%,60.000610%); stroke-width: 1.500000;stroke-linecap: round;stroke-dasharray: 3.000000 3.000000 ;stroke-linejoin: round;stroke-miterlimit: 10.000000;fill: none;"></path>
  <path d="M405.000000 401.000000C405.000000 399.939087,404.578491 398.921753,403.828369 398.171631C403.078247 397.421509,402.060913 397.000000,401.000000 397.000000C399.939087 397.000000,398.921753 397.421509,398.171631 398.171631C397.421509 398.921753,397.000000 399.939087,397.000000 401.000000C397.000000 402.060913,397.421509 403.078247,398.171631 403.828369C398.921753 404.578491,399.939087 405.000000,401.000000 405.000000C402.060913 405.000000,403.078247 404.578491,403.828369 403.828369C404.578491 403.078247,405.000000 402.060913,405.000000 401.000000Z" style="stroke:rgb(39.999390%,39.999390%,39.999390%); stroke-width: 0.500000;stroke-linecap: round;stroke-linejoin: round;stroke-miterlimit: 10.000000;fill: none;"></path>
  <path d="M405.000000 401.000000C405.000000 399.939087,404.578491 398.921753,403.828369 398.171631C403.078247 397.421509,402.060913 397.000000,401.000000 397.000000C399.939087 397.000000,398.921753 397.421509,398.171631 398.171631C397.421509 398.921753,397.000000 399.939087,397.000000 401.000000C397.000000 402.060913,397.421509 403.078247,398.171631 403.828369C398.921753 404.578491,399.939087 405.000000,401.000000 405.000000C402.060913 405.000000,403.078247 404.578491,403.828369 403.828369C404.578491 403.078247,405.000000 402.060913,405.000000 401.000000Z" style="fill: rgb(89.999390%,0.000000%,0.000000%);stroke: none;"></path>
  <path d="M688.464508 117.535492C688.464508 116.474579,688.042999 115.457245,687.292877 114.707123C686.542755 113.957001,685.525421 113.535492,684.464508 113.535492C683.403595 113.535492,682.386261 113.957001,681.636139 114.707123C680.886017 115.457245,680.464508 116.474579,680.464508 117.535492C680.464508 118.596405,680.886017 119.613739,681.636139 120.363861C682.386261 121.113983,683.403595 121.535492,684.464508 121.535492C685.525421 121.535492,686.542755 121.113983,687.292877 120.363861C688.042999 119.613739,688.464508 118.596405,688.464508 117.535492Z" style="stroke:rgb(39.999390%,39.999390%,39.999390%); stroke-width: 0.500000;stroke-linecap: round;stroke-linejoin: round;stroke-miterlimit: 10.000000;fill: none;"></path>
  <path d="M688.464508 117.535492C688.464508 116.474579,688.042999 115.457245,687.292877 114.707123C686.542755 113.957001,685.525421 113.535492,684.464508 113.535492C683.403595 113.535492,682.386261 113.957001,681.636139 114.707123C680.886017 115.457245,680.464508 116.474579,680.464508 117.535492C680.464508 118.596405,680.886017 119.613739,681.636139 120.363861C682.386261 121.113983,683.403595 121.535492,684.464508 121.535492C685.525421 121.535492,686.542755 121.113983,687.292877 120.363861C688.042999 119.613739,688.464508 118.596405,688.464508 117.535492Z" style="fill: rgb(100.000000%,100.000000%,0.000000%);stroke: none;"></path>
  <path d="M401.000000 401.000000L117.535492 117.535492" style="stroke:rgb(60.000610%,60.000610%,60.000610%); stroke-width: 1.500000;stroke-linecap: round;stroke-dasharray: 3.000000 3.000000 ;stroke-linejoin: round;stroke-miterlimit: 10.000000;fill: none;"></path>
  <path d="M405.000000 401.000000C405.000000 399.939087,404.578491 398.921753,403.828369 398.171631C403.078247 397.421509,402.060913 397.000000,401.000000 397.000000C399.939087 397.000000,398.921753 397.421509,398.171631 398.171631C397.421509 398.921753,397.000000 399.939087,397.000000 401.000000C397.000000 402.060913,397.421509 403.078247,398.171631 403.828369C398.921753 404.578491,399.939087 405.000000,401.000000 405.000000C402.060913 405.000000,403.078247 404.578491,403.828369 403.828369C404.578491 403.078247,405.000000 402.060913,405.000000 401.000000Z" style="stroke:rgb(39.999390%,39.999390%,39.999390%); stroke-width: 0.500000;stroke-linecap: round;stroke-linejoin: round;stroke-miterlimit: 10.000000;fill: none;"></path>
  <path d="M405.000000 401.000000C405.000000 399.939087,404.578491 398.921753,403.828369 398.171631C403.078247 397.421509,402.060913 397.000000,401.000000 397.000000C399.939087 397.000000,398.921753 397.421509,398.171631 398.171631C397.421509 398.921753,397.000000 399.939087,397.000000 401.000000C397.000000 402.060913,397.421509 403.078247,398.171631 403.828369C398.921753 404.578491,399.939087 405.000000,401.000000 405.000000C402.060913 405.000000,403.078247 404.578491,403.828369 403.828369C404.578491 403.078247,405.000000 402.060913,405.000000 401.000000Z" style="fill: rgb(89.999390%,0.000000%,0.000000%);stroke: none;"></path>
  <path d="M121.535492 117.535492C121.535492 116.474579,121.113983 115.457245,120.363861 114.707123C119.613739 113.957001,118.596405 113.535492,117.535492 113.535492C116.474579 113.535492,115.457245 113.957001,114.707123 114.707123C113.957001 115.457245,113.535492 116.474579,113.535492 117.535492C113.535492 118.596405,113.957001 119.613739,114.707123 120.363861C115.457245 121.113983,116.474579 121.535492,117.535492 121.535492C118.596405 121.535492,119.613739 121.113983,120.363861 120.363861C121.113983 119.613739,121.535492 118.596405,121.535492 117.535492Z" style="stroke:rgb(39.999390%,39.999390%,39.999390%); stroke-width: 0.500000;stroke-linecap: round;stroke-linejoin: round;stroke-miterlimit: 10.000000;fill: none;"></path>
  <path d="M121.535492 117.535492C121.535492 116.474579,121.113983 115.457245,120.363861 114.707123C119.613739 113.957001,118.596405 113.535492,117.535492 113.535492C116.474579 113.535492,115.457245 113.957001,114.707123 114.707123C113.957001 115.457245,113.535492 116.474579,113.535492 117.535492C113.535492 118.596405,113.957001 119.613739,114.707123 120.363861C115.457245 121.113983,116.474579 121.535492,117.535492 121.535492C118.596405 121.535492,119.613739 121.113983,120.363861 120.363861C121.113983 119.613739,121.535492 118.596405,121.535492 117.535492Z" style="fill: rgb(100.000000%,100.000000%,0.000000%);stroke: none;"></path>
</svg>
