<?xml version="1.0"?>
<!-- Created by MetaPost 2.00 on 2025.04.10:1556 -->
<svg version="1.1" xmlns="http://www.w3.org/2000/svg" xmlns:xlink="http://www.w3.org/1999/xlink" width="685.318329" height="685.318329" viewBox="0 0 685.318329 685.318329">
<!-- Original BoundingBox: -342.659164 -342.659164 342.659164 342.659164 -->
  <path d="M58.535492 625.464508L625.464508 625.464508L625.464508 58.535492L58.535492 58.535492L58.535492 625.464508Z" style="fill: rgb(100.000000%,100.000000%,100.000000%);stroke: none;"></path>
  <path d="M58.535492 625.464508L625.464508 625.464508" style="stroke:rgb(0.000000%,0.000000%,0.000000%); stroke-width: 1.000000;stroke-linecap: round;stroke-linejoin: round;stroke-miterlimit: 10.000000;fill: none;"></path>
  <path d="M625.464508 625.464508L625.464508 58.535492" style="stroke:rgb(0.000000%,0.000000%,0.000000%); stroke-width: 1.000000;stroke-linecap: round;stroke-linejoin: round;stroke-miterlimit: 10.000000;fill: none;"></path>
  <path d="M625.464508 58.535492L58.535492 58.535492" style="stroke:rgb(0.000000%,0.000000%,0.000000%); stroke-width: 1.000000;stroke-linecap: round;stroke-linejoin: round;stroke-miterlimit: 10.000000;fill: none;"></path>
  <path d="M58.535492 58.535492L58.535492 625.464508" style="stroke:rgb(0.000000%,0.000000%,0.000000%); stroke-width: 1.000000;stroke-linecap: round;stroke-linejoin: round;stroke-miterlimit: 10.000000;fill: none;"></path>
  <path d="M400.694656 483.732254C400.694656 430.573364,379.574234 379.598099,341.988068 342.011932C304.401901 304.425766,253.426636 283.305344,200.267746 283.305344C147.108856 283.305344,96.133591 304.425766,58.547424 342.011932C20.961258 379.598099,-0.159164 430.573364,-0.159164 483.732254C-0.159164 536.891144,20.961258 587.866409,58.547424 625.452576C96.133591 663.038742,147.108856 684.159164,200.267746 684.159164C253.426636 684.159164,304.401901 663.038742,341.988068 625.452576C379.574234 587.866409,400.694656 536.891144,400.694656 483.732254Z" style="stroke:rgb(25.500488%,41.000366%,88.400269%); stroke-width: 1.000000;stroke-linecap: round;stroke-linejoin: round;stroke-miterlimit: 10.000000;fill: none;"></path>
  <path d="M684.159164 483.732254C684.159164 430.573364,663.038742 379.598099,625.452576 342.011932C587.866409 304.425766,536.891144 283.305344,483.732254 283.305344C430.573364 283.305344,379.598099 304.425766,342.011932 342.011932C304.425766 379.598099,283.305344 430.573364,283.305344 483.732254C283.305344 536.891144,304.425766 587.866409,342.011932 625.452576C379.598099 663.038742,430.573364 684.159164,483.732254 684.159164C536.891144 684.159164,587.866409 663.038742,625.452576 625.452576C663.038742 587.866409,684.159164 536.891144,684.159164 483.732254Z" style="stroke:rgb(25.500488%,41.000366%,88.400269%); stroke-width: 1.000000;stroke-linecap: round;stroke-linejoin: round;stroke-miterlimit: 10.000000;fill: none;"></path>
  <path d="M684.159164 200.267746C684.159164 147.108856,663.038742 96.133591,625.452576 58.547424C587.866409 20.961258,536.891144 -0.159164,483.732254 -0.159164C430.573364 -0.159164,379.598099 20.961258,342.011932 58.547424C304.425766 96.133591,283.305344 147.108856,283.305344 200.267746C283.305344 253.426636,304.425766 304.401901,342.011932 341.988068C379.598099 379.574234,430.573364 400.694656,483.732254 400.694656C536.891144 400.694656,587.866409 379.574234,625.452576 341.988068C663.038742 304.401901,684.159164 253.426636,684.159164 200.267746Z" style="stroke:rgb(25.500488%,41.000366%,88.400269%); stroke-width: 1.000000;stroke-linecap: round;stroke-linejoin: round;stroke-miterlimit: 10.000000;fill: none;"></path>
  <path d="M400.694656 200.267746C400.694656 147.108856,379.574234 96.133591,341.988068 58.547424C304.401901 20.961258,253.426636 -0.159164,200.267746 -0.159164C147.108856 -0.159164,96.133591 20.961258,58.547424 58.547424C20.961258 96.133591,-0.159164 147.108856,-0.159164 200.267746C-0.159164 253.426636,20.961258 304.401901,58.547424 341.988068C96.133591 379.574234,147.108856 400.694656,200.267746 400.694656C253.426636 400.694656,304.401901 379.574234,341.988068 341.988068C379.574234 304.401901,400.694656 253.426636,400.694656 200.267746Z" style="stroke:rgb(25.500488%,41.000366%,88.400269%); stroke-width: 1.000000;stroke-linecap: round;stroke-linejoin: round;stroke-miterlimit: 10.000000;fill: none;"></path>
  <path d="M200.267746 483.732254L58.535492 625.464508" style="stroke:rgb(60.000610%,60.000610%,60.000610%); stroke-width: 1.500000;stroke-linecap: round;stroke-dasharray: 3.000000 3.000000 ;stroke-linejoin: round;stroke-miterlimit: 10.000000;fill: none;"></path>
  <path d="M204.267746 483.732254C204.267746 482.671341,203.846237 481.654007,203.096115 480.903885C202.345993 480.153763,201.328659 479.732254,200.267746 479.732254C199.206833 479.732254,198.189499 480.153763,197.439377 480.903885C196.689255 481.654007,196.267746 482.671341,196.267746 483.732254C196.267746 484.793167,196.689255 485.810501,197.439377 486.560623C198.189499 487.310745,199.206833 487.732254,200.267746 487.732254C201.328659 487.732254,202.345993 487.310745,203.096115 486.560623C203.846237 485.810501,204.267746 484.793167,204.267746 483.732254Z" style="stroke:rgb(39.999390%,39.999390%,39.999390%); stroke-width: 0.500000;stroke-linecap: round;stroke-linejoin: round;stroke-miterlimit: 10.000000;fill: none;"></path>
  <path d="M204.267746 483.732254C204.267746 482.671341,203.846237 481.654007,203.096115 480.903885C202.345993 480.153763,201.328659 479.732254,200.267746 479.732254C199.206833 479.732254,198.189499 480.153763,197.439377 480.903885C196.689255 481.654007,196.267746 482.671341,196.267746 483.732254C196.267746 484.793167,196.689255 485.810501,197.439377 486.560623C198.189499 487.310745,199.206833 487.732254,200.267746 487.732254C201.328659 487.732254,202.345993 487.310745,203.096115 486.560623C203.846237 485.810501,204.267746 484.793167,204.267746 483.732254Z" style="fill: rgb(89.999390%,0.000000%,0.000000%);stroke: none;"></path>
  <path d="M62.535492 625.464508C62.535492 624.403595,62.113983 623.386261,61.363861 622.636139C60.613739 621.886017,59.596405 621.464508,58.535492 621.464508C57.474579 621.464508,56.457245 621.886017,55.707123 622.636139C54.957001 623.386261,54.535492 624.403595,54.535492 625.464508C54.535492 626.525421,54.957001 627.542755,55.707123 628.292877C56.457245 629.042999,57.474579 629.464508,58.535492 629.464508C59.596405 629.464508,60.613739 629.042999,61.363861 628.292877C62.113983 627.542755,62.535492 626.525421,62.535492 625.464508Z" style="stroke:rgb(39.999390%,39.999390%,39.999390%); stroke-width: 0.500000;stroke-linecap: round;stroke-linejoin: round;stroke-miterlimit: 10.000000;fill: none;"></path>
  <path d="M62.535492 625.464508C62.535492 624.403595,62.113983 623.386261,61.363861 622.636139C60.613739 621.886017,59.596405 621.464508,58.535492 621.464508C57.474579 621.464508,56.457245 621.886017,55.707123 622.636139C54.957001 623.386261,54.535492 624.403595,54.535492 625.464508C54.535492 626.525421,54.957001 627.542755,55.707123 628.292877C56.457245 629.042999,57.474579 629.464508,58.535492 629.464508C59.596405 629.464508,60.613739 629.042999,61.363861 628.292877C62.113983 627.542755,62.535492 626.525421,62.535492 625.464508Z" style="fill: rgb(100.000000%,100.000000%,0.000000%);stroke: none;"></path>
  <path d="M200.267746 483.732254L342.000000 342.017303" style="stroke:rgb(60.000610%,60.000610%,60.000610%); stroke-width: 1.500000;stroke-linecap: round;stroke-dasharray: 3.000000 3.000000 ;stroke-linejoin: round;stroke-miterlimit: 10.000000;fill: none;"></path>
  <path d="M483.732254 483.732254L342.000000 342.017303" style="stroke:rgb(60.000610%,60.000610%,60.000610%); stroke-width: 1.500000;stroke-linecap: round;stroke-dasharray: 3.000000 3.000000 ;stroke-linejoin: round;stroke-miterlimit: 10.000000;fill: none;"></path>
  <path d="M204.267746 483.732254C204.267746 482.671341,203.846237 481.654007,203.096115 480.903885C202.345993 480.153763,201.328659 479.732254,200.267746 479.732254C199.206833 479.732254,198.189499 480.153763,197.439377 480.903885C196.689255 481.654007,196.267746 482.671341,196.267746 483.732254C196.267746 484.793167,196.689255 485.810501,197.439377 486.560623C198.189499 487.310745,199.206833 487.732254,200.267746 487.732254C201.328659 487.732254,202.345993 487.310745,203.096115 486.560623C203.846237 485.810501,204.267746 484.793167,204.267746 483.732254Z" style="stroke:rgb(39.999390%,39.999390%,39.999390%); stroke-width: 0.500000;stroke-linecap: round;stroke-linejoin: round;stroke-miterlimit: 10.000000;fill: none;"></path>
  <path d="M204.267746 483.732254C204.267746 482.671341,203.846237 481.654007,203.096115 480.903885C202.345993 480.153763,201.328659 479.732254,200.267746 479.732254C199.206833 479.732254,198.189499 480.153763,197.439377 480.903885C196.689255 481.654007,196.267746 482.671341,196.267746 483.732254C196.267746 484.793167,196.689255 485.810501,197.439377 486.560623C198.189499 487.310745,199.206833 487.732254,200.267746 487.732254C201.328659 487.732254,202.345993 487.310745,203.096115 486.560623C203.846237 485.810501,204.267746 484.793167,204.267746 483.732254Z" style="fill: rgb(89.999390%,0.000000%,0.000000%);stroke: none;"></path>
  <path d="M487.732254 483.732254C487.732254 482.671341,487.310745 481.654007,486.560623 480.903885C485.810501 480.153763,484.793167 479.732254,483.732254 479.732254C482.671341 479.732254,481.654007 480.153763,480.903885 480.903885C480.153763 481.654007,479.732254 482.671341,479.732254 483.732254C479.732254 484.793167,480.153763 485.810501,480.903885 486.560623C481.654007 487.310745,482.671341 487.732254,483.732254 487.732254C484.793167 487.732254,485.810501 487.310745,486.560623 486.560623C487.310745 485.810501,487.732254 484.793167,487.732254 483.732254Z" style="stroke:rgb(39.999390%,39.999390%,39.999390%); stroke-width: 0.500000;stroke-linecap: round;stroke-linejoin: round;stroke-miterlimit: 10.000000;fill: none;"></path>
  <path d="M487.732254 483.732254C487.732254 482.671341,487.310745 481.654007,486.560623 480.903885C485.810501 480.153763,484.793167 479.732254,483.732254 479.732254C482.671341 479.732254,481.654007 480.153763,480.903885 480.903885C480.153763 481.654007,479.732254 482.671341,479.732254 483.732254C479.732254 484.793167,480.153763 485.810501,480.903885 486.560623C481.654007 487.310745,482.671341 487.732254,483.732254 487.732254C484.793167 487.732254,485.810501 487.310745,486.560623 486.560623C487.310745 485.810501,487.732254 484.793167,487.732254 483.732254Z" style="fill: rgb(89.999390%,0.000000%,0.000000%);stroke: none;"></path>
  <path d="M346.000000 342.017303C346.000000 340.956390,345.578491 339.939056,344.828369 339.188934C344.078247 338.438812,343.060913 338.017303,342.000000 338.017303C340.939087 338.017303,339.921753 338.438812,339.171631 339.188934C338.421509 339.939056,338.000000 340.956390,338.000000 342.017303C338.000000 343.078217,338.421509 344.095551,339.171631 344.845673C339.921753 345.595795,340.939087 346.017303,342.000000 346.017303C343.060913 346.017303,344.078247 345.595795,344.828369 344.845673C345.578491 344.095551,346.000000 343.078217,346.000000 342.017303Z" style="stroke:rgb(39.999390%,39.999390%,39.999390%); stroke-width: 0.500000;stroke-linecap: round;stroke-linejoin: round;stroke-miterlimit: 10.000000;fill: none;"></path>
  <path d="M346.000000 342.017303C346.000000 340.956390,345.578491 339.939056,344.828369 339.188934C344.078247 338.438812,343.060913 338.017303,342.000000 338.017303C340.939087 338.017303,339.921753 338.438812,339.171631 339.188934C338.421509 339.939056,338.000000 340.956390,338.000000 342.017303C338.000000 343.078217,338.421509 344.095551,339.171631 344.845673C339.921753 345.595795,340.939087 346.017303,342.000000 346.017303C343.060913 346.017303,344.078247 345.595795,344.828369 344.845673C345.578491 344.095551,346.000000 343.078217,346.000000 342.017303Z" style="fill: rgb(9.800720%,9.800720%,44.000244%);stroke: none;"></path>
  <path d="M200.267746 483.732254L342.000000 625.447205" style="stroke:rgb(60.000610%,60.000610%,60.000610%); stroke-width: 1.500000;stroke-linecap: round;stroke-dasharray: 3.000000 3.000000 ;stroke-linejoin: round;stroke-miterlimit: 10.000000;fill: none;"></path>
  <path d="M483.732254 483.732254L342.000000 625.447205" style="stroke:rgb(60.000610%,60.000610%,60.000610%); stroke-width: 1.500000;stroke-linecap: round;stroke-dasharray: 3.000000 3.000000 ;stroke-linejoin: round;stroke-miterlimit: 10.000000;fill: none;"></path>
  <path d="M204.267746 483.732254C204.267746 482.671341,203.846237 481.654007,203.096115 480.903885C202.345993 480.153763,201.328659 479.732254,200.267746 479.732254C199.206833 479.732254,198.189499 480.153763,197.439377 480.903885C196.689255 481.654007,196.267746 482.671341,196.267746 483.732254C196.267746 484.793167,196.689255 485.810501,197.439377 486.560623C198.189499 487.310745,199.206833 487.732254,200.267746 487.732254C201.328659 487.732254,202.345993 487.310745,203.096115 486.560623C203.846237 485.810501,204.267746 484.793167,204.267746 483.732254Z" style="stroke:rgb(39.999390%,39.999390%,39.999390%); stroke-width: 0.500000;stroke-linecap: round;stroke-linejoin: round;stroke-miterlimit: 10.000000;fill: none;"></path>
  <path d="M204.267746 483.732254C204.267746 482.671341,203.846237 481.654007,203.096115 480.903885C202.345993 480.153763,201.328659 479.732254,200.267746 479.732254C199.206833 479.732254,198.189499 480.153763,197.439377 480.903885C196.689255 481.654007,196.267746 482.671341,196.267746 483.732254C196.267746 484.793167,196.689255 485.810501,197.439377 486.560623C198.189499 487.310745,199.206833 487.732254,200.267746 487.732254C201.328659 487.732254,202.345993 487.310745,203.096115 486.560623C203.846237 485.810501,204.267746 484.793167,204.267746 483.732254Z" style="fill: rgb(89.999390%,0.000000%,0.000000%);stroke: none;"></path>
  <path d="M487.732254 483.732254C487.732254 482.671341,487.310745 481.654007,486.560623 480.903885C485.810501 480.153763,484.793167 479.732254,483.732254 479.732254C482.671341 479.732254,481.654007 480.153763,480.903885 480.903885C480.153763 481.654007,479.732254 482.671341,479.732254 483.732254C479.732254 484.793167,480.153763 485.810501,480.903885 486.560623C481.654007 487.310745,482.671341 487.732254,483.732254 487.732254C484.793167 487.732254,485.810501 487.310745,486.560623 486.560623C487.310745 485.810501,487.732254 484.793167,487.732254 483.732254Z" style="stroke:rgb(39.999390%,39.999390%,39.999390%); stroke-width: 0.500000;stroke-linecap: round;stroke-linejoin: round;stroke-miterlimit: 10.000000;fill: none;"></path>
  <path d="M487.732254 483.732254C487.732254 482.671341,487.310745 481.654007,486.560623 480.903885C485.810501 480.153763,484.793167 479.732254,483.732254 479.732254C482.671341 479.732254,481.654007 480.153763,480.903885 480.903885C480.153763 481.654007,479.732254 482.671341,479.732254 483.732254C479.732254 484.793167,480.153763 485.810501,480.903885 486.560623C481.654007 487.310745,482.671341 487.732254,483.732254 487.732254C484.793167 487.732254,485.810501 487.310745,486.560623 486.560623C487.310745 485.810501,487.732254 484.793167,487.732254 483.732254Z" style="fill: rgb(89.999390%,0.000000%,0.000000%);stroke: none;"></path>
  <path d="M346.000000 625.447205C346.000000 624.386292,345.578491 623.368958,344.828369 622.618835C344.078247 621.868713,343.060913 621.447205,342.000000 621.447205C340.939087 621.447205,339.921753 621.868713,339.171631 622.618835C338.421509 623.368958,338.000000 624.386292,338.000000 625.447205C338.000000 626.508118,338.421509 627.525452,339.171631 628.275574C339.921753 629.025696,340.939087 629.447205,342.000000 629.447205C343.060913 629.447205,344.078247 629.025696,344.828369 628.275574C345.578491 627.525452,346.000000 626.508118,346.000000 625.447205Z" style="stroke:rgb(39.999390%,39.999390%,39.999390%); stroke-width: 0.500000;stroke-linecap: round;stroke-linejoin: round;stroke-miterlimit: 10.000000;fill: none;"></path>
  <path d="M346.000000 625.447205C346.000000 624.386292,345.578491 623.368958,344.828369 622.618835C344.078247 621.868713,343.060913 621.447205,342.000000 621.447205C340.939087 621.447205,339.921753 621.868713,339.171631 622.618835C338.421509 623.368958,338.000000 624.386292,338.000000 625.447205C338.000000 626.508118,338.421509 627.525452,339.171631 628.275574C339.921753 629.025696,340.939087 629.447205,342.000000 629.447205C343.060913 629.447205,344.078247 629.025696,344.828369 628.275574C345.578491 627.525452,346.000000 626.508118,346.000000 625.447205Z" style="fill: rgb(0.000000%,50.000000%,0.000000%);stroke: none;"></path>
  <path d="M200.267746 483.732254L58.552795 342.000000" style="stroke:rgb(60.000610%,60.000610%,60.000610%); stroke-width: 1.500000;stroke-linecap: round;stroke-dasharray: 3.000000 3.000000 ;stroke-linejoin: round;stroke-miterlimit: 10.000000;fill: none;"></path>
  <path d="M200.267746 200.267746L58.552795 342.000000" style="stroke:rgb(60.000610%,60.000610%,60.000610%); stroke-width: 1.500000;stroke-linecap: round;stroke-dasharray: 3.000000 3.000000 ;stroke-linejoin: round;stroke-miterlimit: 10.000000;fill: none;"></path>
  <path d="M204.267746 483.732254C204.267746 482.671341,203.846237 481.654007,203.096115 480.903885C202.345993 480.153763,201.328659 479.732254,200.267746 479.732254C199.206833 479.732254,198.189499 480.153763,197.439377 480.903885C196.689255 481.654007,196.267746 482.671341,196.267746 483.732254C196.267746 484.793167,196.689255 485.810501,197.439377 486.560623C198.189499 487.310745,199.206833 487.732254,200.267746 487.732254C201.328659 487.732254,202.345993 487.310745,203.096115 486.560623C203.846237 485.810501,204.267746 484.793167,204.267746 483.732254Z" style="stroke:rgb(39.999390%,39.999390%,39.999390%); stroke-width: 0.500000;stroke-linecap: round;stroke-linejoin: round;stroke-miterlimit: 10.000000;fill: none;"></path>
  <path d="M204.267746 483.732254C204.267746 482.671341,203.846237 481.654007,203.096115 480.903885C202.345993 480.153763,201.328659 479.732254,200.267746 479.732254C199.206833 479.732254,198.189499 480.153763,197.439377 480.903885C196.689255 481.654007,196.267746 482.671341,196.267746 483.732254C196.267746 484.793167,196.689255 485.810501,197.439377 486.560623C198.189499 487.310745,199.206833 487.732254,200.267746 487.732254C201.328659 487.732254,202.345993 487.310745,203.096115 486.560623C203.846237 485.810501,204.267746 484.793167,204.267746 483.732254Z" style="fill: rgb(89.999390%,0.000000%,0.000000%);stroke: none;"></path>
  <path d="M204.267746 200.267746C204.267746 199.206833,203.846237 198.189499,203.096115 197.439377C202.345993 196.689255,201.328659 196.267746,200.267746 196.267746C199.206833 196.267746,198.189499 196.689255,197.439377 197.439377C196.689255 198.189499,196.267746 199.206833,196.267746 200.267746C196.267746 201.328659,196.689255 202.345993,197.439377 203.096115C198.189499 203.846237,199.206833 204.267746,200.267746 204.267746C201.328659 204.267746,202.345993 203.846237,203.096115 203.096115C203.846237 202.345993,204.267746 201.328659,204.267746 200.267746Z" style="stroke:rgb(39.999390%,39.999390%,39.999390%); stroke-width: 0.500000;stroke-linecap: round;stroke-linejoin: round;stroke-miterlimit: 10.000000;fill: none;"></path>
  <path d="M204.267746 200.267746C204.267746 199.206833,203.846237 198.189499,203.096115 197.439377C202.345993 196.689255,201.328659 196.267746,200.267746 196.267746C199.206833 196.267746,198.189499 196.689255,197.439377 197.439377C196.689255 198.189499,196.267746 199.206833,196.267746 200.267746C196.267746 201.328659,196.689255 202.345993,197.439377 203.096115C198.189499 203.846237,199.206833 204.267746,200.267746 204.267746C201.328659 204.267746,202.345993 203.846237,203.096115 203.096115C203.846237 202.345993,204.267746 201.328659,204.267746 200.267746Z" style="fill: rgb(89.999390%,0.000000%,0.000000%);stroke: none;"></path>
  <path d="M62.552795 342.000000C62.552795 340.939087,62.131287 339.921753,61.381165 339.171631C60.631042 338.421509,59.613708 338.000000,58.552795 338.000000C57.491882 338.000000,56.474548 338.421509,55.724426 339.171631C54.974304 339.921753,54.552795 340.939087,54.552795 342.000000C54.552795 343.060913,54.974304 344.078247,55.724426 344.828369C56.474548 345.578491,57.491882 346.000000,58.552795 346.000000C59.613708 346.000000,60.631042 345.578491,61.381165 344.828369C62.131287 344.078247,62.552795 343.060913,62.552795 342.000000Z" style="stroke:rgb(39.999390%,39.999390%,39.999390%); stroke-width: 0.500000;stroke-linecap: round;stroke-linejoin: round;stroke-miterlimit: 10.000000;fill: none;"></path>
  <path d="M62.552795 342.000000C62.552795 340.939087,62.131287 339.921753,61.381165 339.171631C60.631042 338.421509,59.613708 338.000000,58.552795 338.000000C57.491882 338.000000,56.474548 338.421509,55.724426 339.171631C54.974304 339.921753,54.552795 340.939087,54.552795 342.000000C54.552795 343.060913,54.974304 344.078247,55.724426 344.828369C56.474548 345.578491,57.491882 346.000000,58.552795 346.000000C59.613708 346.000000,60.631042 345.578491,61.381165 344.828369C62.131287 344.078247,62.552795 343.060913,62.552795 342.000000Z" style="fill: rgb(0.000000%,50.000000%,0.000000%);stroke: none;"></path>
  <path d="M200.267746 483.732254L341.982697 342.000000" style="stroke:rgb(60.000610%,60.000610%,60.000610%); stroke-width: 1.500000;stroke-linecap: round;stroke-dasharray: 3.000000 3.000000 ;stroke-linejoin: round;stroke-miterlimit: 10.000000;fill: none;"></path>
  <path d="M200.267746 200.267746L341.982697 342.000000" style="stroke:rgb(60.000610%,60.000610%,60.000610%); stroke-width: 1.500000;stroke-linecap: round;stroke-dasharray: 3.000000 3.000000 ;stroke-linejoin: round;stroke-miterlimit: 10.000000;fill: none;"></path>
  <path d="M204.267746 483.732254C204.267746 482.671341,203.846237 481.654007,203.096115 480.903885C202.345993 480.153763,201.328659 479.732254,200.267746 479.732254C199.206833 479.732254,198.189499 480.153763,197.439377 480.903885C196.689255 481.654007,196.267746 482.671341,196.267746 483.732254C196.267746 484.793167,196.689255 485.810501,197.439377 486.560623C198.189499 487.310745,199.206833 487.732254,200.267746 487.732254C201.328659 487.732254,202.345993 487.310745,203.096115 486.560623C203.846237 485.810501,204.267746 484.793167,204.267746 483.732254Z" style="stroke:rgb(39.999390%,39.999390%,39.999390%); stroke-width: 0.500000;stroke-linecap: round;stroke-linejoin: round;stroke-miterlimit: 10.000000;fill: none;"></path>
  <path d="M204.267746 483.732254C204.267746 482.671341,203.846237 481.654007,203.096115 480.903885C202.345993 480.153763,201.328659 479.732254,200.267746 479.732254C199.206833 479.732254,198.189499 480.153763,197.439377 480.903885C196.689255 481.654007,196.267746 482.671341,196.267746 483.732254C196.267746 484.793167,196.689255 485.810501,197.439377 486.560623C198.189499 487.310745,199.206833 487.732254,200.267746 487.732254C201.328659 487.732254,202.345993 487.310745,203.096115 486.560623C203.846237 485.810501,204.267746 484.793167,204.267746 483.732254Z" style="fill: rgb(89.999390%,0.000000%,0.000000%);stroke: none;"></path>
  <path d="M204.267746 200.267746C204.267746 199.206833,203.846237 198.189499,203.096115 197.439377C202.345993 196.689255,201.328659 196.267746,200.267746 196.267746C199.206833 196.267746,198.189499 196.689255,197.439377 197.439377C196.689255 198.189499,196.267746 199.206833,196.267746 200.267746C196.267746 201.328659,196.689255 202.345993,197.439377 203.096115C198.189499 203.846237,199.206833 204.267746,200.267746 204.267746C201.328659 204.267746,202.345993 203.846237,203.096115 203.096115C203.846237 202.345993,204.267746 201.328659,204.267746 200.267746Z" style="stroke:rgb(39.999390%,39.999390%,39.999390%); stroke-width: 0.500000;stroke-linecap: round;stroke-linejoin: round;stroke-miterlimit: 10.000000;fill: none;"></path>
  <path d="M204.267746 200.267746C204.267746 199.206833,203.846237 198.189499,203.096115 197.439377C202.345993 196.689255,201.328659 196.267746,200.267746 196.267746C199.206833 196.267746,198.189499 196.689255,197.439377 197.439377C196.689255 198.189499,196.267746 199.206833,196.267746 200.267746C196.267746 201.328659,196.689255 202.345993,197.439377 203.096115C198.189499 203.846237,199.206833 204.267746,200.267746 204.267746C201.328659 204.267746,202.345993 203.846237,203.096115 203.096115C203.846237 202.345993,204.267746 201.328659,204.267746 200.267746Z" style="fill: rgb(89.999390%,0.000000%,0.000000%);stroke: none;"></path>
  <path d="M345.982697 342.000000C345.982697 340.939087,345.561188 339.921753,344.811066 339.171631C344.060944 338.421509,343.043610 338.000000,341.982697 338.000000C340.921783 338.000000,339.904449 338.421509,339.154327 339.171631C338.404205 339.921753,337.982697 340.939087,337.982697 342.000000C337.982697 343.060913,338.404205 344.078247,339.154327 344.828369C339.904449 345.578491,340.921783 346.000000,341.982697 346.000000C343.043610 346.000000,344.060944 345.578491,344.811066 344.828369C345.561188 344.078247,345.982697 343.060913,345.982697 342.000000Z" style="stroke:rgb(39.999390%,39.999390%,39.999390%); stroke-width: 0.500000;stroke-linecap: round;stroke-linejoin: round;stroke-miterlimit: 10.000000;fill: none;"></path>
  <path d="M345.982697 342.000000C345.982697 340.939087,345.561188 339.921753,344.811066 339.171631C344.060944 338.421509,343.043610 338.000000,341.982697 338.000000C340.921783 338.000000,339.904449 338.421509,339.154327 339.171631C338.404205 339.921753,337.982697 340.939087,337.982697 342.000000C337.982697 343.060913,338.404205 344.078247,339.154327 344.828369C339.904449 345.578491,340.921783 346.000000,341.982697 346.000000C343.043610 346.000000,344.060944 345.578491,344.811066 344.828369C345.561188 344.078247,345.982697 343.060913,345.982697 342.000000Z" style="fill: rgb(9.800720%,9.800720%,44.000244%);stroke: none;"></path>
  <path d="M483.732254 483.732254L625.464508 625.464508" style="stroke:rgb(60.000610%,60.000610%,60.000610%); stroke-width: 1.500000;stroke-linecap: round;stroke-dasharray: 3.000000 3.000000 ;stroke-linejoin: round;stroke-miterlimit: 10.000000;fill: none;"></path>
  <path d="M487.732254 483.732254C487.732254 482.671341,487.310745 481.654007,486.560623 480.903885C485.810501 480.153763,484.793167 479.732254,483.732254 479.732254C482.671341 479.732254,481.654007 480.153763,480.903885 480.903885C480.153763 481.654007,479.732254 482.671341,479.732254 483.732254C479.732254 484.793167,480.153763 485.810501,480.903885 486.560623C481.654007 487.310745,482.671341 487.732254,483.732254 487.732254C484.793167 487.732254,485.810501 487.310745,486.560623 486.560623C487.310745 485.810501,487.732254 484.793167,487.732254 483.732254Z" style="stroke:rgb(39.999390%,39.999390%,39.999390%); stroke-width: 0.500000;stroke-linecap: round;stroke-linejoin: round;stroke-miterlimit: 10.000000;fill: none;"></path>
  <path d="M487.732254 483.732254C487.732254 482.671341,487.310745 481.654007,486.560623 480.903885C485.810501 480.153763,484.793167 479.732254,483.732254 479.732254C482.671341 479.732254,481.654007 480.153763,480.903885 480.903885C480.153763 481.654007,479.732254 482.671341,479.732254 483.732254C479.732254 484.793167,480.153763 485.810501,480.903885 486.560623C481.654007 487.310745,482.671341 487.732254,483.732254 487.732254C484.793167 487.732254,485.810501 487.310745,486.560623 486.560623C487.310745 485.810501,487.732254 484.793167,487.732254 483.732254Z" style="fill: rgb(89.999390%,0.000000%,0.000000%);stroke: none;"></path>
  <path d="M629.464508 625.464508C629.464508 624.403595,629.042999 623.386261,628.292877 622.636139C627.542755 621.886017,626.525421 621.464508,625.464508 621.464508C624.403595 621.464508,623.386261 621.886017,622.636139 622.636139C621.886017 623.386261,621.464508 624.403595,621.464508 625.464508C621.464508 626.525421,621.886017 627.542755,622.636139 628.292877C623.386261 629.042999,624.403595 629.464508,625.464508 629.464508C626.525421 629.464508,627.542755 629.042999,628.292877 628.292877C629.042999 627.542755,629.464508 626.525421,629.464508 625.464508Z" style="stroke:rgb(39.999390%,39.999390%,39.999390%); stroke-width: 0.500000;stroke-linecap: round;stroke-linejoin: round;stroke-miterlimit: 10.000000;fill: none;"></path>
  <path d="M629.464508 625.464508C629.464508 624.403595,629.042999 623.386261,628.292877 622.636139C627.542755 621.886017,626.525421 621.464508,625.464508 621.464508C624.403595 621.464508,623.386261 621.886017,622.636139 622.636139C621.886017 623.386261,621.464508 624.403595,621.464508 625.464508C621.464508 626.525421,621.886017 627.542755,622.636139 628.292877C623.386261 629.042999,624.403595 629.464508,625.464508 629.464508C626.525421 629.464508,627.542755 629.042999,628.292877 628.292877C629.042999 627.542755,629.464508 626.525421,629.464508 625.464508Z" style="fill: rgb(100.000000%,100.000000%,0.000000%);stroke: none;"></path>
  <path d="M483.732254 483.732254L342.017303 342.000000" style="stroke:rgb(60.000610%,60.000610%,60.000610%); stroke-width: 1.500000;stroke-linecap: round;stroke-dasharray: 3.000000 3.000000 ;stroke-linejoin: round;stroke-miterlimit: 10.000000;fill: none;"></path>
  <path d="M483.732254 200.267746L342.017303 342.000000" style="stroke:rgb(60.000610%,60.000610%,60.000610%); stroke-width: 1.500000;stroke-linecap: round;stroke-dasharray: 3.000000 3.000000 ;stroke-linejoin: round;stroke-miterlimit: 10.000000;fill: none;"></path>
  <path d="M487.732254 483.732254C487.732254 482.671341,487.310745 481.654007,486.560623 480.903885C485.810501 480.153763,484.793167 479.732254,483.732254 479.732254C482.671341 479.732254,481.654007 480.153763,480.903885 480.903885C480.153763 481.654007,479.732254 482.671341,479.732254 483.732254C479.732254 484.793167,480.153763 485.810501,480.903885 486.560623C481.654007 487.310745,482.671341 487.732254,483.732254 487.732254C484.793167 487.732254,485.810501 487.310745,486.560623 486.560623C487.310745 485.810501,487.732254 484.793167,487.732254 483.732254Z" style="stroke:rgb(39.999390%,39.999390%,39.999390%); stroke-width: 0.500000;stroke-linecap: round;stroke-linejoin: round;stroke-miterlimit: 10.000000;fill: none;"></path>
  <path d="M487.732254 483.732254C487.732254 482.671341,487.310745 481.654007,486.560623 480.903885C485.810501 480.153763,484.793167 479.732254,483.732254 479.732254C482.671341 479.732254,481.654007 480.153763,480.903885 480.903885C480.153763 481.654007,479.732254 482.671341,479.732254 483.732254C479.732254 484.793167,480.153763 485.810501,480.903885 486.560623C481.654007 487.310745,482.671341 487.732254,483.732254 487.732254C484.793167 487.732254,485.810501 487.310745,486.560623 486.560623C487.310745 485.810501,487.732254 484.793167,487.732254 483.732254Z" style="fill: rgb(89.999390%,0.000000%,0.000000%);stroke: none;"></path>
  <path d="M487.732254 200.267746C487.732254 199.206833,487.310745 198.189499,486.560623 197.439377C485.810501 196.689255,484.793167 196.267746,483.732254 196.267746C482.671341 196.267746,481.654007 196.689255,480.903885 197.439377C480.153763 198.189499,479.732254 199.206833,479.732254 200.267746C479.732254 201.328659,480.153763 202.345993,480.903885 203.096115C481.654007 203.846237,482.671341 204.267746,483.732254 204.267746C484.793167 204.267746,485.810501 203.846237,486.560623 203.096115C487.310745 202.345993,487.732254 201.328659,487.732254 200.267746Z" style="stroke:rgb(39.999390%,39.999390%,39.999390%); stroke-width: 0.500000;stroke-linecap: round;stroke-linejoin: round;stroke-miterlimit: 10.000000;fill: none;"></path>
  <path d="M487.732254 200.267746C487.732254 199.206833,487.310745 198.189499,486.560623 197.439377C485.810501 196.689255,484.793167 196.267746,483.732254 196.267746C482.671341 196.267746,481.654007 196.689255,480.903885 197.439377C480.153763 198.189499,479.732254 199.206833,479.732254 200.267746C479.732254 201.328659,480.153763 202.345993,480.903885 203.096115C481.654007 203.846237,482.671341 204.267746,483.732254 204.267746C484.793167 204.267746,485.810501 203.846237,486.560623 203.096115C487.310745 202.345993,487.732254 201.328659,487.732254 200.267746Z" style="fill: rgb(89.999390%,0.000000%,0.000000%);stroke: none;"></path>
  <path d="M346.017303 342.000000C346.017303 340.939087,345.595795 339.921753,344.845673 339.171631C344.095551 338.421509,343.078217 338.000000,342.017303 338.000000C340.956390 338.000000,339.939056 338.421509,339.188934 339.171631C338.438812 339.921753,338.017303 340.939087,338.017303 342.000000C338.017303 343.060913,338.438812 344.078247,339.188934 344.828369C339.939056 345.578491,340.956390 346.000000,342.017303 346.000000C343.078217 346.000000,344.095551 345.578491,344.845673 344.828369C345.595795 344.078247,346.017303 343.060913,346.017303 342.000000Z" style="stroke:rgb(39.999390%,39.999390%,39.999390%); stroke-width: 0.500000;stroke-linecap: round;stroke-linejoin: round;stroke-miterlimit: 10.000000;fill: none;"></path>
  <path d="M346.017303 342.000000C346.017303 340.939087,345.595795 339.921753,344.845673 339.171631C344.095551 338.421509,343.078217 338.000000,342.017303 338.000000C340.956390 338.000000,339.939056 338.421509,339.188934 339.171631C338.438812 339.921753,338.017303 340.939087,338.017303 342.000000C338.017303 343.060913,338.438812 344.078247,339.188934 344.828369C339.939056 345.578491,340.956390 346.000000,342.017303 346.000000C343.078217 346.000000,344.095551 345.578491,344.845673 344.828369C345.595795 344.078247,346.017303 343.060913,346.017303 342.000000Z" style="fill: rgb(9.800720%,9.800720%,44.000244%);stroke: none;"></path>
  <path d="M483.732254 483.732254L625.447205 342.000000" style="stroke:rgb(60.000610%,60.000610%,60.000610%); stroke-width: 1.500000;stroke-linecap: round;stroke-dasharray: 3.000000 3.000000 ;stroke-linejoin: round;stroke-miterlimit: 10.000000;fill: none;"></path>
  <path d="M483.732254 200.267746L625.447205 342.000000" style="stroke:rgb(60.000610%,60.000610%,60.000610%); stroke-width: 1.500000;stroke-linecap: round;stroke-dasharray: 3.000000 3.000000 ;stroke-linejoin: round;stroke-miterlimit: 10.000000;fill: none;"></path>
  <path d="M487.732254 483.732254C487.732254 482.671341,487.310745 481.654007,486.560623 480.903885C485.810501 480.153763,484.793167 479.732254,483.732254 479.732254C482.671341 479.732254,481.654007 480.153763,480.903885 480.903885C480.153763 481.654007,479.732254 482.671341,479.732254 483.732254C479.732254 484.793167,480.153763 485.810501,480.903885 486.560623C481.654007 487.310745,482.671341 487.732254,483.732254 487.732254C484.793167 487.732254,485.810501 487.310745,486.560623 486.560623C487.310745 485.810501,487.732254 484.793167,487.732254 483.732254Z" style="stroke:rgb(39.999390%,39.999390%,39.999390%); stroke-width: 0.500000;stroke-linecap: round;stroke-linejoin: round;stroke-miterlimit: 10.000000;fill: none;"></path>
  <path d="M487.732254 483.732254C487.732254 482.671341,487.310745 481.654007,486.560623 480.903885C485.810501 480.153763,484.793167 479.732254,483.732254 479.732254C482.671341 479.732254,481.654007 480.153763,480.903885 480.903885C480.153763 481.654007,479.732254 482.671341,479.732254 483.732254C479.732254 484.793167,480.153763 485.810501,480.903885 486.560623C481.654007 487.310745,482.671341 487.732254,483.732254 487.732254C484.793167 487.732254,485.810501 487.310745,486.560623 486.560623C487.310745 485.810501,487.732254 484.793167,487.732254 483.732254Z" style="fill: rgb(89.999390%,0.000000%,0.000000%);stroke: none;"></path>
  <path d="M487.732254 200.267746C487.732254 199.206833,487.310745 198.189499,486.560623 197.439377C485.810501 196.689255,484.793167 196.267746,483.732254 196.267746C482.671341 196.267746,481.654007 196.689255,480.903885 197.439377C480.153763 198.189499,479.732254 199.206833,479.732254 200.267746C479.732254 201.328659,480.153763 202.345993,480.903885 203.096115C481.654007 203.846237,482.671341 204.267746,483.732254 204.267746C484.793167 204.267746,485.810501 203.846237,486.560623 203.096115C487.310745 202.345993,487.732254 201.328659,487.732254 200.267746Z" style="stroke:rgb(39.999390%,39.999390%,39.999390%); stroke-width: 0.500000;stroke-linecap: round;stroke-linejoin: round;stroke-miterlimit: 10.000000;fill: none;"></path>
  <path d="M487.732254 200.267746C487.732254 199.206833,487.310745 198.189499,486.560623 197.439377C485.810501 196.689255,484.793167 196.267746,483.732254 196.267746C482.671341 196.267746,481.654007 196.689255,480.903885 197.439377C480.153763 198.189499,479.732254 199.206833,479.732254 200.267746C479.732254 201.328659,480.153763 202.345993,480.903885 203.096115C481.654007 203.846237,482.671341 204.267746,483.732254 204.267746C484.793167 204.267746,485.810501 203.846237,486.560623 203.096115C487.310745 202.345993,487.732254 201.328659,487.732254 200.267746Z" style="fill: rgb(89.999390%,0.000000%,0.000000%);stroke: none;"></path>
  <path d="M629.447205 342.000000C629.447205 340.939087,629.025696 339.921753,628.275574 339.171631C627.525452 338.421509,626.508118 338.000000,625.447205 338.000000C624.386292 338.000000,623.368958 338.421509,622.618835 339.171631C621.868713 339.921753,621.447205 340.939087,621.447205 342.000000C621.447205 343.060913,621.868713 344.078247,622.618835 344.828369C623.368958 345.578491,624.386292 346.000000,625.447205 346.000000C626.508118 346.000000,627.525452 345.578491,628.275574 344.828369C629.025696 344.078247,629.447205 343.060913,629.447205 342.000000Z" style="stroke:rgb(39.999390%,39.999390%,39.999390%); stroke-width: 0.500000;stroke-linecap: round;stroke-linejoin: round;stroke-miterlimit: 10.000000;fill: none;"></path>
  <path d="M629.447205 342.000000C629.447205 340.939087,629.025696 339.921753,628.275574 339.171631C627.525452 338.421509,626.508118 338.000000,625.447205 338.000000C624.386292 338.000000,623.368958 338.421509,622.618835 339.171631C621.868713 339.921753,621.447205 340.939087,621.447205 342.000000C621.447205 343.060913,621.868713 344.078247,622.618835 344.828369C623.368958 345.578491,624.386292 346.000000,625.447205 346.000000C626.508118 346.000000,627.525452 345.578491,628.275574 344.828369C629.025696 344.078247,629.447205 343.060913,629.447205 342.000000Z" style="fill: rgb(0.000000%,50.000000%,0.000000%);stroke: none;"></path>
  <path d="M483.732254 200.267746L625.464508 58.535492" style="stroke:rgb(60.000610%,60.000610%,60.000610%); stroke-width: 1.500000;stroke-linecap: round;stroke-dasharray: 3.000000 3.000000 ;stroke-linejoin: round;stroke-miterlimit: 10.000000;fill: none;"></path>
  <path d="M487.732254 200.267746C487.732254 199.206833,487.310745 198.189499,486.560623 197.439377C485.810501 196.689255,484.793167 196.267746,483.732254 196.267746C482.671341 196.267746,481.654007 196.689255,480.903885 197.439377C480.153763 198.189499,479.732254 199.206833,479.732254 200.267746C479.732254 201.328659,480.153763 202.345993,480.903885 203.096115C481.654007 203.846237,482.671341 204.267746,483.732254 204.267746C484.793167 204.267746,485.810501 203.846237,486.560623 203.096115C487.310745 202.345993,487.732254 201.328659,487.732254 200.267746Z" style="stroke:rgb(39.999390%,39.999390%,39.999390%); stroke-width: 0.500000;stroke-linecap: round;stroke-linejoin: round;stroke-miterlimit: 10.000000;fill: none;"></path>
  <path d="M487.732254 200.267746C487.732254 199.206833,487.310745 198.189499,486.560623 197.439377C485.810501 196.689255,484.793167 196.267746,483.732254 196.267746C482.671341 196.267746,481.654007 196.689255,480.903885 197.439377C480.153763 198.189499,479.732254 199.206833,479.732254 200.267746C479.732254 201.328659,480.153763 202.345993,480.903885 203.096115C481.654007 203.846237,482.671341 204.267746,483.732254 204.267746C484.793167 204.267746,485.810501 203.846237,486.560623 203.096115C487.310745 202.345993,487.732254 201.328659,487.732254 200.267746Z" style="fill: rgb(89.999390%,0.000000%,0.000000%);stroke: none;"></path>
  <path d="M629.464508 58.535492C629.464508 57.474579,629.042999 56.457245,628.292877 55.707123C627.542755 54.957001,626.525421 54.535492,625.464508 54.535492C624.403595 54.535492,623.386261 54.957001,622.636139 55.707123C621.886017 56.457245,621.464508 57.474579,621.464508 58.535492C621.464508 59.596405,621.886017 60.613739,622.636139 61.363861C623.386261 62.113983,624.403595 62.535492,625.464508 62.535492C626.525421 62.535492,627.542755 62.113983,628.292877 61.363861C629.042999 60.613739,629.464508 59.596405,629.464508 58.535492Z" style="stroke:rgb(39.999390%,39.999390%,39.999390%); stroke-width: 0.500000;stroke-linecap: round;stroke-linejoin: round;stroke-miterlimit: 10.000000;fill: none;"></path>
  <path d="M629.464508 58.535492C629.464508 57.474579,629.042999 56.457245,628.292877 55.707123C627.542755 54.957001,626.525421 54.535492,625.464508 54.535492C624.403595 54.535492,623.386261 54.957001,622.636139 55.707123C621.886017 56.457245,621.464508 57.474579,621.464508 58.535492C621.464508 59.596405,621.886017 60.613739,622.636139 61.363861C623.386261 62.113983,624.403595 62.535492,625.464508 62.535492C626.525421 62.535492,627.542755 62.113983,628.292877 61.363861C629.042999 60.613739,629.464508 59.596405,629.464508 58.535492Z" style="fill: rgb(100.000000%,100.000000%,0.000000%);stroke: none;"></path>
  <path d="M483.732254 200.267746L342.000000 341.982697" style="stroke:rgb(60.000610%,60.000610%,60.000610%); stroke-width: 1.500000;stroke-linecap: round;stroke-dasharray: 3.000000 3.000000 ;stroke-linejoin: round;stroke-miterlimit: 10.000000;fill: none;"></path>
  <path d="M200.267746 200.267746L342.000000 341.982697" style="stroke:rgb(60.000610%,60.000610%,60.000610%); stroke-width: 1.500000;stroke-linecap: round;stroke-dasharray: 3.000000 3.000000 ;stroke-linejoin: round;stroke-miterlimit: 10.000000;fill: none;"></path>
  <path d="M487.732254 200.267746C487.732254 199.206833,487.310745 198.189499,486.560623 197.439377C485.810501 196.689255,484.793167 196.267746,483.732254 196.267746C482.671341 196.267746,481.654007 196.689255,480.903885 197.439377C480.153763 198.189499,479.732254 199.206833,479.732254 200.267746C479.732254 201.328659,480.153763 202.345993,480.903885 203.096115C481.654007 203.846237,482.671341 204.267746,483.732254 204.267746C484.793167 204.267746,485.810501 203.846237,486.560623 203.096115C487.310745 202.345993,487.732254 201.328659,487.732254 200.267746Z" style="stroke:rgb(39.999390%,39.999390%,39.999390%); stroke-width: 0.500000;stroke-linecap: round;stroke-linejoin: round;stroke-miterlimit: 10.000000;fill: none;"></path>
  <path d="M487.732254 200.267746C487.732254 199.206833,487.310745 198.189499,486.560623 197.439377C485.810501 196.689255,484.793167 196.267746,483.732254 196.267746C482.671341 196.267746,481.654007 196.689255,480.903885 197.439377C480.153763 198.189499,479.732254 199.206833,479.732254 200.267746C479.732254 201.328659,480.153763 202.345993,480.903885 203.096115C481.654007 203.846237,482.671341 204.267746,483.732254 204.267746C484.793167 204.267746,485.810501 203.846237,486.560623 203.096115C487.310745 202.345993,487.732254 201.328659,487.732254 200.267746Z" style="fill: rgb(89.999390%,0.000000%,0.000000%);stroke: none;"></path>
  <path d="M204.267746 200.267746C204.267746 199.206833,203.846237 198.189499,203.096115 197.439377C202.345993 196.689255,201.328659 196.267746,200.267746 196.267746C199.206833 196.267746,198.189499 196.689255,197.439377 197.439377C196.689255 198.189499,196.267746 199.206833,196.267746 200.267746C196.267746 201.328659,196.689255 202.345993,197.439377 203.096115C198.189499 203.846237,199.206833 204.267746,200.267746 204.267746C201.328659 204.267746,202.345993 203.846237,203.096115 203.096115C203.846237 202.345993,204.267746 201.328659,204.267746 200.267746Z" style="stroke:rgb(39.999390%,39.999390%,39.999390%); stroke-width: 0.500000;stroke-linecap: round;stroke-linejoin: round;stroke-miterlimit: 10.000000;fill: none;"></path>
  <path d="M204.267746 200.267746C204.267746 199.206833,203.846237 198.189499,203.096115 197.439377C202.345993 196.689255,201.328659 196.267746,200.267746 196.267746C199.206833 196.267746,198.189499 196.689255,197.439377 197.439377C196.689255 198.189499,196.267746 199.206833,196.267746 200.267746C196.267746 201.328659,196.689255 202.345993,197.439377 203.096115C198.189499 203.846237,199.206833 204.267746,200.267746 204.267746C201.328659 204.267746,202.345993 203.846237,203.096115 203.096115C203.846237 202.345993,204.267746 201.328659,204.267746 200.267746Z" style="fill: rgb(89.999390%,0.000000%,0.000000%);stroke: none;"></path>
  <path d="M346.000000 341.982697C346.000000 340.921783,345.578491 339.904449,344.828369 339.154327C344.078247 338.404205,343.060913 337.982697,342.000000 337.982697C340.939087 337.982697,339.921753 338.404205,339.171631 339.154327C338.421509 339.904449,338.000000 340.921783,338.000000 341.982697C338.000000 343.043610,338.421509 344.060944,339.171631 344.811066C339.921753 345.561188,340.939087 345.982697,342.000000 345.982697C343.060913 345.982697,344.078247 345.561188,344.828369 344.811066C345.578491 344.060944,346.000000 343.043610,346.000000 341.982697Z" style="stroke:rgb(39.999390%,39.999390%,39.999390%); stroke-width: 0.500000;stroke-linecap: round;stroke-linejoin: round;stroke-miterlimit: 10.000000;fill: none;"></path>
  <path d="M346.000000 341.982697C346.000000 340.921783,345.578491 339.904449,344.828369 339.154327C344.078247 338.404205,343.060913 337.982697,342.000000 337.982697C340.939087 337.982697,339.921753 338.404205,339.171631 339.154327C338.421509 339.904449,338.000000 340.921783,338.000000 341.982697C338.000000 343.043610,338.421509 344.060944,339.171631 344.811066C339.921753 345.561188,340.939087 345.982697,342.000000 345.982697C343.060913 345.982697,344.078247 345.561188,344.828369 344.811066C345.578491 344.060944,346.000000 343.043610,346.000000 341.982697Z" style="fill: rgb(9.800720%,9.800720%,44.000244%);stroke: none;"></path>
  <path d="M483.732254 200.267746L342.000000 58.552795" style="stroke:rgb(60.000610%,60.000610%,60.000610%); stroke-width: 1.500000;stroke-linecap: round;stroke-dasharray: 3.000000 3.000000 ;stroke-linejoin: round;stroke-miterlimit: 10.000000;fill: none;"></path>
  <path d="M200.267746 200.267746L342.000000 58.552795" style="stroke:rgb(60.000610%,60.000610%,60.000610%); stroke-width: 1.500000;stroke-linecap: round;stroke-dasharray: 3.000000 3.000000 ;stroke-linejoin: round;stroke-miterlimit: 10.000000;fill: none;"></path>
  <path d="M487.732254 200.267746C487.732254 199.206833,487.310745 198.189499,486.560623 197.439377C485.810501 196.689255,484.793167 196.267746,483.732254 196.267746C482.671341 196.267746,481.654007 196.689255,480.903885 197.439377C480.153763 198.189499,479.732254 199.206833,479.732254 200.267746C479.732254 201.328659,480.153763 202.345993,480.903885 203.096115C481.654007 203.846237,482.671341 204.267746,483.732254 204.267746C484.793167 204.267746,485.810501 203.846237,486.560623 203.096115C487.310745 202.345993,487.732254 201.328659,487.732254 200.267746Z" style="stroke:rgb(39.999390%,39.999390%,39.999390%); stroke-width: 0.500000;stroke-linecap: round;stroke-linejoin: round;stroke-miterlimit: 10.000000;fill: none;"></path>
  <path d="M487.732254 200.267746C487.732254 199.206833,487.310745 198.189499,486.560623 197.439377C485.810501 196.689255,484.793167 196.267746,483.732254 196.267746C482.671341 196.267746,481.654007 196.689255,480.903885 197.439377C480.153763 198.189499,479.732254 199.206833,479.732254 200.267746C479.732254 201.328659,480.153763 202.345993,480.903885 203.096115C481.654007 203.846237,482.671341 204.267746,483.732254 204.267746C484.793167 204.267746,485.810501 203.846237,486.560623 203.096115C487.310745 202.345993,487.732254 201.328659,487.732254 200.267746Z" style="fill: rgb(89.999390%,0.000000%,0.000000%);stroke: none;"></path>
  <path d="M204.267746 200.267746C204.267746 199.206833,203.846237 198.189499,203.096115 197.439377C202.345993 196.689255,201.328659 196.267746,200.267746 196.267746C199.206833 196.267746,198.189499 196.689255,197.439377 197.439377C196.689255 198.189499,196.267746 199.206833,196.267746 200.267746C196.267746 201.328659,196.689255 202.345993,197.439377 203.096115C198.189499 203.846237,199.206833 204.267746,200.267746 204.267746C201.328659 204.267746,202.345993 203.846237,203.096115 203.096115C203.846237 202.345993,204.267746 201.328659,204.267746 200.267746Z" style="stroke:rgb(39.999390%,39.999390%,39.999390%); stroke-width: 0.500000;stroke-linecap: round;stroke-linejoin: round;stroke-miterlimit: 10.000000;fill: none;"></path>
  <path d="M204.267746 200.267746C204.267746 199.206833,203.846237 198.189499,203.096115 197.439377C202.345993 196.689255,201.328659 196.267746,200.267746 196.267746C199.206833 196.267746,198.189499 196.689255,197.439377 197.439377C196.689255 198.189499,196.267746 199.206833,196.267746 200.267746C196.267746 201.328659,196.689255 202.345993,197.439377 203.096115C198.189499 203.846237,199.206833 204.267746,200.267746 204.267746C201.328659 204.267746,202.345993 203.846237,203.096115 203.096115C203.846237 202.345993,204.267746 201.328659,204.267746 200.267746Z" style="fill: rgb(89.999390%,0.000000%,0.000000%);stroke: none;"></path>
  <path d="M346.000000 58.552795C346.000000 57.491882,345.578491 56.474548,344.828369 55.724426C344.078247 54.974304,343.060913 54.552795,342.000000 54.552795C340.939087 54.552795,339.921753 54.974304,339.171631 55.724426C338.421509 56.474548,338.000000 57.491882,338.000000 58.552795C338.000000 59.613708,338.421509 60.631042,339.171631 61.381165C339.921753 62.131287,340.939087 62.552795,342.000000 62.552795C343.060913 62.552795,344.078247 62.131287,344.828369 61.381165C345.578491 60.631042,346.000000 59.613708,346.000000 58.552795Z" style="stroke:rgb(39.999390%,39.999390%,39.999390%); stroke-width: 0.500000;stroke-linecap: round;stroke-linejoin: round;stroke-miterlimit: 10.000000;fill: none;"></path>
  <path d="M346.000000 58.552795C346.000000 57.491882,345.578491 56.474548,344.828369 55.724426C344.078247 54.974304,343.060913 54.552795,342.000000 54.552795C340.939087 54.552795,339.921753 54.974304,339.171631 55.724426C338.421509 56.474548,338.000000 57.491882,338.000000 58.552795C338.000000 59.613708,338.421509 60.631042,339.171631 61.381165C339.921753 62.131287,340.939087 62.552795,342.000000 62.552795C343.060913 62.552795,344.078247 62.131287,344.828369 61.381165C345.578491 60.631042,346.000000 59.613708,346.000000 58.552795Z" style="fill: rgb(0.000000%,50.000000%,0.000000%);stroke: none;"></path>
  <path d="M200.267746 200.267746L58.535492 58.535492" style="stroke:rgb(60.000610%,60.000610%,60.000610%); stroke-width: 1.500000;stroke-linecap: round;stroke-dasharray: 3.000000 3.000000 ;stroke-linejoin: round;stroke-miterlimit: 10.000000;fill: none;"></path>
  <path d="M204.267746 200.267746C204.267746 199.206833,203.846237 198.189499,203.096115 197.439377C202.345993 196.689255,201.328659 196.267746,200.267746 196.267746C199.206833 196.267746,198.189499 196.689255,197.439377 197.439377C196.689255 198.189499,196.267746 199.206833,196.267746 200.267746C196.267746 201.328659,196.689255 202.345993,197.439377 203.096115C198.189499 203.846237,199.206833 204.267746,200.267746 204.267746C201.328659 204.267746,202.345993 203.846237,203.096115 203.096115C203.846237 202.345993,204.267746 201.328659,204.267746 200.267746Z" style="stroke:rgb(39.999390%,39.999390%,39.999390%); stroke-width: 0.500000;stroke-linecap: round;stroke-linejoin: round;stroke-miterlimit: 10.000000;fill: none;"></path>
  <path d="M204.267746 200.267746C204.267746 199.206833,203.846237 198.189499,203.096115 197.439377C202.345993 196.689255,201.328659 196.267746,200.267746 196.267746C199.206833 196.267746,198.189499 196.689255,197.439377 197.439377C196.689255 198.189499,196.267746 199.206833,196.267746 200.267746C196.267746 201.328659,196.689255 202.345993,197.439377 203.096115C198.189499 203.846237,199.206833 204.267746,200.267746 204.267746C201.328659 204.267746,202.345993 203.846237,203.096115 203.096115C203.846237 202.345993,204.267746 201.328659,204.267746 200.267746Z" style="fill: rgb(89.999390%,0.000000%,0.000000%);stroke: none;"></path>
  <path d="M62.535492 58.535492C62.535492 57.474579,62.113983 56.457245,61.363861 55.707123C60.613739 54.957001,59.596405 54.535492,58.535492 54.535492C57.474579 54.535492,56.457245 54.957001,55.707123 55.707123C54.957001 56.457245,54.535492 57.474579,54.535492 58.535492C54.535492 59.596405,54.957001 60.613739,55.707123 61.363861C56.457245 62.113983,57.474579 62.535492,58.535492 62.535492C59.596405 62.535492,60.613739 62.113983,61.363861 61.363861C62.113983 60.613739,62.535492 59.596405,62.535492 58.535492Z" style="stroke:rgb(39.999390%,39.999390%,39.999390%); stroke-width: 0.500000;stroke-linecap: round;stroke-linejoin: round;stroke-miterlimit: 10.000000;fill: none;"></path>
  <path d="M62.535492 58.535492C62.535492 57.474579,62.113983 56.457245,61.363861 55.707123C60.613739 54.957001,59.596405 54.535492,58.535492 54.535492C57.474579 54.535492,56.457245 54.957001,55.707123 55.707123C54.957001 56.457245,54.535492 57.474579,54.535492 58.535492C54.535492 59.596405,54.957001 60.613739,55.707123 61.363861C56.457245 62.113983,57.474579 62.535492,58.535492 62.535492C59.596405 62.535492,60.613739 62.113983,61.363861 61.363861C62.113983 60.613739,62.535492 59.596405,62.535492 58.535492Z" style="fill: rgb(100.000000%,100.000000%,0.000000%);stroke: none;"></path>
</svg>
