<?xml version="1.0"?>
<!-- Created by MetaPost 2.00 on 2025.04.10:1556 -->
<svg version="1.1" xmlns="http://www.w3.org/2000/svg" xmlns:xlink="http://www.w3.org/1999/xlink" width="634.815857" height="918.280365" viewBox="0 0 634.815857 918.280365">
<!-- Original BoundingBox: -317.407928 -459.140182 317.407928 459.140182 -->
  <path d="M33.535492 742.464508L600.464508 742.464508L600.464508 175.535492L33.535492 175.535492L33.535492 742.464508Z" style="fill: rgb(100.000000%,100.000000%,100.000000%);stroke: none;"></path>
  <path d="M33.535492 742.464508L600.464508 742.464508" style="stroke:rgb(0.000000%,0.000000%,0.000000%); stroke-width: 1.000000;stroke-linecap: round;stroke-linejoin: round;stroke-miterlimit: 10.000000;fill: none;"></path>
  <path d="M600.464508 742.464508L600.464508 175.535492" style="stroke:rgb(0.000000%,0.000000%,0.000000%); stroke-width: 1.000000;stroke-linecap: round;stroke-linejoin: round;stroke-miterlimit: 10.000000;fill: none;"></path>
  <path d="M600.464508 175.535492L33.535492 175.535492" style="stroke:rgb(0.000000%,0.000000%,0.000000%); stroke-width: 1.000000;stroke-linecap: round;stroke-linejoin: round;stroke-miterlimit: 10.000000;fill: none;"></path>
  <path d="M33.535492 175.535492L33.535492 742.464508" style="stroke:rgb(0.000000%,0.000000%,0.000000%); stroke-width: 1.000000;stroke-linecap: round;stroke-linejoin: round;stroke-miterlimit: 10.000000;fill: none;"></path>
  <path d="M633.907928 317.267746C633.907928 233.214798,600.513062 152.614502,541.083145 93.184601C481.653244 33.754684,401.052948 0.359818,317.000000 0.359818C232.947052 0.359818,152.346756 33.754684,92.916855 93.184601C33.486938 152.614502,0.092072 233.214798,0.092072 317.267746C0.092072 401.320694,33.486938 481.920990,92.916855 541.350891C152.346756 600.780807,232.947052 634.175674,317.000000 634.175674C401.052948 634.175674,481.653244 600.780807,541.083145 541.350891C600.513062 481.920990,633.907928 401.320694,633.907928 317.267746Z" style="stroke:rgb(25.500488%,41.000366%,88.400269%); stroke-width: 1.000000;stroke-linecap: round;stroke-linejoin: round;stroke-miterlimit: 10.000000;fill: none;"></path>
  <path d="M633.907928 600.732254C633.907928 516.679306,600.513062 436.079010,541.083145 376.649109C481.653244 317.219193,401.052948 283.824326,317.000000 283.824326C232.947052 283.824326,152.346756 317.219193,92.916855 376.649109C33.486938 436.079010,0.092072 516.679306,0.092072 600.732254C0.092072 684.785202,33.486938 765.385498,92.916855 824.815399C152.346756 884.245316,232.947052 917.640182,317.000000 917.640182C401.052948 917.640182,481.653244 884.245316,541.083145 824.815399C600.513062 765.385498,633.907928 684.785202,633.907928 600.732254Z" style="stroke:rgb(25.500488%,41.000366%,88.400269%); stroke-width: 1.000000;stroke-linecap: round;stroke-linejoin: round;stroke-miterlimit: 10.000000;fill: none;"></path>
  <path d="M317.000000 317.267746L600.464508 175.535492" style="stroke:rgb(60.000610%,60.000610%,60.000610%); stroke-width: 1.500000;stroke-linecap: round;stroke-dasharray: 3.000000 3.000000 ;stroke-linejoin: round;stroke-miterlimit: 10.000000;fill: none;"></path>
  <path d="M321.000000 317.267746C321.000000 316.206833,320.578491 315.189499,319.828369 314.439377C319.078247 313.689255,318.060913 313.267746,317.000000 313.267746C315.939087 313.267746,314.921753 313.689255,314.171631 314.439377C313.421509 315.189499,313.000000 316.206833,313.000000 317.267746C313.000000 318.328659,313.421509 319.345993,314.171631 320.096115C314.921753 320.846237,315.939087 321.267746,317.000000 321.267746C318.060913 321.267746,319.078247 320.846237,319.828369 320.096115C320.578491 319.345993,321.000000 318.328659,321.000000 317.267746Z" style="stroke:rgb(39.999390%,39.999390%,39.999390%); stroke-width: 0.500000;stroke-linecap: round;stroke-linejoin: round;stroke-miterlimit: 10.000000;fill: none;"></path>
  <path d="M321.000000 317.267746C321.000000 316.206833,320.578491 315.189499,319.828369 314.439377C319.078247 313.689255,318.060913 313.267746,317.000000 313.267746C315.939087 313.267746,314.921753 313.689255,314.171631 314.439377C313.421509 315.189499,313.000000 316.206833,313.000000 317.267746C313.000000 318.328659,313.421509 319.345993,314.171631 320.096115C314.921753 320.846237,315.939087 321.267746,317.000000 321.267746C318.060913 321.267746,319.078247 320.846237,319.828369 320.096115C320.578491 319.345993,321.000000 318.328659,321.000000 317.267746Z" style="fill: rgb(89.999390%,0.000000%,0.000000%);stroke: none;"></path>
  <path d="M604.464508 175.535492C604.464508 174.474579,604.042999 173.457245,603.292877 172.707123C602.542755 171.957001,601.525421 171.535492,600.464508 171.535492C599.403595 171.535492,598.386261 171.957001,597.636139 172.707123C596.886017 173.457245,596.464508 174.474579,596.464508 175.535492C596.464508 176.596405,596.886017 177.613739,597.636139 178.363861C598.386261 179.113983,599.403595 179.535492,600.464508 179.535492C601.525421 179.535492,602.542755 179.113983,603.292877 178.363861C604.042999 177.613739,604.464508 176.596405,604.464508 175.535492Z" style="stroke:rgb(39.999390%,39.999390%,39.999390%); stroke-width: 0.500000;stroke-linecap: round;stroke-linejoin: round;stroke-miterlimit: 10.000000;fill: none;"></path>
  <path d="M604.464508 175.535492C604.464508 174.474579,604.042999 173.457245,603.292877 172.707123C602.542755 171.957001,601.525421 171.535492,600.464508 171.535492C599.403595 171.535492,598.386261 171.957001,597.636139 172.707123C596.886017 173.457245,596.464508 174.474579,596.464508 175.535492C596.464508 176.596405,596.886017 177.613739,597.636139 178.363861C598.386261 179.113983,599.403595 179.535492,600.464508 179.535492C601.525421 179.535492,602.542755 179.113983,603.292877 178.363861C604.042999 177.613739,604.464508 176.596405,604.464508 175.535492Z" style="fill: rgb(100.000000%,100.000000%,0.000000%);stroke: none;"></path>
  <path d="M317.000000 317.267746L33.535492 175.535492" style="stroke:rgb(60.000610%,60.000610%,60.000610%); stroke-width: 1.500000;stroke-linecap: round;stroke-dasharray: 3.000000 3.000000 ;stroke-linejoin: round;stroke-miterlimit: 10.000000;fill: none;"></path>
  <path d="M321.000000 317.267746C321.000000 316.206833,320.578491 315.189499,319.828369 314.439377C319.078247 313.689255,318.060913 313.267746,317.000000 313.267746C315.939087 313.267746,314.921753 313.689255,314.171631 314.439377C313.421509 315.189499,313.000000 316.206833,313.000000 317.267746C313.000000 318.328659,313.421509 319.345993,314.171631 320.096115C314.921753 320.846237,315.939087 321.267746,317.000000 321.267746C318.060913 321.267746,319.078247 320.846237,319.828369 320.096115C320.578491 319.345993,321.000000 318.328659,321.000000 317.267746Z" style="stroke:rgb(39.999390%,39.999390%,39.999390%); stroke-width: 0.500000;stroke-linecap: round;stroke-linejoin: round;stroke-miterlimit: 10.000000;fill: none;"></path>
  <path d="M321.000000 317.267746C321.000000 316.206833,320.578491 315.189499,319.828369 314.439377C319.078247 313.689255,318.060913 313.267746,317.000000 313.267746C315.939087 313.267746,314.921753 313.689255,314.171631 314.439377C313.421509 315.189499,313.000000 316.206833,313.000000 317.267746C313.000000 318.328659,313.421509 319.345993,314.171631 320.096115C314.921753 320.846237,315.939087 321.267746,317.000000 321.267746C318.060913 321.267746,319.078247 320.846237,319.828369 320.096115C320.578491 319.345993,321.000000 318.328659,321.000000 317.267746Z" style="fill: rgb(89.999390%,0.000000%,0.000000%);stroke: none;"></path>
  <path d="M37.535492 175.535492C37.535492 174.474579,37.113983 173.457245,36.363861 172.707123C35.613739 171.957001,34.596405 171.535492,33.535492 171.535492C32.474579 171.535492,31.457245 171.957001,30.707123 172.707123C29.957001 173.457245,29.535492 174.474579,29.535492 175.535492C29.535492 176.596405,29.957001 177.613739,30.707123 178.363861C31.457245 179.113983,32.474579 179.535492,33.535492 179.535492C34.596405 179.535492,35.613739 179.113983,36.363861 178.363861C37.113983 177.613739,37.535492 176.596405,37.535492 175.535492Z" style="stroke:rgb(39.999390%,39.999390%,39.999390%); stroke-width: 0.500000;stroke-linecap: round;stroke-linejoin: round;stroke-miterlimit: 10.000000;fill: none;"></path>
  <path d="M37.535492 175.535492C37.535492 174.474579,37.113983 173.457245,36.363861 172.707123C35.613739 171.957001,34.596405 171.535492,33.535492 171.535492C32.474579 171.535492,31.457245 171.957001,30.707123 172.707123C29.957001 173.457245,29.535492 174.474579,29.535492 175.535492C29.535492 176.596405,29.957001 177.613739,30.707123 178.363861C31.457245 179.113983,32.474579 179.535492,33.535492 179.535492C34.596405 179.535492,35.613739 179.113983,36.363861 178.363861C37.113983 177.613739,37.535492 176.596405,37.535492 175.535492Z" style="fill: rgb(100.000000%,100.000000%,0.000000%);stroke: none;"></path>
  <path d="M317.000000 317.267746L600.447205 459.000000" style="stroke:rgb(60.000610%,60.000610%,60.000610%); stroke-width: 1.500000;stroke-linecap: round;stroke-dasharray: 3.000000 3.000000 ;stroke-linejoin: round;stroke-miterlimit: 10.000000;fill: none;"></path>
  <path d="M317.000000 600.732254L600.447205 459.000000" style="stroke:rgb(60.000610%,60.000610%,60.000610%); stroke-width: 1.500000;stroke-linecap: round;stroke-dasharray: 3.000000 3.000000 ;stroke-linejoin: round;stroke-miterlimit: 10.000000;fill: none;"></path>
  <path d="M321.000000 317.267746C321.000000 316.206833,320.578491 315.189499,319.828369 314.439377C319.078247 313.689255,318.060913 313.267746,317.000000 313.267746C315.939087 313.267746,314.921753 313.689255,314.171631 314.439377C313.421509 315.189499,313.000000 316.206833,313.000000 317.267746C313.000000 318.328659,313.421509 319.345993,314.171631 320.096115C314.921753 320.846237,315.939087 321.267746,317.000000 321.267746C318.060913 321.267746,319.078247 320.846237,319.828369 320.096115C320.578491 319.345993,321.000000 318.328659,321.000000 317.267746Z" style="stroke:rgb(39.999390%,39.999390%,39.999390%); stroke-width: 0.500000;stroke-linecap: round;stroke-linejoin: round;stroke-miterlimit: 10.000000;fill: none;"></path>
  <path d="M321.000000 317.267746C321.000000 316.206833,320.578491 315.189499,319.828369 314.439377C319.078247 313.689255,318.060913 313.267746,317.000000 313.267746C315.939087 313.267746,314.921753 313.689255,314.171631 314.439377C313.421509 315.189499,313.000000 316.206833,313.000000 317.267746C313.000000 318.328659,313.421509 319.345993,314.171631 320.096115C314.921753 320.846237,315.939087 321.267746,317.000000 321.267746C318.060913 321.267746,319.078247 320.846237,319.828369 320.096115C320.578491 319.345993,321.000000 318.328659,321.000000 317.267746Z" style="fill: rgb(89.999390%,0.000000%,0.000000%);stroke: none;"></path>
  <path d="M321.000000 600.732254C321.000000 599.671341,320.578491 598.654007,319.828369 597.903885C319.078247 597.153763,318.060913 596.732254,317.000000 596.732254C315.939087 596.732254,314.921753 597.153763,314.171631 597.903885C313.421509 598.654007,313.000000 599.671341,313.000000 600.732254C313.000000 601.793167,313.421509 602.810501,314.171631 603.560623C314.921753 604.310745,315.939087 604.732254,317.000000 604.732254C318.060913 604.732254,319.078247 604.310745,319.828369 603.560623C320.578491 602.810501,321.000000 601.793167,321.000000 600.732254Z" style="stroke:rgb(39.999390%,39.999390%,39.999390%); stroke-width: 0.500000;stroke-linecap: round;stroke-linejoin: round;stroke-miterlimit: 10.000000;fill: none;"></path>
  <path d="M321.000000 600.732254C321.000000 599.671341,320.578491 598.654007,319.828369 597.903885C319.078247 597.153763,318.060913 596.732254,317.000000 596.732254C315.939087 596.732254,314.921753 597.153763,314.171631 597.903885C313.421509 598.654007,313.000000 599.671341,313.000000 600.732254C313.000000 601.793167,313.421509 602.810501,314.171631 603.560623C314.921753 604.310745,315.939087 604.732254,317.000000 604.732254C318.060913 604.732254,319.078247 604.310745,319.828369 603.560623C320.578491 602.810501,321.000000 601.793167,321.000000 600.732254Z" style="fill: rgb(89.999390%,0.000000%,0.000000%);stroke: none;"></path>
  <path d="M604.447205 459.000000C604.447205 457.939087,604.025696 456.921753,603.275574 456.171631C602.525452 455.421509,601.508118 455.000000,600.447205 455.000000C599.386292 455.000000,598.368958 455.421509,597.618835 456.171631C596.868713 456.921753,596.447205 457.939087,596.447205 459.000000C596.447205 460.060913,596.868713 461.078247,597.618835 461.828369C598.368958 462.578491,599.386292 463.000000,600.447205 463.000000C601.508118 463.000000,602.525452 462.578491,603.275574 461.828369C604.025696 461.078247,604.447205 460.060913,604.447205 459.000000Z" style="stroke:rgb(39.999390%,39.999390%,39.999390%); stroke-width: 0.500000;stroke-linecap: round;stroke-linejoin: round;stroke-miterlimit: 10.000000;fill: none;"></path>
  <path d="M604.447205 459.000000C604.447205 457.939087,604.025696 456.921753,603.275574 456.171631C602.525452 455.421509,601.508118 455.000000,600.447205 455.000000C599.386292 455.000000,598.368958 455.421509,597.618835 456.171631C596.868713 456.921753,596.447205 457.939087,596.447205 459.000000C596.447205 460.060913,596.868713 461.078247,597.618835 461.828369C598.368958 462.578491,599.386292 463.000000,600.447205 463.000000C601.508118 463.000000,602.525452 462.578491,603.275574 461.828369C604.025696 461.078247,604.447205 460.060913,604.447205 459.000000Z" style="fill: rgb(0.000000%,50.000000%,0.000000%);stroke: none;"></path>
  <path d="M317.000000 317.267746L33.552795 459.000000" style="stroke:rgb(60.000610%,60.000610%,60.000610%); stroke-width: 1.500000;stroke-linecap: round;stroke-dasharray: 3.000000 3.000000 ;stroke-linejoin: round;stroke-miterlimit: 10.000000;fill: none;"></path>
  <path d="M317.000000 600.732254L33.552795 459.000000" style="stroke:rgb(60.000610%,60.000610%,60.000610%); stroke-width: 1.500000;stroke-linecap: round;stroke-dasharray: 3.000000 3.000000 ;stroke-linejoin: round;stroke-miterlimit: 10.000000;fill: none;"></path>
  <path d="M321.000000 317.267746C321.000000 316.206833,320.578491 315.189499,319.828369 314.439377C319.078247 313.689255,318.060913 313.267746,317.000000 313.267746C315.939087 313.267746,314.921753 313.689255,314.171631 314.439377C313.421509 315.189499,313.000000 316.206833,313.000000 317.267746C313.000000 318.328659,313.421509 319.345993,314.171631 320.096115C314.921753 320.846237,315.939087 321.267746,317.000000 321.267746C318.060913 321.267746,319.078247 320.846237,319.828369 320.096115C320.578491 319.345993,321.000000 318.328659,321.000000 317.267746Z" style="stroke:rgb(39.999390%,39.999390%,39.999390%); stroke-width: 0.500000;stroke-linecap: round;stroke-linejoin: round;stroke-miterlimit: 10.000000;fill: none;"></path>
  <path d="M321.000000 317.267746C321.000000 316.206833,320.578491 315.189499,319.828369 314.439377C319.078247 313.689255,318.060913 313.267746,317.000000 313.267746C315.939087 313.267746,314.921753 313.689255,314.171631 314.439377C313.421509 315.189499,313.000000 316.206833,313.000000 317.267746C313.000000 318.328659,313.421509 319.345993,314.171631 320.096115C314.921753 320.846237,315.939087 321.267746,317.000000 321.267746C318.060913 321.267746,319.078247 320.846237,319.828369 320.096115C320.578491 319.345993,321.000000 318.328659,321.000000 317.267746Z" style="fill: rgb(89.999390%,0.000000%,0.000000%);stroke: none;"></path>
  <path d="M321.000000 600.732254C321.000000 599.671341,320.578491 598.654007,319.828369 597.903885C319.078247 597.153763,318.060913 596.732254,317.000000 596.732254C315.939087 596.732254,314.921753 597.153763,314.171631 597.903885C313.421509 598.654007,313.000000 599.671341,313.000000 600.732254C313.000000 601.793167,313.421509 602.810501,314.171631 603.560623C314.921753 604.310745,315.939087 604.732254,317.000000 604.732254C318.060913 604.732254,319.078247 604.310745,319.828369 603.560623C320.578491 602.810501,321.000000 601.793167,321.000000 600.732254Z" style="stroke:rgb(39.999390%,39.999390%,39.999390%); stroke-width: 0.500000;stroke-linecap: round;stroke-linejoin: round;stroke-miterlimit: 10.000000;fill: none;"></path>
  <path d="M321.000000 600.732254C321.000000 599.671341,320.578491 598.654007,319.828369 597.903885C319.078247 597.153763,318.060913 596.732254,317.000000 596.732254C315.939087 596.732254,314.921753 597.153763,314.171631 597.903885C313.421509 598.654007,313.000000 599.671341,313.000000 600.732254C313.000000 601.793167,313.421509 602.810501,314.171631 603.560623C314.921753 604.310745,315.939087 604.732254,317.000000 604.732254C318.060913 604.732254,319.078247 604.310745,319.828369 603.560623C320.578491 602.810501,321.000000 601.793167,321.000000 600.732254Z" style="fill: rgb(89.999390%,0.000000%,0.000000%);stroke: none;"></path>
  <path d="M37.552795 459.000000C37.552795 457.939087,37.131287 456.921753,36.381165 456.171631C35.631042 455.421509,34.613708 455.000000,33.552795 455.000000C32.491882 455.000000,31.474548 455.421509,30.724426 456.171631C29.974304 456.921753,29.552795 457.939087,29.552795 459.000000C29.552795 460.060913,29.974304 461.078247,30.724426 461.828369C31.474548 462.578491,32.491882 463.000000,33.552795 463.000000C34.613708 463.000000,35.631042 462.578491,36.381165 461.828369C37.131287 461.078247,37.552795 460.060913,37.552795 459.000000Z" style="stroke:rgb(39.999390%,39.999390%,39.999390%); stroke-width: 0.500000;stroke-linecap: round;stroke-linejoin: round;stroke-miterlimit: 10.000000;fill: none;"></path>
  <path d="M37.552795 459.000000C37.552795 457.939087,37.131287 456.921753,36.381165 456.171631C35.631042 455.421509,34.613708 455.000000,33.552795 455.000000C32.491882 455.000000,31.474548 455.421509,30.724426 456.171631C29.974304 456.921753,29.552795 457.939087,29.552795 459.000000C29.552795 460.060913,29.974304 461.078247,30.724426 461.828369C31.474548 462.578491,32.491882 463.000000,33.552795 463.000000C34.613708 463.000000,35.631042 462.578491,36.381165 461.828369C37.131287 461.078247,37.552795 460.060913,37.552795 459.000000Z" style="fill: rgb(0.000000%,50.000000%,0.000000%);stroke: none;"></path>
  <path d="M317.000000 600.732254L33.535492 742.464508" style="stroke:rgb(60.000610%,60.000610%,60.000610%); stroke-width: 1.500000;stroke-linecap: round;stroke-dasharray: 3.000000 3.000000 ;stroke-linejoin: round;stroke-miterlimit: 10.000000;fill: none;"></path>
  <path d="M321.000000 600.732254C321.000000 599.671341,320.578491 598.654007,319.828369 597.903885C319.078247 597.153763,318.060913 596.732254,317.000000 596.732254C315.939087 596.732254,314.921753 597.153763,314.171631 597.903885C313.421509 598.654007,313.000000 599.671341,313.000000 600.732254C313.000000 601.793167,313.421509 602.810501,314.171631 603.560623C314.921753 604.310745,315.939087 604.732254,317.000000 604.732254C318.060913 604.732254,319.078247 604.310745,319.828369 603.560623C320.578491 602.810501,321.000000 601.793167,321.000000 600.732254Z" style="stroke:rgb(39.999390%,39.999390%,39.999390%); stroke-width: 0.500000;stroke-linecap: round;stroke-linejoin: round;stroke-miterlimit: 10.000000;fill: none;"></path>
  <path d="M321.000000 600.732254C321.000000 599.671341,320.578491 598.654007,319.828369 597.903885C319.078247 597.153763,318.060913 596.732254,317.000000 596.732254C315.939087 596.732254,314.921753 597.153763,314.171631 597.903885C313.421509 598.654007,313.000000 599.671341,313.000000 600.732254C313.000000 601.793167,313.421509 602.810501,314.171631 603.560623C314.921753 604.310745,315.939087 604.732254,317.000000 604.732254C318.060913 604.732254,319.078247 604.310745,319.828369 603.560623C320.578491 602.810501,321.000000 601.793167,321.000000 600.732254Z" style="fill: rgb(89.999390%,0.000000%,0.000000%);stroke: none;"></path>
  <path d="M37.535492 742.464508C37.535492 741.403595,37.113983 740.386261,36.363861 739.636139C35.613739 738.886017,34.596405 738.464508,33.535492 738.464508C32.474579 738.464508,31.457245 738.886017,30.707123 739.636139C29.957001 740.386261,29.535492 741.403595,29.535492 742.464508C29.535492 743.525421,29.957001 744.542755,30.707123 745.292877C31.457245 746.042999,32.474579 746.464508,33.535492 746.464508C34.596405 746.464508,35.613739 746.042999,36.363861 745.292877C37.113983 744.542755,37.535492 743.525421,37.535492 742.464508Z" style="stroke:rgb(39.999390%,39.999390%,39.999390%); stroke-width: 0.500000;stroke-linecap: round;stroke-linejoin: round;stroke-miterlimit: 10.000000;fill: none;"></path>
  <path d="M37.535492 742.464508C37.535492 741.403595,37.113983 740.386261,36.363861 739.636139C35.613739 738.886017,34.596405 738.464508,33.535492 738.464508C32.474579 738.464508,31.457245 738.886017,30.707123 739.636139C29.957001 740.386261,29.535492 741.403595,29.535492 742.464508C29.535492 743.525421,29.957001 744.542755,30.707123 745.292877C31.457245 746.042999,32.474579 746.464508,33.535492 746.464508C34.596405 746.464508,35.613739 746.042999,36.363861 745.292877C37.113983 744.542755,37.535492 743.525421,37.535492 742.464508Z" style="fill: rgb(100.000000%,100.000000%,0.000000%);stroke: none;"></path>
  <path d="M317.000000 600.732254L600.464508 742.464508" style="stroke:rgb(60.000610%,60.000610%,60.000610%); stroke-width: 1.500000;stroke-linecap: round;stroke-dasharray: 3.000000 3.000000 ;stroke-linejoin: round;stroke-miterlimit: 10.000000;fill: none;"></path>
  <path d="M321.000000 600.732254C321.000000 599.671341,320.578491 598.654007,319.828369 597.903885C319.078247 597.153763,318.060913 596.732254,317.000000 596.732254C315.939087 596.732254,314.921753 597.153763,314.171631 597.903885C313.421509 598.654007,313.000000 599.671341,313.000000 600.732254C313.000000 601.793167,313.421509 602.810501,314.171631 603.560623C314.921753 604.310745,315.939087 604.732254,317.000000 604.732254C318.060913 604.732254,319.078247 604.310745,319.828369 603.560623C320.578491 602.810501,321.000000 601.793167,321.000000 600.732254Z" style="stroke:rgb(39.999390%,39.999390%,39.999390%); stroke-width: 0.500000;stroke-linecap: round;stroke-linejoin: round;stroke-miterlimit: 10.000000;fill: none;"></path>
  <path d="M321.000000 600.732254C321.000000 599.671341,320.578491 598.654007,319.828369 597.903885C319.078247 597.153763,318.060913 596.732254,317.000000 596.732254C315.939087 596.732254,314.921753 597.153763,314.171631 597.903885C313.421509 598.654007,313.000000 599.671341,313.000000 600.732254C313.000000 601.793167,313.421509 602.810501,314.171631 603.560623C314.921753 604.310745,315.939087 604.732254,317.000000 604.732254C318.060913 604.732254,319.078247 604.310745,319.828369 603.560623C320.578491 602.810501,321.000000 601.793167,321.000000 600.732254Z" style="fill: rgb(89.999390%,0.000000%,0.000000%);stroke: none;"></path>
  <path d="M604.464508 742.464508C604.464508 741.403595,604.042999 740.386261,603.292877 739.636139C602.542755 738.886017,601.525421 738.464508,600.464508 738.464508C599.403595 738.464508,598.386261 738.886017,597.636139 739.636139C596.886017 740.386261,596.464508 741.403595,596.464508 742.464508C596.464508 743.525421,596.886017 744.542755,597.636139 745.292877C598.386261 746.042999,599.403595 746.464508,600.464508 746.464508C601.525421 746.464508,602.542755 746.042999,603.292877 745.292877C604.042999 744.542755,604.464508 743.525421,604.464508 742.464508Z" style="stroke:rgb(39.999390%,39.999390%,39.999390%); stroke-width: 0.500000;stroke-linecap: round;stroke-linejoin: round;stroke-miterlimit: 10.000000;fill: none;"></path>
  <path d="M604.464508 742.464508C604.464508 741.403595,604.042999 740.386261,603.292877 739.636139C602.542755 738.886017,601.525421 738.464508,600.464508 738.464508C599.403595 738.464508,598.386261 738.886017,597.636139 739.636139C596.886017 740.386261,596.464508 741.403595,596.464508 742.464508C596.464508 743.525421,596.886017 744.542755,597.636139 745.292877C598.386261 746.042999,599.403595 746.464508,600.464508 746.464508C601.525421 746.464508,602.542755 746.042999,603.292877 745.292877C604.042999 744.542755,604.464508 743.525421,604.464508 742.464508Z" style="fill: rgb(100.000000%,100.000000%,0.000000%);stroke: none;"></path>
</svg>
