<?xml version="1.0"?>
<!-- Created by MetaPost 2.00 on 2025.04.10:1556 -->
<svg version="1.1" xmlns="http://www.w3.org/2000/svg" xmlns:xlink="http://www.w3.org/1999/xlink" width="855.805359" height="855.788055" viewBox="0 0 855.805359 855.788055">
<!-- Original BoundingBox: -427.902679 -321.603485 427.902679 534.184570 -->
  <path d="M143.535492 817.464508L710.464508 817.464508L710.464508 250.535492L143.535492 250.535492L143.535492 817.464508Z" style="fill: rgb(100.000000%,100.000000%,100.000000%);stroke: none;"></path>
  <path d="M143.535492 817.464508L710.464508 817.464508" style="stroke:rgb(0.000000%,0.000000%,0.000000%); stroke-width: 1.000000;stroke-linecap: round;stroke-linejoin: round;stroke-miterlimit: 10.000000;fill: none;"></path>
  <path d="M710.464508 817.464508L710.464508 250.535492" style="stroke:rgb(0.000000%,0.000000%,0.000000%); stroke-width: 1.000000;stroke-linecap: round;stroke-linejoin: round;stroke-miterlimit: 10.000000;fill: none;"></path>
  <path d="M710.464508 250.535492L143.535492 250.535492" style="stroke:rgb(0.000000%,0.000000%,0.000000%); stroke-width: 1.000000;stroke-linecap: round;stroke-linejoin: round;stroke-miterlimit: 10.000000;fill: none;"></path>
  <path d="M143.535492 250.535492L143.535492 817.464508" style="stroke:rgb(0.000000%,0.000000%,0.000000%); stroke-width: 1.000000;stroke-linecap: round;stroke-linejoin: round;stroke-miterlimit: 10.000000;fill: none;"></path>
  <path d="M570.920868 569.441711C570.920868 493.676132,540.818634 421.022781,487.248337 367.452469C433.678024 313.882172,361.024673 283.779938,285.259094 283.779938C209.493515 283.779938,136.840164 313.882172,83.269852 367.452469C29.699554 421.022781,-0.402679 493.676132,-0.402679 569.441711C-0.402679 645.207291,29.699554 717.860641,83.269852 771.430954C136.840164 825.001251,209.493515 855.103485,285.259094 855.103485C361.024673 855.103485,433.678024 825.001251,487.248337 771.430954C540.818634 717.860641,570.920868 645.207291,570.920868 569.441711Z" style="stroke:rgb(25.500488%,41.000366%,88.400269%); stroke-width: 1.000000;stroke-linecap: round;stroke-linejoin: round;stroke-miterlimit: 10.000000;fill: none;"></path>
  <path d="M854.402679 569.441711C854.402679 493.676132,824.300446 421.022781,770.730148 367.452469C717.159836 313.882172,644.506485 283.779938,568.740906 283.779938C492.975327 283.779938,420.321976 313.882172,366.751663 367.452469C313.181366 421.022781,283.079132 493.676132,283.079132 569.441711C283.079132 645.207291,313.181366 717.860641,366.751663 771.430954C420.321976 825.001251,492.975327 855.103485,568.740906 855.103485C644.506485 855.103485,717.159836 825.001251,770.730148 771.430954C824.300446 717.860641,854.402679 645.207291,854.402679 569.441711Z" style="stroke:rgb(25.500488%,41.000366%,88.400269%); stroke-width: 1.000000;stroke-linecap: round;stroke-linejoin: round;stroke-miterlimit: 10.000000;fill: none;"></path>
  <path d="M712.661774 285.977203C712.661774 210.211624,682.559540 137.558273,628.989243 83.987961C575.418930 30.417664,502.765579 0.315430,427.000000 0.315430C351.234421 0.315430,278.581070 30.417664,225.010757 83.987961C171.440460 137.558273,141.338226 210.211624,141.338226 285.977203C141.338226 361.742783,171.440460 434.396133,225.010757 487.966446C278.581070 541.536743,351.234421 571.638977,427.000000 571.638977C502.765579 571.638977,575.418930 541.536743,628.989243 487.966446C682.559540 434.396133,712.661774 361.742783,712.661774 285.977203Z" style="stroke:rgb(25.500488%,41.000366%,88.400269%); stroke-width: 1.000000;stroke-linecap: round;stroke-linejoin: round;stroke-miterlimit: 10.000000;fill: none;"></path>
  <path d="M285.259094 569.441711L143.535492 817.464508" style="stroke:rgb(60.000610%,60.000610%,60.000610%); stroke-width: 1.500000;stroke-linecap: round;stroke-dasharray: 3.000000 3.000000 ;stroke-linejoin: round;stroke-miterlimit: 10.000000;fill: none;"></path>
  <path d="M289.259094 569.441711C289.259094 568.380798,288.837585 567.363464,288.087463 566.613342C287.337341 565.863220,286.320007 565.441711,285.259094 565.441711C284.198181 565.441711,283.180847 565.863220,282.430725 566.613342C281.680603 567.363464,281.259094 568.380798,281.259094 569.441711C281.259094 570.502625,281.680603 571.519958,282.430725 572.270081C283.180847 573.020203,284.198181 573.441711,285.259094 573.441711C286.320007 573.441711,287.337341 573.020203,288.087463 572.270081C288.837585 571.519958,289.259094 570.502625,289.259094 569.441711Z" style="stroke:rgb(39.999390%,39.999390%,39.999390%); stroke-width: 0.500000;stroke-linecap: round;stroke-linejoin: round;stroke-miterlimit: 10.000000;fill: none;"></path>
  <path d="M289.259094 569.441711C289.259094 568.380798,288.837585 567.363464,288.087463 566.613342C287.337341 565.863220,286.320007 565.441711,285.259094 565.441711C284.198181 565.441711,283.180847 565.863220,282.430725 566.613342C281.680603 567.363464,281.259094 568.380798,281.259094 569.441711C281.259094 570.502625,281.680603 571.519958,282.430725 572.270081C283.180847 573.020203,284.198181 573.441711,285.259094 573.441711C286.320007 573.441711,287.337341 573.020203,288.087463 572.270081C288.837585 571.519958,289.259094 570.502625,289.259094 569.441711Z" style="fill: rgb(89.999390%,0.000000%,0.000000%);stroke: none;"></path>
  <path d="M147.535492 817.464508C147.535492 816.403595,147.113983 815.386261,146.363861 814.636139C145.613739 813.886017,144.596405 813.464508,143.535492 813.464508C142.474579 813.464508,141.457245 813.886017,140.707123 814.636139C139.957001 815.386261,139.535492 816.403595,139.535492 817.464508C139.535492 818.525421,139.957001 819.542755,140.707123 820.292877C141.457245 821.042999,142.474579 821.464508,143.535492 821.464508C144.596405 821.464508,145.613739 821.042999,146.363861 820.292877C147.113983 819.542755,147.535492 818.525421,147.535492 817.464508Z" style="stroke:rgb(39.999390%,39.999390%,39.999390%); stroke-width: 0.500000;stroke-linecap: round;stroke-linejoin: round;stroke-miterlimit: 10.000000;fill: none;"></path>
  <path d="M147.535492 817.464508C147.535492 816.403595,147.113983 815.386261,146.363861 814.636139C145.613739 813.886017,144.596405 813.464508,143.535492 813.464508C142.474579 813.464508,141.457245 813.886017,140.707123 814.636139C139.957001 815.386261,139.535492 816.403595,139.535492 817.464508C139.535492 818.525421,139.957001 819.542755,140.707123 820.292877C141.457245 821.042999,142.474579 821.464508,143.535492 821.464508C144.596405 821.464508,145.613739 821.042999,146.363861 820.292877C147.113983 819.542755,147.535492 818.525421,147.535492 817.464508Z" style="fill: rgb(100.000000%,100.000000%,0.000000%);stroke: none;"></path>
  <path d="M285.259094 569.441711L427.000000 817.455856" style="stroke:rgb(60.000610%,60.000610%,60.000610%); stroke-width: 1.500000;stroke-linecap: round;stroke-dasharray: 3.000000 3.000000 ;stroke-linejoin: round;stroke-miterlimit: 10.000000;fill: none;"></path>
  <path d="M568.740906 569.441711L427.000000 817.455856" style="stroke:rgb(60.000610%,60.000610%,60.000610%); stroke-width: 1.500000;stroke-linecap: round;stroke-dasharray: 3.000000 3.000000 ;stroke-linejoin: round;stroke-miterlimit: 10.000000;fill: none;"></path>
  <path d="M289.259094 569.441711C289.259094 568.380798,288.837585 567.363464,288.087463 566.613342C287.337341 565.863220,286.320007 565.441711,285.259094 565.441711C284.198181 565.441711,283.180847 565.863220,282.430725 566.613342C281.680603 567.363464,281.259094 568.380798,281.259094 569.441711C281.259094 570.502625,281.680603 571.519958,282.430725 572.270081C283.180847 573.020203,284.198181 573.441711,285.259094 573.441711C286.320007 573.441711,287.337341 573.020203,288.087463 572.270081C288.837585 571.519958,289.259094 570.502625,289.259094 569.441711Z" style="stroke:rgb(39.999390%,39.999390%,39.999390%); stroke-width: 0.500000;stroke-linecap: round;stroke-linejoin: round;stroke-miterlimit: 10.000000;fill: none;"></path>
  <path d="M289.259094 569.441711C289.259094 568.380798,288.837585 567.363464,288.087463 566.613342C287.337341 565.863220,286.320007 565.441711,285.259094 565.441711C284.198181 565.441711,283.180847 565.863220,282.430725 566.613342C281.680603 567.363464,281.259094 568.380798,281.259094 569.441711C281.259094 570.502625,281.680603 571.519958,282.430725 572.270081C283.180847 573.020203,284.198181 573.441711,285.259094 573.441711C286.320007 573.441711,287.337341 573.020203,288.087463 572.270081C288.837585 571.519958,289.259094 570.502625,289.259094 569.441711Z" style="fill: rgb(89.999390%,0.000000%,0.000000%);stroke: none;"></path>
  <path d="M572.740906 569.441711C572.740906 568.380798,572.319397 567.363464,571.569275 566.613342C570.819153 565.863220,569.801819 565.441711,568.740906 565.441711C567.679993 565.441711,566.662659 565.863220,565.912537 566.613342C565.162415 567.363464,564.740906 568.380798,564.740906 569.441711C564.740906 570.502625,565.162415 571.519958,565.912537 572.270081C566.662659 573.020203,567.679993 573.441711,568.740906 573.441711C569.801819 573.441711,570.819153 573.020203,571.569275 572.270081C572.319397 571.519958,572.740906 570.502625,572.740906 569.441711Z" style="stroke:rgb(39.999390%,39.999390%,39.999390%); stroke-width: 0.500000;stroke-linecap: round;stroke-linejoin: round;stroke-miterlimit: 10.000000;fill: none;"></path>
  <path d="M572.740906 569.441711C572.740906 568.380798,572.319397 567.363464,571.569275 566.613342C570.819153 565.863220,569.801819 565.441711,568.740906 565.441711C567.679993 565.441711,566.662659 565.863220,565.912537 566.613342C565.162415 567.363464,564.740906 568.380798,564.740906 569.441711C564.740906 570.502625,565.162415 571.519958,565.912537 572.270081C566.662659 573.020203,567.679993 573.441711,568.740906 573.441711C569.801819 573.441711,570.819153 573.020203,571.569275 572.270081C572.319397 571.519958,572.740906 570.502625,572.740906 569.441711Z" style="fill: rgb(89.999390%,0.000000%,0.000000%);stroke: none;"></path>
  <path d="M431.000000 817.455856C431.000000 816.394943,430.578491 815.377609,429.828369 814.627487C429.078247 813.877365,428.060913 813.455856,427.000000 813.455856C425.939087 813.455856,424.921753 813.877365,424.171631 814.627487C423.421509 815.377609,423.000000 816.394943,423.000000 817.455856C423.000000 818.516769,423.421509 819.534103,424.171631 820.284225C424.921753 821.034348,425.939087 821.455856,427.000000 821.455856C428.060913 821.455856,429.078247 821.034348,429.828369 820.284225C430.578491 819.534103,431.000000 818.516769,431.000000 817.455856Z" style="stroke:rgb(39.999390%,39.999390%,39.999390%); stroke-width: 0.500000;stroke-linecap: round;stroke-linejoin: round;stroke-miterlimit: 10.000000;fill: none;"></path>
  <path d="M431.000000 817.455856C431.000000 816.394943,430.578491 815.377609,429.828369 814.627487C429.078247 813.877365,428.060913 813.455856,427.000000 813.455856C425.939087 813.455856,424.921753 813.877365,424.171631 814.627487C423.421509 815.377609,423.000000 816.394943,423.000000 817.455856C423.000000 818.516769,423.421509 819.534103,424.171631 820.284225C424.921753 821.034348,425.939087 821.455856,427.000000 821.455856C428.060913 821.455856,429.078247 821.034348,429.828369 820.284225C430.578491 819.534103,431.000000 818.516769,431.000000 817.455856Z" style="fill: rgb(0.000000%,50.000000%,0.000000%);stroke: none;"></path>
  <path d="M285.259094 569.441711L143.544144 321.410263" style="stroke:rgb(60.000610%,60.000610%,60.000610%); stroke-width: 1.500000;stroke-linecap: round;stroke-dasharray: 3.000000 3.000000 ;stroke-linejoin: round;stroke-miterlimit: 10.000000;fill: none;"></path>
  <path d="M427.000000 285.977203L143.544144 321.410263" style="stroke:rgb(60.000610%,60.000610%,60.000610%); stroke-width: 1.500000;stroke-linecap: round;stroke-dasharray: 3.000000 3.000000 ;stroke-linejoin: round;stroke-miterlimit: 10.000000;fill: none;"></path>
  <path d="M289.259094 569.441711C289.259094 568.380798,288.837585 567.363464,288.087463 566.613342C287.337341 565.863220,286.320007 565.441711,285.259094 565.441711C284.198181 565.441711,283.180847 565.863220,282.430725 566.613342C281.680603 567.363464,281.259094 568.380798,281.259094 569.441711C281.259094 570.502625,281.680603 571.519958,282.430725 572.270081C283.180847 573.020203,284.198181 573.441711,285.259094 573.441711C286.320007 573.441711,287.337341 573.020203,288.087463 572.270081C288.837585 571.519958,289.259094 570.502625,289.259094 569.441711Z" style="stroke:rgb(39.999390%,39.999390%,39.999390%); stroke-width: 0.500000;stroke-linecap: round;stroke-linejoin: round;stroke-miterlimit: 10.000000;fill: none;"></path>
  <path d="M289.259094 569.441711C289.259094 568.380798,288.837585 567.363464,288.087463 566.613342C287.337341 565.863220,286.320007 565.441711,285.259094 565.441711C284.198181 565.441711,283.180847 565.863220,282.430725 566.613342C281.680603 567.363464,281.259094 568.380798,281.259094 569.441711C281.259094 570.502625,281.680603 571.519958,282.430725 572.270081C283.180847 573.020203,284.198181 573.441711,285.259094 573.441711C286.320007 573.441711,287.337341 573.020203,288.087463 572.270081C288.837585 571.519958,289.259094 570.502625,289.259094 569.441711Z" style="fill: rgb(89.999390%,0.000000%,0.000000%);stroke: none;"></path>
  <path d="M431.000000 285.977203C431.000000 284.916290,430.578491 283.898956,429.828369 283.148834C429.078247 282.398712,428.060913 281.977203,427.000000 281.977203C425.939087 281.977203,424.921753 282.398712,424.171631 283.148834C423.421509 283.898956,423.000000 284.916290,423.000000 285.977203C423.000000 287.038116,423.421509 288.055450,424.171631 288.805573C424.921753 289.555695,425.939087 289.977203,427.000000 289.977203C428.060913 289.977203,429.078247 289.555695,429.828369 288.805573C430.578491 288.055450,431.000000 287.038116,431.000000 285.977203Z" style="stroke:rgb(39.999390%,39.999390%,39.999390%); stroke-width: 0.500000;stroke-linecap: round;stroke-linejoin: round;stroke-miterlimit: 10.000000;fill: none;"></path>
  <path d="M431.000000 285.977203C431.000000 284.916290,430.578491 283.898956,429.828369 283.148834C429.078247 282.398712,428.060913 281.977203,427.000000 281.977203C425.939087 281.977203,424.921753 282.398712,424.171631 283.148834C423.421509 283.898956,423.000000 284.916290,423.000000 285.977203C423.000000 287.038116,423.421509 288.055450,424.171631 288.805573C424.921753 289.555695,425.939087 289.977203,427.000000 289.977203C428.060913 289.977203,429.078247 289.555695,429.828369 288.805573C430.578491 288.055450,431.000000 287.038116,431.000000 285.977203Z" style="fill: rgb(89.999390%,0.000000%,0.000000%);stroke: none;"></path>
  <path d="M147.544144 321.410263C147.544144 320.349350,147.122635 319.332016,146.372513 318.581894C145.622391 317.831772,144.605057 317.410263,143.544144 317.410263C142.483231 317.410263,141.465897 317.831772,140.715775 318.581894C139.965652 319.332016,139.544144 320.349350,139.544144 321.410263C139.544144 322.471176,139.965652 323.488510,140.715775 324.238632C141.465897 324.988754,142.483231 325.410263,143.544144 325.410263C144.605057 325.410263,145.622391 324.988754,146.372513 324.238632C147.122635 323.488510,147.544144 322.471176,147.544144 321.410263Z" style="stroke:rgb(39.999390%,39.999390%,39.999390%); stroke-width: 0.500000;stroke-linecap: round;stroke-linejoin: round;stroke-miterlimit: 10.000000;fill: none;"></path>
  <path d="M147.544144 321.410263C147.544144 320.349350,147.122635 319.332016,146.372513 318.581894C145.622391 317.831772,144.605057 317.410263,143.544144 317.410263C142.483231 317.410263,141.465897 317.831772,140.715775 318.581894C139.965652 319.332016,139.544144 320.349350,139.544144 321.410263C139.544144 322.471176,139.965652 323.488510,140.715775 324.238632C141.465897 324.988754,142.483231 325.410263,143.544144 325.410263C144.605057 325.410263,145.622391 324.988754,146.372513 324.238632C147.122635 323.488510,147.544144 322.471176,147.544144 321.410263Z" style="fill: rgb(0.000000%,50.000000%,0.000000%);stroke: none;"></path>
  <path d="M568.740906 569.441711L710.464508 817.464508" style="stroke:rgb(60.000610%,60.000610%,60.000610%); stroke-width: 1.500000;stroke-linecap: round;stroke-dasharray: 3.000000 3.000000 ;stroke-linejoin: round;stroke-miterlimit: 10.000000;fill: none;"></path>
  <path d="M572.740906 569.441711C572.740906 568.380798,572.319397 567.363464,571.569275 566.613342C570.819153 565.863220,569.801819 565.441711,568.740906 565.441711C567.679993 565.441711,566.662659 565.863220,565.912537 566.613342C565.162415 567.363464,564.740906 568.380798,564.740906 569.441711C564.740906 570.502625,565.162415 571.519958,565.912537 572.270081C566.662659 573.020203,567.679993 573.441711,568.740906 573.441711C569.801819 573.441711,570.819153 573.020203,571.569275 572.270081C572.319397 571.519958,572.740906 570.502625,572.740906 569.441711Z" style="stroke:rgb(39.999390%,39.999390%,39.999390%); stroke-width: 0.500000;stroke-linecap: round;stroke-linejoin: round;stroke-miterlimit: 10.000000;fill: none;"></path>
  <path d="M572.740906 569.441711C572.740906 568.380798,572.319397 567.363464,571.569275 566.613342C570.819153 565.863220,569.801819 565.441711,568.740906 565.441711C567.679993 565.441711,566.662659 565.863220,565.912537 566.613342C565.162415 567.363464,564.740906 568.380798,564.740906 569.441711C564.740906 570.502625,565.162415 571.519958,565.912537 572.270081C566.662659 573.020203,567.679993 573.441711,568.740906 573.441711C569.801819 573.441711,570.819153 573.020203,571.569275 572.270081C572.319397 571.519958,572.740906 570.502625,572.740906 569.441711Z" style="fill: rgb(89.999390%,0.000000%,0.000000%);stroke: none;"></path>
  <path d="M714.464508 817.464508C714.464508 816.403595,714.042999 815.386261,713.292877 814.636139C712.542755 813.886017,711.525421 813.464508,710.464508 813.464508C709.403595 813.464508,708.386261 813.886017,707.636139 814.636139C706.886017 815.386261,706.464508 816.403595,706.464508 817.464508C706.464508 818.525421,706.886017 819.542755,707.636139 820.292877C708.386261 821.042999,709.403595 821.464508,710.464508 821.464508C711.525421 821.464508,712.542755 821.042999,713.292877 820.292877C714.042999 819.542755,714.464508 818.525421,714.464508 817.464508Z" style="stroke:rgb(39.999390%,39.999390%,39.999390%); stroke-width: 0.500000;stroke-linecap: round;stroke-linejoin: round;stroke-miterlimit: 10.000000;fill: none;"></path>
  <path d="M714.464508 817.464508C714.464508 816.403595,714.042999 815.386261,713.292877 814.636139C712.542755 813.886017,711.525421 813.464508,710.464508 813.464508C709.403595 813.464508,708.386261 813.886017,707.636139 814.636139C706.886017 815.386261,706.464508 816.403595,706.464508 817.464508C706.464508 818.525421,706.886017 819.542755,707.636139 820.292877C708.386261 821.042999,709.403595 821.464508,710.464508 821.464508C711.525421 821.464508,712.542755 821.042999,713.292877 820.292877C714.042999 819.542755,714.464508 818.525421,714.464508 817.464508Z" style="fill: rgb(100.000000%,100.000000%,0.000000%);stroke: none;"></path>
  <path d="M568.740906 569.441711L710.455856 321.410263" style="stroke:rgb(60.000610%,60.000610%,60.000610%); stroke-width: 1.500000;stroke-linecap: round;stroke-dasharray: 3.000000 3.000000 ;stroke-linejoin: round;stroke-miterlimit: 10.000000;fill: none;"></path>
  <path d="M427.000000 285.977203L710.455856 321.410263" style="stroke:rgb(60.000610%,60.000610%,60.000610%); stroke-width: 1.500000;stroke-linecap: round;stroke-dasharray: 3.000000 3.000000 ;stroke-linejoin: round;stroke-miterlimit: 10.000000;fill: none;"></path>
  <path d="M572.740906 569.441711C572.740906 568.380798,572.319397 567.363464,571.569275 566.613342C570.819153 565.863220,569.801819 565.441711,568.740906 565.441711C567.679993 565.441711,566.662659 565.863220,565.912537 566.613342C565.162415 567.363464,564.740906 568.380798,564.740906 569.441711C564.740906 570.502625,565.162415 571.519958,565.912537 572.270081C566.662659 573.020203,567.679993 573.441711,568.740906 573.441711C569.801819 573.441711,570.819153 573.020203,571.569275 572.270081C572.319397 571.519958,572.740906 570.502625,572.740906 569.441711Z" style="stroke:rgb(39.999390%,39.999390%,39.999390%); stroke-width: 0.500000;stroke-linecap: round;stroke-linejoin: round;stroke-miterlimit: 10.000000;fill: none;"></path>
  <path d="M572.740906 569.441711C572.740906 568.380798,572.319397 567.363464,571.569275 566.613342C570.819153 565.863220,569.801819 565.441711,568.740906 565.441711C567.679993 565.441711,566.662659 565.863220,565.912537 566.613342C565.162415 567.363464,564.740906 568.380798,564.740906 569.441711C564.740906 570.502625,565.162415 571.519958,565.912537 572.270081C566.662659 573.020203,567.679993 573.441711,568.740906 573.441711C569.801819 573.441711,570.819153 573.020203,571.569275 572.270081C572.319397 571.519958,572.740906 570.502625,572.740906 569.441711Z" style="fill: rgb(89.999390%,0.000000%,0.000000%);stroke: none;"></path>
  <path d="M431.000000 285.977203C431.000000 284.916290,430.578491 283.898956,429.828369 283.148834C429.078247 282.398712,428.060913 281.977203,427.000000 281.977203C425.939087 281.977203,424.921753 282.398712,424.171631 283.148834C423.421509 283.898956,423.000000 284.916290,423.000000 285.977203C423.000000 287.038116,423.421509 288.055450,424.171631 288.805573C424.921753 289.555695,425.939087 289.977203,427.000000 289.977203C428.060913 289.977203,429.078247 289.555695,429.828369 288.805573C430.578491 288.055450,431.000000 287.038116,431.000000 285.977203Z" style="stroke:rgb(39.999390%,39.999390%,39.999390%); stroke-width: 0.500000;stroke-linecap: round;stroke-linejoin: round;stroke-miterlimit: 10.000000;fill: none;"></path>
  <path d="M431.000000 285.977203C431.000000 284.916290,430.578491 283.898956,429.828369 283.148834C429.078247 282.398712,428.060913 281.977203,427.000000 281.977203C425.939087 281.977203,424.921753 282.398712,424.171631 283.148834C423.421509 283.898956,423.000000 284.916290,423.000000 285.977203C423.000000 287.038116,423.421509 288.055450,424.171631 288.805573C424.921753 289.555695,425.939087 289.977203,427.000000 289.977203C428.060913 289.977203,429.078247 289.555695,429.828369 288.805573C430.578491 288.055450,431.000000 287.038116,431.000000 285.977203Z" style="fill: rgb(89.999390%,0.000000%,0.000000%);stroke: none;"></path>
  <path d="M714.455856 321.410263C714.455856 320.349350,714.034348 319.332016,713.284225 318.581894C712.534103 317.831772,711.516769 317.410263,710.455856 317.410263C709.394943 317.410263,708.377609 317.831772,707.627487 318.581894C706.877365 319.332016,706.455856 320.349350,706.455856 321.410263C706.455856 322.471176,706.877365 323.488510,707.627487 324.238632C708.377609 324.988754,709.394943 325.410263,710.455856 325.410263C711.516769 325.410263,712.534103 324.988754,713.284225 324.238632C714.034348 323.488510,714.455856 322.471176,714.455856 321.410263Z" style="stroke:rgb(39.999390%,39.999390%,39.999390%); stroke-width: 0.500000;stroke-linecap: round;stroke-linejoin: round;stroke-miterlimit: 10.000000;fill: none;"></path>
  <path d="M714.455856 321.410263C714.455856 320.349350,714.034348 319.332016,713.284225 318.581894C712.534103 317.831772,711.516769 317.410263,710.455856 317.410263C709.394943 317.410263,708.377609 317.831772,707.627487 318.581894C706.877365 319.332016,706.455856 320.349350,706.455856 321.410263C706.455856 322.471176,706.877365 323.488510,707.627487 324.238632C708.377609 324.988754,709.394943 325.410263,710.455856 325.410263C711.516769 325.410263,712.534103 324.988754,713.284225 324.238632C714.034348 323.488510,714.455856 322.471176,714.455856 321.410263Z" style="fill: rgb(0.000000%,50.000000%,0.000000%);stroke: none;"></path>
  <path d="M427.000000 285.977203L710.464508 250.535492" style="stroke:rgb(60.000610%,60.000610%,60.000610%); stroke-width: 1.500000;stroke-linecap: round;stroke-dasharray: 3.000000 3.000000 ;stroke-linejoin: round;stroke-miterlimit: 10.000000;fill: none;"></path>
  <path d="M431.000000 285.977203C431.000000 284.916290,430.578491 283.898956,429.828369 283.148834C429.078247 282.398712,428.060913 281.977203,427.000000 281.977203C425.939087 281.977203,424.921753 282.398712,424.171631 283.148834C423.421509 283.898956,423.000000 284.916290,423.000000 285.977203C423.000000 287.038116,423.421509 288.055450,424.171631 288.805573C424.921753 289.555695,425.939087 289.977203,427.000000 289.977203C428.060913 289.977203,429.078247 289.555695,429.828369 288.805573C430.578491 288.055450,431.000000 287.038116,431.000000 285.977203Z" style="stroke:rgb(39.999390%,39.999390%,39.999390%); stroke-width: 0.500000;stroke-linecap: round;stroke-linejoin: round;stroke-miterlimit: 10.000000;fill: none;"></path>
  <path d="M431.000000 285.977203C431.000000 284.916290,430.578491 283.898956,429.828369 283.148834C429.078247 282.398712,428.060913 281.977203,427.000000 281.977203C425.939087 281.977203,424.921753 282.398712,424.171631 283.148834C423.421509 283.898956,423.000000 284.916290,423.000000 285.977203C423.000000 287.038116,423.421509 288.055450,424.171631 288.805573C424.921753 289.555695,425.939087 289.977203,427.000000 289.977203C428.060913 289.977203,429.078247 289.555695,429.828369 288.805573C430.578491 288.055450,431.000000 287.038116,431.000000 285.977203Z" style="fill: rgb(89.999390%,0.000000%,0.000000%);stroke: none;"></path>
  <path d="M714.464508 250.535492C714.464508 249.474579,714.042999 248.457245,713.292877 247.707123C712.542755 246.957001,711.525421 246.535492,710.464508 246.535492C709.403595 246.535492,708.386261 246.957001,707.636139 247.707123C706.886017 248.457245,706.464508 249.474579,706.464508 250.535492C706.464508 251.596405,706.886017 252.613739,707.636139 253.363861C708.386261 254.113983,709.403595 254.535492,710.464508 254.535492C711.525421 254.535492,712.542755 254.113983,713.292877 253.363861C714.042999 252.613739,714.464508 251.596405,714.464508 250.535492Z" style="stroke:rgb(39.999390%,39.999390%,39.999390%); stroke-width: 0.500000;stroke-linecap: round;stroke-linejoin: round;stroke-miterlimit: 10.000000;fill: none;"></path>
  <path d="M714.464508 250.535492C714.464508 249.474579,714.042999 248.457245,713.292877 247.707123C712.542755 246.957001,711.525421 246.535492,710.464508 246.535492C709.403595 246.535492,708.386261 246.957001,707.636139 247.707123C706.886017 248.457245,706.464508 249.474579,706.464508 250.535492C706.464508 251.596405,706.886017 252.613739,707.636139 253.363861C708.386261 254.113983,709.403595 254.535492,710.464508 254.535492C711.525421 254.535492,712.542755 254.113983,713.292877 253.363861C714.042999 252.613739,714.464508 251.596405,714.464508 250.535492Z" style="fill: rgb(100.000000%,100.000000%,0.000000%);stroke: none;"></path>
  <path d="M427.000000 285.977203L143.535492 250.535492" style="stroke:rgb(60.000610%,60.000610%,60.000610%); stroke-width: 1.500000;stroke-linecap: round;stroke-dasharray: 3.000000 3.000000 ;stroke-linejoin: round;stroke-miterlimit: 10.000000;fill: none;"></path>
  <path d="M431.000000 285.977203C431.000000 284.916290,430.578491 283.898956,429.828369 283.148834C429.078247 282.398712,428.060913 281.977203,427.000000 281.977203C425.939087 281.977203,424.921753 282.398712,424.171631 283.148834C423.421509 283.898956,423.000000 284.916290,423.000000 285.977203C423.000000 287.038116,423.421509 288.055450,424.171631 288.805573C424.921753 289.555695,425.939087 289.977203,427.000000 289.977203C428.060913 289.977203,429.078247 289.555695,429.828369 288.805573C430.578491 288.055450,431.000000 287.038116,431.000000 285.977203Z" style="stroke:rgb(39.999390%,39.999390%,39.999390%); stroke-width: 0.500000;stroke-linecap: round;stroke-linejoin: round;stroke-miterlimit: 10.000000;fill: none;"></path>
  <path d="M431.000000 285.977203C431.000000 284.916290,430.578491 283.898956,429.828369 283.148834C429.078247 282.398712,428.060913 281.977203,427.000000 281.977203C425.939087 281.977203,424.921753 282.398712,424.171631 283.148834C423.421509 283.898956,423.000000 284.916290,423.000000 285.977203C423.000000 287.038116,423.421509 288.055450,424.171631 288.805573C424.921753 289.555695,425.939087 289.977203,427.000000 289.977203C428.060913 289.977203,429.078247 289.555695,429.828369 288.805573C430.578491 288.055450,431.000000 287.038116,431.000000 285.977203Z" style="fill: rgb(89.999390%,0.000000%,0.000000%);stroke: none;"></path>
  <path d="M147.535492 250.535492C147.535492 249.474579,147.113983 248.457245,146.363861 247.707123C145.613739 246.957001,144.596405 246.535492,143.535492 246.535492C142.474579 246.535492,141.457245 246.957001,140.707123 247.707123C139.957001 248.457245,139.535492 249.474579,139.535492 250.535492C139.535492 251.596405,139.957001 252.613739,140.707123 253.363861C141.457245 254.113983,142.474579 254.535492,143.535492 254.535492C144.596405 254.535492,145.613739 254.113983,146.363861 253.363861C147.113983 252.613739,147.535492 251.596405,147.535492 250.535492Z" style="stroke:rgb(39.999390%,39.999390%,39.999390%); stroke-width: 0.500000;stroke-linecap: round;stroke-linejoin: round;stroke-miterlimit: 10.000000;fill: none;"></path>
  <path d="M147.535492 250.535492C147.535492 249.474579,147.113983 248.457245,146.363861 247.707123C145.613739 246.957001,144.596405 246.535492,143.535492 246.535492C142.474579 246.535492,141.457245 246.957001,140.707123 247.707123C139.957001 248.457245,139.535492 249.474579,139.535492 250.535492C139.535492 251.596405,139.957001 252.613739,140.707123 253.363861C141.457245 254.113983,142.474579 254.535492,143.535492 254.535492C144.596405 254.535492,145.613739 254.113983,146.363861 253.363861C147.113983 252.613739,147.535492 251.596405,147.535492 250.535492Z" style="fill: rgb(100.000000%,100.000000%,0.000000%);stroke: none;"></path>
</svg>
