<?xml version="1.0"?>
<!-- Created by MetaPost 2.00 on 2025.04.10:1556 -->
<svg version="1.1" xmlns="http://www.w3.org/2000/svg" xmlns:xlink="http://www.w3.org/1999/xlink" width="746.028595" height="637.912750" viewBox="0 0 746.028595 637.912750">
<!-- Original BoundingBox: -373.014297 -318.956375 373.014297 318.956375 -->
  <path d="M89.535492 601.464508L656.464508 601.464508L656.464508 34.535492L89.535492 34.535492L89.535492 601.464508Z" style="fill: rgb(100.000000%,100.000000%,100.000000%);stroke: none;"></path>
  <path d="M89.535492 601.464508L656.464508 601.464508" style="stroke:rgb(0.000000%,0.000000%,0.000000%); stroke-width: 1.000000;stroke-linecap: round;stroke-linejoin: round;stroke-miterlimit: 10.000000;fill: none;"></path>
  <path d="M656.464508 601.464508L656.464508 34.535492" style="stroke:rgb(0.000000%,0.000000%,0.000000%); stroke-width: 1.000000;stroke-linecap: round;stroke-linejoin: round;stroke-miterlimit: 10.000000;fill: none;"></path>
  <path d="M656.464508 34.535492L89.535492 34.535492" style="stroke:rgb(0.000000%,0.000000%,0.000000%); stroke-width: 1.000000;stroke-linecap: round;stroke-linejoin: round;stroke-miterlimit: 10.000000;fill: none;"></path>
  <path d="M89.535492 34.535492L89.535492 601.464508" style="stroke:rgb(0.000000%,0.000000%,0.000000%); stroke-width: 1.000000;stroke-linecap: round;stroke-linejoin: round;stroke-miterlimit: 10.000000;fill: none;"></path>
  <path d="M519.542007 171.181168C519.542007 126.266052,501.696899 83.195923,469.939514 51.438538C438.182129 19.681152,395.112000 1.836044,350.196884 1.836044C305.281769 1.836044,262.211639 19.681152,230.454254 51.438538C198.696869 83.195923,180.851761 126.266052,180.851761 171.181168C180.851761 216.096283,198.696869 259.166412,230.454254 290.923798C262.211639 322.681183,305.281769 340.526291,350.196884 340.526291C395.112000 340.526291,438.182129 322.681183,469.939514 290.923798C501.696899 259.166412,519.542007 216.096283,519.542007 171.181168Z" style="stroke:rgb(25.500488%,41.000366%,88.400269%); stroke-width: 1.000000;stroke-linecap: round;stroke-linejoin: round;stroke-miterlimit: 10.000000;fill: none;"></path>
  <path d="M565.148239 464.818832C565.148239 419.903717,547.303131 376.833588,515.545746 345.076202C483.788361 313.318817,440.718231 295.473709,395.803116 295.473709C350.888000 295.473709,307.817871 313.318817,276.060486 345.076202C244.303101 376.833588,226.457993 419.903717,226.457993 464.818832C226.457993 509.733948,244.303101 552.804077,276.060486 584.561462C307.817871 616.318848,350.888000 634.163956,395.803116 634.163956C440.718231 634.163956,483.788361 616.318848,515.545746 584.561462C547.303131 552.804077,565.148239 509.733948,565.148239 464.818832Z" style="stroke:rgb(25.500488%,41.000366%,88.400269%); stroke-width: 1.000000;stroke-linecap: round;stroke-linejoin: round;stroke-miterlimit: 10.000000;fill: none;"></path>
  <path d="M745.514297 452.361893C745.514297 407.446777,727.669189 364.376648,695.911804 332.619263C664.154419 300.861877,621.084290 283.016769,576.169174 283.016769C531.254059 283.016769,488.183929 300.861877,456.426544 332.619263C424.669159 364.376648,406.824051 407.446777,406.824051 452.361893C406.824051 497.277008,424.669159 540.347137,456.426544 572.104523C488.183929 603.861908,531.254059 621.707016,576.169174 621.707016C621.084290 621.707016,664.154419 603.861908,695.911804 572.104523C727.669189 540.347137,745.514297 497.277008,745.514297 452.361893Z" style="stroke:rgb(25.500488%,41.000366%,88.400269%); stroke-width: 1.000000;stroke-linecap: round;stroke-linejoin: round;stroke-miterlimit: 10.000000;fill: none;"></path>
  <path d="M339.175949 183.638107C339.175949 138.722992,321.330841 95.652863,289.573456 63.895477C257.816071 32.138092,214.745941 14.292984,169.830826 14.292984C124.915710 14.292984,81.845581 32.138092,50.088196 63.895477C18.330811 95.652863,0.485703 138.722992,0.485703 183.638107C0.485703 228.553223,18.330811 271.623352,50.088196 303.380737C81.845581 335.138123,124.915710 352.983231,169.830826 352.983231C214.745941 352.983231,257.816071 335.138123,289.573456 303.380737C321.330841 271.623352,339.175949 228.553223,339.175949 183.638107Z" style="stroke:rgb(25.500488%,41.000366%,88.400269%); stroke-width: 1.000000;stroke-linecap: round;stroke-linejoin: round;stroke-miterlimit: 10.000000;fill: none;"></path>
  <path d="M722.702530 168.888748C722.702530 123.973633,704.857422 80.903503,673.100037 49.146118C641.342651 17.388733,598.272522 -0.456375,553.357407 -0.456375C508.442291 -0.456375,465.372162 17.388733,433.614777 49.146118C401.857391 80.903503,384.012283 123.973633,384.012283 168.888748C384.012283 213.803864,401.857391 256.873993,433.614777 288.631378C465.372162 320.388763,508.442291 338.233871,553.357407 338.233871C598.272522 338.233871,641.342651 320.388763,673.100037 288.631378C704.857422 256.873993,722.702530 213.803864,722.702530 168.888748Z" style="stroke:rgb(25.500488%,41.000366%,88.400269%); stroke-width: 1.000000;stroke-linecap: round;stroke-linejoin: round;stroke-miterlimit: 10.000000;fill: none;"></path>
  <path d="M361.987717 467.111252C361.987717 422.196136,344.142609 379.126007,312.385223 347.368622C280.627838 315.611237,237.557709 297.766129,192.642593 297.766129C147.727478 297.766129,104.657349 315.611237,72.899963 347.368622C41.142578 379.126007,23.297470 422.196136,23.297470 467.111252C23.297470 512.026367,41.142578 555.096497,72.899963 586.853882C104.657349 618.611267,147.727478 636.456375,192.642593 636.456375C237.557709 636.456375,280.627838 618.611267,312.385223 586.853882C344.142609 555.096497,361.987717 512.026367,361.987717 467.111252Z" style="stroke:rgb(25.500488%,41.000366%,88.400269%); stroke-width: 1.000000;stroke-linecap: round;stroke-linejoin: round;stroke-miterlimit: 10.000000;fill: none;"></path>
  <path d="M350.196884 171.181168L453.295334 305.525757" style="stroke:rgb(60.000610%,60.000610%,60.000610%); stroke-width: 1.500000;stroke-linecap: round;stroke-dasharray: 3.000000 3.000000 ;stroke-linejoin: round;stroke-miterlimit: 10.000000;fill: none;"></path>
  <path d="M395.803116 464.818832L453.295334 305.525757" style="stroke:rgb(60.000610%,60.000610%,60.000610%); stroke-width: 1.500000;stroke-linecap: round;stroke-dasharray: 3.000000 3.000000 ;stroke-linejoin: round;stroke-miterlimit: 10.000000;fill: none;"></path>
  <path d="M354.196884 171.181168C354.196884 170.120255,353.775375 169.102921,353.025253 168.352798C352.275131 167.602676,351.257797 167.181168,350.196884 167.181168C349.135971 167.181168,348.118637 167.602676,347.368515 168.352798C346.618393 169.102921,346.196884 170.120255,346.196884 171.181168C346.196884 172.242081,346.618393 173.259415,347.368515 174.009537C348.118637 174.759659,349.135971 175.181168,350.196884 175.181168C351.257797 175.181168,352.275131 174.759659,353.025253 174.009537C353.775375 173.259415,354.196884 172.242081,354.196884 171.181168Z" style="stroke:rgb(39.999390%,39.999390%,39.999390%); stroke-width: 0.500000;stroke-linecap: round;stroke-linejoin: round;stroke-miterlimit: 10.000000;fill: none;"></path>
  <path d="M354.196884 171.181168C354.196884 170.120255,353.775375 169.102921,353.025253 168.352798C352.275131 167.602676,351.257797 167.181168,350.196884 167.181168C349.135971 167.181168,348.118637 167.602676,347.368515 168.352798C346.618393 169.102921,346.196884 170.120255,346.196884 171.181168C346.196884 172.242081,346.618393 173.259415,347.368515 174.009537C348.118637 174.759659,349.135971 175.181168,350.196884 175.181168C351.257797 175.181168,352.275131 174.759659,353.025253 174.009537C353.775375 173.259415,354.196884 172.242081,354.196884 171.181168Z" style="fill: rgb(89.999390%,0.000000%,0.000000%);stroke: none;"></path>
  <path d="M399.803116 464.818832C399.803116 463.757919,399.381607 462.740585,398.631485 461.990463C397.881363 461.240341,396.864029 460.818832,395.803116 460.818832C394.742203 460.818832,393.724869 461.240341,392.974747 461.990463C392.224625 462.740585,391.803116 463.757919,391.803116 464.818832C391.803116 465.879745,392.224625 466.897079,392.974747 467.647202C393.724869 468.397324,394.742203 468.818832,395.803116 468.818832C396.864029 468.818832,397.881363 468.397324,398.631485 467.647202C399.381607 466.897079,399.803116 465.879745,399.803116 464.818832Z" style="stroke:rgb(39.999390%,39.999390%,39.999390%); stroke-width: 0.500000;stroke-linecap: round;stroke-linejoin: round;stroke-miterlimit: 10.000000;fill: none;"></path>
  <path d="M399.803116 464.818832C399.803116 463.757919,399.381607 462.740585,398.631485 461.990463C397.881363 461.240341,396.864029 460.818832,395.803116 460.818832C394.742203 460.818832,393.724869 461.240341,392.974747 461.990463C392.224625 462.740585,391.803116 463.757919,391.803116 464.818832C391.803116 465.879745,392.224625 466.897079,392.974747 467.647202C393.724869 468.397324,394.742203 468.818832,395.803116 468.818832C396.864029 468.818832,397.881363 468.397324,398.631485 467.647202C399.381607 466.897079,399.803116 465.879745,399.803116 464.818832Z" style="fill: rgb(89.999390%,0.000000%,0.000000%);stroke: none;"></path>
  <path d="M457.295334 305.525757C457.295334 304.464844,456.873825 303.447510,456.123703 302.697388C455.373581 301.947266,454.356247 301.525757,453.295334 301.525757C452.234421 301.525757,451.217087 301.947266,450.466965 302.697388C449.716843 303.447510,449.295334 304.464844,449.295334 305.525757C449.295334 306.586670,449.716843 307.604004,450.466965 308.354126C451.217087 309.104248,452.234421 309.525757,453.295334 309.525757C454.356247 309.525757,455.373581 309.104248,456.123703 308.354126C456.873825 307.604004,457.295334 306.586670,457.295334 305.525757Z" style="stroke:rgb(39.999390%,39.999390%,39.999390%); stroke-width: 0.500000;stroke-linecap: round;stroke-linejoin: round;stroke-miterlimit: 10.000000;fill: none;"></path>
  <path d="M457.295334 305.525757C457.295334 304.464844,456.873825 303.447510,456.123703 302.697388C455.373581 301.947266,454.356247 301.525757,453.295334 301.525757C452.234421 301.525757,451.217087 301.947266,450.466965 302.697388C449.716843 303.447510,449.295334 304.464844,449.295334 305.525757C449.295334 306.586670,449.716843 307.604004,450.466965 308.354126C451.217087 309.104248,452.234421 309.525757,453.295334 309.525757C454.356247 309.525757,455.373581 309.104248,456.123703 308.354126C456.873825 307.604004,457.295334 306.586670,457.295334 305.525757Z" style="fill: rgb(9.800720%,9.800720%,44.000244%);stroke: none;"></path>
  <path d="M350.196884 171.181168L292.704666 330.474243" style="stroke:rgb(60.000610%,60.000610%,60.000610%); stroke-width: 1.500000;stroke-linecap: round;stroke-dasharray: 3.000000 3.000000 ;stroke-linejoin: round;stroke-miterlimit: 10.000000;fill: none;"></path>
  <path d="M395.803116 464.818832L292.704666 330.474243" style="stroke:rgb(60.000610%,60.000610%,60.000610%); stroke-width: 1.500000;stroke-linecap: round;stroke-dasharray: 3.000000 3.000000 ;stroke-linejoin: round;stroke-miterlimit: 10.000000;fill: none;"></path>
  <path d="M354.196884 171.181168C354.196884 170.120255,353.775375 169.102921,353.025253 168.352798C352.275131 167.602676,351.257797 167.181168,350.196884 167.181168C349.135971 167.181168,348.118637 167.602676,347.368515 168.352798C346.618393 169.102921,346.196884 170.120255,346.196884 171.181168C346.196884 172.242081,346.618393 173.259415,347.368515 174.009537C348.118637 174.759659,349.135971 175.181168,350.196884 175.181168C351.257797 175.181168,352.275131 174.759659,353.025253 174.009537C353.775375 173.259415,354.196884 172.242081,354.196884 171.181168Z" style="stroke:rgb(39.999390%,39.999390%,39.999390%); stroke-width: 0.500000;stroke-linecap: round;stroke-linejoin: round;stroke-miterlimit: 10.000000;fill: none;"></path>
  <path d="M354.196884 171.181168C354.196884 170.120255,353.775375 169.102921,353.025253 168.352798C352.275131 167.602676,351.257797 167.181168,350.196884 167.181168C349.135971 167.181168,348.118637 167.602676,347.368515 168.352798C346.618393 169.102921,346.196884 170.120255,346.196884 171.181168C346.196884 172.242081,346.618393 173.259415,347.368515 174.009537C348.118637 174.759659,349.135971 175.181168,350.196884 175.181168C351.257797 175.181168,352.275131 174.759659,353.025253 174.009537C353.775375 173.259415,354.196884 172.242081,354.196884 171.181168Z" style="fill: rgb(89.999390%,0.000000%,0.000000%);stroke: none;"></path>
  <path d="M399.803116 464.818832C399.803116 463.757919,399.381607 462.740585,398.631485 461.990463C397.881363 461.240341,396.864029 460.818832,395.803116 460.818832C394.742203 460.818832,393.724869 461.240341,392.974747 461.990463C392.224625 462.740585,391.803116 463.757919,391.803116 464.818832C391.803116 465.879745,392.224625 466.897079,392.974747 467.647202C393.724869 468.397324,394.742203 468.818832,395.803116 468.818832C396.864029 468.818832,397.881363 468.397324,398.631485 467.647202C399.381607 466.897079,399.803116 465.879745,399.803116 464.818832Z" style="stroke:rgb(39.999390%,39.999390%,39.999390%); stroke-width: 0.500000;stroke-linecap: round;stroke-linejoin: round;stroke-miterlimit: 10.000000;fill: none;"></path>
  <path d="M399.803116 464.818832C399.803116 463.757919,399.381607 462.740585,398.631485 461.990463C397.881363 461.240341,396.864029 460.818832,395.803116 460.818832C394.742203 460.818832,393.724869 461.240341,392.974747 461.990463C392.224625 462.740585,391.803116 463.757919,391.803116 464.818832C391.803116 465.879745,392.224625 466.897079,392.974747 467.647202C393.724869 468.397324,394.742203 468.818832,395.803116 468.818832C396.864029 468.818832,397.881363 468.397324,398.631485 467.647202C399.381607 466.897079,399.803116 465.879745,399.803116 464.818832Z" style="fill: rgb(89.999390%,0.000000%,0.000000%);stroke: none;"></path>
  <path d="M296.704666 330.474243C296.704666 329.413330,296.283157 328.395996,295.533035 327.645874C294.782913 326.895752,293.765579 326.474243,292.704666 326.474243C291.643753 326.474243,290.626419 326.895752,289.876297 327.645874C289.126175 328.395996,288.704666 329.413330,288.704666 330.474243C288.704666 331.535156,289.126175 332.552490,289.876297 333.302612C290.626419 334.052734,291.643753 334.474243,292.704666 334.474243C293.765579 334.474243,294.782913 334.052734,295.533035 333.302612C296.283157 332.552490,296.704666 331.535156,296.704666 330.474243Z" style="stroke:rgb(39.999390%,39.999390%,39.999390%); stroke-width: 0.500000;stroke-linecap: round;stroke-linejoin: round;stroke-miterlimit: 10.000000;fill: none;"></path>
  <path d="M296.704666 330.474243C296.704666 329.413330,296.283157 328.395996,295.533035 327.645874C294.782913 326.895752,293.765579 326.474243,292.704666 326.474243C291.643753 326.474243,290.626419 326.895752,289.876297 327.645874C289.126175 328.395996,288.704666 329.413330,288.704666 330.474243C288.704666 331.535156,289.126175 332.552490,289.876297 333.302612C290.626419 334.052734,291.643753 334.474243,292.704666 334.474243C293.765579 334.474243,294.782913 334.052734,295.533035 333.302612C296.283157 332.552490,296.704666 331.535156,296.704666 330.474243Z" style="fill: rgb(9.800720%,9.800720%,44.000244%);stroke: none;"></path>
  <path d="M350.196884 171.181168L250.143463 34.544144" style="stroke:rgb(60.000610%,60.000610%,60.000610%); stroke-width: 1.500000;stroke-linecap: round;stroke-dasharray: 3.000000 3.000000 ;stroke-linejoin: round;stroke-miterlimit: 10.000000;fill: none;"></path>
  <path d="M169.830826 183.638107L250.143463 34.544144" style="stroke:rgb(60.000610%,60.000610%,60.000610%); stroke-width: 1.500000;stroke-linecap: round;stroke-dasharray: 3.000000 3.000000 ;stroke-linejoin: round;stroke-miterlimit: 10.000000;fill: none;"></path>
  <path d="M354.196884 171.181168C354.196884 170.120255,353.775375 169.102921,353.025253 168.352798C352.275131 167.602676,351.257797 167.181168,350.196884 167.181168C349.135971 167.181168,348.118637 167.602676,347.368515 168.352798C346.618393 169.102921,346.196884 170.120255,346.196884 171.181168C346.196884 172.242081,346.618393 173.259415,347.368515 174.009537C348.118637 174.759659,349.135971 175.181168,350.196884 175.181168C351.257797 175.181168,352.275131 174.759659,353.025253 174.009537C353.775375 173.259415,354.196884 172.242081,354.196884 171.181168Z" style="stroke:rgb(39.999390%,39.999390%,39.999390%); stroke-width: 0.500000;stroke-linecap: round;stroke-linejoin: round;stroke-miterlimit: 10.000000;fill: none;"></path>
  <path d="M354.196884 171.181168C354.196884 170.120255,353.775375 169.102921,353.025253 168.352798C352.275131 167.602676,351.257797 167.181168,350.196884 167.181168C349.135971 167.181168,348.118637 167.602676,347.368515 168.352798C346.618393 169.102921,346.196884 170.120255,346.196884 171.181168C346.196884 172.242081,346.618393 173.259415,347.368515 174.009537C348.118637 174.759659,349.135971 175.181168,350.196884 175.181168C351.257797 175.181168,352.275131 174.759659,353.025253 174.009537C353.775375 173.259415,354.196884 172.242081,354.196884 171.181168Z" style="fill: rgb(89.999390%,0.000000%,0.000000%);stroke: none;"></path>
  <path d="M173.830826 183.638107C173.830826 182.577194,173.409317 181.559860,172.659195 180.809738C171.909073 180.059616,170.891739 179.638107,169.830826 179.638107C168.769913 179.638107,167.752579 180.059616,167.002457 180.809738C166.252335 181.559860,165.830826 182.577194,165.830826 183.638107C165.830826 184.699020,166.252335 185.716354,167.002457 186.466476C167.752579 187.216599,168.769913 187.638107,169.830826 187.638107C170.891739 187.638107,171.909073 187.216599,172.659195 186.466476C173.409317 185.716354,173.830826 184.699020,173.830826 183.638107Z" style="stroke:rgb(39.999390%,39.999390%,39.999390%); stroke-width: 0.500000;stroke-linecap: round;stroke-linejoin: round;stroke-miterlimit: 10.000000;fill: none;"></path>
  <path d="M173.830826 183.638107C173.830826 182.577194,173.409317 181.559860,172.659195 180.809738C171.909073 180.059616,170.891739 179.638107,169.830826 179.638107C168.769913 179.638107,167.752579 180.059616,167.002457 180.809738C166.252335 181.559860,165.830826 182.577194,165.830826 183.638107C165.830826 184.699020,166.252335 185.716354,167.002457 186.466476C167.752579 187.216599,168.769913 187.638107,169.830826 187.638107C170.891739 187.638107,171.909073 187.216599,172.659195 186.466476C173.409317 185.716354,173.830826 184.699020,173.830826 183.638107Z" style="fill: rgb(89.999390%,0.000000%,0.000000%);stroke: none;"></path>
  <path d="M254.143463 34.544144C254.143463 33.483231,253.721954 32.465897,252.971832 31.715775C252.221710 30.965652,251.204376 30.544144,250.143463 30.544144C249.082550 30.544144,248.065216 30.965652,247.315094 31.715775C246.564972 32.465897,246.143463 33.483231,246.143463 34.544144C246.143463 35.605057,246.564972 36.622391,247.315094 37.372513C248.065216 38.122635,249.082550 38.544144,250.143463 38.544144C251.204376 38.544144,252.221710 38.122635,252.971832 37.372513C253.721954 36.622391,254.143463 35.605057,254.143463 34.544144Z" style="stroke:rgb(39.999390%,39.999390%,39.999390%); stroke-width: 0.500000;stroke-linecap: round;stroke-linejoin: round;stroke-miterlimit: 10.000000;fill: none;"></path>
  <path d="M254.143463 34.544144C254.143463 33.483231,253.721954 32.465897,252.971832 31.715775C252.221710 30.965652,251.204376 30.544144,250.143463 30.544144C249.082550 30.544144,248.065216 30.965652,247.315094 31.715775C246.564972 32.465897,246.143463 33.483231,246.143463 34.544144C246.143463 35.605057,246.564972 36.622391,247.315094 37.372513C248.065216 38.122635,249.082550 38.544144,250.143463 38.544144C251.204376 38.544144,252.221710 38.122635,252.971832 37.372513C253.721954 36.622391,254.143463 35.605057,254.143463 34.544144Z" style="fill: rgb(0.000000%,50.000000%,0.000000%);stroke: none;"></path>
  <path d="M350.196884 171.181168L450.250305 34.552795" style="stroke:rgb(60.000610%,60.000610%,60.000610%); stroke-width: 1.500000;stroke-linecap: round;stroke-dasharray: 3.000000 3.000000 ;stroke-linejoin: round;stroke-miterlimit: 10.000000;fill: none;"></path>
  <path d="M553.357407 168.888748L450.250305 34.552795" style="stroke:rgb(60.000610%,60.000610%,60.000610%); stroke-width: 1.500000;stroke-linecap: round;stroke-dasharray: 3.000000 3.000000 ;stroke-linejoin: round;stroke-miterlimit: 10.000000;fill: none;"></path>
  <path d="M354.196884 171.181168C354.196884 170.120255,353.775375 169.102921,353.025253 168.352798C352.275131 167.602676,351.257797 167.181168,350.196884 167.181168C349.135971 167.181168,348.118637 167.602676,347.368515 168.352798C346.618393 169.102921,346.196884 170.120255,346.196884 171.181168C346.196884 172.242081,346.618393 173.259415,347.368515 174.009537C348.118637 174.759659,349.135971 175.181168,350.196884 175.181168C351.257797 175.181168,352.275131 174.759659,353.025253 174.009537C353.775375 173.259415,354.196884 172.242081,354.196884 171.181168Z" style="stroke:rgb(39.999390%,39.999390%,39.999390%); stroke-width: 0.500000;stroke-linecap: round;stroke-linejoin: round;stroke-miterlimit: 10.000000;fill: none;"></path>
  <path d="M354.196884 171.181168C354.196884 170.120255,353.775375 169.102921,353.025253 168.352798C352.275131 167.602676,351.257797 167.181168,350.196884 167.181168C349.135971 167.181168,348.118637 167.602676,347.368515 168.352798C346.618393 169.102921,346.196884 170.120255,346.196884 171.181168C346.196884 172.242081,346.618393 173.259415,347.368515 174.009537C348.118637 174.759659,349.135971 175.181168,350.196884 175.181168C351.257797 175.181168,352.275131 174.759659,353.025253 174.009537C353.775375 173.259415,354.196884 172.242081,354.196884 171.181168Z" style="fill: rgb(89.999390%,0.000000%,0.000000%);stroke: none;"></path>
  <path d="M557.357407 168.888748C557.357407 167.827835,556.935898 166.810501,556.185776 166.060379C555.435654 165.310257,554.418320 164.888748,553.357407 164.888748C552.296494 164.888748,551.279160 165.310257,550.529037 166.060379C549.778915 166.810501,549.357407 167.827835,549.357407 168.888748C549.357407 169.949661,549.778915 170.966995,550.529037 171.717117C551.279160 172.467239,552.296494 172.888748,553.357407 172.888748C554.418320 172.888748,555.435654 172.467239,556.185776 171.717117C556.935898 170.966995,557.357407 169.949661,557.357407 168.888748Z" style="stroke:rgb(39.999390%,39.999390%,39.999390%); stroke-width: 0.500000;stroke-linecap: round;stroke-linejoin: round;stroke-miterlimit: 10.000000;fill: none;"></path>
  <path d="M557.357407 168.888748C557.357407 167.827835,556.935898 166.810501,556.185776 166.060379C555.435654 165.310257,554.418320 164.888748,553.357407 164.888748C552.296494 164.888748,551.279160 165.310257,550.529037 166.060379C549.778915 166.810501,549.357407 167.827835,549.357407 168.888748C549.357407 169.949661,549.778915 170.966995,550.529037 171.717117C551.279160 172.467239,552.296494 172.888748,553.357407 172.888748C554.418320 172.888748,555.435654 172.467239,556.185776 171.717117C556.935898 170.966995,557.357407 169.949661,557.357407 168.888748Z" style="fill: rgb(89.999390%,0.000000%,0.000000%);stroke: none;"></path>
  <path d="M454.250305 34.552795C454.250305 33.491882,453.828796 32.474548,453.078674 31.724426C452.328552 30.974304,451.311218 30.552795,450.250305 30.552795C449.189392 30.552795,448.172058 30.974304,447.421936 31.724426C446.671814 32.474548,446.250305 33.491882,446.250305 34.552795C446.250305 35.613708,446.671814 36.631042,447.421936 37.381165C448.172058 38.131287,449.189392 38.552795,450.250305 38.552795C451.311218 38.552795,452.328552 38.131287,453.078674 37.381165C453.828796 36.631042,454.250305 35.613708,454.250305 34.552795Z" style="stroke:rgb(39.999390%,39.999390%,39.999390%); stroke-width: 0.500000;stroke-linecap: round;stroke-linejoin: round;stroke-miterlimit: 10.000000;fill: none;"></path>
  <path d="M454.250305 34.552795C454.250305 33.491882,453.828796 32.474548,453.078674 31.724426C452.328552 30.974304,451.311218 30.552795,450.250305 30.552795C449.189392 30.552795,448.172058 30.974304,447.421936 31.724426C446.671814 32.474548,446.250305 33.491882,446.250305 34.552795C446.250305 35.613708,446.671814 36.631042,447.421936 37.381165C448.172058 38.131287,449.189392 38.552795,450.250305 38.552795C451.311218 38.552795,452.328552 38.131287,453.078674 37.381165C453.828796 36.631042,454.250305 35.613708,454.250305 34.552795Z" style="fill: rgb(0.000000%,50.000000%,0.000000%);stroke: none;"></path>
  <path d="M350.196884 171.181168L453.303986 305.525757" style="stroke:rgb(60.000610%,60.000610%,60.000610%); stroke-width: 1.500000;stroke-linecap: round;stroke-dasharray: 3.000000 3.000000 ;stroke-linejoin: round;stroke-miterlimit: 10.000000;fill: none;"></path>
  <path d="M553.357407 168.888748L453.303986 305.525757" style="stroke:rgb(60.000610%,60.000610%,60.000610%); stroke-width: 1.500000;stroke-linecap: round;stroke-dasharray: 3.000000 3.000000 ;stroke-linejoin: round;stroke-miterlimit: 10.000000;fill: none;"></path>
  <path d="M354.196884 171.181168C354.196884 170.120255,353.775375 169.102921,353.025253 168.352798C352.275131 167.602676,351.257797 167.181168,350.196884 167.181168C349.135971 167.181168,348.118637 167.602676,347.368515 168.352798C346.618393 169.102921,346.196884 170.120255,346.196884 171.181168C346.196884 172.242081,346.618393 173.259415,347.368515 174.009537C348.118637 174.759659,349.135971 175.181168,350.196884 175.181168C351.257797 175.181168,352.275131 174.759659,353.025253 174.009537C353.775375 173.259415,354.196884 172.242081,354.196884 171.181168Z" style="stroke:rgb(39.999390%,39.999390%,39.999390%); stroke-width: 0.500000;stroke-linecap: round;stroke-linejoin: round;stroke-miterlimit: 10.000000;fill: none;"></path>
  <path d="M354.196884 171.181168C354.196884 170.120255,353.775375 169.102921,353.025253 168.352798C352.275131 167.602676,351.257797 167.181168,350.196884 167.181168C349.135971 167.181168,348.118637 167.602676,347.368515 168.352798C346.618393 169.102921,346.196884 170.120255,346.196884 171.181168C346.196884 172.242081,346.618393 173.259415,347.368515 174.009537C348.118637 174.759659,349.135971 175.181168,350.196884 175.181168C351.257797 175.181168,352.275131 174.759659,353.025253 174.009537C353.775375 173.259415,354.196884 172.242081,354.196884 171.181168Z" style="fill: rgb(89.999390%,0.000000%,0.000000%);stroke: none;"></path>
  <path d="M557.357407 168.888748C557.357407 167.827835,556.935898 166.810501,556.185776 166.060379C555.435654 165.310257,554.418320 164.888748,553.357407 164.888748C552.296494 164.888748,551.279160 165.310257,550.529037 166.060379C549.778915 166.810501,549.357407 167.827835,549.357407 168.888748C549.357407 169.949661,549.778915 170.966995,550.529037 171.717117C551.279160 172.467239,552.296494 172.888748,553.357407 172.888748C554.418320 172.888748,555.435654 172.467239,556.185776 171.717117C556.935898 170.966995,557.357407 169.949661,557.357407 168.888748Z" style="stroke:rgb(39.999390%,39.999390%,39.999390%); stroke-width: 0.500000;stroke-linecap: round;stroke-linejoin: round;stroke-miterlimit: 10.000000;fill: none;"></path>
  <path d="M557.357407 168.888748C557.357407 167.827835,556.935898 166.810501,556.185776 166.060379C555.435654 165.310257,554.418320 164.888748,553.357407 164.888748C552.296494 164.888748,551.279160 165.310257,550.529037 166.060379C549.778915 166.810501,549.357407 167.827835,549.357407 168.888748C549.357407 169.949661,549.778915 170.966995,550.529037 171.717117C551.279160 172.467239,552.296494 172.888748,553.357407 172.888748C554.418320 172.888748,555.435654 172.467239,556.185776 171.717117C556.935898 170.966995,557.357407 169.949661,557.357407 168.888748Z" style="fill: rgb(89.999390%,0.000000%,0.000000%);stroke: none;"></path>
  <path d="M457.303986 305.525757C457.303986 304.464844,456.882477 303.447510,456.132355 302.697388C455.382233 301.947266,454.364899 301.525757,453.303986 301.525757C452.243073 301.525757,451.225739 301.947266,450.475616 302.697388C449.725494 303.447510,449.303986 304.464844,449.303986 305.525757C449.303986 306.586670,449.725494 307.604004,450.475616 308.354126C451.225739 309.104248,452.243073 309.525757,453.303986 309.525757C454.364899 309.525757,455.382233 309.104248,456.132355 308.354126C456.882477 307.604004,457.303986 306.586670,457.303986 305.525757Z" style="stroke:rgb(39.999390%,39.999390%,39.999390%); stroke-width: 0.500000;stroke-linecap: round;stroke-linejoin: round;stroke-miterlimit: 10.000000;fill: none;"></path>
  <path d="M457.303986 305.525757C457.303986 304.464844,456.882477 303.447510,456.132355 302.697388C455.382233 301.947266,454.364899 301.525757,453.303986 301.525757C452.243073 301.525757,451.225739 301.947266,450.475616 302.697388C449.725494 303.447510,449.303986 304.464844,449.303986 305.525757C449.303986 306.586670,449.725494 307.604004,450.475616 308.354126C451.225739 309.104248,452.243073 309.525757,453.303986 309.525757C454.364899 309.525757,455.382233 309.104248,456.132355 308.354126C456.882477 307.604004,457.303986 306.586670,457.303986 305.525757Z" style="fill: rgb(9.800720%,9.800720%,44.000244%);stroke: none;"></path>
  <path d="M350.196884 171.181168L292.678711 330.465591" style="stroke:rgb(60.000610%,60.000610%,60.000610%); stroke-width: 1.500000;stroke-linecap: round;stroke-dasharray: 3.000000 3.000000 ;stroke-linejoin: round;stroke-miterlimit: 10.000000;fill: none;"></path>
  <path d="M192.642593 467.111252L292.678711 330.465591" style="stroke:rgb(60.000610%,60.000610%,60.000610%); stroke-width: 1.500000;stroke-linecap: round;stroke-dasharray: 3.000000 3.000000 ;stroke-linejoin: round;stroke-miterlimit: 10.000000;fill: none;"></path>
  <path d="M354.196884 171.181168C354.196884 170.120255,353.775375 169.102921,353.025253 168.352798C352.275131 167.602676,351.257797 167.181168,350.196884 167.181168C349.135971 167.181168,348.118637 167.602676,347.368515 168.352798C346.618393 169.102921,346.196884 170.120255,346.196884 171.181168C346.196884 172.242081,346.618393 173.259415,347.368515 174.009537C348.118637 174.759659,349.135971 175.181168,350.196884 175.181168C351.257797 175.181168,352.275131 174.759659,353.025253 174.009537C353.775375 173.259415,354.196884 172.242081,354.196884 171.181168Z" style="stroke:rgb(39.999390%,39.999390%,39.999390%); stroke-width: 0.500000;stroke-linecap: round;stroke-linejoin: round;stroke-miterlimit: 10.000000;fill: none;"></path>
  <path d="M354.196884 171.181168C354.196884 170.120255,353.775375 169.102921,353.025253 168.352798C352.275131 167.602676,351.257797 167.181168,350.196884 167.181168C349.135971 167.181168,348.118637 167.602676,347.368515 168.352798C346.618393 169.102921,346.196884 170.120255,346.196884 171.181168C346.196884 172.242081,346.618393 173.259415,347.368515 174.009537C348.118637 174.759659,349.135971 175.181168,350.196884 175.181168C351.257797 175.181168,352.275131 174.759659,353.025253 174.009537C353.775375 173.259415,354.196884 172.242081,354.196884 171.181168Z" style="fill: rgb(89.999390%,0.000000%,0.000000%);stroke: none;"></path>
  <path d="M196.642593 467.111252C196.642593 466.050339,196.221085 465.033005,195.470963 464.282883C194.720840 463.532761,193.703506 463.111252,192.642593 463.111252C191.581680 463.111252,190.564346 463.532761,189.814224 464.282883C189.064102 465.033005,188.642593 466.050339,188.642593 467.111252C188.642593 468.172165,189.064102 469.189499,189.814224 469.939621C190.564346 470.689743,191.581680 471.111252,192.642593 471.111252C193.703506 471.111252,194.720840 470.689743,195.470963 469.939621C196.221085 469.189499,196.642593 468.172165,196.642593 467.111252Z" style="stroke:rgb(39.999390%,39.999390%,39.999390%); stroke-width: 0.500000;stroke-linecap: round;stroke-linejoin: round;stroke-miterlimit: 10.000000;fill: none;"></path>
  <path d="M196.642593 467.111252C196.642593 466.050339,196.221085 465.033005,195.470963 464.282883C194.720840 463.532761,193.703506 463.111252,192.642593 463.111252C191.581680 463.111252,190.564346 463.532761,189.814224 464.282883C189.064102 465.033005,188.642593 466.050339,188.642593 467.111252C188.642593 468.172165,189.064102 469.189499,189.814224 469.939621C190.564346 470.689743,191.581680 471.111252,192.642593 471.111252C193.703506 471.111252,194.720840 470.689743,195.470963 469.939621C196.221085 469.189499,196.642593 468.172165,196.642593 467.111252Z" style="fill: rgb(89.999390%,0.000000%,0.000000%);stroke: none;"></path>
  <path d="M296.678711 330.465591C296.678711 329.404678,296.257202 328.387344,295.507080 327.637222C294.756958 326.887100,293.739624 326.465591,292.678711 326.465591C291.617798 326.465591,290.600464 326.887100,289.850342 327.637222C289.100220 328.387344,288.678711 329.404678,288.678711 330.465591C288.678711 331.526505,289.100220 332.543839,289.850342 333.293961C290.600464 334.044083,291.617798 334.465591,292.678711 334.465591C293.739624 334.465591,294.756958 334.044083,295.507080 333.293961C296.257202 332.543839,296.678711 331.526505,296.678711 330.465591Z" style="stroke:rgb(39.999390%,39.999390%,39.999390%); stroke-width: 0.500000;stroke-linecap: round;stroke-linejoin: round;stroke-miterlimit: 10.000000;fill: none;"></path>
  <path d="M296.678711 330.465591C296.678711 329.404678,296.257202 328.387344,295.507080 327.637222C294.756958 326.887100,293.739624 326.465591,292.678711 326.465591C291.617798 326.465591,290.600464 326.887100,289.850342 327.637222C289.100220 328.387344,288.678711 329.404678,288.678711 330.465591C288.678711 331.526505,289.100220 332.543839,289.850342 333.293961C290.600464 334.044083,291.617798 334.465591,292.678711 334.465591C293.739624 334.465591,294.756958 334.044083,295.507080 333.293961C296.257202 332.543839,296.678711 331.526505,296.678711 330.465591Z" style="fill: rgb(9.800720%,9.800720%,44.000244%);stroke: none;"></path>
  <path d="M395.803116 464.818832L495.856537 601.455856" style="stroke:rgb(60.000610%,60.000610%,60.000610%); stroke-width: 1.500000;stroke-linecap: round;stroke-dasharray: 3.000000 3.000000 ;stroke-linejoin: round;stroke-miterlimit: 10.000000;fill: none;"></path>
  <path d="M576.169174 452.361893L495.856537 601.455856" style="stroke:rgb(60.000610%,60.000610%,60.000610%); stroke-width: 1.500000;stroke-linecap: round;stroke-dasharray: 3.000000 3.000000 ;stroke-linejoin: round;stroke-miterlimit: 10.000000;fill: none;"></path>
  <path d="M399.803116 464.818832C399.803116 463.757919,399.381607 462.740585,398.631485 461.990463C397.881363 461.240341,396.864029 460.818832,395.803116 460.818832C394.742203 460.818832,393.724869 461.240341,392.974747 461.990463C392.224625 462.740585,391.803116 463.757919,391.803116 464.818832C391.803116 465.879745,392.224625 466.897079,392.974747 467.647202C393.724869 468.397324,394.742203 468.818832,395.803116 468.818832C396.864029 468.818832,397.881363 468.397324,398.631485 467.647202C399.381607 466.897079,399.803116 465.879745,399.803116 464.818832Z" style="stroke:rgb(39.999390%,39.999390%,39.999390%); stroke-width: 0.500000;stroke-linecap: round;stroke-linejoin: round;stroke-miterlimit: 10.000000;fill: none;"></path>
  <path d="M399.803116 464.818832C399.803116 463.757919,399.381607 462.740585,398.631485 461.990463C397.881363 461.240341,396.864029 460.818832,395.803116 460.818832C394.742203 460.818832,393.724869 461.240341,392.974747 461.990463C392.224625 462.740585,391.803116 463.757919,391.803116 464.818832C391.803116 465.879745,392.224625 466.897079,392.974747 467.647202C393.724869 468.397324,394.742203 468.818832,395.803116 468.818832C396.864029 468.818832,397.881363 468.397324,398.631485 467.647202C399.381607 466.897079,399.803116 465.879745,399.803116 464.818832Z" style="fill: rgb(89.999390%,0.000000%,0.000000%);stroke: none;"></path>
  <path d="M580.169174 452.361893C580.169174 451.300980,579.747665 450.283646,578.997543 449.533524C578.247421 448.783401,577.230087 448.361893,576.169174 448.361893C575.108261 448.361893,574.090927 448.783401,573.340805 449.533524C572.590683 450.283646,572.169174 451.300980,572.169174 452.361893C572.169174 453.422806,572.590683 454.440140,573.340805 455.190262C574.090927 455.940384,575.108261 456.361893,576.169174 456.361893C577.230087 456.361893,578.247421 455.940384,578.997543 455.190262C579.747665 454.440140,580.169174 453.422806,580.169174 452.361893Z" style="stroke:rgb(39.999390%,39.999390%,39.999390%); stroke-width: 0.500000;stroke-linecap: round;stroke-linejoin: round;stroke-miterlimit: 10.000000;fill: none;"></path>
  <path d="M580.169174 452.361893C580.169174 451.300980,579.747665 450.283646,578.997543 449.533524C578.247421 448.783401,577.230087 448.361893,576.169174 448.361893C575.108261 448.361893,574.090927 448.783401,573.340805 449.533524C572.590683 450.283646,572.169174 451.300980,572.169174 452.361893C572.169174 453.422806,572.590683 454.440140,573.340805 455.190262C574.090927 455.940384,575.108261 456.361893,576.169174 456.361893C577.230087 456.361893,578.247421 455.940384,578.997543 455.190262C579.747665 454.440140,580.169174 453.422806,580.169174 452.361893Z" style="fill: rgb(89.999390%,0.000000%,0.000000%);stroke: none;"></path>
  <path d="M499.856537 601.455856C499.856537 600.394943,499.435028 599.377609,498.684906 598.627487C497.934784 597.877365,496.917450 597.455856,495.856537 597.455856C494.795624 597.455856,493.778290 597.877365,493.028168 598.627487C492.278046 599.377609,491.856537 600.394943,491.856537 601.455856C491.856537 602.516769,492.278046 603.534103,493.028168 604.284225C493.778290 605.034348,494.795624 605.455856,495.856537 605.455856C496.917450 605.455856,497.934784 605.034348,498.684906 604.284225C499.435028 603.534103,499.856537 602.516769,499.856537 601.455856Z" style="stroke:rgb(39.999390%,39.999390%,39.999390%); stroke-width: 0.500000;stroke-linecap: round;stroke-linejoin: round;stroke-miterlimit: 10.000000;fill: none;"></path>
  <path d="M499.856537 601.455856C499.856537 600.394943,499.435028 599.377609,498.684906 598.627487C497.934784 597.877365,496.917450 597.455856,495.856537 597.455856C494.795624 597.455856,493.778290 597.877365,493.028168 598.627487C492.278046 599.377609,491.856537 600.394943,491.856537 601.455856C491.856537 602.516769,492.278046 603.534103,493.028168 604.284225C493.778290 605.034348,494.795624 605.455856,495.856537 605.455856C496.917450 605.455856,497.934784 605.034348,498.684906 604.284225C499.435028 603.534103,499.856537 602.516769,499.856537 601.455856Z" style="fill: rgb(0.000000%,50.000000%,0.000000%);stroke: none;"></path>
  <path d="M395.803116 464.818832L453.321289 305.534409" style="stroke:rgb(60.000610%,60.000610%,60.000610%); stroke-width: 1.500000;stroke-linecap: round;stroke-dasharray: 3.000000 3.000000 ;stroke-linejoin: round;stroke-miterlimit: 10.000000;fill: none;"></path>
  <path d="M553.357407 168.888748L453.321289 305.534409" style="stroke:rgb(60.000610%,60.000610%,60.000610%); stroke-width: 1.500000;stroke-linecap: round;stroke-dasharray: 3.000000 3.000000 ;stroke-linejoin: round;stroke-miterlimit: 10.000000;fill: none;"></path>
  <path d="M399.803116 464.818832C399.803116 463.757919,399.381607 462.740585,398.631485 461.990463C397.881363 461.240341,396.864029 460.818832,395.803116 460.818832C394.742203 460.818832,393.724869 461.240341,392.974747 461.990463C392.224625 462.740585,391.803116 463.757919,391.803116 464.818832C391.803116 465.879745,392.224625 466.897079,392.974747 467.647202C393.724869 468.397324,394.742203 468.818832,395.803116 468.818832C396.864029 468.818832,397.881363 468.397324,398.631485 467.647202C399.381607 466.897079,399.803116 465.879745,399.803116 464.818832Z" style="stroke:rgb(39.999390%,39.999390%,39.999390%); stroke-width: 0.500000;stroke-linecap: round;stroke-linejoin: round;stroke-miterlimit: 10.000000;fill: none;"></path>
  <path d="M399.803116 464.818832C399.803116 463.757919,399.381607 462.740585,398.631485 461.990463C397.881363 461.240341,396.864029 460.818832,395.803116 460.818832C394.742203 460.818832,393.724869 461.240341,392.974747 461.990463C392.224625 462.740585,391.803116 463.757919,391.803116 464.818832C391.803116 465.879745,392.224625 466.897079,392.974747 467.647202C393.724869 468.397324,394.742203 468.818832,395.803116 468.818832C396.864029 468.818832,397.881363 468.397324,398.631485 467.647202C399.381607 466.897079,399.803116 465.879745,399.803116 464.818832Z" style="fill: rgb(89.999390%,0.000000%,0.000000%);stroke: none;"></path>
  <path d="M557.357407 168.888748C557.357407 167.827835,556.935898 166.810501,556.185776 166.060379C555.435654 165.310257,554.418320 164.888748,553.357407 164.888748C552.296494 164.888748,551.279160 165.310257,550.529037 166.060379C549.778915 166.810501,549.357407 167.827835,549.357407 168.888748C549.357407 169.949661,549.778915 170.966995,550.529037 171.717117C551.279160 172.467239,552.296494 172.888748,553.357407 172.888748C554.418320 172.888748,555.435654 172.467239,556.185776 171.717117C556.935898 170.966995,557.357407 169.949661,557.357407 168.888748Z" style="stroke:rgb(39.999390%,39.999390%,39.999390%); stroke-width: 0.500000;stroke-linecap: round;stroke-linejoin: round;stroke-miterlimit: 10.000000;fill: none;"></path>
  <path d="M557.357407 168.888748C557.357407 167.827835,556.935898 166.810501,556.185776 166.060379C555.435654 165.310257,554.418320 164.888748,553.357407 164.888748C552.296494 164.888748,551.279160 165.310257,550.529037 166.060379C549.778915 166.810501,549.357407 167.827835,549.357407 168.888748C549.357407 169.949661,549.778915 170.966995,550.529037 171.717117C551.279160 172.467239,552.296494 172.888748,553.357407 172.888748C554.418320 172.888748,555.435654 172.467239,556.185776 171.717117C556.935898 170.966995,557.357407 169.949661,557.357407 168.888748Z" style="fill: rgb(89.999390%,0.000000%,0.000000%);stroke: none;"></path>
  <path d="M457.321289 305.534409C457.321289 304.473495,456.899780 303.456161,456.149658 302.706039C455.399536 301.955917,454.382202 301.534409,453.321289 301.534409C452.260376 301.534409,451.243042 301.955917,450.492920 302.706039C449.742798 303.456161,449.321289 304.473495,449.321289 305.534409C449.321289 306.595322,449.742798 307.612656,450.492920 308.362778C451.243042 309.112900,452.260376 309.534409,453.321289 309.534409C454.382202 309.534409,455.399536 309.112900,456.149658 308.362778C456.899780 307.612656,457.321289 306.595322,457.321289 305.534409Z" style="stroke:rgb(39.999390%,39.999390%,39.999390%); stroke-width: 0.500000;stroke-linecap: round;stroke-linejoin: round;stroke-miterlimit: 10.000000;fill: none;"></path>
  <path d="M457.321289 305.534409C457.321289 304.473495,456.899780 303.456161,456.149658 302.706039C455.399536 301.955917,454.382202 301.534409,453.321289 301.534409C452.260376 301.534409,451.243042 301.955917,450.492920 302.706039C449.742798 303.456161,449.321289 304.473495,449.321289 305.534409C449.321289 306.595322,449.742798 307.612656,450.492920 308.362778C451.243042 309.112900,452.260376 309.534409,453.321289 309.534409C454.382202 309.534409,455.399536 309.112900,456.149658 308.362778C456.899780 307.612656,457.321289 306.595322,457.321289 305.534409Z" style="fill: rgb(9.800720%,9.800720%,44.000244%);stroke: none;"></path>
  <path d="M395.803116 464.818832L295.749695 601.447205" style="stroke:rgb(60.000610%,60.000610%,60.000610%); stroke-width: 1.500000;stroke-linecap: round;stroke-dasharray: 3.000000 3.000000 ;stroke-linejoin: round;stroke-miterlimit: 10.000000;fill: none;"></path>
  <path d="M192.642593 467.111252L295.749695 601.447205" style="stroke:rgb(60.000610%,60.000610%,60.000610%); stroke-width: 1.500000;stroke-linecap: round;stroke-dasharray: 3.000000 3.000000 ;stroke-linejoin: round;stroke-miterlimit: 10.000000;fill: none;"></path>
  <path d="M399.803116 464.818832C399.803116 463.757919,399.381607 462.740585,398.631485 461.990463C397.881363 461.240341,396.864029 460.818832,395.803116 460.818832C394.742203 460.818832,393.724869 461.240341,392.974747 461.990463C392.224625 462.740585,391.803116 463.757919,391.803116 464.818832C391.803116 465.879745,392.224625 466.897079,392.974747 467.647202C393.724869 468.397324,394.742203 468.818832,395.803116 468.818832C396.864029 468.818832,397.881363 468.397324,398.631485 467.647202C399.381607 466.897079,399.803116 465.879745,399.803116 464.818832Z" style="stroke:rgb(39.999390%,39.999390%,39.999390%); stroke-width: 0.500000;stroke-linecap: round;stroke-linejoin: round;stroke-miterlimit: 10.000000;fill: none;"></path>
  <path d="M399.803116 464.818832C399.803116 463.757919,399.381607 462.740585,398.631485 461.990463C397.881363 461.240341,396.864029 460.818832,395.803116 460.818832C394.742203 460.818832,393.724869 461.240341,392.974747 461.990463C392.224625 462.740585,391.803116 463.757919,391.803116 464.818832C391.803116 465.879745,392.224625 466.897079,392.974747 467.647202C393.724869 468.397324,394.742203 468.818832,395.803116 468.818832C396.864029 468.818832,397.881363 468.397324,398.631485 467.647202C399.381607 466.897079,399.803116 465.879745,399.803116 464.818832Z" style="fill: rgb(89.999390%,0.000000%,0.000000%);stroke: none;"></path>
  <path d="M196.642593 467.111252C196.642593 466.050339,196.221085 465.033005,195.470963 464.282883C194.720840 463.532761,193.703506 463.111252,192.642593 463.111252C191.581680 463.111252,190.564346 463.532761,189.814224 464.282883C189.064102 465.033005,188.642593 466.050339,188.642593 467.111252C188.642593 468.172165,189.064102 469.189499,189.814224 469.939621C190.564346 470.689743,191.581680 471.111252,192.642593 471.111252C193.703506 471.111252,194.720840 470.689743,195.470963 469.939621C196.221085 469.189499,196.642593 468.172165,196.642593 467.111252Z" style="stroke:rgb(39.999390%,39.999390%,39.999390%); stroke-width: 0.500000;stroke-linecap: round;stroke-linejoin: round;stroke-miterlimit: 10.000000;fill: none;"></path>
  <path d="M196.642593 467.111252C196.642593 466.050339,196.221085 465.033005,195.470963 464.282883C194.720840 463.532761,193.703506 463.111252,192.642593 463.111252C191.581680 463.111252,190.564346 463.532761,189.814224 464.282883C189.064102 465.033005,188.642593 466.050339,188.642593 467.111252C188.642593 468.172165,189.064102 469.189499,189.814224 469.939621C190.564346 470.689743,191.581680 471.111252,192.642593 471.111252C193.703506 471.111252,194.720840 470.689743,195.470963 469.939621C196.221085 469.189499,196.642593 468.172165,196.642593 467.111252Z" style="fill: rgb(89.999390%,0.000000%,0.000000%);stroke: none;"></path>
  <path d="M299.749695 601.447205C299.749695 600.386292,299.328186 599.368958,298.578064 598.618835C297.827942 597.868713,296.810608 597.447205,295.749695 597.447205C294.688782 597.447205,293.671448 597.868713,292.921326 598.618835C292.171204 599.368958,291.749695 600.386292,291.749695 601.447205C291.749695 602.508118,292.171204 603.525452,292.921326 604.275574C293.671448 605.025696,294.688782 605.447205,295.749695 605.447205C296.810608 605.447205,297.827942 605.025696,298.578064 604.275574C299.328186 603.525452,299.749695 602.508118,299.749695 601.447205Z" style="stroke:rgb(39.999390%,39.999390%,39.999390%); stroke-width: 0.500000;stroke-linecap: round;stroke-linejoin: round;stroke-miterlimit: 10.000000;fill: none;"></path>
  <path d="M299.749695 601.447205C299.749695 600.386292,299.328186 599.368958,298.578064 598.618835C297.827942 597.868713,296.810608 597.447205,295.749695 597.447205C294.688782 597.447205,293.671448 597.868713,292.921326 598.618835C292.171204 599.368958,291.749695 600.386292,291.749695 601.447205C291.749695 602.508118,292.171204 603.525452,292.921326 604.275574C293.671448 605.025696,294.688782 605.447205,295.749695 605.447205C296.810608 605.447205,297.827942 605.025696,298.578064 604.275574C299.328186 603.525452,299.749695 602.508118,299.749695 601.447205Z" style="fill: rgb(0.000000%,50.000000%,0.000000%);stroke: none;"></path>
  <path d="M395.803116 464.818832L292.696014 330.474243" style="stroke:rgb(60.000610%,60.000610%,60.000610%); stroke-width: 1.500000;stroke-linecap: round;stroke-dasharray: 3.000000 3.000000 ;stroke-linejoin: round;stroke-miterlimit: 10.000000;fill: none;"></path>
  <path d="M192.642593 467.111252L292.696014 330.474243" style="stroke:rgb(60.000610%,60.000610%,60.000610%); stroke-width: 1.500000;stroke-linecap: round;stroke-dasharray: 3.000000 3.000000 ;stroke-linejoin: round;stroke-miterlimit: 10.000000;fill: none;"></path>
  <path d="M399.803116 464.818832C399.803116 463.757919,399.381607 462.740585,398.631485 461.990463C397.881363 461.240341,396.864029 460.818832,395.803116 460.818832C394.742203 460.818832,393.724869 461.240341,392.974747 461.990463C392.224625 462.740585,391.803116 463.757919,391.803116 464.818832C391.803116 465.879745,392.224625 466.897079,392.974747 467.647202C393.724869 468.397324,394.742203 468.818832,395.803116 468.818832C396.864029 468.818832,397.881363 468.397324,398.631485 467.647202C399.381607 466.897079,399.803116 465.879745,399.803116 464.818832Z" style="stroke:rgb(39.999390%,39.999390%,39.999390%); stroke-width: 0.500000;stroke-linecap: round;stroke-linejoin: round;stroke-miterlimit: 10.000000;fill: none;"></path>
  <path d="M399.803116 464.818832C399.803116 463.757919,399.381607 462.740585,398.631485 461.990463C397.881363 461.240341,396.864029 460.818832,395.803116 460.818832C394.742203 460.818832,393.724869 461.240341,392.974747 461.990463C392.224625 462.740585,391.803116 463.757919,391.803116 464.818832C391.803116 465.879745,392.224625 466.897079,392.974747 467.647202C393.724869 468.397324,394.742203 468.818832,395.803116 468.818832C396.864029 468.818832,397.881363 468.397324,398.631485 467.647202C399.381607 466.897079,399.803116 465.879745,399.803116 464.818832Z" style="fill: rgb(89.999390%,0.000000%,0.000000%);stroke: none;"></path>
  <path d="M196.642593 467.111252C196.642593 466.050339,196.221085 465.033005,195.470963 464.282883C194.720840 463.532761,193.703506 463.111252,192.642593 463.111252C191.581680 463.111252,190.564346 463.532761,189.814224 464.282883C189.064102 465.033005,188.642593 466.050339,188.642593 467.111252C188.642593 468.172165,189.064102 469.189499,189.814224 469.939621C190.564346 470.689743,191.581680 471.111252,192.642593 471.111252C193.703506 471.111252,194.720840 470.689743,195.470963 469.939621C196.221085 469.189499,196.642593 468.172165,196.642593 467.111252Z" style="stroke:rgb(39.999390%,39.999390%,39.999390%); stroke-width: 0.500000;stroke-linecap: round;stroke-linejoin: round;stroke-miterlimit: 10.000000;fill: none;"></path>
  <path d="M196.642593 467.111252C196.642593 466.050339,196.221085 465.033005,195.470963 464.282883C194.720840 463.532761,193.703506 463.111252,192.642593 463.111252C191.581680 463.111252,190.564346 463.532761,189.814224 464.282883C189.064102 465.033005,188.642593 466.050339,188.642593 467.111252C188.642593 468.172165,189.064102 469.189499,189.814224 469.939621C190.564346 470.689743,191.581680 471.111252,192.642593 471.111252C193.703506 471.111252,194.720840 470.689743,195.470963 469.939621C196.221085 469.189499,196.642593 468.172165,196.642593 467.111252Z" style="fill: rgb(89.999390%,0.000000%,0.000000%);stroke: none;"></path>
  <path d="M296.696014 330.474243C296.696014 329.413330,296.274506 328.395996,295.524384 327.645874C294.774261 326.895752,293.756927 326.474243,292.696014 326.474243C291.635101 326.474243,290.617767 326.895752,289.867645 327.645874C289.117523 328.395996,288.696014 329.413330,288.696014 330.474243C288.696014 331.535156,289.117523 332.552490,289.867645 333.302612C290.617767 334.052734,291.635101 334.474243,292.696014 334.474243C293.756927 334.474243,294.774261 334.052734,295.524384 333.302612C296.274506 332.552490,296.696014 331.535156,296.696014 330.474243Z" style="stroke:rgb(39.999390%,39.999390%,39.999390%); stroke-width: 0.500000;stroke-linecap: round;stroke-linejoin: round;stroke-miterlimit: 10.000000;fill: none;"></path>
  <path d="M296.696014 330.474243C296.696014 329.413330,296.274506 328.395996,295.524384 327.645874C294.774261 326.895752,293.756927 326.474243,292.696014 326.474243C291.635101 326.474243,290.617767 326.895752,289.867645 327.645874C289.117523 328.395996,288.696014 329.413330,288.696014 330.474243C288.696014 331.535156,289.117523 332.552490,289.867645 333.302612C290.617767 334.052734,291.635101 334.474243,292.696014 334.474243C293.756927 334.474243,294.774261 334.052734,295.524384 333.302612C296.274506 332.552490,296.696014 331.535156,296.696014 330.474243Z" style="fill: rgb(9.800720%,9.800720%,44.000244%);stroke: none;"></path>
  <path d="M576.169174 452.361893L656.464508 601.464508" style="stroke:rgb(60.000610%,60.000610%,60.000610%); stroke-width: 1.500000;stroke-linecap: round;stroke-dasharray: 3.000000 3.000000 ;stroke-linejoin: round;stroke-miterlimit: 10.000000;fill: none;"></path>
  <path d="M580.169174 452.361893C580.169174 451.300980,579.747665 450.283646,578.997543 449.533524C578.247421 448.783401,577.230087 448.361893,576.169174 448.361893C575.108261 448.361893,574.090927 448.783401,573.340805 449.533524C572.590683 450.283646,572.169174 451.300980,572.169174 452.361893C572.169174 453.422806,572.590683 454.440140,573.340805 455.190262C574.090927 455.940384,575.108261 456.361893,576.169174 456.361893C577.230087 456.361893,578.247421 455.940384,578.997543 455.190262C579.747665 454.440140,580.169174 453.422806,580.169174 452.361893Z" style="stroke:rgb(39.999390%,39.999390%,39.999390%); stroke-width: 0.500000;stroke-linecap: round;stroke-linejoin: round;stroke-miterlimit: 10.000000;fill: none;"></path>
  <path d="M580.169174 452.361893C580.169174 451.300980,579.747665 450.283646,578.997543 449.533524C578.247421 448.783401,577.230087 448.361893,576.169174 448.361893C575.108261 448.361893,574.090927 448.783401,573.340805 449.533524C572.590683 450.283646,572.169174 451.300980,572.169174 452.361893C572.169174 453.422806,572.590683 454.440140,573.340805 455.190262C574.090927 455.940384,575.108261 456.361893,576.169174 456.361893C577.230087 456.361893,578.247421 455.940384,578.997543 455.190262C579.747665 454.440140,580.169174 453.422806,580.169174 452.361893Z" style="fill: rgb(89.999390%,0.000000%,0.000000%);stroke: none;"></path>
  <path d="M660.464508 601.464508C660.464508 600.403595,660.042999 599.386261,659.292877 598.636139C658.542755 597.886017,657.525421 597.464508,656.464508 597.464508C655.403595 597.464508,654.386261 597.886017,653.636139 598.636139C652.886017 599.386261,652.464508 600.403595,652.464508 601.464508C652.464508 602.525421,652.886017 603.542755,653.636139 604.292877C654.386261 605.042999,655.403595 605.464508,656.464508 605.464508C657.525421 605.464508,658.542755 605.042999,659.292877 604.292877C660.042999 603.542755,660.464508 602.525421,660.464508 601.464508Z" style="stroke:rgb(39.999390%,39.999390%,39.999390%); stroke-width: 0.500000;stroke-linecap: round;stroke-linejoin: round;stroke-miterlimit: 10.000000;fill: none;"></path>
  <path d="M660.464508 601.464508C660.464508 600.403595,660.042999 599.386261,659.292877 598.636139C658.542755 597.886017,657.525421 597.464508,656.464508 597.464508C655.403595 597.464508,654.386261 597.886017,653.636139 598.636139C652.886017 599.386261,652.464508 600.403595,652.464508 601.464508C652.464508 602.525421,652.886017 603.542755,653.636139 604.292877C654.386261 605.042999,655.403595 605.464508,656.464508 605.464508C657.525421 605.464508,658.542755 605.042999,659.292877 604.292877C660.042999 603.542755,660.464508 602.525421,660.464508 601.464508Z" style="fill: rgb(100.000000%,100.000000%,0.000000%);stroke: none;"></path>
  <path d="M576.169174 452.361893L656.447205 303.250641" style="stroke:rgb(60.000610%,60.000610%,60.000610%); stroke-width: 1.500000;stroke-linecap: round;stroke-dasharray: 3.000000 3.000000 ;stroke-linejoin: round;stroke-miterlimit: 10.000000;fill: none;"></path>
  <path d="M553.357407 168.888748L656.447205 303.250641" style="stroke:rgb(60.000610%,60.000610%,60.000610%); stroke-width: 1.500000;stroke-linecap: round;stroke-dasharray: 3.000000 3.000000 ;stroke-linejoin: round;stroke-miterlimit: 10.000000;fill: none;"></path>
  <path d="M580.169174 452.361893C580.169174 451.300980,579.747665 450.283646,578.997543 449.533524C578.247421 448.783401,577.230087 448.361893,576.169174 448.361893C575.108261 448.361893,574.090927 448.783401,573.340805 449.533524C572.590683 450.283646,572.169174 451.300980,572.169174 452.361893C572.169174 453.422806,572.590683 454.440140,573.340805 455.190262C574.090927 455.940384,575.108261 456.361893,576.169174 456.361893C577.230087 456.361893,578.247421 455.940384,578.997543 455.190262C579.747665 454.440140,580.169174 453.422806,580.169174 452.361893Z" style="stroke:rgb(39.999390%,39.999390%,39.999390%); stroke-width: 0.500000;stroke-linecap: round;stroke-linejoin: round;stroke-miterlimit: 10.000000;fill: none;"></path>
  <path d="M580.169174 452.361893C580.169174 451.300980,579.747665 450.283646,578.997543 449.533524C578.247421 448.783401,577.230087 448.361893,576.169174 448.361893C575.108261 448.361893,574.090927 448.783401,573.340805 449.533524C572.590683 450.283646,572.169174 451.300980,572.169174 452.361893C572.169174 453.422806,572.590683 454.440140,573.340805 455.190262C574.090927 455.940384,575.108261 456.361893,576.169174 456.361893C577.230087 456.361893,578.247421 455.940384,578.997543 455.190262C579.747665 454.440140,580.169174 453.422806,580.169174 452.361893Z" style="fill: rgb(89.999390%,0.000000%,0.000000%);stroke: none;"></path>
  <path d="M557.357407 168.888748C557.357407 167.827835,556.935898 166.810501,556.185776 166.060379C555.435654 165.310257,554.418320 164.888748,553.357407 164.888748C552.296494 164.888748,551.279160 165.310257,550.529037 166.060379C549.778915 166.810501,549.357407 167.827835,549.357407 168.888748C549.357407 169.949661,549.778915 170.966995,550.529037 171.717117C551.279160 172.467239,552.296494 172.888748,553.357407 172.888748C554.418320 172.888748,555.435654 172.467239,556.185776 171.717117C556.935898 170.966995,557.357407 169.949661,557.357407 168.888748Z" style="stroke:rgb(39.999390%,39.999390%,39.999390%); stroke-width: 0.500000;stroke-linecap: round;stroke-linejoin: round;stroke-miterlimit: 10.000000;fill: none;"></path>
  <path d="M557.357407 168.888748C557.357407 167.827835,556.935898 166.810501,556.185776 166.060379C555.435654 165.310257,554.418320 164.888748,553.357407 164.888748C552.296494 164.888748,551.279160 165.310257,550.529037 166.060379C549.778915 166.810501,549.357407 167.827835,549.357407 168.888748C549.357407 169.949661,549.778915 170.966995,550.529037 171.717117C551.279160 172.467239,552.296494 172.888748,553.357407 172.888748C554.418320 172.888748,555.435654 172.467239,556.185776 171.717117C556.935898 170.966995,557.357407 169.949661,557.357407 168.888748Z" style="fill: rgb(89.999390%,0.000000%,0.000000%);stroke: none;"></path>
  <path d="M660.447205 303.250641C660.447205 302.189728,660.025696 301.172394,659.275574 300.422272C658.525452 299.672150,657.508118 299.250641,656.447205 299.250641C655.386292 299.250641,654.368958 299.672150,653.618835 300.422272C652.868713 301.172394,652.447205 302.189728,652.447205 303.250641C652.447205 304.311554,652.868713 305.328888,653.618835 306.079010C654.368958 306.829132,655.386292 307.250641,656.447205 307.250641C657.508118 307.250641,658.525452 306.829132,659.275574 306.079010C660.025696 305.328888,660.447205 304.311554,660.447205 303.250641Z" style="stroke:rgb(39.999390%,39.999390%,39.999390%); stroke-width: 0.500000;stroke-linecap: round;stroke-linejoin: round;stroke-miterlimit: 10.000000;fill: none;"></path>
  <path d="M660.447205 303.250641C660.447205 302.189728,660.025696 301.172394,659.275574 300.422272C658.525452 299.672150,657.508118 299.250641,656.447205 299.250641C655.386292 299.250641,654.368958 299.672150,653.618835 300.422272C652.868713 301.172394,652.447205 302.189728,652.447205 303.250641C652.447205 304.311554,652.868713 305.328888,653.618835 306.079010C654.368958 306.829132,655.386292 307.250641,656.447205 307.250641C657.508118 307.250641,658.525452 306.829132,659.275574 306.079010C660.025696 305.328888,660.447205 304.311554,660.447205 303.250641Z" style="fill: rgb(0.000000%,50.000000%,0.000000%);stroke: none;"></path>
  <path d="M169.830826 183.638107L89.535492 34.535492" style="stroke:rgb(60.000610%,60.000610%,60.000610%); stroke-width: 1.500000;stroke-linecap: round;stroke-dasharray: 3.000000 3.000000 ;stroke-linejoin: round;stroke-miterlimit: 10.000000;fill: none;"></path>
  <path d="M173.830826 183.638107C173.830826 182.577194,173.409317 181.559860,172.659195 180.809738C171.909073 180.059616,170.891739 179.638107,169.830826 179.638107C168.769913 179.638107,167.752579 180.059616,167.002457 180.809738C166.252335 181.559860,165.830826 182.577194,165.830826 183.638107C165.830826 184.699020,166.252335 185.716354,167.002457 186.466476C167.752579 187.216599,168.769913 187.638107,169.830826 187.638107C170.891739 187.638107,171.909073 187.216599,172.659195 186.466476C173.409317 185.716354,173.830826 184.699020,173.830826 183.638107Z" style="stroke:rgb(39.999390%,39.999390%,39.999390%); stroke-width: 0.500000;stroke-linecap: round;stroke-linejoin: round;stroke-miterlimit: 10.000000;fill: none;"></path>
  <path d="M173.830826 183.638107C173.830826 182.577194,173.409317 181.559860,172.659195 180.809738C171.909073 180.059616,170.891739 179.638107,169.830826 179.638107C168.769913 179.638107,167.752579 180.059616,167.002457 180.809738C166.252335 181.559860,165.830826 182.577194,165.830826 183.638107C165.830826 184.699020,166.252335 185.716354,167.002457 186.466476C167.752579 187.216599,168.769913 187.638107,169.830826 187.638107C170.891739 187.638107,171.909073 187.216599,172.659195 186.466476C173.409317 185.716354,173.830826 184.699020,173.830826 183.638107Z" style="fill: rgb(89.999390%,0.000000%,0.000000%);stroke: none;"></path>
  <path d="M93.535492 34.535492C93.535492 33.474579,93.113983 32.457245,92.363861 31.707123C91.613739 30.957001,90.596405 30.535492,89.535492 30.535492C88.474579 30.535492,87.457245 30.957001,86.707123 31.707123C85.957001 32.457245,85.535492 33.474579,85.535492 34.535492C85.535492 35.596405,85.957001 36.613739,86.707123 37.363861C87.457245 38.113983,88.474579 38.535492,89.535492 38.535492C90.596405 38.535492,91.613739 38.113983,92.363861 37.363861C93.113983 36.613739,93.535492 35.596405,93.535492 34.535492Z" style="stroke:rgb(39.999390%,39.999390%,39.999390%); stroke-width: 0.500000;stroke-linecap: round;stroke-linejoin: round;stroke-miterlimit: 10.000000;fill: none;"></path>
  <path d="M93.535492 34.535492C93.535492 33.474579,93.113983 32.457245,92.363861 31.707123C91.613739 30.957001,90.596405 30.535492,89.535492 30.535492C88.474579 30.535492,87.457245 30.957001,86.707123 31.707123C85.957001 32.457245,85.535492 33.474579,85.535492 34.535492C85.535492 35.596405,85.957001 36.613739,86.707123 37.363861C87.457245 38.113983,88.474579 38.535492,89.535492 38.535492C90.596405 38.535492,91.613739 38.113983,92.363861 37.363861C93.113983 36.613739,93.535492 35.596405,93.535492 34.535492Z" style="fill: rgb(100.000000%,100.000000%,0.000000%);stroke: none;"></path>
  <path d="M169.830826 183.638107L89.552795 332.749359" style="stroke:rgb(60.000610%,60.000610%,60.000610%); stroke-width: 1.500000;stroke-linecap: round;stroke-dasharray: 3.000000 3.000000 ;stroke-linejoin: round;stroke-miterlimit: 10.000000;fill: none;"></path>
  <path d="M192.642593 467.111252L89.552795 332.749359" style="stroke:rgb(60.000610%,60.000610%,60.000610%); stroke-width: 1.500000;stroke-linecap: round;stroke-dasharray: 3.000000 3.000000 ;stroke-linejoin: round;stroke-miterlimit: 10.000000;fill: none;"></path>
  <path d="M173.830826 183.638107C173.830826 182.577194,173.409317 181.559860,172.659195 180.809738C171.909073 180.059616,170.891739 179.638107,169.830826 179.638107C168.769913 179.638107,167.752579 180.059616,167.002457 180.809738C166.252335 181.559860,165.830826 182.577194,165.830826 183.638107C165.830826 184.699020,166.252335 185.716354,167.002457 186.466476C167.752579 187.216599,168.769913 187.638107,169.830826 187.638107C170.891739 187.638107,171.909073 187.216599,172.659195 186.466476C173.409317 185.716354,173.830826 184.699020,173.830826 183.638107Z" style="stroke:rgb(39.999390%,39.999390%,39.999390%); stroke-width: 0.500000;stroke-linecap: round;stroke-linejoin: round;stroke-miterlimit: 10.000000;fill: none;"></path>
  <path d="M173.830826 183.638107C173.830826 182.577194,173.409317 181.559860,172.659195 180.809738C171.909073 180.059616,170.891739 179.638107,169.830826 179.638107C168.769913 179.638107,167.752579 180.059616,167.002457 180.809738C166.252335 181.559860,165.830826 182.577194,165.830826 183.638107C165.830826 184.699020,166.252335 185.716354,167.002457 186.466476C167.752579 187.216599,168.769913 187.638107,169.830826 187.638107C170.891739 187.638107,171.909073 187.216599,172.659195 186.466476C173.409317 185.716354,173.830826 184.699020,173.830826 183.638107Z" style="fill: rgb(89.999390%,0.000000%,0.000000%);stroke: none;"></path>
  <path d="M196.642593 467.111252C196.642593 466.050339,196.221085 465.033005,195.470963 464.282883C194.720840 463.532761,193.703506 463.111252,192.642593 463.111252C191.581680 463.111252,190.564346 463.532761,189.814224 464.282883C189.064102 465.033005,188.642593 466.050339,188.642593 467.111252C188.642593 468.172165,189.064102 469.189499,189.814224 469.939621C190.564346 470.689743,191.581680 471.111252,192.642593 471.111252C193.703506 471.111252,194.720840 470.689743,195.470963 469.939621C196.221085 469.189499,196.642593 468.172165,196.642593 467.111252Z" style="stroke:rgb(39.999390%,39.999390%,39.999390%); stroke-width: 0.500000;stroke-linecap: round;stroke-linejoin: round;stroke-miterlimit: 10.000000;fill: none;"></path>
  <path d="M196.642593 467.111252C196.642593 466.050339,196.221085 465.033005,195.470963 464.282883C194.720840 463.532761,193.703506 463.111252,192.642593 463.111252C191.581680 463.111252,190.564346 463.532761,189.814224 464.282883C189.064102 465.033005,188.642593 466.050339,188.642593 467.111252C188.642593 468.172165,189.064102 469.189499,189.814224 469.939621C190.564346 470.689743,191.581680 471.111252,192.642593 471.111252C193.703506 471.111252,194.720840 470.689743,195.470963 469.939621C196.221085 469.189499,196.642593 468.172165,196.642593 467.111252Z" style="fill: rgb(89.999390%,0.000000%,0.000000%);stroke: none;"></path>
  <path d="M93.552795 332.749359C93.552795 331.688446,93.131287 330.671112,92.381165 329.920990C91.631042 329.170868,90.613708 328.749359,89.552795 328.749359C88.491882 328.749359,87.474548 329.170868,86.724426 329.920990C85.974304 330.671112,85.552795 331.688446,85.552795 332.749359C85.552795 333.810272,85.974304 334.827606,86.724426 335.577728C87.474548 336.327850,88.491882 336.749359,89.552795 336.749359C90.613708 336.749359,91.631042 336.327850,92.381165 335.577728C93.131287 334.827606,93.552795 333.810272,93.552795 332.749359Z" style="stroke:rgb(39.999390%,39.999390%,39.999390%); stroke-width: 0.500000;stroke-linecap: round;stroke-linejoin: round;stroke-miterlimit: 10.000000;fill: none;"></path>
  <path d="M93.552795 332.749359C93.552795 331.688446,93.131287 330.671112,92.381165 329.920990C91.631042 329.170868,90.613708 328.749359,89.552795 328.749359C88.491882 328.749359,87.474548 329.170868,86.724426 329.920990C85.974304 330.671112,85.552795 331.688446,85.552795 332.749359C85.552795 333.810272,85.974304 334.827606,86.724426 335.577728C87.474548 336.327850,88.491882 336.749359,89.552795 336.749359C90.613708 336.749359,91.631042 336.327850,92.381165 335.577728C93.131287 334.827606,93.552795 333.810272,93.552795 332.749359Z" style="fill: rgb(0.000000%,50.000000%,0.000000%);stroke: none;"></path>
  <path d="M553.357407 168.888748L656.464508 34.535492" style="stroke:rgb(60.000610%,60.000610%,60.000610%); stroke-width: 1.500000;stroke-linecap: round;stroke-dasharray: 3.000000 3.000000 ;stroke-linejoin: round;stroke-miterlimit: 10.000000;fill: none;"></path>
  <path d="M557.357407 168.888748C557.357407 167.827835,556.935898 166.810501,556.185776 166.060379C555.435654 165.310257,554.418320 164.888748,553.357407 164.888748C552.296494 164.888748,551.279160 165.310257,550.529037 166.060379C549.778915 166.810501,549.357407 167.827835,549.357407 168.888748C549.357407 169.949661,549.778915 170.966995,550.529037 171.717117C551.279160 172.467239,552.296494 172.888748,553.357407 172.888748C554.418320 172.888748,555.435654 172.467239,556.185776 171.717117C556.935898 170.966995,557.357407 169.949661,557.357407 168.888748Z" style="stroke:rgb(39.999390%,39.999390%,39.999390%); stroke-width: 0.500000;stroke-linecap: round;stroke-linejoin: round;stroke-miterlimit: 10.000000;fill: none;"></path>
  <path d="M557.357407 168.888748C557.357407 167.827835,556.935898 166.810501,556.185776 166.060379C555.435654 165.310257,554.418320 164.888748,553.357407 164.888748C552.296494 164.888748,551.279160 165.310257,550.529037 166.060379C549.778915 166.810501,549.357407 167.827835,549.357407 168.888748C549.357407 169.949661,549.778915 170.966995,550.529037 171.717117C551.279160 172.467239,552.296494 172.888748,553.357407 172.888748C554.418320 172.888748,555.435654 172.467239,556.185776 171.717117C556.935898 170.966995,557.357407 169.949661,557.357407 168.888748Z" style="fill: rgb(89.999390%,0.000000%,0.000000%);stroke: none;"></path>
  <path d="M660.464508 34.535492C660.464508 33.474579,660.042999 32.457245,659.292877 31.707123C658.542755 30.957001,657.525421 30.535492,656.464508 30.535492C655.403595 30.535492,654.386261 30.957001,653.636139 31.707123C652.886017 32.457245,652.464508 33.474579,652.464508 34.535492C652.464508 35.596405,652.886017 36.613739,653.636139 37.363861C654.386261 38.113983,655.403595 38.535492,656.464508 38.535492C657.525421 38.535492,658.542755 38.113983,659.292877 37.363861C660.042999 36.613739,660.464508 35.596405,660.464508 34.535492Z" style="stroke:rgb(39.999390%,39.999390%,39.999390%); stroke-width: 0.500000;stroke-linecap: round;stroke-linejoin: round;stroke-miterlimit: 10.000000;fill: none;"></path>
  <path d="M660.464508 34.535492C660.464508 33.474579,660.042999 32.457245,659.292877 31.707123C658.542755 30.957001,657.525421 30.535492,656.464508 30.535492C655.403595 30.535492,654.386261 30.957001,653.636139 31.707123C652.886017 32.457245,652.464508 33.474579,652.464508 34.535492C652.464508 35.596405,652.886017 36.613739,653.636139 37.363861C654.386261 38.113983,655.403595 38.535492,656.464508 38.535492C657.525421 38.535492,658.542755 38.113983,659.292877 37.363861C660.042999 36.613739,660.464508 35.596405,660.464508 34.535492Z" style="fill: rgb(100.000000%,100.000000%,0.000000%);stroke: none;"></path>
  <path d="M192.642593 467.111252L89.535492 601.464508" style="stroke:rgb(60.000610%,60.000610%,60.000610%); stroke-width: 1.500000;stroke-linecap: round;stroke-dasharray: 3.000000 3.000000 ;stroke-linejoin: round;stroke-miterlimit: 10.000000;fill: none;"></path>
  <path d="M196.642593 467.111252C196.642593 466.050339,196.221085 465.033005,195.470963 464.282883C194.720840 463.532761,193.703506 463.111252,192.642593 463.111252C191.581680 463.111252,190.564346 463.532761,189.814224 464.282883C189.064102 465.033005,188.642593 466.050339,188.642593 467.111252C188.642593 468.172165,189.064102 469.189499,189.814224 469.939621C190.564346 470.689743,191.581680 471.111252,192.642593 471.111252C193.703506 471.111252,194.720840 470.689743,195.470963 469.939621C196.221085 469.189499,196.642593 468.172165,196.642593 467.111252Z" style="stroke:rgb(39.999390%,39.999390%,39.999390%); stroke-width: 0.500000;stroke-linecap: round;stroke-linejoin: round;stroke-miterlimit: 10.000000;fill: none;"></path>
  <path d="M196.642593 467.111252C196.642593 466.050339,196.221085 465.033005,195.470963 464.282883C194.720840 463.532761,193.703506 463.111252,192.642593 463.111252C191.581680 463.111252,190.564346 463.532761,189.814224 464.282883C189.064102 465.033005,188.642593 466.050339,188.642593 467.111252C188.642593 468.172165,189.064102 469.189499,189.814224 469.939621C190.564346 470.689743,191.581680 471.111252,192.642593 471.111252C193.703506 471.111252,194.720840 470.689743,195.470963 469.939621C196.221085 469.189499,196.642593 468.172165,196.642593 467.111252Z" style="fill: rgb(89.999390%,0.000000%,0.000000%);stroke: none;"></path>
  <path d="M93.535492 601.464508C93.535492 600.403595,93.113983 599.386261,92.363861 598.636139C91.613739 597.886017,90.596405 597.464508,89.535492 597.464508C88.474579 597.464508,87.457245 597.886017,86.707123 598.636139C85.957001 599.386261,85.535492 600.403595,85.535492 601.464508C85.535492 602.525421,85.957001 603.542755,86.707123 604.292877C87.457245 605.042999,88.474579 605.464508,89.535492 605.464508C90.596405 605.464508,91.613739 605.042999,92.363861 604.292877C93.113983 603.542755,93.535492 602.525421,93.535492 601.464508Z" style="stroke:rgb(39.999390%,39.999390%,39.999390%); stroke-width: 0.500000;stroke-linecap: round;stroke-linejoin: round;stroke-miterlimit: 10.000000;fill: none;"></path>
  <path d="M93.535492 601.464508C93.535492 600.403595,93.113983 599.386261,92.363861 598.636139C91.613739 597.886017,90.596405 597.464508,89.535492 597.464508C88.474579 597.464508,87.457245 597.886017,86.707123 598.636139C85.957001 599.386261,85.535492 600.403595,85.535492 601.464508C85.535492 602.525421,85.957001 603.542755,86.707123 604.292877C87.457245 605.042999,88.474579 605.464508,89.535492 605.464508C90.596405 605.464508,91.613739 605.042999,92.363861 604.292877C93.113983 603.542755,93.535492 602.525421,93.535492 601.464508Z" style="fill: rgb(100.000000%,100.000000%,0.000000%);stroke: none;"></path>
</svg>
