<?xml version="1.0"?>
<!-- Created by MetaPost 2.00 on 2025.04.10:1557 -->
<svg version="1.1" xmlns="http://www.w3.org/2000/svg" xmlns:xlink="http://www.w3.org/1999/xlink" width="659.643219" height="686.529419" viewBox="0 0 659.643219 686.529419">
<!-- Original BoundingBox: -329.821609 -343.264709 329.821609 343.264709 -->
  <path d="M45.535492 626.464508L612.464508 626.464508L612.464508 59.535492L45.535492 59.535492L45.535492 626.464508Z" style="fill: rgb(100.000000%,100.000000%,100.000000%);stroke: none;"></path>
  <path d="M45.535492 626.464508L612.464508 626.464508" style="stroke:rgb(0.000000%,0.000000%,0.000000%); stroke-width: 1.000000;stroke-linecap: round;stroke-linejoin: round;stroke-miterlimit: 10.000000;fill: none;"></path>
  <path d="M612.464508 626.464508L612.464508 59.535492" style="stroke:rgb(0.000000%,0.000000%,0.000000%); stroke-width: 1.000000;stroke-linecap: round;stroke-linejoin: round;stroke-miterlimit: 10.000000;fill: none;"></path>
  <path d="M612.464508 59.535492L45.535492 59.535492" style="stroke:rgb(0.000000%,0.000000%,0.000000%); stroke-width: 1.000000;stroke-linecap: round;stroke-linejoin: round;stroke-miterlimit: 10.000000;fill: none;"></path>
  <path d="M45.535492 59.535492L45.535492 626.464508" style="stroke:rgb(0.000000%,0.000000%,0.000000%); stroke-width: 1.000000;stroke-linecap: round;stroke-linejoin: round;stroke-miterlimit: 10.000000;fill: none;"></path>
  <path d="M641.772903 147.798080C641.772903 108.660263,626.223145 71.130096,598.550629 43.457565C570.878098 15.785049,533.347931 0.235291,494.210114 0.235291C455.072296 0.235291,417.542130 15.785049,389.869598 43.457565C362.197083 71.130096,346.647324 108.660263,346.647324 147.798080C346.647324 186.935898,362.197083 224.466064,389.869598 252.138596C417.542130 279.811111,455.072296 295.360870,494.210114 295.360870C533.347931 295.360870,570.878098 279.811111,598.550629 252.138596C626.223145 224.466064,641.772903 186.935898,641.772903 147.798080Z" style="stroke:rgb(25.500488%,41.000366%,88.400269%); stroke-width: 1.000000;stroke-linecap: round;stroke-linejoin: round;stroke-miterlimit: 10.000000;fill: none;"></path>
  <path d="M294.803970 343.000000C294.803970 303.862183,279.254211 266.332016,251.581696 238.659485C223.909164 210.986969,186.378998 195.437210,147.241180 195.437210C108.103363 195.437210,70.573196 210.986969,42.900665 238.659485C15.228149 266.332016,-0.321609 303.862183,-0.321609 343.000000C-0.321609 382.137817,15.228149 419.667984,42.900665 447.340515C70.573196 475.013031,108.103363 490.562790,147.241180 490.562790C186.378998 490.562790,223.909164 475.013031,251.581696 447.340515C279.254211 419.667984,294.803970 382.137817,294.803970 343.000000Z" style="stroke:rgb(25.500488%,41.000366%,88.400269%); stroke-width: 1.000000;stroke-linecap: round;stroke-linejoin: round;stroke-miterlimit: 10.000000;fill: none;"></path>
  <path d="M641.772903 538.201920C641.772903 499.064102,626.223145 461.533936,598.550629 433.861404C570.878098 406.188889,533.347931 390.639130,494.210114 390.639130C455.072296 390.639130,417.542130 406.188889,389.869598 433.861404C362.197083 461.533936,346.647324 499.064102,346.647324 538.201920C346.647324 577.339737,362.197083 614.869904,389.869598 642.542435C417.542130 670.214951,455.072296 685.764709,494.210114 685.764709C533.347931 685.764709,570.878098 670.214951,598.550629 642.542435C626.223145 614.869904,641.772903 577.339737,641.772903 538.201920Z" style="stroke:rgb(25.500488%,41.000366%,88.400269%); stroke-width: 1.000000;stroke-linecap: round;stroke-linejoin: round;stroke-miterlimit: 10.000000;fill: none;"></path>
  <path d="M311.352676 147.798080C311.352676 108.660263,295.802917 71.130096,268.130402 43.457565C240.457870 15.785049,202.927704 0.235291,163.789886 0.235291C124.652069 0.235291,87.121902 15.785049,59.449371 43.457565C31.776855 71.130096,16.227097 108.660263,16.227097 147.798080C16.227097 186.935898,31.776855 224.466064,59.449371 252.138596C87.121902 279.811111,124.652069 295.360870,163.789886 295.360870C202.927704 295.360870,240.457870 279.811111,268.130402 252.138596C295.802917 224.466064,311.352676 186.935898,311.352676 147.798080Z" style="stroke:rgb(25.500488%,41.000366%,88.400269%); stroke-width: 1.000000;stroke-linecap: round;stroke-linejoin: round;stroke-miterlimit: 10.000000;fill: none;"></path>
  <path d="M658.321609 343.000000C658.321609 303.862183,642.771851 266.332016,615.099335 238.659485C587.426804 210.986969,549.896637 195.437210,510.758820 195.437210C471.621002 195.437210,434.090836 210.986969,406.418304 238.659485C378.745789 266.332016,363.196030 303.862183,363.196030 343.000000C363.196030 382.137817,378.745789 419.667984,406.418304 447.340515C434.090836 475.013031,471.621002 490.562790,510.758820 490.562790C549.896637 490.562790,587.426804 475.013031,615.099335 447.340515C642.771851 419.667984,658.321609 382.137817,658.321609 343.000000Z" style="stroke:rgb(25.500488%,41.000366%,88.400269%); stroke-width: 1.000000;stroke-linecap: round;stroke-linejoin: round;stroke-miterlimit: 10.000000;fill: none;"></path>
  <path d="M311.352676 538.201920C311.352676 499.064102,295.802917 461.533936,268.130402 433.861404C240.457870 406.188889,202.927704 390.639130,163.789886 390.639130C124.652069 390.639130,87.121902 406.188889,59.449371 433.861404C31.776855 461.533936,16.227097 499.064102,16.227097 538.201920C16.227097 577.339737,31.776855 614.869904,59.449371 642.542435C87.121902 670.214951,124.652069 685.764709,163.789886 685.764709C202.927704 685.764709,240.457870 670.214951,268.130402 642.542435C295.802917 614.869904,311.352676 577.339737,311.352676 538.201920Z" style="stroke:rgb(25.500488%,41.000366%,88.400269%); stroke-width: 1.000000;stroke-linecap: round;stroke-linejoin: round;stroke-miterlimit: 10.000000;fill: none;"></path>
  <path d="M476.562790 199.442459C476.562790 160.304642,461.013031 122.774475,433.340515 95.101944C405.667984 67.429428,368.137817 51.879669,329.000000 51.879669C289.862183 51.879669,252.332016 67.429428,224.659485 95.101944C196.986969 122.774475,181.437210 160.304642,181.437210 199.442459C181.437210 238.580276,196.986969 276.110443,224.659485 303.782974C252.332016 331.455490,289.862183 347.005249,329.000000 347.005249C368.137817 347.005249,405.667984 331.455490,433.340515 303.782974C461.013031 276.110443,476.562790 238.580276,476.562790 199.442459Z" style="stroke:rgb(25.500488%,41.000366%,88.400269%); stroke-width: 1.000000;stroke-linecap: round;stroke-linejoin: round;stroke-miterlimit: 10.000000;fill: none;"></path>
  <path d="M476.562790 486.557541C476.562790 447.419724,461.013031 409.889557,433.340515 382.217026C405.667984 354.544510,368.137817 338.994751,329.000000 338.994751C289.862183 338.994751,252.332016 354.544510,224.659485 382.217026C196.986969 409.889557,181.437210 447.419724,181.437210 486.557541C181.437210 525.695358,196.986969 563.225525,224.659485 590.898056C252.332016 618.570572,289.862183 634.120331,329.000000 634.120331C368.137817 634.120331,405.667984 618.570572,433.340515 590.898056C461.013031 563.225525,476.562790 525.695358,476.562790 486.557541Z" style="stroke:rgb(25.500488%,41.000366%,88.400269%); stroke-width: 1.000000;stroke-linecap: round;stroke-linejoin: round;stroke-miterlimit: 10.000000;fill: none;"></path>
  <path d="M494.210114 147.798080L612.464508 59.535492" style="stroke:rgb(60.000610%,60.000610%,60.000610%); stroke-width: 1.500000;stroke-linecap: round;stroke-dasharray: 3.000000 3.000000 ;stroke-linejoin: round;stroke-miterlimit: 10.000000;fill: none;"></path>
  <path d="M498.210114 147.798080C498.210114 146.737167,497.788605 145.719833,497.038483 144.969711C496.288361 144.219589,495.271027 143.798080,494.210114 143.798080C493.149200 143.798080,492.131866 144.219589,491.381744 144.969711C490.631622 145.719833,490.210114 146.737167,490.210114 147.798080C490.210114 148.858994,490.631622 149.876328,491.381744 150.626450C492.131866 151.376572,493.149200 151.798080,494.210114 151.798080C495.271027 151.798080,496.288361 151.376572,497.038483 150.626450C497.788605 149.876328,498.210114 148.858994,498.210114 147.798080Z" style="stroke:rgb(39.999390%,39.999390%,39.999390%); stroke-width: 0.500000;stroke-linecap: round;stroke-linejoin: round;stroke-miterlimit: 10.000000;fill: none;"></path>
  <path d="M498.210114 147.798080C498.210114 146.737167,497.788605 145.719833,497.038483 144.969711C496.288361 144.219589,495.271027 143.798080,494.210114 143.798080C493.149200 143.798080,492.131866 144.219589,491.381744 144.969711C490.631622 145.719833,490.210114 146.737167,490.210114 147.798080C490.210114 148.858994,490.631622 149.876328,491.381744 150.626450C492.131866 151.376572,493.149200 151.798080,494.210114 151.798080C495.271027 151.798080,496.288361 151.376572,497.038483 150.626450C497.788605 149.876328,498.210114 148.858994,498.210114 147.798080Z" style="fill: rgb(89.999390%,0.000000%,0.000000%);stroke: none;"></path>
  <path d="M616.464508 59.535492C616.464508 58.474579,616.042999 57.457245,615.292877 56.707123C614.542755 55.957001,613.525421 55.535492,612.464508 55.535492C611.403595 55.535492,610.386261 55.957001,609.636139 56.707123C608.886017 57.457245,608.464508 58.474579,608.464508 59.535492C608.464508 60.596405,608.886017 61.613739,609.636139 62.363861C610.386261 63.113983,611.403595 63.535492,612.464508 63.535492C613.525421 63.535492,614.542755 63.113983,615.292877 62.363861C616.042999 61.613739,616.464508 60.596405,616.464508 59.535492Z" style="stroke:rgb(39.999390%,39.999390%,39.999390%); stroke-width: 0.500000;stroke-linecap: round;stroke-linejoin: round;stroke-miterlimit: 10.000000;fill: none;"></path>
  <path d="M616.464508 59.535492C616.464508 58.474579,616.042999 57.457245,615.292877 56.707123C614.542755 55.957001,613.525421 55.535492,612.464508 55.535492C611.403595 55.535492,610.386261 55.957001,609.636139 56.707123C608.886017 57.457245,608.464508 58.474579,608.464508 59.535492C608.464508 60.596405,608.886017 61.613739,609.636139 62.363861C610.386261 63.113983,611.403595 63.535492,612.464508 63.535492C613.525421 63.535492,614.542755 63.113983,615.292877 62.363861C616.042999 61.613739,616.464508 60.596405,616.464508 59.535492Z" style="fill: rgb(100.000000%,100.000000%,0.000000%);stroke: none;"></path>
  <path d="M494.210114 147.798080L612.455856 236.069305" style="stroke:rgb(60.000610%,60.000610%,60.000610%); stroke-width: 1.500000;stroke-linecap: round;stroke-dasharray: 3.000000 3.000000 ;stroke-linejoin: round;stroke-miterlimit: 10.000000;fill: none;"></path>
  <path d="M510.758820 343.000000L612.455856 236.069305" style="stroke:rgb(60.000610%,60.000610%,60.000610%); stroke-width: 1.500000;stroke-linecap: round;stroke-dasharray: 3.000000 3.000000 ;stroke-linejoin: round;stroke-miterlimit: 10.000000;fill: none;"></path>
  <path d="M498.210114 147.798080C498.210114 146.737167,497.788605 145.719833,497.038483 144.969711C496.288361 144.219589,495.271027 143.798080,494.210114 143.798080C493.149200 143.798080,492.131866 144.219589,491.381744 144.969711C490.631622 145.719833,490.210114 146.737167,490.210114 147.798080C490.210114 148.858994,490.631622 149.876328,491.381744 150.626450C492.131866 151.376572,493.149200 151.798080,494.210114 151.798080C495.271027 151.798080,496.288361 151.376572,497.038483 150.626450C497.788605 149.876328,498.210114 148.858994,498.210114 147.798080Z" style="stroke:rgb(39.999390%,39.999390%,39.999390%); stroke-width: 0.500000;stroke-linecap: round;stroke-linejoin: round;stroke-miterlimit: 10.000000;fill: none;"></path>
  <path d="M498.210114 147.798080C498.210114 146.737167,497.788605 145.719833,497.038483 144.969711C496.288361 144.219589,495.271027 143.798080,494.210114 143.798080C493.149200 143.798080,492.131866 144.219589,491.381744 144.969711C490.631622 145.719833,490.210114 146.737167,490.210114 147.798080C490.210114 148.858994,490.631622 149.876328,491.381744 150.626450C492.131866 151.376572,493.149200 151.798080,494.210114 151.798080C495.271027 151.798080,496.288361 151.376572,497.038483 150.626450C497.788605 149.876328,498.210114 148.858994,498.210114 147.798080Z" style="fill: rgb(89.999390%,0.000000%,0.000000%);stroke: none;"></path>
  <path d="M514.758820 343.000000C514.758820 341.939087,514.337311 340.921753,513.587189 340.171631C512.837067 339.421509,511.819733 339.000000,510.758820 339.000000C509.697906 339.000000,508.680573 339.421509,507.930450 340.171631C507.180328 340.921753,506.758820 341.939087,506.758820 343.000000C506.758820 344.060913,507.180328 345.078247,507.930450 345.828369C508.680573 346.578491,509.697906 347.000000,510.758820 347.000000C511.819733 347.000000,512.837067 346.578491,513.587189 345.828369C514.337311 345.078247,514.758820 344.060913,514.758820 343.000000Z" style="stroke:rgb(39.999390%,39.999390%,39.999390%); stroke-width: 0.500000;stroke-linecap: round;stroke-linejoin: round;stroke-miterlimit: 10.000000;fill: none;"></path>
  <path d="M514.758820 343.000000C514.758820 341.939087,514.337311 340.921753,513.587189 340.171631C512.837067 339.421509,511.819733 339.000000,510.758820 339.000000C509.697906 339.000000,508.680573 339.421509,507.930450 340.171631C507.180328 340.921753,506.758820 341.939087,506.758820 343.000000C506.758820 344.060913,507.180328 345.078247,507.930450 345.828369C508.680573 346.578491,509.697906 347.000000,510.758820 347.000000C511.819733 347.000000,512.837067 346.578491,513.587189 345.828369C514.337311 345.078247,514.758820 344.060913,514.758820 343.000000Z" style="fill: rgb(89.999390%,0.000000%,0.000000%);stroke: none;"></path>
  <path d="M616.455856 236.069305C616.455856 235.008392,616.034348 233.991058,615.284225 233.240936C614.534103 232.490814,613.516769 232.069305,612.455856 232.069305C611.394943 232.069305,610.377609 232.490814,609.627487 233.240936C608.877365 233.991058,608.455856 235.008392,608.455856 236.069305C608.455856 237.130219,608.877365 238.147552,609.627487 238.897675C610.377609 239.647797,611.394943 240.069305,612.455856 240.069305C613.516769 240.069305,614.534103 239.647797,615.284225 238.897675C616.034348 238.147552,616.455856 237.130219,616.455856 236.069305Z" style="stroke:rgb(39.999390%,39.999390%,39.999390%); stroke-width: 0.500000;stroke-linecap: round;stroke-linejoin: round;stroke-miterlimit: 10.000000;fill: none;"></path>
  <path d="M616.455856 236.069305C616.455856 235.008392,616.034348 233.991058,615.284225 233.240936C614.534103 232.490814,613.516769 232.069305,612.455856 232.069305C611.394943 232.069305,610.377609 232.490814,609.627487 233.240936C608.877365 233.991058,608.455856 235.008392,608.455856 236.069305C608.455856 237.130219,608.877365 238.147552,609.627487 238.897675C610.377609 239.647797,611.394943 240.069305,612.455856 240.069305C613.516769 240.069305,614.534103 239.647797,615.284225 238.897675C616.034348 238.147552,616.455856 237.130219,616.455856 236.069305Z" style="fill: rgb(0.000000%,50.000000%,0.000000%);stroke: none;"></path>
  <path d="M494.210114 147.798080L375.938431 59.544144" style="stroke:rgb(60.000610%,60.000610%,60.000610%); stroke-width: 1.500000;stroke-linecap: round;stroke-dasharray: 3.000000 3.000000 ;stroke-linejoin: round;stroke-miterlimit: 10.000000;fill: none;"></path>
  <path d="M329.000000 199.442459L375.938431 59.544144" style="stroke:rgb(60.000610%,60.000610%,60.000610%); stroke-width: 1.500000;stroke-linecap: round;stroke-dasharray: 3.000000 3.000000 ;stroke-linejoin: round;stroke-miterlimit: 10.000000;fill: none;"></path>
  <path d="M498.210114 147.798080C498.210114 146.737167,497.788605 145.719833,497.038483 144.969711C496.288361 144.219589,495.271027 143.798080,494.210114 143.798080C493.149200 143.798080,492.131866 144.219589,491.381744 144.969711C490.631622 145.719833,490.210114 146.737167,490.210114 147.798080C490.210114 148.858994,490.631622 149.876328,491.381744 150.626450C492.131866 151.376572,493.149200 151.798080,494.210114 151.798080C495.271027 151.798080,496.288361 151.376572,497.038483 150.626450C497.788605 149.876328,498.210114 148.858994,498.210114 147.798080Z" style="stroke:rgb(39.999390%,39.999390%,39.999390%); stroke-width: 0.500000;stroke-linecap: round;stroke-linejoin: round;stroke-miterlimit: 10.000000;fill: none;"></path>
  <path d="M498.210114 147.798080C498.210114 146.737167,497.788605 145.719833,497.038483 144.969711C496.288361 144.219589,495.271027 143.798080,494.210114 143.798080C493.149200 143.798080,492.131866 144.219589,491.381744 144.969711C490.631622 145.719833,490.210114 146.737167,490.210114 147.798080C490.210114 148.858994,490.631622 149.876328,491.381744 150.626450C492.131866 151.376572,493.149200 151.798080,494.210114 151.798080C495.271027 151.798080,496.288361 151.376572,497.038483 150.626450C497.788605 149.876328,498.210114 148.858994,498.210114 147.798080Z" style="fill: rgb(89.999390%,0.000000%,0.000000%);stroke: none;"></path>
  <path d="M333.000000 199.442459C333.000000 198.381546,332.578491 197.364212,331.828369 196.614090C331.078247 195.863968,330.060913 195.442459,329.000000 195.442459C327.939087 195.442459,326.921753 195.863968,326.171631 196.614090C325.421509 197.364212,325.000000 198.381546,325.000000 199.442459C325.000000 200.503372,325.421509 201.520706,326.171631 202.270828C326.921753 203.020950,327.939087 203.442459,329.000000 203.442459C330.060913 203.442459,331.078247 203.020950,331.828369 202.270828C332.578491 201.520706,333.000000 200.503372,333.000000 199.442459Z" style="stroke:rgb(39.999390%,39.999390%,39.999390%); stroke-width: 0.500000;stroke-linecap: round;stroke-linejoin: round;stroke-miterlimit: 10.000000;fill: none;"></path>
  <path d="M333.000000 199.442459C333.000000 198.381546,332.578491 197.364212,331.828369 196.614090C331.078247 195.863968,330.060913 195.442459,329.000000 195.442459C327.939087 195.442459,326.921753 195.863968,326.171631 196.614090C325.421509 197.364212,325.000000 198.381546,325.000000 199.442459C325.000000 200.503372,325.421509 201.520706,326.171631 202.270828C326.921753 203.020950,327.939087 203.442459,329.000000 203.442459C330.060913 203.442459,331.078247 203.020950,331.828369 202.270828C332.578491 201.520706,333.000000 200.503372,333.000000 199.442459Z" style="fill: rgb(89.999390%,0.000000%,0.000000%);stroke: none;"></path>
  <path d="M379.938431 59.544144C379.938431 58.483231,379.516922 57.465897,378.766800 56.715775C378.016678 55.965652,376.999344 55.544144,375.938431 55.544144C374.877518 55.544144,373.860184 55.965652,373.110062 56.715775C372.359940 57.465897,371.938431 58.483231,371.938431 59.544144C371.938431 60.605057,372.359940 61.622391,373.110062 62.372513C373.860184 63.122635,374.877518 63.544144,375.938431 63.544144C376.999344 63.544144,378.016678 63.122635,378.766800 62.372513C379.516922 61.622391,379.938431 60.605057,379.938431 59.544144Z" style="stroke:rgb(39.999390%,39.999390%,39.999390%); stroke-width: 0.500000;stroke-linecap: round;stroke-linejoin: round;stroke-miterlimit: 10.000000;fill: none;"></path>
  <path d="M379.938431 59.544144C379.938431 58.483231,379.516922 57.465897,378.766800 56.715775C378.016678 55.965652,376.999344 55.544144,375.938431 55.544144C374.877518 55.544144,373.860184 55.965652,373.110062 56.715775C372.359940 57.465897,371.938431 58.483231,371.938431 59.544144C371.938431 60.605057,372.359940 61.622391,373.110062 62.372513C373.860184 63.122635,374.877518 63.544144,375.938431 63.544144C376.999344 63.544144,378.016678 63.122635,378.766800 62.372513C379.516922 61.622391,379.938431 60.605057,379.938431 59.544144Z" style="fill: rgb(0.000000%,50.000000%,0.000000%);stroke: none;"></path>
  <path d="M147.241180 343.000000L45.544144 236.069305" style="stroke:rgb(60.000610%,60.000610%,60.000610%); stroke-width: 1.500000;stroke-linecap: round;stroke-dasharray: 3.000000 3.000000 ;stroke-linejoin: round;stroke-miterlimit: 10.000000;fill: none;"></path>
  <path d="M163.789886 147.798080L45.544144 236.069305" style="stroke:rgb(60.000610%,60.000610%,60.000610%); stroke-width: 1.500000;stroke-linecap: round;stroke-dasharray: 3.000000 3.000000 ;stroke-linejoin: round;stroke-miterlimit: 10.000000;fill: none;"></path>
  <path d="M151.241180 343.000000C151.241180 341.939087,150.819672 340.921753,150.069550 340.171631C149.319427 339.421509,148.302094 339.000000,147.241180 339.000000C146.180267 339.000000,145.162933 339.421509,144.412811 340.171631C143.662689 340.921753,143.241180 341.939087,143.241180 343.000000C143.241180 344.060913,143.662689 345.078247,144.412811 345.828369C145.162933 346.578491,146.180267 347.000000,147.241180 347.000000C148.302094 347.000000,149.319427 346.578491,150.069550 345.828369C150.819672 345.078247,151.241180 344.060913,151.241180 343.000000Z" style="stroke:rgb(39.999390%,39.999390%,39.999390%); stroke-width: 0.500000;stroke-linecap: round;stroke-linejoin: round;stroke-miterlimit: 10.000000;fill: none;"></path>
  <path d="M151.241180 343.000000C151.241180 341.939087,150.819672 340.921753,150.069550 340.171631C149.319427 339.421509,148.302094 339.000000,147.241180 339.000000C146.180267 339.000000,145.162933 339.421509,144.412811 340.171631C143.662689 340.921753,143.241180 341.939087,143.241180 343.000000C143.241180 344.060913,143.662689 345.078247,144.412811 345.828369C145.162933 346.578491,146.180267 347.000000,147.241180 347.000000C148.302094 347.000000,149.319427 346.578491,150.069550 345.828369C150.819672 345.078247,151.241180 344.060913,151.241180 343.000000Z" style="fill: rgb(89.999390%,0.000000%,0.000000%);stroke: none;"></path>
  <path d="M167.789886 147.798080C167.789886 146.737167,167.368378 145.719833,166.618256 144.969711C165.868134 144.219589,164.850800 143.798080,163.789886 143.798080C162.728973 143.798080,161.711639 144.219589,160.961517 144.969711C160.211395 145.719833,159.789886 146.737167,159.789886 147.798080C159.789886 148.858994,160.211395 149.876328,160.961517 150.626450C161.711639 151.376572,162.728973 151.798080,163.789886 151.798080C164.850800 151.798080,165.868134 151.376572,166.618256 150.626450C167.368378 149.876328,167.789886 148.858994,167.789886 147.798080Z" style="stroke:rgb(39.999390%,39.999390%,39.999390%); stroke-width: 0.500000;stroke-linecap: round;stroke-linejoin: round;stroke-miterlimit: 10.000000;fill: none;"></path>
  <path d="M167.789886 147.798080C167.789886 146.737167,167.368378 145.719833,166.618256 144.969711C165.868134 144.219589,164.850800 143.798080,163.789886 143.798080C162.728973 143.798080,161.711639 144.219589,160.961517 144.969711C160.211395 145.719833,159.789886 146.737167,159.789886 147.798080C159.789886 148.858994,160.211395 149.876328,160.961517 150.626450C161.711639 151.376572,162.728973 151.798080,163.789886 151.798080C164.850800 151.798080,165.868134 151.376572,166.618256 150.626450C167.368378 149.876328,167.789886 148.858994,167.789886 147.798080Z" style="fill: rgb(89.999390%,0.000000%,0.000000%);stroke: none;"></path>
  <path d="M49.544144 236.069305C49.544144 235.008392,49.122635 233.991058,48.372513 233.240936C47.622391 232.490814,46.605057 232.069305,45.544144 232.069305C44.483231 232.069305,43.465897 232.490814,42.715775 233.240936C41.965652 233.991058,41.544144 235.008392,41.544144 236.069305C41.544144 237.130219,41.965652 238.147552,42.715775 238.897675C43.465897 239.647797,44.483231 240.069305,45.544144 240.069305C46.605057 240.069305,47.622391 239.647797,48.372513 238.897675C49.122635 238.147552,49.544144 237.130219,49.544144 236.069305Z" style="stroke:rgb(39.999390%,39.999390%,39.999390%); stroke-width: 0.500000;stroke-linecap: round;stroke-linejoin: round;stroke-miterlimit: 10.000000;fill: none;"></path>
  <path d="M49.544144 236.069305C49.544144 235.008392,49.122635 233.991058,48.372513 233.240936C47.622391 232.490814,46.605057 232.069305,45.544144 232.069305C44.483231 232.069305,43.465897 232.490814,42.715775 233.240936C41.965652 233.991058,41.544144 235.008392,41.544144 236.069305C41.544144 237.130219,41.965652 238.147552,42.715775 238.897675C43.465897 239.647797,44.483231 240.069305,45.544144 240.069305C46.605057 240.069305,47.622391 239.647797,48.372513 238.897675C49.122635 238.147552,49.544144 237.130219,49.544144 236.069305Z" style="fill: rgb(0.000000%,50.000000%,0.000000%);stroke: none;"></path>
  <path d="M147.241180 343.000000L45.544144 449.930695" style="stroke:rgb(60.000610%,60.000610%,60.000610%); stroke-width: 1.500000;stroke-linecap: round;stroke-dasharray: 3.000000 3.000000 ;stroke-linejoin: round;stroke-miterlimit: 10.000000;fill: none;"></path>
  <path d="M163.789886 538.201920L45.544144 449.930695" style="stroke:rgb(60.000610%,60.000610%,60.000610%); stroke-width: 1.500000;stroke-linecap: round;stroke-dasharray: 3.000000 3.000000 ;stroke-linejoin: round;stroke-miterlimit: 10.000000;fill: none;"></path>
  <path d="M151.241180 343.000000C151.241180 341.939087,150.819672 340.921753,150.069550 340.171631C149.319427 339.421509,148.302094 339.000000,147.241180 339.000000C146.180267 339.000000,145.162933 339.421509,144.412811 340.171631C143.662689 340.921753,143.241180 341.939087,143.241180 343.000000C143.241180 344.060913,143.662689 345.078247,144.412811 345.828369C145.162933 346.578491,146.180267 347.000000,147.241180 347.000000C148.302094 347.000000,149.319427 346.578491,150.069550 345.828369C150.819672 345.078247,151.241180 344.060913,151.241180 343.000000Z" style="stroke:rgb(39.999390%,39.999390%,39.999390%); stroke-width: 0.500000;stroke-linecap: round;stroke-linejoin: round;stroke-miterlimit: 10.000000;fill: none;"></path>
  <path d="M151.241180 343.000000C151.241180 341.939087,150.819672 340.921753,150.069550 340.171631C149.319427 339.421509,148.302094 339.000000,147.241180 339.000000C146.180267 339.000000,145.162933 339.421509,144.412811 340.171631C143.662689 340.921753,143.241180 341.939087,143.241180 343.000000C143.241180 344.060913,143.662689 345.078247,144.412811 345.828369C145.162933 346.578491,146.180267 347.000000,147.241180 347.000000C148.302094 347.000000,149.319427 346.578491,150.069550 345.828369C150.819672 345.078247,151.241180 344.060913,151.241180 343.000000Z" style="fill: rgb(89.999390%,0.000000%,0.000000%);stroke: none;"></path>
  <path d="M167.789886 538.201920C167.789886 537.141006,167.368378 536.123672,166.618256 535.373550C165.868134 534.623428,164.850800 534.201920,163.789886 534.201920C162.728973 534.201920,161.711639 534.623428,160.961517 535.373550C160.211395 536.123672,159.789886 537.141006,159.789886 538.201920C159.789886 539.262833,160.211395 540.280167,160.961517 541.030289C161.711639 541.780411,162.728973 542.201920,163.789886 542.201920C164.850800 542.201920,165.868134 541.780411,166.618256 541.030289C167.368378 540.280167,167.789886 539.262833,167.789886 538.201920Z" style="stroke:rgb(39.999390%,39.999390%,39.999390%); stroke-width: 0.500000;stroke-linecap: round;stroke-linejoin: round;stroke-miterlimit: 10.000000;fill: none;"></path>
  <path d="M167.789886 538.201920C167.789886 537.141006,167.368378 536.123672,166.618256 535.373550C165.868134 534.623428,164.850800 534.201920,163.789886 534.201920C162.728973 534.201920,161.711639 534.623428,160.961517 535.373550C160.211395 536.123672,159.789886 537.141006,159.789886 538.201920C159.789886 539.262833,160.211395 540.280167,160.961517 541.030289C161.711639 541.780411,162.728973 542.201920,163.789886 542.201920C164.850800 542.201920,165.868134 541.780411,166.618256 541.030289C167.368378 540.280167,167.789886 539.262833,167.789886 538.201920Z" style="fill: rgb(89.999390%,0.000000%,0.000000%);stroke: none;"></path>
  <path d="M49.544144 449.930695C49.544144 448.869781,49.122635 447.852448,48.372513 447.102325C47.622391 446.352203,46.605057 445.930695,45.544144 445.930695C44.483231 445.930695,43.465897 446.352203,42.715775 447.102325C41.965652 447.852448,41.544144 448.869781,41.544144 449.930695C41.544144 450.991608,41.965652 452.008942,42.715775 452.759064C43.465897 453.509186,44.483231 453.930695,45.544144 453.930695C46.605057 453.930695,47.622391 453.509186,48.372513 452.759064C49.122635 452.008942,49.544144 450.991608,49.544144 449.930695Z" style="stroke:rgb(39.999390%,39.999390%,39.999390%); stroke-width: 0.500000;stroke-linecap: round;stroke-linejoin: round;stroke-miterlimit: 10.000000;fill: none;"></path>
  <path d="M49.544144 449.930695C49.544144 448.869781,49.122635 447.852448,48.372513 447.102325C47.622391 446.352203,46.605057 445.930695,45.544144 445.930695C44.483231 445.930695,43.465897 446.352203,42.715775 447.102325C41.965652 447.852448,41.544144 448.869781,41.544144 449.930695C41.544144 450.991608,41.965652 452.008942,42.715775 452.759064C43.465897 453.509186,44.483231 453.930695,45.544144 453.930695C46.605057 453.930695,47.622391 453.509186,48.372513 452.759064C49.122635 452.008942,49.544144 450.991608,49.544144 449.930695Z" style="fill: rgb(0.000000%,50.000000%,0.000000%);stroke: none;"></path>
  <path d="M147.241180 343.000000L294.803986 342.991348" style="stroke:rgb(60.000610%,60.000610%,60.000610%); stroke-width: 1.500000;stroke-linecap: round;stroke-dasharray: 3.000000 3.000000 ;stroke-linejoin: round;stroke-miterlimit: 10.000000;fill: none;"></path>
  <path d="M329.000000 199.442459L294.803986 342.991348" style="stroke:rgb(60.000610%,60.000610%,60.000610%); stroke-width: 1.500000;stroke-linecap: round;stroke-dasharray: 3.000000 3.000000 ;stroke-linejoin: round;stroke-miterlimit: 10.000000;fill: none;"></path>
  <path d="M151.241180 343.000000C151.241180 341.939087,150.819672 340.921753,150.069550 340.171631C149.319427 339.421509,148.302094 339.000000,147.241180 339.000000C146.180267 339.000000,145.162933 339.421509,144.412811 340.171631C143.662689 340.921753,143.241180 341.939087,143.241180 343.000000C143.241180 344.060913,143.662689 345.078247,144.412811 345.828369C145.162933 346.578491,146.180267 347.000000,147.241180 347.000000C148.302094 347.000000,149.319427 346.578491,150.069550 345.828369C150.819672 345.078247,151.241180 344.060913,151.241180 343.000000Z" style="stroke:rgb(39.999390%,39.999390%,39.999390%); stroke-width: 0.500000;stroke-linecap: round;stroke-linejoin: round;stroke-miterlimit: 10.000000;fill: none;"></path>
  <path d="M151.241180 343.000000C151.241180 341.939087,150.819672 340.921753,150.069550 340.171631C149.319427 339.421509,148.302094 339.000000,147.241180 339.000000C146.180267 339.000000,145.162933 339.421509,144.412811 340.171631C143.662689 340.921753,143.241180 341.939087,143.241180 343.000000C143.241180 344.060913,143.662689 345.078247,144.412811 345.828369C145.162933 346.578491,146.180267 347.000000,147.241180 347.000000C148.302094 347.000000,149.319427 346.578491,150.069550 345.828369C150.819672 345.078247,151.241180 344.060913,151.241180 343.000000Z" style="fill: rgb(89.999390%,0.000000%,0.000000%);stroke: none;"></path>
  <path d="M333.000000 199.442459C333.000000 198.381546,332.578491 197.364212,331.828369 196.614090C331.078247 195.863968,330.060913 195.442459,329.000000 195.442459C327.939087 195.442459,326.921753 195.863968,326.171631 196.614090C325.421509 197.364212,325.000000 198.381546,325.000000 199.442459C325.000000 200.503372,325.421509 201.520706,326.171631 202.270828C326.921753 203.020950,327.939087 203.442459,329.000000 203.442459C330.060913 203.442459,331.078247 203.020950,331.828369 202.270828C332.578491 201.520706,333.000000 200.503372,333.000000 199.442459Z" style="stroke:rgb(39.999390%,39.999390%,39.999390%); stroke-width: 0.500000;stroke-linecap: round;stroke-linejoin: round;stroke-miterlimit: 10.000000;fill: none;"></path>
  <path d="M333.000000 199.442459C333.000000 198.381546,332.578491 197.364212,331.828369 196.614090C331.078247 195.863968,330.060913 195.442459,329.000000 195.442459C327.939087 195.442459,326.921753 195.863968,326.171631 196.614090C325.421509 197.364212,325.000000 198.381546,325.000000 199.442459C325.000000 200.503372,325.421509 201.520706,326.171631 202.270828C326.921753 203.020950,327.939087 203.442459,329.000000 203.442459C330.060913 203.442459,331.078247 203.020950,331.828369 202.270828C332.578491 201.520706,333.000000 200.503372,333.000000 199.442459Z" style="fill: rgb(89.999390%,0.000000%,0.000000%);stroke: none;"></path>
  <path d="M298.803986 342.991348C298.803986 341.930435,298.382477 340.913101,297.632355 340.162979C296.882233 339.412857,295.864899 338.991348,294.803986 338.991348C293.743073 338.991348,292.725739 339.412857,291.975616 340.162979C291.225494 340.913101,290.803986 341.930435,290.803986 342.991348C290.803986 344.052261,291.225494 345.069595,291.975616 345.819717C292.725739 346.569839,293.743073 346.991348,294.803986 346.991348C295.864899 346.991348,296.882233 346.569839,297.632355 345.819717C298.382477 345.069595,298.803986 344.052261,298.803986 342.991348Z" style="stroke:rgb(39.999390%,39.999390%,39.999390%); stroke-width: 0.500000;stroke-linecap: round;stroke-linejoin: round;stroke-miterlimit: 10.000000;fill: none;"></path>
  <path d="M298.803986 342.991348C298.803986 341.930435,298.382477 340.913101,297.632355 340.162979C296.882233 339.412857,295.864899 338.991348,294.803986 338.991348C293.743073 338.991348,292.725739 339.412857,291.975616 340.162979C291.225494 340.913101,290.803986 341.930435,290.803986 342.991348C290.803986 344.052261,291.225494 345.069595,291.975616 345.819717C292.725739 346.569839,293.743073 346.991348,294.803986 346.991348C295.864899 346.991348,296.882233 346.569839,297.632355 345.819717C298.382477 345.069595,298.803986 344.052261,298.803986 342.991348Z" style="fill: rgb(9.800720%,9.800720%,44.000244%);stroke: none;"></path>
  <path d="M147.241180 343.000000L294.803986 343.008652" style="stroke:rgb(60.000610%,60.000610%,60.000610%); stroke-width: 1.500000;stroke-linecap: round;stroke-dasharray: 3.000000 3.000000 ;stroke-linejoin: round;stroke-miterlimit: 10.000000;fill: none;"></path>
  <path d="M329.000000 486.557541L294.803986 343.008652" style="stroke:rgb(60.000610%,60.000610%,60.000610%); stroke-width: 1.500000;stroke-linecap: round;stroke-dasharray: 3.000000 3.000000 ;stroke-linejoin: round;stroke-miterlimit: 10.000000;fill: none;"></path>
  <path d="M151.241180 343.000000C151.241180 341.939087,150.819672 340.921753,150.069550 340.171631C149.319427 339.421509,148.302094 339.000000,147.241180 339.000000C146.180267 339.000000,145.162933 339.421509,144.412811 340.171631C143.662689 340.921753,143.241180 341.939087,143.241180 343.000000C143.241180 344.060913,143.662689 345.078247,144.412811 345.828369C145.162933 346.578491,146.180267 347.000000,147.241180 347.000000C148.302094 347.000000,149.319427 346.578491,150.069550 345.828369C150.819672 345.078247,151.241180 344.060913,151.241180 343.000000Z" style="stroke:rgb(39.999390%,39.999390%,39.999390%); stroke-width: 0.500000;stroke-linecap: round;stroke-linejoin: round;stroke-miterlimit: 10.000000;fill: none;"></path>
  <path d="M151.241180 343.000000C151.241180 341.939087,150.819672 340.921753,150.069550 340.171631C149.319427 339.421509,148.302094 339.000000,147.241180 339.000000C146.180267 339.000000,145.162933 339.421509,144.412811 340.171631C143.662689 340.921753,143.241180 341.939087,143.241180 343.000000C143.241180 344.060913,143.662689 345.078247,144.412811 345.828369C145.162933 346.578491,146.180267 347.000000,147.241180 347.000000C148.302094 347.000000,149.319427 346.578491,150.069550 345.828369C150.819672 345.078247,151.241180 344.060913,151.241180 343.000000Z" style="fill: rgb(89.999390%,0.000000%,0.000000%);stroke: none;"></path>
  <path d="M333.000000 486.557541C333.000000 485.496628,332.578491 484.479294,331.828369 483.729172C331.078247 482.979050,330.060913 482.557541,329.000000 482.557541C327.939087 482.557541,326.921753 482.979050,326.171631 483.729172C325.421509 484.479294,325.000000 485.496628,325.000000 486.557541C325.000000 487.618454,325.421509 488.635788,326.171631 489.385910C326.921753 490.136032,327.939087 490.557541,329.000000 490.557541C330.060913 490.557541,331.078247 490.136032,331.828369 489.385910C332.578491 488.635788,333.000000 487.618454,333.000000 486.557541Z" style="stroke:rgb(39.999390%,39.999390%,39.999390%); stroke-width: 0.500000;stroke-linecap: round;stroke-linejoin: round;stroke-miterlimit: 10.000000;fill: none;"></path>
  <path d="M333.000000 486.557541C333.000000 485.496628,332.578491 484.479294,331.828369 483.729172C331.078247 482.979050,330.060913 482.557541,329.000000 482.557541C327.939087 482.557541,326.921753 482.979050,326.171631 483.729172C325.421509 484.479294,325.000000 485.496628,325.000000 486.557541C325.000000 487.618454,325.421509 488.635788,326.171631 489.385910C326.921753 490.136032,327.939087 490.557541,329.000000 490.557541C330.060913 490.557541,331.078247 490.136032,331.828369 489.385910C332.578491 488.635788,333.000000 487.618454,333.000000 486.557541Z" style="fill: rgb(89.999390%,0.000000%,0.000000%);stroke: none;"></path>
  <path d="M298.803986 343.008652C298.803986 341.947739,298.382477 340.930405,297.632355 340.180283C296.882233 339.430161,295.864899 339.008652,294.803986 339.008652C293.743073 339.008652,292.725739 339.430161,291.975616 340.180283C291.225494 340.930405,290.803986 341.947739,290.803986 343.008652C290.803986 344.069565,291.225494 345.086899,291.975616 345.837021C292.725739 346.587143,293.743073 347.008652,294.803986 347.008652C295.864899 347.008652,296.882233 346.587143,297.632355 345.837021C298.382477 345.086899,298.803986 344.069565,298.803986 343.008652Z" style="stroke:rgb(39.999390%,39.999390%,39.999390%); stroke-width: 0.500000;stroke-linecap: round;stroke-linejoin: round;stroke-miterlimit: 10.000000;fill: none;"></path>
  <path d="M298.803986 343.008652C298.803986 341.947739,298.382477 340.930405,297.632355 340.180283C296.882233 339.430161,295.864899 339.008652,294.803986 339.008652C293.743073 339.008652,292.725739 339.430161,291.975616 340.180283C291.225494 340.930405,290.803986 341.947739,290.803986 343.008652C290.803986 344.069565,291.225494 345.086899,291.975616 345.837021C292.725739 346.587143,293.743073 347.008652,294.803986 347.008652C295.864899 347.008652,296.882233 346.587143,297.632355 345.837021C298.382477 345.086899,298.803986 344.069565,298.803986 343.008652Z" style="fill: rgb(9.800720%,9.800720%,44.000244%);stroke: none;"></path>
  <path d="M494.210114 538.201920L612.464508 626.464508" style="stroke:rgb(60.000610%,60.000610%,60.000610%); stroke-width: 1.500000;stroke-linecap: round;stroke-dasharray: 3.000000 3.000000 ;stroke-linejoin: round;stroke-miterlimit: 10.000000;fill: none;"></path>
  <path d="M498.210114 538.201920C498.210114 537.141006,497.788605 536.123672,497.038483 535.373550C496.288361 534.623428,495.271027 534.201920,494.210114 534.201920C493.149200 534.201920,492.131866 534.623428,491.381744 535.373550C490.631622 536.123672,490.210114 537.141006,490.210114 538.201920C490.210114 539.262833,490.631622 540.280167,491.381744 541.030289C492.131866 541.780411,493.149200 542.201920,494.210114 542.201920C495.271027 542.201920,496.288361 541.780411,497.038483 541.030289C497.788605 540.280167,498.210114 539.262833,498.210114 538.201920Z" style="stroke:rgb(39.999390%,39.999390%,39.999390%); stroke-width: 0.500000;stroke-linecap: round;stroke-linejoin: round;stroke-miterlimit: 10.000000;fill: none;"></path>
  <path d="M498.210114 538.201920C498.210114 537.141006,497.788605 536.123672,497.038483 535.373550C496.288361 534.623428,495.271027 534.201920,494.210114 534.201920C493.149200 534.201920,492.131866 534.623428,491.381744 535.373550C490.631622 536.123672,490.210114 537.141006,490.210114 538.201920C490.210114 539.262833,490.631622 540.280167,491.381744 541.030289C492.131866 541.780411,493.149200 542.201920,494.210114 542.201920C495.271027 542.201920,496.288361 541.780411,497.038483 541.030289C497.788605 540.280167,498.210114 539.262833,498.210114 538.201920Z" style="fill: rgb(89.999390%,0.000000%,0.000000%);stroke: none;"></path>
  <path d="M616.464508 626.464508C616.464508 625.403595,616.042999 624.386261,615.292877 623.636139C614.542755 622.886017,613.525421 622.464508,612.464508 622.464508C611.403595 622.464508,610.386261 622.886017,609.636139 623.636139C608.886017 624.386261,608.464508 625.403595,608.464508 626.464508C608.464508 627.525421,608.886017 628.542755,609.636139 629.292877C610.386261 630.042999,611.403595 630.464508,612.464508 630.464508C613.525421 630.464508,614.542755 630.042999,615.292877 629.292877C616.042999 628.542755,616.464508 627.525421,616.464508 626.464508Z" style="stroke:rgb(39.999390%,39.999390%,39.999390%); stroke-width: 0.500000;stroke-linecap: round;stroke-linejoin: round;stroke-miterlimit: 10.000000;fill: none;"></path>
  <path d="M616.464508 626.464508C616.464508 625.403595,616.042999 624.386261,615.292877 623.636139C614.542755 622.886017,613.525421 622.464508,612.464508 622.464508C611.403595 622.464508,610.386261 622.886017,609.636139 623.636139C608.886017 624.386261,608.464508 625.403595,608.464508 626.464508C608.464508 627.525421,608.886017 628.542755,609.636139 629.292877C610.386261 630.042999,611.403595 630.464508,612.464508 630.464508C613.525421 630.464508,614.542755 630.042999,615.292877 629.292877C616.042999 628.542755,616.464508 627.525421,616.464508 626.464508Z" style="fill: rgb(100.000000%,100.000000%,0.000000%);stroke: none;"></path>
  <path d="M494.210114 538.201920L612.455856 449.930695" style="stroke:rgb(60.000610%,60.000610%,60.000610%); stroke-width: 1.500000;stroke-linecap: round;stroke-dasharray: 3.000000 3.000000 ;stroke-linejoin: round;stroke-miterlimit: 10.000000;fill: none;"></path>
  <path d="M510.758820 343.000000L612.455856 449.930695" style="stroke:rgb(60.000610%,60.000610%,60.000610%); stroke-width: 1.500000;stroke-linecap: round;stroke-dasharray: 3.000000 3.000000 ;stroke-linejoin: round;stroke-miterlimit: 10.000000;fill: none;"></path>
  <path d="M498.210114 538.201920C498.210114 537.141006,497.788605 536.123672,497.038483 535.373550C496.288361 534.623428,495.271027 534.201920,494.210114 534.201920C493.149200 534.201920,492.131866 534.623428,491.381744 535.373550C490.631622 536.123672,490.210114 537.141006,490.210114 538.201920C490.210114 539.262833,490.631622 540.280167,491.381744 541.030289C492.131866 541.780411,493.149200 542.201920,494.210114 542.201920C495.271027 542.201920,496.288361 541.780411,497.038483 541.030289C497.788605 540.280167,498.210114 539.262833,498.210114 538.201920Z" style="stroke:rgb(39.999390%,39.999390%,39.999390%); stroke-width: 0.500000;stroke-linecap: round;stroke-linejoin: round;stroke-miterlimit: 10.000000;fill: none;"></path>
  <path d="M498.210114 538.201920C498.210114 537.141006,497.788605 536.123672,497.038483 535.373550C496.288361 534.623428,495.271027 534.201920,494.210114 534.201920C493.149200 534.201920,492.131866 534.623428,491.381744 535.373550C490.631622 536.123672,490.210114 537.141006,490.210114 538.201920C490.210114 539.262833,490.631622 540.280167,491.381744 541.030289C492.131866 541.780411,493.149200 542.201920,494.210114 542.201920C495.271027 542.201920,496.288361 541.780411,497.038483 541.030289C497.788605 540.280167,498.210114 539.262833,498.210114 538.201920Z" style="fill: rgb(89.999390%,0.000000%,0.000000%);stroke: none;"></path>
  <path d="M514.758820 343.000000C514.758820 341.939087,514.337311 340.921753,513.587189 340.171631C512.837067 339.421509,511.819733 339.000000,510.758820 339.000000C509.697906 339.000000,508.680573 339.421509,507.930450 340.171631C507.180328 340.921753,506.758820 341.939087,506.758820 343.000000C506.758820 344.060913,507.180328 345.078247,507.930450 345.828369C508.680573 346.578491,509.697906 347.000000,510.758820 347.000000C511.819733 347.000000,512.837067 346.578491,513.587189 345.828369C514.337311 345.078247,514.758820 344.060913,514.758820 343.000000Z" style="stroke:rgb(39.999390%,39.999390%,39.999390%); stroke-width: 0.500000;stroke-linecap: round;stroke-linejoin: round;stroke-miterlimit: 10.000000;fill: none;"></path>
  <path d="M514.758820 343.000000C514.758820 341.939087,514.337311 340.921753,513.587189 340.171631C512.837067 339.421509,511.819733 339.000000,510.758820 339.000000C509.697906 339.000000,508.680573 339.421509,507.930450 340.171631C507.180328 340.921753,506.758820 341.939087,506.758820 343.000000C506.758820 344.060913,507.180328 345.078247,507.930450 345.828369C508.680573 346.578491,509.697906 347.000000,510.758820 347.000000C511.819733 347.000000,512.837067 346.578491,513.587189 345.828369C514.337311 345.078247,514.758820 344.060913,514.758820 343.000000Z" style="fill: rgb(89.999390%,0.000000%,0.000000%);stroke: none;"></path>
  <path d="M616.455856 449.930695C616.455856 448.869781,616.034348 447.852448,615.284225 447.102325C614.534103 446.352203,613.516769 445.930695,612.455856 445.930695C611.394943 445.930695,610.377609 446.352203,609.627487 447.102325C608.877365 447.852448,608.455856 448.869781,608.455856 449.930695C608.455856 450.991608,608.877365 452.008942,609.627487 452.759064C610.377609 453.509186,611.394943 453.930695,612.455856 453.930695C613.516769 453.930695,614.534103 453.509186,615.284225 452.759064C616.034348 452.008942,616.455856 450.991608,616.455856 449.930695Z" style="stroke:rgb(39.999390%,39.999390%,39.999390%); stroke-width: 0.500000;stroke-linecap: round;stroke-linejoin: round;stroke-miterlimit: 10.000000;fill: none;"></path>
  <path d="M616.455856 449.930695C616.455856 448.869781,616.034348 447.852448,615.284225 447.102325C614.534103 446.352203,613.516769 445.930695,612.455856 445.930695C611.394943 445.930695,610.377609 446.352203,609.627487 447.102325C608.877365 447.852448,608.455856 448.869781,608.455856 449.930695C608.455856 450.991608,608.877365 452.008942,609.627487 452.759064C610.377609 453.509186,611.394943 453.930695,612.455856 453.930695C613.516769 453.930695,614.534103 453.509186,615.284225 452.759064C616.034348 452.008942,616.455856 450.991608,616.455856 449.930695Z" style="fill: rgb(0.000000%,50.000000%,0.000000%);stroke: none;"></path>
  <path d="M494.210114 538.201920L375.938431 626.455856" style="stroke:rgb(60.000610%,60.000610%,60.000610%); stroke-width: 1.500000;stroke-linecap: round;stroke-dasharray: 3.000000 3.000000 ;stroke-linejoin: round;stroke-miterlimit: 10.000000;fill: none;"></path>
  <path d="M329.000000 486.557541L375.938431 626.455856" style="stroke:rgb(60.000610%,60.000610%,60.000610%); stroke-width: 1.500000;stroke-linecap: round;stroke-dasharray: 3.000000 3.000000 ;stroke-linejoin: round;stroke-miterlimit: 10.000000;fill: none;"></path>
  <path d="M498.210114 538.201920C498.210114 537.141006,497.788605 536.123672,497.038483 535.373550C496.288361 534.623428,495.271027 534.201920,494.210114 534.201920C493.149200 534.201920,492.131866 534.623428,491.381744 535.373550C490.631622 536.123672,490.210114 537.141006,490.210114 538.201920C490.210114 539.262833,490.631622 540.280167,491.381744 541.030289C492.131866 541.780411,493.149200 542.201920,494.210114 542.201920C495.271027 542.201920,496.288361 541.780411,497.038483 541.030289C497.788605 540.280167,498.210114 539.262833,498.210114 538.201920Z" style="stroke:rgb(39.999390%,39.999390%,39.999390%); stroke-width: 0.500000;stroke-linecap: round;stroke-linejoin: round;stroke-miterlimit: 10.000000;fill: none;"></path>
  <path d="M498.210114 538.201920C498.210114 537.141006,497.788605 536.123672,497.038483 535.373550C496.288361 534.623428,495.271027 534.201920,494.210114 534.201920C493.149200 534.201920,492.131866 534.623428,491.381744 535.373550C490.631622 536.123672,490.210114 537.141006,490.210114 538.201920C490.210114 539.262833,490.631622 540.280167,491.381744 541.030289C492.131866 541.780411,493.149200 542.201920,494.210114 542.201920C495.271027 542.201920,496.288361 541.780411,497.038483 541.030289C497.788605 540.280167,498.210114 539.262833,498.210114 538.201920Z" style="fill: rgb(89.999390%,0.000000%,0.000000%);stroke: none;"></path>
  <path d="M333.000000 486.557541C333.000000 485.496628,332.578491 484.479294,331.828369 483.729172C331.078247 482.979050,330.060913 482.557541,329.000000 482.557541C327.939087 482.557541,326.921753 482.979050,326.171631 483.729172C325.421509 484.479294,325.000000 485.496628,325.000000 486.557541C325.000000 487.618454,325.421509 488.635788,326.171631 489.385910C326.921753 490.136032,327.939087 490.557541,329.000000 490.557541C330.060913 490.557541,331.078247 490.136032,331.828369 489.385910C332.578491 488.635788,333.000000 487.618454,333.000000 486.557541Z" style="stroke:rgb(39.999390%,39.999390%,39.999390%); stroke-width: 0.500000;stroke-linecap: round;stroke-linejoin: round;stroke-miterlimit: 10.000000;fill: none;"></path>
  <path d="M333.000000 486.557541C333.000000 485.496628,332.578491 484.479294,331.828369 483.729172C331.078247 482.979050,330.060913 482.557541,329.000000 482.557541C327.939087 482.557541,326.921753 482.979050,326.171631 483.729172C325.421509 484.479294,325.000000 485.496628,325.000000 486.557541C325.000000 487.618454,325.421509 488.635788,326.171631 489.385910C326.921753 490.136032,327.939087 490.557541,329.000000 490.557541C330.060913 490.557541,331.078247 490.136032,331.828369 489.385910C332.578491 488.635788,333.000000 487.618454,333.000000 486.557541Z" style="fill: rgb(89.999390%,0.000000%,0.000000%);stroke: none;"></path>
  <path d="M379.938431 626.455856C379.938431 625.394943,379.516922 624.377609,378.766800 623.627487C378.016678 622.877365,376.999344 622.455856,375.938431 622.455856C374.877518 622.455856,373.860184 622.877365,373.110062 623.627487C372.359940 624.377609,371.938431 625.394943,371.938431 626.455856C371.938431 627.516769,372.359940 628.534103,373.110062 629.284225C373.860184 630.034348,374.877518 630.455856,375.938431 630.455856C376.999344 630.455856,378.016678 630.034348,378.766800 629.284225C379.516922 628.534103,379.938431 627.516769,379.938431 626.455856Z" style="stroke:rgb(39.999390%,39.999390%,39.999390%); stroke-width: 0.500000;stroke-linecap: round;stroke-linejoin: round;stroke-miterlimit: 10.000000;fill: none;"></path>
  <path d="M379.938431 626.455856C379.938431 625.394943,379.516922 624.377609,378.766800 623.627487C378.016678 622.877365,376.999344 622.455856,375.938431 622.455856C374.877518 622.455856,373.860184 622.877365,373.110062 623.627487C372.359940 624.377609,371.938431 625.394943,371.938431 626.455856C371.938431 627.516769,372.359940 628.534103,373.110062 629.284225C373.860184 630.034348,374.877518 630.455856,375.938431 630.455856C376.999344 630.455856,378.016678 630.034348,378.766800 629.284225C379.516922 628.534103,379.938431 627.516769,379.938431 626.455856Z" style="fill: rgb(0.000000%,50.000000%,0.000000%);stroke: none;"></path>
  <path d="M163.789886 147.798080L45.535492 59.535492" style="stroke:rgb(60.000610%,60.000610%,60.000610%); stroke-width: 1.500000;stroke-linecap: round;stroke-dasharray: 3.000000 3.000000 ;stroke-linejoin: round;stroke-miterlimit: 10.000000;fill: none;"></path>
  <path d="M167.789886 147.798080C167.789886 146.737167,167.368378 145.719833,166.618256 144.969711C165.868134 144.219589,164.850800 143.798080,163.789886 143.798080C162.728973 143.798080,161.711639 144.219589,160.961517 144.969711C160.211395 145.719833,159.789886 146.737167,159.789886 147.798080C159.789886 148.858994,160.211395 149.876328,160.961517 150.626450C161.711639 151.376572,162.728973 151.798080,163.789886 151.798080C164.850800 151.798080,165.868134 151.376572,166.618256 150.626450C167.368378 149.876328,167.789886 148.858994,167.789886 147.798080Z" style="stroke:rgb(39.999390%,39.999390%,39.999390%); stroke-width: 0.500000;stroke-linecap: round;stroke-linejoin: round;stroke-miterlimit: 10.000000;fill: none;"></path>
  <path d="M167.789886 147.798080C167.789886 146.737167,167.368378 145.719833,166.618256 144.969711C165.868134 144.219589,164.850800 143.798080,163.789886 143.798080C162.728973 143.798080,161.711639 144.219589,160.961517 144.969711C160.211395 145.719833,159.789886 146.737167,159.789886 147.798080C159.789886 148.858994,160.211395 149.876328,160.961517 150.626450C161.711639 151.376572,162.728973 151.798080,163.789886 151.798080C164.850800 151.798080,165.868134 151.376572,166.618256 150.626450C167.368378 149.876328,167.789886 148.858994,167.789886 147.798080Z" style="fill: rgb(89.999390%,0.000000%,0.000000%);stroke: none;"></path>
  <path d="M49.535492 59.535492C49.535492 58.474579,49.113983 57.457245,48.363861 56.707123C47.613739 55.957001,46.596405 55.535492,45.535492 55.535492C44.474579 55.535492,43.457245 55.957001,42.707123 56.707123C41.957001 57.457245,41.535492 58.474579,41.535492 59.535492C41.535492 60.596405,41.957001 61.613739,42.707123 62.363861C43.457245 63.113983,44.474579 63.535492,45.535492 63.535492C46.596405 63.535492,47.613739 63.113983,48.363861 62.363861C49.113983 61.613739,49.535492 60.596405,49.535492 59.535492Z" style="stroke:rgb(39.999390%,39.999390%,39.999390%); stroke-width: 0.500000;stroke-linecap: round;stroke-linejoin: round;stroke-miterlimit: 10.000000;fill: none;"></path>
  <path d="M49.535492 59.535492C49.535492 58.474579,49.113983 57.457245,48.363861 56.707123C47.613739 55.957001,46.596405 55.535492,45.535492 55.535492C44.474579 55.535492,43.457245 55.957001,42.707123 56.707123C41.957001 57.457245,41.535492 58.474579,41.535492 59.535492C41.535492 60.596405,41.957001 61.613739,42.707123 62.363861C43.457245 63.113983,44.474579 63.535492,45.535492 63.535492C46.596405 63.535492,47.613739 63.113983,48.363861 62.363861C49.113983 61.613739,49.535492 60.596405,49.535492 59.535492Z" style="fill: rgb(100.000000%,100.000000%,0.000000%);stroke: none;"></path>
  <path d="M163.789886 147.798080L282.061569 59.544144" style="stroke:rgb(60.000610%,60.000610%,60.000610%); stroke-width: 1.500000;stroke-linecap: round;stroke-dasharray: 3.000000 3.000000 ;stroke-linejoin: round;stroke-miterlimit: 10.000000;fill: none;"></path>
  <path d="M329.000000 199.442459L282.061569 59.544144" style="stroke:rgb(60.000610%,60.000610%,60.000610%); stroke-width: 1.500000;stroke-linecap: round;stroke-dasharray: 3.000000 3.000000 ;stroke-linejoin: round;stroke-miterlimit: 10.000000;fill: none;"></path>
  <path d="M167.789886 147.798080C167.789886 146.737167,167.368378 145.719833,166.618256 144.969711C165.868134 144.219589,164.850800 143.798080,163.789886 143.798080C162.728973 143.798080,161.711639 144.219589,160.961517 144.969711C160.211395 145.719833,159.789886 146.737167,159.789886 147.798080C159.789886 148.858994,160.211395 149.876328,160.961517 150.626450C161.711639 151.376572,162.728973 151.798080,163.789886 151.798080C164.850800 151.798080,165.868134 151.376572,166.618256 150.626450C167.368378 149.876328,167.789886 148.858994,167.789886 147.798080Z" style="stroke:rgb(39.999390%,39.999390%,39.999390%); stroke-width: 0.500000;stroke-linecap: round;stroke-linejoin: round;stroke-miterlimit: 10.000000;fill: none;"></path>
  <path d="M167.789886 147.798080C167.789886 146.737167,167.368378 145.719833,166.618256 144.969711C165.868134 144.219589,164.850800 143.798080,163.789886 143.798080C162.728973 143.798080,161.711639 144.219589,160.961517 144.969711C160.211395 145.719833,159.789886 146.737167,159.789886 147.798080C159.789886 148.858994,160.211395 149.876328,160.961517 150.626450C161.711639 151.376572,162.728973 151.798080,163.789886 151.798080C164.850800 151.798080,165.868134 151.376572,166.618256 150.626450C167.368378 149.876328,167.789886 148.858994,167.789886 147.798080Z" style="fill: rgb(89.999390%,0.000000%,0.000000%);stroke: none;"></path>
  <path d="M333.000000 199.442459C333.000000 198.381546,332.578491 197.364212,331.828369 196.614090C331.078247 195.863968,330.060913 195.442459,329.000000 195.442459C327.939087 195.442459,326.921753 195.863968,326.171631 196.614090C325.421509 197.364212,325.000000 198.381546,325.000000 199.442459C325.000000 200.503372,325.421509 201.520706,326.171631 202.270828C326.921753 203.020950,327.939087 203.442459,329.000000 203.442459C330.060913 203.442459,331.078247 203.020950,331.828369 202.270828C332.578491 201.520706,333.000000 200.503372,333.000000 199.442459Z" style="stroke:rgb(39.999390%,39.999390%,39.999390%); stroke-width: 0.500000;stroke-linecap: round;stroke-linejoin: round;stroke-miterlimit: 10.000000;fill: none;"></path>
  <path d="M333.000000 199.442459C333.000000 198.381546,332.578491 197.364212,331.828369 196.614090C331.078247 195.863968,330.060913 195.442459,329.000000 195.442459C327.939087 195.442459,326.921753 195.863968,326.171631 196.614090C325.421509 197.364212,325.000000 198.381546,325.000000 199.442459C325.000000 200.503372,325.421509 201.520706,326.171631 202.270828C326.921753 203.020950,327.939087 203.442459,329.000000 203.442459C330.060913 203.442459,331.078247 203.020950,331.828369 202.270828C332.578491 201.520706,333.000000 200.503372,333.000000 199.442459Z" style="fill: rgb(89.999390%,0.000000%,0.000000%);stroke: none;"></path>
  <path d="M286.061569 59.544144C286.061569 58.483231,285.640060 57.465897,284.889938 56.715775C284.139816 55.965652,283.122482 55.544144,282.061569 55.544144C281.000656 55.544144,279.983322 55.965652,279.233200 56.715775C278.483078 57.465897,278.061569 58.483231,278.061569 59.544144C278.061569 60.605057,278.483078 61.622391,279.233200 62.372513C279.983322 63.122635,281.000656 63.544144,282.061569 63.544144C283.122482 63.544144,284.139816 63.122635,284.889938 62.372513C285.640060 61.622391,286.061569 60.605057,286.061569 59.544144Z" style="stroke:rgb(39.999390%,39.999390%,39.999390%); stroke-width: 0.500000;stroke-linecap: round;stroke-linejoin: round;stroke-miterlimit: 10.000000;fill: none;"></path>
  <path d="M286.061569 59.544144C286.061569 58.483231,285.640060 57.465897,284.889938 56.715775C284.139816 55.965652,283.122482 55.544144,282.061569 55.544144C281.000656 55.544144,279.983322 55.965652,279.233200 56.715775C278.483078 57.465897,278.061569 58.483231,278.061569 59.544144C278.061569 60.605057,278.483078 61.622391,279.233200 62.372513C279.983322 63.122635,281.000656 63.544144,282.061569 63.544144C283.122482 63.544144,284.139816 63.122635,284.889938 62.372513C285.640060 61.622391,286.061569 60.605057,286.061569 59.544144Z" style="fill: rgb(0.000000%,50.000000%,0.000000%);stroke: none;"></path>
  <path d="M510.758820 343.000000L363.196014 342.991348" style="stroke:rgb(60.000610%,60.000610%,60.000610%); stroke-width: 1.500000;stroke-linecap: round;stroke-dasharray: 3.000000 3.000000 ;stroke-linejoin: round;stroke-miterlimit: 10.000000;fill: none;"></path>
  <path d="M329.000000 199.442459L363.196014 342.991348" style="stroke:rgb(60.000610%,60.000610%,60.000610%); stroke-width: 1.500000;stroke-linecap: round;stroke-dasharray: 3.000000 3.000000 ;stroke-linejoin: round;stroke-miterlimit: 10.000000;fill: none;"></path>
  <path d="M514.758820 343.000000C514.758820 341.939087,514.337311 340.921753,513.587189 340.171631C512.837067 339.421509,511.819733 339.000000,510.758820 339.000000C509.697906 339.000000,508.680573 339.421509,507.930450 340.171631C507.180328 340.921753,506.758820 341.939087,506.758820 343.000000C506.758820 344.060913,507.180328 345.078247,507.930450 345.828369C508.680573 346.578491,509.697906 347.000000,510.758820 347.000000C511.819733 347.000000,512.837067 346.578491,513.587189 345.828369C514.337311 345.078247,514.758820 344.060913,514.758820 343.000000Z" style="stroke:rgb(39.999390%,39.999390%,39.999390%); stroke-width: 0.500000;stroke-linecap: round;stroke-linejoin: round;stroke-miterlimit: 10.000000;fill: none;"></path>
  <path d="M514.758820 343.000000C514.758820 341.939087,514.337311 340.921753,513.587189 340.171631C512.837067 339.421509,511.819733 339.000000,510.758820 339.000000C509.697906 339.000000,508.680573 339.421509,507.930450 340.171631C507.180328 340.921753,506.758820 341.939087,506.758820 343.000000C506.758820 344.060913,507.180328 345.078247,507.930450 345.828369C508.680573 346.578491,509.697906 347.000000,510.758820 347.000000C511.819733 347.000000,512.837067 346.578491,513.587189 345.828369C514.337311 345.078247,514.758820 344.060913,514.758820 343.000000Z" style="fill: rgb(89.999390%,0.000000%,0.000000%);stroke: none;"></path>
  <path d="M333.000000 199.442459C333.000000 198.381546,332.578491 197.364212,331.828369 196.614090C331.078247 195.863968,330.060913 195.442459,329.000000 195.442459C327.939087 195.442459,326.921753 195.863968,326.171631 196.614090C325.421509 197.364212,325.000000 198.381546,325.000000 199.442459C325.000000 200.503372,325.421509 201.520706,326.171631 202.270828C326.921753 203.020950,327.939087 203.442459,329.000000 203.442459C330.060913 203.442459,331.078247 203.020950,331.828369 202.270828C332.578491 201.520706,333.000000 200.503372,333.000000 199.442459Z" style="stroke:rgb(39.999390%,39.999390%,39.999390%); stroke-width: 0.500000;stroke-linecap: round;stroke-linejoin: round;stroke-miterlimit: 10.000000;fill: none;"></path>
  <path d="M333.000000 199.442459C333.000000 198.381546,332.578491 197.364212,331.828369 196.614090C331.078247 195.863968,330.060913 195.442459,329.000000 195.442459C327.939087 195.442459,326.921753 195.863968,326.171631 196.614090C325.421509 197.364212,325.000000 198.381546,325.000000 199.442459C325.000000 200.503372,325.421509 201.520706,326.171631 202.270828C326.921753 203.020950,327.939087 203.442459,329.000000 203.442459C330.060913 203.442459,331.078247 203.020950,331.828369 202.270828C332.578491 201.520706,333.000000 200.503372,333.000000 199.442459Z" style="fill: rgb(89.999390%,0.000000%,0.000000%);stroke: none;"></path>
  <path d="M367.196014 342.991348C367.196014 341.930435,366.774506 340.913101,366.024384 340.162979C365.274261 339.412857,364.256927 338.991348,363.196014 338.991348C362.135101 338.991348,361.117767 339.412857,360.367645 340.162979C359.617523 340.913101,359.196014 341.930435,359.196014 342.991348C359.196014 344.052261,359.617523 345.069595,360.367645 345.819717C361.117767 346.569839,362.135101 346.991348,363.196014 346.991348C364.256927 346.991348,365.274261 346.569839,366.024384 345.819717C366.774506 345.069595,367.196014 344.052261,367.196014 342.991348Z" style="stroke:rgb(39.999390%,39.999390%,39.999390%); stroke-width: 0.500000;stroke-linecap: round;stroke-linejoin: round;stroke-miterlimit: 10.000000;fill: none;"></path>
  <path d="M367.196014 342.991348C367.196014 341.930435,366.774506 340.913101,366.024384 340.162979C365.274261 339.412857,364.256927 338.991348,363.196014 338.991348C362.135101 338.991348,361.117767 339.412857,360.367645 340.162979C359.617523 340.913101,359.196014 341.930435,359.196014 342.991348C359.196014 344.052261,359.617523 345.069595,360.367645 345.819717C361.117767 346.569839,362.135101 346.991348,363.196014 346.991348C364.256927 346.991348,365.274261 346.569839,366.024384 345.819717C366.774506 345.069595,367.196014 344.052261,367.196014 342.991348Z" style="fill: rgb(9.800720%,9.800720%,44.000244%);stroke: none;"></path>
  <path d="M510.758820 343.000000L363.196014 343.008652" style="stroke:rgb(60.000610%,60.000610%,60.000610%); stroke-width: 1.500000;stroke-linecap: round;stroke-dasharray: 3.000000 3.000000 ;stroke-linejoin: round;stroke-miterlimit: 10.000000;fill: none;"></path>
  <path d="M329.000000 486.557541L363.196014 343.008652" style="stroke:rgb(60.000610%,60.000610%,60.000610%); stroke-width: 1.500000;stroke-linecap: round;stroke-dasharray: 3.000000 3.000000 ;stroke-linejoin: round;stroke-miterlimit: 10.000000;fill: none;"></path>
  <path d="M514.758820 343.000000C514.758820 341.939087,514.337311 340.921753,513.587189 340.171631C512.837067 339.421509,511.819733 339.000000,510.758820 339.000000C509.697906 339.000000,508.680573 339.421509,507.930450 340.171631C507.180328 340.921753,506.758820 341.939087,506.758820 343.000000C506.758820 344.060913,507.180328 345.078247,507.930450 345.828369C508.680573 346.578491,509.697906 347.000000,510.758820 347.000000C511.819733 347.000000,512.837067 346.578491,513.587189 345.828369C514.337311 345.078247,514.758820 344.060913,514.758820 343.000000Z" style="stroke:rgb(39.999390%,39.999390%,39.999390%); stroke-width: 0.500000;stroke-linecap: round;stroke-linejoin: round;stroke-miterlimit: 10.000000;fill: none;"></path>
  <path d="M514.758820 343.000000C514.758820 341.939087,514.337311 340.921753,513.587189 340.171631C512.837067 339.421509,511.819733 339.000000,510.758820 339.000000C509.697906 339.000000,508.680573 339.421509,507.930450 340.171631C507.180328 340.921753,506.758820 341.939087,506.758820 343.000000C506.758820 344.060913,507.180328 345.078247,507.930450 345.828369C508.680573 346.578491,509.697906 347.000000,510.758820 347.000000C511.819733 347.000000,512.837067 346.578491,513.587189 345.828369C514.337311 345.078247,514.758820 344.060913,514.758820 343.000000Z" style="fill: rgb(89.999390%,0.000000%,0.000000%);stroke: none;"></path>
  <path d="M333.000000 486.557541C333.000000 485.496628,332.578491 484.479294,331.828369 483.729172C331.078247 482.979050,330.060913 482.557541,329.000000 482.557541C327.939087 482.557541,326.921753 482.979050,326.171631 483.729172C325.421509 484.479294,325.000000 485.496628,325.000000 486.557541C325.000000 487.618454,325.421509 488.635788,326.171631 489.385910C326.921753 490.136032,327.939087 490.557541,329.000000 490.557541C330.060913 490.557541,331.078247 490.136032,331.828369 489.385910C332.578491 488.635788,333.000000 487.618454,333.000000 486.557541Z" style="stroke:rgb(39.999390%,39.999390%,39.999390%); stroke-width: 0.500000;stroke-linecap: round;stroke-linejoin: round;stroke-miterlimit: 10.000000;fill: none;"></path>
  <path d="M333.000000 486.557541C333.000000 485.496628,332.578491 484.479294,331.828369 483.729172C331.078247 482.979050,330.060913 482.557541,329.000000 482.557541C327.939087 482.557541,326.921753 482.979050,326.171631 483.729172C325.421509 484.479294,325.000000 485.496628,325.000000 486.557541C325.000000 487.618454,325.421509 488.635788,326.171631 489.385910C326.921753 490.136032,327.939087 490.557541,329.000000 490.557541C330.060913 490.557541,331.078247 490.136032,331.828369 489.385910C332.578491 488.635788,333.000000 487.618454,333.000000 486.557541Z" style="fill: rgb(89.999390%,0.000000%,0.000000%);stroke: none;"></path>
  <path d="M367.196014 343.008652C367.196014 341.947739,366.774506 340.930405,366.024384 340.180283C365.274261 339.430161,364.256927 339.008652,363.196014 339.008652C362.135101 339.008652,361.117767 339.430161,360.367645 340.180283C359.617523 340.930405,359.196014 341.947739,359.196014 343.008652C359.196014 344.069565,359.617523 345.086899,360.367645 345.837021C361.117767 346.587143,362.135101 347.008652,363.196014 347.008652C364.256927 347.008652,365.274261 346.587143,366.024384 345.837021C366.774506 345.086899,367.196014 344.069565,367.196014 343.008652Z" style="stroke:rgb(39.999390%,39.999390%,39.999390%); stroke-width: 0.500000;stroke-linecap: round;stroke-linejoin: round;stroke-miterlimit: 10.000000;fill: none;"></path>
  <path d="M367.196014 343.008652C367.196014 341.947739,366.774506 340.930405,366.024384 340.180283C365.274261 339.430161,364.256927 339.008652,363.196014 339.008652C362.135101 339.008652,361.117767 339.430161,360.367645 340.180283C359.617523 340.930405,359.196014 341.947739,359.196014 343.008652C359.196014 344.069565,359.617523 345.086899,360.367645 345.837021C361.117767 346.587143,362.135101 347.008652,363.196014 347.008652C364.256927 347.008652,365.274261 346.587143,366.024384 345.837021C366.774506 345.086899,367.196014 344.069565,367.196014 343.008652Z" style="fill: rgb(9.800720%,9.800720%,44.000244%);stroke: none;"></path>
  <path d="M163.789886 538.201920L45.535492 626.464508" style="stroke:rgb(60.000610%,60.000610%,60.000610%); stroke-width: 1.500000;stroke-linecap: round;stroke-dasharray: 3.000000 3.000000 ;stroke-linejoin: round;stroke-miterlimit: 10.000000;fill: none;"></path>
  <path d="M167.789886 538.201920C167.789886 537.141006,167.368378 536.123672,166.618256 535.373550C165.868134 534.623428,164.850800 534.201920,163.789886 534.201920C162.728973 534.201920,161.711639 534.623428,160.961517 535.373550C160.211395 536.123672,159.789886 537.141006,159.789886 538.201920C159.789886 539.262833,160.211395 540.280167,160.961517 541.030289C161.711639 541.780411,162.728973 542.201920,163.789886 542.201920C164.850800 542.201920,165.868134 541.780411,166.618256 541.030289C167.368378 540.280167,167.789886 539.262833,167.789886 538.201920Z" style="stroke:rgb(39.999390%,39.999390%,39.999390%); stroke-width: 0.500000;stroke-linecap: round;stroke-linejoin: round;stroke-miterlimit: 10.000000;fill: none;"></path>
  <path d="M167.789886 538.201920C167.789886 537.141006,167.368378 536.123672,166.618256 535.373550C165.868134 534.623428,164.850800 534.201920,163.789886 534.201920C162.728973 534.201920,161.711639 534.623428,160.961517 535.373550C160.211395 536.123672,159.789886 537.141006,159.789886 538.201920C159.789886 539.262833,160.211395 540.280167,160.961517 541.030289C161.711639 541.780411,162.728973 542.201920,163.789886 542.201920C164.850800 542.201920,165.868134 541.780411,166.618256 541.030289C167.368378 540.280167,167.789886 539.262833,167.789886 538.201920Z" style="fill: rgb(89.999390%,0.000000%,0.000000%);stroke: none;"></path>
  <path d="M49.535492 626.464508C49.535492 625.403595,49.113983 624.386261,48.363861 623.636139C47.613739 622.886017,46.596405 622.464508,45.535492 622.464508C44.474579 622.464508,43.457245 622.886017,42.707123 623.636139C41.957001 624.386261,41.535492 625.403595,41.535492 626.464508C41.535492 627.525421,41.957001 628.542755,42.707123 629.292877C43.457245 630.042999,44.474579 630.464508,45.535492 630.464508C46.596405 630.464508,47.613739 630.042999,48.363861 629.292877C49.113983 628.542755,49.535492 627.525421,49.535492 626.464508Z" style="stroke:rgb(39.999390%,39.999390%,39.999390%); stroke-width: 0.500000;stroke-linecap: round;stroke-linejoin: round;stroke-miterlimit: 10.000000;fill: none;"></path>
  <path d="M49.535492 626.464508C49.535492 625.403595,49.113983 624.386261,48.363861 623.636139C47.613739 622.886017,46.596405 622.464508,45.535492 622.464508C44.474579 622.464508,43.457245 622.886017,42.707123 623.636139C41.957001 624.386261,41.535492 625.403595,41.535492 626.464508C41.535492 627.525421,41.957001 628.542755,42.707123 629.292877C43.457245 630.042999,44.474579 630.464508,45.535492 630.464508C46.596405 630.464508,47.613739 630.042999,48.363861 629.292877C49.113983 628.542755,49.535492 627.525421,49.535492 626.464508Z" style="fill: rgb(100.000000%,100.000000%,0.000000%);stroke: none;"></path>
  <path d="M163.789886 538.201920L282.061569 626.455856" style="stroke:rgb(60.000610%,60.000610%,60.000610%); stroke-width: 1.500000;stroke-linecap: round;stroke-dasharray: 3.000000 3.000000 ;stroke-linejoin: round;stroke-miterlimit: 10.000000;fill: none;"></path>
  <path d="M329.000000 486.557541L282.061569 626.455856" style="stroke:rgb(60.000610%,60.000610%,60.000610%); stroke-width: 1.500000;stroke-linecap: round;stroke-dasharray: 3.000000 3.000000 ;stroke-linejoin: round;stroke-miterlimit: 10.000000;fill: none;"></path>
  <path d="M167.789886 538.201920C167.789886 537.141006,167.368378 536.123672,166.618256 535.373550C165.868134 534.623428,164.850800 534.201920,163.789886 534.201920C162.728973 534.201920,161.711639 534.623428,160.961517 535.373550C160.211395 536.123672,159.789886 537.141006,159.789886 538.201920C159.789886 539.262833,160.211395 540.280167,160.961517 541.030289C161.711639 541.780411,162.728973 542.201920,163.789886 542.201920C164.850800 542.201920,165.868134 541.780411,166.618256 541.030289C167.368378 540.280167,167.789886 539.262833,167.789886 538.201920Z" style="stroke:rgb(39.999390%,39.999390%,39.999390%); stroke-width: 0.500000;stroke-linecap: round;stroke-linejoin: round;stroke-miterlimit: 10.000000;fill: none;"></path>
  <path d="M167.789886 538.201920C167.789886 537.141006,167.368378 536.123672,166.618256 535.373550C165.868134 534.623428,164.850800 534.201920,163.789886 534.201920C162.728973 534.201920,161.711639 534.623428,160.961517 535.373550C160.211395 536.123672,159.789886 537.141006,159.789886 538.201920C159.789886 539.262833,160.211395 540.280167,160.961517 541.030289C161.711639 541.780411,162.728973 542.201920,163.789886 542.201920C164.850800 542.201920,165.868134 541.780411,166.618256 541.030289C167.368378 540.280167,167.789886 539.262833,167.789886 538.201920Z" style="fill: rgb(89.999390%,0.000000%,0.000000%);stroke: none;"></path>
  <path d="M333.000000 486.557541C333.000000 485.496628,332.578491 484.479294,331.828369 483.729172C331.078247 482.979050,330.060913 482.557541,329.000000 482.557541C327.939087 482.557541,326.921753 482.979050,326.171631 483.729172C325.421509 484.479294,325.000000 485.496628,325.000000 486.557541C325.000000 487.618454,325.421509 488.635788,326.171631 489.385910C326.921753 490.136032,327.939087 490.557541,329.000000 490.557541C330.060913 490.557541,331.078247 490.136032,331.828369 489.385910C332.578491 488.635788,333.000000 487.618454,333.000000 486.557541Z" style="stroke:rgb(39.999390%,39.999390%,39.999390%); stroke-width: 0.500000;stroke-linecap: round;stroke-linejoin: round;stroke-miterlimit: 10.000000;fill: none;"></path>
  <path d="M333.000000 486.557541C333.000000 485.496628,332.578491 484.479294,331.828369 483.729172C331.078247 482.979050,330.060913 482.557541,329.000000 482.557541C327.939087 482.557541,326.921753 482.979050,326.171631 483.729172C325.421509 484.479294,325.000000 485.496628,325.000000 486.557541C325.000000 487.618454,325.421509 488.635788,326.171631 489.385910C326.921753 490.136032,327.939087 490.557541,329.000000 490.557541C330.060913 490.557541,331.078247 490.136032,331.828369 489.385910C332.578491 488.635788,333.000000 487.618454,333.000000 486.557541Z" style="fill: rgb(89.999390%,0.000000%,0.000000%);stroke: none;"></path>
  <path d="M286.061569 626.455856C286.061569 625.394943,285.640060 624.377609,284.889938 623.627487C284.139816 622.877365,283.122482 622.455856,282.061569 622.455856C281.000656 622.455856,279.983322 622.877365,279.233200 623.627487C278.483078 624.377609,278.061569 625.394943,278.061569 626.455856C278.061569 627.516769,278.483078 628.534103,279.233200 629.284225C279.983322 630.034348,281.000656 630.455856,282.061569 630.455856C283.122482 630.455856,284.139816 630.034348,284.889938 629.284225C285.640060 628.534103,286.061569 627.516769,286.061569 626.455856Z" style="stroke:rgb(39.999390%,39.999390%,39.999390%); stroke-width: 0.500000;stroke-linecap: round;stroke-linejoin: round;stroke-miterlimit: 10.000000;fill: none;"></path>
  <path d="M286.061569 626.455856C286.061569 625.394943,285.640060 624.377609,284.889938 623.627487C284.139816 622.877365,283.122482 622.455856,282.061569 622.455856C281.000656 622.455856,279.983322 622.877365,279.233200 623.627487C278.483078 624.377609,278.061569 625.394943,278.061569 626.455856C278.061569 627.516769,278.483078 628.534103,279.233200 629.284225C279.983322 630.034348,281.000656 630.455856,282.061569 630.455856C283.122482 630.455856,284.139816 630.034348,284.889938 629.284225C285.640060 628.534103,286.061569 627.516769,286.061569 626.455856Z" style="fill: rgb(0.000000%,50.000000%,0.000000%);stroke: none;"></path>
  <path d="M329.000000 199.442459L363.161423 343.000000" style="stroke:rgb(60.000610%,60.000610%,60.000610%); stroke-width: 1.500000;stroke-linecap: round;stroke-dasharray: 3.000000 3.000000 ;stroke-linejoin: round;stroke-miterlimit: 10.000000;fill: none;"></path>
  <path d="M329.000000 486.557541L363.161423 343.000000" style="stroke:rgb(60.000610%,60.000610%,60.000610%); stroke-width: 1.500000;stroke-linecap: round;stroke-dasharray: 3.000000 3.000000 ;stroke-linejoin: round;stroke-miterlimit: 10.000000;fill: none;"></path>
  <path d="M333.000000 199.442459C333.000000 198.381546,332.578491 197.364212,331.828369 196.614090C331.078247 195.863968,330.060913 195.442459,329.000000 195.442459C327.939087 195.442459,326.921753 195.863968,326.171631 196.614090C325.421509 197.364212,325.000000 198.381546,325.000000 199.442459C325.000000 200.503372,325.421509 201.520706,326.171631 202.270828C326.921753 203.020950,327.939087 203.442459,329.000000 203.442459C330.060913 203.442459,331.078247 203.020950,331.828369 202.270828C332.578491 201.520706,333.000000 200.503372,333.000000 199.442459Z" style="stroke:rgb(39.999390%,39.999390%,39.999390%); stroke-width: 0.500000;stroke-linecap: round;stroke-linejoin: round;stroke-miterlimit: 10.000000;fill: none;"></path>
  <path d="M333.000000 199.442459C333.000000 198.381546,332.578491 197.364212,331.828369 196.614090C331.078247 195.863968,330.060913 195.442459,329.000000 195.442459C327.939087 195.442459,326.921753 195.863968,326.171631 196.614090C325.421509 197.364212,325.000000 198.381546,325.000000 199.442459C325.000000 200.503372,325.421509 201.520706,326.171631 202.270828C326.921753 203.020950,327.939087 203.442459,329.000000 203.442459C330.060913 203.442459,331.078247 203.020950,331.828369 202.270828C332.578491 201.520706,333.000000 200.503372,333.000000 199.442459Z" style="fill: rgb(89.999390%,0.000000%,0.000000%);stroke: none;"></path>
  <path d="M333.000000 486.557541C333.000000 485.496628,332.578491 484.479294,331.828369 483.729172C331.078247 482.979050,330.060913 482.557541,329.000000 482.557541C327.939087 482.557541,326.921753 482.979050,326.171631 483.729172C325.421509 484.479294,325.000000 485.496628,325.000000 486.557541C325.000000 487.618454,325.421509 488.635788,326.171631 489.385910C326.921753 490.136032,327.939087 490.557541,329.000000 490.557541C330.060913 490.557541,331.078247 490.136032,331.828369 489.385910C332.578491 488.635788,333.000000 487.618454,333.000000 486.557541Z" style="stroke:rgb(39.999390%,39.999390%,39.999390%); stroke-width: 0.500000;stroke-linecap: round;stroke-linejoin: round;stroke-miterlimit: 10.000000;fill: none;"></path>
  <path d="M333.000000 486.557541C333.000000 485.496628,332.578491 484.479294,331.828369 483.729172C331.078247 482.979050,330.060913 482.557541,329.000000 482.557541C327.939087 482.557541,326.921753 482.979050,326.171631 483.729172C325.421509 484.479294,325.000000 485.496628,325.000000 486.557541C325.000000 487.618454,325.421509 488.635788,326.171631 489.385910C326.921753 490.136032,327.939087 490.557541,329.000000 490.557541C330.060913 490.557541,331.078247 490.136032,331.828369 489.385910C332.578491 488.635788,333.000000 487.618454,333.000000 486.557541Z" style="fill: rgb(89.999390%,0.000000%,0.000000%);stroke: none;"></path>
  <path d="M367.161423 343.000000C367.161423 341.939087,366.739914 340.921753,365.989792 340.171631C365.239670 339.421509,364.222336 339.000000,363.161423 339.000000C362.100510 339.000000,361.083176 339.421509,360.333054 340.171631C359.582932 340.921753,359.161423 341.939087,359.161423 343.000000C359.161423 344.060913,359.582932 345.078247,360.333054 345.828369C361.083176 346.578491,362.100510 347.000000,363.161423 347.000000C364.222336 347.000000,365.239670 346.578491,365.989792 345.828369C366.739914 345.078247,367.161423 344.060913,367.161423 343.000000Z" style="stroke:rgb(39.999390%,39.999390%,39.999390%); stroke-width: 0.500000;stroke-linecap: round;stroke-linejoin: round;stroke-miterlimit: 10.000000;fill: none;"></path>
  <path d="M367.161423 343.000000C367.161423 341.939087,366.739914 340.921753,365.989792 340.171631C365.239670 339.421509,364.222336 339.000000,363.161423 339.000000C362.100510 339.000000,361.083176 339.421509,360.333054 340.171631C359.582932 340.921753,359.161423 341.939087,359.161423 343.000000C359.161423 344.060913,359.582932 345.078247,360.333054 345.828369C361.083176 346.578491,362.100510 347.000000,363.161423 347.000000C364.222336 347.000000,365.239670 346.578491,365.989792 345.828369C366.739914 345.078247,367.161423 344.060913,367.161423 343.000000Z" style="fill: rgb(9.800720%,9.800720%,44.000244%);stroke: none;"></path>
  <path d="M329.000000 199.442459L294.838577 343.000000" style="stroke:rgb(60.000610%,60.000610%,60.000610%); stroke-width: 1.500000;stroke-linecap: round;stroke-dasharray: 3.000000 3.000000 ;stroke-linejoin: round;stroke-miterlimit: 10.000000;fill: none;"></path>
  <path d="M329.000000 486.557541L294.838577 343.000000" style="stroke:rgb(60.000610%,60.000610%,60.000610%); stroke-width: 1.500000;stroke-linecap: round;stroke-dasharray: 3.000000 3.000000 ;stroke-linejoin: round;stroke-miterlimit: 10.000000;fill: none;"></path>
  <path d="M333.000000 199.442459C333.000000 198.381546,332.578491 197.364212,331.828369 196.614090C331.078247 195.863968,330.060913 195.442459,329.000000 195.442459C327.939087 195.442459,326.921753 195.863968,326.171631 196.614090C325.421509 197.364212,325.000000 198.381546,325.000000 199.442459C325.000000 200.503372,325.421509 201.520706,326.171631 202.270828C326.921753 203.020950,327.939087 203.442459,329.000000 203.442459C330.060913 203.442459,331.078247 203.020950,331.828369 202.270828C332.578491 201.520706,333.000000 200.503372,333.000000 199.442459Z" style="stroke:rgb(39.999390%,39.999390%,39.999390%); stroke-width: 0.500000;stroke-linecap: round;stroke-linejoin: round;stroke-miterlimit: 10.000000;fill: none;"></path>
  <path d="M333.000000 199.442459C333.000000 198.381546,332.578491 197.364212,331.828369 196.614090C331.078247 195.863968,330.060913 195.442459,329.000000 195.442459C327.939087 195.442459,326.921753 195.863968,326.171631 196.614090C325.421509 197.364212,325.000000 198.381546,325.000000 199.442459C325.000000 200.503372,325.421509 201.520706,326.171631 202.270828C326.921753 203.020950,327.939087 203.442459,329.000000 203.442459C330.060913 203.442459,331.078247 203.020950,331.828369 202.270828C332.578491 201.520706,333.000000 200.503372,333.000000 199.442459Z" style="fill: rgb(89.999390%,0.000000%,0.000000%);stroke: none;"></path>
  <path d="M333.000000 486.557541C333.000000 485.496628,332.578491 484.479294,331.828369 483.729172C331.078247 482.979050,330.060913 482.557541,329.000000 482.557541C327.939087 482.557541,326.921753 482.979050,326.171631 483.729172C325.421509 484.479294,325.000000 485.496628,325.000000 486.557541C325.000000 487.618454,325.421509 488.635788,326.171631 489.385910C326.921753 490.136032,327.939087 490.557541,329.000000 490.557541C330.060913 490.557541,331.078247 490.136032,331.828369 489.385910C332.578491 488.635788,333.000000 487.618454,333.000000 486.557541Z" style="stroke:rgb(39.999390%,39.999390%,39.999390%); stroke-width: 0.500000;stroke-linecap: round;stroke-linejoin: round;stroke-miterlimit: 10.000000;fill: none;"></path>
  <path d="M333.000000 486.557541C333.000000 485.496628,332.578491 484.479294,331.828369 483.729172C331.078247 482.979050,330.060913 482.557541,329.000000 482.557541C327.939087 482.557541,326.921753 482.979050,326.171631 483.729172C325.421509 484.479294,325.000000 485.496628,325.000000 486.557541C325.000000 487.618454,325.421509 488.635788,326.171631 489.385910C326.921753 490.136032,327.939087 490.557541,329.000000 490.557541C330.060913 490.557541,331.078247 490.136032,331.828369 489.385910C332.578491 488.635788,333.000000 487.618454,333.000000 486.557541Z" style="fill: rgb(89.999390%,0.000000%,0.000000%);stroke: none;"></path>
  <path d="M298.838577 343.000000C298.838577 341.939087,298.417068 340.921753,297.666946 340.171631C296.916824 339.421509,295.899490 339.000000,294.838577 339.000000C293.777664 339.000000,292.760330 339.421509,292.010208 340.171631C291.260086 340.921753,290.838577 341.939087,290.838577 343.000000C290.838577 344.060913,291.260086 345.078247,292.010208 345.828369C292.760330 346.578491,293.777664 347.000000,294.838577 347.000000C295.899490 347.000000,296.916824 346.578491,297.666946 345.828369C298.417068 345.078247,298.838577 344.060913,298.838577 343.000000Z" style="stroke:rgb(39.999390%,39.999390%,39.999390%); stroke-width: 0.500000;stroke-linecap: round;stroke-linejoin: round;stroke-miterlimit: 10.000000;fill: none;"></path>
  <path d="M298.838577 343.000000C298.838577 341.939087,298.417068 340.921753,297.666946 340.171631C296.916824 339.421509,295.899490 339.000000,294.838577 339.000000C293.777664 339.000000,292.760330 339.421509,292.010208 340.171631C291.260086 340.921753,290.838577 341.939087,290.838577 343.000000C290.838577 344.060913,291.260086 345.078247,292.010208 345.828369C292.760330 346.578491,293.777664 347.000000,294.838577 347.000000C295.899490 347.000000,296.916824 346.578491,297.666946 345.828369C298.417068 345.078247,298.838577 344.060913,298.838577 343.000000Z" style="fill: rgb(9.800720%,9.800720%,44.000244%);stroke: none;"></path>
</svg>
