<?xml version="1.0"?>
<!-- Created by MetaPost 2.00 on 2025.04.10:1556 -->
<svg version="1.1" xmlns="http://www.w3.org/2000/svg" xmlns:xlink="http://www.w3.org/1999/xlink" width="769.627594" height="674.444489" viewBox="0 0 769.627594 674.444489">
<!-- Original BoundingBox: -384.813797 -324.345749 384.813797 350.098740 -->
  <path d="M100.535492 633.464508L667.464508 633.464508L667.464508 66.535492L100.535492 66.535492L100.535492 633.464508Z" style="fill: rgb(100.000000%,100.000000%,100.000000%);stroke: none;"></path>
  <path d="M100.535492 633.464508L667.464508 633.464508" style="stroke:rgb(0.000000%,0.000000%,0.000000%); stroke-width: 1.000000;stroke-linecap: round;stroke-linejoin: round;stroke-miterlimit: 10.000000;fill: none;"></path>
  <path d="M667.464508 633.464508L667.464508 66.535492" style="stroke:rgb(0.000000%,0.000000%,0.000000%); stroke-width: 1.000000;stroke-linecap: round;stroke-linejoin: round;stroke-miterlimit: 10.000000;fill: none;"></path>
  <path d="M667.464508 66.535492L100.535492 66.535492" style="stroke:rgb(0.000000%,0.000000%,0.000000%); stroke-width: 1.000000;stroke-linecap: round;stroke-linejoin: round;stroke-miterlimit: 10.000000;fill: none;"></path>
  <path d="M100.535492 66.535492L100.535492 633.464508" style="stroke:rgb(0.000000%,0.000000%,0.000000%); stroke-width: 1.000000;stroke-linecap: round;stroke-linejoin: round;stroke-miterlimit: 10.000000;fill: none;"></path>
  <path d="M710.631256 185.300262C710.631256 136.259827,691.147110 89.233810,656.472916 54.559601C621.798706 19.885406,574.772690 0.401260,525.732254 0.401260C476.691818 0.401260,429.665802 19.885406,394.991592 54.559601C360.317398 89.233810,340.833252 136.259827,340.833252 185.300262C340.833252 234.340698,360.317398 281.366714,394.991592 316.040924C429.665802 350.715118,476.691818 370.199265,525.732254 370.199265C574.772690 370.199265,621.798706 350.715118,656.472916 316.040924C691.147110 281.366714,710.631256 234.340698,710.631256 185.300262Z" style="stroke:rgb(25.500488%,41.000366%,88.400269%); stroke-width: 1.000000;stroke-linecap: round;stroke-linejoin: round;stroke-miterlimit: 10.000000;fill: none;"></path>
  <path d="M369.484207 468.773422C369.484207 419.732986,350.000061 372.706970,315.325867 338.032761C280.651657 303.358566,233.625641 283.874420,184.585205 283.874420C135.544769 283.874420,88.518753 303.358566,53.844543 338.032761C19.170349 372.706970,-0.313797 419.732986,-0.313797 468.773422C-0.313797 517.813858,19.170349 564.839874,53.844543 599.514084C88.518753 634.188278,135.544769 653.672424,184.585205 653.672424C233.625641 653.672424,280.651657 634.188278,315.325867 599.514084C350.000061 564.839874,369.484207 517.813858,369.484207 468.773422Z" style="stroke:rgb(25.500488%,41.000366%,88.400269%); stroke-width: 1.000000;stroke-linecap: round;stroke-linejoin: round;stroke-miterlimit: 10.000000;fill: none;"></path>
  <path d="M768.313797 468.773422C768.313797 419.732986,748.829651 372.706970,714.155457 338.032761C679.481247 303.358566,632.455231 283.874420,583.414795 283.874420C534.374359 283.874420,487.348343 303.358566,452.674133 338.032761C417.999939 372.706970,398.515793 419.732986,398.515793 468.773422C398.515793 517.813858,417.999939 564.839874,452.674133 599.514084C487.348343 634.188278,534.374359 653.672424,583.414795 653.672424C632.455231 653.672424,679.481247 634.188278,714.155457 599.514084C748.829651 564.839874,768.313797 517.813858,768.313797 468.773422Z" style="stroke:rgb(25.500488%,41.000366%,88.400269%); stroke-width: 1.000000;stroke-linecap: round;stroke-linejoin: round;stroke-miterlimit: 10.000000;fill: none;"></path>
  <path d="M427.166748 185.300262C427.166748 136.259827,407.682602 89.233810,373.008408 54.559601C338.334198 19.885406,291.308182 0.401260,242.267746 0.401260C193.227310 0.401260,146.201294 19.885406,111.527084 54.559601C76.852890 89.233810,57.368744 136.259827,57.368744 185.300262C57.368744 234.340698,76.852890 281.366714,111.527084 316.040924C146.201294 350.715118,193.227310 370.199265,242.267746 370.199265C291.308182 370.199265,338.334198 350.715118,373.008408 316.040924C407.682602 281.366714,427.166748 234.340698,427.166748 185.300262Z" style="stroke:rgb(25.500488%,41.000366%,88.400269%); stroke-width: 1.000000;stroke-linecap: round;stroke-linejoin: round;stroke-miterlimit: 10.000000;fill: none;"></path>
  <path d="M568.899002 488.946747C568.899002 439.906311,549.414856 392.880295,514.740662 358.206085C480.066452 323.531891,433.040436 304.047745,384.000000 304.047745C334.959564 304.047745,287.933548 323.531891,253.259338 358.206085C218.585144 392.880295,199.100998 439.906311,199.100998 488.946747C199.100998 537.987183,218.585144 585.013199,253.259338 619.687408C287.933548 654.361603,334.959564 673.845749,384.000000 673.845749C433.040436 673.845749,480.066452 654.361603,514.740662 619.687408C549.414856 585.013199,568.899002 537.987183,568.899002 488.946747Z" style="stroke:rgb(25.500488%,41.000366%,88.400269%); stroke-width: 1.000000;stroke-linecap: round;stroke-linejoin: round;stroke-miterlimit: 10.000000;fill: none;"></path>
  <path d="M525.732254 185.300262L667.464508 66.535492" style="stroke:rgb(60.000610%,60.000610%,60.000610%); stroke-width: 1.500000;stroke-linecap: round;stroke-dasharray: 3.000000 3.000000 ;stroke-linejoin: round;stroke-miterlimit: 10.000000;fill: none;"></path>
  <path d="M529.732254 185.300262C529.732254 184.239349,529.310745 183.222015,528.560623 182.471893C527.810501 181.721771,526.793167 181.300262,525.732254 181.300262C524.671341 181.300262,523.654007 181.721771,522.903885 182.471893C522.153763 183.222015,521.732254 184.239349,521.732254 185.300262C521.732254 186.361176,522.153763 187.378510,522.903885 188.128632C523.654007 188.878754,524.671341 189.300262,525.732254 189.300262C526.793167 189.300262,527.810501 188.878754,528.560623 188.128632C529.310745 187.378510,529.732254 186.361176,529.732254 185.300262Z" style="stroke:rgb(39.999390%,39.999390%,39.999390%); stroke-width: 0.500000;stroke-linecap: round;stroke-linejoin: round;stroke-miterlimit: 10.000000;fill: none;"></path>
  <path d="M529.732254 185.300262C529.732254 184.239349,529.310745 183.222015,528.560623 182.471893C527.810501 181.721771,526.793167 181.300262,525.732254 181.300262C524.671341 181.300262,523.654007 181.721771,522.903885 182.471893C522.153763 183.222015,521.732254 184.239349,521.732254 185.300262C521.732254 186.361176,522.153763 187.378510,522.903885 188.128632C523.654007 188.878754,524.671341 189.300262,525.732254 189.300262C526.793167 189.300262,527.810501 188.878754,528.560623 188.128632C529.310745 187.378510,529.732254 186.361176,529.732254 185.300262Z" style="fill: rgb(89.999390%,0.000000%,0.000000%);stroke: none;"></path>
  <path d="M671.464508 66.535492C671.464508 65.474579,671.042999 64.457245,670.292877 63.707123C669.542755 62.957001,668.525421 62.535492,667.464508 62.535492C666.403595 62.535492,665.386261 62.957001,664.636139 63.707123C663.886017 64.457245,663.464508 65.474579,663.464508 66.535492C663.464508 67.596405,663.886017 68.613739,664.636139 69.363861C665.386261 70.113983,666.403595 70.535492,667.464508 70.535492C668.525421 70.535492,669.542755 70.113983,670.292877 69.363861C671.042999 68.613739,671.464508 67.596405,671.464508 66.535492Z" style="stroke:rgb(39.999390%,39.999390%,39.999390%); stroke-width: 0.500000;stroke-linecap: round;stroke-linejoin: round;stroke-miterlimit: 10.000000;fill: none;"></path>
  <path d="M671.464508 66.535492C671.464508 65.474579,671.042999 64.457245,670.292877 63.707123C669.542755 62.957001,668.525421 62.535492,667.464508 62.535492C666.403595 62.535492,665.386261 62.957001,664.636139 63.707123C663.886017 64.457245,663.464508 65.474579,663.464508 66.535492C663.464508 67.596405,663.886017 68.613739,664.636139 69.363861C665.386261 70.113983,666.403595 70.535492,667.464508 70.535492C668.525421 70.535492,669.542755 70.113983,670.292877 69.363861C671.042999 68.613739,671.464508 67.596405,671.464508 66.535492Z" style="fill: rgb(100.000000%,100.000000%,0.000000%);stroke: none;"></path>
  <path d="M525.732254 185.300262L667.447205 304.065048" style="stroke:rgb(60.000610%,60.000610%,60.000610%); stroke-width: 1.500000;stroke-linecap: round;stroke-dasharray: 3.000000 3.000000 ;stroke-linejoin: round;stroke-miterlimit: 10.000000;fill: none;"></path>
  <path d="M583.414795 468.773422L667.447205 304.065048" style="stroke:rgb(60.000610%,60.000610%,60.000610%); stroke-width: 1.500000;stroke-linecap: round;stroke-dasharray: 3.000000 3.000000 ;stroke-linejoin: round;stroke-miterlimit: 10.000000;fill: none;"></path>
  <path d="M529.732254 185.300262C529.732254 184.239349,529.310745 183.222015,528.560623 182.471893C527.810501 181.721771,526.793167 181.300262,525.732254 181.300262C524.671341 181.300262,523.654007 181.721771,522.903885 182.471893C522.153763 183.222015,521.732254 184.239349,521.732254 185.300262C521.732254 186.361176,522.153763 187.378510,522.903885 188.128632C523.654007 188.878754,524.671341 189.300262,525.732254 189.300262C526.793167 189.300262,527.810501 188.878754,528.560623 188.128632C529.310745 187.378510,529.732254 186.361176,529.732254 185.300262Z" style="stroke:rgb(39.999390%,39.999390%,39.999390%); stroke-width: 0.500000;stroke-linecap: round;stroke-linejoin: round;stroke-miterlimit: 10.000000;fill: none;"></path>
  <path d="M529.732254 185.300262C529.732254 184.239349,529.310745 183.222015,528.560623 182.471893C527.810501 181.721771,526.793167 181.300262,525.732254 181.300262C524.671341 181.300262,523.654007 181.721771,522.903885 182.471893C522.153763 183.222015,521.732254 184.239349,521.732254 185.300262C521.732254 186.361176,522.153763 187.378510,522.903885 188.128632C523.654007 188.878754,524.671341 189.300262,525.732254 189.300262C526.793167 189.300262,527.810501 188.878754,528.560623 188.128632C529.310745 187.378510,529.732254 186.361176,529.732254 185.300262Z" style="fill: rgb(89.999390%,0.000000%,0.000000%);stroke: none;"></path>
  <path d="M587.414795 468.773422C587.414795 467.712509,586.993286 466.695175,586.243164 465.945053C585.493042 465.194931,584.475708 464.773422,583.414795 464.773422C582.353882 464.773422,581.336548 465.194931,580.586426 465.945053C579.836304 466.695175,579.414795 467.712509,579.414795 468.773422C579.414795 469.834335,579.836304 470.851669,580.586426 471.601791C581.336548 472.351913,582.353882 472.773422,583.414795 472.773422C584.475708 472.773422,585.493042 472.351913,586.243164 471.601791C586.993286 470.851669,587.414795 469.834335,587.414795 468.773422Z" style="stroke:rgb(39.999390%,39.999390%,39.999390%); stroke-width: 0.500000;stroke-linecap: round;stroke-linejoin: round;stroke-miterlimit: 10.000000;fill: none;"></path>
  <path d="M587.414795 468.773422C587.414795 467.712509,586.993286 466.695175,586.243164 465.945053C585.493042 465.194931,584.475708 464.773422,583.414795 464.773422C582.353882 464.773422,581.336548 465.194931,580.586426 465.945053C579.836304 466.695175,579.414795 467.712509,579.414795 468.773422C579.414795 469.834335,579.836304 470.851669,580.586426 471.601791C581.336548 472.351913,582.353882 472.773422,583.414795 472.773422C584.475708 472.773422,585.493042 472.351913,586.243164 471.601791C586.993286 470.851669,587.414795 469.834335,587.414795 468.773422Z" style="fill: rgb(89.999390%,0.000000%,0.000000%);stroke: none;"></path>
  <path d="M671.447205 304.065048C671.447205 303.004135,671.025696 301.986801,670.275574 301.236679C669.525452 300.486557,668.508118 300.065048,667.447205 300.065048C666.386292 300.065048,665.368958 300.486557,664.618835 301.236679C663.868713 301.986801,663.447205 303.004135,663.447205 304.065048C663.447205 305.125961,663.868713 306.143295,664.618835 306.893417C665.368958 307.643539,666.386292 308.065048,667.447205 308.065048C668.508118 308.065048,669.525452 307.643539,670.275574 306.893417C671.025696 306.143295,671.447205 305.125961,671.447205 304.065048Z" style="stroke:rgb(39.999390%,39.999390%,39.999390%); stroke-width: 0.500000;stroke-linecap: round;stroke-linejoin: round;stroke-miterlimit: 10.000000;fill: none;"></path>
  <path d="M671.447205 304.065048C671.447205 303.004135,671.025696 301.986801,670.275574 301.236679C669.525452 300.486557,668.508118 300.065048,667.447205 300.065048C666.386292 300.065048,665.368958 300.486557,664.618835 301.236679C663.868713 301.986801,663.447205 303.004135,663.447205 304.065048C663.447205 305.125961,663.868713 306.143295,664.618835 306.893417C665.368958 307.643539,666.386292 308.065048,667.447205 308.065048C668.508118 308.065048,669.525452 307.643539,670.275574 306.893417C671.025696 306.143295,671.447205 305.125961,671.447205 304.065048Z" style="fill: rgb(0.000000%,50.000000%,0.000000%);stroke: none;"></path>
  <path d="M525.732254 185.300262L384.000000 304.030441" style="stroke:rgb(60.000610%,60.000610%,60.000610%); stroke-width: 1.500000;stroke-linecap: round;stroke-dasharray: 3.000000 3.000000 ;stroke-linejoin: round;stroke-miterlimit: 10.000000;fill: none;"></path>
  <path d="M242.267746 185.300262L384.000000 304.030441" style="stroke:rgb(60.000610%,60.000610%,60.000610%); stroke-width: 1.500000;stroke-linecap: round;stroke-dasharray: 3.000000 3.000000 ;stroke-linejoin: round;stroke-miterlimit: 10.000000;fill: none;"></path>
  <path d="M529.732254 185.300262C529.732254 184.239349,529.310745 183.222015,528.560623 182.471893C527.810501 181.721771,526.793167 181.300262,525.732254 181.300262C524.671341 181.300262,523.654007 181.721771,522.903885 182.471893C522.153763 183.222015,521.732254 184.239349,521.732254 185.300262C521.732254 186.361176,522.153763 187.378510,522.903885 188.128632C523.654007 188.878754,524.671341 189.300262,525.732254 189.300262C526.793167 189.300262,527.810501 188.878754,528.560623 188.128632C529.310745 187.378510,529.732254 186.361176,529.732254 185.300262Z" style="stroke:rgb(39.999390%,39.999390%,39.999390%); stroke-width: 0.500000;stroke-linecap: round;stroke-linejoin: round;stroke-miterlimit: 10.000000;fill: none;"></path>
  <path d="M529.732254 185.300262C529.732254 184.239349,529.310745 183.222015,528.560623 182.471893C527.810501 181.721771,526.793167 181.300262,525.732254 181.300262C524.671341 181.300262,523.654007 181.721771,522.903885 182.471893C522.153763 183.222015,521.732254 184.239349,521.732254 185.300262C521.732254 186.361176,522.153763 187.378510,522.903885 188.128632C523.654007 188.878754,524.671341 189.300262,525.732254 189.300262C526.793167 189.300262,527.810501 188.878754,528.560623 188.128632C529.310745 187.378510,529.732254 186.361176,529.732254 185.300262Z" style="fill: rgb(89.999390%,0.000000%,0.000000%);stroke: none;"></path>
  <path d="M246.267746 185.300262C246.267746 184.239349,245.846237 183.222015,245.096115 182.471893C244.345993 181.721771,243.328659 181.300262,242.267746 181.300262C241.206833 181.300262,240.189499 181.721771,239.439377 182.471893C238.689255 183.222015,238.267746 184.239349,238.267746 185.300262C238.267746 186.361176,238.689255 187.378510,239.439377 188.128632C240.189499 188.878754,241.206833 189.300262,242.267746 189.300262C243.328659 189.300262,244.345993 188.878754,245.096115 188.128632C245.846237 187.378510,246.267746 186.361176,246.267746 185.300262Z" style="stroke:rgb(39.999390%,39.999390%,39.999390%); stroke-width: 0.500000;stroke-linecap: round;stroke-linejoin: round;stroke-miterlimit: 10.000000;fill: none;"></path>
  <path d="M246.267746 185.300262C246.267746 184.239349,245.846237 183.222015,245.096115 182.471893C244.345993 181.721771,243.328659 181.300262,242.267746 181.300262C241.206833 181.300262,240.189499 181.721771,239.439377 182.471893C238.689255 183.222015,238.267746 184.239349,238.267746 185.300262C238.267746 186.361176,238.689255 187.378510,239.439377 188.128632C240.189499 188.878754,241.206833 189.300262,242.267746 189.300262C243.328659 189.300262,244.345993 188.878754,245.096115 188.128632C245.846237 187.378510,246.267746 186.361176,246.267746 185.300262Z" style="fill: rgb(89.999390%,0.000000%,0.000000%);stroke: none;"></path>
  <path d="M388.000000 304.030441C388.000000 302.969528,387.578491 301.952194,386.828369 301.202072C386.078247 300.451950,385.060913 300.030441,384.000000 300.030441C382.939087 300.030441,381.921753 300.451950,381.171631 301.202072C380.421509 301.952194,380.000000 302.969528,380.000000 304.030441C380.000000 305.091354,380.421509 306.108688,381.171631 306.858810C381.921753 307.608932,382.939087 308.030441,384.000000 308.030441C385.060913 308.030441,386.078247 307.608932,386.828369 306.858810C387.578491 306.108688,388.000000 305.091354,388.000000 304.030441Z" style="stroke:rgb(39.999390%,39.999390%,39.999390%); stroke-width: 0.500000;stroke-linecap: round;stroke-linejoin: round;stroke-miterlimit: 10.000000;fill: none;"></path>
  <path d="M388.000000 304.030441C388.000000 302.969528,387.578491 301.952194,386.828369 301.202072C386.078247 300.451950,385.060913 300.030441,384.000000 300.030441C382.939087 300.030441,381.921753 300.451950,381.171631 301.202072C380.421509 301.952194,380.000000 302.969528,380.000000 304.030441C380.000000 305.091354,380.421509 306.108688,381.171631 306.858810C381.921753 307.608932,382.939087 308.030441,384.000000 308.030441C385.060913 308.030441,386.078247 307.608932,386.828369 306.858810C387.578491 306.108688,388.000000 305.091354,388.000000 304.030441Z" style="fill: rgb(9.800720%,9.800720%,44.000244%);stroke: none;"></path>
  <path d="M525.732254 185.300262L384.000000 66.561447" style="stroke:rgb(60.000610%,60.000610%,60.000610%); stroke-width: 1.500000;stroke-linecap: round;stroke-dasharray: 3.000000 3.000000 ;stroke-linejoin: round;stroke-miterlimit: 10.000000;fill: none;"></path>
  <path d="M242.267746 185.300262L384.000000 66.561447" style="stroke:rgb(60.000610%,60.000610%,60.000610%); stroke-width: 1.500000;stroke-linecap: round;stroke-dasharray: 3.000000 3.000000 ;stroke-linejoin: round;stroke-miterlimit: 10.000000;fill: none;"></path>
  <path d="M529.732254 185.300262C529.732254 184.239349,529.310745 183.222015,528.560623 182.471893C527.810501 181.721771,526.793167 181.300262,525.732254 181.300262C524.671341 181.300262,523.654007 181.721771,522.903885 182.471893C522.153763 183.222015,521.732254 184.239349,521.732254 185.300262C521.732254 186.361176,522.153763 187.378510,522.903885 188.128632C523.654007 188.878754,524.671341 189.300262,525.732254 189.300262C526.793167 189.300262,527.810501 188.878754,528.560623 188.128632C529.310745 187.378510,529.732254 186.361176,529.732254 185.300262Z" style="stroke:rgb(39.999390%,39.999390%,39.999390%); stroke-width: 0.500000;stroke-linecap: round;stroke-linejoin: round;stroke-miterlimit: 10.000000;fill: none;"></path>
  <path d="M529.732254 185.300262C529.732254 184.239349,529.310745 183.222015,528.560623 182.471893C527.810501 181.721771,526.793167 181.300262,525.732254 181.300262C524.671341 181.300262,523.654007 181.721771,522.903885 182.471893C522.153763 183.222015,521.732254 184.239349,521.732254 185.300262C521.732254 186.361176,522.153763 187.378510,522.903885 188.128632C523.654007 188.878754,524.671341 189.300262,525.732254 189.300262C526.793167 189.300262,527.810501 188.878754,528.560623 188.128632C529.310745 187.378510,529.732254 186.361176,529.732254 185.300262Z" style="fill: rgb(89.999390%,0.000000%,0.000000%);stroke: none;"></path>
  <path d="M246.267746 185.300262C246.267746 184.239349,245.846237 183.222015,245.096115 182.471893C244.345993 181.721771,243.328659 181.300262,242.267746 181.300262C241.206833 181.300262,240.189499 181.721771,239.439377 182.471893C238.689255 183.222015,238.267746 184.239349,238.267746 185.300262C238.267746 186.361176,238.689255 187.378510,239.439377 188.128632C240.189499 188.878754,241.206833 189.300262,242.267746 189.300262C243.328659 189.300262,244.345993 188.878754,245.096115 188.128632C245.846237 187.378510,246.267746 186.361176,246.267746 185.300262Z" style="stroke:rgb(39.999390%,39.999390%,39.999390%); stroke-width: 0.500000;stroke-linecap: round;stroke-linejoin: round;stroke-miterlimit: 10.000000;fill: none;"></path>
  <path d="M246.267746 185.300262C246.267746 184.239349,245.846237 183.222015,245.096115 182.471893C244.345993 181.721771,243.328659 181.300262,242.267746 181.300262C241.206833 181.300262,240.189499 181.721771,239.439377 182.471893C238.689255 183.222015,238.267746 184.239349,238.267746 185.300262C238.267746 186.361176,238.689255 187.378510,239.439377 188.128632C240.189499 188.878754,241.206833 189.300262,242.267746 189.300262C243.328659 189.300262,244.345993 188.878754,245.096115 188.128632C245.846237 187.378510,246.267746 186.361176,246.267746 185.300262Z" style="fill: rgb(89.999390%,0.000000%,0.000000%);stroke: none;"></path>
  <path d="M388.000000 66.561447C388.000000 65.500534,387.578491 64.483200,386.828369 63.733078C386.078247 62.982956,385.060913 62.561447,384.000000 62.561447C382.939087 62.561447,381.921753 62.982956,381.171631 63.733078C380.421509 64.483200,380.000000 65.500534,380.000000 66.561447C380.000000 67.622360,380.421509 68.639694,381.171631 69.389816C381.921753 70.139938,382.939087 70.561447,384.000000 70.561447C385.060913 70.561447,386.078247 70.139938,386.828369 69.389816C387.578491 68.639694,388.000000 67.622360,388.000000 66.561447Z" style="stroke:rgb(39.999390%,39.999390%,39.999390%); stroke-width: 0.500000;stroke-linecap: round;stroke-linejoin: round;stroke-miterlimit: 10.000000;fill: none;"></path>
  <path d="M388.000000 66.561447C388.000000 65.500534,387.578491 64.483200,386.828369 63.733078C386.078247 62.982956,385.060913 62.561447,384.000000 62.561447C382.939087 62.561447,381.921753 62.982956,381.171631 63.733078C380.421509 64.483200,380.000000 65.500534,380.000000 66.561447C380.000000 67.622360,380.421509 68.639694,381.171631 69.389816C381.921753 70.139938,382.939087 70.561447,384.000000 70.561447C385.060913 70.561447,386.078247 70.139938,386.828369 69.389816C387.578491 68.639694,388.000000 67.622360,388.000000 66.561447Z" style="fill: rgb(0.000000%,50.000000%,0.000000%);stroke: none;"></path>
  <path d="M525.732254 185.300262L384.017303 304.047745" style="stroke:rgb(60.000610%,60.000610%,60.000610%); stroke-width: 1.500000;stroke-linecap: round;stroke-dasharray: 3.000000 3.000000 ;stroke-linejoin: round;stroke-miterlimit: 10.000000;fill: none;"></path>
  <path d="M384.000000 488.946747L384.017303 304.047745" style="stroke:rgb(60.000610%,60.000610%,60.000610%); stroke-width: 1.500000;stroke-linecap: round;stroke-dasharray: 3.000000 3.000000 ;stroke-linejoin: round;stroke-miterlimit: 10.000000;fill: none;"></path>
  <path d="M529.732254 185.300262C529.732254 184.239349,529.310745 183.222015,528.560623 182.471893C527.810501 181.721771,526.793167 181.300262,525.732254 181.300262C524.671341 181.300262,523.654007 181.721771,522.903885 182.471893C522.153763 183.222015,521.732254 184.239349,521.732254 185.300262C521.732254 186.361176,522.153763 187.378510,522.903885 188.128632C523.654007 188.878754,524.671341 189.300262,525.732254 189.300262C526.793167 189.300262,527.810501 188.878754,528.560623 188.128632C529.310745 187.378510,529.732254 186.361176,529.732254 185.300262Z" style="stroke:rgb(39.999390%,39.999390%,39.999390%); stroke-width: 0.500000;stroke-linecap: round;stroke-linejoin: round;stroke-miterlimit: 10.000000;fill: none;"></path>
  <path d="M529.732254 185.300262C529.732254 184.239349,529.310745 183.222015,528.560623 182.471893C527.810501 181.721771,526.793167 181.300262,525.732254 181.300262C524.671341 181.300262,523.654007 181.721771,522.903885 182.471893C522.153763 183.222015,521.732254 184.239349,521.732254 185.300262C521.732254 186.361176,522.153763 187.378510,522.903885 188.128632C523.654007 188.878754,524.671341 189.300262,525.732254 189.300262C526.793167 189.300262,527.810501 188.878754,528.560623 188.128632C529.310745 187.378510,529.732254 186.361176,529.732254 185.300262Z" style="fill: rgb(89.999390%,0.000000%,0.000000%);stroke: none;"></path>
  <path d="M388.000000 488.946747C388.000000 487.885834,387.578491 486.868500,386.828369 486.118378C386.078247 485.368256,385.060913 484.946747,384.000000 484.946747C382.939087 484.946747,381.921753 485.368256,381.171631 486.118378C380.421509 486.868500,380.000000 487.885834,380.000000 488.946747C380.000000 490.007660,380.421509 491.024994,381.171631 491.775116C381.921753 492.525238,382.939087 492.946747,384.000000 492.946747C385.060913 492.946747,386.078247 492.525238,386.828369 491.775116C387.578491 491.024994,388.000000 490.007660,388.000000 488.946747Z" style="stroke:rgb(39.999390%,39.999390%,39.999390%); stroke-width: 0.500000;stroke-linecap: round;stroke-linejoin: round;stroke-miterlimit: 10.000000;fill: none;"></path>
  <path d="M388.000000 488.946747C388.000000 487.885834,387.578491 486.868500,386.828369 486.118378C386.078247 485.368256,385.060913 484.946747,384.000000 484.946747C382.939087 484.946747,381.921753 485.368256,381.171631 486.118378C380.421509 486.868500,380.000000 487.885834,380.000000 488.946747C380.000000 490.007660,380.421509 491.024994,381.171631 491.775116C381.921753 492.525238,382.939087 492.946747,384.000000 492.946747C385.060913 492.946747,386.078247 492.525238,386.828369 491.775116C387.578491 491.024994,388.000000 490.007660,388.000000 488.946747Z" style="fill: rgb(89.999390%,0.000000%,0.000000%);stroke: none;"></path>
  <path d="M388.017303 304.047745C388.017303 302.986832,387.595795 301.969498,386.845673 301.219376C386.095551 300.469254,385.078217 300.047745,384.017303 300.047745C382.956390 300.047745,381.939056 300.469254,381.188934 301.219376C380.438812 301.969498,380.017303 302.986832,380.017303 304.047745C380.017303 305.108658,380.438812 306.125992,381.188934 306.876114C381.939056 307.626236,382.956390 308.047745,384.017303 308.047745C385.078217 308.047745,386.095551 307.626236,386.845673 306.876114C387.595795 306.125992,388.017303 305.108658,388.017303 304.047745Z" style="stroke:rgb(39.999390%,39.999390%,39.999390%); stroke-width: 0.500000;stroke-linecap: round;stroke-linejoin: round;stroke-miterlimit: 10.000000;fill: none;"></path>
  <path d="M388.017303 304.047745C388.017303 302.986832,387.595795 301.969498,386.845673 301.219376C386.095551 300.469254,385.078217 300.047745,384.017303 300.047745C382.956390 300.047745,381.939056 300.469254,381.188934 301.219376C380.438812 301.969498,380.017303 302.986832,380.017303 304.047745C380.017303 305.108658,380.438812 306.125992,381.188934 306.876114C381.939056 307.626236,382.956390 308.047745,384.017303 308.047745C385.078217 308.047745,386.095551 307.626236,386.845673 306.876114C387.595795 306.125992,388.017303 305.108658,388.017303 304.047745Z" style="fill: rgb(9.800720%,9.800720%,44.000244%);stroke: none;"></path>
  <path d="M184.585205 468.773422L100.535492 633.464508" style="stroke:rgb(60.000610%,60.000610%,60.000610%); stroke-width: 1.500000;stroke-linecap: round;stroke-dasharray: 3.000000 3.000000 ;stroke-linejoin: round;stroke-miterlimit: 10.000000;fill: none;"></path>
  <path d="M188.585205 468.773422C188.585205 467.712509,188.163696 466.695175,187.413574 465.945053C186.663452 465.194931,185.646118 464.773422,184.585205 464.773422C183.524292 464.773422,182.506958 465.194931,181.756836 465.945053C181.006714 466.695175,180.585205 467.712509,180.585205 468.773422C180.585205 469.834335,181.006714 470.851669,181.756836 471.601791C182.506958 472.351913,183.524292 472.773422,184.585205 472.773422C185.646118 472.773422,186.663452 472.351913,187.413574 471.601791C188.163696 470.851669,188.585205 469.834335,188.585205 468.773422Z" style="stroke:rgb(39.999390%,39.999390%,39.999390%); stroke-width: 0.500000;stroke-linecap: round;stroke-linejoin: round;stroke-miterlimit: 10.000000;fill: none;"></path>
  <path d="M188.585205 468.773422C188.585205 467.712509,188.163696 466.695175,187.413574 465.945053C186.663452 465.194931,185.646118 464.773422,184.585205 464.773422C183.524292 464.773422,182.506958 465.194931,181.756836 465.945053C181.006714 466.695175,180.585205 467.712509,180.585205 468.773422C180.585205 469.834335,181.006714 470.851669,181.756836 471.601791C182.506958 472.351913,183.524292 472.773422,184.585205 472.773422C185.646118 472.773422,186.663452 472.351913,187.413574 471.601791C188.163696 470.851669,188.585205 469.834335,188.585205 468.773422Z" style="fill: rgb(89.999390%,0.000000%,0.000000%);stroke: none;"></path>
  <path d="M104.535492 633.464508C104.535492 632.403595,104.113983 631.386261,103.363861 630.636139C102.613739 629.886017,101.596405 629.464508,100.535492 629.464508C99.474579 629.464508,98.457245 629.886017,97.707123 630.636139C96.957001 631.386261,96.535492 632.403595,96.535492 633.464508C96.535492 634.525421,96.957001 635.542755,97.707123 636.292877C98.457245 637.042999,99.474579 637.464508,100.535492 637.464508C101.596405 637.464508,102.613739 637.042999,103.363861 636.292877C104.113983 635.542755,104.535492 634.525421,104.535492 633.464508Z" style="stroke:rgb(39.999390%,39.999390%,39.999390%); stroke-width: 0.500000;stroke-linecap: round;stroke-linejoin: round;stroke-miterlimit: 10.000000;fill: none;"></path>
  <path d="M104.535492 633.464508C104.535492 632.403595,104.113983 631.386261,103.363861 630.636139C102.613739 629.886017,101.596405 629.464508,100.535492 629.464508C99.474579 629.464508,98.457245 629.886017,97.707123 630.636139C96.957001 631.386261,96.535492 632.403595,96.535492 633.464508C96.535492 634.525421,96.957001 635.542755,97.707123 636.292877C98.457245 637.042999,99.474579 637.464508,100.535492 637.464508C101.596405 637.464508,102.613739 637.042999,103.363861 636.292877C104.113983 635.542755,104.535492 634.525421,104.535492 633.464508Z" style="fill: rgb(100.000000%,100.000000%,0.000000%);stroke: none;"></path>
  <path d="M184.585205 468.773422L100.552795 304.065048" style="stroke:rgb(60.000610%,60.000610%,60.000610%); stroke-width: 1.500000;stroke-linecap: round;stroke-dasharray: 3.000000 3.000000 ;stroke-linejoin: round;stroke-miterlimit: 10.000000;fill: none;"></path>
  <path d="M242.267746 185.300262L100.552795 304.065048" style="stroke:rgb(60.000610%,60.000610%,60.000610%); stroke-width: 1.500000;stroke-linecap: round;stroke-dasharray: 3.000000 3.000000 ;stroke-linejoin: round;stroke-miterlimit: 10.000000;fill: none;"></path>
  <path d="M188.585205 468.773422C188.585205 467.712509,188.163696 466.695175,187.413574 465.945053C186.663452 465.194931,185.646118 464.773422,184.585205 464.773422C183.524292 464.773422,182.506958 465.194931,181.756836 465.945053C181.006714 466.695175,180.585205 467.712509,180.585205 468.773422C180.585205 469.834335,181.006714 470.851669,181.756836 471.601791C182.506958 472.351913,183.524292 472.773422,184.585205 472.773422C185.646118 472.773422,186.663452 472.351913,187.413574 471.601791C188.163696 470.851669,188.585205 469.834335,188.585205 468.773422Z" style="stroke:rgb(39.999390%,39.999390%,39.999390%); stroke-width: 0.500000;stroke-linecap: round;stroke-linejoin: round;stroke-miterlimit: 10.000000;fill: none;"></path>
  <path d="M188.585205 468.773422C188.585205 467.712509,188.163696 466.695175,187.413574 465.945053C186.663452 465.194931,185.646118 464.773422,184.585205 464.773422C183.524292 464.773422,182.506958 465.194931,181.756836 465.945053C181.006714 466.695175,180.585205 467.712509,180.585205 468.773422C180.585205 469.834335,181.006714 470.851669,181.756836 471.601791C182.506958 472.351913,183.524292 472.773422,184.585205 472.773422C185.646118 472.773422,186.663452 472.351913,187.413574 471.601791C188.163696 470.851669,188.585205 469.834335,188.585205 468.773422Z" style="fill: rgb(89.999390%,0.000000%,0.000000%);stroke: none;"></path>
  <path d="M246.267746 185.300262C246.267746 184.239349,245.846237 183.222015,245.096115 182.471893C244.345993 181.721771,243.328659 181.300262,242.267746 181.300262C241.206833 181.300262,240.189499 181.721771,239.439377 182.471893C238.689255 183.222015,238.267746 184.239349,238.267746 185.300262C238.267746 186.361176,238.689255 187.378510,239.439377 188.128632C240.189499 188.878754,241.206833 189.300262,242.267746 189.300262C243.328659 189.300262,244.345993 188.878754,245.096115 188.128632C245.846237 187.378510,246.267746 186.361176,246.267746 185.300262Z" style="stroke:rgb(39.999390%,39.999390%,39.999390%); stroke-width: 0.500000;stroke-linecap: round;stroke-linejoin: round;stroke-miterlimit: 10.000000;fill: none;"></path>
  <path d="M246.267746 185.300262C246.267746 184.239349,245.846237 183.222015,245.096115 182.471893C244.345993 181.721771,243.328659 181.300262,242.267746 181.300262C241.206833 181.300262,240.189499 181.721771,239.439377 182.471893C238.689255 183.222015,238.267746 184.239349,238.267746 185.300262C238.267746 186.361176,238.689255 187.378510,239.439377 188.128632C240.189499 188.878754,241.206833 189.300262,242.267746 189.300262C243.328659 189.300262,244.345993 188.878754,245.096115 188.128632C245.846237 187.378510,246.267746 186.361176,246.267746 185.300262Z" style="fill: rgb(89.999390%,0.000000%,0.000000%);stroke: none;"></path>
  <path d="M104.552795 304.065048C104.552795 303.004135,104.131287 301.986801,103.381165 301.236679C102.631042 300.486557,101.613708 300.065048,100.552795 300.065048C99.491882 300.065048,98.474548 300.486557,97.724426 301.236679C96.974304 301.986801,96.552795 303.004135,96.552795 304.065048C96.552795 305.125961,96.974304 306.143295,97.724426 306.893417C98.474548 307.643539,99.491882 308.065048,100.552795 308.065048C101.613708 308.065048,102.631042 307.643539,103.381165 306.893417C104.131287 306.143295,104.552795 305.125961,104.552795 304.065048Z" style="stroke:rgb(39.999390%,39.999390%,39.999390%); stroke-width: 0.500000;stroke-linecap: round;stroke-linejoin: round;stroke-miterlimit: 10.000000;fill: none;"></path>
  <path d="M104.552795 304.065048C104.552795 303.004135,104.131287 301.986801,103.381165 301.236679C102.631042 300.486557,101.613708 300.065048,100.552795 300.065048C99.491882 300.065048,98.474548 300.486557,97.724426 301.236679C96.974304 301.986801,96.552795 303.004135,96.552795 304.065048C96.552795 305.125961,96.974304 306.143295,97.724426 306.893417C98.474548 307.643539,99.491882 308.065048,100.552795 308.065048C101.613708 308.065048,102.631042 307.643539,103.381165 306.893417C104.131287 306.143295,104.552795 305.125961,104.552795 304.065048Z" style="fill: rgb(0.000000%,50.000000%,0.000000%);stroke: none;"></path>
  <path d="M184.585205 468.773422L268.652222 633.455856" style="stroke:rgb(60.000610%,60.000610%,60.000610%); stroke-width: 1.500000;stroke-linecap: round;stroke-dasharray: 3.000000 3.000000 ;stroke-linejoin: round;stroke-miterlimit: 10.000000;fill: none;"></path>
  <path d="M384.000000 488.946747L268.652222 633.455856" style="stroke:rgb(60.000610%,60.000610%,60.000610%); stroke-width: 1.500000;stroke-linecap: round;stroke-dasharray: 3.000000 3.000000 ;stroke-linejoin: round;stroke-miterlimit: 10.000000;fill: none;"></path>
  <path d="M188.585205 468.773422C188.585205 467.712509,188.163696 466.695175,187.413574 465.945053C186.663452 465.194931,185.646118 464.773422,184.585205 464.773422C183.524292 464.773422,182.506958 465.194931,181.756836 465.945053C181.006714 466.695175,180.585205 467.712509,180.585205 468.773422C180.585205 469.834335,181.006714 470.851669,181.756836 471.601791C182.506958 472.351913,183.524292 472.773422,184.585205 472.773422C185.646118 472.773422,186.663452 472.351913,187.413574 471.601791C188.163696 470.851669,188.585205 469.834335,188.585205 468.773422Z" style="stroke:rgb(39.999390%,39.999390%,39.999390%); stroke-width: 0.500000;stroke-linecap: round;stroke-linejoin: round;stroke-miterlimit: 10.000000;fill: none;"></path>
  <path d="M188.585205 468.773422C188.585205 467.712509,188.163696 466.695175,187.413574 465.945053C186.663452 465.194931,185.646118 464.773422,184.585205 464.773422C183.524292 464.773422,182.506958 465.194931,181.756836 465.945053C181.006714 466.695175,180.585205 467.712509,180.585205 468.773422C180.585205 469.834335,181.006714 470.851669,181.756836 471.601791C182.506958 472.351913,183.524292 472.773422,184.585205 472.773422C185.646118 472.773422,186.663452 472.351913,187.413574 471.601791C188.163696 470.851669,188.585205 469.834335,188.585205 468.773422Z" style="fill: rgb(89.999390%,0.000000%,0.000000%);stroke: none;"></path>
  <path d="M388.000000 488.946747C388.000000 487.885834,387.578491 486.868500,386.828369 486.118378C386.078247 485.368256,385.060913 484.946747,384.000000 484.946747C382.939087 484.946747,381.921753 485.368256,381.171631 486.118378C380.421509 486.868500,380.000000 487.885834,380.000000 488.946747C380.000000 490.007660,380.421509 491.024994,381.171631 491.775116C381.921753 492.525238,382.939087 492.946747,384.000000 492.946747C385.060913 492.946747,386.078247 492.525238,386.828369 491.775116C387.578491 491.024994,388.000000 490.007660,388.000000 488.946747Z" style="stroke:rgb(39.999390%,39.999390%,39.999390%); stroke-width: 0.500000;stroke-linecap: round;stroke-linejoin: round;stroke-miterlimit: 10.000000;fill: none;"></path>
  <path d="M388.000000 488.946747C388.000000 487.885834,387.578491 486.868500,386.828369 486.118378C386.078247 485.368256,385.060913 484.946747,384.000000 484.946747C382.939087 484.946747,381.921753 485.368256,381.171631 486.118378C380.421509 486.868500,380.000000 487.885834,380.000000 488.946747C380.000000 490.007660,380.421509 491.024994,381.171631 491.775116C381.921753 492.525238,382.939087 492.946747,384.000000 492.946747C385.060913 492.946747,386.078247 492.525238,386.828369 491.775116C387.578491 491.024994,388.000000 490.007660,388.000000 488.946747Z" style="fill: rgb(89.999390%,0.000000%,0.000000%);stroke: none;"></path>
  <path d="M272.652222 633.455856C272.652222 632.394943,272.230713 631.377609,271.480591 630.627487C270.730469 629.877365,269.713135 629.455856,268.652222 629.455856C267.591309 629.455856,266.573975 629.877365,265.823853 630.627487C265.073730 631.377609,264.652222 632.394943,264.652222 633.455856C264.652222 634.516769,265.073730 635.534103,265.823853 636.284225C266.573975 637.034348,267.591309 637.455856,268.652222 637.455856C269.713135 637.455856,270.730469 637.034348,271.480591 636.284225C272.230713 635.534103,272.652222 634.516769,272.652222 633.455856Z" style="stroke:rgb(39.999390%,39.999390%,39.999390%); stroke-width: 0.500000;stroke-linecap: round;stroke-linejoin: round;stroke-miterlimit: 10.000000;fill: none;"></path>
  <path d="M272.652222 633.455856C272.652222 632.394943,272.230713 631.377609,271.480591 630.627487C270.730469 629.877365,269.713135 629.455856,268.652222 629.455856C267.591309 629.455856,266.573975 629.877365,265.823853 630.627487C265.073730 631.377609,264.652222 632.394943,264.652222 633.455856C264.652222 634.516769,265.073730 635.534103,265.823853 636.284225C266.573975 637.034348,267.591309 637.455856,268.652222 637.455856C269.713135 637.455856,270.730469 637.034348,271.480591 636.284225C272.230713 635.534103,272.652222 634.516769,272.652222 633.455856Z" style="fill: rgb(0.000000%,50.000000%,0.000000%);stroke: none;"></path>
  <path d="M583.414795 468.773422L667.464508 633.464508" style="stroke:rgb(60.000610%,60.000610%,60.000610%); stroke-width: 1.500000;stroke-linecap: round;stroke-dasharray: 3.000000 3.000000 ;stroke-linejoin: round;stroke-miterlimit: 10.000000;fill: none;"></path>
  <path d="M587.414795 468.773422C587.414795 467.712509,586.993286 466.695175,586.243164 465.945053C585.493042 465.194931,584.475708 464.773422,583.414795 464.773422C582.353882 464.773422,581.336548 465.194931,580.586426 465.945053C579.836304 466.695175,579.414795 467.712509,579.414795 468.773422C579.414795 469.834335,579.836304 470.851669,580.586426 471.601791C581.336548 472.351913,582.353882 472.773422,583.414795 472.773422C584.475708 472.773422,585.493042 472.351913,586.243164 471.601791C586.993286 470.851669,587.414795 469.834335,587.414795 468.773422Z" style="stroke:rgb(39.999390%,39.999390%,39.999390%); stroke-width: 0.500000;stroke-linecap: round;stroke-linejoin: round;stroke-miterlimit: 10.000000;fill: none;"></path>
  <path d="M587.414795 468.773422C587.414795 467.712509,586.993286 466.695175,586.243164 465.945053C585.493042 465.194931,584.475708 464.773422,583.414795 464.773422C582.353882 464.773422,581.336548 465.194931,580.586426 465.945053C579.836304 466.695175,579.414795 467.712509,579.414795 468.773422C579.414795 469.834335,579.836304 470.851669,580.586426 471.601791C581.336548 472.351913,582.353882 472.773422,583.414795 472.773422C584.475708 472.773422,585.493042 472.351913,586.243164 471.601791C586.993286 470.851669,587.414795 469.834335,587.414795 468.773422Z" style="fill: rgb(89.999390%,0.000000%,0.000000%);stroke: none;"></path>
  <path d="M671.464508 633.464508C671.464508 632.403595,671.042999 631.386261,670.292877 630.636139C669.542755 629.886017,668.525421 629.464508,667.464508 629.464508C666.403595 629.464508,665.386261 629.886017,664.636139 630.636139C663.886017 631.386261,663.464508 632.403595,663.464508 633.464508C663.464508 634.525421,663.886017 635.542755,664.636139 636.292877C665.386261 637.042999,666.403595 637.464508,667.464508 637.464508C668.525421 637.464508,669.542755 637.042999,670.292877 636.292877C671.042999 635.542755,671.464508 634.525421,671.464508 633.464508Z" style="stroke:rgb(39.999390%,39.999390%,39.999390%); stroke-width: 0.500000;stroke-linecap: round;stroke-linejoin: round;stroke-miterlimit: 10.000000;fill: none;"></path>
  <path d="M671.464508 633.464508C671.464508 632.403595,671.042999 631.386261,670.292877 630.636139C669.542755 629.886017,668.525421 629.464508,667.464508 629.464508C666.403595 629.464508,665.386261 629.886017,664.636139 630.636139C663.886017 631.386261,663.464508 632.403595,663.464508 633.464508C663.464508 634.525421,663.886017 635.542755,664.636139 636.292877C665.386261 637.042999,666.403595 637.464508,667.464508 637.464508C668.525421 637.464508,669.542755 637.042999,670.292877 636.292877C671.042999 635.542755,671.464508 634.525421,671.464508 633.464508Z" style="fill: rgb(100.000000%,100.000000%,0.000000%);stroke: none;"></path>
  <path d="M583.414795 468.773422L499.347778 633.455856" style="stroke:rgb(60.000610%,60.000610%,60.000610%); stroke-width: 1.500000;stroke-linecap: round;stroke-dasharray: 3.000000 3.000000 ;stroke-linejoin: round;stroke-miterlimit: 10.000000;fill: none;"></path>
  <path d="M384.000000 488.946747L499.347778 633.455856" style="stroke:rgb(60.000610%,60.000610%,60.000610%); stroke-width: 1.500000;stroke-linecap: round;stroke-dasharray: 3.000000 3.000000 ;stroke-linejoin: round;stroke-miterlimit: 10.000000;fill: none;"></path>
  <path d="M587.414795 468.773422C587.414795 467.712509,586.993286 466.695175,586.243164 465.945053C585.493042 465.194931,584.475708 464.773422,583.414795 464.773422C582.353882 464.773422,581.336548 465.194931,580.586426 465.945053C579.836304 466.695175,579.414795 467.712509,579.414795 468.773422C579.414795 469.834335,579.836304 470.851669,580.586426 471.601791C581.336548 472.351913,582.353882 472.773422,583.414795 472.773422C584.475708 472.773422,585.493042 472.351913,586.243164 471.601791C586.993286 470.851669,587.414795 469.834335,587.414795 468.773422Z" style="stroke:rgb(39.999390%,39.999390%,39.999390%); stroke-width: 0.500000;stroke-linecap: round;stroke-linejoin: round;stroke-miterlimit: 10.000000;fill: none;"></path>
  <path d="M587.414795 468.773422C587.414795 467.712509,586.993286 466.695175,586.243164 465.945053C585.493042 465.194931,584.475708 464.773422,583.414795 464.773422C582.353882 464.773422,581.336548 465.194931,580.586426 465.945053C579.836304 466.695175,579.414795 467.712509,579.414795 468.773422C579.414795 469.834335,579.836304 470.851669,580.586426 471.601791C581.336548 472.351913,582.353882 472.773422,583.414795 472.773422C584.475708 472.773422,585.493042 472.351913,586.243164 471.601791C586.993286 470.851669,587.414795 469.834335,587.414795 468.773422Z" style="fill: rgb(89.999390%,0.000000%,0.000000%);stroke: none;"></path>
  <path d="M388.000000 488.946747C388.000000 487.885834,387.578491 486.868500,386.828369 486.118378C386.078247 485.368256,385.060913 484.946747,384.000000 484.946747C382.939087 484.946747,381.921753 485.368256,381.171631 486.118378C380.421509 486.868500,380.000000 487.885834,380.000000 488.946747C380.000000 490.007660,380.421509 491.024994,381.171631 491.775116C381.921753 492.525238,382.939087 492.946747,384.000000 492.946747C385.060913 492.946747,386.078247 492.525238,386.828369 491.775116C387.578491 491.024994,388.000000 490.007660,388.000000 488.946747Z" style="stroke:rgb(39.999390%,39.999390%,39.999390%); stroke-width: 0.500000;stroke-linecap: round;stroke-linejoin: round;stroke-miterlimit: 10.000000;fill: none;"></path>
  <path d="M388.000000 488.946747C388.000000 487.885834,387.578491 486.868500,386.828369 486.118378C386.078247 485.368256,385.060913 484.946747,384.000000 484.946747C382.939087 484.946747,381.921753 485.368256,381.171631 486.118378C380.421509 486.868500,380.000000 487.885834,380.000000 488.946747C380.000000 490.007660,380.421509 491.024994,381.171631 491.775116C381.921753 492.525238,382.939087 492.946747,384.000000 492.946747C385.060913 492.946747,386.078247 492.525238,386.828369 491.775116C387.578491 491.024994,388.000000 490.007660,388.000000 488.946747Z" style="fill: rgb(89.999390%,0.000000%,0.000000%);stroke: none;"></path>
  <path d="M503.347778 633.455856C503.347778 632.394943,502.926270 631.377609,502.176147 630.627487C501.426025 629.877365,500.408691 629.455856,499.347778 629.455856C498.286865 629.455856,497.269531 629.877365,496.519409 630.627487C495.769287 631.377609,495.347778 632.394943,495.347778 633.455856C495.347778 634.516769,495.769287 635.534103,496.519409 636.284225C497.269531 637.034348,498.286865 637.455856,499.347778 637.455856C500.408691 637.455856,501.426025 637.034348,502.176147 636.284225C502.926270 635.534103,503.347778 634.516769,503.347778 633.455856Z" style="stroke:rgb(39.999390%,39.999390%,39.999390%); stroke-width: 0.500000;stroke-linecap: round;stroke-linejoin: round;stroke-miterlimit: 10.000000;fill: none;"></path>
  <path d="M503.347778 633.455856C503.347778 632.394943,502.926270 631.377609,502.176147 630.627487C501.426025 629.877365,500.408691 629.455856,499.347778 629.455856C498.286865 629.455856,497.269531 629.877365,496.519409 630.627487C495.769287 631.377609,495.347778 632.394943,495.347778 633.455856C495.347778 634.516769,495.769287 635.534103,496.519409 636.284225C497.269531 637.034348,498.286865 637.455856,499.347778 637.455856C500.408691 637.455856,501.426025 637.034348,502.176147 636.284225C502.926270 635.534103,503.347778 634.516769,503.347778 633.455856Z" style="fill: rgb(0.000000%,50.000000%,0.000000%);stroke: none;"></path>
  <path d="M242.267746 185.300262L100.535492 66.535492" style="stroke:rgb(60.000610%,60.000610%,60.000610%); stroke-width: 1.500000;stroke-linecap: round;stroke-dasharray: 3.000000 3.000000 ;stroke-linejoin: round;stroke-miterlimit: 10.000000;fill: none;"></path>
  <path d="M246.267746 185.300262C246.267746 184.239349,245.846237 183.222015,245.096115 182.471893C244.345993 181.721771,243.328659 181.300262,242.267746 181.300262C241.206833 181.300262,240.189499 181.721771,239.439377 182.471893C238.689255 183.222015,238.267746 184.239349,238.267746 185.300262C238.267746 186.361176,238.689255 187.378510,239.439377 188.128632C240.189499 188.878754,241.206833 189.300262,242.267746 189.300262C243.328659 189.300262,244.345993 188.878754,245.096115 188.128632C245.846237 187.378510,246.267746 186.361176,246.267746 185.300262Z" style="stroke:rgb(39.999390%,39.999390%,39.999390%); stroke-width: 0.500000;stroke-linecap: round;stroke-linejoin: round;stroke-miterlimit: 10.000000;fill: none;"></path>
  <path d="M246.267746 185.300262C246.267746 184.239349,245.846237 183.222015,245.096115 182.471893C244.345993 181.721771,243.328659 181.300262,242.267746 181.300262C241.206833 181.300262,240.189499 181.721771,239.439377 182.471893C238.689255 183.222015,238.267746 184.239349,238.267746 185.300262C238.267746 186.361176,238.689255 187.378510,239.439377 188.128632C240.189499 188.878754,241.206833 189.300262,242.267746 189.300262C243.328659 189.300262,244.345993 188.878754,245.096115 188.128632C245.846237 187.378510,246.267746 186.361176,246.267746 185.300262Z" style="fill: rgb(89.999390%,0.000000%,0.000000%);stroke: none;"></path>
  <path d="M104.535492 66.535492C104.535492 65.474579,104.113983 64.457245,103.363861 63.707123C102.613739 62.957001,101.596405 62.535492,100.535492 62.535492C99.474579 62.535492,98.457245 62.957001,97.707123 63.707123C96.957001 64.457245,96.535492 65.474579,96.535492 66.535492C96.535492 67.596405,96.957001 68.613739,97.707123 69.363861C98.457245 70.113983,99.474579 70.535492,100.535492 70.535492C101.596405 70.535492,102.613739 70.113983,103.363861 69.363861C104.113983 68.613739,104.535492 67.596405,104.535492 66.535492Z" style="stroke:rgb(39.999390%,39.999390%,39.999390%); stroke-width: 0.500000;stroke-linecap: round;stroke-linejoin: round;stroke-miterlimit: 10.000000;fill: none;"></path>
  <path d="M104.535492 66.535492C104.535492 65.474579,104.113983 64.457245,103.363861 63.707123C102.613739 62.957001,101.596405 62.535492,100.535492 62.535492C99.474579 62.535492,98.457245 62.957001,97.707123 63.707123C96.957001 64.457245,96.535492 65.474579,96.535492 66.535492C96.535492 67.596405,96.957001 68.613739,97.707123 69.363861C98.457245 70.113983,99.474579 70.535492,100.535492 70.535492C101.596405 70.535492,102.613739 70.113983,103.363861 69.363861C104.113983 68.613739,104.535492 67.596405,104.535492 66.535492Z" style="fill: rgb(100.000000%,100.000000%,0.000000%);stroke: none;"></path>
  <path d="M242.267746 185.300262L383.982697 304.047745" style="stroke:rgb(60.000610%,60.000610%,60.000610%); stroke-width: 1.500000;stroke-linecap: round;stroke-dasharray: 3.000000 3.000000 ;stroke-linejoin: round;stroke-miterlimit: 10.000000;fill: none;"></path>
  <path d="M384.000000 488.946747L383.982697 304.047745" style="stroke:rgb(60.000610%,60.000610%,60.000610%); stroke-width: 1.500000;stroke-linecap: round;stroke-dasharray: 3.000000 3.000000 ;stroke-linejoin: round;stroke-miterlimit: 10.000000;fill: none;"></path>
  <path d="M246.267746 185.300262C246.267746 184.239349,245.846237 183.222015,245.096115 182.471893C244.345993 181.721771,243.328659 181.300262,242.267746 181.300262C241.206833 181.300262,240.189499 181.721771,239.439377 182.471893C238.689255 183.222015,238.267746 184.239349,238.267746 185.300262C238.267746 186.361176,238.689255 187.378510,239.439377 188.128632C240.189499 188.878754,241.206833 189.300262,242.267746 189.300262C243.328659 189.300262,244.345993 188.878754,245.096115 188.128632C245.846237 187.378510,246.267746 186.361176,246.267746 185.300262Z" style="stroke:rgb(39.999390%,39.999390%,39.999390%); stroke-width: 0.500000;stroke-linecap: round;stroke-linejoin: round;stroke-miterlimit: 10.000000;fill: none;"></path>
  <path d="M246.267746 185.300262C246.267746 184.239349,245.846237 183.222015,245.096115 182.471893C244.345993 181.721771,243.328659 181.300262,242.267746 181.300262C241.206833 181.300262,240.189499 181.721771,239.439377 182.471893C238.689255 183.222015,238.267746 184.239349,238.267746 185.300262C238.267746 186.361176,238.689255 187.378510,239.439377 188.128632C240.189499 188.878754,241.206833 189.300262,242.267746 189.300262C243.328659 189.300262,244.345993 188.878754,245.096115 188.128632C245.846237 187.378510,246.267746 186.361176,246.267746 185.300262Z" style="fill: rgb(89.999390%,0.000000%,0.000000%);stroke: none;"></path>
  <path d="M388.000000 488.946747C388.000000 487.885834,387.578491 486.868500,386.828369 486.118378C386.078247 485.368256,385.060913 484.946747,384.000000 484.946747C382.939087 484.946747,381.921753 485.368256,381.171631 486.118378C380.421509 486.868500,380.000000 487.885834,380.000000 488.946747C380.000000 490.007660,380.421509 491.024994,381.171631 491.775116C381.921753 492.525238,382.939087 492.946747,384.000000 492.946747C385.060913 492.946747,386.078247 492.525238,386.828369 491.775116C387.578491 491.024994,388.000000 490.007660,388.000000 488.946747Z" style="stroke:rgb(39.999390%,39.999390%,39.999390%); stroke-width: 0.500000;stroke-linecap: round;stroke-linejoin: round;stroke-miterlimit: 10.000000;fill: none;"></path>
  <path d="M388.000000 488.946747C388.000000 487.885834,387.578491 486.868500,386.828369 486.118378C386.078247 485.368256,385.060913 484.946747,384.000000 484.946747C382.939087 484.946747,381.921753 485.368256,381.171631 486.118378C380.421509 486.868500,380.000000 487.885834,380.000000 488.946747C380.000000 490.007660,380.421509 491.024994,381.171631 491.775116C381.921753 492.525238,382.939087 492.946747,384.000000 492.946747C385.060913 492.946747,386.078247 492.525238,386.828369 491.775116C387.578491 491.024994,388.000000 490.007660,388.000000 488.946747Z" style="fill: rgb(89.999390%,0.000000%,0.000000%);stroke: none;"></path>
  <path d="M387.982697 304.047745C387.982697 302.986832,387.561188 301.969498,386.811066 301.219376C386.060944 300.469254,385.043610 300.047745,383.982697 300.047745C382.921783 300.047745,381.904449 300.469254,381.154327 301.219376C380.404205 301.969498,379.982697 302.986832,379.982697 304.047745C379.982697 305.108658,380.404205 306.125992,381.154327 306.876114C381.904449 307.626236,382.921783 308.047745,383.982697 308.047745C385.043610 308.047745,386.060944 307.626236,386.811066 306.876114C387.561188 306.125992,387.982697 305.108658,387.982697 304.047745Z" style="stroke:rgb(39.999390%,39.999390%,39.999390%); stroke-width: 0.500000;stroke-linecap: round;stroke-linejoin: round;stroke-miterlimit: 10.000000;fill: none;"></path>
  <path d="M387.982697 304.047745C387.982697 302.986832,387.561188 301.969498,386.811066 301.219376C386.060944 300.469254,385.043610 300.047745,383.982697 300.047745C382.921783 300.047745,381.904449 300.469254,381.154327 301.219376C380.404205 301.969498,379.982697 302.986832,379.982697 304.047745C379.982697 305.108658,380.404205 306.125992,381.154327 306.876114C381.904449 307.626236,382.921783 308.047745,383.982697 308.047745C385.043610 308.047745,386.060944 307.626236,386.811066 306.876114C387.561188 306.125992,387.982697 305.108658,387.982697 304.047745Z" style="fill: rgb(9.800720%,9.800720%,44.000244%);stroke: none;"></path>
</svg>
